<svg xmlns="http://www.w3.org/2000/svg" width="61" height="42" viewBox="0 0 61 42">
  <g fill="#CCC">
    <path d="M33.6432557.708098988L33.6432557 1.67999981 31.9432557 1.67999981 31.9432557.708098988 33.6432557.708098988zM31.2457996.708098988L31.2457996 1.67999981 29.3483435 1.67999981 29.3483435.708098988 31.2457996.708098988zM28.6508873.708098988L28.6508873 1.67999981 26.7534312 1.67999981 26.7534312.708098988 28.6508873.708098988zM25.0492119 1.15542726C25.1713932 1.07252216 25.1713932 1.07252216 25.2456142 1.0383932 25.3447252.985745304 25.3447252.985745304 25.3528937.984363978 25.4511819.930783981 25.5548793.883550882 25.6623967.843054904L25.9017604.75289961 26.3770437 1.58490949 26.043729 1.70711889C25.7752788 1.8055458 25.5433458 1.99658389 25.3940619 2.24235492L25.2354345 2.5035085 24.3864798 1.96628051 24.5915011 1.70509386C24.5883786 1.70907187 24.6845659 1.56436058 24.8262116 1.35997272L24.8708117 1.31451817 24.8874942 1.29761298C24.9232793 1.26380043 24.9232793 1.26380043 24.9606257 1.23086229L24.9684772 1.22400853C25.0074354 1.19008864 25.0371869 1.16480265 25.0423509 1.16187367 25.088209 1.12099279 25.088209 1.12099279 25.0492119 1.15542726zM23.5468292 3.50469573L24.0183644 2.67352239 24.8560822 3.15750531 23.910356 4.82616259 23.0771059 4.33623123 23.2222351 4.07948219 23.5364031 3.52472432 23.5468292 3.50469573zM22.7219426 4.96276266L23.5554821 5.45286414 22.6108726 7.11955101 21.7773331 6.62944954 22.7219426 4.96276266zM20.8457109 8.3820155C20.8787214 8.31475135 20.8787214 8.31475135 20.9301916 8.21046491 21.0049599 8.0590976 21.1170375 7.83288753 21.2664541 7.53177429L21.4009222 7.26078613 22.3059642 7.71934157 22.1509481 7.99281437 21.8034023 8.60592948C21.7369664 8.72152984 21.6888644 8.84873754 21.6604525 8.98329903L21.5982909 9.27770212 20.6528671 9.07514034 20.7170106 8.78096409C20.7412598 8.6697524 20.769574 8.56933087 20.8053547 8.47132803L20.811242 8.47347749C20.8276319 8.4083771 20.8314455 8.40281642 20.8457109 8.3820155zM20.8989181 10.3406472C20.8916754 10.3260861 20.8916754 10.3260861 20.8829641 10.3090621 20.8734299 10.2904457 20.8734299 10.2904457 20.8624271 10.2683332L20.7319552 10.00239 21.5936654 9.56600758 21.7274847 9.8387739C21.7343726 9.85281369 21.9300496 10.2201387 22.274212 10.8647358L22.4139478 11.1264534 21.5687156 11.5898788 21.425272 11.3241653C21.2323341 10.9667691 21.1235116 10.7653844 21.111782 10.7435398 21.1046354 10.7308217 21.1046354 10.7308217 21.046458 10.6258911 21.0354175 10.6053331 21.0346019 10.6038143 21.0306199 10.5958233 21.0193448 10.5788338 21.0187225 10.5775703 21.0124754 10.5648864 20.9956196 10.5366165 20.9943661 10.5345142 20.9902015 10.5257554 20.9800822 10.5081787 20.9800822 10.5081787 20.9566868 10.4666432 20.9500443 10.4538262 20.9500443 10.4538262 20.9272999 10.4129613 20.925162 10.4085826 20.925162 10.4085826 20.9231286 10.4043435 20.8896027 10.3375312 20.8896027 10.3375312 20.954116 10.4289525L20.914837 10.3328374 20.8989181 10.3406472zM22.0208955 12.3204626L22.8542948 11.8304436 23.7965834 13.4952369 22.9635961 13.9850137 22.8131236 13.7204757C22.7318922 13.577667 22.6101217 13.3630712 22.4883615 13.1474596L22.0208955 12.3204626zM23.5789759 15.0720522L23.5846066 15.0825027 23.3192326 14.6092008 24.1524551 14.1192857 25.0811964 15.7704299 24.2484911 16.2600408 24.0981918 15.9948741 23.6073578 15.1278373 23.5850577 15.086515 23.5967752 15.1066773 23.5855021 15.0688504 23.5789759 15.0720522zM24.9457418 17.2255003L24.9061932 17.1977995 24.8829754 17.1810186 24.9244582 17.2149193 24.6282988 17.013697 25.3280822 16.2659973 25.5473033 16.4787794C25.7564689 16.6818013 26.0156019 16.7941382 26.2576985 16.786751L26.5952025 16.7764524 26.5079952 17.7707766 26.2191444 17.7560573C26.1645094 17.7524468 26.1645094 17.7524468 26.0800132 17.7457976L26.0733195 17.7452665C25.9714712 17.7372529 25.9714712 17.7372529 25.8949209 17.7270438 25.6063304 17.6558117 25.3351027 17.5271561 25.0663479 17.3229424 25.033796 17.3114627 25.0374176 17.3106289 25.0453918 17.308793L24.9539945 17.2323983 24.9649565 17.2402711 24.9535518 17.2320283 24.9457418 17.2255003zM29.1414879 16.8361982L29.1414879 17.808099 27.2440318 17.808099 27.2440318 16.8361982 29.1414879 16.8361982zM31.7364002 16.8361982L31.7364002 17.808099 29.8389441 17.808099 29.8389441 16.8361982 31.7364002 16.8361982zM33.7414121 17.808099L32.4338563 17.808099 32.4338563 16.8361982 33.5407119 16.8361982C33.6448714 16.8361982 33.7512166 16.8219703 33.8588304 16.7941162L34.1561132 16.7171693 34.4076237 17.7915701 34.0150217 17.7915701C34.0111357 17.7922342 34.007107 17.7929226 34.0029306 17.7936362L33.9714564 17.7936362C33.9647719 17.7942356 33.9570838 17.7949158 33.9481942 17.7957023L33.9617103 17.7921111C33.9589577 17.7926321 33.9563774 17.7930104 33.9528189 17.793532 33.9566407 17.7931841 33.9566407 17.7931841 33.8934578 17.7998345L33.9127867 17.7955226C33.8999142 17.7971973 33.8783194 17.7996681 33.8407486 17.8039668L33.8083122 17.8039668C33.8258477 17.8031107 33.8328141 17.8027706 33.8370005 17.8023798 33.8291381 17.803609 33.8187881 17.8042194 33.7880395 17.8060329L33.7812567 17.8060329C33.750361 17.8082129 33.750361 17.8082129 33.7414121 17.808099zM35.3485821 14.935833L36.0474483 15.5343672 35.9375311 15.7457015C35.4499303 16.6831963 35.3530854 16.8682596 35.3291482 16.9007873L35.1472585 17.1479533 34.3801436 16.556165 34.5539699 16.3199561C34.5820298 16.2818261 34.6103488 16.2381595 34.6388084 16.1893101L35.3485821 14.935833zM36.616887 12.6982999L37.4504264 13.1884013 36.505817 14.8550882 35.6722775 14.3649867 36.616887 12.6982999zM37.9532089 12.2992145L37.8026375 12.5633922 36.9697336 12.0736644 37.9143431 10.4069775 38.7478826 10.897079 38.6022959 11.1539548 38.2310708 11.7884567C38.2536437 11.7601247 38.2648955 11.7460024 38.2715339 11.7366434 38.1520224 11.9493771 38.0329234 12.1593553 37.9532089 12.2992145zM39.2242511 8.64853704C39.297036 8.90936154 39.3241673 9.17805789 39.3042186 9.41925601L39.3042186 9.58454527 39.3000956 9.63824346C39.2843179 9.73242631 39.2617796 9.82842957 39.2332184 9.9254578L39.1469641 10.2184804 38.2239064 9.92860047 38.3095035 9.6446522C38.3935547 9.36583232 38.3822441 9.0599133 38.2779301 8.78653836L38.1727089 8.51078558 39.0455869 8.16129927 39.1681334 8.41108795C39.1908606 8.45741313 39.1604471 8.29080863 39.2267351 8.66913331 39.237221 8.70528852 39.2342387 8.69223896 39.2242511 8.64853704zM38.6767967 7.4972953L37.8433885 7.98731961 36.898779 6.32063274 37.7324111 5.83047679 37.8826654 6.09580619C37.9633349 6.23825817 38.0846514 6.45205028 38.2064197 6.6657668 38.238527 6.72210188 38.238527 6.72210188 38.2673467 6.77261098 38.2795323 6.7922791 38.2866389 6.80339467 38.2921742 6.81784337L38.6767967 7.4972953zM36.4348623 3.53920894L37.3794718 5.20589582 36.5459323 5.6959973 35.6013228 4.02931042 36.4348623 3.53920894zM36.0819396 2.91668432L35.2483977 3.40678726 35.0981372 3.14148019 34.6363781 2.326173C34.5937831 2.25150606 34.5462384 2.18383527 34.4948271 2.12508789L34.2982756 1.90048979 35.0213351 1.26110974 35.220172 1.48402075C35.2485414 1.51683137 35.2485414 1.51683137 35.2837046 1.55912175 35.2982459 1.56564444 35.3037088 1.5680949 35.3268366 1.62545092L35.3330553 1.62075723C35.3758604 1.67747 35.4129807 1.73421723 35.4633546 1.81693003 35.4626011 1.81682347 35.4611721 1.81444398 35.4596725 1.81194872 35.4613407 1.81506063 35.4629385 1.81804166 35.4644696 1.82090436L35.4713358 1.84537906 35.4884302 1.86875537 36.0819396 2.91668432zM33.9228111.749092511L34.2135227.806069689 34.0382306 1.76428619 33.7382936 1.70314951C33.6703527 1.68930099 33.595563 1.68233441 33.5164199 1.68233441L33.2164199 1.68233441 33.2164199.710433582 33.5168704.710433582C33.6907221.722390239 33.8628259.737335889 33.9228111.749092511zM33.9903887 24L33.9903887 24.9719008 32.2903887 24.9719008 32.2903887 24 33.9903887 24zM31.5929325 24L31.5929325 24.9719008 29.6954764 24.9719008 29.6954764 24 31.5929325 24zM28.9980202 24L28.9980202 24.9719008 27.1005641 24.9719008 27.1005641 24 28.9980202 24zM25.3963449 24.4473283C25.5185261 24.3644232 25.5185261 24.3644232 25.5927471 24.3302942 25.6918582 24.2776463 25.6918582 24.2776463 25.7000267 24.276265 25.7983149 24.222685 25.9020122 24.1754519 26.0095296 24.1349559L26.2488933 24.0448006 26.7241767 24.8768105 26.3908619 24.9990199C26.1224117 25.0974468 25.8904787 25.2884849 25.7411949 25.5342559L25.5825675 25.7954095 24.7336128 25.2581815 24.9386341 24.9969949C24.9355115 25.0009729 25.0316989 24.8562616 25.1733446 24.6518737L25.2179446 24.6064192 25.2346272 24.589514C25.2704122 24.5557014 25.2704122 24.5557014 25.3077586 24.5227633L25.3156101 24.5159095C25.3545683 24.4819897 25.3843199 24.4567037 25.3894839 24.4537747 25.4353419 24.4128938 25.4353419 24.4128938 25.3963449 24.4473283zM23.8939622 26.7965967L24.3654973 25.9654234 25.2032152 26.4494063 24.2574889 28.1180636 23.4242388 27.6281322 23.569368 27.3713832 23.8835361 26.8166253 23.8939622 26.7965967zM23.0690755 28.2546637L23.902615 28.7447652 22.9580055 30.411452 22.124466 29.9213505 23.0690755 28.2546637zM21.1928438 31.6739165C21.2258544 31.6066524 21.2258544 31.6066524 21.2773245 31.5023659 21.3520929 31.3509986 21.4641705 31.1247885 21.613587 30.8236753L21.7480551 30.5526871 22.6530971 31.0112426 22.4980811 31.2847154 22.1505353 31.8978305C22.0840993 32.0134309 22.0359973 32.1406386 22.0075854 32.2752L21.9454238 32.5696031 21 32.3670413 21.0641436 32.0728651C21.0883927 31.9616534 21.116707 31.8612319 21.1524876 31.763229L21.158375 31.7653785C21.1747649 31.7002781 21.1785784 31.6947174 21.1928438 31.6739165zM21.246051 33.6325482C21.2388083 33.6179872 21.2388083 33.6179872 21.230097 33.6009631 21.2205628 33.5823467 21.2205628 33.5823467 21.20956 33.5602342L21.0790882 33.294291 21.9407983 32.8579086 22.0746176 33.1306749C22.0815056 33.1447147 22.2771826 33.5120398 22.6213449 34.1566369L22.7610807 34.4183544 21.9158485 34.8817798 21.7724049 34.6160663C21.5794671 34.2586701 21.4706445 34.0572854 21.4589149 34.0354408 21.4517683 34.0227227 21.4517683 34.0227227 21.3935909 33.9177921 21.3825505 33.8972341 21.3817348 33.8957153 21.3777528 33.8877243 21.3664777 33.8707348 21.3658554 33.8694713 21.3596083 33.8567874 21.3427525 33.8285175 21.341499 33.8264152 21.3373344 33.8176564 21.3272152 33.8000797 21.3272152 33.8000797 21.3038197 33.7585442 21.2971773 33.7457272 21.2971773 33.7457272 21.2744329 33.7048623 21.272295 33.7004837 21.272295 33.7004837 21.2702616 33.6962446 21.2367356 33.6294322 21.2367356 33.6294322 21.3012489 33.7208535L21.2619699 33.6247384 21.246051 33.6325482zM22.3680284 35.6123636L23.2014277 35.1223446 24.1437164 36.7871379 23.310729 37.2769148 23.1602565 37.0123767C23.0790252 36.869568 22.9572546 36.6549722 22.8354944 36.4393606L22.3680284 35.6123636zM23.9261088 38.3639532L23.9317395 38.3744037 23.6663656 37.9011018 24.499588 37.4111867 25.4283293 39.0623309 24.595624 39.5519419 24.4453248 39.2867751 23.9544907 38.4197383 23.9321907 38.378416 23.9439081 38.3985783 23.932635 38.3607514 23.9261088 38.3639532zM25.2928747 40.5174013L25.2533262 40.4897006 25.2301083 40.4729197 25.2715911 40.5068203 24.9754318 40.305598 25.6752151 39.5578983 25.8944362 39.7706804C26.1036018 39.9737023 26.3627349 40.0860392 26.6048315 40.078652L26.9423355 40.0683535 26.8551281 41.0626776 26.5662773 41.0479584C26.5116423 41.0443478 26.5116423 41.0443478 26.4271461 41.0376987L26.4204524 41.0371675C26.3186042 41.0291539 26.3186042 41.0291539 26.2420539 41.0189448 25.9534633 40.9477127 25.6822357 40.8190571 25.4134808 40.6148434 25.380929 40.6033637 25.3845505 40.6025299 25.3925248 40.600694L25.3011274 40.5242994 25.3120895 40.5321721 25.3006847 40.5239293 25.2928747 40.5174013zM29.4886209 40.1280992L29.4886209 41.1 27.5911647 41.1 27.5911647 40.1280992 29.4886209 40.1280992zM32.0835331 40.1280992L32.0835331 41.1 30.186077 41.1 30.186077 40.1280992 32.0835331 40.1280992zM34.0885451 41.1L32.7809893 41.1 32.7809893 40.1280992 33.8878448 40.1280992C33.9920044 40.1280992 34.0983495 40.1138713 34.2059633 40.0860172L34.5032462 40.0090703 34.7547566 41.0834711 34.3621547 41.0834711C34.3582686 41.0841352 34.35424 41.0848236 34.3500636 41.0855372L34.3185894 41.0855372C34.3119048 41.0861366 34.3042167 41.0868168 34.2953271 41.0876033L34.3088432 41.0840122C34.3060906 41.0845331 34.3035103 41.0849114 34.2999518 41.085433 34.3037737 41.0850851 34.3037737 41.0850851 34.2405907 41.0917355L34.2599196 41.0874236C34.2470471 41.0890983 34.2254523 41.0915691 34.1878815 41.0958678L34.1554451 41.0958678C34.1729806 41.0950117 34.179947 41.0946716 34.1841335 41.0942808 34.176271 41.09551 34.1659211 41.0961204 34.1351724 41.0979339L34.1283896 41.0979339C34.097494 41.1001139 34.097494 41.1001139 34.0885451 41.1zM35.695715 38.227734L36.3945812 38.8262682 36.2846641 39.0376025C35.7970633 39.9750973 35.7002183 40.1601606 35.6762811 40.1926883L35.4943915 40.4398543 34.7272765 39.848066 34.9011029 39.6118571C34.9291628 39.5737271 34.9574817 39.5300605 34.9859413 39.4812111L35.695715 38.227734zM36.9640199 35.9902009L37.7975594 36.4803023 36.8529499 38.1469892 36.0194104 37.6568877 36.9640199 35.9902009zM38.3003419 35.5911155L38.1497705 35.8552932 37.3168666 35.3655654 38.261476 33.6988786 39.0950155 34.18898 38.9494289 34.4458559 38.5782037 35.0803577C38.6007767 35.0520257 38.6120284 35.0379034 38.6186668 35.0285444 38.4991554 35.2412781 38.3800563 35.4512564 38.3003419 35.5911155zM39.571384 31.9404381C39.644169 32.2012626 39.6713002 32.4699589 39.6513515 32.711157L39.6513515 32.8764463 39.6472286 32.9301445C39.6314508 33.0243273 39.6089126 33.1203306 39.5803513 33.2173588L39.494097 33.5103815 38.5710393 33.2205015 38.6566365 32.9365532C38.7406877 32.6577333 38.729377 32.3518143 38.6250631 32.0784394L38.5198418 31.8026866 39.3927199 31.4532003 39.5152664 31.702989C39.5379935 31.7493141 39.50758 31.5827096 39.573868 31.9610343 39.5843539 31.9971895 39.5813716 31.98414 39.571384 31.9404381zM39.0239296 30.7891963L38.1905214 31.2792206 37.2459119 29.6125337 38.079544 29.1223778 38.2297983 29.3877072C38.3104679 29.5301592 38.4317844 29.7439513 38.5535527 29.9576678 38.5856599 30.0140029 38.5856599 30.0140029 38.6144796 30.064512 38.6266653 30.0841801 38.6337718 30.0952957 38.6393071 30.1097444L39.0239296 30.7891963zM36.7819953 26.83111L37.7266047 28.4977968 36.8930653 28.9878983 35.9484558 27.3212114 36.7819953 26.83111zM36.4290726 26.2085853L35.5955306 26.6986883 35.4452702 26.4333812 34.983511 25.618074C34.9409161 25.5434071 34.8933713 25.4757363 34.84196 25.4169889L34.6454085 25.1923908 35.368468 24.5530108 35.5673049 24.7759218C35.5956743 24.8087324 35.5956743 24.8087324 35.6308375 24.8510228 35.6453788 24.8575455 35.6508417 24.8599959 35.6739696 24.9173519L35.6801883 24.9126582C35.7229934 24.969371 35.7601137 25.0261182 35.8104875 25.108831 35.8097341 25.1087245 35.8083051 25.106345 35.8068054 25.1038497 35.8084736 25.1069616 35.8100714 25.1099427 35.8116025 25.1128054L35.8184687 25.1372801 35.8355631 25.1606564 36.4290726 26.2085853zM34.269944 24.0409935L34.5606556 24.0979707 34.3853635 25.0561872 34.0854266 24.9950505C34.0174857 24.981202 33.9426959 24.9742354 33.8635528 24.9742354L33.5635528 24.9742354 33.5635528 24.0023346 33.8640033 24.0023346C34.037855 24.0142913 34.2099588 24.0292369 34.269944 24.0409935zM54.9903887 16L54.9903887 16.9719008 53.2903887 16.9719008 53.2903887 16 54.9903887 16zM52.5929325 16L52.5929325 16.9719008 50.6954764 16.9719008 50.6954764 16 52.5929325 16zM49.9980202 16L49.9980202 16.9719008 48.1005641 16.9719008 48.1005641 16 49.9980202 16zM46.3963449 16.4473283C46.5185261 16.3644232 46.5185261 16.3644232 46.5927471 16.3302942 46.6918582 16.2776463 46.6918582 16.2776463 46.7000267 16.276265 46.7983149 16.222685 46.9020122 16.1754519 47.0095296 16.1349559L47.2488933 16.0448006 47.7241767 16.8768105 47.3908619 16.9990199C47.1224117 17.0974468 46.8904787 17.2884849 46.7411949 17.5342559L46.5825675 17.7954095 45.7336128 17.2581815 45.9386341 16.9969949C45.9355115 17.0009729 46.0316989 16.8562616 46.1733446 16.6518737L46.2179446 16.6064192 46.2346272 16.589514C46.2704122 16.5557014 46.2704122 16.5557014 46.3077586 16.5227633L46.3156101 16.5159095C46.3545683 16.4819897 46.3843199 16.4567037 46.3894839 16.4537747 46.4353419 16.4128938 46.4353419 16.4128938 46.3963449 16.4473283zM44.8939622 18.7965967L45.3654973 17.9654234 46.2032152 18.4494063 45.2574889 20.1180636 44.4242388 19.6281322 44.569368 19.3713832 44.8835361 18.8166253 44.8939622 18.7965967zM44.0690755 20.2546637L44.902615 20.7447652 43.9580055 22.411452 43.124466 21.9213505 44.0690755 20.2546637zM42.1928438 23.6739165C42.2258544 23.6066524 42.2258544 23.6066524 42.2773245 23.5023659 42.3520929 23.3509986 42.4641705 23.1247885 42.613587 22.8236753L42.7480551 22.5526871 43.6530971 23.0112426 43.4980811 23.2847154 43.1505353 23.8978305C43.0840993 24.0134309 43.0359973 24.1406386 43.0075854 24.2752L42.9454238 24.5696031 42 24.3670413 42.0641436 24.0728651C42.0883927 23.9616534 42.116707 23.8612319 42.1524876 23.763229L42.158375 23.7653785C42.1747649 23.7002781 42.1785784 23.6947174 42.1928438 23.6739165zM42.246051 25.6325482C42.2388083 25.6179872 42.2388083 25.6179872 42.230097 25.6009631 42.2205628 25.5823467 42.2205628 25.5823467 42.20956 25.5602342L42.0790882 25.294291 42.9407983 24.8579086 43.0746176 25.1306749C43.0815056 25.1447147 43.2771826 25.5120398 43.6213449 26.1566369L43.7610807 26.4183544 42.9158485 26.8817798 42.7724049 26.6160663C42.5794671 26.2586701 42.4706445 26.0572854 42.4589149 26.0354408 42.4517683 26.0227227 42.4517683 26.0227227 42.3935909 25.9177921 42.3825505 25.8972341 42.3817348 25.8957153 42.3777528 25.8877243 42.3664777 25.8707348 42.3658554 25.8694713 42.3596083 25.8567874 42.3427525 25.8285175 42.341499 25.8264152 42.3373344 25.8176564 42.3272152 25.8000797 42.3272152 25.8000797 42.3038197 25.7585442 42.2971773 25.7457272 42.2971773 25.7457272 42.2744329 25.7048623 42.272295 25.7004837 42.272295 25.7004837 42.2702616 25.6962446 42.2367356 25.6294322 42.2367356 25.6294322 42.3012489 25.7208535L42.2619699 25.6247384 42.246051 25.6325482zM43.3680284 27.6123636L44.2014277 27.1223446 45.1437164 28.7871379 44.310729 29.2769148 44.1602565 29.0123767C44.0790252 28.869568 43.9572546 28.6549722 43.8354944 28.4393606L43.3680284 27.6123636zM44.9261088 30.3639532L44.9317395 30.3744037 44.6663656 29.9011018 45.499588 29.4111867 46.4283293 31.0623309 45.595624 31.5519419 45.4453248 31.2867751 44.9544907 30.4197383 44.9321907 30.378416 44.9439081 30.3985783 44.932635 30.3607514 44.9261088 30.3639532zM46.2928747 32.5174013L46.2533262 32.4897006 46.2301083 32.4729197 46.2715911 32.5068203 45.9754318 32.305598 46.6752151 31.5578983 46.8944362 31.7706804C47.1036018 31.9737023 47.3627349 32.0860392 47.6048315 32.078652L47.9423355 32.0683535 47.8551281 33.0626776 47.5662773 33.0479584C47.5116423 33.0443478 47.5116423 33.0443478 47.4271461 33.0376987L47.4204524 33.0371675C47.3186042 33.0291539 47.3186042 33.0291539 47.2420539 33.0189448 46.9534633 32.9477127 46.6822357 32.8190571 46.4134808 32.6148434 46.380929 32.6033637 46.3845505 32.6025299 46.3925248 32.600694L46.3011274 32.5242994 46.3120895 32.5321721 46.3006847 32.5239293 46.2928747 32.5174013zM50.4886209 32.1280992L50.4886209 33.1 48.5911647 33.1 48.5911647 32.1280992 50.4886209 32.1280992zM53.0835331 32.1280992L53.0835331 33.1 51.186077 33.1 51.186077 32.1280992 53.0835331 32.1280992zM55.0885451 33.1L53.7809893 33.1 53.7809893 32.1280992 54.8878448 32.1280992C54.9920044 32.1280992 55.0983495 32.1138713 55.2059633 32.0860172L55.5032462 32.0090703 55.7547566 33.0834711 55.3621547 33.0834711C55.3582686 33.0841352 55.35424 33.0848236 55.3500636 33.0855372L55.3185894 33.0855372C55.3119048 33.0861366 55.3042167 33.0868168 55.2953271 33.0876033L55.3088432 33.0840122C55.3060906 33.0845331 55.3035103 33.0849114 55.2999518 33.085433 55.3037737 33.0850851 55.3037737 33.0850851 55.2405907 33.0917355L55.2599196 33.0874236C55.2470471 33.0890983 55.2254523 33.0915691 55.1878815 33.0958678L55.1554451 33.0958678C55.1729806 33.0950117 55.179947 33.0946716 55.1841335 33.0942808 55.176271 33.09551 55.1659211 33.0961204 55.1351724 33.0979339L55.1283896 33.0979339C55.097494 33.1001139 55.097494 33.1001139 55.0885451 33.1zM56.695715 30.227734L57.3945812 30.8262682 57.2846641 31.0376025C56.7970633 31.9750973 56.7002183 32.1601606 56.6762811 32.1926883L56.4943915 32.4398543 55.7272765 31.848066 55.9011029 31.6118571C55.9291628 31.5737271 55.9574817 31.5300605 55.9859413 31.4812111L56.695715 30.227734zM57.9640199 27.9902009L58.7975594 28.4803023 57.8529499 30.1469892 57.0194104 29.6568877 57.9640199 27.9902009zM59.3003419 27.5911155L59.1497705 27.8552932 58.3168666 27.3655654 59.261476 25.6988786 60.0950155 26.18898 59.9494289 26.4458559 59.5782037 27.0803577C59.6007767 27.0520257 59.6120284 27.0379034 59.6186668 27.0285444 59.4991554 27.2412781 59.3800563 27.4512564 59.3003419 27.5911155zM60.571384 23.9404381C60.644169 24.2012626 60.6713002 24.4699589 60.6513515 24.711157L60.6513515 24.8764463 60.6472286 24.9301445C60.6314508 25.0243273 60.6089126 25.1203306 60.5803513 25.2173588L60.494097 25.5103815 59.5710393 25.2205015 59.6566365 24.9365532C59.7406877 24.6577333 59.729377 24.3518143 59.6250631 24.0784394L59.5198418 23.8026866 60.3927199 23.4532003 60.5152664 23.702989C60.5379935 23.7493141 60.50758 23.5827096 60.573868 23.9610343 60.5843539 23.9971895 60.5813716 23.98414 60.571384 23.9404381zM60.0239296 22.7891963L59.1905214 23.2792206 58.2459119 21.6125337 59.079544 21.1223778 59.2297983 21.3877072C59.3104679 21.5301592 59.4317844 21.7439513 59.5535527 21.9576678 59.5856599 22.0140029 59.5856599 22.0140029 59.6144796 22.064512 59.6266653 22.0841801 59.6337718 22.0952957 59.6393071 22.1097444L60.0239296 22.7891963zM57.7819953 18.83111L58.7266047 20.4977968 57.8930653 20.9878983 56.9484558 19.3212114 57.7819953 18.83111zM57.4290726 18.2085853L56.5955306 18.6986883 56.4452702 18.4333812 55.983511 17.618074C55.9409161 17.5434071 55.8933713 17.4757363 55.84196 17.4169889L55.6454085 17.1923908 56.368468 16.5530108 56.5673049 16.7759218C56.5956743 16.8087324 56.5956743 16.8087324 56.6308375 16.8510228 56.6453788 16.8575455 56.6508417 16.8599959 56.6739696 16.9173519L56.6801883 16.9126582C56.7229934 16.969371 56.7601137 17.0261182 56.8104875 17.108831 56.8097341 17.1087245 56.8083051 17.106345 56.8068054 17.1038497 56.8084736 17.1069616 56.8100714 17.1099427 56.8116025 17.1128054L56.8184687 17.1372801 56.8355631 17.1606564 57.4290726 18.2085853zM55.269944 16.0409935L55.5606556 16.0979707 55.3853635 17.0561872 55.0854266 16.9950505C55.0174857 16.981202 54.9426959 16.9742354 54.8635528 16.9742354L54.5635528 16.9742354 54.5635528 16.0023346 54.8640033 16.0023346C55.037855 16.0142913 55.2099588 16.0292369 55.269944 16.0409935zM12.9903887 16L12.9903887 16.9719008 11.2903887 16.9719008 11.2903887 16 12.9903887 16zM10.5929325 16L10.5929325 16.9719008 8.69547639 16.9719008 8.69547639 16 10.5929325 16zM7.99802025 16L7.99802025 16.9719008 6.10056411 16.9719008 6.10056411 16 7.99802025 16zM4.39634486 16.4473283C4.51852613 16.3644232 4.51852613 16.3644232 4.59274711 16.3302942 4.69185816 16.2776463 4.69185816 16.2776463 4.70002667 16.276265 4.79831487 16.222685 4.9020122 16.1754519 5.00952963 16.1349559L5.24889329 16.0448006 5.72417667 16.8768105 5.39086193 16.9990199C5.12241173 17.0974468 4.89047871 17.2884849 4.74119485 17.5342559L4.58256749 17.7954095 3.73361275 17.2581815 3.93863408 16.9969949C3.93551149 17.0009729 4.03169887 16.8562616 4.17334458 16.6518737L4.21794464 16.6064192 4.23462717 16.589514C4.27041222 16.5557014 4.27041222 16.5557014 4.30775861 16.5227633L4.31561009 16.5159095C4.35456833 16.4819897 4.38431986 16.4567037 4.38948388 16.4537747 4.43534192 16.4128938 4.43534192 16.4128938 4.39634486 16.4473283zM2.89396216 18.7965967L3.36549735 17.9654234 4.20321517 18.4494063 3.25748894 20.1180636 2.4242388 19.6281322 2.56936805 19.3713832 2.88353606 18.8166253 2.89396216 18.7965967zM2.06907553 20.2546637L2.90261501 20.7447652 1.95800553 22.411452 1.12446604 21.9213505 2.06907553 20.2546637zM.192843838 23.6739165C.225854372 23.6066524.225854372 23.6066524.27732451 23.5023659.352092881 23.3509986.464170477 23.1247885.613587048 22.8236753L.748055132 22.5526871 1.65309711 23.0112426 1.49808108 23.2847154 1.15053526 23.8978305C1.08409932 24.0134309 1.03599734 24.1406386 1.00758541 24.2752L.9454238 24.5696031 0 24.3670413.0641435761 24.0728651C.0883926972 23.9616534.116706985 23.8612319.152487637 23.763229L.158374986 23.7653785C.174764858 23.7002781.178578416 23.6947174.192843838 23.6739165zM.246050997 25.6325482C.238808326 25.6179872.238808326 25.6179872.230097047 25.6009631.220562849 25.5823467.220562849 25.5823467.209560043 25.5602342L.0790881643 25.294291.940798313 24.8579086 1.07461764 25.1306749C1.08150557 25.1447147 1.27718257 25.5120398 1.62134491 26.1566369L1.76108075 26.4183544.9158485 26.8817798.77240493 26.6160663C.579467079 26.2586701.470644497 26.0572854.458914895 26.0354408.451768349 26.0227227.451768349 26.0227227.393590932 25.9177921.382550468 25.8972341.381734794 25.8957153.377752828 25.8877243.366477726 25.8707348.365855422 25.8694713.359608311 25.8567874.342752512 25.8285175.34149905 25.8264152.337334442 25.8176564.327215177 25.8000797.327215177 25.8000797.303819688 25.7585442.29717727 25.7457272.29717727 25.7457272.27443285 25.7048623.272294986 25.7004837.272294986 25.7004837.270261584 25.6962446.236735597 25.6294322.236735597 25.6294322.301248912 25.7208535L.261969893 25.6247384.246050997 25.6325482zM1.36802841 27.6123636L2.20142771 27.1223446 3.14371636 28.7871379 2.31072904 29.2769148 2.16025653 29.0123767C2.07902519 28.869568 1.95725461 28.6549722 1.83549442 28.4393606L1.36802841 27.6123636zM2.92610884 30.3639532L2.93173951 30.3744037 2.66636558 29.9011018 3.49958803 29.4111867 4.42832932 31.0623309 3.59562403 31.5519419 3.44532477 31.2867751 2.95449069 30.4197383 2.93219067 30.378416 2.9439081 30.3985783 2.93263501 30.3607514 2.92610884 30.3639532zM4.29287472 32.5174013L4.25332617 32.4897006 4.23010829 32.4729197 4.27159111 32.5068203 3.97543176 32.305598 4.67521509 31.5578983 4.89443624 31.7706804C5.10360179 31.9737023 5.36273487 32.0860392 5.60483146 32.078652L5.94233547 32.0683535 5.85512814 33.0626776 5.56627734 33.0479584C5.51164232 33.0443478 5.51164232 33.0443478 5.42714614 33.0376987L5.42045242 33.0371675C5.31860416 33.0291539 5.31860416 33.0291539 5.24205387 33.0189448 4.95346335 32.9477127 4.68223567 32.8190571 4.41348085 32.6148434 4.38092896 32.6033637 4.38455049 32.6025299 4.39252476 32.600694L4.30112745 32.5242994 4.31208945 32.5321721 4.3006847 32.5239293 4.29287472 32.5174013zM8.48862085 32.1280992L8.48862085 33.1 6.59116471 33.1 6.59116471 32.1280992 8.48862085 32.1280992zM11.0835331 32.1280992L11.0835331 33.1 9.18607699 33.1 9.18607699 32.1280992 11.0835331 32.1280992zM13.0885451 33.1L11.7809893 33.1 11.7809893 32.1280992 12.8878448 32.1280992C12.9920044 32.1280992 13.0983495 32.1138713 13.2059633 32.0860172L13.5032462 32.0090703 13.7547566 33.0834711 13.3621547 33.0834711C13.3582686 33.0841352 13.35424 33.0848236 13.3500636 33.0855372L13.3185894 33.0855372C13.3119048 33.0861366 13.3042167 33.0868168 13.2953271 33.0876033L13.3088432 33.0840122C13.3060906 33.0845331 13.3035103 33.0849114 13.2999518 33.085433 13.3037737 33.0850851 13.3037737 33.0850851 13.2405907 33.0917355L13.2599196 33.0874236C13.2470471 33.0890983 13.2254523 33.0915691 13.1878815 33.0958678L13.1554451 33.0958678C13.1729806 33.0950117 13.179947 33.0946716 13.1841335 33.0942808 13.176271 33.09551 13.1659211 33.0961204 13.1351724 33.0979339L13.1283896 33.0979339C13.097494 33.1001139 13.097494 33.1001139 13.0885451 33.1zM14.695715 30.227734L15.3945812 30.8262682 15.2846641 31.0376025C14.7970633 31.9750973 14.7002183 32.1601606 14.6762811 32.1926883L14.4943915 32.4398543 13.7272765 31.848066 13.9011029 31.6118571C13.9291628 31.5737271 13.9574817 31.5300605 13.9859413 31.4812111L14.695715 30.227734zM15.9640199 27.9902009L16.7975594 28.4803023 15.8529499 30.1469892 15.0194104 29.6568877 15.9640199 27.9902009zM17.3003419 27.5911155L17.1497705 27.8552932 16.3168666 27.3655654 17.261476 25.6988786 18.0950155 26.18898 17.9494289 26.4458559 17.5782037 27.0803577C17.6007767 27.0520257 17.6120284 27.0379034 17.6186668 27.0285444 17.4991554 27.2412781 17.3800563 27.4512564 17.3003419 27.5911155zM18.571384 23.9404381C18.644169 24.2012626 18.6713002 24.4699589 18.6513515 24.711157L18.6513515 24.8764463 18.6472286 24.9301445C18.6314508 25.0243273 18.6089126 25.1203306 18.5803513 25.2173588L18.494097 25.5103815 17.5710393 25.2205015 17.6566365 24.9365532C17.7406877 24.6577333 17.729377 24.3518143 17.6250631 24.0784394L17.5198418 23.8026866 18.3927199 23.4532003 18.5152664 23.702989C18.5379935 23.7493141 18.50758 23.5827096 18.573868 23.9610343 18.5843539 23.9971895 18.5813716 23.98414 18.571384 23.9404381zM18.0239296 22.7891963L17.1905214 23.2792206 16.2459119 21.6125337 17.079544 21.1223778 17.2297983 21.3877072C17.3104679 21.5301592 17.4317844 21.7439513 17.5535527 21.9576678 17.5856599 22.0140029 17.5856599 22.0140029 17.6144796 22.064512 17.6266653 22.0841801 17.6337718 22.0952957 17.6393071 22.1097444L18.0239296 22.7891963zM15.7819953 18.83111L16.7266047 20.4977968 15.8930653 20.9878983 14.9484558 19.3212114 15.7819953 18.83111zM15.4290726 18.2085853L14.5955306 18.6986883 14.4452702 18.4333812 13.983511 17.618074C13.9409161 17.5434071 13.8933713 17.4757363 13.84196 17.4169889L13.6454085 17.1923908 14.368468 16.5530108 14.5673049 16.7759218C14.5956743 16.8087324 14.5956743 16.8087324 14.6308375 16.8510228 14.6453788 16.8575455 14.6508417 16.8599959 14.6739696 16.9173519L14.6801883 16.9126582C14.7229934 16.969371 14.7601137 17.0261182 14.8104875 17.108831 14.8097341 17.1087245 14.8083051 17.106345 14.8068054 17.1038497 14.8084736 17.1069616 14.8100714 17.1099427 14.8116025 17.1128054L14.8184687 17.1372801 14.8355631 17.1606564 15.4290726 18.2085853zM13.269944 16.0409935L13.5606556 16.0979707 13.3853635 17.0561872 13.0854266 16.9950505C13.0174857 16.981202 12.9426959 16.9742354 12.8635528 16.9742354L12.5635528 16.9742354 12.5635528 16.0023346 12.8640033 16.0023346C13.037855 16.0142913 13.2099588 16.0292369 13.269944 16.0409935zM29.54 18.15L30.5119008 18.15 30.5119008 19.35 29.54 19.35 29.54 18.15zM29.54 20.15L30.5119008 20.15 30.5119008 21.35 29.54 21.35 29.54 20.15zM29.54 22.15L30.5119008 22.15 30.5119008 23.35 29.54 23.35 29.54 22.15z"/>
    <path stroke="#CCC" stroke-width=".6" d="M19.4872807,13 L19.4872807,13.3719008 L18.1898246,13.3719008 L18.1898246,13 L19.4872807,13 Z M22.0874561,13 L22.0874561,13.3719008 L20.79,13.3719008 L20.79,13 L22.0874561,13 Z M16.8923684,13 L16.8923684,13.3719008 L15.5949123,13.3719008 L15.5949123,13 L16.8923684,13 Z M14.2974561,13 L14.2974561,13.3719008 L13,13.3719008 L13,13 L14.2974561,13 Z" transform="rotate(-38 17.649 13.5)"/>
    <path stroke="#CCC" stroke-width=".6" d="M44.4872807,13 L44.4872807,13.3719008 L43.1898246,13.3719008 L43.1898246,13 L44.4872807,13 Z M47.0874561,13 L47.0874561,13.3719008 L45.79,13.3719008 L45.79,13 L47.0874561,13 Z M41.8923684,13 L41.8923684,13.3719008 L40.5949123,13.3719008 L40.5949123,13 L41.8923684,13 Z M39.2974561,13 L39.2974561,13.3719008 L38,13.3719008 L38,13 L39.2974561,13 Z" transform="scale(-1 1) rotate(-38 0 137.36)"/>
    <path stroke="#CCC" stroke-width=".6" d="M20.7872807 32.4L20.7872807 32.7719008 19.4898246 32.7719008 19.4898246 32.4 20.7872807 32.4zM18.1923684 32.4L18.1923684 32.7719008 16.8949123 32.7719008 16.8949123 32.4 18.1923684 32.4zM15.5974561 32.4L15.5974561 32.7719008 14.3 32.7719008 14.3 32.4 15.5974561 32.4zM45.8872807 32.4L45.8872807 32.7719008 44.5898246 32.7719008 44.5898246 32.4 45.8872807 32.4zM43.2923684 32.4L43.2923684 32.7719008 41.9949123 32.7719008 41.9949123 32.4 43.2923684 32.4zM40.6974561 32.4L40.6974561 32.7719008 39.4 32.7719008 39.4 32.4 40.6974561 32.4z"/>
  </g>
</svg>
