<svg xmlns="http://www.w3.org/2000/svg" width="24" height="26" viewBox="0 0 24 26">
  <g fill="none">
    <path fill="#FFF" d="M24,8.35849057 C24,7.00360233 23.2489919,5.75103803 22.0982566,5.10813769 L13.8811156,0.468825215 C12.7635724,-0.155542759 11.2364275,-0.155542759 10.122796,0.466628283 L1.89783171,5.11033465 C0.697367869,5.69522678 0,6.93102124 0,8.35849057 L0,0 L24,0 L24,8.35849057 Z M24,17.6415094 L24,26 L0,26 L0,17.6415094 C0,18.9963977 0.751008125,20.248962 1.90174341,20.8918623 L10.1188844,25.5311748 C10.7676658,25.8502877 11.3801731,26 12,26 C12.6845044,26 13.4279375,25.8289751 13.9355222,25.4981309 L22.1021683,20.8896654 C23.2765143,20.0751264 24,18.8684652 24,17.6415094 Z"/>
    <path fill="#E54545" d="M23,8.35849057 C23,7.33962265 22.4210527,6.43396225 21.6105263,5.98113209 L13.3894737,1.33962265 C12.5789473,0.88679245 11.4210526,0.88679245 10.6105263,1.33962265 L2.38947367,5.98113209 C1.46315791,6.43396229 1,7.33962265 1,8.35849057 L1,17.6415094 C1,18.6603774 1.57894735,19.5660378 2.38947367,20.018868 L10.6105263,24.6603774 C11.0736842,24.8867924 11.5368421,25 12,25 C12.4631579,25 13.0421053,24.8867924 13.3894737,24.6603774 L21.6105263,20.018868 C22.4210527,19.4528302 23,18.5471698 23,17.6415094 L23,8.35849057 Z M24,8.35849057 L24,17.6415094 C24,18.8684652 23.2765143,20.0751264 22.1021683,20.8896654 L13.9355222,25.4981309 C13.4279375,25.8289751 12.6845044,26 12,26 C11.3801731,26 10.7676658,25.8502877 10.1188844,25.5311748 L1.90174341,20.8918623 C0.751008125,20.248962 0,18.9963977 0,17.6415094 L0,8.35849057 C0,6.93102124 0.697367869,5.69522678 1.89783171,5.11033465 L10.122796,0.466628283 C11.2364275,-0.155542759 12.7635724,-0.155542759 13.8811156,0.468825215 L22.0982566,5.10813769 C23.2489919,5.75103803 24,7.00360233 24,8.35849057 Z"/>
    <path fill="#E54545" d="M9.19351397,10.8287048 C8.89915155,10.6761279 8.60478912,10.5325262 8.27419748,10.4876506 C8.12022329,10.4652128 7.97530641,10.4113622 7.82586087,10.4068746 C7.70358725,10.402387 7.68547264,10.3395613 7.74887378,10.240835 C7.86661875,10.0523577 7.99342102,9.87734303 8.1383379,9.70681591 C8.92179481,8.786867 9.89998378,8.17207188 11.0819621,7.89833098 C11.4895409,7.80409231 11.9016482,7.74575409 12.3228129,7.75024165 C13.4187469,7.76819187 14.4422224,8.05539543 15.3524815,8.67019056 C15.5834428,8.827255 15.8234614,8.99329456 16.0227221,9.19972212 C16.1721677,9.35678657 16.1902823,9.35229902 16.3125559,9.16382168 C16.4529441,8.95290656 16.5480458,8.72404122 16.6703195,8.49966344 C16.6884341,8.463763 16.6974914,8.40542477 16.7473066,8.41439988 C16.7971217,8.42337499 16.806179,8.46825055 16.819765,8.50863855 C17.0144971,9.07407057 17.1865859,9.63950258 17.3360314,10.2183973 C17.4537764,10.6671528 17.5579354,11.1203959 17.6258652,11.5781266 C17.6349225,11.6589026 17.680209,11.7127533 17.7707821,11.7441662 C18.6765126,12.089708 19.3467532,12.6910404 19.72716,13.5795764 C20.0577516,14.3424609 20.0803949,15.1367583 19.8358477,15.9265681 C19.623001,16.6176516 19.2018363,17.1785961 18.6176401,17.6049139 C18.0470299,18.0222566 17.3949039,18.2466343 16.6793768,18.2466343 C13.7221666,18.2511219 10.7604278,18.2511219 7.80321761,18.2466343 C6.59859601,18.2421468 5.59776378,17.7664659 4.85053609,16.8420294 C4.06707919,15.8682298 3.8270606,14.7418534 4.12142302,13.5212382 C4.28898316,12.8211795 4.64221807,12.2198471 5.16301312,11.7217284 C5.60229243,11.2998982 6.11855883,10.9723066 6.71181232,10.8152422 C7.48621192,10.6177897 8.27872614,10.5818893 9.05312574,10.8466551 C9.09388361,10.8601177 9.14822744,10.8646053 9.19351397,10.8690928 C9.18445666,10.8511426 9.18898531,10.8421675 9.19351397,10.8287048 Z M10.5204092,16.6715023 C10.5702244,16.7074027 10.6200395,16.6939401 10.6653261,16.6894525 C10.9868604,16.6490645 11.3129234,16.6580396 11.6299291,16.6759899 C12.2277112,16.7118903 12.8254934,16.6984276 13.4232755,16.6984276 C14.134274,16.6984276 14.8316865,16.5952139 15.4928698,16.3439107 C15.9547923,16.1688961 16.3442565,15.8951552 16.6431475,15.5137129 C17.2092291,14.8001916 17.4175472,13.9565311 17.4447191,13.0679951 C17.4673623,12.372424 17.3586747,11.6903155 17.2318724,11.0126946 C17.1186561,10.402387 16.9329813,9.80554214 16.7473066,9.21318479 C16.7382493,9.1817719 16.7291919,9.15484657 16.6929627,9.15035901 C16.6476762,9.14587146 16.6295616,9.17728435 16.611447,9.20869723 C16.4846447,9.38819946 16.3714284,9.5766768 16.2219829,9.74271636 C15.9683783,10.0299199 15.6694872,10.2677604 15.3570102,10.4966257 C14.7682854,10.9274311 14.1116307,11.2101471 13.4051609,11.3537488 C12.8843659,11.4614502 12.3454562,11.4794004 11.8110752,11.4973506 C11.0819621,11.524276 10.3890783,11.685828 9.77771016,12.1031706 C9.29767298,12.4307622 8.96255268,12.8660551 8.74517736,13.4000742 C8.60478912,13.7501036 8.58667451,14.109108 8.59120317,14.4815751 C8.60026047,15.0604698 8.82216445,15.5361507 9.28408702,15.8951552 C9.39730334,15.9804187 9.505991,16.0118316 9.65090788,15.9893938 C10.4117215,15.8457921 11.1634779,15.6618023 11.9107055,15.4463996 C12.4450866,15.2893352 12.961353,15.0873951 13.4323328,14.8001916 C14.0799302,14.4097742 14.682241,13.9610187 15.1803927,13.382124 C15.5109844,12.9917067 15.8325187,12.5968018 16.0317794,12.1211209 C16.0544227,12.0627826 16.0906519,12.008932 16.1178238,11.9550813 C16.1495244,11.9012306 16.1585817,11.8339173 16.2446261,11.7800666 C16.1857536,12.130096 16.0906519,12.4442249 15.9547923,12.735916 C15.7147738,13.2564724 15.4158827,13.7411285 15.0400045,14.1809089 C14.6958269,14.5847889 14.3154201,14.9348183 13.9033127,15.2579223 C13.2104289,15.8054041 12.3952714,16.1060703 11.5438847,16.3439107 C11.1997071,16.4291743 10.8510008,16.5144378 10.5204092,16.6715023 Z M9.48334774,16.7567659 C9.47881908,16.5458507 9.27050106,16.3304481 9.075769,16.3349356 C8.85386502,16.3394232 8.63196104,16.5727761 8.63648969,16.7836912 C8.64101835,16.9946063 8.85386502,17.1875712 9.08029765,17.1875712 C9.31125894,17.1965463 9.48787639,17.0035814 9.48334774,16.7567659 Z"/>
  </g>
</svg>
