<svg xmlns="http://www.w3.org/2000/svg" width="24" height="26" viewBox="0 0 24 26">
  <g fill="none">
    <path fill="#FFF" d="M24,8.35849057 C24,7.00360233 23.2489919,5.75103803 22.0982566,5.10813769 L13.8811156,0.468825215 C12.7635724,-0.155542759 11.2364275,-0.155542759 10.122796,0.466628283 L1.89783171,5.11033465 C0.697367869,5.69522678 0,6.93102124 0,8.35849057 L0,0 L24,0 L24,8.35849057 Z M24,17.6415094 L24,26 L0,26 L0,17.6415094 C0,18.9963977 0.751008125,20.248962 1.90174341,20.8918623 L10.1188844,25.5311748 C10.7676658,25.8502877 11.3801731,26 12,26 C12.6845044,26 13.4279375,25.8289751 13.9355222,25.4981309 L22.1021683,20.8896654 C23.2765143,20.0751264 24,18.8684652 24,17.6415094 Z"/>
    <path fill="#0ABF5B" d="M23,8.35849057 C23,7.33962265 22.4210527,6.43396225 21.6105263,5.98113209 L13.3894737,1.33962265 C12.5789473,0.88679245 11.4210526,0.88679245 10.6105263,1.33962265 L2.38947367,5.98113209 C1.46315791,6.43396229 1,7.33962265 1,8.35849057 L1,17.6415094 C1,18.6603774 1.57894735,19.5660378 2.38947367,20.018868 L10.6105263,24.6603774 C11.0736842,24.8867924 11.5368421,25 12,25 C12.4631579,25 13.0421053,24.8867924 13.3894737,24.6603774 L21.6105263,20.018868 C22.4210527,19.4528302 23,18.5471698 23,17.6415094 L23,8.35849057 Z M24,8.35849057 L24,17.6415094 C24,18.8684652 23.2765143,20.0751264 22.1021683,20.8896654 L13.9355222,25.4981309 C13.4279375,25.8289751 12.6845044,26 12,26 C11.3801731,26 10.7676658,25.8502877 10.1188844,25.5311748 L1.90174341,20.8918623 C0.751008125,20.248962 0,18.9963977 0,17.6415094 L0,8.35849057 C0,6.93102124 0.697367869,5.69522678 1.89783171,5.11033465 L10.122796,0.466628283 C11.2364275,-0.155542759 12.7635724,-0.155542759 13.8811156,0.468825215 L22.0982566,5.10813769 C23.2489919,5.75103803 24,7.00360233 24,8.35849057 Z"/>
    <g transform="translate(4 8.99)">
      <path fill="#0ABF5B" d="M13.6510638,4.04539007 C13.8723404,4.06808511 14.093617,4.09078014 14.3148936,4.11347518 L14.8028369,2.90496454 L15.2680851,4.2212766 C15.506383,4.24964539 15.7446809,4.28368794 15.9829787,4.3177305 L15.1659574,2.00851064 L15.9829787,0 L15.2907801,0 L15.2851064,0.0113475177 L14.8425532,1.10070922 L14.4567376,0 L13.7758865,0 L14.4794326,1.99716312 L13.6510638,4.04539007 Z M13.1347518,4 L13.1347518,0 L12.4539007,0 L12.4539007,3.94326241 C12.6808511,3.96028369 12.9078014,3.98297872 13.1347518,4 Z M8.01702128,3.7787234 C8.19858156,3.7787234 8.3858156,3.7787234 8.56737589,3.78439716 L8.56737589,2.31489362 L9.38439716,2.31489362 L9.38439716,1.69078014 L8.56737589,1.69078014 L8.56737589,0.624113475 L9.50921986,0.624113475 L9.50921986,0 L7.88652482,0 L7.88652482,3.7787234 C7.93191489,3.7787234 7.97730496,3.7787234 8.01702128,3.7787234 Z M5.90638298,3.81276596 C6.13333333,3.8070922 6.36028369,3.79574468 6.58723404,3.79007092 L6.58723404,0.624113475 L7.22269504,0.624113475 L7.22269504,0 L5.27092199,0 L5.27092199,0.624113475 L5.90638298,0.624113475 L5.90638298,3.81276596 Z M0.69787234,4.23829787 L0.69787234,1.85531915 L1.5035461,4.14184397 C1.75319149,4.11347518 1.99716312,4.08510638 2.24680851,4.06241135 L2.24680851,0 L1.59432624,0 L1.59432624,2.46808511 L0.726241135,0 L0.0453900709,0 L0.0453900709,4.32340426 L0.0510638298,4.32340426 C0.266666667,4.29503546 0.482269504,4.26666667 0.69787234,4.23829787 Z M4.61276596,0.624113475 L4.61276596,0 L2.98439716,0 L2.98439716,3.99432624 C3.52340426,3.94893617 4.06808511,3.90921986 4.6070922,3.8751773 L4.6070922,3.24539007 C4.29503546,3.26241135 3.97730496,3.28510638 3.66524823,3.30780142 L3.66524823,2.3035461 L4.4822695,2.3035461 L4.4822695,1.67943262 L3.67092199,1.67943262 L3.67092199,0.624113475 L4.61276596,0.624113475 Z M10.8595745,3.22269504 L10.8595745,0 L10.1730496,0 L10.1730496,3.81843972 C10.7177305,3.84113475 11.2567376,3.86382979 11.8014184,3.9035461 L11.8014184,3.27375887 C11.4893617,3.25106383 11.177305,3.23404255 10.8595745,3.22269504 Z"/>
      <g fill="#65717F" transform="translate(.113 5.333)">
        <polygon points=".028 .045 1.895 .045 1.895 .528 .567 .528 .567 1.033 1.736 1.033 1.736 1.515 .567 1.515 .567 2.037 1.912 2.037 1.912 2.519 .028 2.519"/>
        <path d="M2.53617021 1.45815603L2.53617021.0453900709 3.08085106.0453900709 3.08085106 1.44680851C3.08085106 1.84964539 3.28510638 2.05957447 3.6141844 2.05957447 3.94893617 2.05957447 4.14751773 1.85531915 4.14751773 1.46382979L4.14751773.0453900709 4.69219858.0453900709 4.69219858 1.44113475C4.69219858 2.19007092 4.27234043 2.55886525 3.60851064 2.55886525 2.94468085 2.55886525 2.53617021 2.19007092 2.53617021 1.45815603zM5.42411348.0453900709L6.55886525.0453900709C6.87092199.0453900709 7.12056738.136170213 7.27943262.295035461 7.41560284.431205674 7.4893617.629787234 7.4893617.862411348L7.4893617.868085106C7.4893617 1.26524823 7.27375887 1.52056738 6.95602837 1.63404255L7.56312057 2.51914894 6.92765957 2.51914894 6.39432624 1.7248227 6.38865248 1.7248227 5.96879433 1.7248227 5.96879433 2.51914894 5.42411348 2.51914894 5.42411348.0453900709zM6.51914894 1.24822695C6.7858156 1.24822695 6.93900709 1.10638298 6.93900709.896453901L6.93900709.890780142C6.93900709.658156028 6.77446809.539007092 6.51347518.539007092L5.97446809.539007092 5.97446809 1.24822695 6.51914894 1.24822695z"/>
        <polygon points="8.159 .045 10.026 .045 10.026 .528 8.698 .528 8.698 1.033 9.867 1.033 9.867 1.515 8.698 1.515 8.698 2.037 10.043 2.037 10.043 2.519 8.159 2.519"/>
        <polygon points="10.706 .045 11.251 .045 11.251 1.129 12.255 .045 12.913 .045 11.904 1.095 12.959 2.519 12.306 2.519 11.54 1.464 11.251 1.759 11.251 2.513 10.706 2.513 10.706 .045"/>
        <path d="M14.2468085,0.0283687943 L14.751773,0.0283687943 L15.812766,2.5248227 L15.2453901,2.5248227 L15.0184397,1.96879433 L13.9687943,1.96879433 L13.741844,2.5248227 L13.1858156,2.5248227 L14.2468085,0.0283687943 Z M14.8198582,1.48652482 L14.4907801,0.680851064 L14.1617021,1.48652482 L14.8198582,1.48652482 Z"/>
      </g>
    </g>
  </g>
</svg>
