<svg xmlns="http://www.w3.org/2000/svg" width="24" height="26" viewBox="0 0 24 26">
  <defs>
    <radialGradient id="hystrix-dashboard-gray-a" cx="1.115%" cy="60.67%" r="96.172%" fx="1.115%" fy="60.67%" gradientTransform="matrix(1 0 0 .50973 0 .297)">
      <stop offset="35%" stop-opacity="0"/>
      <stop offset="80%" stop-color="#231F20"/>
      <stop offset="100%" stop-opacity="0"/>
    </radialGradient>
    <radialGradient id="hystrix-dashboard-gray-b" cx="98.907%" cy="61.505%" r="96.623%" fx="98.907%" fy="61.505%" gradientTransform="matrix(1 0 0 .52193 0 .294)">
      <stop offset="35%" stop-opacity="0"/>
      <stop offset="80%" stop-color="#231F20"/>
      <stop offset="100%" stop-opacity="0"/>
    </radialGradient>
    <linearGradient id="hystrix-dashboard-gray-c" x1="50.001%" x2="50.001%" y1="79.497%" y2="3.415%">
      <stop offset="35%" stop-opacity="0"/>
      <stop offset="80%" stop-color="#231F20"/>
      <stop offset="100%" stop-opacity="0"/>
    </linearGradient>
  </defs>
  <g fill="none">
    <path fill="#FFF" d="M24,8.35849057 C24,7.00360233 23.2489919,5.75103803 22.0982566,5.10813769 L13.8811156,0.468825215 C12.7635724,-0.155542759 11.2364275,-0.155542759 10.122796,0.466628283 L1.89783171,5.11033465 C0.697367869,5.69522678 0,6.93102124 0,8.35849057 L0,0 L24,0 L24,8.35849057 Z M24,17.6415094 L24,26 L0,26 L0,17.6415094 C0,18.9963977 0.751008125,20.248962 1.90174341,20.8918623 L10.1188844,25.5311748 C10.7676658,25.8502877 11.3801731,26 12,26 C12.6845044,26 13.4279375,25.8289751 13.9355222,25.4981309 L22.1021683,20.8896654 C23.2765143,20.0751264 24,18.8684652 24,17.6415094 Z"/>
    <path fill="#CCC" d="M23,8.35849057 C23,7.33962265 22.4210527,6.43396225 21.6105263,5.98113209 L13.3894737,1.33962265 C12.5789473,0.88679245 11.4210526,0.88679245 10.6105263,1.33962265 L2.38947367,5.98113209 C1.46315791,6.43396229 1,7.33962265 1,8.35849057 L1,17.6415094 C1,18.6603774 1.57894735,19.5660378 2.38947367,20.018868 L10.6105263,24.6603774 C11.0736842,24.8867924 11.5368421,25 12,25 C12.4631579,25 13.0421053,24.8867924 13.3894737,24.6603774 L21.6105263,20.018868 C22.4210527,19.4528302 23,18.5471698 23,17.6415094 L23,8.35849057 Z M24,8.35849057 L24,17.6415094 C24,18.8684652 23.2765143,20.0751264 22.1021683,20.8896654 L13.9355222,25.4981309 C13.4279375,25.8289751 12.6845044,26 12,26 C11.3801731,26 10.7676658,25.8502877 10.1188844,25.5311748 L1.90174341,20.8918623 C0.751008125,20.248962 0,18.9963977 0,17.6415094 L0,8.35849057 C0,6.93102124 0.697367869,5.69522678 1.89783171,5.11033465 L10.122796,0.466628283 C11.2364275,-0.155542759 12.7635724,-0.155542759 13.8811156,0.468825215 L22.0982566,5.10813769 C23.2489919,5.75103803 24,7.00360233 24,8.35849057 Z"/>
    <g transform="translate(2.5 4.56)">
      <path fill="#CCC" d="M13.9647077,12.1593628 L16.5430077,14.6177434 L14.1165615,12.0083186 C14.0670154,12.0597699 14.0164462,12.1103186 13.9647077,12.1593628 Z M13.3488154,12.6495044 L15.4579615,15.5434159 L13.5242,12.5270442 C13.4667615,12.5693186 13.4081538,12.6100885 13.3488154,12.6495044 Z M12.6621846,13.0232035 L14.2289538,16.2563628 L12.8556923,12.9336903 C12.7918231,12.9651327 12.7275154,12.9950708 12.6621846,13.0232035 Z M13.6667,12.4182743 L16.0209462,15.1053274 L13.8309769,12.2807699 C13.7773385,12.3278584 13.7225308,12.3737434 13.6667,12.4182743 Z M13.0132462,12.8515487 L14.8591692,15.9280973 L13.1984231,12.7453363 C13.1374769,12.7820442 13.0756538,12.8175487 13.0132462,12.8515487 Z M11.5408923,13.3377788 L12.2019462,16.8784425 L11.7503308,13.3028761 C11.6810538,13.3162655 11.6111923,13.3278496 11.5408923,13.3377788 Z M11.9227923,13.2663186 L12.8950077,16.7334159 L12.1287231,13.2130619 C12.0607615,13.2323186 11.9920692,13.2500708 11.9227923,13.2663186 Z M12.2976769,13.1613097 L13.5724308,16.5255044 L12.4980538,13.09 C12.4321385,13.1154248 12.3652,13.1391947 12.2976769,13.1613097 Z M15.4071,8.77139823 C15.4071,8.82315044 15.4050538,8.87430088 15.4034462,8.92545133 L18.8499,8.71874336 L15.4057846,8.71362832 C15.4059308,8.7330354 15.4071,8.75199115 15.4071,8.77139823 Z M15.2086231,10.1321504 L18.6129846,10.889177 L15.2653308,9.92604425 C15.2479385,9.99539823 15.2289385,10.064 15.2086231,10.1321504 Z M15.3726077,9.3340531 L18.8339692,9.46253097 L15.3927769,9.12253097 C15.3875154,9.19353982 15.3809385,9.26409735 15.3726077,9.3340531 Z M15.3077154,9.73738938 L18.7547538,10.1808938 L15.3458615,9.52767257 C15.3347538,9.59823009 15.3220385,9.6680354 15.3077154,9.73738938 Z M14.2403538,11.8748761 L17.0202,14.0842743 L14.3784692,11.7110442 C14.3336,11.7665575 14.2877077,11.8213186 14.2403538,11.8748761 Z M14.7140385,11.2335398 L17.8250692,12.8966814 L14.8220462,11.0484956 C14.7874077,11.1109292 14.7513077,11.1730619 14.7140385,11.2335398 Z M14.4904231,11.5649646 L17.4487231,13.5089823 L14.6139231,11.3898496 C14.5740231,11.4492743 14.5329538,11.5074956 14.4904231,11.5649646 Z M15.0748923,10.5147257 L18.4093923,11.5818142 L15.1491385,10.3141858 C15.1259,10.3815841 15.1009077,10.4483805 15.0748923,10.5147257 Z M14.9094462,10.882708 L18.1461692,12.2526372 L15.0009385,10.6887876 C14.9718538,10.7543805 14.9413077,10.8187699 14.9094462,10.882708 Z M4.53793077,11.7108938 L1.89634615,14.0841239 L4.67604615,11.8747257 C4.62869231,11.8213186 4.58265385,11.7665575 4.53793077,11.7108938 Z M4.30247692,11.3898496 L1.46767692,13.5089823 L4.42597692,11.5649646 C4.38344615,11.5074956 4.34237692,11.4492743 4.30247692,11.3898496 Z M4.09435385,11.0484956 L1.09147692,12.8966814 L4.20236154,11.2335398 C4.16494615,11.1730619 4.12899231,11.1109292 4.09435385,11.0484956 Z M4.79983846,12.0083186 L2.37353846,14.6177434 L4.95169231,12.1593628 C4.89995385,12.1103186 4.84923846,12.0597699 4.79983846,12.0083186 Z M5.71812308,12.7453363 L4.05723077,15.9280973 L5.9033,12.8515487 C5.8406,12.8175487 5.77892308,12.7820442 5.71812308,12.7453363 Z M5.39234615,12.5271947 L3.45843846,15.5435664 L5.56773077,12.6496549 C5.50824615,12.6100885 5.44963846,12.5693186 5.39234615,12.5271947 Z M5.08542308,12.2807699 L2.8956,15.1053274 L5.2497,12.4182743 C5.19386923,12.3737434 5.13920769,12.3278584 5.08542308,12.2807699 Z M3.52362308,9.12268142 L0.0824307692,9.46268142 L3.54379231,9.33420354 C3.53546154,9.26409735 3.52888462,9.19353982 3.52362308,9.12268142 Z M3.57039231,9.52767257 L0.161646154,10.1808938 L3.60868462,9.73738938 C3.59421538,9.6680354 3.58164615,9.59823009 3.57039231,9.52767257 Z M3.91546154,10.6889381 L0.770230769,12.2527876 L4.00695385,10.8828584 C3.97509231,10.8187699 3.94454615,10.7543805 3.91546154,10.6889381 Z M3.5093,8.77139823 C3.5093,8.75199115 3.51046923,8.7330354 3.51076154,8.71362832 L0.0666461538,8.71874336 L3.51324615,8.92545133 C3.51149231,8.87415044 3.5093,8.823 3.5093,8.77139823 Z M3.76726154,10.3141858 L0.507007692,11.5818142 L3.84165385,10.5147257 C3.81534615,10.4483805 3.7905,10.3815841 3.76726154,10.3141858 Z M3.65106923,9.92604425 L0.303415385,10.889177 L3.70777692,10.1321504 C3.68746154,10.064 3.66846154,9.99539823 3.65106923,9.92604425 Z M6.71430769,16.8784425 L7.37550769,13.3377788 C7.30506154,13.3278496 7.2352,13.316115 7.16592308,13.3030265 L6.71430769,16.8784425 Z M6.06070769,12.9336903 L4.68744615,16.2565133 L6.25421538,13.023354 C6.18903077,12.9950708 6.12443077,12.9651327 6.06070769,12.9336903 Z M6.78767692,13.2129115 L6.02153846,16.7332655 L6.99360769,13.2661681 C6.92418462,13.2500708 6.85563846,13.2323186 6.78767692,13.2129115 Z M6.41834615,13.09 L5.34396923,16.5256549 L6.61886923,13.1614602 C6.5512,13.1391947 6.48440769,13.1154248 6.41834615,13.09 Z M13.6991462,5.15039823 L16.1030846,2.24354867 L13.5331154,5.02176991 C13.5895308,5.06344248 13.6449231,5.10631858 13.6991462,5.15039823 Z M14.0027077,5.42014159 L16.6103846,2.75490265 L13.8498308,5.27812389 C13.9018615,5.32446018 13.9527231,5.37169912 14.0027077,5.42014159 Z M13.3762923,4.91119469 L15.5560308,1.77777876 L13.1979846,4.79700885 C13.2583462,4.83356637 13.3178308,4.87177876 13.3762923,4.91119469 Z M11.9479308,4.28219469 L13.0499308,0.429212389 L11.7332308,4.23646018 C11.8052846,4.24984956 11.8770462,4.26519469 11.9479308,4.28219469 Z M14.2833231,5.71846903 L17.0742769,3.30823009 L14.1447692,5.56456637 C14.1919769,5.61481416 14.2381615,5.66611504 14.2833231,5.71846903 Z M12.3191615,4.38855752 L13.7153692,0.683911504 L12.1113308,4.32461947 C12.1813385,4.34417699 12.2506154,4.36553982 12.3191615,4.38855752 Z M12.6833769,4.52846903 L14.3580077,0.995176991 L12.4840231,4.4469292 C12.5512538,4.47250442 12.6177538,4.49973451 12.6833769,4.52846903 Z M13.0366308,4.70328319 L14.9728769,1.36060177 L12.8472154,4.60474336 C12.9112308,4.6360354 12.9743692,4.6689823 13.0366308,4.70328319 Z M15.3394308,7.97661062 L18.7895385,7.27359292 L15.3018692,7.77847788 C15.3157538,7.84392035 15.3280308,7.91011504 15.3394308,7.97661062 Z M15.3914615,8.40115929 L18.8785462,7.99887611 L15.3717308,8.20076991 C15.3796231,8.26726549 15.3862,8.3339115 15.3914615,8.40115929 Z M15.2496923,7.55973451 L18.6419231,6.55884071 L15.1943,7.36536283 C15.2141769,7.42945133 15.2324462,7.49429204 15.2496923,7.55973451 Z M14.9613308,6.76419469 L18.1752538,5.17928319 L14.8705692,6.58170796 C14.9019923,6.64173451 14.9322462,6.70251327 14.9613308,6.76419469 Z M15.1231231,7.15429204 L18.4367231,5.8589823 L15.0500462,6.96518584 C15.0757692,7.02746903 15.1000308,7.09065487 15.1231231,7.15429204 Z M14.7656308,6.39290265 L17.8595615,4.52485841 L14.6579154,6.21884071 C14.6947462,6.27600885 14.7309923,6.33407965 14.7656308,6.39290265 Z M14.5386538,6.04357522 L17.4918385,3.89946903 L14.4151538,5.87869027 C14.4573923,5.93284956 14.4987538,5.98761062 14.5386538,6.04357522 Z M10.9722077,4.16169027 C11.0473308,4.16244248 11.1220154,4.165 11.1962615,4.16951327 L11.6684846,0.0955309735 L10.9722077,4.16169027 Z M10.8215231,4.16063717 L10.9622692,0.0194070796 L10.5964462,4.16063717 L10.8215231,4.16063717 Z M12.3660769,0.232584071 L11.3526462,4.18184956 C11.4266,4.1890708 11.4998231,4.19809735 11.5727538,4.2089292 L12.3660769,0.232584071 Z M10.1894077,4.16063717 L10.4144846,4.16063717 L10.2963923,0.00391150442 L10.1894077,4.16063717 Z M3.54466923,8.20076991 L0.0378538462,7.99887611 L3.52493846,8.40115929 C3.5302,8.3339115 3.53677692,8.26726549 3.54466923,8.20076991 Z M3.72224615,7.36521239 L0.274623077,6.55869027 L3.66670769,7.55958407 C3.68395385,7.49429204 3.70236923,7.42945133 3.72224615,7.36521239 Z M3.61453077,7.77847788 L0.126861538,7.27359292 L3.57696923,7.97661062 C3.58836923,7.91011504 3.60064615,7.84392035 3.61453077,7.77847788 Z M8.51945385,4.16063717 L8.74453077,4.16063717 L8.64631538,0.00391150442 L8.51945385,4.16063717 Z M7.34364615,4.2089292 C7.41657692,4.19809735 7.4898,4.1890708 7.56375385,4.18184956 L6.55032308,0.232584071 L7.34364615,4.2089292 Z M7.72013846,4.16951327 C7.79423846,4.165 7.86892308,4.16244248 7.94404615,4.16169027 L7.24776923,0.0956814159 L7.72013846,4.16951327 Z M8.09487692,4.16063717 L8.31995385,4.16063717 L7.95413077,0.0194070796 L8.09487692,4.16063717 Z M3.86635385,6.96518584 L0.479676923,5.8589823 L3.79313077,7.15429204 C3.81651538,7.09065487 3.84063077,7.02746903 3.86635385,6.96518584 Z M4.04583077,6.58185841 L0.741146154,5.17943363 L3.95506923,6.76434513 C3.98400769,6.70251327 4.01440769,6.64173451 4.04583077,6.58185841 Z M5.38328462,5.02192035 L2.81346154,2.24369912 L5.21725385,5.15054867 C5.27147692,5.10631858 5.32686923,5.06344248 5.38328462,5.02192035 Z M5.71856154,4.79700885 L3.36051538,1.77762832 L5.54025385,4.91104425 C5.59871538,4.87177876 5.65805385,4.83356637 5.71856154,4.79700885 Z M6.06903846,4.60474336 L3.94352308,1.36045133 L5.87962308,4.70313274 C5.94188462,4.6689823 6.00502308,4.6360354 6.06903846,4.60474336 Z M5.06671538,5.27827434 L2.30601538,2.75490265 L4.91369231,5.42014159 C4.96367692,5.37169912 5.01468462,5.32446018 5.06671538,5.27827434 Z M4.77163077,5.56456637 L1.84212308,3.30823009 L4.63307692,5.71846903 C4.67809231,5.66611504 4.72442308,5.61481416 4.77163077,5.56456637 Z M6.80506923,4.32461947 L5.20103077,0.683911504 L6.59723846,4.38855752 C6.66578462,4.36553982 6.73506154,4.34417699 6.80506923,4.32461947 Z M6.43223077,4.4469292 L4.55853846,0.995176991 L6.23302308,4.52846903 C6.29864615,4.49973451 6.36514615,4.47250442 6.43223077,4.4469292 Z M4.50139231,5.87884071 L1.42470769,3.89946903 L4.37789231,6.04357522 C4.41779231,5.98761062 4.45900769,5.93284956 4.50139231,5.87884071 Z M7.18316923,4.23646018 L5.86646923,0.429212389 L6.96846923,4.28219469 C7.0395,4.26519469 7.11111538,4.24984956 7.18316923,4.23646018 Z M4.25863077,6.21869027 L1.05698462,4.52470796 L4.15091538,6.39275221 C4.18540769,6.33407965 4.22150769,6.27600885 4.25863077,6.21869027 Z M9.0991,4.16063717 L9.32417692,4.16063717 L9.21719231,0.00391150442 L9.0991,4.16063717 Z M9.61721538,4.16063717 L9.84243846,4.16063717 L9.73545385,0.00391150442 L9.61721538,4.16063717 Z"/>
      <path fill="url(#hystrix-dashboard-gray-a)" d="M0.334546154,0.0871061947 L0.1273,0.0871061947 L0.1273,3.7300708 C1.06356154,3.9570885 1.76071538,4.82183186 1.76071538,5.85476991 C1.76071538,6.88785841 1.06356154,7.75275221 0.1273,7.97976991 L0.1273,8.72972566 L0.334546154,8.72972566 C2.65298462,8.72972566 4.53266923,6.7950354 4.53266923,4.40841593 C4.53266923,2.02179646 2.65298462,0.0871061947 0.334546154,0.0871061947 Z" transform="translate(10.523 4.363)"/>
      <path fill="url(#hystrix-dashboard-gray-b)" d="M4.55985385,3.70735398 L4.55985385,0.0871061947 L4.24708462,0.0871061947 C1.92864615,0.0871061947 0.0489615385,2.02179646 0.0489615385,4.40856637 C0.0489615385,6.7950354 1.9285,8.72987611 4.24708462,8.72987611 L4.55985385,8.72987611 L4.55985385,8.00248673 C3.57097692,7.81714159 2.82091538,6.92637168 2.82091538,5.85492035 C2.82091538,4.78346903 3.57097692,3.89269912 4.55985385,3.70735398 Z" transform="translate(3.8 4.363)"/>
      <path fill="url(#hystrix-dashboard-gray-c)" d="M0.411423077,8.03859292 C0.280761538,8.03859292 0.153023077,8.02565487 0.0289384615,8.00248673 L0.0289384615,8.72987611 L2.31946154,8.72987611 L2.31946154,7.97992035 C2.16278462,8.01783186 1.99967692,8.03874336 1.83174615,8.03874336 L0.411423077,8.03874336 L0.411423077,8.03859292 Z M0.0290846154,0.0871061947 L0.0290846154,3.70735398 C0.153169231,3.68418584 0.280907692,3.67124779 0.411569231,3.67124779 L1.83189231,3.67124779 C1.99982308,3.67124779 2.16293077,3.69200885 2.31960769,3.7300708 L2.31960769,0.0871061947 L0.0290846154,0.0871061947 Z" transform="translate(8.33 4.363)"/>
      <path fill="#666" d="M11.0615077,5.70748673 C11.1869077,5.29723009 11.2557462,4.86124779 11.2557462,4.40841593 C11.2557462,2.02179646 9.37620769,0.0869557522 7.05762308,0.0869557522 L4.24708462,0.0869557522 C1.92864615,0.0869557522 0.0489615385,2.02164602 0.0489615385,4.40841593 C0.0489615385,4.86169912 0.1178,5.29813274 0.243492308,5.70853982 L2.18602308,5.51672566 C2.18909231,5.55809735 2.19289231,5.59961947 2.19786154,5.64038938 L0.244953846,5.71290265 C0.285876923,5.84619469 0.332938462,5.97647788 0.3857,6.10390265 L2.21335385,5.75367257 C2.22007692,5.79474336 2.22723846,5.83581416 2.23571538,5.87613274 L0.389792308,6.11368142 C0.441530769,6.23749558 0.498676923,6.35815044 0.560938462,6.47564602 L2.26056154,5.98655752 C2.27079231,6.02732743 2.2819,6.06734513 2.29388462,6.10706195 L0.568830769,6.49084071 C0.629630769,6.60427434 0.695107692,6.71439823 0.765261538,6.82136283 L2.32837692,6.21357522 C2.34211538,6.25329204 2.35673077,6.29225664 2.37193077,6.33092035 L0.777830769,6.8410708 C0.845938462,6.94382301 0.918284615,7.04311504 0.994576923,7.13909735 L2.41504615,6.4330708 C2.432,6.47113274 2.44997692,6.50904425 2.46868462,6.54635398 L1.0127,7.16241593 C1.08650769,7.25418584 1.16440769,7.34249558 1.24523077,7.42764602 L2.51969231,6.64338938 C2.54000769,6.6799469 2.56105385,6.7160531 2.58283077,6.75170796 L1.26949231,7.45382301 C1.34768462,7.53461062 1.42923846,7.6120885 1.51342308,7.68640708 L2.64143846,6.84317699 C2.66482308,6.8779292 2.68893846,6.91207965 2.71378462,6.94577876 L1.54440769,7.7140885 C1.62537692,7.78434513 1.70926923,7.85099115 1.79535385,7.9149292 L2.77926154,7.03107965 C2.80542308,7.06357522 2.83231538,7.09561947 2.85993846,7.1269115 L1.83320769,7.94306195 C1.91593077,8.00293805 2.00084615,8.05965487 2.08780769,8.11351327 L2.93243077,7.20529204 C2.96122308,7.23538053 2.99089231,7.26486726 3.02129231,7.29360177 L2.13267692,8.14089381 C2.21598462,8.19099115 2.30075385,8.23853097 2.38771538,8.28276106 L3.09948462,7.36461062 C3.13090769,7.39229204 3.16306154,7.41892035 3.19565385,7.44479646 L2.43945385,8.30788496 C2.52246923,8.34865487 2.60694615,8.38746903 2.69288462,8.42282301 L3.27896154,7.50873451 C3.31243077,7.53340708 3.34677692,7.55702655 3.38156154,7.58019469 L2.75061538,8.44584071 C2.83275385,8.47818584 2.91635385,8.50737168 3.00097692,8.53445133 L3.46954615,7.63630973 C3.50520769,7.65797345 3.54130769,7.67873451 3.57799231,7.69859292 L3.06426154,8.55476106 C3.14479231,8.5789823 3.22649231,8.60064602 3.30906923,8.6200531 L3.67006923,7.74658407 C3.70748462,7.76478761 3.74519231,7.78223894 3.78333846,7.7990885 L3.3782,8.63524779 C3.45683077,8.65224779 3.53604615,8.66744248 3.61613846,8.67977876 L3.87936154,7.83790265 C3.91809231,7.85279646 3.95711538,7.86678761 3.99672308,7.87972566 L3.68936154,8.69076106 C3.74606923,8.69858407 3.80292308,8.70565487 3.86036154,8.7110708 L3.86036154,9.34473451 C3.86036154,9.64817699 4.04217692,9.90693805 4.29940769,10.014354 L4.29940769,9.67014159 L4.38724615,9.67014159 L4.38724615,10.0424867 C4.44366154,10.057531 4.50183077,10.0680619 4.56292308,10.0680619 C4.60808462,10.0680619 4.65193077,10.0627965 4.69475385,10.0543717 L4.69475385,9.67014159 L4.78259231,9.67014159 L4.78259231,10.0283451 C5.06247692,9.9329646 5.26563077,9.66472566 5.26563077,9.34473451 L5.26563077,8.73002655 L6.09125385,8.73002655 L6.09125385,9.34473451 C6.09125385,9.64817699 6.27306923,9.90693805 6.5303,10.014354 L6.5303,9.67014159 L6.61813846,9.67014159 L6.61813846,10.0424867 C6.67455385,10.057531 6.73272308,10.0680619 6.79381538,10.0680619 C6.83897692,10.0680619 6.88282308,10.0627965 6.92564615,10.0543717 L6.92564615,9.67014159 L7.01333846,9.67014159 L7.01333846,10.0284956 C7.29322308,9.93311504 7.49652308,9.66472566 7.49652308,9.34473451 L7.49652308,8.70610619 C7.53993077,8.70144248 7.58275385,8.69512389 7.62572308,8.68910619 L7.31894615,7.87957522 C7.35840769,7.86663717 7.39757692,7.85249558 7.43630769,7.83775221 L7.69938462,8.67917699 C7.77933077,8.66653982 7.85825385,8.65089381 7.93673846,8.63359292 L7.53218462,7.79893805 C7.57047692,7.78223894 7.60818462,7.76463717 7.64545385,7.74643363 L8.00557692,8.61764602 C8.08786154,8.5980885 8.16956154,8.57687611 8.24994615,8.55220354 L7.73767692,7.69829204 C7.77421538,7.67843363 7.81031538,7.65752212 7.84597692,7.63600885 L8.31337692,8.53174336 C8.39770769,8.50451327 8.48072308,8.47457522 8.56256923,8.44223009 L7.93410769,7.57989381 C7.96889231,7.55687611 8.00309231,7.53310619 8.03670769,7.50843363 L8.62088462,8.41966372 C8.70653077,8.38430973 8.79042308,8.34519469 8.87314615,8.30412389 L8.12016154,7.44449558 C8.15275385,7.41861947 8.18476154,7.39184071 8.21618462,7.36430973 L8.92488462,8.27824779 C9.01140769,8.2340177 9.09617692,8.1869292 9.17919231,8.13683186 L8.29437692,7.29330088 C8.32477692,7.26471681 8.3543,7.23507965 8.38323846,7.20499115 L9.22391538,8.109 C9.31043846,8.05529204 9.39535385,7.99902655 9.47763846,7.939 L8.45558462,7.12676106 C8.48320769,7.09546903 8.51024615,7.06342478 8.53640769,7.0309292 L9.51549231,7.91041593 C9.60113846,7.84662832 9.68488462,7.78028319 9.76541538,7.71017699 L8.60188462,6.94562832 C8.62673077,6.9119292 8.6507,6.8779292 8.67408462,6.84302655 L9.7964,7.68204425 C9.88,7.60772566 9.96140769,7.53069912 10.0391615,7.45006195 L8.73269231,6.75155752 C8.75446923,6.7160531 8.77551538,6.67979646 8.79597692,6.64323894 L10.0635692,7.42343363 C10.1439538,7.33858407 10.2215615,7.25057522 10.2949308,7.15895575 L8.84698462,6.54635398 C8.86569231,6.50904425 8.88352308,6.47113274 8.90062308,6.4330708 L10.3133462,7.13518584 C10.3892,7.03935398 10.4612538,6.94051327 10.5289231,6.83806195 L8.94373846,6.33092035 C8.95908462,6.29225664 8.9737,6.25314159 8.98729231,6.21357522 L10.5417846,6.8180531 C10.6115,6.71153982 10.6766846,6.60171681 10.7370462,6.48873451 L9.02207692,6.10721239 C9.03391538,6.06749558 9.04516923,6.02747788 9.05525385,5.98670796 L10.7452308,6.47293805 C10.8072,6.35604425 10.8639077,6.23569027 10.9155,6.11247788 L9.0801,5.87628319 C9.08857692,5.83581416 9.09588462,5.79489381 9.10246154,5.75382301 L10.9197385,6.1019469 C10.9722077,5.97512389 11.0189769,5.84529204 11.0597538,5.71260177 L9.11795385,5.64053982 C9.12292308,5.59976991 9.12686923,5.55824779 9.12979231,5.51687611 L11.0615077,5.70748673 Z M9.13622308,5.40133628 C9.1371,5.37139823 9.13841538,5.34130973 9.13841538,5.3110708 C9.13841538,5.29978761 9.13768462,5.28865487 9.13768462,5.27722124 L11.1527077,5.28023009 L9.13622308,5.40133628 Z M9.84243846,1.79131858 L8.31673846,3.35050442 C8.28736154,3.32222124 8.25769231,3.29453982 8.22714615,3.26746018 L9.84243846,1.79131858 Z M8.13930769,3.19284071 C8.10744615,3.1669646 8.075,3.14199115 8.04196923,3.11761947 L9.54545385,1.4920885 L8.13930769,3.19284071 Z M7.95033077,3.05277876 C7.91613077,3.02976106 7.88134615,3.00734513 7.84597692,2.98613274 L9.22537692,1.21963717 L7.95033077,3.05277876 Z M7.75170769,2.9310708 C7.71516923,2.91106195 7.67848462,2.89180531 7.64092308,2.87360177 L8.88454615,0.975469027 L7.75170769,2.9310708 Z M7.5449,2.82892035 C7.50660769,2.8120708 7.46773077,2.79612389 7.42841538,2.78123009 L8.52456923,0.761690265 L7.5449,2.82892035 Z M7.33195385,2.74707965 C7.29176154,2.73353982 7.25127692,2.7210531 7.21035385,2.70961947 L8.14880769,0.579504425 L7.33195385,2.74707965 Z M7.11476923,2.68479646 C7.07311538,2.67486726 7.03131538,2.66599115 6.98907692,2.6580177 L7.75945385,0.430566372 L7.11476923,2.68479646 Z M7.35928462,0.315628319 L6.89524615,2.64192035 C6.85256923,2.63560177 6.8096,2.63033628 6.76648462,2.62612389 L7.35928462,0.315628319 Z M6.95122308,0.235442478 L6.67499231,2.61890265 C6.63158462,2.61604425 6.58773846,2.61469027 6.54389231,2.61423894 L6.95122308,0.235442478 Z M6.53804615,0.190761062 L6.45561538,2.61363717 L6.32393077,2.61363717 L6.53804615,0.190761062 Z M6.1484,0.181734513 L6.21738462,2.61348673 L6.08584615,2.61348673 L6.1484,0.181734513 Z M5.82028462,0.181734513 L5.88283846,2.61348673 L5.75115385,2.61348673 L5.82028462,0.181734513 Z M5.51716154,0.181734513 L5.57971538,2.61348673 L5.44803077,2.61348673 L5.51716154,0.181734513 Z M5.18305385,0.181734513 L5.24049231,2.61348673 L5.10880769,2.61348673 L5.18305385,0.181734513 Z M4.99203077,2.61363717 L4.86034615,2.61363717 L4.77791538,0.190761062 L4.99203077,2.61363717 Z M4.77221538,2.61423894 C4.72836923,2.61469027 4.68466923,2.61619469 4.64111538,2.61890265 L4.36488462,0.235442478 L4.77221538,2.61423894 Z M4.54962308,2.62612389 C4.50650769,2.63033628 4.46353846,2.63560177 4.42086154,2.64192035 L3.95682308,0.315628319 L4.54962308,2.62612389 Z M4.32703077,2.6580177 C4.28479231,2.66599115 4.24299231,2.67471681 4.20148462,2.68479646 L3.5568,0.430566372 L4.32703077,2.6580177 Z M4.10575385,2.70961947 C4.06483077,2.7210531 4.02434615,2.73353982 3.98415385,2.74707965 L3.16715385,0.579504425 L4.10575385,2.70961947 Z M3.88783846,2.78123009 C3.84852308,2.79612389 3.80964615,2.8120708 3.77120769,2.82892035 L2.79153846,0.761690265 L3.88783846,2.78123009 Z M3.67533077,2.87360177 C3.63776923,2.89195575 3.60093846,2.91106195 3.5644,2.9310708 L2.43170769,0.975469027 L3.67533077,2.87360177 Z M3.47013077,2.9859823 C3.43476154,3.00734513 3.40012308,3.02961062 3.36592308,3.05262832 L2.09058462,1.21948673 L3.47013077,2.9859823 Z M3.27399231,3.11761947 C3.24096154,3.14184071 3.20851538,3.1669646 3.1768,3.19284071 L1.77036154,1.4920885 L3.27399231,3.11761947 Z M3.08866923,3.26746018 C3.05826923,3.29453982 3.02845385,3.32222124 2.99936923,3.35050442 L1.47366923,1.79131858 L3.08866923,3.26746018 Z M0.163546154,5.28038053 L2.17856923,5.27737168 C2.17842308,5.28865487 2.17769231,5.29978761 2.17769231,5.31122124 C2.17769231,5.34130973 2.17900769,5.37139823 2.17988462,5.40148673 L0.163546154,5.28038053 Z M2.18675385,5.09458407 L0.146738462,4.85929204 L2.1983,4.97738938 C2.19362308,5.01635398 2.18982308,5.05546903 2.18675385,5.09458407 Z M2.21715385,4.84620354 L0.198769231,4.43489381 L2.23922308,4.73021239 C2.23103846,4.76857522 2.22387692,4.80723894 2.21715385,4.84620354 Z M2.26976923,4.60233628 L0.285,4.01666372 L2.30221538,4.48845133 C2.29052308,4.52621239 2.27985385,4.56397345 2.26976923,4.60233628 Z M2.34386923,4.36523894 L0.405284615,3.60730973 L2.38654615,4.25451327 C2.37149231,4.29092035 2.35731538,4.3279292 2.34386923,4.36523894 Z M2.43843077,4.1370177 L0.558161538,3.20984071 L2.49163077,4.03020354 C2.47306923,4.06510619 2.45553077,4.1009115 2.43843077,4.1370177 Z M2.55301538,3.91977876 L0.7429,2.82681416 L2.61600769,3.81777876 C2.59423077,3.85132743 2.57318462,3.88517699 2.55301538,3.91977876 Z M2.68572308,3.71532743 L0.958038462,2.4610885 L2.75792308,3.61889381 C2.73336923,3.65048673 2.70925385,3.68253097 2.68572308,3.71532743 Z M1.20226154,2.1150708 L2.91620769,3.4350531 C2.88873077,3.46438938 2.86154615,3.49447788 2.83523846,3.52531858 L1.20226154,2.1150708 Z M6.36251538,8.03859292 L4.94219231,8.03859292 C3.77062308,8.03859292 2.82076923,7.0610177 2.82076923,5.85476991 C2.82076923,5.13264602 3.16291538,4.49416814 3.6879,4.09669912 C3.61029231,4.0180177 3.56191538,3.90864602 3.56191538,3.78753982 C3.56191538,3.54788496 3.75074615,3.35366372 3.98342308,3.35366372 C4.20250769,3.35366372 4.38023077,3.5260708 4.40098462,3.74556637 C4.57403077,3.69862832 4.75467692,3.67109735 4.94204615,3.67109735 L6.36236923,3.67109735 C6.56625385,3.67109735 6.76253846,3.70238938 6.94917692,3.75760177 C6.96437692,3.5320885 7.14487692,3.35351327 7.36776154,3.35351327 C7.60058462,3.35351327 7.78941538,3.54773451 7.78941538,3.78738938 C7.78941538,3.91917699 7.73124615,4.03576991 7.64106923,4.11535398 C8.15202308,4.51402655 8.48364615,5.14377876 8.48364615,5.85461947 C8.48379231,7.0610177 7.53393846,8.03859292 6.36251538,8.03859292 Z M8.48101538,3.52531858 C8.45456154,3.49447788 8.42752308,3.46453982 8.3999,3.4350531 L10.1138462,2.1150708 L8.48101538,3.52531858 Z M8.63038462,3.71532743 C8.607,3.68253097 8.58288462,3.65048673 8.55803846,3.61889381 L10.3580692,2.4610885 L8.63038462,3.71532743 Z M8.76309231,3.91977876 C8.74292308,3.88532743 8.72173077,3.85132743 8.7001,3.8179292 L10.5732077,2.8269646 L8.76309231,3.91977876 Z M8.87767692,4.1370177 C8.86072308,4.1009115 8.84303846,4.06510619 8.82462308,4.03020354 L10.7580923,3.20984071 L8.87767692,4.1370177 Z M8.97223846,4.36523894 C8.95864615,4.3279292 8.94461538,4.2910708 8.92956154,4.25451327 L10.9109692,3.60730973 L8.97223846,4.36523894 Z M9.04633846,4.60233628 C9.03625385,4.56397345 9.02558462,4.52621239 9.01389231,4.48845133 L11.0309615,4.01666372 L9.04633846,4.60233628 Z M9.09880769,4.84620354 C9.09223077,4.80723894 9.08492308,4.76857522 9.07673846,4.73021239 L11.1171923,4.43489381 L9.09880769,4.84620354 Z M9.11766154,4.97738938 L11.1693692,4.85929204 L9.12935385,5.09458407 C9.12613846,5.05546903 9.12233846,5.01635398 9.11766154,4.97738938 Z" transform="translate(3.8 4.363)"/>
      <path fill="#000" d="M1.12918462,1.02722124 C0.829861538,1.02722124 0.5871,1.27680531 0.5871,1.58506195 C0.5871,1.89316814 0.829861538,2.1430531 1.12918462,2.1430531 C1.42836154,2.1430531 1.67112308,1.89316814 1.67112308,1.58506195 C1.67112308,1.27680531 1.42836154,1.02722124 1.12918462,1.02722124 Z M1.83189231,0.138707965 C1.66001538,0.138707965 1.52058462,0.281778761 1.52058462,0.458849558 C1.52058462,0.635619469 1.66001538,0.77899115 1.83189231,0.77899115 C2.00362308,0.77899115 2.14305385,0.635619469 2.14305385,0.458849558 C2.14305385,0.281778761 2.00362308,0.138707965 1.83189231,0.138707965 Z M0.737784615,0.458849558 C0.737784615,0.281778761 0.598353846,0.138707965 0.426623077,0.138707965 C0.254892308,0.138707965 0.115461538,0.281778761 0.115461538,0.458849558 C0.115461538,0.635619469 0.254746154,0.77899115 0.426623077,0.77899115 C0.5985,0.77899115 0.737784615,0.635619469 0.737784615,0.458849558 Z" transform="translate(8.33 9.327)"/>
      <polygon fill="#000" points="2.304 .021 1.274 .648 .331 .015 .079 .009 1.285 .986 2.527 .021" transform="translate(8.185 8.575)"/>
    </g>
  </g>
</svg>
