<svg xmlns="http://www.w3.org/2000/svg" width="24" height="26" viewBox="0 0 24 26">
  <g fill="none">
    <path fill="#FFF" d="M24,8.35849057 C24,7.00360233 23.2489919,5.75103803 22.0982566,5.10813769 L13.8811156,0.468825215 C12.7635724,-0.155542759 11.2364275,-0.155542759 10.122796,0.466628283 L1.89783171,5.11033465 C0.697367869,5.69522678 0,6.93102124 0,8.35849057 L0,0 L24,0 L24,8.35849057 Z M24,17.6415094 L24,26 L0,26 L0,17.6415094 C0,18.9963977 0.751008125,20.248962 1.90174341,20.8918623 L10.1188844,25.5311748 C10.7676658,25.8502877 11.3801731,26 12,26 C12.6845044,26 13.4279375,25.8289751 13.9355222,25.4981309 L22.1021683,20.8896654 C23.2765143,20.0751264 24,18.8684652 24,17.6415094 Z"/>
    <path fill="#009CE3" d="M23,8.35849057 C23,7.33962265 22.4210527,6.43396225 21.6105263,5.98113209 L13.3894737,1.33962265 C12.5789473,0.88679245 11.4210526,0.88679245 10.6105263,1.33962265 L2.38947367,5.98113209 C1.46315791,6.43396229 1,7.33962265 1,8.35849057 L1,17.6415094 C1,18.6603774 1.57894735,19.5660378 2.38947367,20.018868 L10.6105263,24.6603774 C11.0736842,24.8867924 11.5368421,25 12,25 C12.4631579,25 13.0421053,24.8867924 13.3894737,24.6603774 L21.6105263,20.018868 C22.4210527,19.4528302 23,18.5471698 23,17.6415094 L23,8.35849057 Z M24,8.35849057 L24,17.6415094 C24,18.8684652 23.2765143,20.0751264 22.1021683,20.8896654 L13.9355222,25.4981309 C13.4279375,25.8289751 12.6845044,26 12,26 C11.3801731,26 10.7676658,25.8502877 10.1188844,25.5311748 L1.90174341,20.8918623 C0.751008125,20.248962 0,18.9963977 0,17.6415094 L0,8.35849057 C0,6.93102124 0.697367869,5.69522678 1.89783171,5.11033465 L10.122796,0.466628283 C11.2364275,-0.155542759 12.7635724,-0.155542759 13.8811156,0.468825215 L22.0982566,5.10813769 C23.2489919,5.75103803 24,7.00360233 24,8.35849057 Z"/>
    <path fill="#009CE3" d="M14.5966667,13.7799414 C14.0266667,13.7799414 13.5166667,14.0332747 13.1666667,14.4299414 L12.27,13.7966081 C12.3666667,13.5366081 12.42,13.2532747 12.42,12.9599414 C12.42,12.6699414 12.3666667,12.3932747 12.2766667,12.1366081 L13.17,11.5099414 C13.52,11.9032747 14.0266667,12.1566081 14.5966667,12.1566081 C15.6466667,12.1566081 16.5,11.3032747 16.5,10.2532747 C16.5,9.20327474 15.6466667,8.34994141 14.5966667,8.34994141 C13.5466667,8.34994141 12.6933333,9.20327474 12.6933333,10.2532747 C12.6933333,10.4399414 12.7233333,10.6232747 12.7733333,10.7932747 L11.8766667,11.4199414 C11.5033333,10.9566081 10.9633333,10.6332747 10.3533333,10.5332747 L10.3533333,9.45660807 C11.2166667,9.27327474 11.8666667,8.50660807 11.8666667,7.59327474 C11.8666667,6.54327474 11.0133333,5.68994141 9.96333333,5.68994141 C8.91333333,5.68994141 8.06,6.54327474 8.06,7.59327474 C8.06,8.49660807 8.69333333,9.25327474 9.54,9.44994141 L9.54,10.5399414 C8.38,10.7399414 7.5,11.7466081 7.5,12.9599414 C7.5,14.1766081 8.39,15.1866081 9.55,15.3832747 L9.55,16.5366081 C8.69666667,16.7232747 8.05333333,17.4866081 8.05333333,18.3966081 C8.05333333,19.4466081 8.90666667,20.2999414 9.95666667,20.2999414 C11.0066667,20.2999414 11.8666667,19.4466081 11.8666667,18.3932747 C11.8666667,17.4832747 11.2233333,16.7199414 10.37,16.5332747 L10.37,15.3799414 C10.97,15.2799414 11.4966667,14.9632747 11.8666667,14.5099414 L12.7666667,15.1466081 C12.7166667,15.3166081 12.69,15.4966081 12.69,15.6832747 C12.69,16.7332747 13.5433333,17.5866081 14.5933333,17.5866081 C15.6433333,17.5866081 16.4966667,16.7332747 16.4966667,15.6832747 C16.4966667,14.6332747 15.6466667,13.7799414 14.5966667,13.7799414 Z M14.5966667,9.32660807 C15.1066667,9.32660807 15.52,9.73994141 15.52,10.2499414 C15.52,10.7599414 15.1066667,11.1732747 14.5966667,11.1732747 C14.0866667,11.1732747 13.67,10.7599414 13.67,10.2499414 C13.67,9.73994141 14.0866667,9.32660807 14.5966667,9.32660807 Z M9.03666667,7.59327474 C9.03666667,7.08327474 9.45,6.66994141 9.96,6.66994141 C10.47,6.66994141 10.8833333,7.08327474 10.8833333,7.59327474 C10.8833333,8.10327474 10.47,8.51660807 9.96,8.51660807 C9.45,8.51660807 9.03666667,8.09994141 9.03666667,7.59327474 Z M10.8833333,18.3932747 C10.8833333,18.9032747 10.47,19.3166081 9.96,19.3166081 C9.45,19.3166081 9.03666667,18.9032747 9.03666667,18.3932747 C9.03666667,17.8832747 9.45,17.4699414 9.96,17.4699414 C10.47,17.4699414 10.8833333,17.8866081 10.8833333,18.3932747 Z M9.96,14.2466081 C9.25,14.2466081 8.67333333,13.6699414 8.67333333,12.9599414 C8.67333333,12.2499414 9.25,11.6732747 9.96,11.6732747 C10.67,11.6732747 11.2466667,12.2499414 11.2466667,12.9599414 C11.25,13.6699414 10.67,14.2466081 9.96,14.2466081 Z M14.5966667,16.6099414 C14.0866667,16.6099414 13.6733333,16.1966081 13.6733333,15.6866081 C13.6733333,15.1766081 14.0866667,14.7632747 14.5966667,14.7632747 C15.1066667,14.7632747 15.52,15.1766081 15.52,15.6866081 C15.52,16.1966081 15.1033333,16.6099414 14.5966667,16.6099414 Z"/>
  </g>
</svg>
