<svg xmlns="http://www.w3.org/2000/svg" width="24" height="26" viewBox="0 0 24 26">
  <g fill="none">
    <path fill="#FFF" d="M24,8.35849057 C24,7.00360233 23.2489919,5.75103803 22.0982566,5.10813769 L13.8811156,0.468825215 C12.7635724,-0.155542759 11.2364275,-0.155542759 10.122796,0.466628283 L1.89783171,5.11033465 C0.697367869,5.69522678 0,6.93102124 0,8.35849057 L0,0 L24,0 L24,8.35849057 Z M24,17.6415094 L24,26 L0,26 L0,17.6415094 C0,18.9963977 0.751008125,20.248962 1.90174341,20.8918623 L10.1188844,25.5311748 C10.7676658,25.8502877 11.3801731,26 12,26 C12.6845044,26 13.4279375,25.8289751 13.9355222,25.4981309 L22.1021683,20.8896654 C23.2765143,20.0751264 24,18.8684652 24,17.6415094 Z"/>
    <path fill="#0ABF5B" d="M23,8.35849057 C23,7.33962265 22.4210527,6.43396225 21.6105263,5.98113209 L13.3894737,1.33962265 C12.5789473,0.88679245 11.4210526,0.88679245 10.6105263,1.33962265 L2.38947367,5.98113209 C1.46315791,6.43396229 1,7.33962265 1,8.35849057 L1,17.6415094 C1,18.6603774 1.57894735,19.5660378 2.38947367,20.018868 L10.6105263,24.6603774 C11.0736842,24.8867924 11.5368421,25 12,25 C12.4631579,25 13.0421053,24.8867924 13.3894737,24.6603774 L21.6105263,20.018868 C22.4210527,19.4528302 23,18.5471698 23,17.6415094 L23,8.35849057 Z M24,8.35849057 L24,17.6415094 C24,18.8684652 23.2765143,20.0751264 22.1021683,20.8896654 L13.9355222,25.4981309 C13.4279375,25.8289751 12.6845044,26 12,26 C11.3801731,26 10.7676658,25.8502877 10.1188844,25.5311748 L1.90174341,20.8918623 C0.751008125,20.248962 0,18.9963977 0,17.6415094 L0,8.35849057 C0,6.93102124 0.697367869,5.69522678 1.89783171,5.11033465 L10.122796,0.466628283 C11.2364275,-0.155542759 12.7635724,-0.155542759 13.8811156,0.468825215 L22.0982566,5.10813769 C23.2489919,5.75103803 24,7.00360233 24,8.35849057 Z"/>
    <path fill="#0ABF5B" d="M11.9248469,19.2030466 L10.546059,19.2030466 C10.3764812,19.2030466 10.2138488,19.1356821 10.0939392,19.0157724 C9.97402956,18.8958628 9.90666504,18.7332305 9.90666504,18.5636526 L9.90666504,16.5363799 L9.90060443,16.5363799 C7.59092764,15.7508405 6.18929483,13.4089076 6.58841332,11.0021705 C6.98753181,8.59543338 9.07008988,6.83129722 11.5096953,6.83334961 L11.9187863,6.827289 L11.9248469,6.827289 C15.3369681,6.827289 18.1127256,9.60304658 18.1127256,13.0151678 C18.1127256,16.427289 15.3369681,19.2060769 11.9248469,19.2030466 Z M11.9309075,8.10607688 L11.5218166,8.11213749 L11.5157559,8.11213749 C9.80399531,8.11416381 8.31579141,9.28697434 7.91367392,10.9508344 C7.51155644,12.6146944 8.29990753,14.337697 9.82181655,15.1212284 C10.1508101,15.2952846 10.5137689,15.3955895 10.8854529,15.4151678 L12.0127256,15.4151678 C12.5729197,15.4152482 13.1101927,15.1927476 13.5063097,14.7966306 C13.9024266,14.4005136 14.1249272,13.8632406 14.1248469,13.3030466 L14.1248469,13.0545617 C14.123179,12.1197166 13.3657526,11.3622902 12.4309075,11.3606223 L11.1854529,11.3606223 L11.1854529,14.5848648 L11.0096953,14.5848648 C10.5884832,14.5727435 10.1278772,14.3727435 9.90666504,14.1000163 L9.90666504,10.7212284 C9.90632846,10.3691437 10.1909463,10.0831705 10.5430287,10.0818345 L12.4278772,10.0818345 C14.0679337,10.0831681 15.3975981,11.4114771 15.4006044,13.0515314 L15.4006044,13.3000163 C15.3997704,15.1729088 13.8825864,16.6914486 12.0096953,16.6939557 L11.1824226,16.6939557 L11.1824226,17.9242587 L11.9248469,17.9242587 C14.6369681,17.9242587 16.8369681,15.727289 16.8369681,13.0151678 C16.8369681,10.3030466 14.6399984,8.10304658 11.9278772,8.10304658 L11.9309075,8.10607688 Z"/>
  </g>
</svg>
