<svg xmlns="http://www.w3.org/2000/svg" width="24" height="26" viewBox="0 0 24 26">
  <g fill="none">
    <path fill="#FFF" d="M24,8.35849057 C24,7.00360233 23.2489919,5.75103803 22.0982566,5.10813769 L13.8811156,0.468825215 C12.7635724,-0.155542759 11.2364275,-0.155542759 10.122796,0.466628283 L1.89783171,5.11033465 C0.697367869,5.69522678 0,6.93102124 0,8.35849057 L0,0 L24,0 L24,8.35849057 Z M24,17.6415094 L24,26 L0,26 L0,17.6415094 C0,18.9963977 0.751008125,20.248962 1.90174341,20.8918623 L10.1188844,25.5311748 C10.7676658,25.8502877 11.3801731,26 12,26 C12.6845044,26 13.4279375,25.8289751 13.9355222,25.4981309 L22.1021683,20.8896654 C23.2765143,20.0751264 24,18.8684652 24,17.6415094 Z"/>
    <path fill="#0ABF5B" d="M23,8.35849057 C23,7.33962265 22.4210527,6.43396225 21.6105263,5.98113209 L13.3894737,1.33962265 C12.5789473,0.88679245 11.4210526,0.88679245 10.6105263,1.33962265 L2.38947367,5.98113209 C1.46315791,6.43396229 1,7.33962265 1,8.35849057 L1,17.6415094 C1,18.6603774 1.57894735,19.5660378 2.38947367,20.018868 L10.6105263,24.6603774 C11.0736842,24.8867924 11.5368421,25 12,25 C12.4631579,25 13.0421053,24.8867924 13.3894737,24.6603774 L21.6105263,20.018868 C22.4210527,19.4528302 23,18.5471698 23,17.6415094 L23,8.35849057 Z M24,8.35849057 L24,17.6415094 C24,18.8684652 23.2765143,20.0751264 22.1021683,20.8896654 L13.9355222,25.4981309 C13.4279375,25.8289751 12.6845044,26 12,26 C11.3801731,26 10.7676658,25.8502877 10.1188844,25.5311748 L1.90174341,20.8918623 C0.751008125,20.248962 0,18.9963977 0,17.6415094 L0,8.35849057 C0,6.93102124 0.697367869,5.69522678 1.89783171,5.11033465 L10.122796,0.466628283 C11.2364275,-0.155542759 12.7635724,-0.155542759 13.8811156,0.468825215 L22.0982566,5.10813769 C23.2489919,5.75103803 24,7.00360233 24,8.35849057 Z"/>
    <g transform="translate(3 8.89)">
      <path fill="#0ABF5B" d="M14.6056738,4.04539007 C14.8269504,4.06808511 15.048227,4.09078014 15.2695035,4.11347518 L15.7574468,2.90496454 L16.222695,4.2212766 C16.4609929,4.24964539 16.6992908,4.28368794 16.9375887,4.3177305 L16.1205674,2.00851064 L16.9375887,0 L16.2453901,0 L16.2397163,0.0113475177 L15.7971631,1.10070922 L15.4113475,0 L14.7304965,0 L15.4340426,1.99716312 L14.6056738,4.04539007 Z M14.0893617,4 L14.0893617,0 L13.4085106,0 L13.4085106,3.94326241 C13.635461,3.96028369 13.8624113,3.98297872 14.0893617,4 Z M8.97163121,3.7787234 C9.15319149,3.7787234 9.34042553,3.7787234 9.52198582,3.78439716 L9.52198582,2.31489362 L10.3390071,2.31489362 L10.3390071,1.69078014 L9.52198582,1.69078014 L9.52198582,0.624113475 L10.4638298,0.624113475 L10.4638298,0 L8.84113475,0 L8.84113475,3.7787234 C8.88652482,3.7787234 8.93191489,3.7787234 8.97163121,3.7787234 Z M6.86099291,3.81276596 C7.08794326,3.8070922 7.31489362,3.79574468 7.54184397,3.79007092 L7.54184397,0.624113475 L8.17730496,0.624113475 L8.17730496,0 L6.22553191,0 L6.22553191,0.624113475 L6.86099291,0.624113475 L6.86099291,3.81276596 Z M1.65248227,4.23829787 L1.65248227,1.85531915 L2.45815603,4.14184397 C2.70780142,4.11347518 2.95177305,4.08510638 3.20141844,4.06241135 L3.20141844,0 L2.54893617,0 L2.54893617,2.46808511 L1.68085106,0 L1,0 L1,4.32340426 L1.00567376,4.32340426 C1.2212766,4.29503546 1.43687943,4.26666667 1.65248227,4.23829787 Z M5.56737589,0.624113475 L5.56737589,0 L3.93900709,0 L3.93900709,3.99432624 C4.47801418,3.94893617 5.02269504,3.90921986 5.56170213,3.8751773 L5.56170213,3.24539007 C5.24964539,3.26241135 4.93191489,3.28510638 4.61985816,3.30780142 L4.61985816,2.3035461 L5.43687943,2.3035461 L5.43687943,1.67943262 L4.62553191,1.67943262 L4.62553191,0.624113475 L5.56737589,0.624113475 Z M11.8141844,3.22269504 L11.8141844,0 L11.1276596,0 L11.1276596,3.81843972 C11.6723404,3.84113475 12.2113475,3.86382979 12.7560284,3.9035461 L12.7560284,3.27375887 C12.4439716,3.25106383 12.1319149,3.23404255 11.8141844,3.22269504 Z"/>
      <path fill="#65717F" d="M1.19284724,8.42967866 L1.19284724,5.97897443 L0.409912109,5.97897443 L0.409912109,5.47998047 L2.50431842,5.47998047 L2.50431842,5.97897443 L1.72357638,5.97897443 L1.72357638,8.42967866 L1.19284724,8.42967866 Z M2.99396357,5.47998047 L3.52469271,5.47998047 L3.52469271,7.07756598 C3.52469271,7.32572282 3.53127193,7.48735769 3.54443057,7.56247544 C3.56782371,7.69259011 3.62374709,7.79319272 3.71220239,7.8642863 C3.80065769,7.93537989 3.91725611,7.97092614 4.06200114,7.97092614 C4.18481511,7.97092614 4.28496547,7.94577549 4.36245524,7.89547343 C4.43994501,7.84517136 4.49294429,7.77542022 4.52145467,7.68621789 C4.54996506,7.59701557 4.56422004,7.40553526 4.56422004,7.11177121 L4.56422004,5.47998047 L5.09714227,5.47998047 L5.09714227,7.02927624 C5.09714227,7.4249858 5.074115,7.71103257 5.02805976,7.88742514 C4.98200452,8.0638177 4.87819903,8.20667342 4.71664018,8.31599657 C4.55508133,8.42531971 4.34198767,8.47998047 4.07735281,8.47998047 C3.80248345,8.47998047 3.58792774,8.43470929 3.43367925,8.34416558 C3.27943075,8.25362187 3.16758399,8.12619189 3.09813562,7.96187182 C3.02868724,7.79755175 2.99396357,7.49473787 2.99396357,7.05342111 L2.99396357,5.47998047 Z M5.80829008,8.42967866 L5.80829008,5.47998047 L6.92896194,5.47998047 C7.21552787,5.47998047 7.42021474,5.50647249 7.54302871,5.55945733 C7.66584268,5.61244217 7.76672407,5.70432589 7.84567591,5.83511125 C7.92462774,5.96589662 7.96410307,6.12250135 7.96410307,6.30493017 C7.96410307,6.53564896 7.90379354,6.72142846 7.78317268,6.86227423 C7.66255182,7.00312001 7.49112656,7.09165031 7.26889176,7.12786779 C7.3829333,7.20298554 7.47723547,7.28514434 7.55180109,7.37434667 C7.62636672,7.46354899 7.72797913,7.62350715 7.85664139,7.85422594 L8.17683335,8.42967866 L7.54302871,8.42967866 L7.15704388,7.78782755 C7.01814713,7.55576737 6.92384496,7.41056426 6.87413455,7.35221387 C6.82442413,7.29386348 6.77179036,7.25362243 6.71623166,7.23148952 C6.66067296,7.20935662 6.57148797,7.19829033 6.448674,7.19829033 L6.33901922,7.19829033 L6.33901922,8.42967866 L5.80829008,8.42967866 Z M6.33901922,6.72746538 L6.73377643,6.72746538 C6.97501815,6.72746538 7.12853331,6.71774046 7.19432651,6.69829033 C7.26011971,6.6788402 7.3134845,6.63960518 7.35442249,6.58058409 C7.39536048,6.521563 7.41582917,6.44309296 7.41582917,6.34517162 C7.41582917,6.25127443 7.39536048,6.17582247 7.35442249,6.11881347 C7.3134845,6.06180446 7.25792663,6.02256944 7.18774722,6.00110723 C7.13803681,5.98635196 6.99402497,5.97897443 6.75570739,5.97897443 L6.33901922,5.97897443 L6.33901922,6.72746538 Z M8.6138442,5.47998047 L9.66872319,5.47998047 C9.95675119,5.47998047 10.159245,5.5041251 10.2762107,5.55241508 C10.3931764,5.60070506 10.4918647,5.68588194 10.5722786,5.80794828 C10.6526925,5.93001461 10.6928988,6.06817554 10.6928988,6.2224352 C10.6928988,6.36462236 10.6585407,6.49305837 10.5898234,6.60774707 C10.521106,6.72243577 10.431921,6.80727731 10.3222657,6.86227423 C10.4787073,6.91324699 10.6011539,7.00043592 10.6896092,7.12384365 C10.7780645,7.24725137 10.8222915,7.39748461 10.8222915,7.57454787 C10.8222915,7.78917001 10.7660026,7.97059006 10.6534231,8.11881347 C10.5408437,8.26703688 10.4077972,8.35858526 10.2542797,8.39346135 C10.1475485,8.41760634 9.89973121,8.42967866 9.51082031,8.42967866 L8.6138442,8.42967866 L8.6138442,5.47998047 Z M9.14457334,5.97092614 L9.14457334,6.6530187 L9.49546864,6.6530187 C9.70600687,6.6530187 9.83612924,6.64966528 9.88583966,6.64295834 C9.97648806,6.62954445 10.0473974,6.59433354 10.0985699,6.53732453 C10.1497424,6.48031553 10.1753283,6.40285152 10.1753283,6.30493017 C10.1753283,6.21773993 10.1544941,6.14698275 10.1128251,6.09265653 C10.071156,6.0383303 10.0207153,6.00446075 9.96150146,5.99104687 C9.90228758,5.97763298 9.73232437,5.97092614 9.45160673,5.97092614 L9.14457334,5.97092614 Z M9.14457334,7.14396437 L9.14457334,7.93269677 L9.63801985,7.93269677 C9.85440637,7.93269677 9.99330104,7.92230116 10.054708,7.90150964 C10.116115,7.88071812 10.1676522,7.83980639 10.2093213,7.77877323 C10.2509903,7.71774006 10.2718245,7.64027604 10.2718245,7.54637886 C10.2718245,7.4497989 10.2495282,7.37032283 10.2049351,7.30794828 C10.1603419,7.24557372 10.1011289,7.20264994 10.0272943,7.17917564 C9.95345974,7.15570134 9.80250317,7.14396437 9.57442008,7.14396437 L9.14457334,7.14396437 Z M11.4062397,8.42967866 L11.4062397,5.47998047 L11.9369689,5.47998047 L11.9369689,8.42967866 L11.4062397,8.42967866 Z M12.6020617,8.42967866 L12.6020617,5.47998047 L13.1196323,5.47998047 L14.1986353,7.44979938 L14.1986353,5.47998047 L14.6942749,5.47998047 L14.6942749,8.42967866 L14.1591596,8.42967866 L13.0977013,6.50613741 L13.0977013,8.42967866 L12.6020617,8.42967866 Z M15.4054227,8.42967866 L15.4054227,5.47998047 L17.361664,5.47998047 L17.361664,5.97897443 L15.9361519,5.97897443 L15.9361519,6.63289797 L17.2607816,6.63289797 L17.2607816,7.12987987 L15.9361519,7.12987987 L15.9361519,7.93269677 L17.4099121,7.93269677 L17.4099121,8.42967866 L15.4054227,8.42967866 Z"/>
    </g>
  </g>
</svg>
