<svg xmlns="http://www.w3.org/2000/svg" width="24" height="26" viewBox="0 0 24 26">
  <defs>
    <linearGradient id="zookeeper-blue-a" x1="-.001%" x2="99.999%" y1="50%" y2="50%">
      <stop offset="0%" stop-color="#442B1F"/>
      <stop offset="100%" stop-color="#442B1F"/>
    </linearGradient>
    <linearGradient id="zookeeper-blue-b" x1="-.002%" y1="50%" y2="50%">
      <stop offset="0%" stop-color="#C8B091"/>
      <stop offset="19.87%" stop-color="#C5A788"/>
      <stop offset="52.9%" stop-color="#BC8E6E"/>
      <stop offset="94.79%" stop-color="#AD6745"/>
      <stop offset="99.44%" stop-color="#AB6240"/>
    </linearGradient>
    <linearGradient id="zookeeper-blue-c" x1="0%" x2="100.003%" y1="50.003%" y2="50.003%">
      <stop offset="0%" stop-color="#88786F"/>
      <stop offset="10.54%" stop-color="#806F66"/>
      <stop offset="28.06%" stop-color="#6B574C"/>
      <stop offset="50.27%" stop-color="#493023"/>
      <stop offset="62.19%" stop-color="#34180A"/>
      <stop offset="100%" stop-color="#3E2316"/>
    </linearGradient>
    <linearGradient id="zookeeper-blue-d" x1="50%" x2="50%" y1="99.999%" y2="-.002%">
      <stop offset="37.24%" stop-color="#1D2739"/>
      <stop offset="99.44%" stop-color="#1D2739"/>
    </linearGradient>
  </defs>
  <g fill="none">
    <path fill="#FFF" d="M24,8.35849057 C24,7.00360233 23.2489919,5.75103803 22.0982566,5.10813769 L13.8811156,0.468825215 C12.7635724,-0.155542759 11.2364275,-0.155542759 10.122796,0.466628283 L1.89783171,5.11033465 C0.697367869,5.69522678 0,6.93102124 0,8.35849057 L0,0 L24,0 L24,8.35849057 Z M24,17.6415094 L24,26 L0,26 L0,17.6415094 C0,18.9963977 0.751008125,20.248962 1.90174341,20.8918623 L10.1188844,25.5311748 C10.7676658,25.8502877 11.3801731,26 12,26 C12.6845044,26 13.4279375,25.8289751 13.9355222,25.4981309 L22.1021683,20.8896654 C23.2765143,20.0751264 24,18.8684652 24,17.6415094 Z"/>
    <path fill="#009CE3" d="M23,8.35849057 C23,7.33962265 22.4210527,6.43396225 21.6105263,5.98113209 L13.3894737,1.33962265 C12.5789473,0.88679245 11.4210526,0.88679245 10.6105263,1.33962265 L2.38947367,5.98113209 C1.46315791,6.43396229 1,7.33962265 1,8.35849057 L1,17.6415094 C1,18.6603774 1.57894735,19.5660378 2.38947367,20.018868 L10.6105263,24.6603774 C11.0736842,24.8867924 11.5368421,25 12,25 C12.4631579,25 13.0421053,24.8867924 13.3894737,24.6603774 L21.6105263,20.018868 C22.4210527,19.4528302 23,18.5471698 23,17.6415094 L23,8.35849057 Z M24,8.35849057 L24,17.6415094 C24,18.8684652 23.2765143,20.0751264 22.1021683,20.8896654 L13.9355222,25.4981309 C13.4279375,25.8289751 12.6845044,26 12,26 C11.3801731,26 10.7676658,25.8502877 10.1188844,25.5311748 L1.90174341,20.8918623 C0.751008125,20.248962 0,18.9963977 0,17.6415094 L0,8.35849057 C0,6.93102124 0.697367869,5.69522678 1.89783171,5.11033465 L10.122796,0.466628283 C11.2364275,-0.155542759 12.7635724,-0.155542759 13.8811156,0.468825215 L22.0982566,5.10813769 C23.2489919,5.75103803 24,7.00360233 24,8.35849057 Z"/>
    <g transform="translate(6.2 5.5)">
      <ellipse cx="7.914" cy="12.323" fill="#331E09" stroke="#000" stroke-width=".5" rx="1" ry="1"/>
      <path fill="#F9C89A" stroke="#000" stroke-width=".02" d="M4.6146092 11.4679083C4.6146092 11.4679083 4.79013218 12.2079375 4.81350575 12.427712 4.83695977 12.6474069 5.28158046 12.7515294 5.32836782 12.4970872 5.3751954 12.2426848 5.53901149 11.6182677 5.53901149 11.6182677L4.6146092 11.4679083zM7.41131034 11.6297972C7.41131034 11.6297972 7.64528736 12.1848787 7.64528736 12.4970475 7.64528736 12.8092957 8.20693678 12.8555327 8.25376437 12.6473671 8.30055172 12.4392414 8.37075287 11.6181882 8.37075287 11.6181882L7.41131034 11.6297972z"/>
      <path fill="#A15813" stroke="#000" stroke-width=".02" d="M5.30113218,12.1269931 C5.20751724,12.1655968 4.94228161,12.1964081 4.84086207,12.157884 C4.73948276,12.1193598 4.8487069,12.5201858 4.87988506,12.6435903 C4.91106322,12.766955 5.2386954,12.7438166 5.2386954,12.7438166 L5.30113218,12.1269931 Z"/>
      <ellipse cx="4.8" cy="12.445" fill="#4F2E0E" stroke="#000" stroke-width=".02" rx="1" ry="1"/>
      <ellipse cx="5.409" cy="12.494" fill="#4F2E0E" stroke="#000" stroke-width=".02" rx="1" ry="1"/>
      <path fill="#9E5613" stroke="#000" stroke-width=".02" d="M3.98859195,13.7864333 C3.98859195,13.7864333 3.98859195,13.5436398 3.98271839,13.2429606 C3.97688506,12.9423213 4.29868391,12.5606978 4.95394828,12.5780316 C5.60925287,12.5953655 5.91347126,12.9538507 5.91347126,13.3007667 C5.91347126,13.6476828 5.88418391,13.9252235 5.84906322,13.9945988 C5.81394253,14.063974 4.13482759,14.0871124 4.0705,14.0235416 C4.00613218,13.9598913 3.98859195,13.7864333 3.98859195,13.7864333 Z"/>
      <path fill="#4F2E0E" stroke="#000" stroke-width=".02" d="M3.98859195,14.2547659 C3.87743678,14.2258629 3.83648276,14.110211 3.8306092,14.0004032 C3.82477586,13.890516 3.9183908,13.7980024 3.98859195,13.7864333 C4.04121264,13.8558483 4.14653448,13.8847911 4.24014943,13.9020852 C4.33376437,13.9194191 5.53317816,13.9309882 5.67354023,13.9194191 C5.81394253,13.9078499 5.84906322,13.8269452 5.87251724,13.7923172 C5.97200575,13.8269452 6.01287931,13.9309882 6.01875287,14.0292665 C6.02462644,14.1276641 5.97779885,14.2201379 5.87835057,14.2548057 C5.7789023,14.2894734 5.2522931,14.3704576 4.88958046,14.3646531 C4.52682759,14.3588487 3.98859195,14.2547659 3.98859195,14.2547659 Z"/>
      <path fill="#9E5613" stroke="#000" stroke-width=".02" d="M8.35325287,12.3814353 C8.35325287,12.3814353 8.03728736,12.5664227 7.63358046,12.427712 C7.37031609,12.3930045 7.30011494,12.3930045 7.30590805,12.5202256 C7.31178161,12.6474069 7.3469023,12.9943627 7.22404023,13.1388779 C7.10113793,13.2834329 6.9724023,13.6592519 7.15963218,13.8327099 C7.34686207,14.0061282 10.0557011,13.9888341 10.1610632,13.9598913 C10.2663046,13.9309485 10.3307529,13.7459213 10.3307529,13.7459213 C10.3307529,13.7459213 10.3657931,13.3527684 10.3541264,13.1446426 C10.3423793,12.9365168 10.049908,12.5548933 9.55254598,12.5722669 C9.05526437,12.5896406 8.85049425,12.9365168 8.62814368,12.9827538 C8.44091379,12.8093355 8.37071264,12.6069744 8.37071264,12.5664227 C8.37075287,12.5259903 8.35325287,12.3814353 8.35325287,12.3814353 Z"/>
      <path fill="#4F2E0E" stroke="#000" stroke-width=".02" d="M7.74767241 13.0145193C7.9231954 13.0145193 8.04895402 12.9364771 8.06363793 12.7572146 8.07820115 12.5779919 8.0343908 12.4797136 7.90561494 12.4710467 7.77695977 12.4623797 7.61893678 12.4363391 7.5429023 12.3872398 7.46682759 12.3380609 7.45805747 12.2484495 7.49024138 12.2108398 7.52242529 12.1732698 7.57798276 12.138602 7.57798276 12.138602L7.55750575 12.0836982C7.55750575 12.0836982 7.2678908 12.1935456 7.29424138 12.4999497 7.32055172 12.8063935 7.4755977 13.0145193 7.74767241 13.0145193zM8.06657471 12.4710864C8.18116707 12.5086564 8.20549047 12.5809736 8.18819171 12.6590158 8.17079737 12.7370183 8.13256806 12.9625972 8.33059589 12.9538905 8.5287193 12.9451838 8.58080673 12.6243083 8.56346018 12.4768909 8.54601806 12.3293939 8.43137791 12.1877809 8.37929048 12.1530734 8.37231363 12.176172 8.36887299 12.1964479 8.36887299 12.1964479 8.36887299 12.1964479 8.40824918 12.2195465 8.40944385 12.2773923 8.41049515 12.3351984 8.29236658 12.4450061 8.06657471 12.4710864z"/>
      <path stroke="#000" stroke-width=".02" d="M9.00019884,12.9827538 C8.64998519,13.1755335 8.31469765,13.7923172 8.61934739,13.9617996"/>
      <path fill="#4F2E0E" stroke="#000" stroke-width=".02" d="M7.15967241,13.8327099 C7.15967241,13.8327099 7.02506322,13.9136544 7.03681034,14.0407959 C7.04851724,14.168017 7.14796552,14.1969598 7.29424138,14.2316673 C7.44051724,14.2663351 8.82712069,14.3068073 9.07867816,14.3183765 C9.33023563,14.3299456 10.1903103,14.2663351 10.3365862,14.208529 C10.4828621,14.1506832 10.6115977,13.8962807 10.3307529,13.7459213 C10.2195172,13.8673777 10.1318161,13.890516 9.95041954,13.9136544 C9.76906322,13.9367927 8.92065517,13.9425574 8.56964943,13.9309882 C8.21864368,13.9194191 7.37031609,13.9078499 7.28249425,13.9020852 C7.1947931,13.8962807 7.15967241,13.8327099 7.15967241,13.8327099 Z"/>
      <path fill="#F9C89A" stroke="#000" stroke-width=".02" d="M6.53952874 3.35593347C6.49853448 3.40217039 6.30551149 3.62190507 6.39908621 3.80689249 6.49270115 3.99195943 7.02510345 4.80140365 7.02510345 4.80140365 7.02510345 4.80140365 8.20110345 4.21165436 8.16606322 3.93411359 8.13086207 3.65657282 7.89105172 3.32703043 7.89105172 3.32703043L6.53952874 3.35593347zM9.43165517 7.64427635C9.47071839 7.59437571 9.55640805 7.34971321 9.32633333 7.25979935 9.14304598 7.22982807 9.01040805 7.33972278 8.97142529 7.39467014 8.93244253 7.449566 9.0532931 7.74418064 9.12739655 7.75411957 9.20158046 7.76411 9.43165517 7.64427635 9.43165517 7.64427635z"/>
      <path fill="#F9C89A" stroke="#000" stroke-width=".02" d="M9.5916092,7.82692817 C9.62672989,7.76613466 9.70083333,7.61173846 9.52921264,7.50882374 C9.35751149,7.40595728 9.12739655,7.51355213 9.0689023,7.62109873 C9.01044828,7.72869358 9.16641954,7.96728396 9.19767816,7.96728396 C9.22889655,7.96728396 9.5916092,7.82692817 9.5916092,7.82692817 Z"/>
      <path fill="#F9C89A" stroke="#000" stroke-width=".02" d="M9.20741379,6.83081866 L8.99093678,7.20667748 C8.99093678,7.20667748 9.11182759,7.36280162 9.15861494,7.55935822 C9.2054023,7.75595456 9.12739655,7.82532982 9.1936954,7.81376065 C9.26003448,7.80219148 9.64620115,7.69814848 9.7203046,7.74434564 C9.79436782,7.79062231 9.89582759,7.97950588 9.82562644,8.10668722 C9.75538506,8.23390832 9.55258621,8.49598377 9.26783908,8.56539878 C8.98313218,8.63477404 8.63993103,8.50755294 8.51115517,8.33023854 C8.38241954,8.15296389 8.17966092,7.5824568 8.17177586,7.48223043 C8.16401149,7.38200406 8.30051149,7.07750832 8.30051149,7.07750832 L8.83098276,6.84238783 L9.20741379,6.83081866 Z"/>
      <path fill="#F9C89A" stroke="#000" stroke-width=".02" d="M8.93244253,7.17773469 C9.07352726,7.23168438 9.29944916,7.3511927 9.35581318,7.55550183 C9.41229365,7.75981095 9.37794844,7.98234363 9.18603129,8.09028278"/>
      <path fill="#F9C89A" stroke="#000" stroke-width=".02" d="M9.54710315,8.13201464 C9.49391261,8.16490525 9.50966092,8.21852252 9.29121264,8.18763164 C9.0728046,8.15678053 9.08841379,7.88699229 9.1936954,7.81376065 C9.29905747,7.74048925 9.4666954,7.68272292 9.57994253,7.70196511 C9.69306897,7.72124706 9.74758046,7.77134037 9.74758046,7.77134037"/>
      <path fill="#F9C89A" stroke="#000" stroke-width=".02" d="M9.45215096,7.86771034 L9.69850062,8.29865522 C9.69850062,8.29865522 9.5431789,8.41928068 9.36074648,8.3416786 C9.17831406,8.26416541 9.17821993,8.13482861 9.22378097,8.02282561 C9.26962441,7.91082261 9.45215096,7.86771034 9.45215096,7.86771034 Z"/>
      <path fill="#009CE3" stroke="#000" stroke-width=".02" d="M8.50725287,3.69704503 C8.50725287,3.69704503 8.94028736,3.92254442 9.01048851,4.20008519 C9.22109195,4.26946045 9.46878736,4.57491034 9.44541379,4.79850142 C9.67162644,4.89101501 9.77204023,5.0206215 9.77204023,5.16708479 C9.89691379,5.27502394 10.0835805,5.55184909 9.85736782,5.95271481 C9.63115517,6.35358053 9.49823563,6.63076349 9.49823563,6.63076349 L8.59326437,6.55347667 L8.51521839,6.28352941 L8.93646552,5.51256957 C8.93646552,5.51256957 8.74923563,5.21193022 8.53074713,5.20417769 C8.4761954,5.43544178 8.42156322,5.76693225 8.42156322,5.76693225 L8.44493678,7.03894442 L8.32794828,7.10831968 L8.30453448,7.39357323 L8.59318391,7.9871789 L8.69460345,8.07969249 L8.42932759,8.48831075 L8.4918046,8.60396268 L8.85061494,9.47510913 L8.84281034,9.58304828 L9.05349425,9.85283651 L9.04564943,9.96844868 L9.16267816,10.2537022 L8.93642529,10.7625071 L8.79598276,11.0400081 L8.92862069,11.4408738 C8.92862069,11.4408738 8.56200575,11.7724041 7.95348851,11.7646913 C7.34509195,11.7570183 6.9316092,11.4485866 6.9316092,11.4485866 L6.81462069,11.3792511 C6.81462069,11.3792511 6.94725862,10.6237963 6.91604023,10.1997525 C6.88482184,9.77574848 6.79116667,9.13586613 6.79116667,8.98940284 C6.79116667,8.84293955 6.75218391,8.42664828 6.75218391,8.42664828 C6.75218391,8.42664828 6.69751149,9.31322028 6.6897069,9.76032292 C6.68194253,10.2074653 6.61950575,10.8164568 6.54154023,10.9397817 C6.46349425,11.0631862 6.37772414,11.1016706 6.37772414,11.1016706 L6.46349425,11.2482134 L6.48690805,11.4254483 L6.3932931,11.54114 L6.22163218,11.4948235 C6.22163218,11.4948235 5.88623563,11.8803432 5.27775862,11.8110077 C4.66928161,11.7415927 4.29486207,11.4409533 4.25583908,11.1942239 C4.11543678,11.0939976 4.09982759,11.0246223 4.09982759,11.0246223 L4.49770115,10.5697671 L4.27144828,10.4387294 L4.45867816,10.1071992 C4.45867816,10.1071992 4.59131609,9.78338174 4.61468966,9.67548235 C4.63806322,9.56750345 4.7083046,9.30546775 4.7083046,9.30546775 L4.51327011,9.31314077 L4.8330977,8.81980122 L4.80972414,8.48055822 L5.39474713,7.25482272 L5.37133333,7.05436998 L5.29284483,6.94643083 L5.229,6.51857039 L5.26999425,6.28726653 C5.26999425,6.28726653 5.47231034,6.04447302 5.49572414,5.84402028 C5.51913793,5.64356755 5.39848851,5.44315456 5.39848851,5.44315456 L4.03143678,6.32968682 L3.83551724,6.34511237 L3.27338506,6.59180203 L3.14050575,6.53781258 C3.14050575,6.53781258 3.0935977,6.4607643 3.07798851,6.33739959 C3.06241954,6.21399513 3.07794828,5.6589931 3.12473563,5.58190507 C3.17156322,5.50481704 3.2807069,5.50481704 3.2807069,5.50481704 C3.2807069,5.50481704 3.46013218,5.47400568 3.60057471,5.38145233 C3.74101724,5.28893874 4.60688506,4.65676917 4.81748851,4.49488032 C5.02813218,4.33299148 5.7614023,3.70857444 5.7614023,3.70857444 C5.7614023,3.70857444 6.01102874,3.51583448 6.15143103,3.46959757 C6.29183333,3.42332089 6.38536782,3.43099391 6.38536782,3.43099391 L6.39321264,4.0940146 L7.02506322,4.80132414 L7.71158621,4.39465396 L8.25766667,3.89356187 L8.50725287,3.69704503 Z"/>
      <path fill="#009CE3" stroke="#000" stroke-width=".02" d="M6.4342069,3.37903205 L6.34059195,3.43687789 L5.93684483,4.10176714 L6.37571264,4.14227911 L6.21772989,4.44291846 L7.04851724,4.87654361 L7.11867816,4.79559919 C7.11867816,4.79559919 6.65651724,4.2347927 6.51607471,4.06133469 C6.37567241,3.88787667 6.33467816,3.50048844 6.49266092,3.39640568 C6.65064368,3.29232292 6.4342069,3.37903205 6.4342069,3.37903205"/>
      <path fill="#009CE3" stroke="#000" stroke-width=".02" d="M6.80858621,4.96619473 L8.0635977,4.7595002 L7.91583333,4.23117485 L8.45266092,4.29840325 L8.49948851,3.68547586 L7.94367241,3.33279513 L7.89101149,3.32703043 C7.89101149,3.32703043 8.02562069,3.50048844 8.03137356,3.71441866 C8.03724713,3.92830913 7.83835057,4.09023773 7.67453448,4.22898824 C7.51071839,4.36773874 6.80858621,4.96619473 6.80858621,4.96619473 Z"/>
      <polygon fill="#009CE3" stroke="#000" stroke-width=".02" points="8.511 5.119 8.599 5.559 7.821 6.05 7.68 5.391"/>
      <polyline fill="#009CE3" stroke="#000" stroke-width=".02" points="6.816 4.981 6.854 6.777 6.681 7.286 6.672 7.779 6.643 8.265 6.778 8.427 7.143 8.357"/>
      <polygon fill="#009CE3" stroke="#000" stroke-width=".02" points="7.134 7.178 7.166 7.537 7.634 7.678 7.603 7.242"/>
      <polyline fill="#009CE3" stroke="#000" stroke-width=".02" points="8.422 7.108 7.922 7.244 7.99 7.608 8.393 7.494"/>
      <polygon fill="#009CE3" stroke="#000" stroke-width=".02" points="6.672 7.174 6.69 7.624 6.19 7.561 6.247 7.124"/>
      <polyline fill="#009CE3" stroke="#000" stroke-width=".02" points="5.371 7.054 5.878 7.08 5.855 7.554 5.395 7.439"/>
      <polygon fill="#009CE3" stroke="#000" stroke-width=".02" points="5.395 5.443 6.245 6.098 6.502 5.474 5.59 5.096"/>
      <path fill="#009CE3" stroke="#000" stroke-width=".02" d="M9.50579885 6.82505396C9.50579885 6.82505396 9.50579885 6.57641623 9.58187356 6.47813793 9.39464368 6.39715375 8.94414943 6.21797079 8.69842529 6.24687383 8.58139655 6.38562434 8.3728046 6.79034645 8.44489655 7.03898418 8.71592529 6.94647059 9.50579885 6.82505396 9.50579885 6.82505396zM3.59071839 5.35064097L3.85981609 5.73802921 4.02950575 6.17169412C4.02950575 6.17169412 3.92418391 6.31620933 3.8071954 6.36825071 3.69012644 6.42033185 3.27282184 6.59184178 3.27282184 6.59184178L3.14022414 6.53785233C3.14022414 6.53785233 3.26308621 6.46080406 3.28062644 6.02137444 3.29816667 5.58194483 3.18705172 5.52413874 3.18705172 5.52413874L3.45031609 5.42582069 3.59071839 5.35064097zM7.56337931 9.42684462C7.56337931 9.42684462 7.73302874 10.0107895 7.9787931 10.386688 8.10161494 10.3057834 8.95585632 10.2479375 9.1625977 10.2537022"/>
      <path stroke="#000" stroke-width=".02" d="M4.27136782,10.4387294 C4.42737931,10.4792016 5.08851724,10.5716755 5.08851724,10.5716755 C5.08851724,10.5716755 5.44543678,10.6584243 5.6385,10.5774799 C5.73794828,10.3577452 6.03633333,9.3401355 6.03633333,9.3401355 C6.03633333,9.3401355 5.74965517,9.01055335 5.49222414,8.95855172 C5.2347931,8.90647059 4.83112644,8.76772008 4.83112644,8.76772008"/>
      <path fill="#009CE3" stroke="#000" stroke-width=".02" d="M4.70822414,9.30898601 C4.84862644,9.27882251 5.54484483,9.30898601 5.94271839,9.80078234"/>
      <path stroke="#000" stroke-width=".02" d="M4.49758046,10.5697671 L4.99758046,11.0697671"/>
      <path fill="#009CE3" stroke="#000" stroke-width=".02" d="M4.28110345,11.1903675 C4.54436782,11.4700728 5.2347931,12.0297237 6.16502874,11.4089981"/>
      <path stroke="#000" stroke-width=".02" d="M7.02493595,11.329163 C7.34665434,11.6536772 8.07816092,11.9829418 8.49365517,11.3927684"/>
      <path fill="#009CE3" stroke="#000" stroke-width=".02" d="M8.32983908,11.402004 C8.74517241,11.5684979 9.34789655,11.5974663 9.41805747,11.4164385 C9.48825862,11.2354604 8.7959023,11.0400479 8.7959023,11.0400479"/>
      <path fill="#009CE3" stroke="#000" stroke-width=".02" d="M8.01387356 11.1868752C8.52282184 11.2874844 9.09625862 11.155894 9.09625862 10.9236411 9.09625862 10.6914414 8.31225862 10.7224226 8.31225862 10.7224226M8.47020115 8.58849736C8.63993103 8.79089817 8.76862644 8.98169006 8.9149023 9.02796673 8.56385632 9.08577282 7.72136207 9.25923083 7.59262644 9.40370629 7.53417241 9.27076024 7.48734483 9.20138499 7.41131034 9.14934361 7.56337931 8.94698256 8.47020115 8.58849736 8.47020115 8.58849736z"/>
      <path fill="#F9C89A" stroke="#000" stroke-width=".02" d="M3.22213218,5.63394645 C3.01148851,5.61080811 2.57853448,5.52409899 2.42059195,5.11937688 C2.32114368,4.91701582 2.15732759,4.88234807 2.08125287,4.83026694 C1.98176437,4.74355781 1.84136207,4.67994726 1.64242529,4.7088503 C1.44348851,4.73775335 1.12756322,4.69147667 0.928626437,4.5758645 C0.729729885,4.46021258 0.519086207,4.53539229 0.448885057,4.63371034 C0.378683908,4.73198864 0.372810345,4.87073915 0.443011494,4.94591886 C0.513212644,5.02109858 0.56004023,5.06737525 0.56004023,5.06737525 C0.56004023,5.06737525 0.285068966,5.10784746 0.261655172,5.31020852 C0.238241379,5.51256957 0.384517241,5.61084787 0.478091954,5.65135984 C0.571706897,5.69183205 0.653614943,5.69763651 0.653614943,5.69763651 C0.653614943,5.69763651 0.548333333,5.83638702 0.624367816,5.96933306 C0.700402299,6.10235862 0.887672414,6.16016471 0.887672414,6.16016471 C0.887672414,6.16016471 0.975413793,6.28158134 1.06902874,6.29891521 C1.16264368,6.31624909 1.73016667,6.34519189 1.73016667,6.34519189 C1.73016667,6.34519189 1.96414368,6.25848276 2.09875287,6.24691359 C2.23332184,6.23530467 2.54924713,6.22953996 2.65456897,6.27581663 C2.7598908,6.32205355 3.22209195,6.33362272 3.22209195,6.33362272 C3.22209195,6.33362272 3.28058621,6.08498499 3.27475287,5.95199919 C3.26891954,5.81901339 3.22213218,5.63394645 3.22213218,5.63394645 Z"/>
      <path fill="url(#zookeeper-blue-a)" d="M2.37577586,11.7877899 C2.05594828,11.8186012 0.355350575,11.7646515 0.0121091954,11.5641988 C0.0355229885,12.7205988 0.363155172,13.7458815 0.573758621,13.9694726 C0.784362069,14.1930637 1.43966667,14.3857639 2.11838506,14.3857639 C2.79702299,14.3857639 3.21312069,14.1843172 3.03888506,13.9155229 C2.52398276,13.1214645 2.37577586,11.7877899 2.37577586,11.7877899 Z"/>
      <path fill="url(#zookeeper-blue-b)" stroke="#000" stroke-width=".02" d="M1.62931034,13.2140178 L1.62931034,2.92210953 L1.12760345,2.92210953 C1.12760345,2.92210953 1.1401954,11.3290783 1.1401954,11.7685079 C1.1401954,12.2079375 1.15282759,12.5316755 1.20331609,12.7167822 C1.2538046,12.9017696 1.41625287,13.1446426 1.49204598,13.1793103 C1.56787931,13.2139781 1.62931034,13.2140178 1.62931034,13.2140178 Z"/>
      <path fill="url(#zookeeper-blue-c)" d="M1.66207961,11.9667343 L1.16658621,11.9667343 C1.16658621,11.9667343 1.16658621,12.5980292 1.22963211,12.6905826 C1.315211,12.6944787 1.66658621,12.700641 1.66658621,12.700641 L1.66207961,11.9667343 Z"/>
      <path fill="#F9C89A" stroke="#000" stroke-width=".02" d="M1.08552877,5.28516187 C1.08552877,5.28516187 0.844129135,5.62666518 0.858763987,5.73450508 C0.87339884,5.84240678 1.3269284,5.76453958 1.35612267,5.62666518 C1.38531694,5.48885259 1.08552877,5.28516187 1.08552877,5.28516187 Z"/>
      <path fill="#F9C89A" stroke="#000" stroke-width=".02" d="M1.10414943,6.31048438 C1.20951149,6.31624909 1.40253448,6.32785801 1.47277586,6.23526491 C1.54297701,6.14279108 1.71262644,6.05604219 1.71262644,5.95199919 C1.71262644,5.84795619 1.68337931,5.79011034 1.5780977,5.70916592 C1.47277586,5.6282215 0.957913793,5.82485761 0.928626437,5.87681947 C0.89937931,5.92890061 0.858425287,6.07341582 0.876005747,6.11388803 C0.893545977,6.15432049 0.928626437,6.22953996 0.981287356,6.26420771 C1.03394828,6.29891521 1.10414943,6.31048438 1.10414943,6.31048438 Z"/>
      <path fill="#F9C89A" stroke="#000" stroke-width=".02" d="M1.39674138,5.96072576 L1.58114433,6.10034853 C1.58114433,6.11801578 1.81394622,5.96851296 1.66668701,5.8126718 C1.5194278,5.65683064 1.39674138,5.89731508 1.39674138,5.89731508 L1.39674138,5.96072576 Z"/>
      <path fill="#F9C89A" stroke="#000" stroke-width=".02" d="M.807735632 6.13313022C.877936782 6.15241217.870212644 6.19868884 1.0495977 6.15241217 1.22898276 6.10617525 1.43182184 5.95195943 1.49035632 5.81320892 1.54885057 5.67441866 1.22125862 5.44701095 1.08471839 5.47786207.948137931 5.50867343.71416092 5.62046897.653695402 5.697557.593270115 5.77460527.581563218 5.92492495.620545977 5.98277079.659528736 6.04061663.807735632 6.13313022.807735632 6.13313022zM1.44348851 5.0577144C1.40060345 4.99605193 1.35771839 4.87268722 1.30308621 4.83797972 1.24849425 4.80327221 1.0691092 4.6645217 1.01447701 4.62985396.959844828 4.59514645.792126437 4.46796511.647821839 4.50648925.503517241 4.54501339.37091954 4.62599757.390390805 4.81869777.409862069 5.01143773.534695402 5.03071968.600994253 5.09623854.667293103 5.1617574.760948276 5.25431075.81554023 5.28512211.870132184 5.31597323 1.02614368 5.38920487 1.14317241 5.40077404 1.26020115 5.4123432 1.37324713 5.33907181 1.41621264 5.26584016 1.45913793 5.19264828 1.44348851 5.0577144 1.44348851 5.0577144z"/>
      <path fill="#F9C89A" stroke="#000" stroke-width=".02" d="M1.31748372,4.94210223 L1.01451724,5.40493127 C1.01451724,5.40493127 1.34518212,5.51796749 1.46602554,5.34980551 C1.63233845,5.11839099 1.31748372,4.94210223 1.31748372,4.94210223 Z"/>
      <path fill="#F9C89A" stroke="#000" stroke-width=".02" d="M1.7302069,4.76669615 C1.55464368,4.81873753 1.11585632,5.21765517 1.02811494,5.43162515 C0.940333333,5.64555538 0.96962069,5.83058256 1.14514368,5.89995781 C1.32066667,5.96933306 1.5780977,5.81324868 1.64829885,5.68606734 C1.7185,5.55884625 1.82965517,5.14835943 1.82965517,5.14835943"/>
      <path fill="#F9C89A" stroke="#000" stroke-width=".02" d="M1.08875656 5.43374284L1.53714368 5.74217996C1.53714368 5.74217996 1.44634153 5.84548677 1.32549095 5.8662805 1.20460015 5.88702077 1.04734039 5.79738726 1.03014374 5.6763317 1.01294708 5.55527613 1.08875656 5.43374284 1.08875656 5.43374284zM1.74388506 5.44319432C1.79649092 5.56646361 2.08601318 5.92263767 2.24388506 5.94319432M2.1129055 6.20022987C2.23317528 6.14800657 2.26885033 6.1107127 2.35344505 6.02119554"/>
      <path fill="#000" d="M7.25756322 5.54847221C7.11396918 5.54847221 6.99756322 5.43206625 6.99756322 5.28847221 6.99756322 5.14487818 7.11396918 5.02847221 7.25756322 5.02847221 7.40115725 5.02847221 7.51756322 5.14487818 7.51756322 5.28847221 7.51756322 5.43206625 7.40115725 5.54847221 7.25756322 5.54847221zM7.25756322 5.52847221C7.39011156 5.52847221 7.49756322 5.42102055 7.49756322 5.28847221 7.49756322 5.15592387 7.39011156 5.04847221 7.25756322 5.04847221 7.12501488 5.04847221 7.01756322 5.15592387 7.01756322 5.28847221 7.01756322 5.42102055 7.12501488 5.52847221 7.25756322 5.52847221zM7.21077586 6.38105477C7.06718183 6.38105477 6.95077586 6.2646488 6.95077586 6.12105477 6.95077586 5.97746073 7.06718183 5.86105477 7.21077586 5.86105477 7.3543699 5.86105477 7.47077586 5.97746073 7.47077586 6.12105477 7.47077586 6.2646488 7.3543699 6.38105477 7.21077586 6.38105477zM7.21077586 6.36105477C7.3433242 6.36105477 7.45077586 6.25360311 7.45077586 6.12105477 7.45077586 5.98850643 7.3433242 5.88105477 7.21077586 5.88105477 7.07822752 5.88105477 6.97077586 5.98850643 6.97077586 6.12105477 6.97077586 6.25360311 7.07822752 6.36105477 7.21077586 6.36105477zM7.16390805 7.21359757C7.02031401 7.21359757 6.90390805 7.0971916 6.90390805 6.95359757 6.90390805 6.81000353 7.02031401 6.69359757 7.16390805 6.69359757 7.30750208 6.69359757 7.42390805 6.81000353 7.42390805 6.95359757 7.42390805 7.0971916 7.30750208 7.21359757 7.16390805 7.21359757zM7.16390805 7.19359757C7.29645639 7.19359757 7.40390805 7.08614591 7.40390805 6.95359757 7.40390805 6.82104923 7.29645639 6.71359757 7.16390805 6.71359757 7.03135971 6.71359757 6.92390805 6.82104923 6.92390805 6.95359757 6.92390805 7.08614591 7.03135971 7.19359757 7.16390805 7.19359757z"/>
      <path fill="#F9C89A" stroke="#000" stroke-width=".02" d="M5.97582759,1.84685274 L5.84713218,1.81214523 C5.84713218,1.81214523 5.77693103,1.82757079 5.7846954,1.86231805 C5.79254023,1.8969858 5.84322989,1.93940609 5.83928736,2.00106856 C5.83546552,2.06273103 5.82758046,2.18219959 5.87448851,2.25932738 C5.92123563,2.33641542 6.0344023,2.45206734 6.09289655,2.4828787 C6.1513908,2.51369006 6.167,2.46745314 6.167,2.46745314 C6.167,2.46745314 6.22155172,3.02249493 6.23724138,3.08034077 C6.25285057,3.13814686 6.33475862,3.28079351 6.46735632,3.39258905 C6.59995402,3.50438458 6.82624713,3.75874726 6.93152874,3.83583529 C7.03685057,3.91292333 7.38395402,3.97848195 7.53220115,3.82812252 C7.68040805,3.67780284 8.00027586,3.33088682 8.03535632,3.28075375 C8.07047701,3.23066045 8.17185632,3.11115213 8.16799425,3.06487546 C8.16409195,3.01859878 8.14852299,2.52521947 8.14852299,2.50593753 C8.17189655,2.5136503 8.22258621,2.48669533 8.2499023,2.463557 C8.27729885,2.44041866 8.44883908,2.25539148 8.44497701,2.17444706 C8.44111494,2.09350264 8.39034483,1.86995132 8.40989655,1.85452576 C8.42936782,1.8391002 8.45664368,1.77743773 8.42160345,1.76201217 C8.38648276,1.74654686 8.17974138,1.89690629 8.17974138,1.89690629 C8.17974138,1.89690629 8.13782184,1.36981339 7.9458046,1.23392535 C7.75366667,1.09807708 6.19829885,1.00266126 6.10472414,1.12598621 C6.01098851,1.24943043 5.97582759,1.84685274 5.97582759,1.84685274 Z"/>
      <polygon fill="#000" points="6.254 2.487 6.208 2.388 6.141 2.123 5.938 1.831 5.914 1.407 5.914 1.326 6.477 1.145 6.314 1.388 6.19 1.77 6.184 1.947 6.236 2.04 6.236 2.298"/>
      <path fill="#161616" stroke="#000" stroke-width=".02" d="M8.30055172,1.60978418 C8.70425862,1.86995132 8.17768966,1.79481136 7.74477586,1.65025639 C7.31178161,1.50570142 6.44591379,1.25706369 6.24693678,1.25129899 C6.04808046,1.24549452 7.56341954,1.1298426 7.79739655,1.20502231 C8.03141379,1.28020203 8.30055172,1.60978418 8.30055172,1.60978418 Z"/>
      <path fill="url(#zookeeper-blue-d)" stroke="#000" stroke-width=".02" d="M5.81595402,1.20315375 C5.31670115,0.964176876 5.31670115,0.655824746 5.84717241,0.32433428 C6.37764368,-0.00715618661 7.34497126,-0.0225817444 7.79735632,0.100743205 C8.24982184,0.224107911 8.95187356,0.663497769 8.86610345,1.09525436 C8.78033333,1.42670507 8.39022414,1.51154564 8.39022414,1.51154564 L5.81595402,1.20315375 Z"/>
      <path fill="#03468B" stroke="#000" stroke-width=".02" d="M5.86085057,1.36695091 C5.86085057,1.36695091 5.82564943,1.18772819 5.80227586,1.10678377 C6.52194828,0.684688032 7.85001724,0.673118864 8.44678736,1.39008925 C8.4292069,1.44209087 8.35321264,1.56931197 8.30051149,1.60978418 C7.27670115,0.858146045 5.86085057,1.36695091 5.86085057,1.36695091 Z"/>
      <polygon fill="#FFF" points="7.189 1.106 7.177 1.185 6.697 1.139 7.049 .783 6.809 .77 6.814 .685 7.253 .744 6.92 1.066"/>
      <path fill="#FFF" d="M7.63031856.802551628C7.7640666.888955971 7.80870379 1.02845489 7.76112349 1.14807762 7.71358408 1.26770034 7.54112595 1.27761559 7.46689415 1.2510683 7.39253972 1.22447532 7.22012247 1.0982272 7.30044487.898871223 7.35391139.782629738 7.49657052.716147285 7.63031856.802551628zM7.38751191.952788265C7.33825567 1.07510684 7.44404416 1.15255547 7.48966238 1.16886766 7.53523973 1.18517985 7.64098734 1.17901138 7.67017319 1.10572075 7.69935904 1.03233875 7.67205351.946711174 7.58989166.893662289 7.50789332.840659096 7.42029489.881416724 7.38751191.952788265zM8.11899092.929248434C8.26399665.996996159 8.33341838 1.13058977 8.31045433 1.25716771 8.28744213 1.38370339 8.12361261 1.41793649 8.04701762 1.40174972 7.97051891 1.3855207 7.7807405 1.28324403 7.82007306 1.07218219 7.84948823.94809777 7.97393704.861416183 8.11899092.929248434zM7.9140957 1.11389585C7.88983179 1.24343221 8.00643335 1.30619289 8.05322803 1.31616698 8.1003597 1.32605654 8.20068903 1.30509405 8.21484298 1.22749903 8.22894878 1.14981947 8.18639066 1.06787135 8.097423 1.02619995 8.00850348.984613075 7.93205292 1.03773777 7.9140957 1.11389585z"/>
      <polygon fill="#000" points="8.061 2.483 8.197 2.39 8.253 2.067 8.51 1.847 8.532 1.72 8.077 1.689 8.185 1.959 8.032 2.155 8.061 2.371"/>
      <path stroke="#000" stroke-width=".02" d="M7.95344828 2.27868981C7.91442529 2.20219155 7.89351783 1.98742469 7.84673047 1.98742469 7.79990289 1.98742469 7.70994807 1.94679675 7.65149404 1.95939337 7.59295956 1.97225243 7.47273673 1.98594947 7.45708731 2.03686083M6.94229924 2.04224036C6.90331648 2.04224036 6.90331648 2.00753003 6.81559866 2.00753003 6.72788084 2.00753003 6.64633353 1.96156277 6.64633353 1.96156277L6.47129885 1.92008438 6.35036782 2.3380206M6.951 2.14749209C7.02101444 2.16291765 7.18104743 2.24771846 7.17114848 2.29395538 7.16094019 2.34023205 6.99100825 2.7834783 7.01101237 2.79504746 7.0310165 2.80661663 7.40088657 2.82971521 7.451 2.81432941M7.57948132 2.88782372C7.71275297 2.84588548 7.68885632 3.01531704 7.68885632 3.05456265M6.92833333 2.59516095C6.85249762 1.94967204 6.54432007 1.94967204 6.42833333 2.61328642M7.36838506 2.58259511C7.39952299 2.00127231 7.79349425 1.88228174 7.87926437 2.46374083"/>
      <path fill="#000" d="M6.66389308 2.46327387C6.72257637 2.46327387 6.7781589 2.4051614 6.7781589 2.33671359 6.7781589 2.26826578 6.68964681 2.2255628 6.66389308 2.2255628 6.63813935 2.2255628 6.53365517 2.24944323 6.53365517 2.33671359 6.53365517 2.42398395 6.6052098 2.46327387 6.66389308 2.46327387zM7.70022126 2.39926816C7.74995059 2.39926816 7.7740116 2.35112894 7.7740116 2.29433306 7.7740116 2.23753718 7.7740116 2.19551582 7.70022126 2.19551582 7.62643093 2.19551582 7.57595769 2.23116633 7.57595769 2.29699091 7.57595769 2.36281549 7.65049194 2.39926816 7.70022126 2.39926816z"/>
      <path fill="#D8D8D8" stroke="#000" stroke-width=".02" d="M6.71304023,3.11537864 C6.90031034,3.68168204 7.45805747,3.6631053 7.58582759,3.02249493 C7.5429023,3.05036004 7.47511494,3.11068658 7.47511494,3.11068658 C7.47511494,3.11068658 7.24347126,3.13395539 7.19278161,3.19897399 C7.15774138,3.19897399 7.11091379,3.21745498 7.11091379,3.21745498 C7.11091379,3.21745498 6.88075862,3.143148 6.84563793,3.19897399 C6.8105977,3.25460846 6.71304023,3.11537864 6.71304023,3.11537864 Z"/>
      <path stroke="#000" stroke-width=".02" d="M7.48524674,3.53047773 C7.42515577,3.65712457 7.02582316,3.76208843 6.92040041,3.53047773"/>
      <path fill="#FCFCFC" d="M7.5922699 2.23703856L7.70711899 2.28239397C7.70711899 2.28239397 7.5922699 2.3397303 7.5922699 2.3397303 7.5922699 2.3397303 7.57154377 2.29164921 7.5922699 2.23703856zM6.55096436 2.27726817C6.63709005 2.31218926 6.68015289 2.3296498 6.68015289 2.3296498 6.68015289 2.3296498 6.61142561 2.35123578 6.55096436 2.38203143 6.55096436 2.38203143 6.53063011 2.34787122 6.55096436 2.27726817z"/>
      <path stroke="#000" stroke-width=".02" d="M8.25269087 2.1098845C8.1929932 2.19961547 8.22808822 2.37818368 8.21644379 2.40480268M8.3613284 2.28562637C8.38635739 2.24578772 8.38635739 2.0385336 8.23324713 2.0694499M5.89593103 1.91332576C5.95850471 1.95383773 6.13037462 2.04774401 6.14275183 2.09692291 6.1553869 2.14606206 6.16223591 2.21169188 6.18716223 2.25502657 6.21217451 2.29840101 6.0983674 2.30213505 6.21451585 2.36860807M6.11534691 2.41526803C6.03744446 2.28956142 6.00400648 2.21780117 6.11534691 2.14078567"/>
    </g>
  </g>
</svg>
