<svg xmlns="http://www.w3.org/2000/svg" width="24" height="26" viewBox="0 0 24 26">
  <g fill="none">
    <path fill="#FFF" d="M24,8.35849057 C24,7.00360233 23.2489919,5.75103803 22.0982566,5.10813769 L13.8811156,0.468825215 C12.7635724,-0.155542759 11.2364275,-0.155542759 10.122796,0.466628283 L1.89783171,5.11033465 C0.697367869,5.69522678 0,6.93102124 0,8.35849057 L0,0 L24,0 L24,8.35849057 Z M24,17.6415094 L24,26 L0,26 L0,17.6415094 C0,18.9963977 0.751008125,20.248962 1.90174341,20.8918623 L10.1188844,25.5311748 C10.7676658,25.8502877 11.3801731,26 12,26 C12.6845044,26 13.4279375,25.8289751 13.9355222,25.4981309 L22.1021683,20.8896654 C23.2765143,20.0751264 24,18.8684652 24,17.6415094 Z"/>
    <path fill="#0ABF5B" d="M23,8.35849057 C23,7.33962265 22.4210527,6.43396225 21.6105263,5.98113209 L13.3894737,1.33962265 C12.5789473,0.88679245 11.4210526,0.88679245 10.6105263,1.33962265 L2.38947367,5.98113209 C1.46315791,6.43396229 1,7.33962265 1,8.35849057 L1,17.6415094 C1,18.6603774 1.57894735,19.5660378 2.38947367,20.018868 L10.6105263,24.6603774 C11.0736842,24.8867924 11.5368421,25 12,25 C12.4631579,25 13.0421053,24.8867924 13.3894737,24.6603774 L21.6105263,20.018868 C22.4210527,19.4528302 23,18.5471698 23,17.6415094 L23,8.35849057 Z M24,8.35849057 L24,17.6415094 C24,18.8684652 23.2765143,20.0751264 22.1021683,20.8896654 L13.9355222,25.4981309 C13.4279375,25.8289751 12.6845044,26 12,26 C11.3801731,26 10.7676658,25.8502877 10.1188844,25.5311748 L1.90174341,20.8918623 C0.751008125,20.248962 0,18.9963977 0,17.6415094 L0,8.35849057 C0,6.93102124 0.697367869,5.69522678 1.89783171,5.11033465 L10.122796,0.466628283 C11.2364275,-0.155542759 12.7635724,-0.155542759 13.8811156,0.468825215 L22.0982566,5.10813769 C23.2489919,5.75103803 24,7.00360233 24,8.35849057 Z"/>
    <g transform="translate(4 8.33)">
      <path fill="#0ABF5B" d="M13.6521739,4.07536232 C13.8724638,4.09855072 14.0985507,4.12173913 14.3188406,4.14492754 L14.8057971,2.93913043 L15.2695652,4.26086957 C15.5072464,4.28985507 15.7449275,4.32463768 15.9826087,4.35362319 L15.1652174,2.04057971 L15.9826087,0.0231884058 L15.2927536,0.0231884058 L15.2869565,0.0347826087 L14.8463768,1.12463768 L14.457971,0.0289855072 L13.773913,0.0289855072 L14.4811594,2.02898551 L13.6521739,4.07536232 Z M13.1362319,4.02898551 L13.1362319,0.0173913043 L12.4521739,0.0173913043 L12.4521739,3.97101449 C12.6782609,3.9884058 12.9101449,4.0057971 13.1362319,4.02898551 Z M8.0115942,3.80289855 C8.19710145,3.80289855 8.37681159,3.80289855 8.56231884,3.80289855 L8.56231884,2.33043478 L9.37971014,2.33043478 L9.37971014,1.70434783 L8.56231884,1.70434783 L8.56231884,0.649275362 L9.50724638,0.649275362 L9.50724638,0.0173913043 L7.87826087,0.0173913043 L7.87826087,3.80289855 C7.92463768,3.80289855 7.96521739,3.80289855 8.0115942,3.80289855 Z M5.89565217,3.84347826 C6.12173913,3.83768116 6.34782609,3.82608696 6.57971014,3.82028986 L6.57971014,0.649275362 L7.2173913,0.649275362 L7.2173913,0.0173913043 L5.25797101,0.0173913043 L5.25797101,0.643478261 L5.89565217,0.643478261 L5.89565217,3.84347826 Z M0.67826087,4.26666667 L0.67826087,1.87826087 L1.48405797,4.16811594 C1.73333333,4.13913043 1.9826087,4.11594203 2.23188406,4.08695652 L2.23188406,0.0173913043 L1.57681159,0.0173913043 L1.57681159,2.49275362 L0.707246377,0.0173913043 L0.0231884058,0.0173913043 L0.0231884058,4.34782609 L0.0289855072,4.34782609 C0.243478261,4.31884058 0.463768116,4.28985507 0.67826087,4.26666667 Z M4.59710145,0.649275362 L4.59710145,0.0173913043 L2.97391304,0.0173913043 L2.97391304,4.0173913 C3.51304348,3.97101449 4.05797101,3.93043478 4.60289855,3.90144928 L4.60289855,3.27536232 C4.28985507,3.29275362 3.97681159,3.31594203 3.65797101,3.33913043 L3.65797101,2.33623188 L4.47536232,2.33623188 L4.47536232,1.70434783 L3.65797101,1.70434783 L3.65797101,0.649275362 L4.59710145,0.649275362 Z M10.857971,3.24637681 L10.857971,0.0173913043 L10.173913,0.0173913043 L10.173913,3.84347826 C10.7188406,3.86086957 11.2637681,3.88985507 11.8028986,3.92463768 L11.8028986,3.29855072 C11.4898551,3.27536232 11.1768116,3.25797101 10.857971,3.24637681 Z"/>
      <g fill="#65717F" transform="translate(.116 5.391)">
        <polygon points="0 3.183 2.087 .754 .064 .754 .064 .023 3.159 .023 3.159 .655 1.072 3.084 3.159 3.084 3.159 3.814 0 3.814"/>
        <path d="M4.15652174 2.19130435L4.15652174.0231884058 4.99130435.0231884058 4.99130435 2.16811594C4.99130435 2.7884058 5.29855072 3.10724638 5.80869565 3.10724638 6.31884058 3.10724638 6.62608696 2.8 6.62608696 2.19710145L6.62608696.0231884058 7.46086957.0231884058 7.46086957 2.16231884C7.46086957 3.31014493 6.8173913 3.87246377 5.79710145 3.87246377 4.7826087 3.87826087 4.15652174 3.30434783 4.15652174 2.19130435zM8.52753623 2.19130435L8.52753623.0231884058 9.36231884.0231884058 9.36231884 2.16811594C9.36231884 2.7884058 9.66956522 3.10724638 10.1797101 3.10724638 10.6898551 3.10724638 10.9971014 2.8 10.9971014 2.19710145L10.9971014.0231884058 11.8318841.0231884058 11.8318841 2.16231884C11.8318841 3.31014493 11.1884058 3.87246377 10.1681159 3.87246377 9.14782609 3.87246377 8.52753623 3.30434783 8.52753623 2.19130435z"/>
        <polygon points="12.957 .023 13.791 .023 13.791 3.055 15.681 3.055 15.681 3.814 12.957 3.814"/>
      </g>
    </g>
  </g>
</svg>
