<svg xmlns="http://www.w3.org/2000/svg" xmlns:xlink="http://www.w3.org/1999/xlink" width="20" height="20" viewBox="0 0 20 20">
  <defs>
    <polyline id="ant-a" points="0 11.351 0 0 18.325 0 18.325 11.351"/>
  </defs>
  <g fill="none">
    <path fill="#AE5E9A" d="M10,20 C4.4771525,20 0,15.5228475 0,10 C0,4.4771525 4.4771525,0 10,0 C15.5228475,0 20,4.4771525 20,10 C20,15.5228475 15.5228475,20 10,20 Z M10,19.1666667 C15.0626102,19.1666667 19.1666667,15.0626102 19.1666667,10 C19.1666667,4.93738979 15.0626102,0.833333333 10,0.833333333 C4.93738979,0.833333333 0.833333333,4.93738979 0.833333333,10 C0.833333333,15.0626102 4.93738979,19.1666667 10,19.1666667 Z"/>
    <g transform="matrix(1 0 0 -1 1.667 15.147)">
      <mask id="ant-b" fill="#fff">
        <use xlink:href="#ant-a"/>
      </mask>
      <g mask="url(#ant-b)">
        <g transform="translate(0 .33)">
          <path fill="#A81C7D" d="M18.2232589,4.23788733 C18.2232589,4.23788733 17.9876391,4.47640268 17.7830851,4.56844164 C17.5782829,4.66068742 17.5884589,4.75280912 17.4658093,4.76281965 C17.3429114,4.7731611 17.1180054,4.81411327 16.9338034,4.8958935 C16.7496014,4.9779633 16.2279783,5.19256919 16.0028242,5.31534296 C15.7776286,5.43819946 15.6341719,5.53032115 15.5728264,5.58157341 C15.5115223,5.63274293 15.4089764,5.62595894 15.2148466,5.5951414 C15.2148466,5.5951414 14.6622405,5.4688929 14.4678211,5.3770194 C14.2734431,5.28469088 13.8333108,5.03914335 13.7615411,4.9779633 C13.7615411,4.9779633 13.6805881,4.9779633 13.6503084,4.93924489 C13.64642,4.94185093 13.6427798,4.94474654 13.6388914,4.94702166 C13.5877632,4.9779633 13.2603114,5.29499097 13.2603114,5.29499097 C13.0964613,5.43819946 12.8201376,5.73487515 12.6463598,5.87837319 C12.4723338,6.02149895 11.7713899,6.24375752 11.4800504,6.21575286 C11.2071187,6.18994058 11.0786778,6.01144705 11.0081491,5.83754513 C10.9509401,5.93885003 10.8869472,6.04114771 10.8251467,6.11337244 C10.6513688,6.31817464 10.5999925,6.37960289 10.5999925,6.37960289 C10.5999925,6.37960289 10.4157491,6.37960289 10.2315471,6.25682912 C10.1200662,6.18245337 9.96349654,6.01409446 9.85731047,5.89293397 C9.76862214,5.89123797 9.69734883,5.8698932 9.65858905,5.83729693 C9.52576339,5.72482326 8.76856197,5.19256919 8.738034,5.05974353 C8.71863342,4.97676369 8.68760906,4.92182987 8.64715328,4.89200511 C8.58655235,4.95285424 8.4646059,5.00662981 8.32859507,4.94702166 C8.32011507,4.94338147 8.3105182,4.93949308 8.3009627,4.93531513 C8.28205851,5.3036778 8.23068216,6.27031438 8.2056972,6.3693028 C8.17492103,6.49207656 8.11361688,6.58419826 8.011071,6.53302873 C7.90877332,6.48202467 7.81694119,6.33852662 7.81694119,6.18510078 C7.81694119,6.03179904 7.87836943,5.9500188 7.89872142,5.88842509 C7.91580551,5.83704874 7.93301369,5.07815132 7.96842283,4.78188929 C7.83340478,4.70747217 7.7096796,4.61497819 7.67369134,4.50709612 C7.60204573,4.29220066 7.61213899,4.21050316 7.55079347,4.14895081 C7.54280987,4.14096721 7.53068968,4.13223902 7.5168735,4.12326264 C7.47298436,4.16520758 7.4217321,4.20686297 7.38160725,4.2478565 C7.36005566,4.3409296 7.35422307,4.44632972 7.4381957,4.49675466 C7.54061748,4.55826564 7.54061748,4.95736312 7.4381957,4.99831528 C7.33581528,5.03914335 7.33581528,5.03914335 7.33581528,5.03914335 C7.33581528,5.03914335 7.5201414,5.72482326 7.47931333,6.11337244 C7.4381957,6.50262485 7.39736763,6.91177422 7.3154633,6.97320247 C7.2336417,7.03442389 7.05973977,7.00385454 7.05973977,7.00385454 C7.05973977,7.00385454 6.8244096,6.87078069 6.5277339,6.69687876 C6.23093412,6.52297684 5.69880415,6.1545728 5.61685845,6.03179904 C5.53520232,5.90902527 5.19753309,5.55092133 5.19753309,5.55092133 L5.17391321,5.52084838 C4.91202617,5.55613342 4.63355144,5.56581303 4.47090102,5.50984507 C4.14344916,5.39737139 3.43753309,4.9779633 3.32493946,4.72199158 C3.23235033,4.51164636 3.13297721,4.32880942 3.12352512,4.09976685 C2.99506355,3.82563553 2.92525872,3.35519028 3.23283431,2.69588937 C3.23283431,2.69588937 3.4170446,2.58366802 3.70353603,2.61419186 C3.76655272,2.62076903 3.85792983,2.62367705 3.95913132,2.6340971 C3.70837996,2.30734018 3.40117667,1.90232739 3.28397902,1.78551858 C3.11008123,1.61148842 1.99477174,0.629132822 1.81056145,0.578004663 C1.62635529,0.526624173 1.5650346,0.547224353 1.71846044,0.46552685 C1.87188628,0.383634928 2.14480144,0.44492667 2.24369058,0.588428851 C2.34258386,0.731430505 2.47564944,0.966764816 2.58835477,1.07922608 C2.70081603,1.19194795 3.29415915,1.5603644 3.34529971,1.63183213 C3.39584461,1.702365 4.25033845,2.55749173 4.34390794,2.72935432 C4.40583258,2.75939004 4.46180054,2.79844765 4.50701339,2.84957168 C4.55669374,2.85345179 4.60323029,2.86312726 4.64492705,2.88033958 C4.92125075,2.99281739 5.36117629,3.34062951 5.57590629,3.6474812 C5.69975557,3.82439455 5.81003685,4.01492554 5.86943818,4.17219841 C5.98406288,4.2623759 6.07543998,4.32661703 6.10816035,4.33315283 C6.21045803,4.35375301 6.37418397,4.40488117 6.37418397,4.23110334 C6.37418397,4.05707732 6.54808589,3.67850557 6.70151173,3.45333484 C6.85518577,3.2281517 7.05973977,3.04394141 7.05973977,3.04394141 C7.05973977,3.04394141 7.04943968,2.9518735 7.15186146,2.94164373 C7.25411778,2.93148014 7.34611537,2.96203708 7.36659146,2.91087583 C7.41602362,2.78752294 7.63273917,2.88033958 7.73487139,2.97221721 C7.83729317,3.06454573 7.87836943,2.91087583 8.02149519,3.00299752 C8.16499323,3.09487515 8.22617329,3.21797157 8.22617329,3.38181746 C8.22617329,3.45165539 8.19237741,3.51174752 8.14050466,3.55271209 C8.14948105,3.56093562 8.15456904,3.56578369 8.15456904,3.56578369 C8.15456904,3.56578369 8.27659823,3.55703896 8.39813102,3.59633649 C8.3890719,3.54228791 8.3890719,3.4736951 8.40007521,3.38181746 C8.43068592,3.12589952 8.60496014,2.96203708 8.70700963,2.96203708 C8.80951414,2.96203708 8.88103565,2.84957168 8.88103565,2.84957168 C8.88103565,2.84957168 8.87085966,2.65518539 9.01431634,2.61419186 C9.15735936,2.57324383 9.54611537,2.75745412 9.63823706,2.83915162 C9.73031739,2.92103941 9.9145194,2.71648955 9.99621691,2.54246352 C10.0781212,2.36869397 10.5078708,1.64201226 10.6615448,1.46798624 C10.8149707,1.29421668 11.0195247,1.00770871 11.2139027,0.762214952 C11.4085289,0.516650872 11.297048,0.49171969 11.3586003,0.49171969 C11.4199458,0.49171969 11.3789937,0.450759251 11.4301218,0.399602136 C11.48125,0.348217509 11.7575737,0.184868005 11.829302,0.133743983 C11.9008236,0.0825699082 12.1977474,-0.0199395683 12.2384514,0.0108423962 C12.2794036,0.0413658243 12.2997556,0.143663508 12.2997556,0.143663508 C12.2997556,0.143663508 12.2486274,0.123307386 12.0440734,0.195031588 C11.8392298,0.266565508 11.5733717,0.440335063 11.5425955,0.49171969 C11.511778,0.542843712 11.4199458,0.583791742 11.4199458,0.583791742 C11.4199458,0.583791742 11.1458145,0.905460665 10.9819645,1.22248834 C10.9819645,1.22248834 10.8454986,1.54994021 10.7022488,1.86721608 C10.5592471,2.18448782 10.0885454,3.11545878 9.88374323,3.16660349 C9.67894103,3.21797157 9.42321751,3.15666328 9.27996766,3.03376128 C9.136966,2.91087583 9.07541366,2.9518735 9.00393351,3.00299752 C8.93216381,3.05412154 9.01431634,3.17702354 8.97311597,3.3507931 C8.95859657,3.41259777 8.92877181,3.50906701 8.88513087,3.59994359 C8.93290839,3.6062767 8.97386056,3.63414899 8.99371616,3.68842509 C9.03470969,3.80114696 9.0242855,3.85227512 9.16753535,3.83192313 C9.18883875,3.82877933 9.22035951,3.82609055 9.25986387,3.82563553 C9.23926369,3.78902677 9.22664711,3.75800241 9.22594389,3.73835364 C9.22205551,3.62396886 9.31318442,3.4157333 9.44865749,3.36535387 C9.58417193,3.3149372 10.1581227,3.06478565 10.27858,3.18500715 C10.3990373,3.30545202 10.9337319,3.59754851 11.0287492,3.65037267 C11.1239734,3.7027418 11.2989922,3.73835364 11.3590967,3.72504212 C11.4192013,3.7121608 11.5423473,3.26644404 11.7527339,2.88568818 C11.9633273,2.50515155 11.9284559,2.34519818 12.0658732,2.39897375 C12.2032905,2.45278242 12.2006431,2.29622518 12.3271397,2.30036176 C12.4536778,2.30444871 12.4764704,2.21551218 12.5503911,2.07396247 C12.6243118,1.93215629 12.7016245,1.75813026 12.8836755,1.72904182 C13.0659334,1.69997405 13.7894216,1.51163132 13.8720705,1.55622781 C13.955464,1.60106837 13.9593111,1.71548624 13.7491727,1.76102174 C13.5392825,1.80660274 13.0477324,1.8088034 12.9384439,1.88492479 C12.829114,1.96078971 12.8017298,2.36480144 12.6861124,2.41083747 C12.5707431,2.456919 12.3950211,2.51602662 12.3736763,2.56256318 C12.3555167,2.60233228 11.9437199,3.33214538 11.7849579,3.72164598 C11.9941449,3.63245299 12.3165087,3.50617554 12.513286,3.44291479 C12.7997856,3.3507931 13.2910875,3.19736725 13.4956415,3.19736725 C13.6253234,3.19736725 13.6766998,3.24270833 13.6970931,3.27592923 C13.7109093,3.24026775 13.7227813,3.21213899 13.7312613,3.19736725 C13.7719653,3.12589952 13.8333108,3.07446525 13.8333108,3.07446525 C13.8333108,3.07446525 13.8129174,3.03376128 13.8742629,3.00299752 C13.9355671,2.97221721 14.3553888,2.91087583 14.5088147,2.7676177 C14.6622405,2.62441749 14.8772187,2.34809379 14.8975707,2.09236613 C14.9181709,1.83669224 15.0815245,1.5603644 15.1634702,1.54994021 C15.2453745,1.53976008 15.3374962,1.54994021 15.2555505,1.89773992 C15.1738944,2.24579197 15.0509965,2.52185921 14.8566185,2.67554565 C14.6622405,2.82921142 14.1607626,3.07446525 14.0994171,3.10548962 C14.0378648,3.1360631 13.9564155,3.21797157 13.9253911,3.21797157 C13.8946149,3.21797157 13.9050391,3.24849541 13.853911,3.42252144 C13.8449346,3.45333484 13.8359582,3.48751128 13.8267336,3.5238677 C13.8400948,3.55804415 13.8873345,3.6877136 13.9050391,3.86269931 C13.9253911,4.06704648 13.8333108,4.51718938 13.7516133,4.62999398 C13.7516133,4.62999398 13.7433815,4.70197052 13.7416855,4.76087545 C13.7671255,4.74817614 13.7928136,4.74623195 13.8129174,4.76281965 C13.8742629,4.81411327 14.0378648,5.02909146 14.2937951,5.14144103 C14.5497668,5.25424564 14.7950662,5.35641922 15.0815245,5.3770194 C15.3680242,5.39737139 15.4089764,5.41772338 15.4089764,5.41772338 C15.4089764,5.41772338 15.5420502,5.43819946 15.6957243,5.35641922 C15.8491501,5.27459762 16.7597774,4.81411327 16.8928099,4.76281965 C17.0258837,4.71165012 17.2304791,4.6195698 17.3739358,4.50709612 C17.5169374,4.39449835 17.6294111,4.40488117 17.6294111,4.40488117 C17.6294111,4.40488117 17.7317088,4.29220066 17.8853828,4.18990298 C18.0388087,4.08764666 18.0899368,4.03647714 18.1820171,4.01587696 C18.2741388,3.99552497 18.4583409,3.90001128 18.2232589,4.23788733 Z M5.91448556,4.3460176 C5.91812575,4.38527377 5.91498195,4.41894555 5.90335815,4.4456265 C5.88445397,4.48997067 5.88131017,4.56016847 5.88565358,4.63628159 C5.93632671,4.60500903 6.03895532,4.54167795 6.13144931,4.49385906 C6.05922458,4.45824308 5.99035048,4.40273014 5.91448556,4.3460176 Z M6.76281588,5.32576715 C6.60939004,5.42814756 6.32293171,5.31534296 6.22063403,5.26429753 C6.13786101,5.22284898 5.98116727,5.19488568 5.92470292,5.185537 C5.90385454,5.25887861 5.86240599,5.33606724 5.78070848,5.3770194 C5.70558815,5.41433138 5.52792193,5.46231573 5.32200286,5.49797307 L5.64763463,5.84759702 C5.64763463,5.84759702 5.89318216,5.86794901 6.06720818,5.99072277 C6.24111011,6.11337244 6.90631393,6.77870036 6.99818742,6.82982852 C7.09026775,6.88108078 7.17221345,6.8604806 7.15186146,6.70717885 C7.13146811,6.55350481 7.0290877,5.92937726 7.01878761,5.69404708 C7.00861161,5.45879964 7.0290877,4.9779633 7.0290877,4.9779633 C7.0290877,4.9779633 6.90122593,4.88910951 6.9157867,4.78921104 C6.87818517,4.79673962 6.84864997,4.80054528 6.83458559,4.80402001 C6.79359206,4.81411327 6.91648992,5.22334537 6.76281588,5.32576715 Z M7.34623947,3.25867554 C7.28468712,3.17702354 7.21316561,3.21797157 7.21316561,3.21797157 C7.21316561,3.21797157 6.96761808,3.62712094 6.86523767,4.00594916 C6.85262109,4.05248571 6.8390531,4.09443066 6.82486462,4.13248721 C6.90581754,4.11623045 6.98073105,4.11527903 7.03913959,4.05707732 C7.10772413,3.98849278 7.16518126,3.81736236 7.223838,3.73472172 C7.18118983,3.59948857 7.16869735,3.53645532 7.29506995,3.49405535 C7.44849579,3.44291479 7.58156965,3.51463899 7.58156965,3.51463899 C7.58156965,3.51463899 7.60010153,3.49235936 7.63079498,3.46592246 C7.50330551,3.39175353 7.38330325,3.30839313 7.34623947,3.25867554 Z M10.3953971,6.06245111 C10.4976948,6.20570096 10.5999925,6.20570096 10.6307687,6.09302046 C10.6494246,6.02563553 10.7046894,5.7765719 10.7458897,5.58872969 C10.648225,5.56970141 10.5767035,5.55381694 10.5323594,5.53164486 C10.4480144,5.64631092 10.3505566,5.72895984 10.251444,5.78592058 C10.2885078,5.86794901 10.329005,5.96950211 10.3953971,6.06245111 Z M10.9977249,4.03746992 C10.9977249,4.03746992 10.1654031,3.86923511 10.0114809,3.78757483 C9.85755866,3.70563327 9.72936597,3.59754851 9.6314117,3.629061 C9.53374699,3.66103678 9.79431032,3.75121841 10.0199609,3.92185244 C10.1084424,3.98898917 10.1753309,4.09174188 10.1874511,4.18167118 C10.2027151,4.20082356 10.2177309,4.22022413 10.2315471,4.2410725 C10.3825737,4.46767449 10.5563515,4.64575436 10.6447917,4.83698857 C10.6765606,4.82842584 10.7097774,4.8224278 10.7420014,4.82064907 C10.7502332,4.62829798 10.8394592,4.47640268 10.907051,4.35375301 C10.9538357,4.26820848 11.0665576,4.16880641 11.1879663,4.07792569 C11.1159898,4.06725331 11.0495976,4.05174113 10.9977249,4.03746992 Z M12.5348789,4.01926895 C12.4580212,3.94245262 12.3683815,3.91701264 12.1509627,4.21099955 C11.9337921,4.50540012 12.1465779,4.66246616 12.2789072,4.64575436 C12.3812049,4.63288959 12.3812049,4.6076978 12.4837508,4.4541065 C12.5860071,4.30068066 12.6114471,4.09612665 12.5348789,4.01926895 Z"/>
          <polyline fill="#FFF" points="0 1.42 11.451 11.02 11.516 11.02 15.615 1.42 0 1.42"/>
          <path fill="#A81C7D" d="M10.1874511 4.18167118C10.1753309 4.09174188 10.1084424 3.98898917 10.0199609 3.92185244 9.79431032 3.75121841 9.53374699 3.66103678 9.6314117 3.629061 9.72936597 3.59754851 9.85755866 3.70563327 10.0114809 3.78757483 10.1654031 3.86923511 10.9977249 4.03746992 10.9977249 4.03746992 11.0495976 4.05174113 11.1159898 4.06725331 11.1879663 4.07792569 11.0665576 4.16880641 10.9538357 4.26820848 10.907051 4.35375301 10.8394592 4.47640268 10.7502332 4.62829798 10.7420014 4.82064907 10.7097774 4.8224278 10.6765606 4.82842584 10.6447917 4.83698857 10.5563515 4.64575436 10.3825737 4.46767449 10.2315471 4.2410725 10.2177309 4.22022413 10.2027151 4.20082356 10.1874511 4.18167118M10.751444 5.58872969C10.7097809 5.7765719 10.6538953 6.02563553 10.6350298 6.09302046 10.6039079 6.20570096 10.500461 6.20570096 10.3970142 6.06245111 10.3298762 5.96950211 10.2889242 5.86794901 10.251444 5.78592058 10.3516699 5.72895984 10.4502226 5.64631092 10.535515 5.53164486 10.5803573 5.55381694 10.6526822 5.56970141 10.751444 5.58872969M12.2789072 4.64575436C12.1465779 4.66246616 11.9337921 4.50540012 12.1509627 4.21099955 12.3683815 3.91701264 12.4580212 3.94245262 12.5348789 4.01926895 12.6114471 4.09612665 12.5860071 4.30068066 12.4837508 4.4541065 12.3812049 4.6076978 12.3812049 4.63288959 12.2789072 4.64575436"/>
          <path fill="#A81C7D" d="M6.5277339 6.69687876C6.8244096 6.87078069 7.05973977 7.00385454 7.05973977 7.00385454 7.05973977 7.00385454 7.2336417 7.03442389 7.3154633 6.97320247 7.39736763 6.91177422 7.4381957 6.50262485 7.47931333 6.11337244 7.5201414 5.72482326 7.33581528 5.03914335 7.33581528 5.03914335 7.33581528 5.03914335 7.33581528 5.03914335 7.4381957 4.99831528 7.54061748 4.95736312 7.54061748 4.55826564 7.4381957 4.49675466 7.35422307 4.44632972 7.36005566 4.3409296 7.38160725 4.2478565 7.4217321 4.20686297 7.47298436 4.16520758 7.5168735 4.12326264 7.53068968 4.13223902 7.54280987 4.14096721 7.55079347 4.14895081 7.61213899 4.21050316 7.60204573 4.29220066 7.67369134 4.50709612 7.7096796 4.61497819 7.83340478 4.70747217 7.96842283 4.78188929 7.93301369 5.07815132 7.91580551 5.83704874 7.89872142 5.88842509 7.87836943 5.9500188 7.81694119 6.03179904 7.81694119 6.18510078 7.81694119 6.33852662 7.90877332 6.48202467 8.011071 6.53302873 8.11361688 6.58419826 8.17492103 6.49207656 8.2056972 6.3693028 8.23068216 6.27031438 8.28205851 5.3036778 8.3009627 4.93531513 8.3105182 4.93949308 8.32011507 4.94338147 8.32859507 4.94702166 8.4646059 5.00662981 8.58655235 4.95285424 8.64715328 4.89200511 8.68760906 4.92182987 8.71863342 4.97676369 8.738034 5.05974353 8.76856197 5.19256919 9.52576339 5.72482326 9.65858905 5.83729693 9.69734883 5.8698932 9.76862214 5.89123797 9.85731047 5.89293397 9.96349654 6.01409446 10.1200662 6.18245337 10.2315471 6.25682912 10.4157491 6.37960289 10.5999925 6.37960289 10.5999925 6.37960289 10.5999925 6.37960289 10.6513688 6.31817464 10.8251467 6.11337244 10.8869472 6.04114771 10.9509401 5.93885003 11.0081491 5.83754513 11.0786778 6.01144705 11.2071187 6.18994058 11.4800504 6.21575286 11.7713899 6.24375752 12.4723338 6.02149895 12.6463598 5.87837319 12.8201376 5.73487515 13.0964613 5.43819946 13.2603114 5.29499097 13.2603114 5.29499097 13.5877632 4.9779633 13.6388914 4.94702166 13.6427798 4.94474654 13.64642 4.94185093 13.6503084 4.93924489 13.6805881 4.9779633 13.7615411 4.9779633 13.7615411 4.9779633 13.7908694 5.00294826 13.8817502 5.05850256 13.9918246 5.12204046L11.5161628 10.9207017 11.450722 10.9207017 6.00151925 6.35184642C6.17955776 6.47912906 6.38179528 6.61133424 6.5277339 6.69687876M8.70700963 2.96203708C8.60496014 2.96203708 8.43068592 3.12589952 8.40007521 3.38181746 8.3890719 3.4736951 8.3890719 3.54228791 8.39813102 3.59633649 8.27659823 3.55703896 8.15456904 3.56578369 8.15456904 3.56578369 8.15456904 3.56578369 8.14948105 3.56093562 8.14050466 3.55271209 8.19237741 3.51174752 8.22617329 3.45165539 8.22617329 3.38181746 8.22617329 3.21797157 8.16499323 3.09487515 8.02149519 3.00299752 7.87836943 2.91087583 7.83729317 3.06454573 7.73487139 2.97221721 7.63273917 2.88033958 7.41602362 2.78752294 7.36659146 2.91087583 7.34611537 2.96203708 7.25411778 2.93148014 7.15186146 2.94164373 7.04943968 2.9518735 7.05973977 3.04394141 7.05973977 3.04394141 7.05973977 3.04394141 6.85518577 3.2281517 6.70151173 3.45333484 6.54808589 3.67850557 6.37418397 4.05707732 6.37418397 4.23110334 6.37418397 4.40488117 6.21045803 4.35375301 6.10816035 4.33315283 6.07543998 4.32661703 5.98406288 4.2623759 5.86943818 4.17219841 5.81003685 4.01492554 5.69975557 3.82439455 5.57590629 3.6474812 5.36117629 3.34062951 4.92125075 2.99281739 4.64492705 2.88033958 4.60323029 2.86312726 4.55669374 2.85345179 4.50701339 2.84957168 4.46180054 2.79844765 4.40583258 2.75939004 4.34390794 2.72935432 4.25033845 2.55749173 3.39584461 1.702365 3.34529971 1.63183213 3.31597134 1.59088824 3.10873684 1.45247405 2.91580663 1.32065358L10.7839463 1.32065358C10.7405535 1.37491313 10.6993532 1.42510229 10.6615448 1.46798624 10.5078708 1.64201226 10.0781212 2.36869397 9.99621691 2.54246352 9.9145194 2.71648955 9.73031739 2.92103941 9.63823706 2.83915162 9.54611537 2.75745412 9.15735936 2.57324383 9.01431634 2.61419186 8.87085966 2.65518539 8.88103565 2.84957168 8.88103565 2.84957168 8.88103565 2.84957168 8.80951414 2.96203708 8.70700963 2.96203708M3.28397902 1.78551858C3.40117667 1.90232739 3.70837996 2.30734018 3.95913132 2.6340971 3.85792983 2.62367705 3.76655272 2.62076903 3.70353603 2.61419186 3.4170446 2.58366802 3.23283431 2.69588937 3.23283431 2.69588937 2.99700361 3.20150384 2.98342735 3.59535199 3.04754437 3.87531588L0 1.32065358 2.76687312 1.32065358C3.00777941 1.52907942 3.21659823 1.71813779 3.28397902 1.78551858"/>
          <path fill="#A81C7D" d="M13.8129174 4.76281965C13.7928136 4.74623195 13.7671255 4.74817614 13.7416855 4.76087545 13.7433815 4.70197052 13.7516133 4.62999398 13.7516133 4.62999398 13.8333108 4.51718938 13.9253911 4.06704648 13.9050391 3.86269931 13.8873345 3.6877136 13.8400948 3.55804415 13.8267336 3.5238677 13.8359582 3.48751128 13.8449346 3.45333484 13.853911 3.42252144 13.9050391 3.24849541 13.8946149 3.21797157 13.9253911 3.21797157 13.9564155 3.21797157 14.0378648 3.1360631 14.0994171 3.10548962 14.1607626 3.07446525 14.6622405 2.82921142 14.8566185 2.67554565 15.0509965 2.52185921 15.1738944 2.24579197 15.2555505 1.89773992 15.3374962 1.54994021 15.2453745 1.53976008 15.1634702 1.54994021 15.0815245 1.5603644 14.9181709 1.83669224 14.8975707 2.09236613 14.8772187 2.34809379 14.6622405 2.62441749 14.5088147 2.7676177 14.3553888 2.91087583 13.9355671 2.97221721 13.8742629 3.00299752 13.8129174 3.03376128 13.8333108 3.07446525 13.8333108 3.07446525 13.8333108 3.07446525 13.7719653 3.12589952 13.7312613 3.19736725 13.7227813 3.21213899 13.7109093 3.24026775 13.6970931 3.27592923 13.6766998 3.24270833 13.6253234 3.19736725 13.4956415 3.19736725 13.2910875 3.19736725 12.7997856 3.3507931 12.513286 3.44291479 12.3165087 3.50617554 11.9941449 3.63245299 11.7849579 3.72164598 11.9437199 3.33214538 12.3555167 2.60233228 12.3736763 2.56256318 12.3950211 2.51602662 12.5707431 2.456919 12.6861124 2.41083747 12.8017298 2.36480144 12.829114 1.96078971 12.9384439 1.88492479 13.0477324 1.8088034 13.5392825 1.80660274 13.7491727 1.76102174 13.9593111 1.71548624 13.955464 1.60106837 13.8720705 1.55622781 13.7894216 1.51163132 13.0659334 1.69997405 12.8836755 1.72904182 12.7016245 1.75813026 12.6243118 1.93215629 12.5503911 2.07396247 12.4764704 2.21551218 12.4536778 2.30444871 12.3271397 2.30036176 12.2006431 2.29622518 12.2032905 2.45278242 12.0658732 2.39897375 11.9284559 2.34519818 11.9633273 2.50515155 11.7527339 2.88568818 11.5423473 3.26644404 11.4192013 3.7121608 11.3590967 3.72504212 11.2989922 3.73835364 11.1239734 3.7027418 11.0287492 3.65037267 10.9337319 3.59754851 10.3990373 3.30545202 10.27858 3.18500715 10.1581227 3.06478565 9.58417193 3.3149372 9.44865749 3.36535387 9.31318442 3.4157333 9.22205551 3.62396886 9.22594389 3.73835364 9.22664711 3.75800241 9.23926369 3.78902677 9.25986387 3.82563553 9.22035951 3.82609055 9.18883875 3.82877933 9.16753535 3.83192313 9.0242855 3.85227512 9.03470969 3.80114696 8.99371616 3.68842509 8.97386056 3.63414899 8.93290839 3.6062767 8.88513087 3.59994359 8.92877181 3.50906701 8.95859657 3.41259777 8.97311597 3.3507931 9.01431634 3.17702354 8.93216381 3.05412154 9.00393351 3.00299752 9.07541366 2.9518735 9.136966 2.91087583 9.27996766 3.03376128 9.42321751 3.15666328 9.67894103 3.21797157 9.88374323 3.16660349 10.0885454 3.11545878 10.5592471 2.18448782 10.7022488 1.86721608 10.7977625 1.65608905 10.8898428 1.44109845 10.9407641 1.32065358L15.6145232 1.32065358 14.0487853 4.98838748C13.9312237 4.8926256 13.8517186 4.79504362 13.8129174 4.76281965M5.17391321 5.52084838L5.19753309 5.55092133C5.19753309 5.55092133 5.52610184 5.89959386 5.61321826 6.02658694L5.02933965 5.53698105C5.0775722 5.53251354 5.12605295 5.52730144 5.17391321 5.52084838M7.03913959 4.05707732C6.98073105 4.11527903 6.90581754 4.11623045 6.82486462 4.13248721 6.8390531 4.09443066 6.85262109 4.05248571 6.86523767 4.00594916 6.96761808 3.62712094 7.21316561 3.21797157 7.21316561 3.21797157 7.21316561 3.21797157 7.28468712 3.17702354 7.34623947 3.25867554 7.38330325 3.30839313 7.50330551 3.39175353 7.63079498 3.46592246 7.60010153 3.49235936 7.58156965 3.51463899 7.58156965 3.51463899 7.58156965 3.51463899 7.44849579 3.44291479 7.29506995 3.49405535 7.16869735 3.53645532 7.18118983 3.59948857 7.223838 3.73472172 7.16518126 3.81736236 7.10772413 3.98849278 7.03913959 4.05707732M6.99818742 6.82982852C6.90631393 6.77870036 6.24111011 6.11337244 6.06720818 5.99072277 5.89318216 5.86794901 5.64763463 5.84759702 5.64763463 5.84759702L5.32200286 5.49797307C5.52792193 5.46231573 5.70558815 5.41433138 5.78070848 5.3770194 5.86240599 5.33606724 5.90385454 5.25887861 5.92470292 5.185537 5.98116727 5.19488568 6.13786101 5.22284898 6.22063403 5.26429753 6.32293171 5.31534296 6.60939004 5.42814756 6.76281588 5.32576715 6.91648992 5.22334537 6.79359206 4.81411327 6.83458559 4.80402001 6.84864997 4.80054528 6.87818517 4.79673962 6.9157867 4.78921104 6.90122593 4.88910951 7.0290877 4.9779633 7.0290877 4.9779633 7.0290877 4.9779633 7.00861161 5.45879964 7.01878761 5.69404708 7.0290877 5.92937726 7.13146811 6.55350481 7.15186146 6.70717885 7.17221345 6.8604806 7.09026775 6.88108078 6.99818742 6.82982852M6.38392861 4.60068484C6.1970877 4.68305622 5.98977452 4.79214842 5.88741311 4.8460176 5.87863928 4.71490744 5.88498986 4.59398682 5.92317693 4.5176009 5.94665739 4.47164109 5.95300797 4.41363909 5.94565466 4.3460176 6.09890431 4.44370892 6.23803227 4.53933383 6.38392861 4.60068484"/>
        </g>
      </g>
    </g>
  </g>
</svg>
