<svg xmlns="http://www.w3.org/2000/svg" width="24" height="24" viewBox="0 0 24 24">
  <g fill="#039BC6">
    <path d="M11.5400348,23.0800696 C5.16664956,23.0800696 0,17.91342 0,11.5400348 C0,5.16664956 5.16664956,0 11.5400348,0 C17.91342,0 23.0800696,5.16664956 23.0800696,11.5400348 C23.0800696,17.91342 17.91342,23.0800696 11.5400348,23.0800696 Z M11.5400348,22.1184 C17.3823046,22.1184 22.1184,17.3823046 22.1184,11.5400348 C22.1184,5.697765 17.3823046,0.961669565 11.5400348,0.961669565 C5.697765,0.961669565 0.961669565,5.697765 0.961669565,11.5400348 C0.961669565,17.3823046 5.697765,22.1184 11.5400348,22.1184 Z"/>
    <path d="M7.13192408,15.6574517 C6.66614955,15.6574517 6.24327531,15.2209598 6.24327531,14.68851 C6.24327531,14.1560602 6.6242707,13.7195684 7.13192408,13.7195684 C7.63855601,13.7195684 8.02057284,14.1560602 8.02057284,14.68851 C8.02057284,15.2209598 7.59667716,15.6574517 7.13192408,15.6574517 Z M18.0377894,10.3797623 C17.9458602,9.60390683 17.5270717,8.97549902 16.9754966,8.48985798 L16.7609952,8.29560156 L16.5873512,8.53783698 C16.2502775,8.9743288 16.1174909,9.74901403 16.1583483,10.3282726 C16.1992057,10.7659347 16.321778,11.2012563 16.5362794,11.5406199 C16.3626354,11.6377481 16.148134,11.7348763 15.9847043,11.8308343 C15.5965589,11.9759415 15.2186278,12.0250907 14.8406967,12.0250907 L3.91235983,12.0250907 L3.87150241,12.3153051 C3.78701224,13.2583872 3.91905163,14.2103953 4.25454067,15.0770228 L4.42409894,15.4163865 L4.42409894,15.4631952 C5.4455343,17.4010785 7.26368924,18.2717217 9.24527383,18.2717217 C13.0552277,18.2717217 16.1808199,16.3841579 17.6619012,12.3153051 C18.6322648,12.3644543 19.6128427,12.0730697 20.0724886,11.0081701 L20.1950609,10.7659347 L19.9907738,10.6208275 C19.4391987,10.2346551 18.6833365,10.1843356 18.0500466,10.3785921 L18.0377894,10.3797623 Z M12.5833246,9.60390683 L10.9296207,9.60390683 L10.9296207,11.4938111 L12.584346,11.4938111 L12.584346,9.60273661 L12.5833246,9.60390683 Z M12.5833246,7.23070193 L10.9296207,7.23070193 L10.9296207,9.11826579 L12.584346,9.11826579 L12.584346,7.23187215 L12.5833246,7.23070193 Z M12.5833246,4.80834783 L10.9296207,4.80834783 L10.9296207,6.69591168 L12.584346,6.69591168 L12.584346,4.80951805 L12.5833246,4.80834783 Z M14.6057666,9.60390683 L12.9622771,9.60390683 L12.9622771,11.4938111 L14.6108738,11.4938111 L14.6108738,9.60273661 L14.6057666,9.60390683 Z M8.47715444,9.60390683 L6.83366495,9.60390683 L6.83366495,11.4938111 L8.48226162,11.4938111 L8.48226162,9.60273661 L8.47715444,9.60390683 Z M10.5404539,9.60390683 L8.90615729,9.60390683 L8.90615729,11.4938111 L10.5506682,11.4938111 L10.5506682,9.60273661 L10.5404539,9.60390683 Z M6.43428373,9.60390683 L4.80100859,9.60390683 L4.80100859,11.4938111 L6.45573387,11.4938111 L6.45573387,9.60273661 L6.43428373,9.60390683 Z M10.5404539,7.23070193 L8.90615729,7.23070193 L8.90615729,9.11826579 L10.5506682,9.11826579 L10.5506682,7.23187215 L10.5404539,7.23070193 Z M8.46694009,7.23070193 L8.47715444,7.23187215 L8.47715444,9.11826579 L6.83264352,9.11826579 L6.83264352,7.23070193 L8.46694009,7.23070193 Z"/>
  </g>
</svg>
