<svg xmlns="http://www.w3.org/2000/svg" width="21" height="20" viewBox="0 0 21 20">
  <g fill="none">
    <path fill="#21A99D" d="M10.8333333,20 C5.31048584,20 0.833333333,15.5228475 0.833333333,10 C0.833333333,4.4771525 5.31048584,0 10.8333333,0 C16.3561808,0 20.8333333,4.4771525 20.8333333,10 C20.8333333,15.5228475 16.3561808,20 10.8333333,20 Z M10.8333333,19.1666667 C15.8959435,19.1666667 20,15.0626102 20,10 C20,4.93738979 15.8959435,0.833333333 10.8333333,0.833333333 C5.77072313,0.833333333 1.66666667,4.93738979 1.66666667,10 C1.66666667,15.0626102 5.77072313,19.1666667 10.8333333,19.1666667 Z"/>
    <g fill="#2DBCAF" transform="translate(4.65 6.667)">
      <path d="M6.26449275,1.8852657 C5.73188406,2.0205314 5.36835749,2.12198068 4.8442029,2.25724638 C4.7173913,2.2910628 4.7089372,2.29951691 4.59903382,2.17270531 C4.47222222,2.02898551 4.37922705,1.93599034 4.20169082,1.85144928 C3.66908213,1.58937198 3.15338164,1.66545894 2.67149758,1.97826087 C2.09661836,2.35024155 1.80072464,2.89975845 1.80917874,3.58454106 C1.81763285,4.26086957 2.2826087,4.81884058 2.95048309,4.91183575 C3.52536232,4.98792271 4.00724638,4.78502415 4.38768116,4.35386473 C4.46376812,4.26086957 4.53140097,4.15942029 4.61594203,4.0410628 C4.3115942,4.0410628 3.93115942,4.0410628 2.98429952,4.0410628 C2.80676329,4.0410628 2.76449275,3.93115942 2.8236715,3.78743961 C2.93357488,3.52536232 3.13647343,3.08574879 3.25483092,2.86594203 C3.28019324,2.81521739 3.33937198,2.73067633 3.46618357,2.73067633 C3.897343,2.73067633 5.48671498,2.73067633 6.54347826,2.73067633 C6.52657005,2.9589372 6.52657005,3.18719807 6.49275362,3.41545894 C6.39975845,4.02415459 6.17149758,4.5821256 5.79951691,5.07246377 C5.19082126,5.87560386 4.39613527,6.37439614 3.39009662,6.50966184 C2.5615942,6.61956522 1.79227053,6.4589372 1.11594203,5.95169082 C0.490338164,5.47826087 0.1352657,4.852657 0.0422705314,4.07487923 C-0.0676328502,3.15338164 0.202898551,2.32487923 0.760869565,1.59782609 C1.36111111,0.811594203 2.1557971,0.312801932 3.12801932,0.1352657 C3.92270531,-0.00845410628 4.68357488,0.0845410628 5.36835749,0.549516908 C5.81642512,0.845410628 6.13768116,1.25120773 6.34903382,1.74154589 C6.39975845,1.81763285 6.36594203,1.85990338 6.26449275,1.8852657 Z"/>
      <path d="M9.06280193,6.56038647 C8.29347826,6.54347826 7.59178744,6.3236715 7,5.81642512 C6.50120773,5.3852657 6.1884058,4.83574879 6.08695652,4.18478261 C5.93478261,3.2294686 6.1968599,2.38405797 6.77173913,1.63164251 C7.38888889,0.820048309 8.13285024,0.397342995 9.13888889,0.219806763 C10.0012077,0.0676328502 10.8128019,0.152173913 11.5483092,0.650966184 C12.2161836,1.10748792 12.6304348,1.72463768 12.7403382,2.53623188 C12.884058,3.67753623 12.5543478,4.60748792 11.7681159,5.40217391 C11.2101449,5.96859903 10.5253623,6.3236715 9.73913043,6.48429952 C9.51086957,6.52657005 9.2826087,6.53502415 9.06280193,6.56038647 Z M11.0748792,3.14492754 C11.0664251,3.03502415 11.0664251,2.95048309 11.0495169,2.86594203 C10.897343,2.02898551 10.1280193,1.55555556 9.32487923,1.74154589 C8.53864734,1.91908213 8.03140097,2.4178744 7.84541063,3.21256039 C7.69323671,3.87198068 8.01449275,4.53985507 8.62318841,4.81038647 C9.08816425,5.01328502 9.5531401,4.98792271 10.0012077,4.75966184 C10.6690821,4.41304348 11.0326087,3.87198068 11.0748792,3.14492754 Z"/>
    </g>
  </g>
</svg>
