<svg xmlns="http://www.w3.org/2000/svg" width="20" height="20" viewBox="0 0 20 20">
  <g fill="none">
    <path fill="#5382A1" d="M10,20 C4.4771525,20 0,15.5228475 0,10 C0,4.4771525 4.4771525,0 10,0 C15.5228475,0 20,4.4771525 20,10 C20,15.5228475 15.5228475,20 10,20 Z M10,19.1666667 C15.0626102,19.1666667 19.1666667,15.0626102 19.1666667,10 C19.1666667,4.93738979 15.0626102,0.833333333 10,0.833333333 C4.93738979,0.833333333 0.833333333,4.93738979 0.833333333,10 C0.833333333,15.0626102 4.93738979,19.1666667 10,19.1666667 Z"/>
    <g transform="translate(5 2.5)">
      <path fill="#5382A1" d="M3.18127168,10.3072447 C3.18127168,10.3072447 2.67267823,10.6030058 3.54323699,10.7030829 C4.59791908,10.8233911 5.13691715,10.8061657 6.29919075,10.5861657 C6.29919075,10.5861657 6.60477842,10.7777649 7.03148362,10.943738 C4.4260501,12.0603854 1.13479769,10.8790366 3.18127168,10.3072447 M2.86289017,8.8500578 C2.86289017,8.8500578 2.29244701,9.27233141 3.16366089,9.36242775 C4.29028902,9.47865125 5.18,9.48816956 6.71957611,9.19171484 C6.71957611,9.19171484 6.93252408,9.40759152 7.26736031,9.52566474 C4.1171869,10.4468208 0.608477842,9.59830443 2.86289017,8.8500578"/>
      <path fill="#E76F00" d="M5.54689788,6.37822736 C6.18890173,7.11734104 5.37822736,7.78246628 5.37822736,7.78246628 C5.37822736,7.78246628 7.0083237,6.94096339 6.25969171,5.88716763 C5.56050096,4.90450867 5.02427746,4.41618497 7.92705202,2.73271676 C7.92705202,2.73271676 3.37067437,3.87067437 5.54689788,6.37818882"/>
      <path fill="#5382A1" d="M8.99283237,11.3850482 C8.99283237,11.3850482 9.36921002,11.6951445 8.57830443,11.9350674 C7.07441233,12.3906744 2.31888247,12.5282466 0.997803468,11.9532177 C0.522928709,11.7466667 1.41348748,11.4599615 1.69360308,11.3997688 C1.98574181,11.3364162 2.15271676,11.3482466 2.15271676,11.3482466 C1.62458574,10.976185 -1.26088632,12.0787669 0.687052023,12.3944894 C5.99930636,13.2559923 10.3707514,12.0065896 8.99283237,11.3850482 M3.42581888,7.34026975 C3.42581888,7.34026975 1.00689788,7.91483622 2.56924855,8.12342967 C3.22890173,8.21175337 4.54393064,8.19179191 5.7688632,8.08913295 C6.7699422,8.00473988 7.77514451,7.82516378 7.77514451,7.82516378 C7.77514451,7.82516378 7.422158,7.97633911 7.16678227,8.15071291 C4.71036609,8.79676301 -0.0349903661,8.49622351 1.3311368,7.83537572 C2.48647399,7.27691715 3.42585742,7.34026975 3.42585742,7.34026975 M7.76516378,9.76578035 C10.2622736,8.46820809 9.10770713,7.22127168 8.30184971,7.38928709 C8.10431599,7.43036609 8.01626204,7.46597303 8.01626204,7.46597303 C8.01626204,7.46597303 8.08959538,7.3511368 8.22963391,7.30142582 C9.82385356,6.74092486 11.0499422,8.9544894 7.71499037,9.83117537 C7.71499037,9.83121387 7.75364162,9.79668593 7.76516378,9.76578035"/>
      <path fill="#E76F00" d="M6.25969171,0.0142967245 C6.25969171,0.0142967245 7.64262042,1.3977264 4.94805395,3.52493256 C2.78732177,5.23136802 4.45533719,6.20431599 4.94716763,7.31595376 C3.68589595,6.17799615 2.76026975,5.17622351 3.38127168,4.2438921 C4.29267823,2.87522158 6.81764933,2.2116763 6.25969171,0.0142581888"/>
      <path fill="#5382A1" d="M3.67121387,13.2818882 C6.06809249,13.4353372 9.74874759,13.196763 9.83591522,12.0626204 C9.83591522,12.0626204 9.66836224,12.4926012 7.8550289,12.834027 C5.80924855,13.2189981 3.28608863,13.1740655 1.78955684,12.9273218 C1.78959538,12.9273218 2.09591522,13.1808863 3.67125241,13.2818882"/>
    </g>
  </g>
</svg>
