<svg xmlns="http://www.w3.org/2000/svg" width="20" height="20" viewBox="0 0 20 20">
  <g fill="#326DE6">
    <path d="M10,20 C4.4771525,20 0,15.5228475 0,10 C0,4.4771525 4.4771525,0 10,0 C15.5228475,0 20,4.4771525 20,10 C20,15.5228475 15.5228475,20 10,20 Z M10,19.1666667 C15.0626102,19.1666667 19.1666667,15.0626102 19.1666667,10 C19.1666667,4.93738979 15.0626102,0.833333333 10,0.833333333 C4.93738979,0.833333333 0.833333333,4.93738979 0.833333333,10 C0.833333333,15.0626102 4.93738979,19.1666667 10,19.1666667 Z"/>
    <path d="M16.6189302,11.4724339 C16.6058036,11.4724339 16.6058036,11.4724339 16.6189302,11.4724339 L16.6058036,11.4724339 C16.592677,11.4724339 16.5795503,11.4724339 16.5795503,11.4594157 C16.5532971,11.4594157 16.5270438,11.4463976 16.500711,11.4463976 C16.4087451,11.4333794 16.3299059,11.4203612 16.2510666,11.4203612 C16.2116072,11.4203612 16.1722273,11.4203612 16.1196412,11.4072642 L16.1065146,11.4072642 C15.8306169,11.3812278 15.6072257,11.3551915 15.3969611,11.2900217 C15.3049952,11.2508883 15.2787419,11.1988157 15.2524091,11.1466641 C15.2524091,11.1336459 15.2392825,11.1336459 15.2392825,11.1206277 L15.0684773,11.0685551 C15.149177,10.4555563 15.1180256,9.83315937 14.9765114,9.23109955 C14.8330442,8.62403327 14.5840543,8.0463885 14.2407046,7.52406243 L14.3721299,7.40682 L14.3721299,7.38078366 C14.3721299,7.31561391 14.3852565,7.25044417 14.437763,7.18527442 C14.5954416,7.04191675 14.7925796,6.92467433 15.0290974,6.78131666 C15.0684773,6.75528032 15.1078572,6.74226215 15.1473166,6.71614691 C15.2261559,6.6770924 15.2918685,6.63803789 15.3707078,6.58588632 C15.3838344,6.57286815 15.4100877,6.55984998 15.4364205,6.53381364 C15.4495471,6.52071657 15.4626737,6.52071657 15.4626737,6.5076984 C15.6466055,6.35132256 15.686065,6.09072247 15.5546396,5.92124957 C15.488927,5.83004348 15.3707078,5.7779708 15.2524091,5.7779708 C15.1473961,5.7779708 15.0553507,5.81702531 14.9633848,5.88219506 L14.9371315,5.9082314 C14.9108783,5.92124957 14.8976721,5.94736481 14.8714189,5.96038298 C14.8057062,6.02555272 14.7531202,6.0776254 14.7006137,6.14279515 C14.6743604,6.16883149 14.6481072,6.2079649 14.6086478,6.23400124 C14.4246364,6.42951048 14.2538312,6.58588632 14.083026,6.70312874 C14.0436462,6.72916508 14.0042663,6.74226215 13.9648069,6.74226215 C13.9385536,6.74226215 13.9122208,6.74226215 13.8859676,6.72916508 L13.8597143,6.72916508 L13.7019562,6.83346824 C13.531151,6.65105606 13.3472192,6.49468023 13.1632874,6.33830439 C12.371266,5.72433017 11.4180799,5.348906 10.4171186,5.25669172 L10.403992,5.08729771 L10.3777388,5.06126137 C10.3382793,5.02212797 10.2857729,4.98307346 10.2725667,4.89186737 C10.2594401,4.68333996 10.2857729,4.4487762 10.3120261,4.18817611 L10.3120261,4.17515794 C10.3120261,4.13602453 10.3251527,4.08395185 10.3382793,4.04481845 C10.351406,3.96670943 10.3645326,3.88844261 10.3777388,3.79723652 L10.3777388,3.6799941 C10.3777388,3.44543034 10.1937274,3.25 9.97041572,3.25 C9.86524364,3.25 9.76015111,3.30207268 9.68131182,3.3802606 C9.60255209,3.45844851 9.56309267,3.56267277 9.56309267,3.6799941 L9.56309267,3.78421835 C9.56309267,3.87542444 9.5762193,3.95361236 9.60247254,4.03180028 C9.61559916,4.07093368 9.61559916,4.10998819 9.62872578,4.16213977 L9.62872578,4.17515794 C9.65497902,4.43575803 9.69443844,4.67032179 9.6681852,4.8788492 C9.65505858,4.97005529 9.60247254,5.0091098 9.56309267,5.0482432 L9.53683943,5.07427954 L9.52363325,5.24367355 C9.2871154,5.26970989 9.05059755,5.29574623 8.81407969,5.34789781 C7.80237517,5.56944339 6.9088898,6.0777043 6.21254241,6.807353 L6.08111709,6.71614691 L6.05486384,6.71614691 C6.0286106,6.71614691 6.0022778,6.72916508 5.97602456,6.72916508 C5.93656514,6.72916508 5.89718527,6.71614691 5.85772585,6.69011057 C5.68692066,6.57286815 5.51611547,6.40339524 5.33218366,6.2079649 C5.30593042,6.18192856 5.27967717,6.14279515 5.24021775,6.11675881 C5.18763171,6.05158906 5.13504567,5.99943749 5.06933301,5.93434664 C5.05620639,5.92124957 5.02995314,5.9083103 5.0036999,5.88219506 C4.99057328,5.86917689 4.97744666,5.86917689 4.97744666,5.85615872 C4.89603809,5.78945839 4.79393692,5.75262224 4.68834276,5.75185556 C4.57004406,5.75185556 4.45182491,5.80400714 4.38611225,5.89521323 C4.25468692,6.06460723 4.29414634,6.32520733 4.47807815,6.48158316 C4.49120477,6.48158316 4.49120477,6.49468023 4.5043314,6.49468023 C4.53058464,6.5076984 4.54379082,6.53373474 4.57004406,6.54675291 C4.64888334,6.59882559 4.71459601,6.637959 4.79343529,6.6770924 C4.83289471,6.69011057 4.87227458,6.71614691 4.91173399,6.74226215 C5.14817229,6.88554092 5.34531028,7.00286224 5.50298885,7.14621991 C5.56870151,7.21131076 5.56870151,7.27648051 5.56870151,7.34165025 L5.56870151,7.36768659 L5.70004729,7.48500792 C5.67379404,7.52406243 5.6475408,7.55017767 5.63433462,7.58923218 C4.9773671,8.61869327 4.72772263,9.83056655 4.89852782,11.0294216 L4.72772263,11.0814943 C4.72772263,11.0945914 4.71459601,11.0945914 4.71459601,11.1075307 C4.68834276,11.1596822 4.64888334,11.2118338 4.57004406,11.2508883 C4.37298562,11.3160581 4.13646777,11.3421733 3.86057005,11.3682097 L3.84736388,11.3682097 C3.80798401,11.3682097 3.75539797,11.3682097 3.7160181,11.3812278 C3.63717882,11.3812278 3.55833954,11.394246 3.46637363,11.4072642 C3.44012039,11.4072642 3.41386714,11.4203612 3.38753435,11.4203612 C3.37440772,11.4203612 3.3612811,11.4203612 3.34807493,11.4333794 C3.11155707,11.4854521 2.96700512,11.7069977 3.00646454,11.9154462 C3.04592396,12.0979373 3.21672915,12.2152586 3.42691421,12.2152586 C3.46637363,12.2152586 3.49262687,12.2152586 3.53208629,12.2021615 C3.54521291,12.2021615 3.55833954,12.2021615 3.55833954,12.1891433 C3.58459278,12.1891433 3.61084602,12.1761252 3.63709927,12.1761252 C3.72914473,12.1500888 3.79485739,12.1240525 3.87369667,12.0849191 C3.91307654,12.0719009 3.9524564,12.0457857 3.99191582,12.0328464 L4.00504244,12.0328464 C4.25468692,11.9415614 4.47807815,11.8633735 4.68834276,11.8373372 L4.71459601,11.8373372 C4.79343529,11.8373372 4.84602133,11.8763917 4.8854012,11.9025069 C4.89852782,11.9025069 4.89852782,11.9155251 4.91165444,11.9155251 L5.09566581,11.8894887 C5.41102295,12.8537012 6.01540442,13.7137683 6.81692389,14.3392716 C7.0008557,14.4825504 7.18478752,14.5998717 7.3819255,14.717193 L7.30308622,14.8865081 C7.30308622,14.8996052 7.31621284,14.8996052 7.31621284,14.9125445 C7.34246608,14.9646961 7.36871933,15.0298658 7.34246608,15.1210719 C7.26370636,15.3165811 7.14540765,15.5120115 7.0008557,15.7335571 L7.0008557,15.7465752 C6.97460246,15.7857087 6.94834922,15.811745 6.92209597,15.8507995 C6.86950993,15.9159692 6.83005051,15.981139 6.77746447,16.0593269 C6.76433785,16.0723451 6.75121123,16.0983814 6.73808461,16.1244967 C6.73808461,16.1375148 6.72495798,16.150533 6.72495798,16.150533 C6.61986546,16.3720786 6.69870474,16.6196605 6.89576318,16.7108666 C6.94826966,16.7369029 7.0008557,16.75 7.05344174,16.75 C7.21112031,16.75 7.36879888,16.6456968 7.44763817,16.5023392 C7.44763817,16.489321 7.46076479,16.4763028 7.46076479,16.4763028 C7.47389141,16.4502665 7.48701803,16.4242302 7.50014465,16.4111331 C7.53960407,16.319927 7.55273069,16.2547573 7.57898394,16.1765693 L7.61844336,16.0593269 C7.71040926,15.7987268 7.77612193,15.5901994 7.89434108,15.4077872 C7.94684756,15.3295993 8.01263978,15.3165811 8.06514627,15.2904659 C8.07827289,15.2904659 8.07827289,15.2904659 8.09139951,15.2774477 L8.18344497,15.1080537 C8.76157321,15.3295993 9.39228748,15.4468417 10.0229222,15.4468417 C10.403992,15.4468417 10.7981884,15.4077872 11.1661316,15.3165811 C11.3976651,15.2652364 11.6258283,15.1999456 11.8493524,15.1210719 L11.9281121,15.2644296 C11.9413183,15.2644296 11.9413183,15.2644296 11.9544449,15.2774477 C12.0201576,15.2904659 12.072664,15.3165811 12.1252501,15.3947691 C12.2303426,15.5771812 12.3091819,15.7987268 12.4011478,16.0463087 L12.4011478,16.0593269 L12.4406072,16.1765693 C12.4668605,16.2547573 12.4799871,16.3329452 12.519367,16.4111331 C12.5325731,16.4371694 12.5456998,16.4502665 12.5588264,16.4763028 C12.5588264,16.489321 12.5720326,16.5023392 12.5720326,16.5023392 C12.6507923,16.658715 12.8084709,16.75 12.9661494,16.75 C13.0187355,16.75 13.0713215,16.7369029 13.123828,16.7108666 C13.2157939,16.6587939 13.2946332,16.5805271 13.320966,16.4763028 C13.3472192,16.3720786 13.3472192,16.2547573 13.2947127,16.150533 C13.2947127,16.1375148 13.2815066,16.1375148 13.2815066,16.1244967 C13.2683799,16.0984603 13.2552533,16.072424 13.2421267,16.0593269 C13.2026673,15.981139 13.1501608,15.9159692 13.0975747,15.8507995 C13.0713215,15.811745 13.0450683,15.7857087 13.018815,15.7466541 L13.018815,15.7335571 C12.8741835,15.5120115 12.7427582,15.3165811 12.6771251,15.1210719 C12.6508718,15.0298658 12.6771251,14.9777931 12.6902517,14.9126234 C12.6902517,14.8996052 12.7033783,14.8996052 12.7033783,14.886587 L12.6376657,14.7302112 C13.3340926,14.3262535 13.9253475,13.7528228 14.3721299,13.0492104 C14.6086478,12.6843072 14.7925796,12.2803494 14.9239254,11.8763917 L15.0816039,11.902428 C15.0948101,11.902428 15.0948101,11.8894098 15.1078572,11.8894098 C15.1604432,11.8633735 15.1999026,11.824319 15.2787419,11.824319 L15.3049952,11.824319 C15.5152598,11.8503553 15.7385714,11.9284644 15.9882955,12.0197493 L16.0014221,12.0197493 C16.040802,12.0327675 16.0801818,12.0588038 16.1196412,12.071822 C16.1984805,12.1109554 16.2641932,12.1369918 16.3561591,12.163107 C16.3824123,12.163107 16.4086656,12.1761252 16.4349984,12.1761252 C16.448125,12.1761252 16.4612516,12.1761252 16.4743783,12.1891433 C16.5138377,12.2021615 16.5400909,12.2021615 16.5795503,12.2021615 C16.7766088,12.2021615 16.947414,12.0719009 17,11.9025069 C17,11.7461311 16.8554481,11.5376037 16.6189302,11.4725128 L16.6189302,11.4724339 Z M10.5353378,10.8339124 L9.95720954,11.1076096 L9.37908131,10.8339124 L9.23460891,10.2215061 L9.62872578,9.72634229 L10.2725667,9.72634229 L10.6667631,10.2215061 L10.5354173,10.8339124 L10.5353378,10.8339124 Z M13.9648069,9.47876037 C14.0667317,9.9096579 14.0977872,10.354057 14.0567728,10.794779 L12.0464108,10.2215061 C11.862479,10.1694335 11.7573865,9.98694238 11.7967663,9.80453021 C11.809893,9.75237863 11.8362257,9.70022705 11.8756056,9.66117254 L13.4655179,8.24077186 C13.6888296,8.6056751 13.8596348,9.02265103 13.9648069,9.47868147 L13.9648069,9.47876037 Z M12.8348037,7.45897158 L11.1135456,8.67084485 C10.9689936,8.76205094 10.7718556,8.7359357 10.6536365,8.59265693 C10.6142566,8.55352353 10.60113,8.50137195 10.5879238,8.44929927 L10.4697047,6.32520733 C11.3645524,6.42739819 12.1981633,6.82700862 12.8348037,7.45897158 Z M9.0243443,6.39029818 C9.16889625,6.36426184 9.30024202,6.3382255 9.44479397,6.31218916 L9.32657482,8.39706879 C9.3134482,8.57948097 9.16889625,8.7358568 8.97175826,8.7358568 C8.91925178,8.7358568 8.85353911,8.72283863 8.81407969,8.69680229 L7.06656837,7.45897158 C7.60531674,6.92467433 8.27541088,6.55977108 9.0243443,6.39037707 L9.0243443,6.39029818 Z M6.43585409,8.24069296 L7.9994336,9.62196024 C8.14398555,9.73928156 8.15711217,9.96074825 8.03889302,10.1041059 C7.9994336,10.1561786 7.94692712,10.195312 7.88121445,10.2084091 L5.84459923,10.794779 C5.76575995,9.90867557 5.96281838,9.00955396 6.43585409,8.24069296 Z M6.08103753,11.7720885 L8.17031835,11.4202034 C8.34112354,11.4071853 8.49880211,11.5245066 8.53818197,11.6939006 C8.5513086,11.7720096 8.5513086,11.8372583 8.52505535,11.902428 L7.72353589,13.8179136 C6.98772908,13.3487861 6.39647422,12.6320767 6.08111709,11.7720885 L6.08103753,11.7720885 Z M10.8770277,14.3652291 C10.5747972,14.4303988 10.2725667,14.4694533 9.95720954,14.4694533 C9.49738001,14.4694533 9.05059755,14.3913443 8.63022744,14.2610048 L9.6681852,12.3975919 C9.77327773,12.2802705 9.94408292,12.2281979 10.0886349,12.3063858 C10.1499861,12.3436579 10.2035214,12.3923041 10.2463134,12.4496645 L11.258018,14.2610048 C11.1397988,14.3000593 11.0083735,14.3261746 10.8769482,14.3652291 L10.8770277,14.3652291 Z M13.4391851,12.5539677 C13.1107014,13.0751679 12.6770455,13.4921438 12.1778361,13.8179136 L11.3500634,11.8501975 C11.310604,11.6939006 11.3763167,11.5245066 11.5339952,11.4462398 C11.5865017,11.4202034 11.6522144,11.4071853 11.717927,11.4071853 L13.8202549,11.7590703 C13.7414156,12.0457068 13.6099903,12.3063858 13.4391851,12.5539677 Z"/>
  </g>
</svg>
