<svg xmlns="http://www.w3.org/2000/svg" width="20" height="20" viewBox="0 0 20 20">
  <g fill="none">
    <path fill="#E35333" d="M10,20 C4.4771525,20 0,15.5228475 0,10 C0,4.4771525 4.4771525,0 10,0 C15.5228475,0 20,4.4771525 20,10 C20,15.5228475 15.5228475,20 10,20 Z M10,19.1666667 C15.0626102,19.1666667 19.1666667,15.0626102 19.1666667,10 C19.1666667,4.93738979 15.0626102,0.833333333 10,0.833333333 C4.93738979,0.833333333 0.833333333,4.93738979 0.833333333,10 C0.833333333,15.0626102 4.93738979,19.1666667 10,19.1666667 Z"/>
    <g transform="translate(3 7)">
      <path fill="#000" d="M5.71906215,1.82847458 L5.0079887,5.85111864 L3.38267797,5.85111864 L3.88042938,3.01698305 C3.93122034,2.74271186 3.96169492,2.50907345 3.9820113,2.3160678 C4.00232768,2.12306215 4.00232768,1.96053107 3.96169492,1.84879096 C3.93122034,1.72689266 3.86011299,1.63546893 3.76868927,1.58467797 C3.66710734,1.53388701 3.52489266,1.50341243 3.32172881,1.50341243 C3.15919774,1.50341243 3.00682486,1.5440452 2.84429379,1.61515254 C2.68176271,1.68625989 2.52938983,1.76752542 2.39733333,1.84879096 L1.68625989,5.87143503 L0.0609491525,5.87143503 L1.05645198,0.203163842 L2.68176271,0.203163842 L2.5700226,0.832971751 C2.89508475,0.589175141 3.18967232,0.396169492 3.47410169,0.253954802 C3.74837288,0.111740113 4.04296045,0.0507909605 4.35786441,0.0507909605 C4.69308475,0.0507909605 4.96735593,0.132056497 5.19083616,0.304745763 C5.41431638,0.467276836 5.56668927,0.711073446 5.65811299,1.03613559 C6.0339661,0.731389831 6.38950282,0.48759322 6.72472316,0.314903955 C7.0599435,0.142214689 7.37484746,0.0507909605 7.66943503,0.0507909605 C8.2179774,0.0507909605 8.59383051,0.233638418 8.80715254,0.599333333 C9.02047458,0.965028249 9.07126554,1.49325424 8.94936723,2.1840113 L8.29924294,5.87143503 L6.6739322,5.87143503 L7.17168362,3.03729944 C7.22247458,2.76302825 7.25294915,2.51923164 7.28342373,2.32622599 C7.30374011,2.13322034 7.30374011,1.98084746 7.27326554,1.85894915 C7.24279096,1.73705085 7.18184181,1.64562712 7.08025989,1.59483616 C6.97867797,1.5440452 6.82630508,1.51357062 6.62314124,1.51357062 C6.49108475,1.51357062 6.34887006,1.5440452 6.21681356,1.59483616 C6.09491525,1.62531073 5.92222599,1.70657627 5.71906215,1.82847458 Z"/>
      <path fill="#FF6804" d="M12.0258448,5.32289266 C11.934421,5.38384181 11.8328391,5.45494915 11.7007826,5.53621469 C11.5687261,5.61748023 11.456986,5.67842938 11.3452459,5.72922034 C11.192873,5.79016949 11.0405001,5.84096045 10.8881272,5.87143503 C10.7357544,5.9019096 10.5630651,5.9120678 10.3802176,5.9120678 C9.95357357,5.9120678 9.62851142,5.7800113 9.38471481,5.51589831 C9.1409182,5.25178531 9.05965266,4.91656497 9.13076001,4.51023729 C9.19170916,4.18517514 9.30344927,3.92106215 9.48629673,3.70774011 C9.66914419,3.50457627 9.90278261,3.3420452 10.187212,3.22014689 C10.4716414,3.09824859 10.8170199,3.01698305 11.2131894,2.96619209 C11.6093589,2.91540113 12.0258448,2.87476836 12.4524888,2.85445198 L12.4524888,2.83413559 C12.4931216,2.59033898 12.4220142,2.41764972 12.2391668,2.32622599 C12.0563193,2.23480226 11.7617318,2.1840113 11.3757205,2.1840113 C11.142082,2.1840113 10.877969,2.22464407 10.6036979,2.3059096 C10.3192685,2.38717514 10.1161046,2.45828249 9.99420633,2.49891525 L9.88246622,2.49891525 L10.0754719,1.42214689 C10.2380029,1.38151412 10.4817996,1.33072316 10.8373363,1.2799322 C11.1827148,1.22914124 11.5280933,1.19866667 11.8734719,1.19866667 C12.6861272,1.19866667 13.254986,1.32056497 13.56989,1.57451977 C13.8847939,1.82847458 13.996534,2.21448588 13.9051103,2.75287006 L13.3565679,5.79016949 L11.9445792,5.79016949 L12.0258448,5.32289266 Z M12.1477431,4.6219774 L12.3102741,3.69758192 C12.1172685,3.71789831 11.9039464,3.73821469 11.670308,3.75853107 C11.4366696,3.78900565 11.2639803,3.81948023 11.142082,3.86011299 C10.9897092,3.90074576 10.8678109,3.97185311 10.7763871,4.05311864 C10.6849634,4.13438418 10.6240142,4.25628249 10.6036979,4.38833898 C10.5833815,4.47976271 10.5833815,4.55087006 10.5833815,4.61181921 C10.5833815,4.67276836 10.6240142,4.72355932 10.6748052,4.77435028 C10.7255962,4.82514124 10.7967035,4.86577401 10.8678109,4.8860904 C10.9490764,4.90640678 11.0811329,4.92672316 11.2538222,4.92672316 C11.3960368,4.92672316 11.5484097,4.89624859 11.7007826,4.83529944 C11.8531555,4.77435028 12.0258448,4.72355932 12.1477431,4.6219774 Z"/>
    </g>
  </g>
</svg>
