<svg xmlns="http://www.w3.org/2000/svg" xmlns:xlink="http://www.w3.org/1999/xlink" width="20" height="20" viewBox="0 0 20 20">
  <defs>
    <linearGradient id="nodejs-a" x1="68.188%" x2="27.823%" y1="17.487%" y2="89.755%">
      <stop offset="0%" stop-color="#41873F"/>
      <stop offset="32.88%" stop-color="#418B3D"/>
      <stop offset="63.52%" stop-color="#419637"/>
      <stop offset="93.19%" stop-color="#3FA92D"/>
      <stop offset="100%" stop-color="#3FAE2A"/>
    </linearGradient>
    <path id="nodejs-b" d="M2.96865967,0.0435791016 C2.87498894,-0.00974311898 2.76014778,-0.00974311898 2.66647705,0.0435791016 L0.171855469,1.48338135 C0.0770068359,1.53670166 0.0236865234,1.63744629 0.0236865234,1.74408691 L0.0236865234,4.62984375 C0.0236865234,4.73648438 0.0829541016,4.837229 0.171855469,4.89054932 L2.66647705,6.3304541 C2.76014778,6.38377632 2.87498894,6.38377632 2.96865967,6.3304541 L5.46333252,4.89054932 C5.55812988,4.837229 5.61150146,4.73648438 5.61150146,4.62984375 L5.61150146,1.74413818 C5.61150146,1.63749756 5.55218262,1.53675293 5.46333252,1.48343262 L2.96865967,0.0435791016 Z"/>
    <linearGradient id="nodejs-d" x1="43.277%" x2="159.245%" y1="55.169%" y2="-18.306%">
      <stop offset="13.76%" stop-color="#41873F"/>
      <stop offset="40.32%" stop-color="#54A044"/>
      <stop offset="71.36%" stop-color="#66B848"/>
      <stop offset="90.81%" stop-color="#6CC04A"/>
    </linearGradient>
    <path id="nodejs-e" d="M2.96865967,0.0435791016 C2.87498894,-0.00974311898 2.76014778,-0.00974311898 2.66647705,0.0435791016 L0.171855469,1.48338135 C0.0770068359,1.53670166 0.0236865234,1.63744629 0.0236865234,1.74408691 L0.0236865234,4.62984375 C0.0236865234,4.73648438 0.0829541016,4.837229 0.171855469,4.89054932 L2.66647705,6.3304541 C2.76014778,6.38377632 2.87498894,6.38377632 2.96865967,6.3304541 L5.46333252,4.89054932 C5.55812988,4.837229 5.61150146,4.73648438 5.61150146,4.62984375 L5.61150146,1.74413818 C5.61150146,1.63749756 5.55218262,1.53675293 5.46333252,1.48343262 L2.96865967,0.0435791016 Z"/>
    <linearGradient id="nodejs-g" x1="-4413.77%" x2="5327.93%" y1="13.43%" y2="13.43%">
      <stop offset="9.192%" stop-color="#6CC04A"/>
      <stop offset="28.64%" stop-color="#66B848"/>
      <stop offset="59.68%" stop-color="#54A044"/>
      <stop offset="86.24%" stop-color="#41873F"/>
    </linearGradient>
    <linearGradient id="nodejs-h" x1="-4.389%" x2="101.499%" y1="49.997%" y2="49.997%">
      <stop offset="9.192%" stop-color="#6CC04A"/>
      <stop offset="28.64%" stop-color="#66B848"/>
      <stop offset="59.68%" stop-color="#54A044"/>
      <stop offset="86.24%" stop-color="#41873F"/>
    </linearGradient>
    <linearGradient id="nodejs-i" x1="-9713.77%" x2="27.93%" y1="36.21%" y2="36.21%">
      <stop offset="9.192%" stop-color="#6CC04A"/>
      <stop offset="28.64%" stop-color="#66B848"/>
      <stop offset="59.68%" stop-color="#54A044"/>
      <stop offset="86.24%" stop-color="#41873F"/>
    </linearGradient>
    <linearGradient id="nodejs-j" x1="-103.861%" x2="100.797%" y1="50.275%" y2="50.275%">
      <stop offset="9.192%" stop-color="#6CC04A"/>
      <stop offset="28.64%" stop-color="#66B848"/>
      <stop offset="59.68%" stop-color="#54A044"/>
      <stop offset="86.24%" stop-color="#41873F"/>
    </linearGradient>
    <linearGradient id="nodejs-k" x1="130.613%" x2="4.393%" y1="-211.069%" y2="201.605%">
      <stop offset="0%" stop-color="#41873F"/>
      <stop offset="32.88%" stop-color="#418B3D"/>
      <stop offset="63.52%" stop-color="#419637"/>
      <stop offset="93.19%" stop-color="#3FA92D"/>
      <stop offset="100%" stop-color="#3FAE2A"/>
    </linearGradient>
  </defs>
  <g fill="none">
    <path fill="#499735" d="M10,20 C4.4771525,20 0,15.5228475 0,10 C0,4.4771525 4.4771525,0 10,0 C15.5228475,0 20,4.4771525 20,10 C20,15.5228475 15.5228475,20 10,20 Z M10,19.1666667 C15.0626102,19.1666667 19.1666667,15.0626102 19.1666667,10 C19.1666667,4.93738979 15.0626102,0.833333333 10,0.833333333 C4.93738979,0.833333333 0.833333333,4.93738979 0.833333333,10 C0.833333333,15.0626102 4.93738979,19.1666667 10,19.1666667 Z"/>
    <g transform="translate(4 6)">
      <path fill="#333" d="M5.64108398,2.49353516 C5.64108398,2.38689453 5.58181641,2.28609863 5.48701904,2.23277832 L2.97460693,0.786977539 C2.93307861,0.763239746 2.88570557,0.751396484 2.83833252,0.745449219 L2.81459473,0.745449219 C2.76722168,0.745449219 2.71979736,0.763239746 2.67832031,0.786977539 L0.165908203,2.23277832 C0.0710595703,2.28609863 0.0118432617,2.38684326 0.0118432617,2.49353516 L0.0177905273,6.38063721 C0.0177905273,6.43395752 0.0474243164,6.48727783 0.0947973633,6.51101562 C0.14222168,6.54064941 0.201437988,6.54064941 0.242966309,6.51101562 L1.73619141,5.65773682 C1.83098877,5.6044165 1.89025635,5.50367187 1.89025635,5.39703125 L1.89025635,3.57788574 C1.89025635,3.47124512 1.94947266,3.37050049 2.04432129,3.31718018 L2.67832031,2.94978271 C2.72574463,2.92014893 2.77906494,2.90825439 2.83238525,2.90825439 C2.88570557,2.90825439 2.93902588,2.92014893 2.9805542,2.94978271 L3.61455322,3.31718018 C3.70940186,3.37050049 3.76861816,3.47119385 3.76861816,3.57788574 L3.76861816,5.39703125 C3.76861816,5.50367187 3.82788574,5.6044165 3.92268311,5.65773682 L5.4159082,6.51101562 C5.46333252,6.54064941 5.52254883,6.54064941 5.56997314,6.51101562 C5.61739746,6.48727783 5.64703125,6.43395752 5.64703125,6.38063721 L5.64108398,2.49353516 Z"/>
      <g transform="translate(6)">
        <path fill="url(#nodejs-a)" d="M2.96865967,0.0435791016 C2.87498894,-0.00974311898 2.76014778,-0.00974311898 2.66647705,0.0435791016 L0.171855469,1.48338135 C0.0770068359,1.53670166 0.0236865234,1.63744629 0.0236865234,1.74408691 L0.0236865234,4.62984375 C0.0236865234,4.73648438 0.0829541016,4.837229 0.171855469,4.89054932 L2.66647705,6.3304541 C2.76014778,6.38377632 2.87498894,6.38377632 2.96865967,6.3304541 L5.46333252,4.89054932 C5.55812988,4.837229 5.61150146,4.73648438 5.61150146,4.62984375 L5.61150146,1.74413818 C5.61150146,1.63749756 5.55218262,1.53675293 5.46333252,1.48343262 L2.96865967,0.0435791016 Z" transform="translate(.874 .79)"/>
        <g transform="translate(.874 .79)">
          <mask id="nodejs-c" fill="#fff">
            <use xlink:href="#nodejs-b"/>
          </mask>
          <g mask="url(#nodejs-c)">
            <path d="M2.66052979,0.0435791016 L0.160012207,1.48338135 C0.0651123047,1.53675293 0,1.63754883 0,1.74418945 L0,4.62994629 C0,4.70105713 0.0296337891,4.7662207 0.0770068359,4.81954102 L2.88570557,0.00799804687 C2.81459473,-0.00384521484 2.73164062,0.00205078125 2.66052979,0.043527832 L2.66052979,0.0435791016 Z M2.90349609,6.36013916 C2.92718262,6.35419189 2.95092041,6.34234863 2.97460693,6.33050537 L5.47517578,4.89060059 C5.57002441,4.83728027 5.62924072,4.73653564 5.62924072,4.62989502 L5.62924072,1.74413818 C5.62924072,1.66713135 5.59365967,1.59007324 5.54033936,1.53675293 L2.90354736,6.36013916 L2.90349609,6.36013916 Z"/>
            <path fill="url(#nodejs-d)" d="M5.46922852,1.48343262 L2.96276367,0.0435791016 C2.93813617,0.0311425391 2.9123202,0.0212146407 2.88570557,0.0139453125 L0.0770068359,4.82548828 C0.100272756,4.85389406 0.128372809,4.87796743 0.160012207,4.89659912 L2.66647705,6.33650391 C2.73758789,6.37798096 2.82054199,6.38982422 2.89754883,6.36608643 L5.53444336,1.54275146 C5.51665283,1.51906494 5.49291504,1.50122314 5.46922852,1.48348389 L5.46922852,1.48343262 Z"/>
          </g>
        </g>
        <g transform="translate(.874 .79)">
          <mask id="nodejs-f" fill="#fff">
            <use xlink:href="#nodejs-e"/>
          </mask>
          <g mask="url(#nodejs-f)">
            <g transform="translate(0 -.513)">
              <path d="M5.62924072,5.14259033 L5.62924072,2.2568335 C5.62924072,2.15019287 5.56407715,2.04944824 5.46927979,1.99612793 L2.96266113,0.556274414 C2.93369038,0.53838194 2.90150723,0.526313258 2.86791504,0.520744629 L5.61139893,5.20780518 C5.62324219,5.19001465 5.62918945,5.16632813 5.62918945,5.1426416 L5.62924072,5.14259033 Z M0.159960937,1.99612793 C0.0652148437,2.04944824 0,2.15024414 0,2.25688477 L0,5.1426416 C0,5.24928223 0.0711108398,5.35002686 0.159960937,5.40334717 L2.66647705,6.84325195 C2.72574463,6.87878174 2.7909082,6.89067627 2.86201904,6.87878174 L0.177751465,1.99018066 L0.160012207,1.99612793 L0.159960937,1.99612793 Z"/>
              <polygon fill="url(#nodejs-g)" points="2.894 .029 2.548 .202 3.01 .202"/>
              <path fill="url(#nodejs-h)" d="M5.47517578,5.4032959 C5.54628662,5.36181885 5.59960693,5.29070801 5.62334473,5.21370117 L2.87381104,0.520693359 C2.8027002,0.508850098 2.72564209,0.514746094 2.66052979,0.556223145 L0.171804199,1.99023193 L2.85602051,6.88467773 C2.8950574,6.8782863 2.93297386,6.86632086 2.9686084,6.84914795 L5.47512451,5.40334717 L5.47517578,5.4032959 Z"/>
              <polygon fill="url(#nodejs-i)" points="5.862 5.615 5.689 5.326 5.689 5.731 5.862 5.615"/>
              <path fill="url(#nodejs-j)" d="M5.47517578,5.4032959 L2.97460693,6.84320068 C2.93930605,6.86120173 2.90125805,6.87320868 2.86201904,6.87873047 L2.90944336,6.96763184 L5.68256104,5.36187012 L5.68256104,5.32628906 L5.6114502,5.20775391 C5.59960693,5.29070801 5.54628662,5.36181885 5.47517578,5.4032959 Z"/>
              <path fill="url(#nodejs-k)" d="M5.47517578,5.4032959 L2.97460693,6.84320068 C2.93930605,6.86120173 2.90125805,6.87320868 2.86201904,6.87873047 L2.90944336,6.96763184 L5.68256104,5.36187012 L5.68256104,5.32628906 L5.6114502,5.20775391 C5.59960693,5.29070801 5.54628662,5.36181885 5.47517578,5.4032959 Z"/>
            </g>
          </g>
        </g>
      </g>
    </g>
  </g>
</svg>
