<svg xmlns="http://www.w3.org/2000/svg" width="20" height="20" viewBox="0 0 20 20">
  <defs>
    <linearGradient id="python-a" x1="12.959%" x2="79.639%" y1="12.039%" y2="78.201%">
      <stop offset="0%" stop-color="#387EB8"/>
      <stop offset="100%" stop-color="#366994"/>
    </linearGradient>
    <linearGradient id="python-b" x1="19.128%" x2="90.742%" y1="20.579%" y2="88.429%">
      <stop offset="0%" stop-color="#FFE052"/>
      <stop offset="100%" stop-color="#FFC331"/>
    </linearGradient>
  </defs>
  <g fill="none">
    <path fill="#346B9A" d="M10,20 C4.4771525,20 0,15.5228475 0,10 C0,4.4771525 4.4771525,0 10,0 C15.5228475,0 20,4.4771525 20,10 C20,15.5228475 15.5228475,20 10,20 Z M10,19.1666667 C15.0626102,19.1666667 19.1666667,15.0626102 19.1666667,10 C19.1666667,4.93738979 15.0626102,0.833333333 10,0.833333333 C4.93738979,0.833333333 0.833333333,4.93738979 0.833333333,10 C0.833333333,15.0626102 4.93738979,19.1666667 10,19.1666667 Z"/>
    <g transform="translate(4 4)">
      <path fill="url(#python-a)" d="M5.9491875,0.00338823529 C2.9101875,0.00338823529 3.0999375,1.32644706 3.0999375,1.32644706 L3.1033125,2.69717647 L6.003375,2.69717647 L6.003375,3.10870588 L1.95145312,3.10870588 C1.95145312,3.10870588 0.006796875,2.88729412 0.006796875,5.96564706 C0.006796875,9.04409412 1.70414062,8.93491765 1.70414062,8.93491765 L2.71710937,8.93491765 L2.71710937,7.5064 C2.71710937,7.5064 2.6625,5.8024 4.38735937,5.8024 L7.26370312,5.8024 C7.26370312,5.8024 8.87971875,5.82861176 8.87971875,4.23444706 L8.87971875,1.59858824 C8.87971875,1.59858824 9.12515625,0.00338823529 5.9491875,0.00338823529 Z M4.35009375,0.925176471 C4.4885003,0.92505146 4.62127387,0.980193509 4.71914212,1.07844556 C4.81701037,1.17669761 4.87193702,1.30999185 4.8718125,1.44894118 C4.87193702,1.5878905 4.81701037,1.72118475 4.71914212,1.8194368 C4.62127387,1.91768884 4.4885003,1.97283089 4.35009375,1.97270588 C4.2116872,1.97283089 4.07891363,1.91768884 3.98104538,1.8194368 C3.88317713,1.72118475 3.82825048,1.5878905 3.828375,1.44894118 C3.82825048,1.30999185 3.88317713,1.17669761 3.98104538,1.07844556 C4.07891363,0.980193509 4.2116872,0.92505146 4.35009375,0.925176471 Z"/>
      <path fill="url(#python-b)" d="M6.03548437,11.9588706 C9.07448437,11.9588706 8.88473437,10.6358118 8.88473437,10.6358118 L8.88135937,9.26512941 L5.98125,9.26512941 L5.98125,8.8536 L10.0331719,8.8536 C10.0331719,8.8536 11.9778281,9.07501176 11.9778281,5.99656471 C11.9778281,2.91816471 10.2804844,3.02734118 10.2804844,3.02734118 L9.26751562,3.02734118 L9.26751562,4.45581176 C9.26751562,4.45581176 9.322125,6.15981176 7.59726562,6.15981176 L4.72092187,6.15981176 C4.72092187,6.15981176 3.10490625,6.1336 3.10490625,7.72781176 L3.10490625,10.3637176 C3.10490625,10.3637176 2.85951562,11.9588706 6.0354375,11.9588706 L6.03548437,11.9588706 Z M7.63457812,11.0371765 C7.49617157,11.0373015 7.36339801,10.9821594 7.26552975,10.8839074 C7.1676615,10.7856553 7.11273485,10.6523611 7.11285937,10.5134118 C7.1127224,10.3744543 7.16764355,10.2411479 7.26551315,10.1428857 C7.36338276,10.0446235 7.49616344,9.98947497 7.63457812,9.9896 C7.77298468,9.98947499 7.90575824,10.044617 8.0036265,10.1428691 C8.10149475,10.2411211 8.1564214,10.3744154 8.15629688,10.5133647 C8.1564214,10.652314 8.10149475,10.7856083 8.0036265,10.8838603 C7.90575824,10.9821124 7.77298468,11.0372544 7.63457813,11.0371294 L7.63457812,11.0371765 Z"/>
    </g>
  </g>
</svg>
