<svg xmlns="http://www.w3.org/2000/svg" width="169" height="32" viewBox="0 0 169 32">
  <g fill="none" fill-rule="evenodd" transform="translate(-20 -8)">
    <rect width="200" height="48"/>
    <g fill="#FFF" transform="translate(20 8)">
      <polygon points="3.26 11.315 0 9.432 0 24.471 13.042 32 13.042 28.235 3.26 22.588"/>
      <polygon points="14.128 3.765 23.927 9.422 27.186 7.54 14.128 0 1.07 7.54 4.329 9.422"/>
      <polygon points="24.996 11.315 24.996 22.588 15.215 28.235 15.215 32 28.257 24.471 28.257 9.432"/>
      <g transform="translate(7.467 1.067)">
        <path d="M4.35626667,12.27296 C3.84533333,12.26976 3.4272,12.68256 3.42506667,13.1934933 C3.4208,13.7054933 3.83466667,14.1214933 4.3456,14.1246933 C4.85866667,14.1278933 5.27573333,13.71616 5.2768,13.20416 C5.28106667,12.6932267 4.86826667,12.2750933 4.35626667,12.27296"/>
        <path d="M2.19061333 12.9458133L1.31061333 12.2002133 2.41568 11.6551467C2.95754667 10.0722133 4.47328 8.87648 6.20448 8.87648 8.36448 8.87648 10.21728 10.72928 10.21728 12.8903467L10.21728 19.9911467 10.21728 20.6098133C2.85514667 18.7858133 2.20128 15.1143467 2.19061333 12.9458133M6.20448 6.74314667C2.87221333 6.74314667.0562133333 9.55808.0562133333 12.8903467.0562133333 17.8002133 3.30208 21.09408 9.70421333 22.6802133L12.3506133 23.3362133 12.3506133 20.6098133 12.3506133 19.9911467 12.3506133 12.8903467C12.3506133 9.55808 9.53568 6.74314667 6.20448 6.74314667M34.08128 10.0760533C34.5538133 9.52778667 34.7906133 8.83872 34.7906133 8.00885333 34.7906133 7.17792 34.5538133 6.48672 34.08128 5.93312 33.6087467 5.37952 32.99648 5.10325333 32.24768 5.10325333 31.5095467 5.10325333 30.90368 5.37952 30.4311467 5.93312 29.9586133 6.48672 29.7218133 7.17792 29.7218133 8.00885333 29.7218133 8.83872 29.95648 9.52778667 30.4226133 10.0760533 30.8898133 10.62432 31.4978133 10.8973867 32.24768 10.8973867 32.99648 10.8973867 33.6087467 10.62432 34.08128 10.0760533M36.4855467 3.49365333C36.6818133 3.69098667 36.77888 3.94378667 36.77888 4.25525333L36.77888 11.57152C36.77888 11.87232 36.6818133 12.1229867 36.4855467 12.32352 36.28928 12.5261867 36.0418133 12.62752 35.74208 12.62752 35.44128 12.62752 35.1970133 12.5293867 35.0071467 12.33312 34.8151467 12.13792 34.7159467 11.88832 34.7042133 11.5896533 34.4151467 11.92352 34.0258133 12.20832 33.5362133 12.44512 33.0466133 12.6808533 32.5303467 12.80032 31.98848 12.80032 31.1927467 12.80032 30.47168 12.5944533 29.8274133 12.18592 29.1799467 11.77632 28.67008 11.2088533 28.29568 10.4824533 27.92128 9.75605333 27.7335467 8.93152 27.7335467 8.00885333 27.7335467 7.08618667 27.91808 6.25952 28.28608 5.52672 28.6562133 4.79498667 29.1607467 4.22432 29.79968 3.81472 30.4407467 3.40512 31.14688 3.20032 31.9191467 3.20032 32.47168 3.20032 32.9922133 3.30058667 33.47648 3.50325333 33.95968 3.70378667 34.3703467 3.96192 34.7042133 4.27338667L34.7042133 4.25525333C34.7042133 3.95552 34.8023467 3.70378667 34.9975467 3.50325333 35.1938133 3.30058667 35.44128 3.20032 35.74208 3.20032 36.0418133 3.20032 36.28928 3.29845333 36.4855467 3.49365333M49.5479467 10.0760533C50.02048 9.52778667 50.25728 8.83872 50.25728 8.00885333 50.25728 7.17792 50.02048 6.48672 49.5479467 5.93312 49.0754133 5.37952 48.4631467 5.10325333 47.7143467 5.10325333 46.9762133 5.10325333 46.3703467 5.37952 45.8978133 5.93312 45.42528 6.48672 45.18848 7.17792 45.18848 8.00885333 45.18848 8.83872 45.4231467 9.52778667 45.88928 10.0760533 46.35648 10.62432 46.96448 10.8973867 47.7143467 10.8973867 48.4631467 10.8973867 49.0754133 10.62432 49.5479467 10.0760533M51.9522133 3.49365333C52.14848 3.69098667 52.2455467 3.94378667 52.2455467 4.25525333L52.2455467 11.57152C52.2455467 11.87232 52.14848 12.1229867 51.9522133 12.32352 51.7559467 12.5261867 51.50848 12.62752 51.2087467 12.62752 50.9079467 12.62752 50.66368 12.5293867 50.4738133 12.33312 50.2818133 12.13792 50.1826133 11.88832 50.17088 11.5896533 49.8818133 11.92352 49.49248 12.20832 49.00288 12.44512 48.51328 12.6808533 47.9970133 12.80032 47.4551467 12.80032 46.6594133 12.80032 45.9383467 12.5944533 45.29408 12.18592 44.6466133 11.77632 44.1367467 11.2088533 43.7623467 10.4824533 43.3879467 9.75605333 43.2002133 8.93152 43.2002133 8.00885333 43.2002133 7.08618667 43.3847467 6.25952 43.7527467 5.52672 44.12288 4.79498667 44.6274133 4.22432 45.2663467 3.81472 45.9074133 3.40512 46.6135467 3.20032 47.3858133 3.20032 47.9383467 3.20032 48.45888 3.30058667 48.9431467 3.50325333 49.4263467 3.70378667 49.8370133 3.96192 50.17088 4.27338667L50.17088 4.25525333C50.17088 3.95552 50.2690133 3.70378667 50.4642133 3.50325333 50.66048 3.30058667 50.9079467 3.20032 51.2087467 3.20032 51.50848 3.20032 51.7559467 3.29845333 51.9522133 3.49365333M82.08128 10.0760533C82.5538133 9.52778667 82.7906133 8.83872 82.7906133 8.00885333 82.7906133 7.17792 82.5538133 6.48672 82.08128 5.93312 81.6087467 5.37952 80.99648 5.10325333 80.24768 5.10325333 79.5095467 5.10325333 78.90368 5.37952 78.4311467 5.93312 77.9586133 6.48672 77.7218133 7.17792 77.7218133 8.00885333 77.7218133 8.83872 77.95648 9.52778667 78.4226133 10.0760533 78.8898133 10.62432 79.4978133 10.8973867 80.24768 10.8973867 80.99648 10.8973867 81.6087467 10.62432 82.08128 10.0760533M84.4855467 3.49365333C84.6818133 3.69098667 84.77888 3.94378667 84.77888 4.25525333L84.77888 11.57152C84.77888 11.87232 84.6818133 12.1229867 84.4855467 12.32352 84.28928 12.5261867 84.0418133 12.62752 83.74208 12.62752 83.44128 12.62752 83.1970133 12.5293867 83.0071467 12.33312 82.8151467 12.13792 82.7159467 11.88832 82.7042133 11.5896533 82.4151467 11.92352 82.0258133 12.20832 81.5362133 12.44512 81.0466133 12.6808533 80.5303467 12.80032 79.98848 12.80032 79.1927467 12.80032 78.47168 12.5944533 77.8274133 12.18592 77.1799467 11.77632 76.67008 11.2088533 76.29568 10.4824533 75.92128 9.75605333 75.7335467 8.93152 75.7335467 8.00885333 75.7335467 7.08618667 75.91808 6.25952 76.28608 5.52672 76.6562133 4.79498667 77.1607467 4.22432 77.79968 3.81472 78.4407467 3.40512 79.14688 3.20032 79.9191467 3.20032 80.47168 3.20032 80.9922133 3.30058667 81.47648 3.50325333 81.95968 3.70378667 82.3703467 3.96192 82.7042133 4.27338667L82.7042133 4.25525333C82.7042133 3.95552 82.8023467 3.70378667 82.9975467 3.50325333 83.1938133 3.30058667 83.44128 3.20032 83.74208 3.20032 84.0418133 3.20032 84.28928 3.29845333 84.4855467 3.49365333M40.7552 12.5010133C40.5482667 12.70048 40.2890667 12.79968 39.9808 12.79968 39.6853333 12.79968 39.4368 12.70048 39.2352 12.5010133 39.0336 12.3015467 38.9333333 12.0519467 38.9333333 11.7554133L38.9333333 1.04501333C38.9333333.747413333 39.0368.499946667 39.2437333.299413333 39.4506667.0999466667 39.7098667-.00032 40.0181333-.00032 40.3136-.00032 40.5621333.0999466667 40.7637333.299413333 40.9653333.499946667 41.0666667.747413333 41.0666667 1.04501333L41.0666667 11.7554133C41.0666667 12.0519467 40.9621333 12.3015467 40.7552 12.5010133M62.1499733 3.50837333C62.34944 3.71317333 62.44864 3.96917333 62.44864 4.27530667L62.44864 8.74890667C62.44864 10.0171733 62.09984 11.0091733 61.4011733 11.7249067 60.7025067 12.4417067 59.7073067 12.8001067 58.4155733 12.8001067 57.12384 12.8001067 56.13184 12.4417067 55.4385067 11.7249067 54.74624 11.0091733 54.3995733 10.0171733 54.3995733 8.74890667L54.3995733 4.27530667C54.3995733 3.96917333 54.4987733 3.71317333 54.6993067 3.50837333 54.8987733 3.30357333 55.1505067 3.20010667 55.4577067 3.20010667 55.7627733 3.20010667 56.01344 3.30357333 56.2139733 3.50837333 56.41344 3.71317333 56.5137067 3.96917333 56.5137067 4.27530667L56.5137067 8.74890667C56.5137067 9.46464 56.6715733 9.99584 56.9883733 10.3425067 57.30624 10.6891733 57.7809067 10.86304 58.4155733 10.86304 59.0609067 10.86304 59.54304 10.6891733 59.8609067 10.3425067 60.17664 9.99584 60.3355733 9.46464 60.3355733 8.74890667L60.3355733 4.27530667C60.3355733 3.96917333 60.43584 3.71317333 60.6353067 3.50837333 60.8347733 3.30357333 61.0875733 3.20010667 61.39264 3.20010667 61.6977067 3.20010667 61.9505067 3.30357333 62.1499733 3.50837333M70.7969067 10.1114667C71.26304 9.57066667 71.49664 8.8912 71.49664 8.072 71.49664 7.2528 71.26304 6.57013333 70.7969067 6.024 70.3307733 5.47786667 69.72704 5.2048 68.98784 5.2048 68.2593067 5.2048 67.66304 5.47786667 67.19584 6.024 66.7297067 6.57013333 66.4961067 7.2528 66.4961067 8.072 66.4961067 8.8912 66.7275733 9.57066667 67.1873067 10.1114667 67.6481067 10.6522667 68.2475733 10.9221333 68.98784 10.9221333 69.72704 10.9221333 70.3307733 10.6522667 70.7969067 10.1114667M73.1691733.2896C73.36224.483733333 73.4593067.733333333 73.4593067 1.04053333L73.4593067 11.5877333C73.4593067 11.8832 73.36224 12.1317333 73.1691733 12.3301333 72.9761067 12.5296 72.7307733 12.6288 72.4353067 12.6288 72.13984 12.6288 71.8977067 12.5328 71.7099733 12.3386667 71.52224 12.1456 71.42304 11.9013333 71.4113067 11.6048 71.1275733 11.9354667 70.7425067 12.2170667 70.2593067 12.4496 69.7761067 12.6821333 69.26624 12.8005333 68.73184 12.8005333 67.9467733 12.8005333 67.2353067 12.5978667 66.5985067 12.1936 65.9617067 11.7893333 65.4571733 11.2293333 65.0881067 10.5125333 64.71904 9.79573333 64.53344 8.98186667 64.53344 8.072 64.53344 7.16106667 64.71584 6.34613333 65.0795733 5.62293333 65.4433067 4.9008 65.94144 4.3376 66.5729067 3.93333333 67.2043733 3.53013333 67.9009067 3.32746667 68.6635733 3.32746667 69.2097067 3.32746667 69.7217067 3.42666667 70.1995733 3.62613333 70.67744 3.82453333 71.0817067 4.0784 71.4113067 4.3856L71.4113067 1.04053333C71.4113067.745066667 71.5083733.4976 71.70144.298133333 71.8945067.0986666667 72.13984.000533333333 72.4353067.000533333333 72.7307733.000533333333 72.9761067.0965333333 73.1691733.2896M36.1405867 19.4072533C36.1405867 19.5864533 36.0808533 19.7496533 35.9613867 19.9000533 35.8429867 20.0589867 35.6776533 20.1389867 35.4685867 20.1389867 35.3288533 20.1389867 35.1944533 20.1037867 35.0653867 20.0344533 34.4477867 19.6856533 33.78112 19.5117867 33.06432 19.5117867 32.3176533 19.5117867 31.6584533 19.6760533 31.08672 20.0045867 30.51392 20.33312 30.0680533 20.79392 29.7501867 21.3848533 29.4312533 21.97792 29.27232 22.6573867 29.27232 23.42432 29.27232 24.2509867 29.4365867 24.9624533 29.7640533 25.5597867 30.0925867 26.15712 30.54592 26.6125867 31.1229867 26.9261867 31.70112 27.2397867 32.34752 27.3965867 33.06432 27.3965867 33.8013867 27.3965867 34.46912 27.21632 35.0653867 26.85792 35.1848533 26.7992533 35.3149867 26.76832 35.4536533 26.76832 35.6733867 26.76832 35.8472533 26.8536533 35.9773867 27.0232533 36.0957867 27.17152 36.1565867 27.33152 36.1565867 27.50112 36.1565867 27.6205867 36.12352 27.7325867 36.05952 27.8360533 35.9933867 27.9416533 35.9069867 28.0237867 35.7981867 28.08352 35.4088533 28.3021867 34.9736533 28.47712 34.4904533 28.6061867 34.00832 28.7352533 33.5325867 28.80032 33.06432 28.80032 32.0989867 28.80032 31.2104533 28.58592 30.39872 28.1581867 29.5869867 27.7304533 28.9405867 27.10752 28.4573867 26.29152 27.9752533 25.4744533 27.73312 24.5197867 27.73312 23.42432 27.73312 22.4184533 27.9645867 21.51072 28.4285867 20.6989867 28.8904533 19.8872533 29.52832 19.2504533 30.3400533 18.78752 31.15072 18.32352 32.05952 18.09312 33.06432 18.09312 34.0296533 18.09312 34.93632 18.3320533 35.7821867 18.8088533 36.0221867 18.9400533 36.1405867 19.1384533 36.1405867 19.4072533M43.3312 23.2968533C43.1072 22.8744533 42.8032 22.54592 42.4202667 22.3112533 42.0362667 22.0776533 41.6117333 21.96032 41.1434667 21.96032 40.6752 21.96032 40.2496 22.0776533 39.8666667 22.3112533 39.4837333 22.54592 39.1786667 22.8744533 38.9546667 23.2968533 38.7317333 23.72032 38.6197333 24.2013867 38.6197333 24.7389867 38.6197333 25.26592 38.7317333 25.7384533 38.9546667 26.1576533 39.1786667 26.57472 39.4837333 26.90112 39.8666667 27.1357867 40.2496 27.36832 40.6752 27.48672 41.1434667 27.48672 41.6117333 27.48672 42.0362667 27.36832 42.4202667 27.1357867 42.8032 26.90112 43.1072 26.57472 43.3312 26.1576533 43.5552 25.7384533 43.6661333 25.26592 43.6661333 24.7389867 43.6661333 24.2013867 43.5552 23.72032 43.3312 23.2968533M44.5632 26.8296533C44.2144 27.4461867 43.7397333 27.9293867 43.136 28.27712 42.5344 28.62592 41.8698667 28.7997867 41.1434667 28.7997867 40.4170667 28.7997867 39.7525333 28.62592 39.1498667 28.27712 38.5472 27.9293867 38.0714667 27.4461867 37.7237333 26.8296533 37.3749333 26.2109867 37.2010667 25.5144533 37.2010667 24.7389867 37.2010667 23.9613867 37.3749333 23.25952 37.7237333 22.63232 38.0714667 22.00512 38.5472 21.5176533 39.1498667 21.1688533 39.7525333 20.82112 40.4170667 20.6472533 41.1434667 20.6472533 41.8698667 20.6472533 42.5344 20.82112 43.136 21.1688533 43.7397333 21.5176533 44.2144 22.00512 44.5632 22.63232 44.9109333 23.25952 45.0858667 23.9613867 45.0858667 24.7389867 45.0858667 25.5144533 44.9109333 26.2109867 44.5632 26.8296533M53.4030933 23.8718933L53.4030933 27.9348267C53.4030933 28.1332267 53.33696 28.30176 53.20256 28.4414933 53.06816 28.5812267 52.89536 28.65056 52.6862933 28.65056 52.4878933 28.65056 52.3204267 28.5812267 52.1860267 28.4414933 52.0516267 28.30176 51.9844267 28.1332267 51.9844267 27.9348267L51.9844267 23.8878933C51.9844267 23.30016 51.8500267 22.8318933 51.5812267 22.4830933 51.3124267 22.13536 50.8750933 21.9604267 50.26816 21.9604267 49.8692267 21.9604267 49.5086933 22.0478933 49.1844267 22.22176 48.8612267 22.3956267 48.60736 22.6302933 48.4228267 22.9236267 48.2382933 23.2180267 48.14656 23.5390933 48.14656 23.8878933L48.14656 27.9348267C48.14656 28.1332267 48.0804267 28.30176 47.94496 28.4414933 47.81056 28.5812267 47.6398933 28.65056 47.42976 28.65056 47.2206933 28.65056 47.05216 28.58336 46.9220267 28.44896 46.79296 28.31456 46.7278933 28.1428267 46.7278933 27.9348267L46.7278933 21.5422933C46.7278933 21.3438933 46.79616 21.1742933 46.93056 21.03456 47.06496 20.8958933 47.23136 20.82656 47.42976 20.82656 47.6398933 20.82656 47.81056 20.8958933 47.94496 21.03456 48.0804267 21.1742933 48.14656 21.3438933 48.14656 21.5422933L48.14656 22.0660267C48.4046933 21.6670933 48.7662933 21.3310933 49.2292267 21.05696 49.69216 20.7828267 50.1870933 20.64736 50.7150933 20.64736 52.5070933 20.64736 53.4030933 21.7214933 53.4030933 23.8718933M57.6448 22.2146133L57.6448 26.6647467C57.6448 27.16288 57.8688 27.4114133 58.3168 27.4114133 58.3861333 27.4114133 58.4810667 27.39328 58.6005333 27.3591467 58.72 27.3239467 58.8149333 27.30688 58.8842667 27.30688 59.0133333 27.30688 59.1232 27.36128 59.2128 27.4711467 59.3024 27.5799467 59.3472 27.71968 59.3472 27.88928 59.3472 28.0983467 59.2266667 28.2775467 58.9888 28.42688 58.7498667 28.5762133 58.4810667 28.65088 58.1824 28.65088 57.8538667 28.65088 57.552 28.61568 57.2789333 28.5463467 57.0048 28.4770133 56.7616 28.2999467 56.5472 28.0151467 56.3328 27.73248 56.2261333 27.3026133 56.2261333 26.72448L56.2261333 22.2146133 55.3589333 22.2146133C55.1712 22.2146133 55.0133333 22.15168 54.8896 22.0279467 54.7648 21.9031467 54.7029333 21.7474133 54.7029333 21.5575467 54.7029333 21.3687467 54.7648 21.21408 54.8896 21.0946133 55.0133333 20.9751467 55.1712 20.9154133 55.3589333 20.9154133L56.2261333 20.9154133 56.2261333 19.6599467C56.2261333 19.4615467 56.2922667 19.2930133 56.4266667 19.15328 56.5610667 19.0135467 56.7338667 18.9442133 56.9429333 18.9442133 57.1413333 18.9442133 57.3088 19.0135467 57.4432 19.15328 57.5776 19.2930133 57.6448 19.4615467 57.6448 19.6599467L57.6448 20.9154133 58.8842667 20.9154133C59.0730667 20.9154133 59.2298667 20.9783467 59.3546667 21.10208 59.4794667 21.22688 59.5402667 21.38368 59.5402667 21.5714133 59.5402667 21.76128 59.4794667 21.9159467 59.3546667 22.0354133 59.2298667 22.15488 59.0730667 22.2146133 58.8842667 22.2146133L57.6448 22.2146133zM65.7458133 27.12704C66.1095467 26.8881067 66.3922133 26.56064 66.5970133 26.14144 66.8007467 25.7243733 66.9031467 25.2507733 66.9031467 24.7227733 66.9031467 24.2065067 66.8007467 23.7371733 66.5970133 23.3201067 66.3922133 22.9009067 66.1095467 22.5713067 65.7458133 22.3259733 65.38208 22.0827733 64.9671467 21.9601067 64.49888 21.9601067 64.03168 21.9601067 63.61568 22.08064 63.2519467 22.3185067 62.8882133 22.5585067 62.60448 22.8859733 62.4007467 23.3041067 62.1970133 23.7233067 62.0946133 24.19584 62.0946133 24.7227733 62.0946133 25.2507733 62.1970133 25.7243733 62.4007467 26.14144 62.60448 26.56064 62.8882133 26.8881067 63.2519467 27.12704 63.61568 27.36704 64.03168 27.4865067 64.49888 27.4865067 64.9671467 27.4865067 65.38208 27.36704 65.7458133 27.12704M68.06048 20.9233067C68.19488 21.0577067 68.26208 21.2347733 68.26208 21.45344L68.26208 27.9345067C68.26208 28.1329067 68.19488 28.3025067 68.06048 28.4411733 67.92608 28.5809067 67.7543467 28.6513067 67.54528 28.6513067 67.3362133 28.6513067 67.1666133 28.58304 67.0375467 28.44864 66.90848 28.31424 66.8434133 28.1425067 66.8434133 27.9345067L66.8434133 27.54624C66.5842133 27.89504 66.2311467 28.1905067 65.7831467 28.4347733 65.3351467 28.6779733 64.8519467 28.7995733 64.3346133 28.7995733 63.65728 28.7995733 63.04288 28.6257067 62.4903467 28.2769067 61.9378133 27.9291733 61.50368 27.44384 61.19008 26.8219733 60.8775467 26.19904 60.7207467 25.5003733 60.7207467 24.7227733 60.7207467 23.9473067 60.8775467 23.2475733 61.19008 22.62464 61.50368 22.0027733 61.93568 21.51744 62.48288 21.16864 63.03008 20.8209067 63.6327467 20.64704 64.2898133 20.64704 64.8178133 20.64704 65.3074133 20.75584 65.7607467 20.9745067 66.2130133 21.19424 66.5746133 21.47264 66.8434133 21.81184L66.8434133 21.45344C66.8434133 21.2433067 66.90848 21.06944 67.0375467 20.9297067 67.1666133 20.79104 67.3362133 20.72064 67.54528 20.72064 67.7543467 20.72064 67.92608 20.7889067 68.06048 20.9233067M71.5093333 28.4417067C71.3749333 28.58144 71.2032 28.6507733 70.9952 28.6507733 70.7946667 28.6507733 70.6282667 28.58144 70.4938667 28.4417067 70.3594667 28.3019733 70.2922667 28.13344 70.2922667 27.9339733L70.2922667 21.46784C70.2922667 21.2683733 70.3594667 21.09984 70.4938667 20.9601067 70.6282667 20.8203733 70.7946667 20.75104 70.9952 20.75104 71.2032 20.75104 71.3749333 20.8203733 71.5093333 20.9601067 71.6437333 21.09984 71.7109333 21.2683733 71.7109333 21.46784L71.7109333 27.9339733C71.7109333 28.13344 71.6437333 28.3019733 71.5093333 28.4417067M70.3754667 19.60864C70.2496 19.5041067 70.1888 19.3377067 70.1888 19.1083733L70.1888 18.86944C70.1888 18.6305067 70.2549333 18.4619733 70.3893333 18.3617067 70.5237333 18.2625067 70.7306667 18.2123733 71.0090667 18.2123733 71.2885333 18.2123733 71.4890667 18.26464 71.6149333 18.3691733 71.7386667 18.4737067 71.8005333 18.6411733 71.8005333 18.86944L71.8005333 19.1083733C71.8005333 19.3473067 71.7365333 19.5169067 71.6064 19.6161067 71.4773333 19.7153067 71.2725333 19.76544 70.9952 19.76544 70.7050667 19.76544 70.4992 19.7131733 70.3754667 19.60864M80.43232 23.8718933L80.43232 27.9348267C80.43232 28.1332267 80.3661867 28.30176 80.2317867 28.4414933 80.0973867 28.5812267 79.9245867 28.65056 79.71552 28.65056 79.51712 28.65056 79.3496533 28.5812267 79.2152533 28.4414933 79.0808533 28.30176 79.0136533 28.1332267 79.0136533 27.9348267L79.0136533 23.8878933C79.0136533 23.30016 78.8792533 22.8318933 78.6104533 22.4830933 78.3416533 22.13536 77.90432 21.9604267 77.2973867 21.9604267 76.8984533 21.9604267 76.53792 22.0478933 76.2136533 22.22176 75.8904533 22.3956267 75.6365867 22.6302933 75.4520533 22.9236267 75.26752 23.2180267 75.1757867 23.5390933 75.1757867 23.8878933L75.1757867 27.9348267C75.1757867 28.1332267 75.1096533 28.30176 74.9741867 28.4414933 74.8397867 28.5812267 74.66912 28.65056 74.4589867 28.65056 74.24992 28.65056 74.0813867 28.58336 73.9512533 28.44896 73.8221867 28.31456 73.75712 28.1428267 73.75712 27.9348267L73.75712 21.5422933C73.75712 21.3438933 73.8253867 21.1742933 73.9597867 21.03456 74.0941867 20.8958933 74.2605867 20.82656 74.4589867 20.82656 74.66912 20.82656 74.8397867 20.8958933 74.9741867 21.03456 75.1096533 21.1742933 75.1757867 21.3438933 75.1757867 21.5422933L75.1757867 22.0660267C75.43392 21.6670933 75.79552 21.3310933 76.2584533 21.05696 76.7213867 20.7828267 77.21632 20.64736 77.74432 20.64736 79.53632 20.64736 80.43232 21.7214933 80.43232 23.8718933M84.31456 22.4312533C83.9060267 22.7448533 83.6372267 23.2301867 83.50816 23.8872533L87.9134933 23.8872533 87.9134933 23.7677867C87.86336 23.2397867 87.62656 22.8077867 87.20416 22.4685867 86.78176 22.1304533 86.3006933 21.9608533 85.7630933 21.9608533 85.2052267 21.9608533 84.7230933 22.1176533 84.31456 22.4312533M89.19776 24.8952533C89.0580267 25.0200533 88.89376 25.0808533 88.70496 25.0808533L83.4484267 25.0808533C83.5188267 25.80832 83.7950933 26.39072 84.2772267 26.82912 84.7604267 27.2664533 85.3502933 27.4861867 86.0468267 27.4861867 86.5246933 27.4861867 86.9140267 27.4168533 87.2116267 27.27712 87.5102933 27.1373867 87.77376 26.9581867 88.0030933 26.73952 88.1534933 26.64992 88.2964267 26.60512 88.43616 26.60512 88.6046933 26.60512 88.7476267 26.6648533 88.8628267 26.78432 88.9758933 26.90272 89.0334933 27.0424533 89.0334933 27.2024533 89.0334933 27.41152 88.9342933 27.6013867 88.7358933 27.76992 88.44576 28.05792 88.0638933 28.3021867 87.58496 28.5005867 87.1070933 28.7000533 86.6196267 28.80032 86.1214933 28.80032 85.3150933 28.80032 84.60576 28.63072 83.9934933 28.2925867 83.3812267 27.9544533 82.9086933 27.4808533 82.5748267 26.87392 82.2420267 26.2669867 82.07456 25.5789867 82.07456 24.8120533 82.07456 23.9768533 82.24736 23.2429867 82.58976 22.6104533 82.9332267 21.97792 83.38656 21.4925867 83.9486933 21.1544533 84.5118933 20.8152533 85.1156267 20.64672 85.7630933 20.64672 86.3998933 20.64672 86.9982933 20.80992 87.5550933 21.13952 88.11296 21.4680533 88.5598933 21.92032 88.8990933 22.4973867 89.2372267 23.07552 89.41216 23.7229867 89.42176 24.4397867 89.41216 24.6189867 89.3374933 24.7704533 89.19776 24.8952533M95.6343467 20.8478933C95.8231467 20.9822933 95.91808 21.1486933 95.91808 21.34816 95.91808 21.5870933 95.8551467 21.7684267 95.7314133 21.8932267 95.6066133 22.0180267 95.4551467 22.0798933 95.2759467 22.0798933 95.1863467 22.0798933 95.0519467 22.0500267 94.8727467 21.9902933 94.66368 21.92096 94.4994133 21.8868267 94.3799467 21.8868267 94.0706133 21.8868267 93.7698133 21.9924267 93.47648 22.2068267 93.18208 22.4212267 92.9442133 22.71456 92.75968 23.08896 92.5751467 23.4612267 92.4834133 23.8772267 92.4834133 24.3358933L92.4834133 27.9348267C92.4834133 28.1332267 92.4162133 28.30176 92.2807467 28.4414933 92.1463467 28.5812267 91.97568 28.65056 91.7666133 28.65056 91.5575467 28.65056 91.3890133 28.58336 91.2578133 28.44896 91.1287467 28.31456 91.0647467 28.1428267 91.0647467 27.9348267L91.0647467 21.5422933C91.0647467 21.3438933 91.1319467 21.1742933 91.2663467 21.03456 91.4007467 20.8958933 91.5671467 20.8254933 91.7666133 20.8254933 91.97568 20.8254933 92.1463467 20.8958933 92.2807467 21.03456 92.4162133 21.1742933 92.4834133 21.3438933 92.4834133 21.5422933L92.4834133 22.3038933C92.70208 21.8164267 93.03168 21.4206933 93.4690133 21.1166933 93.9074133 20.81376 94.40448 20.6558933 94.9623467 20.64736 95.22048 20.64736 95.44448 20.7134933 95.6343467 20.8478933M106.476053 23.0135467C106.70432 22.83968 106.88672 22.6082133 107.02112 22.3191467 107.15552 22.03008 107.221653 21.7218133 107.221653 21.3922133 107.221653 20.8855467 107.07552 20.45568 106.78112 20.1015467 106.487787 19.7474133 106.136853 19.5703467 105.729387 19.5703467L102.92192 19.5703467 102.92192 23.27488 105.729387 23.27488C105.998187 23.27488 106.24672 23.1874133 106.476053 23.0135467M107.192853 18.6231467C107.640853 18.90688 107.996053 19.2930133 108.260587 19.78048 108.524053 20.2690133 108.65632 20.8066133 108.65632 21.3922133 108.65632 21.9799467 108.524053 22.52288 108.260587 23.0210133 107.996053 23.5191467 107.640853 23.9127467 107.192853 24.2007467 106.744853 24.4898133 106.25632 24.6338133 105.729387 24.6338133L102.92192 24.6338133 102.92192 27.93408C102.92192 28.1335467 102.855787 28.30208 102.72672 28.4418133 102.597653 28.5815467 102.433387 28.65088 102.23392 28.65088 102.024853 28.65088 101.858453 28.58368 101.73472 28.44928 101.60992 28.31488 101.548053 28.1431467 101.548053 27.93408L101.548053 18.9143467C101.548053 18.7159467 101.61632 18.5463467 101.756053 18.4066133 101.895787 18.2679467 102.06432 18.1975467 102.264853 18.1975467L105.729387 18.1975467C106.25632 18.1975467 106.744853 18.3394133 107.192853 18.6231467M111.65728 28.4417067C111.517547 28.58144 111.349013 28.6507733 111.149547 28.6507733 110.95008 28.6507733 110.78368 28.58144 110.64928 28.4417067 110.51488 28.3019733 110.44768 28.13344 110.44768 27.9339733L110.44768 18.3169067C110.44768 18.11744 110.51808 17.9489067 110.656747 17.8091733 110.795413 17.66944 110.96608 17.6001067 111.16448 17.6001067 111.363947 17.6001067 111.530347 17.66944 111.664747 17.8091733 111.799147 17.9489067 111.866347 18.11744 111.866347 18.3169067L111.866347 27.9339733C111.866347 28.13344 111.797013 28.3019733 111.65728 28.4417067M118.65312 27.12704C119.016853 26.8881067 119.300587 26.56064 119.505387 26.14144 119.708053 25.7243733 119.810453 25.2507733 119.810453 24.7227733 119.810453 24.2065067 119.708053 23.7371733 119.505387 23.3201067 119.300587 22.9009067 119.016853 22.5713067 118.65312 22.3259733 118.289387 22.0827733 117.874453 21.9601067 117.406187 21.9601067 116.938987 21.9601067 116.522987 22.08064 116.159253 22.3185067 115.79552 22.5585067 115.512853 22.8859733 115.308053 23.3041067 115.10432 23.7233067 115.00192 24.19584 115.00192 24.7227733 115.00192 25.2507733 115.10432 25.7243733 115.308053 26.14144 115.512853 26.56064 115.79552 26.8881067 116.159253 27.12704 116.522987 27.36704 116.938987 27.4865067 117.406187 27.4865067 117.874453 27.4865067 118.289387 27.36704 118.65312 27.12704M120.967787 20.9233067C121.103253 21.0577067 121.169387 21.2347733 121.169387 21.45344L121.169387 27.9345067C121.169387 28.1329067 121.103253 28.3025067 120.967787 28.4411733 120.833387 28.5809067 120.66272 28.6513067 120.452587 28.6513067 120.24352 28.6513067 120.074987 28.58304 119.944853 28.44864 119.815787 28.31424 119.75072 28.1425067 119.75072 27.9345067L119.75072 27.54624C119.49152 27.89504 119.138453 28.1905067 118.690453 28.4347733 118.242453 28.6779733 117.759253 28.7995733 117.242987 28.7995733 116.565653 28.7995733 115.951253 28.6257067 115.397653 28.2769067 114.846187 27.9291733 114.412053 27.44384 114.098453 26.8219733 113.78592 26.19904 113.628053 25.5003733 113.628053 24.7227733 113.628053 23.9473067 113.78592 23.2475733 114.098453 22.62464 114.412053 22.0027733 114.842987 21.51744 115.390187 21.16864 115.938453 20.8209067 116.54112 20.64704 117.198187 20.64704 117.72512 20.64704 118.215787 20.75584 118.66912 20.9745067 119.121387 21.19424 119.48192 21.47264 119.75072 21.81184L119.75072 21.45344C119.75072 21.2433067 119.815787 21.06944 119.944853 20.9297067 120.074987 20.79104 120.24352 20.72064 120.452587 20.72064 120.66272 20.72064 120.833387 20.7889067 120.967787 20.9233067M125.39584 22.2146133L125.39584 26.6647467C125.39584 27.16288 125.61984 27.4114133 126.06784 27.4114133 126.137173 27.4114133 126.232107 27.39328 126.351573 27.3591467 126.47104 27.3239467 126.565973 27.30688 126.635307 27.30688 126.764373 27.30688 126.87424 27.36128 126.96384 27.4711467 127.05344 27.5799467 127.09824 27.71968 127.09824 27.88928 127.09824 28.0983467 126.977707 28.2775467 126.73984 28.42688 126.500907 28.5762133 126.232107 28.65088 125.93344 28.65088 125.604907 28.65088 125.30304 28.61568 125.029973 28.5463467 124.75584 28.4770133 124.51264 28.2999467 124.29824 28.0151467 124.08384 27.73248 123.977173 27.3026133 123.977173 26.72448L123.977173 22.2146133 123.109973 22.2146133C122.92224 22.2146133 122.764373 22.15168 122.64064 22.0279467 122.51584 21.9031467 122.453973 21.7474133 122.453973 21.5575467 122.453973 21.3687467 122.51584 21.21408 122.64064 21.0946133 122.764373 20.9751467 122.92224 20.9154133 123.109973 20.9154133L123.977173 20.9154133 123.977173 19.6599467C123.977173 19.4615467 124.043307 19.2930133 124.177707 19.15328 124.312107 19.0135467 124.484907 18.9442133 124.693973 18.9442133 124.892373 18.9442133 125.05984 19.0135467 125.19424 19.15328 125.32864 19.2930133 125.39584 19.4615467 125.39584 19.6599467L125.39584 20.9154133 126.635307 20.9154133C126.824107 20.9154133 126.980907 20.9783467 127.105707 21.10208 127.230507 21.22688 127.291307 21.38368 127.291307 21.5714133 127.291307 21.76128 127.230507 21.9159467 127.105707 22.0354133 126.980907 22.15488 126.824107 22.2146133 126.635307 22.2146133L125.39584 22.2146133zM131.197867 19.18336C131.042133 19.3828267 130.965333 19.6260267 130.965333 19.9150933L130.965333 20.9604267 132.4448 20.9604267C132.6432 20.9604267 132.805333 21.02336 132.930133 21.1470933 133.053867 21.2718933 133.1168 21.4276267 133.1168 21.6164267 133.1168 21.8062933 133.053867 21.96096 132.930133 22.0804267 132.805333 22.1998933 132.6432 22.2596267 132.4448 22.2596267L130.965333 22.2596267 130.965333 27.9342933C130.965333 28.13376 130.8992 28.3022933 130.7648 28.4420267 130.6304 28.58176 130.458667 28.6510933 130.248533 28.6510933 130.050133 28.6510933 129.883733 28.58176 129.749333 28.4420267 129.614933 28.3022933 129.546667 28.13376 129.546667 27.9342933L129.546667 22.2596267 128.621867 22.2596267C128.432 22.2596267 128.273067 22.1998933 128.144 22.0804267 128.014933 21.96096 127.9488 21.8062933 127.9488 21.6164267 127.9488 21.4276267 128.014933 21.2718933 128.144 21.1470933 128.273067 21.02336 128.432 20.9604267 128.621867 20.9604267L129.546667 20.9604267 129.546667 19.9150933C129.546667 19.2174933 129.770667 18.6628267 130.219733 18.2500267 130.667733 17.83616 131.2992 17.6302933 132.1152 17.6302933 132.4544 17.6302933 132.753067 17.6932267 133.0112 17.81696 133.2704 17.94176 133.399467 18.1284267 133.399467 18.37696 133.399467 18.56576 133.342933 18.72256 133.227733 18.84736 133.1136 18.97216 132.977067 19.03296 132.818133 19.03296 132.7776 19.03296 132.6688 19.01376 132.4896 18.9742933 132.269867 18.91456 132.081067 18.8846933 131.922133 18.8846933 131.592533 18.8846933 131.352533 18.9838933 131.197867 19.18336M140.05312 23.2968533C139.82912 22.8744533 139.52512 22.54592 139.142187 22.3112533 138.758187 22.0776533 138.333653 21.96032 137.865387 21.96032 137.39712 21.96032 136.97152 22.0776533 136.588587 22.3112533 136.205653 22.54592 135.900587 22.8744533 135.676587 23.2968533 135.453653 23.72032 135.341653 24.2013867 135.341653 24.7389867 135.341653 25.26592 135.453653 25.7384533 135.676587 26.1576533 135.900587 26.57472 136.205653 26.90112 136.588587 27.1357867 136.97152 27.36832 137.39712 27.48672 137.865387 27.48672 138.333653 27.48672 138.758187 27.36832 139.142187 27.1357867 139.52512 26.90112 139.82912 26.57472 140.05312 26.1576533 140.27712 25.7384533 140.388053 25.26592 140.388053 24.7389867 140.388053 24.2013867 140.27712 23.72032 140.05312 23.2968533M141.28512 26.8296533C140.93632 27.4461867 140.461653 27.9293867 139.85792 28.27712 139.25632 28.62592 138.591787 28.7997867 137.865387 28.7997867 137.138987 28.7997867 136.474453 28.62592 135.871787 28.27712 135.26912 27.9293867 134.793387 27.4461867 134.445653 26.8296533 134.096853 26.2109867 133.922987 25.5144533 133.922987 24.7389867 133.922987 23.9613867 134.096853 23.25952 134.445653 22.63232 134.793387 22.00512 135.26912 21.5176533 135.871787 21.1688533 136.474453 20.82112 137.138987 20.6472533 137.865387 20.6472533 138.591787 20.6472533 139.25632 20.82112 139.85792 21.1688533 140.461653 21.5176533 140.93632 22.00512 141.28512 22.63232 141.632853 23.25952 141.807787 23.9613867 141.807787 24.7389867 141.807787 25.5144533 141.632853 26.2109867 141.28512 26.8296533M148.01984 20.8478933C148.20864 20.9822933 148.303573 21.1486933 148.303573 21.34816 148.303573 21.5870933 148.24064 21.7684267 148.116907 21.8932267 147.992107 22.0180267 147.84064 22.0798933 147.66144 22.0798933 147.57184 22.0798933 147.43744 22.0500267 147.25824 21.9902933 147.049173 21.92096 146.884907 21.8868267 146.76544 21.8868267 146.456107 21.8868267 146.155307 21.9924267 145.861973 22.2068267 145.567573 22.4212267 145.329707 22.71456 145.145173 23.08896 144.96064 23.4612267 144.868907 23.8772267 144.868907 24.3358933L144.868907 27.9348267C144.868907 28.1332267 144.801707 28.30176 144.66624 28.4414933 144.53184 28.5812267 144.361173 28.65056 144.152107 28.65056 143.94304 28.65056 143.774507 28.58336 143.643307 28.44896 143.51424 28.31456 143.45024 28.1428267 143.45024 27.9348267L143.45024 21.5422933C143.45024 21.3438933 143.51744 21.1742933 143.65184 21.03456 143.78624 20.8958933 143.95264 20.8254933 144.152107 20.8254933 144.361173 20.8254933 144.53184 20.8958933 144.66624 21.03456 144.801707 21.1742933 144.868907 21.3438933 144.868907 21.5422933L144.868907 22.3038933C145.087573 21.8164267 145.417173 21.4206933 145.854507 21.1166933 146.292907 20.81376 146.789973 20.6558933 147.34784 20.64736 147.605973 20.64736 147.829973 20.7134933 148.01984 20.8478933M161.205227 23.94688L161.205227 27.93408C161.205227 28.1431467 161.14016 28.31488 161.011093 28.44928 160.882027 28.58368 160.712427 28.65088 160.504427 28.65088 160.294293 28.65088 160.12256 28.5815467 159.98816 28.4418133 159.85376 28.30208 159.78656 28.1335467 159.78656 27.93408L159.78656 23.9618133C159.78656 22.65728 159.23936 22.0055467 158.143893 22.0055467 157.756693 22.0055467 157.404693 22.0930133 157.09216 22.26688 156.77856 22.4407467 156.533227 22.6775467 156.35936 22.9762133 156.185493 23.27488 156.098027 23.6034133 156.098027 23.9618133L156.098027 27.93408C156.098027 28.1335467 156.030827 28.30208 155.896427 28.4418133 155.762027 28.5815467 155.590293 28.65088 155.381227 28.65088 155.173227 28.65088 155.003627 28.58368 154.873493 28.44928 154.744427 28.31488 154.680427 28.1431467 154.680427 27.93408L154.680427 23.94688C154.680427 23.3591467 154.555627 22.8898133 154.306027 22.53568 154.057493 22.1826133 153.643627 22.0055467 153.06656 22.0055467 152.478827 22.0055467 151.993493 22.1911467 151.61056 22.5655467 151.227627 22.93888 151.036693 23.3986133 151.036693 23.94688L151.036693 27.93408C151.036693 28.1335467 150.968427 28.30208 150.834027 28.4418133 150.699627 28.5815467 150.527893 28.65088 150.318827 28.65088 150.110827 28.65088 149.94016 28.58368 149.811093 28.44928 149.682027 28.31488 149.618027 28.1431467 149.618027 27.93408L149.618027 21.5426133C149.618027 21.3442133 149.68416 21.1735467 149.81856 21.03488 149.95296 20.8962133 150.11936 20.8258133 150.318827 20.8258133 150.527893 20.8258133 150.699627 20.8962133 150.834027 21.03488 150.968427 21.1735467 151.036693 21.3442133 151.036693 21.5426133L151.036693 22.06528C151.294827 21.6770133 151.640427 21.3506133 152.073493 21.0871467 152.507627 20.8226133 152.97696 20.6914133 153.48576 20.6914133 154.719893 20.6914133 155.52096 21.2386133 155.890027 22.33408 156.108693 21.9159467 156.472427 21.53728 156.979093 21.1991467 157.487893 20.8599467 158.025493 20.6914133 158.59296 20.6914133 160.334827 20.6914133 161.205227 21.7762133 161.205227 23.94688"/>
      </g>
    </g>
  </g>
</svg>
