<?xml version="1.0" encoding="UTF-8"?>
<svg width="200px" height="48px" viewBox="0 0 200 48" version="1.1" xmlns="http://www.w3.org/2000/svg" xmlns:xlink="http://www.w3.org/1999/xlink">
    <!-- Generator: Sketch 49.1 (51147) - http://www.bohemiancoding.com/sketch -->
    <title>devops</title>
    <desc>Created with Sketch.</desc>
    <defs></defs>
    <g id="devops" stroke="none" stroke-width="1" fill="none" fill-rule="evenodd">
        <polygon id="Fill-1-Copy" fill="#fff" points="106 40 107 40 107 8 106 8"></polygon>
        <g id="Group-21-Copy" transform="translate(10.000000, 8.000000)" fill="#fff">
            <path d="M32,16.043 L32.0002216,32 L24.973,32 L24.973,24.802 L24.973,19.509 L24.973,15.928 C25.001,11.026 21.039,7.032 16.127,7.005 C12.146,6.983 8.763,9.573 7.605,13.163 L4.958,14.465 L7.183,16.308 C7.422,20.685 8.972,28.016 21.804,32 L15.914,32 C7.076,31.952 -0.049,24.682 -1.08420217e-19,15.87 C0.049,7.058 7.25,-0.048 16.088,5.32907052e-15 C24.923,0.047 32.046,7.23 32,16.043" id="Fill-2"></path>
            <path d="M14.1108,16.6719 C14.1078,17.6919 13.2738,18.5149 12.2508,18.5079 C11.2298,18.5029 10.4038,17.6709 10.4118,16.6509 C10.4158,15.6319 11.2498,14.8099 12.2718,14.8159 C13.2948,14.8199 14.1188,15.6509 14.1108,16.6719" id="Fill-5"></path>
            <path d="M74.028,4.208 L85.648,4.208 L85.648,3 L74.028,3 L74.028,4.208 Z M72,7.94 L87.676,7.94 L87.676,9.149 L76.648,9.149 L75.767,16.792 L83.626,16.792 C84.195,16.792 84.657,16.33 84.657,15.761 L84.304,12.242 L85.513,12.242 L85.866,15.761 C85.866,16.987 84.871,18 83.626,18 L74.345,18 L75.226,9.149 L72,9.149 L72,7.94 Z" id="Fill-7"></path>
            <path d="M58.9697,3.166 L58.0307,2.356 C56.9637,3.59 55.6747,4.657 54.0187,5.596 L54.6447,6.682 C56.4297,5.669 57.8097,4.51 58.9697,3.166" id="Fill-9"></path>
            <path d="M57.184,16.748 L62.358,16.748 L62.358,15.589 L57.184,15.589 L57.184,16.748 Z M57.184,14.338 L62.358,14.338 L62.358,13.049 L57.184,13.049 L57.184,14.338 Z M57.184,11.798 L62.358,11.798 L62.358,10.473 L57.184,10.473 L57.184,11.798 Z M57.184,9.185 C59.1,8.887 60.798,8.469 62.358,7.935 L62.358,9.222 L57.184,9.222 L57.184,9.185 Z M67.876,5.302 L69.533,6.627 L70.306,5.651 L66.146,2.283 L65.374,3.259 L66.772,4.399 C65.498,5.136 65.077,5.485 63.709,5.929 L63.709,2 L63.61,2 L62.358,2 L62.358,6.478 C60.223,7.049 56.945,8.043 54,8.282 L54.092,9.534 C54.718,9.479 55.344,9.424 55.933,9.35 L55.933,18 L57.184,18 L69.441,18 L69.441,16.748 L63.717,16.748 L63.717,15.589 L69.441,15.589 L69.441,14.338 L63.717,14.338 L63.717,13.049 L69.441,13.049 L69.441,11.798 L63.717,11.798 L63.717,10.473 L69.441,10.473 L69.441,9.222 L63.717,9.222 L63.717,7.427 C65.187,6.83 66.548,6.121 67.876,5.302 Z" id="Fill-10"></path>
            <path d="M37.0391,5.1533 L49.9041,5.1533 L49.9041,3.9173 C49.9041,3.5223 49.5991,3.2183 49.2051,3.2183 L37.0391,3.2183 L37.0391,2.0003 L49.2051,2.0003 C50.2441,2.0003 51.1221,2.8783 51.1221,3.9173 L51.1221,7.5013 C51.1221,8.5573 50.2441,9.4353 49.2051,9.4353 L37.0391,9.4353 L37.0391,8.2163 L49.2051,8.2163 C49.5991,8.2163 49.9041,7.8943 49.9041,7.5013 L49.9041,6.3893 L37.0391,6.3893 L37.0391,5.1533 Z" id="Fill-11"></path>
            <polygon id="Fill-12" points="40.4077 14.0049 37.0217 11.3349 37.7737 10.3669 41.1597 13.0369"></polygon>
            <path d="M46.9653,13.0732 C48.3623,12.3202 49.5993,11.4782 50.3873,10.4742 L51.3373,11.2272 C50.4413,12.3742 49.0793,13.3052 47.5563,14.1302 L46.9653,13.0732 Z" id="Fill-13"></path>
            <path d="M52.2056,16.6445 L52.2056,16.5975 C50.4386,16.2445 48.7296,15.3095 47.3176,14.2405 C45.9056,13.1715 44.9326,11.8865 44.3976,10.3845 C44.4316,10.2005 44.4596,10.0085 44.4856,9.8145 C44.0226,9.7945 43.5596,9.7855 43.0956,9.7805 C42.8876,11.5765 42.2786,13.0255 41.2676,14.1255 C40.1226,15.3735 38.3666,16.1345 35.9996,16.6445 L36.2866,17.9995 C36.2866,17.9995 37.7296,17.7455 38.9766,17.2365 C40.2366,16.7405 41.2676,16.0915 42.0696,15.2905 C42.8706,14.4885 43.4816,13.4905 43.9016,12.2935 C44.2196,12.9045 44.5946,13.4605 45.0276,13.9635 C45.4596,14.4665 45.9496,14.9275 46.4976,15.3475 C47.5916,16.1745 49.7666,17.5715 51.7196,17.9995 L52.2056,16.6445 Z" id="Fill-14"></path>
            <polygon id="Fill-15" points="46 32 48 32 48 20 46 20"></polygon>
            <path d="M68,28.123 C68,30.273 66.053,32 64,32 C61.929,32 60,30.273 60,28.123 L60,24.5 L62.265,24.5 L62.265,28.072 C62.265,28.58 62.46,29.055 62.744,29.393 C63.098,29.748 63.558,29.951 64,29.951 C64.442,29.951 64.902,29.748 65.239,29.393 C65.54,29.055 65.734,28.58 65.734,28.072 L65.734,24.5 L68,24.5 L68,28.123 Z" id="Fill-16"></path>
            <path d="M72.8262,29.5088 C73.1852,29.8848 73.6652,30.0888 74.1792,30.0888 C74.6932,30.0888 75.1902,29.8848 75.5492,29.5088 C75.9092,29.1338 76.1152,28.6218 76.1152,28.0938 C76.1152,27.5638 75.9092,27.0708 75.5492,26.6778 C75.1902,26.3018 74.6932,26.0968 74.1792,26.0968 C73.6652,26.0968 73.1852,26.3018 72.8262,26.6778 C72.4662,27.0708 72.2612,27.5638 72.2612,28.0938 C72.2612,28.6218 72.4662,29.1338 72.8262,29.5088 Z M76.6462,30.8908 C75.9432,31.5728 74.9672,31.9998 73.9052,31.9998 C71.7462,31.9998 70.0002,30.2598 70.0002,28.0938 C70.0002,25.9438 71.7462,24.1868 73.9052,24.1868 C74.9672,24.1868 75.9432,24.6128 76.6462,25.2948 L76.6462,19.8658 L78.6662,19.8658 L78.6662,31.7608 L76.6462,31.7608 L76.6462,30.8908 Z" id="Fill-17"></path>
            <path d="M40,30 C38.896,30 38,29.104 38,28 C38,26.896 38.896,26 40,26 C41.104,26 42,26.896 42,28 C42,29.104 41.104,30 40,30 M39.992,24 C37.778,24 36,25.789 36,28 C36,30.229 37.778,32 39.992,32 C40.82,32 41.586,31.754 42.222,31.334 L42.222,31.789 L44,31.789 L44,28 C44,25.789 42.222,24 39.992,24" id="Fill-18"></path>
            <path d="M54,30 C52.896,30 52,29.104 52,28 C52,26.896 52.896,26 54,26 C55.104,26 56,26.896 56,28 C56,29.104 55.104,30 54,30 M53.992,24 C51.778,24 50,25.789 50,28 C50,30.229 51.778,32 53.992,32 C54.82,32 55.586,31.754 56.222,31.334 L56.222,31.789 L58,31.789 L58,28 C58,25.789 56.222,24 53.992,24" id="Fill-19"></path>
            <path d="M84,30 C82.896,30 82,29.104 82,28 C82,26.896 82.896,26 84,26 C85.104,26 86,26.896 86,28 C86,29.104 85.104,30 84,30 M83.992,24 C81.778,24 80,25.789 80,28 C80,30.229 81.778,32 83.992,32 C84.82,32 85.586,31.754 86.222,31.334 L86.222,31.789 L88,31.789 L88,28 C88,25.789 86.222,24 83.992,24" id="Fill-20"></path>
        </g>
        <path d="M115,15.2418881 L119.988941,15.2418881 C124.302612,15.2418881 126.852515,17.9328929 126.852515,22.5086089 C126.852515,27.0944035 124.312691,29.7854083 119.988941,29.7854083 L115,29.7854083 L115,15.2418881 Z M116.814161,16.8746325 L116.814161,28.1526638 L119.867997,28.1526638 C123.163722,28.1526638 124.99804,26.1369299 124.99804,22.5287662 C124.99804,18.8903665 123.173801,16.8746325 119.867997,16.8746325 L116.814161,16.8746325 Z M133.624978,20.3618522 C131.921683,20.3618522 130.692085,21.6015286 130.571141,23.4358465 L136.547792,23.4358465 C136.507478,21.5914499 135.338352,20.3618522 133.624978,20.3618522 Z M136.507478,26.6811781 L138.241009,26.6811781 C137.938649,28.545732 136.053938,29.886195 133.735844,29.886195 C130.682007,29.886195 128.756981,27.7595957 128.756981,24.3933201 C128.756981,21.0270444 130.692085,18.8198158 133.655214,18.8198158 C136.557871,18.8198158 138.372032,20.8657857 138.372032,24.151432 L138.372032,24.8367815 L130.571141,24.8367815 L130.571141,24.9375682 C130.571141,27.0036955 131.841054,28.3441586 133.776158,28.3441586 C135.136779,28.3441586 136.195039,27.6991237 136.507478,26.6811781 Z M149.488401,18.9206025 L145.477091,29.7854083 L143.703245,29.7854083 L139.691934,18.9206025 L141.526252,18.9206025 L144.57001,27.8906184 L144.610325,27.8906184 L147.664162,18.9206025 L149.488401,18.9206025 Z M157.702114,15 C161.82429,15 164.404429,17.9026568 164.404429,22.5186875 C164.404429,27.1347182 161.82429,30.0272964 157.702114,30.0272964 C153.579938,30.0272964 150.999798,27.1347182 150.999798,22.5186875 C150.999798,17.9026568 153.579938,15 157.702114,15 Z M157.702114,16.6730592 C154.728906,16.6730592 152.864352,18.9306811 152.864352,22.5186875 C152.864352,26.0966152 154.728906,28.3542372 157.702114,28.3542372 C160.675321,28.3542372 162.539875,26.0966152 162.539875,22.5186875 C162.539875,18.9306811 160.675321,16.6730592 157.702114,16.6730592 Z M172.073893,18.8198158 C174.845528,18.8198158 176.730239,21.0371231 176.730239,24.3530054 C176.730239,27.6688877 174.855606,29.886195 172.114208,29.886195 C170.572172,29.886195 169.332495,29.2109242 168.647146,28.0216411 L168.606831,28.0216411 L168.606831,33.4137294 L166.853143,33.4137294 L166.853143,18.9206025 L168.516123,18.9206025 L168.516123,20.6843697 L168.556438,20.6843697 C169.191394,19.5555587 170.572172,18.8198158 172.073893,18.8198158 Z M171.751376,28.3240012 C173.666323,28.3240012 174.936236,26.7618074 174.936236,24.3530054 C174.936236,21.954282 173.666323,20.3820096 171.751376,20.3820096 C169.876743,20.3820096 168.596752,21.9945967 168.596752,24.3530054 C168.596752,26.7214928 169.876743,28.3240012 171.751376,28.3240012 Z M178.806042,21.954282 C178.806042,20.1199642 180.469022,18.8298945 182.827431,18.8298945 C185.034659,18.8298945 186.707719,20.1502002 186.778269,21.9341247 L185.095131,21.9341247 C184.984266,20.9161791 184.097343,20.2812229 182.766959,20.2812229 C181.426496,20.2812229 180.529494,20.9161791 180.529494,21.863574 C180.529494,22.5993169 181.114057,23.0931717 182.363812,23.4056105 L184.016714,23.8188359 C186.213864,24.3731627 187,25.1391416 187,26.7214928 C187,28.575968 185.216075,29.886195 182.706487,29.886195 C180.368235,29.886195 178.675019,28.6162826 178.503682,26.7315714 L180.267449,26.7315714 C180.448865,27.8402251 181.345866,28.4348666 182.827431,28.4348666 C184.308995,28.4348666 185.236233,27.8200677 185.236233,26.8424368 C185.236233,26.0764579 184.782693,25.6733111 183.543016,25.3507937 L181.638148,24.8569389 C179.733279,24.3630841 178.806042,23.4056105 178.806042,21.954282 Z" id="DevOps" fill="#fff"></path>
    </g>
</svg>