<svg aria-hidden="true" style="position: absolute; width: 0; height: 0; overflow: hidden;" version="1.1" xmlns="http://www.w3.org/2000/svg" xmlns:xlink="http://www.w3.org/1999/xlink">
<defs>
<symbol id="diablo-golang_file_line" viewBox="0 0 32 32">
<path d="M23.067 6.044h6.044v1.067h-6.044c-0.589 0-1.067-0.478-1.067-1.067v-6.044h1.067v6.044zM3.867 1.067v29.867h24.178v-24.889l-4.978-4.978h-19.2zM3.867 0h19.556l5.689 5.689v25.244c0 0.589-0.478 1.067-1.067 1.067h-24.178c-0.589 0-1.067-0.478-1.067-1.067v-29.867c0-0.589 0.478-1.067 1.067-1.067zM13.066 18.559h1.623v0.891c-0.214 0.166-0.47 0.307-0.769 0.424s-0.596 0.175-0.893 0.175c-0.6 0-1.085-0.208-1.456-0.625s-0.555-1.042-0.555-1.875c0-0.773 0.183-1.355 0.548-1.748s0.858-0.589 1.477-0.589c0.409 0 0.749 0.1 1.022 0.299s0.459 0.472 0.558 0.816l1.408-0.263c-0.14-0.645-0.456-1.15-0.946-1.516s-1.171-0.548-2.042-0.548c-0.67 0-1.231 0.117-1.681 0.35-0.591 0.303-1.039 0.739-1.346 1.307s-0.46 1.218-0.46 1.949c0 0.674 0.137 1.297 0.412 1.87s0.685 1.014 1.231 1.322c0.546 0.308 1.186 0.462 1.92 0.462 0.578 0 1.148-0.109 1.712-0.328s0.994-0.472 1.291-0.759v-2.797h-3.055v1.183zM17.107 18.525c0 0.584 0.11 1.080 0.33 1.487s0.542 0.716 0.965 0.927c0.423 0.211 0.868 0.316 1.334 0.316 0.753 0 1.378-0.253 1.875-0.759s0.745-1.144 0.745-1.913c0-0.763-0.246-1.394-0.737-1.894s-1.122-0.749-1.892-0.749c-0.498 0-0.949 0.11-1.353 0.33s-0.716 0.54-0.936 0.958c-0.22 0.418-0.33 0.851-0.33 1.298zM18.486 18.597c0-0.504 0.12-0.891 0.359-1.159s0.535-0.402 0.886-0.402c0.351 0 0.646 0.134 0.884 0.402s0.357 0.651 0.357 1.149c0 0.511-0.119 0.9-0.357 1.168s-0.532 0.402-0.884 0.402c-0.351 0-0.646-0.134-0.886-0.402s-0.359-0.654-0.359-1.159z"></path>
</symbol>
<symbol id="diablo-image_file_line" viewBox="0 0 32 32">
<path d="M23.067 6.044h6.044v1.067h-7.111v-7.111h1.067v6.044zM3.867 1.067v29.867h24.178v-24.889l-4.978-4.978h-19.2zM3.867 0h19.556l5.689 5.689v25.244c0 0.589-0.478 1.067-1.067 1.067h-24.178c-0.589 0-1.067-0.478-1.067-1.067v-29.867c0-0.589 0.478-1.067 1.067-1.067zM18.928 10.175c-4.1-1.642-8.755 0.351-10.397 4.451s0.351 8.757 4.451 10.398 8.756-0.351 10.398-4.451c1.643-4.101-0.351-8.756-4.452-10.398zM13.354 24.097c-3.582-1.435-5.33-5.516-3.895-9.098s5.516-5.33 9.099-3.895c3.582 1.434 5.33 5.516 3.895 9.098-1.435 3.583-5.516 5.33-9.099 3.895zM17.070 14.816c-1.538-0.616-3.283 0.132-3.899 1.669s0.132 3.283 1.669 3.899c1.538 0.616 3.283-0.131 3.899-1.669s-0.131-3.284-1.669-3.899zM15.213 19.456c-1.024-0.409-1.523-1.576-1.113-2.599s1.576-1.523 2.599-1.113c1.024 0.41 1.523 1.577 1.114 2.6-0.41 1.023-1.577 1.523-2.6 1.113zM16.328 16.672c-0.512-0.205-1.095 0.044-1.3 0.556s0.044 1.094 0.556 1.3c0.512 0.205 1.095-0.044 1.3-0.556s-0.044-1.094-0.556-1.3zM15.77 18.064c-0.256-0.103-0.38-0.394-0.278-0.65 0.103-0.256 0.394-0.38 0.65-0.278s0.38 0.394 0.278 0.65-0.394 0.38-0.65 0.278zM19.669 19.087c0.051-0.128-0.012-0.273-0.139-0.324-0.128-0.052-0.273 0.011-0.325 0.139v-0c-0.359 0.898-1.049 1.564-1.872 1.916-0.126 0.054-0.185 0.201-0.131 0.327s0.201 0.186 0.328 0.132c0.005-0.002 0.007-0.006 0.011-0.008 0.936-0.405 1.719-1.163 2.127-2.182h0.001zM21.385 19.505c-0.128-0.052-0.273 0.011-0.325 0.139-0.564 1.41-1.647 2.457-2.941 3.011-0.126 0.054-0.185 0.201-0.131 0.328s0.201 0.185 0.328 0.131c0.006-0.003 0.011-0.009 0.017-0.011 1.404-0.606 2.579-1.745 3.192-3.273 0.051-0.128-0.012-0.273-0.139-0.325zM20.456 19.133c-0.128-0.052-0.273 0.011-0.325 0.139-0.461 1.154-1.346 2.010-2.405 2.463h0.001c-0.127 0.055-0.186 0.201-0.132 0.328s0.201 0.185 0.328 0.131c0.005-0.003 0.008-0.007 0.014-0.010 1.17-0.505 2.149-1.453 2.659-2.727 0.051-0.128-0.012-0.273-0.139-0.325zM14.71 14.055c-0.055-0.127-0.201-0.185-0.328-0.131-0.005 0.002-0.007 0.005-0.011 0.007-0.936 0.405-1.72 1.164-2.127 2.182h-0.001c-0.052 0.128 0.011 0.273 0.139 0.325s0.274-0.011 0.325-0.139h0.001c0.359-0.897 1.048-1.564 1.871-1.915 0.127-0.055 0.186-0.201 0.131-0.329zM13.923 12.217c-0.055-0.127-0.201-0.185-0.328-0.131-0.006 0.002-0.011 0.008-0.015 0.011-1.405 0.607-2.579 1.745-3.192 3.273-0.052 0.129 0.011 0.274 0.139 0.325s0.273-0.011 0.325-0.139c0.565-1.409 1.647-2.456 2.941-3.010 0.126-0.055 0.185-0.201 0.131-0.328zM14.185 13.464h0.001c0.126-0.054 0.186-0.2 0.131-0.328s-0.201-0.185-0.328-0.131c-0.005 0.002-0.008 0.007-0.013 0.009-1.17 0.506-2.149 1.455-2.659 2.728-0.052 0.128 0.011 0.273 0.138 0.325s0.273-0.011 0.325-0.139c0.461-1.154 1.347-2.010 2.405-2.463v-0.002z"></path>
</symbol>
<symbol id="diablo-java_file_line" viewBox="0 0 32 32">
<path d="M23.067 6.044h6.044v1.067h-6.044c-0.589 0-1.067-0.478-1.067-1.067v-6.044h1.067v6.044zM3.867 1.067v29.867h24.178v-24.889l-4.978-4.978h-19.2zM3.867 0h19.556l5.689 5.689v25.244c0 0.589-0.478 1.067-1.067 1.067h-24.178c-0.589 0-1.067-0.478-1.067-1.067v-29.867c0-0.589 0.478-1.067 1.067-1.067zM15.87 12.387c-0.795 0.559-1.695 1.192-2.178 2.24-0.838 1.828 1.715 3.823 1.824 3.907 0.025 0.020 0.056 0.029 0.086 0.029 0.032 0 0.064-0.011 0.091-0.033 0.051-0.042 0.065-0.114 0.035-0.173-0.009-0.018-0.926-1.798-0.892-3.075 0.012-0.445 0.635-0.949 1.294-1.484 0.604-0.489 1.288-1.044 1.688-1.693 0.879-1.428-0.098-2.832-0.108-2.846-0.039-0.054-0.11-0.074-0.172-0.047s-0.095 0.093-0.081 0.159c0.002 0.009 0.192 0.938-0.337 1.895-0.218 0.395-0.696 0.732-1.25 1.122zM19.218 13.016c0.056-0.042 0.073-0.119 0.039-0.181s-0.108-0.089-0.174-0.064c-0.135 0.051-3.306 1.274-3.306 2.75 0 1.018 0.435 1.556 0.752 1.949 0.125 0.154 0.232 0.287 0.267 0.401 0.1 0.327-0.137 0.919-0.236 1.119-0.029 0.058-0.015 0.127 0.034 0.169 0.026 0.023 0.059 0.034 0.092 0.034 0.028 0 0.056-0.008 0.080-0.025 0.055-0.038 1.332-0.941 1.103-2.030-0.085-0.414-0.289-0.716-0.468-0.983-0.278-0.413-0.479-0.712-0.174-1.263 0.357-0.643 1.973-1.864 1.989-1.876zM10.965 19.218c-0.054 0.163-0.029 0.324 0.074 0.467 0.344 0.477 1.561 0.74 3.428 0.74 0 0 0 0 0 0 0.253 0 0.52-0.005 0.794-0.015 2.985-0.107 4.093-1.037 4.138-1.076 0.050-0.043 0.063-0.115 0.032-0.173s-0.098-0.087-0.162-0.070c-1.051 0.287-3.015 0.389-4.376 0.389-1.524 0-2.3-0.11-2.49-0.191 0.098-0.134 0.699-0.373 1.444-0.519 0.071-0.014 0.12-0.080 0.113-0.152s-0.068-0.127-0.14-0.127c-0.437 0-2.627 0.035-2.856 0.727zM20.954 18.26c-0.616 0-1.2 0.309-1.224 0.322-0.057 0.030-0.086 0.096-0.070 0.159s0.072 0.107 0.137 0.107c0.013 0 1.313 0.011 1.431 0.754 0.104 0.641-1.23 1.68-1.753 2.026-0.056 0.037-0.078 0.11-0.052 0.172 0.022 0.053 0.074 0.086 0.13 0.086 0.010 0 0.020-0.001 0.029-0.003 0.124-0.026 3.037-0.668 2.729-2.364-0.188-1.039-0.841-1.257-1.356-1.257zM18.957 21.419c0.010-0.054-0.012-0.11-0.058-0.141l-0.698-0.489c-0.034-0.024-0.077-0.031-0.117-0.021-0.007 0.002-0.738 0.194-1.798 0.312-0.421 0.047-0.892 0.072-1.363 0.072-1.060 0-1.753-0.125-1.854-0.216-0.013-0.026-0.009-0.037-0.007-0.044 0.018-0.051 0.117-0.112 0.18-0.136 0.070-0.026 0.108-0.102 0.086-0.173s-0.095-0.113-0.168-0.096c-0.701 0.169-1.043 0.405-1.018 0.703 0.044 0.527 1.265 0.797 2.296 0.869 0.148 0.010 0.309 0.015 0.477 0.015 0 0 0 0 0 0 1.716 0 3.915-0.538 3.937-0.544 0.054-0.013 0.095-0.057 0.105-0.111zM13.692 22.549c0.053-0.034 0.076-0.1 0.058-0.16s-0.075-0.1-0.138-0.099c-0.094 0.002-0.919 0.040-0.976 0.565-0.017 0.157 0.027 0.3 0.134 0.426 0.296 0.351 1.095 0.56 2.443 0.638 0.159 0.010 0.321 0.014 0.482 0.014 1.714 0 2.868-0.537 2.916-0.559 0.047-0.022 0.078-0.068 0.081-0.12s-0.023-0.101-0.067-0.128l-0.883-0.539c-0.031-0.019-0.067-0.025-0.102-0.018-0.006 0.001-0.566 0.117-1.412 0.232-0.16 0.022-0.36 0.033-0.596 0.033-0.845 0-1.784-0.138-1.965-0.228-0.003-0.017 0.001-0.038 0.026-0.057zM14.894 25.553c3.925-0.003 6.032-0.701 6.438-1.141 0.144-0.155 0.159-0.303 0.147-0.399-0.030-0.236-0.245-0.381-0.27-0.397-0.059-0.038-0.138-0.028-0.184 0.025s-0.047 0.13-0.001 0.183c0.025 0.032 0.039 0.085-0.033 0.158-0.162 0.151-1.799 0.611-4.523 0.75-0.373 0.019-0.765 0.029-1.163 0.029-2.439 0-4.225-0.334-4.459-0.529 0.090-0.13 0.722-0.337 1.393-0.454 0.076-0.013 0.127-0.085 0.115-0.16s-0.082-0.128-0.158-0.118c-0.019 0.003-0.083 0.006-0.158 0.011-1.108 0.068-2.389 0.218-2.455 0.789-0.020 0.174 0.031 0.332 0.154 0.469 0.299 0.336 1.159 0.783 5.158 0.783 0 0 0 0 0 0zM22.103 24.537c-0.055-0.026-0.121-0.013-0.162 0.032-0.006 0.006-0.596 0.623-2.37 0.986-0.679 0.136-1.954 0.205-3.79 0.205-1.839 0-3.589-0.072-3.606-0.073-0.073-0.004-0.136 0.050-0.146 0.122s0.036 0.14 0.107 0.156c0.018 0.004 1.852 0.434 4.359 0.434 1.203 0 2.373-0.098 3.478-0.29 2.061-0.361 2.205-1.383 2.211-1.427 0.007-0.061-0.025-0.119-0.081-0.145z"></path>
</symbol>
<symbol id="diablo-jenkins_file" viewBox="0 0 32 32">
<path d="M23.067 6.044h6.044v1.067h-6.044c-0.589 0-1.067-0.478-1.067-1.067v-6.044h1.067v6.044zM3.867 1.067v29.867h24.178v-24.889l-4.978-4.978h-19.2zM3.867 0h19.556l5.689 5.689v25.244c0 0.589-0.478 1.067-1.067 1.067h-24.178c-0.589 0-1.067-0.478-1.067-1.067v-29.867c0-0.589 0.478-1.067 1.067-1.067z"></path>
<path d="M12.726 24.577h-0.459c-0.739 0-1.226-0.115-1.463-0.355s-0.351-0.735-0.351-1.488v-1.609c0-0.857-0.179-1.444-0.529-1.762-0.11-0.1-0.119-0.108-0.161-0.145-0.345-0.3-0.66-0.43-1.394-0.516l-0.627-0.074 0.626-0.084c0.772-0.104 1.093-0.238 1.45-0.542 0.034-0.029 0.036-0.031 0.13-0.113 0.333-0.292 0.505-0.878 0.505-1.761v-2.063c0-0.748 0.113-1.242 0.35-1.484s0.725-0.359 1.464-0.359h0.459v-0.941h-0.413c-1.262 0-2.102 0.185-2.518 0.546-0.413 0.359-0.624 1.094-0.624 2.207v2.002c0 0.684-0.148 1.208-0.446 1.568-0.012 0.015-0.152 0.189-0.191 0.232-0.196 0.222-0.398 0.304-0.855 0.312v0.943c0.389 0.010 0.577 0.097 0.76 0.32 0.042 0.051 0.201 0.268 0.24 0.318 0.327 0.42 0.491 0.92 0.491 1.497v1.54c0 1.114 0.211 1.85 0.624 2.211 0.416 0.364 1.256 0.55 2.518 0.55h0.413v-0.949zM19.287 25.526c1.262 0 2.102-0.186 2.518-0.55 0.413-0.361 0.624-1.098 0.624-2.211v-1.54c0-0.577 0.164-1.077 0.491-1.497 0.039-0.050 0.199-0.267 0.24-0.318 0.183-0.223 0.371-0.31 0.76-0.32v-0.943c-0.457-0.008-0.659-0.090-0.855-0.312-0.039-0.044-0.178-0.218-0.191-0.232-0.299-0.36-0.446-0.883-0.446-1.568v-2.002c0-1.113-0.211-1.849-0.624-2.207-0.416-0.361-1.256-0.546-2.518-0.546h-0.413v0.941h0.459c0.739 0 1.226 0.116 1.464 0.359s0.35 0.736 0.35 1.484v2.064c0 0.883 0.171 1.469 0.504 1.761 0.094 0.082 0.096 0.084 0.13 0.113 0.357 0.303 0.678 0.438 1.45 0.542l0.626 0.084-0.627 0.074c-0.733 0.087-1.048 0.217-1.394 0.516-0.042 0.036-0.052 0.045-0.161 0.145-0.35 0.318-0.529 0.904-0.529 1.762v1.609c0 0.754-0.113 1.248-0.351 1.488s-0.724 0.355-1.463 0.355h-0.459v0.949h0.413z"></path>
<path d="M14.468 25.417c0.083 0.019 0.156-0.025 0.17-0.098l2.796-13.56c0.016-0.077-0.047-0.167-0.151-0.189l-0.827-0.181c-0.102-0.023-0.189 0.029-0.204 0.103l-2.688 13.563c-0.015 0.077 0.043 0.163 0.133 0.183l0.773 0.179z"></path>
</symbol>
<symbol id="diablo-php_file_line" viewBox="0 0 32 32">
<path d="M23.067 6.044h6.044v1.067h-6.044c-0.589 0-1.067-0.478-1.067-1.067v-6.044h1.067v6.044zM3.867 1.067v29.867h24.178v-24.889l-4.978-4.978h-19.2zM3.867 0h19.556l5.689 5.689v25.244c0 0.589-0.478 1.067-1.067 1.067h-24.178c-0.589 0-1.067-0.478-1.067-1.067v-29.867c0-0.589 0.478-1.067 1.067-1.067zM12.031 18.124c-0.289 1.483-1.311 1.33-2.568 1.33l0.502-2.586c1.392 0 2.337-0.15 2.066 1.256zM7.607 22.073h1.344l0.319-1.641c1.505 0 2.439 0.11 3.304-0.7 0.956-0.879 1.205-2.443 0.524-3.227-0.355-0.41-0.927-0.612-1.703-0.612h-2.59l-1.198 6.179zM14.409 14.249l-1.198 6.175h1.337l0.689-3.538c1.088 0 1.538-0.044 1.736 0.169 0.205 0.22 0.099 0.462-0.465 3.37h1.355c0.586-3.007 0.846-3.644 0.304-4.143-0.516-0.476-1.586-0.392-2.74-0.392l0.319-1.641h-1.337zM22.536 18.124c-0.293 1.505-1.344 1.33-2.568 1.33l0.502-2.586c1.399 0 2.337-0.15 2.066 1.256zM18.112 22.073h1.348l0.319-1.641c1.582 0 2.458 0.092 3.304-0.7 0.956-0.879 1.205-2.443 0.524-3.227-0.355-0.41-0.927-0.612-1.703-0.612h-2.59l-1.201 6.179z"></path>
</symbol>
<symbol id="diablo-python_file_line" viewBox="0 0 32 32">
<path d="M13.966 10.556c-1.607 0.284-1.899 0.878-1.899 1.977v1.447h3.801v0.484h-5.227c-1.106 0-2.073 0.665-2.375 1.927-0.348 1.447-0.363 2.35 0 3.861 0.27 1.124 0.914 1.927 2.020 1.927h1.305v-1.735c0-1.255 1.084-2.361 2.375-2.361h3.797c1.056 0 1.899-0.871 1.899-1.931v-3.623c0-1.031-0.868-1.803-1.899-1.977-1.273-0.21-2.656-0.199-3.797 0.004zM13.728 11.566c0.391 0 0.715 0.327 0.715 0.725s-0.32 0.722-0.715 0.722-0.714-0.324-0.714-0.722c0.003-0.402 0.32-0.725 0.714-0.725zM20.313 14.46v0.004h1.426c1.106 0 1.625 0.828 1.899 1.927 0.38 1.525 0.398 2.67 0 3.861-0.384 1.156-0.793 1.927-1.899 1.927h-5.696v0.484h3.794v1.447c0 1.095-0.942 1.653-1.898 1.93-1.44 0.416-2.596 0.352-3.797 0-1.003-0.295-1.899-0.899-1.899-1.93v-3.62c0-1.042 0.861-1.931 1.899-1.931h3.797c1.266 0 2.375-1.102 2.375-2.411v-1.689zM23.492 0l5.708 5.689v25.245c0 0.589-0.479 1.066-1.070 1.066h-24.26c-0.591 0-1.070-0.478-1.070-1.066v-29.867c0-0.589 0.479-1.067 1.070-1.067h19.622zM23.135 6.044h4.995l-4.995-4.978v4.978zM28.13 30.934v-23.822h-4.995c-0.591 0-1.070-0.478-1.070-1.067v-4.978h-18.194v29.867h24.26zM18.176 23.627c0.395 0 0.715 0.323 0.715 0.722 0 0.402-0.32 0.726-0.715 0.726-0.391 0-0.715-0.327-0.715-0.726 0.004-0.402 0.324-0.722 0.715-0.722z"></path>
</symbol>
<symbol id="diablo-template_file_line" viewBox="0 0 32 32">
<path d="M23.067 6.044h6.044v1.067h-6.044c-0.589 0-1.067-0.478-1.067-1.067v-6.044h1.067v6.044zM3.867 1.067v29.867h24.178v-24.889l-4.978-4.978h-19.2zM3.867 0h19.556l5.689 5.689v25.244c0 0.589-0.478 1.067-1.067 1.067h-24.178c-0.589 0-1.067-0.478-1.067-1.067v-29.867c0-0.589 0.478-1.067 1.067-1.067z"></path>
<path d="M13.674 18.596h-4.054c-0.112 0-0.196 0.084-0.196 0.196v6.447c0 0.112 0.084 0.196 0.196 0.196h4.054c0.112 0 0.196-0.084 0.196-0.196v-6.434c-0.029-0.108-0.14-0.209-0.196-0.209zM14.87 18.758v6.482c0 0.665-0.532 1.196-1.196 1.196h-4.054c-0.665 0-1.196-0.532-1.196-1.196v-6.447c0-0.665 0.532-1.196 1.196-1.196h4.054c0.577 0 1.105 0.5 1.191 1.089l0.005 0.073zM9.619 12.224c-0.112 0-0.196 0.084-0.196 0.196v2.858c0 0.112 0.084 0.196 0.196 0.196h12.761c0.112 0 0.196-0.084 0.196-0.196v-2.924c0-0.048-0.088-0.13-0.196-0.13h-12.761zM23.577 12.354v2.924c0 0.665-0.532 1.196-1.196 1.196h-12.761c-0.665 0-1.196-0.532-1.196-1.196v-2.858c0-0.665 0.532-1.196 1.196-1.196h12.761c0.643 0 1.196 0.51 1.196 1.13zM22.912 21.752h-6.513c-0.399 0-0.665 0.226-0.665 0.452s0.266 0.452 0.665 0.452h6.513c0.399 0 0.665-0.226 0.665-0.452-0.066-0.271-0.332-0.452-0.665-0.452zM22.912 17.994c0.332 0 0.598 0.181 0.665 0.452 0 0.226-0.266 0.452-0.665 0.452h-6.513c-0.399 0-0.665-0.226-0.665-0.452s0.266-0.452 0.665-0.452h6.513zM22.912 25.51c0.332 0 0.598 0.226 0.665 0.452 0 0.226-0.266 0.452-0.665 0.452h-6.513c-0.399 0-0.665-0.226-0.665-0.452s0.266-0.452 0.665-0.452h6.513z"></path>
</symbol>
<symbol id="diablo-yaml_file_solid" viewBox="0 0 32 32">
<path d="M22.827 6.044h5.973v1.067h-5.96c-0.004 0-0.008-0-0.013-0-0.582 0-1.054-0.472-1.054-1.054v-6.057h1.054v6.044zM3.854 1.067v29.867h23.892v-24.889l-4.919-4.978h-18.973zM3.854 0h19.324l5.622 5.689v25.244c0 0.589-0.472 1.067-1.054 1.067h-23.892c-0.582 0-1.054-0.478-1.054-1.067v-29.867c0-0.589 0.472-1.067 1.054-1.067zM7.773 20h1.025v-2.162l1.873-2.992h-1.185l-1.174 2.039-1.199-2.039h-1.205l1.866 2.985v2.169zM15.774 20l-2.039-5.154h-1.087l-1.984 5.154h1.091l0.42-1.171h2.036l0.445 1.171h1.119zM13.881 17.961h-1.39l0.688-1.913 0.702 1.913zM16.306 20h0.955v-4.057l1.007 4.057h0.99l1.011-4.057v4.057h0.955v-5.154h-1.542l-0.914 3.516-0.924-3.516h-1.539v5.154zM22.274 20h3.585v-0.868h-2.557v-4.243h-1.028v5.112z"></path>
</symbol>
<symbol id="diablo-multi_branch_file" viewBox="0 0 32 32">
<path d="M23.111 6.044h6.044v1.067h-6.044c-0.589 0-1.067-0.478-1.067-1.067v-6.044h1.067v6.044zM3.911 1.067v29.867h24.178v-24.889l-4.978-4.978h-19.2zM3.911 0h19.556l5.689 5.689v25.244c0 0.589-0.478 1.067-1.067 1.067h-24.178c-0.589 0-1.067-0.478-1.067-1.067v-29.867c0-0.589 0.478-1.067 1.067-1.067z"></path>
<path d="M22.984 12.293c0-1.26-1.021-2.283-2.282-2.283s-2.282 1.022-2.282 2.283c0 0.925 0.551 1.72 1.342 2.079-0.216 1.853-1.409 2.226-3.132 2.765-0.837 0.262-1.809 0.566-2.63 1.157v-3.905c0.811-0.351 1.378-1.157 1.378-2.096 0-1.26-1.022-2.283-2.282-2.283s-2.282 1.022-2.282 2.283c0 0.939 0.568 1.745 1.378 2.096v7.222c-0.811 0.349-1.378 1.156-1.378 2.095 0 1.26 1.021 2.283 2.282 2.283s2.282-1.022 2.282-2.283c0-0.925-0.551-1.721-1.343-2.079 0.217-1.853 1.411-2.227 3.133-2.765 1.752-0.548 4.113-1.287 4.405-4.46 0.827-0.344 1.41-1.158 1.41-2.11l0-0zM11.78 12.293c0-0.728 0.589-1.317 1.317-1.317s1.317 0.59 1.317 1.317c0 0.728-0.589 1.317-1.317 1.317s-1.317-0.59-1.317-1.317zM13.097 25.024c-0.727 0-1.317-0.59-1.317-1.317s0.589-1.317 1.317-1.317c0.727 0 1.317 0.59 1.317 1.317s-0.589 1.317-1.317 1.317zM20.702 13.611c-0.726 0-1.317-0.59-1.317-1.317s0.59-1.317 1.317-1.317c0.726 0 1.317 0.59 1.317 1.317s-0.59 1.317-1.317 1.317z"></path>
</symbol>
<symbol id="diablo-graph_file" viewBox="0 0 80 80">
<path d="M57.6666667,15.1111111 L72.7777778,15.1111111 L72.7777778,17.7777778 L57.6666667,17.7777778 C56.1939073,17.7777778 55,16.5838704 55,15.1111111 L55,0 L57.6666667,0 L57.6666667,15.1111111 Z M9.66666667,2.66666667 L9.66666667,77.3333333 L70.1111111,77.3333333 L70.1111111,15.1111111 L57.6666667,2.66666667 L9.66666667,2.66666667 Z M9.66666667,0 L58.5555556,0 L72.7777778,14.2222222 L72.7777778,77.3333333 C72.7777778,78.8060927 71.5838704,80 70.1111111,80 L9.66666667,80 C8.19390733,80 7,78.8060927 7,77.3333333 L7,2.66666667 C7,1.19390733 8.19390733,2.705415e-16 9.66666667,0 Z"/>
<path d="M45.329702,56.9009008 L45.329702,59.4375344 L41.2710883,59.4375344 L41.2710883,60.9595145 L54.9595145,60.9595145 L54.9595145,59.4375344 L50.9009008,59.4375344 L50.9009008,46.0027715 C50.9009008,45.3921004 50.5251033,44.7062699 49.9614069,44.1519685 C49.4071056,43.5882722 48.721275,43.2124746 48.1199989,43.2124746 L34.675841,43.2124746 L34.675841,32.5586137 L38.7250598,32.5586137 L38.7250598,31.0366335 L25.0366335,31.0366335 L25.0366335,32.5586137 L29.0952473,32.5586137 L29.0952473,46.0027715 C29.0952473,46.6040476 29.4710448,47.2898781 30.0347411,47.8535745 C30.5984375,48.4078759 31.2748731,48.7930684 31.8855442,48.7930684 L45.329702,48.7930684 L45.329702,56.9009008 Z M40.0027715,56.9009008 L42.7930684,56.9009008 L42.7930684,51.329702 L31.8855442,51.329702 C30.4977384,51.2576365 29.1915662,50.6516804 28.2403078,49.6386129 C27.2294288,48.6896626 26.6236656,47.3872716 26.5492187,46.0027715 L26.5492187,35.0952473 L22.5,35.0952473 L22.5,28.5 L41.2616933,28.5 L41.2616933,35.0952473 L37.2124746,35.0952473 L37.2124746,40.675841 L48.1106039,40.675841 C49.4258954,40.675841 50.7599768,41.3616716 51.7558403,42.3575351 C52.7517038,43.3533987 53.4469293,44.696875 53.4469293,46.0027715 L53.4469293,56.9009008 L57.4961481,56.9009008 L57.4961481,63.4961481 L38.7344547,63.4961481 L38.7344547,56.9009008 L40.0027715,56.9009008 Z" transform="matrix(0 1 1 0 -6 6)"/>
</symbol>
</defs>
</svg>
