<?xml version="1.0" encoding="UTF-8"?>
<svg width="320px" height="320px" viewBox="0 0 320 320" version="1.1" xmlns="http://www.w3.org/2000/svg" xmlns:xlink="http://www.w3.org/1999/xlink">
    <!-- Generator: Sketch 49 (51002) - http://www.bohemiancoding.com/sketch -->
    <title>empty_page</title>
    <desc>Created with Sketch.</desc>
    <defs>
        <polygon id="path-1" points="120.338824 98.6764228 148.536471 93.6292683 147.529412 163.28 106.24 160.251707"></polygon>
        <polygon id="path-2" points="63.9432512 119.76 153.278424 132.802162 162.56 194 44.8 180.957838"></polygon>
        <path d="M5.26864694,0 L35.7548218,4.16182908 C38.5319234,4.54094592 40.4758741,7.09956653 40.0967573,9.87666815 C39.9826318,10.7126585 39.6618757,11.507004 39.1635086,12.1878378 L39.1635086,12.1878378 C36.0402799,16.4545723 30.9135546,18.7778273 25.6463109,18.3133655 L0,16.0518919 L5.26864694,0 Z" id="path-3"></path>
        <polygon id="path-5" points="12.8 155.6 300.8 171.756444 256.336842 246.48 101.726316 246.48"></polygon>
        <linearGradient x1="50%" y1="35.2711397%" x2="50%" y2="100%" id="linearGradient-6">
            <stop stop-color="#FFFFFF" offset="0%"></stop>
            <stop stop-color="#F6F7F7" offset="100%"></stop>
        </linearGradient>
    </defs>
    <g id="empty_page" stroke="none" stroke-width="1" fill="none" fill-rule="evenodd">
        <path d="M84.0251572,248.238994 L235.974843,248.238994" id="Line-5" stroke="#A8A8A8" stroke-width="3" stroke-linecap="round" stroke-linejoin="round"></path>
        <path d="M115.220126,259.811321 L188.679245,259.811321" id="Line-5" stroke="#D6D6D6" stroke-width="3" stroke-linecap="round" stroke-linejoin="round"></path>
        <path d="M202.767296,259.811321 L253.081761,259.811321" id="Line-5" stroke="#D6D6D6" stroke-width="3" stroke-linecap="round" stroke-linejoin="round"></path>
        <path d="M193.710692,259.811321 L197.735849,259.811321" id="Line-5" stroke="#D6D6D6" stroke-width="3" stroke-linecap="round" stroke-linejoin="round"></path>
        <path d="M22.6415094,272.389937 L122.264151,272.389937" id="Line-5" stroke="#E2E2E4" stroke-width="3" stroke-linecap="round" stroke-linejoin="round"></path>
        <path d="M136.352201,272.389937 L175.597484,272.389937" id="Line-5" stroke="#E2E2E4" stroke-width="3" stroke-linecap="round" stroke-linejoin="round"></path>
        <path d="M127.295597,272.389937 L131.320755,272.389937" id="Line-5" stroke="#E2E2E4" stroke-width="3" stroke-linecap="round" stroke-linejoin="round"></path>
        <path d="M248.050314,248.238994 L264.150943,248.238994" id="Line-5-Copy" stroke="#A8A8A8" stroke-width="3" stroke-linecap="round" stroke-linejoin="round"></path>
        <g id="Rectangle-25">
            <use fill="#A8A8A8" fill-rule="evenodd" xlink:href="#path-1"></use>
            <path stroke="#858585" stroke-width="1" d="M120.752409,99.1103406 L106.857364,159.795644 L147.03713,162.742552 L148.027758,94.2282703 L120.752409,99.1103406 Z"></path>
        </g>
        <polygon id="Rectangle-25" fill="#989898" points="148.049487 127.310293 147.942497 134.710003 112.93014 131.033149 115.251793 126.301215"></polygon>
        <path d="M143.501176,93.7317886 C148.651732,86.7509831 154.129831,79.4471757 168.471919,78.539591 C174.081069,78.1846372 180.258824,79.5675256 189.31779,69.810645 C199.027424,59.3529684 198.347728,48.0358395 217.016471,39.2225203" id="Path-3" stroke="#CCCCCC"></path>
        <path d="M146.522353,93.6292683 C153.112131,88.1186239 159.528188,80.4159751 169.992245,82.5942644 C176.548052,83.9589785 183.232735,84.5109772 191.576024,84.1001879 C222.161912,82.5942644 209.140956,54.3669188 242.594191,56.3459357" id="Path-3" stroke="#CCCCCC"></path>
        <g id="Rectangle-3">
            <use fill="#D6D6D6" fill-rule="evenodd" xlink:href="#path-2"></use>
            <path stroke="#C6C6C6" stroke-width="1" d="M64.2931034,120.316376 L45.4584413,180.527704 L161.968043,193.431382 L152.839626,133.243402 L64.2931034,120.316376 Z"></path>
        </g>
        <g id="Line-4-+-Rectangle-12-Mask" transform="translate(55.777627, 129.792432)">
            <mask id="mask-4" fill="white">
                <use xlink:href="#path-3"></use>
            </mask>
            <use id="Mask" fill="#F5F5F6" xlink:href="#path-3"></use>
            <path d="M24.4501695,2.50810811 L11.4766102,17.5567568" id="Line-4" stroke="#FFFFFF" stroke-linecap="square" mask="url(#mask-4)"></path>
            <rect id="Rectangle-12" fill="#FFFFFF" mask="url(#mask-4)" transform="translate(11.975593, 7.022703) rotate(41.000000) translate(-11.975593, -7.022703) " x="7.98372881" y="-6.01945946" width="7.98372881" height="26.0843243"></rect>
        </g>
        <ellipse id="Oval-4" stroke="#FFFFFF" stroke-width="2" fill="#F5F5F6" cx="107.671864" cy="141.831351" rx="4.98983051" ry="5.01621622"></ellipse>
        <ellipse id="Oval-4" stroke="#FFFFFF" stroke-width="2" fill="#F5F5F6" cx="127.631186" cy="144.841081" rx="4.98983051" ry="5.01621622"></ellipse>
        <polygon id="Path-4" fill="#BBBBBB" opacity="0.464051178" points="51.5870383 158.878649 158.290848 168.617162 157.134069 157.875405 54.7397493 153.584189"></polygon>
        <g id="Rectangle">
            <use fill="#F5F5F6" fill-rule="evenodd" xlink:href="#path-5"></use>
            <path stroke="#E8E8E8" stroke-width="1" d="M14.0586595,156.171395 L101.936612,245.98 L256.052538,245.98 L299.948613,172.209469 L14.0586595,156.171395 Z"></path>
        </g>
        <ellipse id="Oval-4" stroke="#A8A8A8" stroke-width="2" fill="#FFFFFF" cx="101.726316" cy="181.854222" rx="8.08421053" ry="8.07822222"></ellipse>
        <ellipse id="Oval-4" stroke="#A8A8A8" stroke-width="2" fill="#FFFFFF" cx="134.063158" cy="183.873778" rx="8.08421053" ry="8.07822222"></ellipse>
        <ellipse id="Oval-4" stroke="#A8A8A8" stroke-width="2" fill="#FFFFFF" cx="166.4" cy="185.893333" rx="8.08421053" ry="8.07822222"></ellipse>
        <path d="M164.583453,95.5143892 L198.60818,95.5143892 L198.60818,129.766241 L164.583453,129.766241 L164.583453,95.5143892 Z M166.584907,97.529204 L166.584907,127.751426 L168.586362,127.751426 L168.586362,97.529204 L166.584907,97.529204 Z M170.587817,97.529204 L170.587817,127.751426 L172.589271,127.751426 L172.589271,97.529204 L170.587817,97.529204 Z M174.590726,97.529204 L174.590726,127.751426 L176.59218,127.751426 L176.59218,97.529204 L174.590726,97.529204 Z M178.593635,97.529204 L178.593635,127.751426 L180.595089,127.751426 L180.595089,97.529204 L178.593635,97.529204 Z M182.596544,97.529204 L182.596544,127.751426 L184.597998,127.751426 L184.597998,97.529204 L182.596544,97.529204 Z M186.599453,97.529204 L186.599453,127.751426 L188.600907,127.751426 L188.600907,97.529204 L186.599453,97.529204 Z M190.602362,97.529204 L190.602362,127.751426 L192.603817,127.751426 L192.603817,97.529204 L190.602362,97.529204 Z M194.605271,97.529204 L194.605271,127.751426 L196.606726,127.751426 L196.606726,97.529204 L194.605271,97.529204 Z" id="Combined-Shape" fill="#A8A8A8" transform="translate(181.595817, 112.640315) rotate(4.000000) translate(-181.595817, -112.640315) "></path>
        <path d="M167.602467,59.2474982 L201.627194,59.2474982 L201.627194,93.49935 L167.602467,93.49935 L167.602467,59.2474982 Z M169.603921,61.262313 L169.603921,91.4845352 L171.605376,91.4845352 L171.605376,61.262313 L169.603921,61.262313 Z M173.60683,61.262313 L173.60683,91.4845352 L175.608285,91.4845352 L175.608285,61.262313 L173.60683,61.262313 Z M177.60974,61.262313 L177.60974,91.4845352 L179.611194,91.4845352 L179.611194,61.262313 L177.60974,61.262313 Z M181.612649,61.262313 L181.612649,91.4845352 L183.614103,91.4845352 L183.614103,61.262313 L181.612649,61.262313 Z M185.615558,61.262313 L185.615558,91.4845352 L187.617012,91.4845352 L187.617012,61.262313 L185.615558,61.262313 Z M189.618467,61.262313 L189.618467,91.4845352 L191.619921,91.4845352 L191.619921,61.262313 L189.618467,61.262313 Z M193.621376,61.262313 L193.621376,91.4845352 L195.62283,91.4845352 L195.62283,61.262313 L193.621376,61.262313 Z M197.624285,61.262313 L197.624285,91.4845352 L199.62574,91.4845352 L199.62574,61.262313 L197.624285,61.262313 Z" id="Combined-Shape" fill="#A8A8A8" transform="translate(184.614830, 76.373424) rotate(4.000000) translate(-184.614830, -76.373424) "></path>
        <path d="M201.61017,98.5193145 L235.634897,98.5193145 L235.634897,132.771166 L201.61017,132.771166 L201.61017,98.5193145 Z M203.611625,100.534129 L203.611625,130.756352 L205.613079,130.756352 L205.613079,100.534129 L203.611625,100.534129 Z M207.614534,100.534129 L207.614534,130.756352 L209.615988,130.756352 L209.615988,100.534129 L207.614534,100.534129 Z M211.617443,100.534129 L211.617443,130.756352 L213.618897,130.756352 L213.618897,100.534129 L211.617443,100.534129 Z M215.620352,100.534129 L215.620352,130.756352 L217.621807,130.756352 L217.621807,100.534129 L215.620352,100.534129 Z M219.623261,100.534129 L219.623261,130.756352 L221.624716,130.756352 L221.624716,100.534129 L219.623261,100.534129 Z M223.62617,100.534129 L223.62617,130.756352 L225.627625,130.756352 L225.627625,100.534129 L223.62617,100.534129 Z M227.629079,100.534129 L227.629079,130.756352 L229.630534,130.756352 L229.630534,100.534129 L227.629079,100.534129 Z M231.631988,100.534129 L231.631988,130.756352 L233.633443,130.756352 L233.633443,100.534129 L231.631988,100.534129 Z" id="Combined-Shape" fill="#A8A8A8" transform="translate(218.622534, 115.645240) rotate(4.000000) translate(-218.622534, -115.645240) "></path>
        <path d="M238.636887,101.52424 L272.661615,101.52424 L272.661615,135.776092 L238.636887,135.776092 L238.636887,101.52424 Z M240.638342,103.539055 L240.638342,133.761277 L242.639797,133.761277 L242.639797,103.539055 L240.638342,103.539055 Z M244.641251,103.539055 L244.641251,133.761277 L246.642706,133.761277 L246.642706,103.539055 L244.641251,103.539055 Z M248.64416,103.539055 L248.64416,133.761277 L250.645615,133.761277 L250.645615,103.539055 L248.64416,103.539055 Z M252.647069,103.539055 L252.647069,133.761277 L254.648524,133.761277 L254.648524,103.539055 L252.647069,103.539055 Z M256.649978,103.539055 L256.649978,133.761277 L258.651433,133.761277 L258.651433,103.539055 L256.649978,103.539055 Z M260.652887,103.539055 L260.652887,133.761277 L262.654342,133.761277 L262.654342,103.539055 L260.652887,103.539055 Z M264.655797,103.539055 L264.655797,133.761277 L266.657251,133.761277 L266.657251,103.539055 L264.655797,103.539055 Z M268.658706,103.539055 L268.658706,133.761277 L270.66016,133.761277 L270.66016,103.539055 L268.658706,103.539055 Z" id="Combined-Shape" fill="#A8A8A8" transform="translate(255.649251, 118.650166) rotate(4.000000) translate(-255.649251, -118.650166) "></path>
        <path d="M162.401088,131.74953 L196.425815,131.74953 L196.425815,166.001382 L162.401088,166.001382 L162.401088,131.74953 Z M164.402543,133.764345 L164.402543,163.986567 L166.403997,163.986567 L166.403997,133.764345 L164.402543,133.764345 Z M168.405452,133.764345 L168.405452,163.986567 L170.406906,163.986567 L170.406906,133.764345 L168.405452,133.764345 Z M172.408361,133.764345 L172.408361,163.986567 L174.409815,163.986567 L174.409815,133.764345 L172.408361,133.764345 Z M176.41127,133.764345 L176.41127,163.986567 L178.412725,163.986567 L178.412725,133.764345 L176.41127,133.764345 Z M180.414179,133.764345 L180.414179,163.986567 L182.415634,163.986567 L182.415634,133.764345 L180.414179,133.764345 Z M184.417088,133.764345 L184.417088,163.986567 L186.418543,163.986567 L186.418543,133.764345 L184.417088,133.764345 Z M188.419997,133.764345 L188.419997,163.986567 L190.421452,163.986567 L190.421452,133.764345 L188.419997,133.764345 Z M192.422906,133.764345 L192.422906,163.986567 L194.424361,163.986567 L194.424361,133.764345 L192.422906,133.764345 Z" id="Combined-Shape-Copy" fill="#A8A8A8" transform="translate(179.413452, 148.875456) rotate(4.000000) translate(-179.413452, -148.875456) "></path>
        <path d="M199.291332,134.660191 L233.316059,134.660191 L233.316059,168.912043 L199.291332,168.912043 L199.291332,134.660191 Z M201.292787,136.675006 L201.292787,166.897228 L203.294241,166.897228 L203.294241,136.675006 L201.292787,136.675006 Z M205.295696,136.675006 L205.295696,166.897228 L207.29715,166.897228 L207.29715,136.675006 L205.295696,136.675006 Z M209.298605,136.675006 L209.298605,166.897228 L211.300059,166.897228 L211.300059,136.675006 L209.298605,136.675006 Z M213.301514,136.675006 L213.301514,166.897228 L215.302968,166.897228 L215.302968,136.675006 L213.301514,136.675006 Z M217.304423,136.675006 L217.304423,166.897228 L219.305878,166.897228 L219.305878,136.675006 L217.304423,136.675006 Z M221.307332,136.675006 L221.307332,166.897228 L223.308787,166.897228 L223.308787,136.675006 L221.307332,136.675006 Z M225.310241,136.675006 L225.310241,166.897228 L227.311696,166.897228 L227.311696,136.675006 L225.310241,136.675006 Z M229.31315,136.675006 L229.31315,166.897228 L231.314605,166.897228 L231.314605,136.675006 L229.31315,136.675006 Z" id="Combined-Shape-Copy" fill="#A8A8A8" transform="translate(216.303696, 151.786117) rotate(4.000000) translate(-216.303696, -151.786117) "></path>
        <path d="M236.318049,137.665116 L270.342777,137.665116 L270.342777,171.916968 L236.318049,171.916968 L236.318049,137.665116 Z M238.319504,139.679931 L238.319504,169.902153 L240.320958,169.902153 L240.320958,139.679931 L238.319504,139.679931 Z M242.322413,139.679931 L242.322413,169.902153 L244.323868,169.902153 L244.323868,139.679931 L242.322413,139.679931 Z M246.325322,139.679931 L246.325322,169.902153 L248.326777,169.902153 L248.326777,139.679931 L246.325322,139.679931 Z M250.328231,139.679931 L250.328231,169.902153 L252.329686,169.902153 L252.329686,139.679931 L250.328231,139.679931 Z M254.33114,139.679931 L254.33114,169.902153 L256.332595,169.902153 L256.332595,139.679931 L254.33114,139.679931 Z M258.334049,139.679931 L258.334049,169.902153 L260.335504,169.902153 L260.335504,139.679931 L258.334049,139.679931 Z M262.336958,139.679931 L262.336958,169.902153 L264.338413,169.902153 L264.338413,139.679931 L262.336958,139.679931 Z M266.339868,139.679931 L266.339868,169.902153 L268.341322,169.902153 L268.341322,139.679931 L266.339868,139.679931 Z" id="Combined-Shape-Copy" fill="#A8A8A8" transform="translate(253.330413, 154.791042) rotate(4.000000) translate(-253.330413, -154.791042) "></path>
        <path d="M38.5125317,88.9345731 C55.471079,88.9345731 75.8756666,88.9345731 99.7262944,88.9345731 L99.7262944,88.9345708 C100.153959,88.9345708 100.570363,88.7974839 100.914389,88.5434304 C112.619151,79.8998012 112.439944,71.4215409 100.376769,63.1086494 C100.376769,36.6622348 64.4331483,37.3020155 64.1813037,50.959245 C45.1605822,42.4909911 38.5125317,54.3381876 38.5125317,63.1086494 C32.1066394,64.2371146 15.8949533,78.0325804 38.5125317,88.9345731 Z" id="Path-5" stroke="#E8E8E8" fill="url(#linearGradient-6)"></path>
        <path d="M271.919659,130 C281.270086,130 292.321398,130 305.073595,130 L305.073595,129.999935 C309.891527,129.999935 313.797232,126.09423 313.797232,121.276299 C313.797232,118.40701 312.386284,115.72119 310.02365,114.093069 C310.02365,114.093069 310.02365,114.093069 310.02365,114.093069 C310.02365,97.8039591 287.884924,98.1980186 287.729806,106.6099 C276.014388,101.394058 271.919659,108.691088 271.919659,114.093069 C267.974083,114.788123 257.988832,123.285148 271.919659,130 Z" id="Path-5-Copy" stroke="#E8E8E8" fill="url(#linearGradient-6)"></path>
    </g>
</svg>