<svg xmlns="http://www.w3.org/2000/svg" width="24" height="24" viewBox="0 0 24 24">
  <g fill="none">
    <circle cx="12" cy="12" r="12" fill="#FFF"/>
    <circle cx="12" cy="12" r="9" fill="#006eff"/>
    <polygon fill="#FFF" points="16.564 16.36 7.134 16.36 7.134 15.304 8.562 15.304 8.562 11.489 9.809 11.489 9.809 15.304 11.621 15.304 11.621 10.025 12.869 10.025 12.869 11.993 15.64 11.993 15.64 13.168 12.869 13.168 12.869 15.304 16.564 15.304"/>
    <path fill="#FFF" d="M16.7315631,10.6610452 C16.53961,10.964971 16.3996441,11.2009134 16.3116656,11.3688724 C14.6097165,10.6980135 13.1184315,9.58369218 11.9927201,8.14166026 C10.7597775,9.58712012 9.22926963,10.749324 7.50581549,11.5488284 L6.91795899,10.5890627 C6.8492439,10.5187922 6.79250607,10.4377382 6.75,10.3491213 C8.6247498,9.63854538 10.2452964,8.38554545 11.4048636,6.75 L12.9164945,6.86997072 L12.7125443,7.15790041 C13.8212657,8.56822373 15.3247835,9.61650973 17.0314899,10.1691653 C16.9441351,10.3404953 16.8438701,10.5049299 16.7315631,10.6610452 Z"/>
  </g>
</svg>
