<?xml version="1.0" encoding="UTF-8"?>
<svg width="320px" height="320px" viewBox="0 0 320 320" version="1.1" xmlns="http://www.w3.org/2000/svg" xmlns:xlink="http://www.w3.org/1999/xlink">
    <!-- Generator: Sketch 49 (51002) - http://www.bohemiancoding.com/sketch -->
    <title>error_500_page</title>
    <desc>Created with Sketch.</desc>
    <defs>
        <polygon id="path-1" points="121 129 149 124 148 193 107 190"></polygon>
        <polygon id="path-2" points="64.182266 151 153.699507 164 163 225 45 212"></polygon>
        <path d="M5.27938467,0 L35.8558222,4.15219494 C38.61918,4.52745123 40.5551189,7.07180071 40.1798626,9.83515857 C40.0661584,10.6724672 39.7441443,11.4678532 39.2433256,12.1484375 L39.2433256,12.1484375 C36.1123306,16.4032825 30.9898174,18.7182862 25.7273314,18.2566848 L0,16 L5.27938467,0 Z" id="path-3"></path>
        <polygon id="path-5" points="14 186 299 202 255 276 102 276"></polygon>
        <linearGradient x1="50%" y1="35.2711397%" x2="50%" y2="100%" id="linearGradient-6">
            <stop stop-color="#FFFFFF" offset="0%"></stop>
            <stop stop-color="#F6F7F7" offset="100%"></stop>
        </linearGradient>
    </defs>
    <g id="error_500_page" stroke="none" stroke-width="1" fill="none" fill-rule="evenodd">
        <rect id="Rectangle-37" x="0" y="-30" width="320" height="320"></rect>
        <path d="M84.5,277.5 L235.5,277.5" id="Line-5" stroke="#A8A8A8" stroke-width="3" stroke-linecap="round" stroke-linejoin="round"></path>
        <path d="M115.5,289 L188.5,289" id="Line-5" stroke="#D6D6D6" stroke-width="3" stroke-linecap="round" stroke-linejoin="round"></path>
        <path d="M202.5,289 L252.5,289" id="Line-5" stroke="#D6D6D6" stroke-width="3" stroke-linecap="round" stroke-linejoin="round"></path>
        <path d="M193.5,289 L197.5,289" id="Line-5" stroke="#D6D6D6" stroke-width="3" stroke-linecap="round" stroke-linejoin="round"></path>
        <path d="M23.5,301.5 L122.5,301.5" id="Line-5" stroke="#E2E2E4" stroke-width="3" stroke-linecap="round" stroke-linejoin="round"></path>
        <path d="M136.5,301.5 L175.5,301.5" id="Line-5" stroke="#E2E2E4" stroke-width="3" stroke-linecap="round" stroke-linejoin="round"></path>
        <path d="M127.5,301.5 L131.5,301.5" id="Line-5" stroke="#E2E2E4" stroke-width="3" stroke-linecap="round" stroke-linejoin="round"></path>
        <path d="M247.5,277.5 L263.5,277.5" id="Line-5-Copy" stroke="#A8A8A8" stroke-width="3" stroke-linecap="round" stroke-linejoin="round"></path>
        <g id="Rectangle-25">
            <use fill="#A8A8A8" fill-rule="evenodd" xlink:href="#path-1"></use>
            <path stroke="#858585" stroke-width="1" d="M121.413372,129.434093 L107.617687,189.54386 L147.507735,192.462644 L148.49127,124.598754 L121.413372,129.434093 Z"></path>
        </g>
        <polygon id="Rectangle-25" fill="#989898" points="148.51643 157.36635 148.410189 164.696926 113.643247 161.054425 115.948626 156.366699"></polygon>
        <path d="M144,124.101563 C149.114453,117.185977 154.554155,109.950408 168.795714,109.051302 C174.365547,108.699665 180.5,110.069633 189.495469,100.403909 C199.137044,90.0439362 198.462113,78.8325408 217,70.1015625" id="Path-3" stroke="#CCCCCC"></path>
        <path d="M147,124 C153.543588,118.54084 159.914673,110.910156 170.305383,113.068094 C176.815239,114.420058 183.453066,114.966899 191.737875,114.559948 C222.109375,113.068094 209.179688,85.1044701 242.398438,87.0649975" id="Path-3" stroke="#CCCCCC"></path>
        <g id="Rectangle-3">
            <use fill="#D6D6D6" fill-rule="evenodd" xlink:href="#path-2"></use>
            <path stroke="#C6C6C6" stroke-width="1" d="M64.5315722,151.555972 L45.6594751,211.569629 L162.407576,224.431708 L153.261054,164.441571 L64.5315722,151.555972 Z"></path>
        </g>
        <g id="Line-4-+-Rectangle-12-Mask" transform="translate(56.000000, 161.000000)">
            <mask id="mask-4" fill="white">
                <use xlink:href="#path-3"></use>
            </mask>
            <use id="Mask" fill="#F5F5F6" xlink:href="#path-3"></use>
            <path d="M24.5,2.5 L11.5,17.5" id="Line-4" stroke="#FFFFFF" stroke-linecap="square" mask="url(#mask-4)"></path>
            <rect id="Rectangle-12" fill="#FFFFFF" mask="url(#mask-4)" transform="translate(12.000000, 7.000000) rotate(41.000000) translate(-12.000000, -7.000000) " x="8" y="-6" width="8" height="26"></rect>
        </g>
        <circle id="Oval-4" stroke="#FFFFFF" stroke-width="2" fill="#F5F5F6" cx="108" cy="173" r="5"></circle>
        <circle id="Oval-4" stroke="#FFFFFF" stroke-width="2" fill="#F5F5F6" cx="128" cy="176" r="5"></circle>
        <polygon id="Path-4" fill="#BBBBBB" opacity="0.464051178" points="51.8008705 189.992188 158.722147 199.699219 157.563011 188.992188 54.9600069 184.714844"></polygon>
        <g id="Rectangle">
            <use fill="#F5F5F6" fill-rule="evenodd" xlink:href="#path-5"></use>
            <path stroke="#E8E8E8" stroke-width="1" d="M15.2580085,186.571412 L102.210405,275.5 L254.715588,275.5 L298.148934,202.453008 L15.2580085,186.571412 Z"></path>
        </g>
        <circle id="Oval-4" stroke="#A8A8A8" stroke-width="2" fill="#FFFFFF" cx="102" cy="212" r="8"></circle>
        <circle id="Oval-4" stroke="#A8A8A8" stroke-width="2" fill="#FFFFFF" cx="134" cy="214" r="8"></circle>
        <circle id="Oval-4" stroke="#A8A8A8" stroke-width="2" fill="#FFFFFF" cx="166" cy="216" r="8"></circle>
        <path d="M165.116104,125.038975 L199.116104,125.038975 L199.116104,159.038975 L165.116104,159.038975 L165.116104,125.038975 Z M167.116104,127.038975 L167.116104,157.038975 L169.116104,157.038975 L169.116104,127.038975 L167.116104,127.038975 Z M171.116104,127.038975 L171.116104,157.038975 L173.116104,157.038975 L173.116104,127.038975 L171.116104,127.038975 Z M175.116104,127.038975 L175.116104,157.038975 L177.116104,157.038975 L177.116104,127.038975 L175.116104,127.038975 Z M179.116104,127.038975 L179.116104,157.038975 L181.116104,157.038975 L181.116104,127.038975 L179.116104,127.038975 Z M183.116104,127.038975 L183.116104,157.038975 L185.116104,157.038975 L185.116104,127.038975 L183.116104,127.038975 Z M187.116104,127.038975 L187.116104,157.038975 L189.116104,157.038975 L189.116104,127.038975 L187.116104,127.038975 Z M191.116104,127.038975 L191.116104,157.038975 L193.116104,157.038975 L193.116104,127.038975 L191.116104,127.038975 Z M195.116104,127.038975 L195.116104,157.038975 L197.116104,157.038975 L197.116104,127.038975 L195.116104,127.038975 Z" id="Combined-Shape" fill="#A8A8A8" transform="translate(182.116104, 142.038975) rotate(4.000000) translate(-182.116104, -142.038975) "></path>
        <path d="M168.116104,89.0389752 L202.116104,89.0389752 L202.116104,123.038975 L168.116104,123.038975 L168.116104,89.0389752 Z M170.116104,91.0389752 L170.116104,121.038975 L172.116104,121.038975 L172.116104,91.0389752 L170.116104,91.0389752 Z M174.116104,91.0389752 L174.116104,121.038975 L176.116104,121.038975 L176.116104,91.0389752 L174.116104,91.0389752 Z M178.116104,91.0389752 L178.116104,121.038975 L180.116104,121.038975 L180.116104,91.0389752 L178.116104,91.0389752 Z M182.116104,91.0389752 L182.116104,121.038975 L184.116104,121.038975 L184.116104,91.0389752 L182.116104,91.0389752 Z M186.116104,91.0389752 L186.116104,121.038975 L188.116104,121.038975 L188.116104,91.0389752 L186.116104,91.0389752 Z M190.116104,91.0389752 L190.116104,121.038975 L192.116104,121.038975 L192.116104,91.0389752 L190.116104,91.0389752 Z M194.116104,91.0389752 L194.116104,121.038975 L196.116104,121.038975 L196.116104,91.0389752 L194.116104,91.0389752 Z M198.116104,91.0389752 L198.116104,121.038975 L200.116104,121.038975 L200.116104,91.0389752 L198.116104,91.0389752 Z" id="Combined-Shape" fill="#A8A8A8" transform="translate(185.116104, 106.038975) rotate(4.000000) translate(-185.116104, -106.038975) "></path>
        <path d="M202.116104,128.038975 L236.116104,128.038975 L236.116104,162.038975 L202.116104,162.038975 L202.116104,128.038975 Z M204.116104,130.038975 L204.116104,160.038975 L206.116104,160.038975 L206.116104,130.038975 L204.116104,130.038975 Z M208.116104,130.038975 L208.116104,160.038975 L210.116104,160.038975 L210.116104,130.038975 L208.116104,130.038975 Z M212.116104,130.038975 L212.116104,160.038975 L214.116104,160.038975 L214.116104,130.038975 L212.116104,130.038975 Z M216.116104,130.038975 L216.116104,160.038975 L218.116104,160.038975 L218.116104,130.038975 L216.116104,130.038975 Z M220.116104,130.038975 L220.116104,160.038975 L222.116104,160.038975 L222.116104,130.038975 L220.116104,130.038975 Z M224.116104,130.038975 L224.116104,160.038975 L226.116104,160.038975 L226.116104,130.038975 L224.116104,130.038975 Z M228.116104,130.038975 L228.116104,160.038975 L230.116104,160.038975 L230.116104,130.038975 L228.116104,130.038975 Z M232.116104,130.038975 L232.116104,160.038975 L234.116104,160.038975 L234.116104,130.038975 L232.116104,130.038975 Z" id="Combined-Shape" fill="#FCBCBC" transform="translate(219.116104, 145.038975) rotate(4.000000) translate(-219.116104, -145.038975) "></path>
        <path d="M239.116104,131.038975 L273.116104,131.038975 L273.116104,165.038975 L239.116104,165.038975 L239.116104,131.038975 Z M241.116104,133.038975 L241.116104,163.038975 L243.116104,163.038975 L243.116104,133.038975 L241.116104,133.038975 Z M245.116104,133.038975 L245.116104,163.038975 L247.116104,163.038975 L247.116104,133.038975 L245.116104,133.038975 Z M249.116104,133.038975 L249.116104,163.038975 L251.116104,163.038975 L251.116104,133.038975 L249.116104,133.038975 Z M253.116104,133.038975 L253.116104,163.038975 L255.116104,163.038975 L255.116104,133.038975 L253.116104,133.038975 Z M257.116104,133.038975 L257.116104,163.038975 L259.116104,163.038975 L259.116104,133.038975 L257.116104,133.038975 Z M261.116104,133.038975 L261.116104,163.038975 L263.116104,163.038975 L263.116104,133.038975 L261.116104,133.038975 Z M265.116104,133.038975 L265.116104,163.038975 L267.116104,163.038975 L267.116104,133.038975 L265.116104,133.038975 Z M269.116104,133.038975 L269.116104,163.038975 L271.116104,163.038975 L271.116104,133.038975 L269.116104,133.038975 Z" id="Combined-Shape" fill="#A8A8A8" transform="translate(256.116104, 148.038975) rotate(4.000000) translate(-256.116104, -148.038975) "></path>
        <path d="M162.952103,161.007844 L196.952103,161.007844 L196.952103,195.007844 L162.952103,195.007844 L162.952103,161.007844 Z M164.952103,163.007844 L164.952103,193.007844 L166.952103,193.007844 L166.952103,163.007844 L164.952103,163.007844 Z M168.952103,163.007844 L168.952103,193.007844 L170.952103,193.007844 L170.952103,163.007844 L168.952103,163.007844 Z M172.952103,163.007844 L172.952103,193.007844 L174.952103,193.007844 L174.952103,163.007844 L172.952103,163.007844 Z M176.952103,163.007844 L176.952103,193.007844 L178.952103,193.007844 L178.952103,163.007844 L176.952103,163.007844 Z M180.952103,163.007844 L180.952103,193.007844 L182.952103,193.007844 L182.952103,163.007844 L180.952103,163.007844 Z M184.952103,163.007844 L184.952103,193.007844 L186.952103,193.007844 L186.952103,163.007844 L184.952103,163.007844 Z M188.952103,163.007844 L188.952103,193.007844 L190.952103,193.007844 L190.952103,163.007844 L188.952103,163.007844 Z M192.952103,163.007844 L192.952103,193.007844 L194.952103,193.007844 L194.952103,163.007844 L192.952103,163.007844 Z" id="Combined-Shape-Copy" fill="#A8A8A8" transform="translate(179.952103, 178.007844) rotate(4.000000) translate(-179.952103, -178.007844) "></path>
        <path d="M199.81569,163.914206 L233.81569,163.914206 L233.81569,197.914206 L199.81569,197.914206 L199.81569,163.914206 Z M201.81569,165.914206 L201.81569,195.914206 L203.81569,195.914206 L203.81569,165.914206 L201.81569,165.914206 Z M205.81569,165.914206 L205.81569,195.914206 L207.81569,195.914206 L207.81569,165.914206 L205.81569,165.914206 Z M209.81569,165.914206 L209.81569,195.914206 L211.81569,195.914206 L211.81569,165.914206 L209.81569,165.914206 Z M213.81569,165.914206 L213.81569,195.914206 L215.81569,195.914206 L215.81569,165.914206 L213.81569,165.914206 Z M217.81569,165.914206 L217.81569,195.914206 L219.81569,195.914206 L219.81569,165.914206 L217.81569,165.914206 Z M221.81569,165.914206 L221.81569,195.914206 L223.81569,195.914206 L223.81569,165.914206 L221.81569,165.914206 Z M225.81569,165.914206 L225.81569,195.914206 L227.81569,195.914206 L227.81569,165.914206 L225.81569,165.914206 Z M229.81569,165.914206 L229.81569,195.914206 L231.81569,195.914206 L231.81569,165.914206 L229.81569,165.914206 Z" id="Combined-Shape-Copy" fill="#A8A8A8" transform="translate(216.815690, 180.914206) rotate(4.000000) translate(-216.815690, -180.914206) "></path>
        <path d="M236.81569,166.914206 L270.81569,166.914206 L270.81569,200.914206 L236.81569,200.914206 L236.81569,166.914206 Z M238.81569,168.914206 L238.81569,198.914206 L240.81569,198.914206 L240.81569,168.914206 L238.81569,168.914206 Z M242.81569,168.914206 L242.81569,198.914206 L244.81569,198.914206 L244.81569,168.914206 L242.81569,168.914206 Z M246.81569,168.914206 L246.81569,198.914206 L248.81569,198.914206 L248.81569,168.914206 L246.81569,168.914206 Z M250.81569,168.914206 L250.81569,198.914206 L252.81569,198.914206 L252.81569,168.914206 L250.81569,168.914206 Z M254.81569,168.914206 L254.81569,198.914206 L256.81569,198.914206 L256.81569,168.914206 L254.81569,168.914206 Z M258.81569,168.914206 L258.81569,198.914206 L260.81569,198.914206 L260.81569,168.914206 L258.81569,168.914206 Z M262.81569,168.914206 L262.81569,198.914206 L264.81569,198.914206 L264.81569,168.914206 L262.81569,168.914206 Z M266.81569,168.914206 L266.81569,198.914206 L268.81569,198.914206 L268.81569,168.914206 L266.81569,168.914206 Z" id="Combined-Shape-Copy" fill="#A8A8A8" transform="translate(253.815690, 183.914206) rotate(4.000000) translate(-253.815690, -183.914206) "></path>
        <path d="M39.5408483,119.083346 C56.36396,119.083346 76.6052303,119.083346 100.264659,119.083346 L100.264659,119.08336 C100.693829,119.08336 101.111617,118.945308 101.456294,118.689603 C113.06333,110.078685 112.883731,101.632484 100.917494,93.3510028 C100.917494,67.0004166 65.257168,67.6378792 65.0073084,81.2456217 C46.1365013,72.8080525 39.5408483,84.6123207 39.5408483,93.3510028 C33.185445,94.475379 17.1015335,108.220857 39.5408483,119.083346 Z" id="Path-5" stroke="#E8E8E8" fill="url(#linearGradient-6)"></path>
        <path d="M271.108346,160 C281.409494,160 293.791394,160 308.254044,160 L308.254044,159.999989 C308.689991,159.999989 309.113999,159.857548 309.461527,159.594347 C316.389957,154.347081 316.206787,149.199199 308.912014,144.150702 C308.912014,127.920611 286.947778,128.313243 286.793882,136.694647 C275.170801,131.497703 271.108346,138.768294 271.108346,144.150702 C267.193867,144.843238 257.287316,153.309477 271.108346,160 Z" id="Path-5-Copy" stroke="#E8E8E8" fill="url(#linearGradient-6)"></path>
    </g>
</svg>