
<svg width="240px" height="211px" viewBox="0 0 240 211" version="1.1" xmlns="http://www.w3.org/2000/svg" xmlns:xlink="http://www.w3.org/1999/xlink">
    <defs></defs>
    <g id="Page-1" stroke="none" stroke-width="1" fill="none" fill-rule="evenodd">
        <g id="标准产品-切换【切集群、切命名空间、切项目】异常状态" transform="translate(-4715.000000, -2624.000000)">
            <g id="Group-73" transform="translate(2879.000000, 2351.000000)">
                <g id="Group-70" transform="translate(1256.000000, 80.000000)">
                    <g id="Group-51">
                        <g id="Group-34" transform="translate(201.000000, 49.000000)">
                            <g id="table02" transform="translate(19.000000, 64.000000)">
                                <g id="服务配置-title">
                                    <g id="Group-72" transform="translate(306.000000, 80.000000)">
                                        <g id="undraw_empty_xct9" transform="translate(54.000000, 0.000000)">
                                            <g id="Group-44" transform="translate(0.000000, 3.000000)" opacity="0.1">
                                                <g id="Group-36" transform="translate(0.000000, 29.000027)">
                                                    <g id="Group-33">
                                                        <path d="M2.80618994,94.1110938 C6.59727612,110.31493 14.622761,124.321858 27.3063027,131.111309 C53.6648339,145.220875 113.110201,137.944436 157.476391,129.582645 C179.894706,125.371765 200.243633,113.738862 215.246779,96.5569558 L2.80618994,94.1110938 Z" id="Shape" fill="#009CE3" fill-rule="nonzero"></path>
                                                        <path d="M235.457898,17.8438739 L211.11502,17.8438739 C209.952959,17.8438739 209.010923,16.9018378 209.010923,15.7397774 C209.010923,14.577717 209.952959,13.6356809 211.11502,13.6356809 L215.323213,13.6356809 C214.161152,13.6356809 213.219116,12.6936448 213.219116,11.5315844 C213.219116,10.369524 214.161152,9.42748792 215.323213,9.42748792 L212.318296,9.42748792 C211.156236,9.42748792 210.2142,8.48545183 210.2142,7.32339141 C210.2142,6.161331 211.156236,5.21929491 212.318296,5.21929491 L225.023676,5.21929491 C222.204383,3.90901167 218.909021,2.97652676 215.113567,2.48735435 C180.469678,-1.96324106 168.100605,0.980528625 163.737361,4.01601813 C158.354281,7.75032537 152.348816,10.4975526 145.930612,11.8209386 C124.555525,16.2300417 84.580967,21.5366889 48.3494516,10.121938 C30.3417922,4.44404399 16.9572489,14.0353173 8.9361317,30.0557137 L239.683562,30.0557137 C239.382197,25.3998406 238.480285,21.1021116 236.824961,17.3372311 C236.444762,17.6645642 235.959593,17.8443709 235.457898,17.8438739 Z" id="Shape" fill="#009CE3" fill-rule="nonzero"></path>
                                                        <path d="M0.740310031,60.2948671 C-0.194774171,69.7183086 0.122452519,79.2240945 1.68371396,88.5642281 L215.408381,96.3800676 C221.357802,89.5362455 226.35314,81.9183545 230.258258,73.7340056 L0.740310031,60.2948671 Z M85.2710495,80.46231 L81.0628565,80.46231 C82.2249169,80.46231 83.166953,81.4043461 83.166953,82.5664065 C83.166953,83.7284669 82.2249169,84.670503 81.0628565,84.670503 L56.7199777,84.670503 C55.5579173,84.670503 54.6158812,83.7284669 54.6158812,82.5664065 C54.6158812,81.4043461 55.5579173,80.46231 56.7199777,80.46231 L60.9281707,80.46231 C59.7661103,80.46231 58.8240742,79.5202739 58.8240742,78.3582135 C58.8240742,77.1961531 59.7661103,76.254117 60.9281707,76.254117 L57.9232545,76.254117 C56.7611941,76.254117 55.819158,75.3120809 55.819158,74.1500205 C55.819158,72.9879601 56.7611941,72.045924 57.9232545,72.045924 L82.2661333,72.045924 C83.4281937,72.045924 84.3702298,72.9879601 84.3702298,74.1500205 C84.3702298,75.3120809 83.4281937,76.254117 82.2661333,76.254117 L85.2710495,76.254117 C86.4331099,76.254117 87.375146,77.1961531 87.375146,78.3582135 C87.375146,79.5202739 86.4331099,80.46231 85.2710495,80.46231 Z" id="Shape" fill="#009CE3" fill-rule="nonzero"></path>
                                                        <path d="M239.694481,30.1998449 L6.35705752,35.8777389 C3.52029431,43.171649 1.64877308,51.419882 0.775250918,59.9716639 L235.606397,59.9716639 C237.139651,54.9494154 238.273664,49.813865 238.997847,44.6129605 C239.696665,39.5858405 239.976192,34.7268735 239.694481,30.1998449 Z M48.1463577,48.7971317 L43.9381647,48.7971317 C45.1002251,48.7971317 46.0422612,49.7391678 46.0422612,50.9012282 C46.0422612,52.0632886 45.1002251,53.0053247 43.9381647,53.0053247 L19.5952859,53.0053247 C18.4332255,53.0053247 17.4911894,52.0632886 17.4911894,50.9012282 C17.4911894,49.7391678 18.4332255,48.7971317 19.5952859,48.7971317 L23.8034789,48.7971317 C22.6414185,48.7971317 21.6993824,47.8550956 21.6993824,46.6930352 C21.6993824,45.5309748 22.6414185,44.5889387 23.8034789,44.5889387 L20.7985626,44.5889387 C19.6365022,44.5889387 18.6944661,43.6469026 18.6944661,42.4848422 C18.6944661,41.3227818 19.6365022,40.3807457 20.7985626,40.3807457 L45.1414415,40.3807457 C46.3035019,40.3807457 47.245538,41.3227818 47.245538,42.4848422 C47.245538,43.6469026 46.3035019,44.5889387 45.1414415,44.5889387 L48.1463577,44.5889387 C49.3084181,44.5889387 50.2504542,45.5309748 50.2504542,46.6930352 C50.2504542,47.8550956 49.3084181,48.7971317 48.1463577,48.7971317 Z" id="Shape" fill="#009CE3" fill-rule="nonzero"></path>
                                                        <g id="Group" transform="translate(146.533342, 96.225738)" fill="#009CE3" fill-rule="nonzero">
                                                            <path d="M26.9547101,23.7219573 C25.070086,23.3310561 20.311574,18.7800056 20.311574,18.7800056 C20.311574,18.7800056 26.4873757,16.5022966 28.3741836,16.8931978 C30.1458603,17.3869799 31.2314429,19.1696433 30.8570202,20.9703285 C30.4825976,22.7710136 28.7763717,23.9731666 26.9547101,23.7197735 L26.9547101,23.7219573 Z" id="Shape"></path>
                                                            <path d="M15.8173025,32.4309732 C13.89337,32.3632752 8.43385646,28.6835631 8.43385646,28.6835631 C8.43385646,28.6835631 14.1379562,25.4013036 16.0618887,25.4624502 C17.3649301,25.4217336 18.5822693,26.109823 19.2194021,27.2472044 C19.8565348,28.3845859 19.8074848,29.782075 19.0921769,30.8719875 C18.376869,31.9619 17.1142827,32.5629471 15.8173025,32.4309732 Z" id="Shape"></path>
                                                            <path d="M24.3079379,4.43677176 C24.5547079,6.34760149 28.7235924,11.4402357 28.7235924,11.4402357 C28.7235924,11.4402357 31.4686358,5.45660888 31.2240496,3.54577916 C30.8700804,1.73895137 29.1747749,0.516823643 27.3486923,0.752075204 C25.5226097,0.987326765 24.1924079,2.5992262 24.3079379,4.43677176 Z" id="Shape"></path>
                                                            <path d="M11.4103832,14.7858256 C12.2162074,16.5328699 17.719397,20.1470678 17.719397,20.1470678 C17.719397,20.1470678 18.5492431,13.6153059 17.7434189,11.8682615 C17.2755094,10.6531574 16.1707627,9.79902967 14.8769966,9.65210582 C13.5832305,9.50518197 12.3150913,10.0898379 11.5866294,11.1690786 C10.8581675,12.2483193 10.7902405,13.64309 11.4103832,14.7880094 L11.4103832,14.7858256 Z" id="Shape"></path>
                                                            <path d="M0.255505232,26.5652719 C0.753412864,28.4258741 5.56870377,32.915778 5.56870377,32.915778 C5.56870377,32.915778 7.49045253,26.619867 6.99036109,24.7592648 C6.39706618,23.0177484 4.55496265,22.0346521 2.77794151,22.511175 C1.00092037,22.9876978 -0.102148468,24.7605664 0.255505232,26.5652719 Z" id="Shape"></path>
                                                            <path d="M26.9547101,23.7219573 C25.070086,23.3310561 20.311574,18.7800056 20.311574,18.7800056 C20.311574,18.7800056 26.4873757,16.5022966 28.3741836,16.8931978 C30.1458603,17.3869799 31.2314429,19.1696433 30.8570202,20.9703285 C30.4825976,22.7710136 28.7763717,23.9731666 26.9547101,23.7197735 L26.9547101,23.7219573 Z" id="Shape" opacity="0.25"></path>
                                                            <path d="M15.8173025,32.4309732 C13.89337,32.3632752 8.43385646,28.6835631 8.43385646,28.6835631 C8.43385646,28.6835631 14.1379562,25.4013036 16.0618887,25.4624502 C17.3649301,25.4217336 18.5822693,26.109823 19.2194021,27.2472044 C19.8565348,28.3845859 19.8074848,29.782075 19.0921769,30.8719875 C18.376869,31.9619 17.1142827,32.5629471 15.8173025,32.4309732 Z" id="Shape" opacity="0.25"></path>
                                                            <path d="M11.4103832,14.7858256 C12.2162074,16.5328699 17.719397,20.1470678 17.719397,20.1470678 C17.719397,20.1470678 18.5492431,13.6153059 17.7434189,11.8682615 C17.2755094,10.6531574 16.1707627,9.79902967 14.8769966,9.65210582 C13.5832305,9.50518197 12.3150913,10.0898379 11.5866294,11.1690786 C10.8581675,12.2483193 10.7902405,13.64309 11.4103832,14.7880094 L11.4103832,14.7858256 Z" id="Shape" opacity="0.25"></path>
                                                            <path d="M0.255505232,26.5652719 C0.753412864,28.4258741 5.56870377,32.915778 5.56870377,32.915778 C5.56870377,32.915778 7.49045253,26.619867 6.99036109,24.7592648 C6.39706618,23.0177484 4.55496265,22.0346521 2.77794151,22.511175 C1.00092037,22.9876978 -0.102148468,24.7605664 0.255505232,26.5652719 Z" id="Shape" opacity="0.25"></path>
                                                        </g>
                                                        <g id="Group" transform="translate(137.361360, 66.123799)">
                                                            <path d="M6.45314496,48.0149743 C6.45314496,48.0149743 7.23057968,31.6539042 16.2125713,22.5277815 C20.0006947,18.7227268 22.4527315,13.791834 23.2007486,8.4749937 C23.5375179,5.94791576 23.6420496,3.39529746 23.5130328,0.849145235" id="Shape" stroke="#535461" stroke-width="2"></path>
                                                            <path d="M31.1039403,7.0227631 C29.5752766,8.20638563 23.0369632,8.89210053 23.0369632,8.89210053 C23.0369632,8.89210053 25.2972018,2.70756363 26.8149465,1.5239411 C27.7879797,0.658759552 29.161368,0.406381342 30.3784214,0.869105587 C31.5954749,1.33182983 32.454285,2.43289084 32.6067412,3.72598398 C32.7591975,5.01907711 32.1800074,6.28967896 31.1039403,7.0227631 Z" id="Shape" fill="#009CE3" fill-rule="nonzero"></path>
                                                            <path d="M24.891014,24.1700031 C22.982368,24.4255083 16.9856384,21.7110382 16.9856384,21.7110382 C16.9856384,21.7110382 22.0586184,17.5137643 23.9738157,17.258259 C25.250806,17.0020337 26.5643148,17.4773318 27.3816462,18.4913954 C28.1989776,19.505459 28.3844512,20.8899493 27.8628478,22.0833836 C27.3412444,23.2768179 26.1991523,24.0810813 24.8997492,24.1700031 L24.891014,24.1700031 Z" id="Shape" fill="#009CE3" fill-rule="nonzero"></path>
                                                            <path d="M17.2717169,36.078294 C15.4329528,36.6526348 9.06279242,34.9863913 9.06279242,34.9863913 C9.06279242,34.9863913 13.3517862,29.9920283 15.1905504,29.4176875 C16.9813858,28.9806924 18.803649,30.0100894 19.3537466,31.7694782 C19.9038442,33.5288669 18.9925237,35.4129572 17.2717169,36.0739264 L17.2717169,36.078294 Z" id="Shape" fill="#009CE3" fill-rule="nonzero"></path>
                                                            <path d="M15.9985584,6.85242628 C16.8720805,8.57326494 22.488828,11.995288 22.488828,11.995288 C22.488828,11.995288 23.0937421,5.4438718 22.2289552,3.71866553 C21.2977309,2.12740646 19.2903658,1.53352456 17.6432648,2.36198232 C15.9961637,3.19044008 15.276201,5.15611149 15.9985584,6.85242628 Z" id="Shape" fill="#009CE3" fill-rule="nonzero"></path>
                                                            <path d="M7.26333677,20.894295 C8.60419328,22.2766438 14.9940079,23.8599028 14.9940079,23.8599028 C14.9940079,23.8599028 13.6116591,17.4242282 12.2708026,16.0418794 C10.9062524,14.8008506 8.81208117,14.834226 7.48777117,16.1181078 C6.16346116,17.4019897 6.06519627,19.4941204 7.26333677,20.8964788 L7.26333677,20.894295 Z" id="Shape" fill="#009CE3" fill-rule="nonzero"></path>
                                                            <path d="M0.646406399,35.7048632 C1.7383091,37.2946736 7.76561201,39.9348943 7.76561201,39.9348943 C7.76561201,39.9348943 7.49045253,33.3572724 6.40291744,31.7674621 C5.26177367,30.33837 3.21170795,30.0309823 1.70161242,31.0625466 C0.191516896,32.094111 -0.267667256,34.1155972 0.648590204,35.6983118 L0.646406399,35.7048632 Z" id="Shape" fill="#009CE3" fill-rule="nonzero"></path>
                                                        </g>
                                                    </g>
                                                    <g id="Group-35" transform="translate(48.985172, 154.670121)" fill="#009CE3" fill-rule="nonzero">
                                                        <path d="M0.1616016,11.5342607 C11.3040887,15.2805394 24.8978097,13.0021672 37.5393751,13.2657102 C39.2708247,13.3025496 41.1014571,13.4102338 42.4900173,14.0563394 C43.8785775,14.7024449 44.5615224,15.7566172 45.513678,16.649263 C49.0559234,19.9903089 56.3132758,21.0643177 62.6581457,20.4975584 C69.0030157,19.9307992 74.8207995,18.054826 80.7944422,16.6265926 C91.1434664,14.1555223 102.974566,13.0333389 113.1819,15.7254454 C114.119887,15.9719857 115.106048,16.2553653 116.109212,16.1590163 C118.347911,15.9379801 119.013853,14.1470209 120.578109,13.1240204 C123.411905,11.2763852 129.541407,11.7779671 130.779776,9.3437361 C131.508061,7.92683794 129.833288,6.45326385 128.011157,5.47843791 C121.03435,1.74916195 111.053719,1.13422815 101.923228,1.7094888 C92.7927358,2.28474946 83.8152691,3.8716754 74.6366028,3.87734299 C63.2022346,3.87734299 52.1532627,1.44311195 40.8294126,0.445615642 C32.9854644,-0.245830661 24.4245657,-0.160816771 17.0708643,1.8625138 C9.12206557,4.07854253 7.36511185,9.02068332 0.1616016,11.5342607 Z" id="Shape"></path>
                                                    </g>
                                                </g>
                                                <path d="M55.0030396,28.0082501 L57.8650982,28.0082501 C56.7843441,27.9720891 55.9269185,27.0854952 55.9269185,26.0041362 C55.9269185,24.9227772 56.7843441,24.0361832 57.8650982,24.0000223 L81.0486703,24.0000223 C82.1294245,24.0361832 82.98685,24.9227772 82.98685,26.0041362 C82.98685,27.0854952 82.1294245,27.9720891 81.0486703,28.0082501 L78.1866117,28.0082501 C79.2928338,28.0082501 80.1896041,28.9050204 80.1896041,30.0112426 C80.1896041,31.1174647 79.2928338,32.014235 78.1866117,32.014235 L82.1925965,32.014235 C83.2733507,32.050396 84.1307762,32.93699 84.1307762,34.0183489 C84.1307762,35.0997079 83.2733507,35.9863019 82.1925965,36.0224629 L59.0090245,36.0224629 C57.9282703,35.9863019 57.0708448,35.0997079 57.0708448,34.0183489 C57.0708448,32.93699 57.9282703,32.050396 59.0090245,32.014235 L55.0030396,32.014235 C53.8968174,32.014235 53.0000472,31.1174647 53.0000472,30.0112426 C53.0000472,28.9050204 53.8968174,28.0082501 55.0030396,28.0082501 Z" id="Shape-Copy" fill="#009CE3" fill-rule="nonzero"></path>
                                                <g id="Group-41" transform="translate(96.000085, 28.000012)" fill="#009CE3" fill-rule="nonzero">
                                                    <circle id="Oval" cx="26.3353514" cy="8.16787109" r="3.70093787"></circle>
                                                    <circle id="Oval" cx="2.01869339" cy="2.01869339" r="2.01869339"></circle>
                                                </g>
                                                <g id="Group-42" transform="translate(194.407914, 19.734572) rotate(-11.000000) translate(-194.407914, -19.734572) translate(161.407914, 6.234572)" fill="#009CE3" fill-rule="nonzero">
                                                    <circle id="Oval" cx="3.70093787" cy="3.70093787" r="3.70093787"></circle>
                                                    <circle id="Oval" cx="63.9409612" cy="24.539462" r="2.01869339"></circle>
                                                </g>
                                                <g id="Group-42-Copy" transform="translate(222.000207, 143.000112) rotate(80.000000) translate(-222.000207, -143.000112) translate(206.000207, 129.000112)" fill="#009CE3" fill-rule="nonzero">
                                                    <circle id="Oval" cx="3.88411561" cy="3.86878849" r="3.70093787"></circle>
                                                    <circle id="Oval" cx="29.9409612" cy="25.539462" r="2.01869339"></circle>
                                                </g>
                                                <g id="Group-40" transform="translate(10.606821, 164.707976)" fill="#009CE3" fill-rule="nonzero">
                                                    <circle id="Oval" cx="9.42945851" cy="2.16843561" r="2.01869339"></circle>
                                                    <circle id="Oval" cx="17.1677832" cy="11.2592848" r="2.01869339"></circle>
                                                    <circle id="Oval" cx="2.02758276" cy="16.7389159" r="2.01869339"></circle>
                                                </g>
                                                <ellipse id="Oval" fill="#009CE3" fill-rule="nonzero" cx="40.4710604" cy="204.960924" rx="10.0000089" ry="2.01869339"></ellipse>
                                                <ellipse id="Oval-Copy-7" fill="#009CE3" fill-rule="nonzero" cx="161.471168" cy="204.960924" rx="10.0000089" ry="2.01869339"></ellipse>
                                            </g>
                                            <path d="M63.1801036,121.15966 C63.1801036,121.15966 60.2303142,127.444712 62.0433832,127.019007 C63.8564522,126.593303 63.1801036,121.15966 63.1801036,121.15966 Z" id="Shape" fill="#000000" fill-rule="nonzero" opacity="0.1"></path>
                                            <g id="Group-3" transform="translate(37.000000, 88.000000)" fill-rule="nonzero">
                                                <polygon id="Shape" fill="#A8A7A7" points="21.4077977 26.7146041 74.7300338 17.4120126 74.7300338 71.5348314 23.1168547 68.6913417 20.4077977 26.7146041"></polygon>
                                                <polygon id="Shape" fill="#000000" opacity="0.05" points="75.3222361 17 75.3222361 71.1228187 23.709057 68.2793291 21 26.3025915"></polygon>
                                                <polygon id="Shape" fill="#B0ADAD" points="74.7808219 17.4120126 139.925176 22.5421728 136.320155 69.6416464 74.7808219 71.5348314"></polygon>
                                                <polygon id="Shape" fill="#000000" opacity="0.1" points="75 17 140.144354 22.1301602 136.539333 69.2296337 75 71.1228187"></polygon>
                                                <polygon id="Shape" fill="#C9C7C7" points="94.8095009 0.973656481 74.7808219 17.4926238 139.925176 22.622784 150.570924 5.71775541"></polygon>
                                                <polygon id="Shape" fill="#C9C7C7" points="0.934668072 8.7571144 49.8387902 2.4910432 74.9257866 17.4954625 20.6035504 26.798054"></polygon>
                                                <polygon id="Shape" fill="#E0E0E0" points="86.6385967 31.2678562 86.6385967 105.265405 61.1918038 102.518431 50.1227663 101.33055 46.7505548 100.959338 35.6885722 99.7640325 20.4077977 98.1158479 20.4077977 26.516333 74.722979 30.4066426"></polygon>
                                                <polygon id="Shape" fill="#CCCCCC" points="139.902809 22.4699684 139.902809 94.6337267 119.507279 98.7541882 109.58818 100.758737 86.6670179 105.391472 86.6670179 31.3939229"></polygon>
                                                <polygon id="Shape" fill="#CCCCCC" opacity="0.05" points="139.235791 24 139.235791 96.1637583 118.840261 100.28422 108.921162 102.288769 86 106.921504 86 32.9239545"></polygon>
                                                <polygon id="Shape" fill="#C8C6C6" points="0.934668072 42.0924199 20.6035504 26.516333 86.8343495 31.2678562 77.0845663 48.5515217"></polygon>
                                                <polygon id="Shape" fill="#E0E0E0" opacity="0.1" points="1 41.5760869 20.6688824 26 86.8996814 30.7515232 77.1498983 48.0351888"></polygon>
                                                <polygon id="Shape" fill="#BABABA" points="139.902809 22.4699684 86.6670179 31.3939229 103.993695 47.7272838 161.017933 37.6599941"></polygon>
                                                <polygon id="Shape" fill="#FFFFFF" opacity="0.1" points="140.235791 23 87 31.9239545 104.326677 48.2573154 161.350915 38.1900257"></polygon>
                                                <polygon id="Shape" fill="#9B9898" opacity="0.252399554" points="119.346918 99.0459187 109.427819 101.050468 109.427819 85.63029 118.719038 83.1654373"></polygon>
                                                <polygon id="Shape" fill="#FFFFFF" opacity="0.1" points="61.0658762 92.5226554 61.0658762 102.723582 49.9968388 101.535701 49.9968388 92.5226554"></polygon>
                                                <polygon id="Shape" fill="#FFFFFF" opacity="0.1" points="46.8965453 95.8103267 46.8965453 101.237457 35.8345627 100.042152 35.8345627 95.8103267"></polygon>
                                            </g>
                                            <path d="M110.578507,52.0124477 C110.578507,52.0124477 100.968391,51.4333118 102.091257,58.1755668 C102.091257,58.1755668 101.866178,59.3667154 102.946051,59.9079166 C102.946051,59.9079166 102.963754,59.402121 103.932353,59.5766205 C104.277289,59.6346725 104.627889,59.6516507 104.976821,59.6272001 C105.449691,59.5956622 105.89919,59.4099995 106.256483,59.0986437 C106.256483,59.0986437 108.959961,57.9833645 110.012015,53.5627111 C110.012015,53.5627111 110.790941,52.5966416 110.770709,52.3488018 L109.147105,53.0442707 C109.147105,53.0442707 109.700951,54.2151874 109.263438,55.1888439 C109.263438,55.1888439 109.212858,53.0872633 108.899265,53.1353139 C108.836041,53.1353139 108.057116,53.5424793 108.057116,53.5424793 C108.057116,53.5424793 109.01054,55.5808355 108.289782,57.0653455 C108.289782,57.0653455 108.562911,54.5515415 107.758696,53.68916 L106.615598,54.3568102 C106.615598,54.3568102 107.730877,56.4634488 106.974713,58.1831537 C106.974713,58.1831537 107.169444,55.5454298 106.375345,54.5186648 L105.338464,55.3254087 C105.338464,55.3254087 106.38799,57.4042285 105.748159,58.8305721 C105.748159,58.8305721 105.664703,55.7603929 105.113385,55.527727 C105.113385,55.527727 104.208011,56.326884 104.071446,56.6556511 C104.071446,56.6556511 104.787147,58.1730378 104.342047,58.9595499 C104.342047,58.9595499 104.068917,56.9136068 103.836252,56.9034909 C103.836252,56.9034909 102.933406,58.2590231 102.839834,59.179571 C102.88356,58.3213652 103.151235,57.4895662 103.61623,56.7669261 C103.095887,56.8653734 102.615818,57.1142003 102.235409,57.4826268 C102.235409,57.4826268 102.374502,56.5241442 103.838781,56.440688 C103.838781,56.440688 104.597474,55.411394 104.784618,55.3481695 C104.784618,55.3481695 103.327927,55.2267786 102.445314,55.6187702 C102.445314,55.6187702 103.22171,54.7159251 105.05269,55.1129746 L106.064281,54.2784119 C106.064281,54.2784119 104.147316,54.0255141 103.332985,54.3062306 C103.332985,54.3062306 104.268707,53.5070736 106.33994,54.0887385 L107.45269,53.4236174 C107.45269,53.4236174 105.81897,53.0695605 104.845314,53.1985383 C104.845314,53.1985383 105.872079,52.6446922 107.778928,53.2440599 L108.575556,52.8874741 C108.575556,52.8874741 107.376821,52.6522791 107.027822,52.6143444 C106.678823,52.5764098 106.658591,52.4803086 106.658591,52.4803086 C107.416952,52.35409 108.195483,52.4416637 108.906852,52.7332064 C108.906852,52.7332064 110.613912,52.1186648 110.578507,52.0124477 Z" id="Shape" fill="#009CE3" fill-rule="nonzero"></path>
                                            <path d="M164.578507,69.0124477 C164.578507,69.0124477 154.968391,68.4333118 156.091257,75.1755668 C156.091257,75.1755668 155.866178,76.3667154 156.946051,76.9079166 C156.946051,76.9079166 156.963754,76.402121 157.934882,76.5766205 C158.279818,76.6346725 158.630418,76.6516507 158.97935,76.6272001 C159.446665,76.5933185 159.890374,76.4087354 160.243838,76.1011727 C160.243838,76.1011727 162.949845,74.9833645 164.0019,70.5627111 C164.0019,70.5627111 164.778296,69.5991706 164.747948,69.3513307 L163.124344,70.0442707 C163.124344,70.0442707 163.67819,71.2151874 163.243206,72.1888439 C163.243206,72.1888439 163.190098,70.0872633 162.879033,70.1353139 C162.815809,70.1353139 162.034355,70.5424793 162.034355,70.5424793 C162.034355,70.5424793 162.990308,72.5833645 162.26955,74.0653455 C162.26955,74.0653455 162.542679,71.5515415 161.735935,70.68916 L160.605482,71.3492233 C160.605482,71.3492233 161.720762,73.4558618 160.964597,75.1755668 C160.964597,75.1755668 161.159328,72.5378429 160.365229,71.5110778 L159.330877,72.3203508 C159.330877,72.3203508 160.377874,74.3966416 159.740572,75.8229851 C159.740572,75.8229851 159.657116,72.752806 159.105798,72.52014 C159.105798,72.52014 158.200424,73.319297 158.061331,73.6480641 C158.061331,73.6480641 158.77956,75.1654509 158.33446,75.951963 C158.33446,75.951963 158.061331,73.9060199 157.828665,73.895904 C157.828665,73.895904 156.925819,75.2514361 156.832247,76.1719841 C156.87743,75.3136734 157.145927,74.4820322 157.611173,73.7593392 C157.090172,73.8580266 156.609357,74.1067849 156.227822,74.4750399 C156.227822,74.4750399 156.369444,73.5165573 157.833723,73.433101 C157.833723,73.433101 158.579771,72.403807 158.77956,72.3405826 C158.77956,72.3405826 157.322869,72.2191916 156.440256,72.6111832 C156.440256,72.6111832 157.216652,71.7083381 159.045103,72.1180325 L160.056694,71.2834698 C160.056694,71.2834698 158.1372,71.0305721 157.325398,71.3112886 C157.325398,71.3112886 158.26112,70.5121316 160.332353,71.0937965 L161.445103,70.4286753 C161.445103,70.4286753 159.808854,70.0771474 158.835198,70.2035963 C158.835198,70.2035963 159.864492,69.6497501 161.771341,70.2491179 L162.567969,69.892532 C162.567969,69.892532 161.369234,69.6573371 161.017706,69.6194024 C160.666178,69.5814677 160.648475,69.4853666 160.648475,69.4853666 C161.407667,69.3590723 162.18703,69.4466411 162.899265,69.7382644 C162.899265,69.7382644 164.608854,69.1186648 164.578507,69.0124477 Z" id="Shape" fill="#009CE3" fill-rule="nonzero" opacity="0.1"></path>
                                            <path d="M58.2868059,53.4294101 C58.2868059,53.4294101 50.5683654,47.6557536 47.8092505,53.9099159 C47.8092505,53.9099159 46.9671009,54.7824132 47.5715266,55.8268811 C47.5715266,55.8268811 47.8598301,55.4197156 48.5831178,56.0949527 C48.8393083,56.3332932 49.1228457,56.5404283 49.4277964,56.7120233 C49.8408453,56.9420172 50.3177078,57.0308185 50.7858575,56.9649211 C50.7858575,56.9649211 53.6587764,57.5187673 56.9666794,54.4055955 C56.9666794,54.4055955 58.1477121,54.0262488 58.2589871,53.8036988 L56.5165214,53.4976925 C56.5165214,53.4976925 56.3344349,54.7798842 55.4366478,55.3539622 C55.4366478,55.3539622 56.5468691,53.5685038 56.2585656,53.439526 C56.2003991,53.4117072 55.3304307,53.3130771 55.3304307,53.3130771 C55.3304307,53.3130771 55.0067216,55.5436356 53.590494,56.3857852 C53.590494,56.3857852 55.2014529,54.4359432 55.0016636,53.2726134 L53.6790082,53.201802 C53.6790082,53.201802 53.4539292,55.5765123 51.875847,56.5982193 C51.875847,56.5982193 53.4868059,54.5016967 53.3932337,53.20686 L52.0832231,53.3130771 C52.0832231,53.3130771 51.8176805,55.6220339 50.500083,56.4616545 C50.500083,56.4616545 52.1160999,53.8517494 51.7848038,53.3560697 C51.7848038,53.3560697 50.5885972,53.5255112 50.2927068,53.7227715 C50.2927068,53.7227715 50.0625698,55.376723 49.2532969,55.7965333 C49.2532969,55.7965333 50.1510841,53.9377346 49.9689976,53.8087567 C49.9689976,53.8087567 48.4693138,54.4435302 47.8800619,55.1668179 C48.3897903,54.4742896 49.0714896,53.926838 49.8577226,53.5786197 C49.36853,53.3752986 48.8306616,53.319051 48.3099882,53.4167652 C48.3099882,53.4167652 48.9523485,52.6934775 50.2218954,53.4294101 C50.2218954,53.4294101 51.410515,52.981781 51.6128333,53.0374185 C51.6128333,53.0374185 50.4621483,52.1345734 49.5087237,51.9777768 C49.5087237,51.9777768 50.6568796,51.6490096 51.9593032,52.9893679 L53.2718427,52.8553321 C53.2718427,52.8553321 51.8126225,51.5908431 50.9755308,51.378409 C50.9755308,51.378409 52.1970272,51.2241414 53.6056678,52.8477451 L54.9005045,52.9059116 C54.9005045,52.9059116 53.7295877,51.7122341 52.8469745,51.2823078 C52.8469745,51.2823078 54.0077753,51.383467 55.2722642,52.9337304 L56.1346457,53.0728242 C56.1346457,53.0728242 55.2621483,52.2180297 54.9890187,51.9954796 C54.7158891,51.7729295 54.7538238,51.6793574 54.7538238,51.6793574 C55.4573822,51.9909107 56.0606117,52.491705 56.4962895,53.1259327 C56.4962895,53.1259327 58.2539292,53.5330981 58.2868059,53.4294101 Z" id="Shape" fill="#009CE3" fill-rule="nonzero" opacity="0.1"></path>
                                            <path d="M130.942887,21.1165437 C130.942887,21.1165437 123.224447,15.3403583 120.465332,21.5970495 C120.465332,21.5970495 119.623182,22.4695469 120.227608,23.5140148 C120.227608,23.5140148 120.515911,23.1068493 121.239199,23.7820864 C121.496732,24.0191958 121.781058,24.2254382 122.086407,24.396628 C122.499392,24.6267985 122.976314,24.7156108 123.444468,24.6495258 C123.444468,24.6495258 126.317387,25.203372 129.62529,22.0876712 C129.62529,22.0876712 130.806322,21.7108535 130.915068,21.4857745 L129.172603,21.1848261 C129.172603,21.1848261 128.993045,22.4670179 128.092729,23.0410959 C128.092729,23.0410959 129.205479,21.2556375 128.917176,21.1266596 C128.859009,21.0988409 127.989041,21.0002107 127.989041,21.0002107 C127.989041,21.0002107 127.655216,23.2358272 126.238988,24.0729189 C126.238988,24.0729189 127.847418,22.1230769 127.650158,20.9597471 L126.327503,20.8889357 C126.327503,20.8889357 126.099895,23.2636459 124.524341,24.282824 C124.524341,24.282824 126.1353,22.1863014 126.041728,20.8914647 L124.734247,20.9976818 C124.734247,20.9976818 124.466175,23.3091675 123.148577,24.1487882 C123.148577,24.1487882 124.767123,21.538883 124.435827,21.0432034 C124.435827,21.0432034 123.239621,21.2126449 122.94373,21.4099052 C122.94373,21.4099052 122.713593,23.0638567 121.90432,23.483667 C121.90432,23.483667 122.802107,21.6248683 122.620021,21.4933614 C122.620021,21.4933614 121.120337,22.1306639 120.531085,22.8539515 C121.040043,22.1606851 121.721959,21.6130601 122.508746,21.2657534 C122.019051,21.0609202 121.479927,21.0046332 120.958483,21.1038988 C120.958483,21.1038988 121.603372,20.3806112 122.872919,21.1165437 C122.872919,21.1165437 124.061538,20.6663857 124.263857,20.7245522 C124.263857,20.7245522 123.113172,19.8217071 122.159747,19.6623815 C122.159747,19.6623815 123.305374,19.3361433 124.607798,20.6739726 L125.920337,20.5399368 C125.920337,20.5399368 124.463646,19.2754478 123.624025,19.0604847 C123.624025,19.0604847 124.845522,18.908746 126.256691,20.5323498 L127.551528,20.5879874 C127.551528,20.5879874 126.380611,19.3943098 125.495469,18.9669125 C125.495469,18.9669125 126.658799,19.0680717 127.923288,20.6183351 L128.78314,20.7574289 C128.78314,20.7574289 127.908114,19.9127503 127.634984,19.6952582 C127.361855,19.4777661 127.399789,19.3816649 127.399789,19.3816649 C128.10356,19.692876 128.706875,20.1937412 129.142255,20.8282403 C129.142255,20.8282403 130.899895,21.2126449 130.942887,21.1165437 Z" id="Shape" fill="#009CE3" fill-rule="nonzero" opacity="0.1"></path>
                                            <path d="M39.1867229,27.379101 C39.1867229,27.379101 36.1013699,18.2469619 30.2821918,21.8355815 C30.2821918,21.8355815 29.0935722,22.0884793 29,23.2796278 C29,23.2796278 29.4678609,23.1076573 29.6752371,24.0686689 C29.7522824,24.4105159 29.8685423,24.7423233 30.0217071,25.0574993 C30.2307238,25.4816633 30.5714099,25.8267854 30.9928346,26.0412717 C30.9928346,26.0412717 33.0463646,28.1276784 37.5378293,27.4372675 C37.5378293,27.4372675 38.7239199,27.7963823 38.941412,27.6724624 L37.6769231,26.4307343 C37.6769231,26.4307343 36.8018967,27.3841589 35.7346681,27.3462242 C35.7346681,27.3462242 37.6642782,26.5066036 37.5049526,26.236003 C37.4720759,26.1828944 36.8120126,25.6088164 36.8120126,25.6088164 C36.8120126,25.6088164 35.2794521,27.260239 33.6356164,27.151493 C33.6356164,27.151493 36.0659642,26.458553 36.5616438,25.3812084 L35.514647,24.5744645 C35.514647,24.5744645 33.9820864,26.4003865 32.1030558,26.344749 C32.1030558,26.344749 34.6320337,25.5329471 35.2718651,24.4100809 L34.1338251,23.7550757 C34.1338251,23.7550757 32.6164384,25.5076573 31.0434141,25.4520198 C31.0434141,25.4520198 33.8556375,24.2204076 33.8632244,23.6235688 C33.8632244,23.6235688 32.7833509,23.0848965 32.426765,23.0798386 C32.426765,23.0798386 31.2988409,24.3114508 30.4035827,24.2001758 C30.4035827,24.2001758 32.1940991,23.1759397 32.1182297,22.9660346 C32.1182297,22.9660346 30.5249737,22.6397964 29.6271865,22.9028101 C30.4392057,22.6200854 31.3110578,22.5546965 32.1561644,22.7131368 C31.8675779,22.2677795 31.455392,21.916235 30.9700738,21.7015456 C30.9700738,21.7015456 31.9108535,21.4714087 32.540569,22.7965931 C32.540569,22.7965931 33.7747102,23.1025994 33.9062171,23.261925 C33.9062171,23.261925 33.4712329,21.8684582 32.775764,21.1957501 C32.775764,21.1957501 33.9062171,21.5776257 34.2147524,23.4263085 L35.3730242,24.058553 C35.3730242,24.058553 34.8950474,22.1845804 34.3184405,21.5295751 C34.3184405,21.5295751 35.4134879,22.0960662 35.6512118,24.2330525 L36.6880927,25.0145066 C36.6880927,25.0145066 36.3997893,23.3656131 35.9142255,22.5108186 C35.9142255,22.5108186 36.8145416,23.2543381 36.9763962,25.2497016 L37.6061117,25.8515983 C37.6061117,25.8515983 37.3734457,24.6528628 37.2773446,24.3139798 C37.1812434,23.9750967 37.2596417,23.9523359 37.2596417,23.9523359 C37.6616748,24.608388 37.8743671,25.3628768 37.8741834,26.1323149 C37.8741834,26.1323149 39.0982086,27.4448544 39.1867229,27.379101 Z" id="Shape" fill="#009CE3" fill-rule="nonzero" opacity="0.1"></path>
                                            <path d="M184.839719,43.0609053 C184.839719,43.0609053 175.254893,41.9936766 176.046463,48.7940981 C176.046463,48.7940981 175.760688,49.9726018 176.805156,50.5643826 C176.805156,50.5643826 176.848149,50.0585871 177.816747,50.2861951 C178.159053,50.3598482 178.508578,50.394631 178.858686,50.3898832 C179.331602,50.3813425 179.788842,50.2188666 180.16111,49.9270802 C180.16111,49.9270802 182.920224,48.9483658 184.207474,44.585879 C184.207474,44.585879 185.031921,43.662802 185.014218,43.4124332 L183.357738,44.0244459 C183.357738,44.0244459 183.863533,45.2206524 183.357738,46.1715481 C183.357738,46.1715481 183.410846,44.0699675 183.10484,44.1028442 C183.041615,44.1028442 182.242458,44.467017 182.242458,44.467017 C182.242458,44.467017 183.092195,46.5534237 182.298096,48.007586 C182.298096,48.007586 182.697674,45.5089559 181.936452,44.6086398 L180.760477,45.2155944 C180.760477,45.2155944 181.772069,47.3778705 180.924861,49.0571118 C180.924861,49.0571118 181.253628,46.4320328 180.512638,45.3673331 L179.437822,46.1260265 C179.437822,46.1260265 180.378602,48.2528969 179.667959,49.6463637 C179.667959,49.6463637 179.741299,46.5761845 179.202627,46.3156998 C179.202627,46.3156998 178.256789,47.0743932 178.102522,47.3879864 C178.102522,47.3879864 178.742353,48.9306629 178.259318,49.7020012 C178.259318,49.7020012 178.089877,47.6459422 177.867327,47.6257104 C177.867327,47.6257104 176.896199,48.9331919 176.754576,49.8562688 C176.842301,49.0004695 177.152712,48.182588 177.654893,47.4840876 C177.130106,47.5566084 176.637901,47.7807376 176.238665,48.128977 C176.238665,48.128977 176.425809,47.1806103 177.892616,47.1704943 C177.892616,47.1704943 178.689245,46.181664 178.904208,46.1285555 C178.904208,46.1285555 177.455103,45.9338242 176.552258,46.2802941 C176.552258,46.2802941 177.374176,45.4153837 179.179866,45.9186503 L180.244566,45.1371961 C180.244566,45.1371961 178.320014,44.7477335 177.505683,45.0006313 C177.505683,45.0006313 178.481868,44.241938 180.520224,44.9374069 L181.665851,44.3279232 C181.665851,44.3279232 180.049835,43.892939 179.07112,43.9713373 C179.07112,43.9713373 180.125704,43.4655418 181.999677,44.1660686 L182.814007,43.8499464 C182.814007,43.8499464 181.627917,43.554056 181.278918,43.4984185 C180.929919,43.442781 180.917274,43.3466798 180.917274,43.3466798 C181.681819,43.2589587 182.455712,43.3850227 183.15289,43.7108526 C183.15289,43.7108526 184.857422,43.1671224 184.839719,43.0609053 Z" id="Shape" fill="#009CE3" fill-rule="nonzero" opacity="0.1"></path>
                                            <path d="M72.9919916,6.65867421 C72.9919916,6.65867421 70.3315068,-2.60497174 64.3479452,0.720634164 C64.3479452,0.720634164 63.1492097,0.905249548 63,2.10398506 C63,2.10398506 63.4754478,1.95477536 63.6398314,2.92337389 C63.700787,3.27134865 63.8026525,3.61090048 63.9433087,3.93496504 C64.1308921,4.37075332 64.4559833,4.73315014 64.8689146,4.96678801 C64.8689146,4.96678801 66.8263435,7.14170898 71.343098,6.65614523 C71.343098,6.65614523 72.5114858,7.06583964 72.7340358,6.95456462 L71.5378293,5.65466999 C71.5378293,5.65466999 70.6198103,6.57015998 69.5576396,6.48417473 C69.5576396,6.48417473 71.5201264,5.72548137 71.3683878,5.45488074 C71.33804,5.39924323 70.7057956,4.79481751 70.7057956,4.79481751 C70.7057956,4.79481751 69.1024236,6.37795766 67.4636459,6.19334228 C67.4636459,6.19334228 69.9243414,5.61167737 70.4655427,4.56468053 L69.4539515,3.70988601 C69.4539515,3.70988601 67.8404636,5.46499665 65.966491,5.32843185 C65.966491,5.32843185 68.5157007,4.62790497 69.2187566,3.53791551 L68.1110643,2.83233069 C68.1110643,2.83233069 66.5051633,4.51410097 64.947313,4.38765208 C64.947313,4.38765208 67.8126449,3.28248875 67.8480506,2.68817895 C67.8480506,2.68817895 66.7909378,2.10145608 66.4343519,2.08122426 C66.4343519,2.08122426 65.2533193,3.25972795 64.3555321,3.10798927 C64.3555321,3.10798927 66.1915701,2.16468053 66.1258166,1.95224639 C66.1258166,1.95224639 64.5477345,1.55519686 63.6398314,1.77521794 C64.4621214,1.5313811 65.3337706,1.50610328 66.1688093,1.70187758 C65.9013392,1.24427389 65.5057103,0.875020199 65.0307692,0.639706872 C65.0307692,0.639706872 65.9816649,0.450033531 66.548156,1.80303669 C66.548156,1.80303669 67.7645943,2.16215155 67.8910432,2.32906409 C67.8910432,2.32906409 67.5192835,0.91536546 66.8541623,0.214838589 C66.8541623,0.214838589 67.9669125,0.644764827 68.1919916,2.50609254 L69.3199157,3.19144554 C69.3199157,3.19144554 68.9253952,1.29471214 68.3791359,0.627061982 C68.3791359,0.627061982 69.4463646,1.24160361 69.5905163,3.38617684 L70.6021075,4.2131526 C70.6021075,4.2131526 70.3871444,2.55414312 69.9420443,1.68417473 C69.9420443,1.68417473 70.8094837,2.46815787 70.880295,4.46605039 L71.4821918,5.09829486 C71.4821918,5.09829486 71.3051633,3.88944344 71.229294,3.54550245 C71.1534247,3.20156146 71.229294,3.15351088 71.229294,3.15351088 C71.6035284,3.82619894 71.7830472,4.58981035 71.7477345,5.35877958 C71.7477345,5.35877958 72.9009484,6.71936967 72.9919916,6.65867421 Z" id="Shape" fill="#009CE3" fill-rule="nonzero" opacity="0.1"></path>
                                            <path d="M141.834108,66.0256536 C141.834108,66.0256536 136.920304,57.7331352 131.971094,62.4522079 C131.971094,62.4522079 130.858344,62.9327137 131.01514,64.1314492 C131.01514,64.1314492 131.43748,63.8633776 131.842116,64.7611647 C131.986811,65.080304 132.169366,65.3808819 132.385846,65.6564229 C132.676259,66.0293648 133.081623,66.2960513 133.53906,66.4151162 C133.53906,66.4151162 135.979524,68.0286041 140.230736,66.4151162 C140.230736,66.4151162 141.464877,66.5188043 141.652021,66.3544208 L140.167511,65.3984671 C140.167511,65.3984671 139.509977,66.5137464 138.457922,66.6983618 C138.457922,66.6983618 140.17004,65.4768654 139.955077,65.2467285 C139.909555,65.1986779 139.145804,64.7738096 139.145804,64.7738096 C139.145804,64.7738096 137.990061,66.7084777 136.363929,66.9436726 C136.363929,66.9436726 138.599545,65.760111 138.86003,64.611955 L137.666352,64.0505219 C137.666352,64.0505219 136.546015,66.1571605 134.697332,66.4935145 C134.697332,66.4935145 136.991115,65.1759171 137.395751,63.9443049 L136.146436,63.5396684 C136.146436,63.5396684 135.013454,65.5628507 133.475836,65.8410383 C133.475836,65.8410383 135.969408,64.0505219 135.853075,63.466328 C135.853075,63.466328 134.684687,63.1628507 134.335688,63.2336621 C134.335688,63.2336621 133.488481,64.6726505 132.580578,64.7510488 C132.580578,64.7510488 134.120725,63.3803428 134.004392,63.1881405 C134.004392,63.1881405 132.37573,63.2007854 131.553813,63.6433565 C132.290091,63.1992478 133.129601,62.9551537 133.989218,62.9352427 C133.61541,62.5593027 133.13984,62.30086 132.621041,62.1917232 C132.621041,62.1917232 133.493539,61.7693839 134.391326,62.9352427 C134.391326,62.9352427 135.655815,62.9782353 135.825256,63.1072132 C135.825256,63.1072132 135.109555,61.8427242 134.290167,61.3217548 C134.290167,61.3217548 135.473728,61.4583196 136.159081,63.2033143 L137.42357,63.582661 C137.42357,63.582661 136.566247,61.8477822 135.868249,61.3369287 C135.868249,61.3369287 137.056868,61.6631668 137.734635,63.704052 L138.910609,64.2528402 C138.910609,64.2528402 138.285952,62.7025767 137.64612,61.9767601 C137.64612,61.9767601 138.680472,62.5154324 139.25455,64.4323976 L139.995541,64.8926716 C139.995541,64.8926716 139.520093,63.7672764 139.35318,63.4562121 C139.186268,63.1451478 139.257079,63.0768654 139.257079,63.0768654 C139.787198,63.6340518 140.152275,64.3274342 140.311663,65.0798159 C140.311663,65.0798159 141.760767,66.1091099 141.834108,66.0256536 Z" id="Shape" fill="#009CE3" fill-rule="nonzero"></path>
                                            <path d="M110.145838,84.4085096 C110.145838,84.4085096 110.398736,74.7731039 103.704531,76.131165 C103.704531,76.131165 102.505796,75.9465496 102,77.044126 C102,77.044126 102.505796,77.044126 102.364173,78.0177825 C102.317844,78.3649619 102.31275,78.7164032 102.348999,79.0647793 C102.394717,79.5373125 102.594676,79.9816666 102.918019,80.3292683 C102.918019,80.3292683 104.124341,82.9948109 108.577871,83.900185 C108.577871,83.900185 109.566702,84.6462335 109.814542,84.6057698 L109.055848,83.0074558 C109.055848,83.0074558 107.905163,83.5992367 106.916333,83.1971292 C106.916333,83.1971292 109.015385,83.0732093 108.957218,82.764674 C108.957218,82.7014495 108.522234,81.9326402 108.522234,81.9326402 C108.522234,81.9326402 106.514226,82.9568763 105.009484,82.2841682 C105.009484,82.2841682 107.538462,82.4738415 108.365437,81.6418078 L107.659852,80.5214706 C107.659852,80.5214706 105.591149,81.7050322 103.846154,81.0070343 C103.846154,81.0070343 106.488936,81.1132514 107.490411,80.2862756 L106.648261,79.2746845 C106.648261,79.2746845 104.607376,80.3924927 103.160801,79.8007119 C103.160801,79.8007119 106.225922,79.6160965 106.448472,79.0571924 C106.448472,79.0571924 105.618967,78.1796371 105.285142,78.0456012 C105.285142,78.0456012 103.803161,78.8042946 102.993888,78.3946002 C102.993888,78.3946002 105.017071,78.0557172 105.029715,77.8306381 C105.029715,77.8306381 103.646365,76.9733146 102.713172,76.9100902 C103.573681,76.9254748 104.415128,77.1661375 105.153635,77.6080881 C105.038415,77.0911655 104.77472,76.619152 104.394942,76.250027 C104.394942,76.250027 105.358483,76.358773 105.489989,77.8179932 C105.489989,77.8179932 106.544573,78.531165 106.612856,78.7284253 C106.612856,78.7284253 106.686196,77.269205 106.263857,76.3992367 C106.263857,76.3992367 107.194521,77.1452851 106.845522,78.986381 L107.712961,79.9827983 C107.712961,79.9827983 107.910221,78.0557172 107.594099,77.2540312 C107.594099,77.2540312 108.423604,78.1619342 107.91275,80.25087 L108.613277,81.3408594 C108.613277,81.3408594 108.911697,79.6944948 108.752371,78.7258963 C108.752371,78.7258963 109.339094,79.7374874 108.80295,81.6620396 L109.187355,82.4460227 C109.187355,82.4460227 109.382086,81.2397003 109.407376,80.8881724 C109.432666,80.5366445 109.528767,80.5138837 109.528767,80.5138837 C109.681004,81.2683014 109.62059,82.0501842 109.354268,82.7722609 C109.354268,82.7722609 110.034563,84.4413863 110.145838,84.4085096 Z" id="Shape" fill="#009CE3" fill-rule="nonzero"></path>
                                            <ellipse id="Oval" fill="#009CE3" fill-rule="nonzero" opacity="0.1" cx="139.548999" cy="208.966491" rx="6.81053741" ry="1.15068493"></ellipse>
                                            <ellipse id="Oval" fill="#009CE3" fill-rule="nonzero" opacity="0.1" cx="13.6918862" cy="205.074394" rx="6.81053741" ry="1.15068493"></ellipse>
                                            <ellipse id="Oval" fill="#009CE3" fill-rule="nonzero" opacity="0.1" cx="191.205901" cy="207.815806" rx="6.81053741" ry="1.15068493"></ellipse>
                                        </g>
                                    </g>
                                </g>
                            </g>
                        </g>
                    </g>
                </g>
            </g>
        </g>
    </g>
</svg>