<svg xmlns="http://www.w3.org/2000/svg" width="24" height="24" viewBox="0 0 24 24">
  <g fill="none">
    <path fill="#82AE57" d="M12,24 C5.372583,24 0,18.627417 0,12 C0,5.372583 5.372583,0 12,0 C18.627417,0 24,5.372583 24,12 C24,18.627417 18.627417,24 12,24 Z M12,23 C18.0751322,23 23,18.0751322 23,12 C23,5.92486775 18.0751322,1 12,1 C5.92486775,1 1,5.92486775 1,12 C1,18.0751322 5.92486775,23 12,23 Z"/>
    <path fill="#82AD56" d="M17.4193191,6.50001968 L6.58066594,6.50001968 C6.42789994,6.49873815 6.2808977,6.56009424 6.17200062,6.67058924 C6.06310354,6.78108424 6.00123268,6.93166618 6,7.08920612 L6,14.9466296 C6,15.2718165 6.25999968,15.535816 6.58066594,15.535816 L10.2579947,15.535816 L10.2579947,16.5175643 L9.48399565,17.3033754 L9.48399565,17.5 L14.5159894,17.5 L14.5159894,17.3033754 L13.7419903,16.5175643 L13.7419903,15.535816 L17.4193191,15.535816 C17.7393187,15.535816 17.999985,15.2718165 17.999985,14.9466296 L17.999985,7.08920612 C17.9987523,6.93166618 17.9368815,6.78108424 17.8279844,6.67058924 C17.7190873,6.56009424 17.5720851,6.49873815 17.4193191,6.50001968 Z M16.9378821,13.780108 L7.06147298,13.780108 L7.06147298,7.46991656 L16.938512,7.46991656 L16.938512,13.780108 L16.9378821,13.780108 Z"/>
  </g>
</svg>
