<svg xmlns="http://www.w3.org/2000/svg" width="24" height="24" viewBox="0 0 24 24">
  <g fill="#CE9E6D">
    <path d="M12,24 C5.372583,24 0,18.627417 0,12 C0,5.372583 5.372583,0 12,0 C18.627417,0 24,5.372583 24,12 C24,18.627417 18.627417,24 12,24 Z M12,23 C18.0751322,23 23,18.0751322 23,12 C23,5.92486775 18.0751322,1 12,1 C5.92486775,1 1,5.92486775 1,12 C1,18.0751322 5.92486775,23 12,23 Z"/>
    <g transform="translate(5.5 6.5)">
      <polygon points="1 9.215 1 1.786 4.475 1.786 5.875 3.237 10.2 3.237 10.2 3.667 11.2 3.667 11.2 2.237 6.3 2.237 4.9 .786 0 .786 0 10.215 7.467 10.215 7.467 9.215"/>
      <path d="M9.89092011,7.49988443 L12.2652609,7.49988443 L12.2652609,6.62540624 C12.2652609,6.30354968 12.1493263,6.02875706 11.9174571,5.80102836 C11.6855878,5.57329966 11.405799,5.45943532 11.0780905,5.45943532 C10.750382,5.45943532 10.4705932,5.57329966 10.2387239,5.80102836 C10.0068547,6.02875706 9.89092011,6.30354968 9.89092011,6.62540624 L9.89092011,7.49988443 Z M13.7492239,7.93712352 L13.7492239,10.5605581 C13.7492239,10.6820134 13.7059416,10.7852504 13.6193771,10.8702691 C13.5328126,10.9552878 13.4276986,10.9977972 13.304035,10.9977972 L8.85214601,10.9977972 C8.72848243,10.9977972 8.62336838,10.9552878 8.53680388,10.8702691 C8.45023937,10.7852504 8.40695712,10.6820134 8.40695712,10.5605581 L8.40695712,7.93712352 C8.40695712,7.81566822 8.45023937,7.71243121 8.53680388,7.6274125 C8.62336838,7.54239379 8.72848243,7.49988443 8.85214601,7.49988443 L9.00054231,7.49988443 L9.00054231,6.62540624 C9.00054231,6.06671184 9.20458722,5.58696339 9.61267705,5.18616088 C10.0207669,4.78535838 10.509238,4.58495712 11.0780905,4.58495712 C11.646943,4.58495712 12.1354141,4.78535838 12.543504,5.18616088 C12.9515938,5.58696339 13.1556387,6.06671184 13.1556387,6.62540624 L13.1556387,7.49988443 L13.304035,7.49988443 C13.4276986,7.49988443 13.5328126,7.54239379 13.6193771,7.6274125 C13.7059416,7.71243121 13.7492239,7.81566822 13.7492239,7.93712352 Z"/>
    </g>
  </g>
</svg>
