<svg xmlns="http://www.w3.org/2000/svg" viewBox="0 0 32 32"><title>tencent_32x32</title><g id="cc7c8aab-54ad-4f2e-ae11-7a42a6427be5" data-name="Layer 34"><path d="M27.73,23a4.73,4.73,0,0,1-3.25,1.26c-.78,0-1.68,0-2.09,0h-9L19.86,18c.29-.28,1-.92,1.53-1.44a4.48,4.48,0,0,1,6.41,0,4.53,4.53,0,0,1-.07,6.4m2.15-8.43A7.37,7.37,0,0,0,24.6,12.3,7.23,7.23,0,0,0,19.91,14c-.59.48-1.21,1.05-2,1.81L6.37,27a17.15,17.15,0,0,0,2.11.11H22.53c1.08,0,1.78,0,2.54-.06A7.31,7.31,0,0,0,29.76,25,7.43,7.43,0,0,0,29.88,14.53Z" fill="#fff"/><path d="M11.85,13.83A7.27,7.27,0,0,0,7.4,12.3,7.43,7.43,0,0,0,2.24,25a7.18,7.18,0,0,0,4.13,2l2.88-2.79-1.73,0A4.73,4.73,0,0,1,4.27,23a4.53,4.53,0,0,1-.07-6.4,4.6,4.6,0,0,1,3.21-1.35,4.73,4.73,0,0,1,3.07,1.23c.57.47,1.85,1.6,2.41,2.1a.08.08,0,0,0,.1,0l2-1.94s0-.07,0-.11c-1-.86-2.3-2.06-3.12-2.67" fill="#fff"/><path d="M25.37,10.63A9.94,9.94,0,0,0,6.18,12.41,6.92,6.92,0,0,1,7.4,12.3a7.09,7.09,0,0,1,1.68.2h0A7,7,0,0,1,22.39,11a.06.06,0,0,0,.08,0,8.52,8.52,0,0,1,2.8-.29c.1,0,.14,0,.1-.13" fill="#fff"/></g></svg>