<svg xmlns="http://www.w3.org/2000/svg" width="240" height="199" viewBox="0 0 240 199">
  <g fill="none" transform="translate(0 -23)">
    <rect width="240" height="240" opacity="0"/>
    <g transform="translate(0 18)">
      <g opacity=".1" transform="translate(0 30)">
        <path fill="#009CE3" d="M2.80618744,94.11101 C6.59727025,110.314832 14.622748,124.321747 27.3062784,131.111192 C53.6647862,145.220746 113.1101,137.944313 157.476251,129.58253 C179.894545,125.371654 200.243454,113.738761 215.246588,96.5568699 L2.80618744,94.11101 Z M235.457689,17.8438581 L211.114832,17.8438581 C209.952772,17.8438581 209.010737,16.9018228 209.010737,15.7397634 C209.010737,14.577704 209.952772,13.6356688 211.114832,13.6356688 L215.323021,13.6356688 C214.160962,13.6356688 213.218926,12.6936335 213.218926,11.5315742 C213.218926,10.3695148 214.160962,9.42747953 215.323021,9.42747953 L212.318107,9.42747953 C211.156048,9.42747953 210.214013,8.48544427 210.214013,7.3233849 C210.214013,6.16132552 211.156048,5.21929026 212.318107,5.21929026 L225.023476,5.21929026 C222.204186,3.90900819 218.908826,2.97652411 215.113376,2.48735214 C180.469518,-1.96323931 168.100455,0.980527753 163.737216,4.01601456 C158.35414,7.75031847 152.348681,10.4975432 145.930482,11.8209281 C124.555414,16.2300273 84.5808917,21.5366697 48.3494086,10.121929 C30.3417652,4.44404004 16.9572338,14.0353048 8.93612375,30.055687 L239.683348,30.055687 C239.381984,25.399818 238.480073,21.1020928 236.82475,17.3372157 C236.444551,17.6645484 235.959383,17.8443551 235.457689,17.8438581 Z M0.740309372,60.2948135 C-0.194773998,69.7182466 0.12245241,79.224024 1.68371247,88.5641492 L215.408189,96.3799818 C221.357605,89.5361658 226.352939,81.9182815 230.258053,73.7339399 L0.740309372,60.2948135 Z M85.2709736,80.4622384 L81.0627843,80.4622384 C82.2248437,80.4622384 83.166879,81.4042737 83.166879,82.566333 C83.166879,83.7283924 82.2248437,84.6704277 81.0627843,84.6704277 L56.7199272,84.6704277 C55.5578678,84.6704277 54.6158326,83.7283924 54.6158326,82.566333 C54.6158326,81.4042737 55.5578678,80.4622384 56.7199272,80.4622384 L60.9281165,80.4622384 C59.7660571,80.4622384 58.8240218,79.5202031 58.8240218,78.3581438 C58.8240218,77.1960844 59.7660571,76.2540491 60.9281165,76.2540491 L57.9232029,76.2540491 C56.7611435,76.2540491 55.8191083,75.3120139 55.8191083,74.1499545 C55.8191083,72.9878951 56.7611435,72.0458599 57.9232029,72.0458599 L82.2660601,72.0458599 C83.4281194,72.0458599 84.3701547,72.9878951 84.3701547,74.1499545 C84.3701547,75.3120139 83.4281194,76.2540491 82.2660601,76.2540491 L85.2709736,76.2540491 C86.433033,76.2540491 87.3750682,77.1960844 87.3750682,78.3581438 C87.3750682,79.5202031 86.433033,80.4622384 85.2709736,80.4622384 Z M239.694268,30.199818 L6.35705187,35.877707 C3.52029117,43.1716106 1.64877161,51.4198362 0.775250227,59.9716106 L235.606187,59.9716106 C237.13944,54.9493665 238.273452,49.8138206 238.997634,44.6129208 C239.696451,39.5858053 239.975978,34.7268426 239.694268,30.199818 Z M48.1463148,48.7970883 L43.9381256,48.7970883 C45.1001849,48.7970883 46.0422202,49.7391235 46.0422202,50.9011829 C46.0422202,52.0632423 45.1001849,53.0052775 43.9381256,53.0052775 L19.5952684,53.0052775 C18.433209,53.0052775 17.4911738,52.0632423 17.4911738,50.9011829 C17.4911738,49.7391235 18.433209,48.7970883 19.5952684,48.7970883 L23.8034577,48.7970883 C22.6413983,48.7970883 21.6993631,47.855053 21.6993631,46.6929936 C21.6993631,45.5309343 22.6413983,44.588899 23.8034577,44.588899 L20.7985441,44.588899 C19.6364848,44.588899 18.6944495,43.6468637 18.6944495,42.4848044 C18.6944495,41.322745 19.6364848,40.3807097 20.7985441,40.3807097 L45.1414013,40.3807097 C46.3034607,40.3807097 47.2454959,41.322745 47.2454959,42.4848044 C47.2454959,43.6468637 46.3034607,44.588899 45.1414013,44.588899 L48.1463148,44.588899 C49.3083742,44.588899 50.2504095,45.5309343 50.2504095,46.6929936 C50.2504095,47.855053 49.3083742,48.7970883 48.1463148,48.7970883 Z"/>
        <g transform="translate(146.533 88.226)">
          <path stroke="#535461" stroke-width="2" d="M1.64877161,48.1048226 C1.64877161,48.1048226 7.80709736,32.9273885 19.3070064,27.2975432 C24.1476065,24.9697837 28.1024269,21.1345045 30.577616,16.3676069 C31.7337867,14.0930973 32.6789628,11.7173646 33.4012739,9.27024568"/>
          <path fill="#009CE3" d="M40.6274795,5.67788899 C39.4285714,7.18471338 33.2243858,9.39035487 33.2243858,9.39035487 C33.2243858,9.39035487 33.9712466,2.83894449 35.1701547,1.34303913 C36.4056529,-0.030201657 38.496585,-0.204509058 39.9424058,0.945207612 C41.3882265,2.09492428 41.6893442,4.17138963 40.6296633,5.6844404 L40.6274795,5.67788899 Z M38.4982712,17.6145587 C36.6726115,18.2282075 30.2696997,16.7017288 30.2696997,16.7017288 C30.2696997,16.7017288 34.4516833,11.6178344 36.277343,11.0041856 C38.0576183,10.5319396 39.8987715,11.522727 40.4853656,13.2686662 C41.0719596,15.0146054 40.2025381,16.9160814 38.4982712,17.6145587 Z M26.9546861,31.721929 C25.0700637,31.3310282 20.311556,26.7799818 20.311556,26.7799818 C20.311556,26.7799818 26.4873521,24.5022748 28.3741583,24.8931756 C30.1458335,25.3869573 31.2314151,27.1696191 30.8569928,28.9703027 C30.4825704,30.7709862 28.7763461,31.9731382 26.9546861,31.7197452 L26.9546861,31.721929 Z M15.8172884,40.4309372 C13.8933576,40.3632393 8.43384895,36.6835305 8.43384895,36.6835305 C8.43384895,36.6835305 14.1379436,33.4012739 16.0618744,33.4624204 C17.3649146,33.4217039 18.5822528,34.1097927 19.219385,35.2471731 C19.8565172,36.3845535 19.8074671,37.7820414 19.0921599,38.8719529 C18.3768526,39.9618644 17.1142674,40.562911 15.8172884,40.4309372 Z M24.3079163,12.4367607 C24.5546861,14.3475887 28.7235669,19.4402184 28.7235669,19.4402184 C28.7235669,19.4402184 31.4686078,13.4565969 31.2240218,11.5457689 C30.8700529,9.7389427 29.1747489,8.51681606 27.348668,8.75206741 C25.522587,8.98731877 24.1923863,10.5992168 24.3079163,12.4367607 Z M11.4103731,22.7858053 C12.2161965,24.532848 17.7193813,28.1470428 17.7193813,28.1470428 C17.7193813,28.1470428 18.5492266,21.6152866 17.7434031,19.8682439 C17.2754941,18.6531408 16.1707483,17.7990138 14.8769834,17.6520901 C13.5832184,17.5051664 12.3150804,18.0898218 11.5866191,19.1690615 C10.8581578,20.2483013 10.7902309,21.6430708 11.4103731,22.7879891 L11.4103731,22.7858053 Z M0.255505005,34.5652411 C0.753412193,36.4258417 5.56869882,40.9157416 5.56869882,40.9157416 C5.56869882,40.9157416 7.49044586,34.6198362 6.99035487,32.7592357 C6.39706049,31.0177208 4.55495859,30.0346254 2.77793904,30.5111478 C1.00091948,30.9876702 -0.102148377,32.7605372 0.255505005,34.5652411 Z"/>
          <path fill="#009CE3" d="M40.6274795,5.67788899 C39.4285714,7.18471338 33.2243858,9.39035487 33.2243858,9.39035487 C33.2243858,9.39035487 33.9712466,2.83894449 35.1701547,1.34303913 C36.4056529,-0.030201657 38.496585,-0.204509058 39.9424058,0.945207612 C41.3882265,2.09492428 41.6893442,4.17138963 40.6296633,5.6844404 L40.6274795,5.67788899 Z M38.4982712,17.6145587 C36.6726115,18.2282075 30.2696997,16.7017288 30.2696997,16.7017288 C30.2696997,16.7017288 34.4516833,11.6178344 36.277343,11.0041856 C38.0576183,10.5319396 39.8987715,11.522727 40.4853656,13.2686662 C41.0719596,15.0146054 40.2025381,16.9160814 38.4982712,17.6145587 Z M26.9546861,31.721929 C25.0700637,31.3310282 20.311556,26.7799818 20.311556,26.7799818 C20.311556,26.7799818 26.4873521,24.5022748 28.3741583,24.8931756 C30.1458335,25.3869573 31.2314151,27.1696191 30.8569928,28.9703027 C30.4825704,30.7709862 28.7763461,31.9731382 26.9546861,31.7197452 L26.9546861,31.721929 Z M15.8172884,40.4309372 C13.8933576,40.3632393 8.43384895,36.6835305 8.43384895,36.6835305 C8.43384895,36.6835305 14.1379436,33.4012739 16.0618744,33.4624204 C17.3649146,33.4217039 18.5822528,34.1097927 19.219385,35.2471731 C19.8565172,36.3845535 19.8074671,37.7820414 19.0921599,38.8719529 C18.3768526,39.9618644 17.1142674,40.562911 15.8172884,40.4309372 Z M24.3079163,12.4367607 C24.5546861,14.3475887 28.7235669,19.4402184 28.7235669,19.4402184 C28.7235669,19.4402184 31.4686078,13.4565969 31.2240218,11.5457689 C30.8700529,9.7389427 29.1747489,8.51681606 27.348668,8.75206741 C25.522587,8.98731877 24.1923863,10.5992168 24.3079163,12.4367607 Z M11.4103731,22.7858053 C12.2161965,24.532848 17.7193813,28.1470428 17.7193813,28.1470428 C17.7193813,28.1470428 18.5492266,21.6152866 17.7434031,19.8682439 C17.2754941,18.6531408 16.1707483,17.7990138 14.8769834,17.6520901 C13.5832184,17.5051664 12.3150804,18.0898218 11.5866191,19.1690615 C10.8581578,20.2483013 10.7902309,21.6430708 11.4103731,22.7879891 L11.4103731,22.7858053 Z M0.255505005,34.5652411 C0.753412193,36.4258417 5.56869882,40.9157416 5.56869882,40.9157416 C5.56869882,40.9157416 7.49044586,34.6198362 6.99035487,32.7592357 C6.39706049,31.0177208 4.55495859,30.0346254 2.77793904,30.5111478 C1.00091948,30.9876702 -0.102148377,32.7605372 0.255505005,34.5652411 Z" opacity=".25"/>
        </g>
        <g transform="translate(137.361 56.124)">
          <path stroke="#535461" stroke-width="2" d="M6.45313922,58.0149227 C6.45313922,58.0149227 7.23057325,41.6538672 16.2125569,32.5277525 C20.0006769,28.7227012 22.4527116,23.7918128 23.2007279,18.4749773 C23.537497,15.9479016 23.6420285,13.3952855 23.5130118,10.8491356"/>
          <path fill="#009CE3" d="M29.1646952,5.06424022 C28.533576,6.8833485 23.4103731,11.0172884 23.4103731,11.0172884 C23.4103731,11.0172884 21.9472247,4.59909008 22.5783439,2.7799818 C22.9194688,1.51881918 23.9356825,0.553324984 25.212644,0.27716049 C26.4896054,0.000995995154 27.8139566,0.460303467 28.6457194,1.46780931 C29.4774821,2.47531516 29.6776834,3.86268275 29.1646952,5.06424022 Z M31.1039126,17.022748 C29.5752502,18.2063694 23.0369427,18.8920837 23.0369427,18.8920837 C23.0369427,18.8920837 25.2971793,12.7075523 26.8149227,11.5239308 C27.787955,10.6587501 29.1613421,10.4063721 30.3783944,10.8690959 C31.5954468,11.3318197 32.4542561,12.4328798 32.6067122,13.7259718 C32.7591683,15.0190637 32.1799788,16.2896645 31.1039126,17.022748 Z M24.8909918,34.1699727 C22.9823476,34.4254777 16.9856233,31.71101 16.9856233,31.71101 C16.9856233,31.71101 22.0585987,27.5137398 23.9737944,27.2582348 C25.2507835,27.0020096 26.5642912,27.4773074 27.3816219,28.4913701 C28.1989525,29.5054327 28.384426,30.8899218 27.862823,32.0833551 C27.3412201,33.2767883 26.199129,34.081051 24.899727,34.1699727 L24.8909918,34.1699727 Z M17.2717015,46.078253 C15.432939,46.6525933 9.06278435,44.9863512 9.06278435,44.9863512 C9.06278435,44.9863512 13.3517743,39.9919927 15.1905369,39.4176524 C16.9813707,38.9806577 18.8036322,40.0100538 19.3537293,41.769441 C19.9038264,43.5288282 18.9925068,45.4129168 17.2717015,46.0738854 L17.2717015,46.078253 Z M15.9985441,16.8524113 C16.8720655,18.5732484 22.488808,21.9952684 22.488808,21.9952684 C22.488808,21.9952684 23.0937216,15.4438581 22.2289354,13.7186533 C21.2977119,12.1273957 19.2903486,11.5335143 17.643249,12.3619713 C15.9961495,13.1904283 15.2761874,15.156098 15.9985441,16.8524113 Z M7.2633303,30.8942675 C8.60418562,32.2766151 14.9939945,33.8598726 14.9939945,33.8598726 C14.9939945,33.8598726 13.611647,27.4242038 12.2707916,26.0418562 C10.9062427,24.8008285 8.81207333,24.8342039 7.4877645,26.1180846 C6.16345568,27.4019653 6.06519087,29.4940942 7.2633303,30.8964513 L7.2633303,30.8942675 Z M0.646405823,45.7048226 C1.73830755,47.2946315 7.7656051,49.9348499 7.7656051,49.9348499 C7.7656051,49.9348499 7.49044586,43.3572338 6.40291174,41.7674249 C5.26176899,40.3383341 3.21170509,40.0309467 1.70161091,41.0625101 C0.191516725,42.0940735 -0.267667018,44.1155579 0.648589627,45.6982712 L0.646405823,45.7048226 Z"/>
        </g>
        <path fill="#009CE3" d="M0.161601456,11.5342504 C11.3040787,15.2805258 24.8977875,13.0021556 37.5393417,13.2656984 C39.2707897,13.3025377 41.1014205,13.4102219 42.4899795,14.0563269 C43.8785384,14.7024319 44.5614827,15.7566032 45.5136374,16.6492482 C49.0558797,19.9902911 56.3132256,21.0642989 62.6580899,20.4975402 C69.0029543,19.9307814 74.8207329,18.0548099 80.7943703,16.6265778 C91.1433852,14.1555097 102.974474,13.0333273 113.1818,15.7254314 C114.119785,15.9719715 115.105946,16.2553509 116.109109,16.1590019 C118.347806,15.937966 119.013747,14.1470083 120.578001,13.1240087 C123.411795,11.2763752 129.541291,11.7779567 130.779659,9.34372778 C131.507944,7.92683088 129.833172,6.4532581 128.011043,5.47843304 C121.034242,1.74916039 111.05362,1.13422714 101.923137,1.70948728 C92.7926532,2.28474742 83.8151945,3.87167195 74.6365363,3.87733954 C63.2021784,3.87733954 52.1532163,1.44311066 40.8293763,0.445615245 C32.9854351,-0.245830442 24.424544,-0.160816628 17.0708491,1.86251215 C9.12205746,4.0785389 7.3651053,9.02067529 0.161601456,11.5342504 Z" transform="translate(52 150)"/>
      </g>
      <path fill="#009CE3" d="M55.0029907,29.0082243 L57.8650467,29.0082243 C56.7842935,28.9720633 55.9268688,28.0854702 55.9268688,27.0041121 C55.9268688,25.9227541 56.7842935,25.036161 57.8650467,25 L81.0485981,25 C82.1293514,25.036161 82.9867761,25.9227541 82.9867761,27.0041121 C82.9867761,28.0854702 82.1293514,28.9720633 81.0485981,29.0082243 L78.1865421,29.0082243 C79.2927632,29.0082243 80.1895327,29.9049938 80.1895327,31.011215 C80.1895327,32.1174361 79.2927632,33.0142056 78.1865421,33.0142056 L82.1925234,33.0142056 C83.2732766,33.0503666 84.1307013,33.9369597 84.1307013,35.0183178 C84.1307013,36.0996758 83.2732766,36.9862689 82.1925234,37.0224299 L59.008972,37.0224299 C57.9282187,36.9862689 57.070794,36.0996758 57.070794,35.0183178 C57.070794,33.9369597 57.9282187,33.0503666 59.008972,33.0142056 L55.0029907,33.0142056 C53.8967695,33.0142056 53,32.1174361 53,31.011215 C53,29.9049938 53.8967695,29.0082243 55.0029907,29.0082243 Z" opacity=".1"/>
      <g fill="#009CE3" transform="translate(95 14)">
        <path d="M11.0557009,8.52785047 C11.2065923,8.24023985 11.1178314,7.88519626 10.8493458,7.70242991 C10.8294023,7.68917272 10.8113012,7.67333426 10.795514,7.6553271 C10.6991472,7.55154816 10.6828792,7.39660477 10.75559,7.27507383 C10.8283008,7.1535429 10.9725234,7.09461947 11.1095327,7.13046729 C11.1329662,7.13669229 11.1555603,7.14572993 11.1768224,7.15738318 C11.464433,7.30827458 11.8194766,7.21951368 12.002243,6.95102804 C12.0160396,6.93081619 12.0318187,6.91203154 12.0493458,6.89495327 C12.154284,6.80139004 12.3079225,6.78707166 12.4283427,6.85963254 C12.5487629,6.93219343 12.6078931,7.07471858 12.5742056,7.21121495 C12.5679806,7.2346484 12.558943,7.25724252 12.5472897,7.27850467 C12.3963983,7.56611529 12.4851592,7.92115888 12.7536449,8.10392523 C12.7738162,8.11692865 12.7926055,8.13196006 12.8097196,8.14878505 C12.9053782,8.25347719 12.9209323,8.40856126 12.84797,8.53016516 C12.7750076,8.65176906 12.6308492,8.71102561 12.4934579,8.67588785 C12.4700245,8.66966285 12.4474304,8.66062521 12.4261682,8.64897196 C12.1385576,8.49808056 11.783514,8.58684146 11.6007477,8.8553271 C11.5882902,8.87521175 11.5732001,8.89331986 11.5558879,8.90915888 C11.4514473,9.00400003 11.2972991,9.01946496 11.1760998,8.94726111 C11.0549005,8.87505727 10.9951084,8.73213855 11.028785,8.59514019 C11.03501,8.57170674 11.0440477,8.54911262 11.0557009,8.52785047 Z M0.345420561,1.71588785 C0.49603538,1.42895129 0.407223316,1.07466839 0.139065421,0.89271028 C0.119121971,0.879453091 0.101020875,0.863614631 0.0852336449,0.845607477 C-0.00960750875,0.741166959 -0.0250724318,0.587018693 0.0471314093,0.465819388 C0.11933525,0.344620083 0.262253978,0.284828034 0.399252336,0.318504673 C0.422685787,0.324729669 0.445279905,0.333767316 0.466542056,0.345420561 C0.753606733,0.496755597 1.10851424,0.408993142 1.29196262,0.141308411 C1.30510773,0.12123936 1.32012838,0.102463542 1.33682243,0.0852336449 C1.44047691,-0.00734407848 1.59196011,-0.0226349789 1.7120249,0.0473602437 C1.8320897,0.117355466 1.89341751,0.256710654 1.86392523,0.392523364 C1.85728408,0.415098304 1.8482614,0.436903116 1.83700935,0.457570093 C1.68201807,0.746803184 1.77119368,1.10641352 2.04336449,1.28971963 C2.06330794,1.30297682 2.08140903,1.31881528 2.09719626,1.33682243 C2.1998169,1.44110397 2.21819478,1.60188661 2.14175293,1.72663548 C2.06531107,1.85138434 1.91371217,1.908011 1.77420561,1.86392523 C1.75046495,1.85866021 1.72773845,1.84956961 1.70691589,1.83700935 C1.41917767,1.68719144 1.06487945,1.775766 0.881495327,2.04336449 C0.868272452,2.06400485 0.852440721,2.08285215 0.834392523,2.09943925 C0.729454316,2.19300248 0.57581584,2.20732087 0.455395646,2.13475998 C0.334975452,2.06219909 0.275845257,1.91967395 0.30953271,1.78317757 C0.319438373,1.75970976 0.331450099,1.73718777 0.345420561,1.71588785 Z" opacity=".3"/>
        <circle cx="27.335" cy="23.168" r="3.701" opacity=".1"/>
        <circle cx="44.831" cy="4.793" r="2.019" opacity=".1"/>
      </g>
      <g fill="#009CE3" transform="rotate(-11 129.078 -997.076)">
        <path d="M21.8145794,8.19327103 C21.9662836,7.90646545 21.8772809,7.55142223 21.6082243,7.37009346 C21.5887281,7.35626036 21.5706912,7.34047803 21.5543925,7.32299065 C21.4587339,7.21829851 21.4431798,7.06321444 21.5161422,6.94161054 C21.5891045,6.82000664 21.733263,6.7607501 21.8706542,6.79588785 C21.8932291,6.802529 21.915034,6.81155168 21.9357009,6.82280374 C22.2231808,6.97478095 22.5789815,6.88583076 22.7611215,6.6164486 C22.7749546,6.59695243 22.7907369,6.57891549 22.8082243,6.56261682 C22.9131625,6.46905359 23.066801,6.45473521 23.1872212,6.52729609 C23.3076414,6.59985698 23.3667716,6.74238213 23.3330841,6.8788785 C23.3275917,6.90184229 23.3185079,6.92379483 23.3061682,6.94392523 C23.1563503,7.23166345 23.2449249,7.58596167 23.5125234,7.76934579 C23.5327352,7.78314242 23.5515199,7.79892153 23.5685981,7.8164486 C23.6621614,7.92138681 23.6764797,8.07502528 23.6039189,8.19544548 C23.531358,8.31586567 23.3888328,8.37499586 23.2523364,8.34130841 C23.2288365,8.33528537 23.2062177,8.32623784 23.1850467,8.31439252 C22.8979824,8.16485459 22.5444479,8.25347904 22.3618692,8.52074766 C22.3473969,8.54043779 22.3316629,8.55916869 22.3147664,8.57682243 C22.2100742,8.67248103 22.0549901,8.68803511 21.9333862,8.61507277 C21.8117823,8.54211043 21.7525258,8.39795198 21.7876636,8.26056075 C21.7946878,8.23739998 21.8036931,8.21488695 21.8145794,8.19327103 Z" opacity=".3"/>
        <circle cx="3.884" cy="3.869" r="3.701" opacity=".1"/>
        <circle cx="29.941" cy="25.539" r="2.019" opacity=".1"/>
      </g>
      <g fill="#009CE3" transform="rotate(80 41.536 201.75)">
        <path d="M21.8145794,8.19327103 C21.9662836,7.90646545 21.8772809,7.55142223 21.6082243,7.37009346 C21.5887281,7.35626036 21.5706912,7.34047803 21.5543925,7.32299065 C21.4587339,7.21829851 21.4431798,7.06321444 21.5161422,6.94161054 C21.5891045,6.82000664 21.733263,6.7607501 21.8706542,6.79588785 C21.8932291,6.802529 21.915034,6.81155168 21.9357009,6.82280374 C22.2231808,6.97478095 22.5789815,6.88583076 22.7611215,6.6164486 C22.7749546,6.59695243 22.7907369,6.57891549 22.8082243,6.56261682 C22.9131625,6.46905359 23.066801,6.45473521 23.1872212,6.52729609 C23.3076414,6.59985698 23.3667716,6.74238213 23.3330841,6.8788785 C23.3275917,6.90184229 23.3185079,6.92379483 23.3061682,6.94392523 C23.1563503,7.23166345 23.2449249,7.58596167 23.5125234,7.76934579 C23.5327352,7.78314242 23.5515199,7.79892153 23.5685981,7.8164486 C23.6621614,7.92138681 23.6764797,8.07502528 23.6039189,8.19544548 C23.531358,8.31586567 23.3888328,8.37499586 23.2523364,8.34130841 C23.2288365,8.33528537 23.2062177,8.32623784 23.1850467,8.31439252 C22.8979824,8.16485459 22.5444479,8.25347904 22.3618692,8.52074766 C22.3473969,8.54043779 22.3316629,8.55916869 22.3147664,8.57682243 C22.2100742,8.67248103 22.0549901,8.68803511 21.9333862,8.61507277 C21.8117823,8.54211043 21.7525258,8.39795198 21.7876636,8.26056075 C21.7946878,8.23739998 21.8036931,8.21488695 21.8145794,8.19327103 Z" opacity=".3"/>
        <circle cx="3.884" cy="3.869" r="3.701" opacity=".1"/>
        <circle cx="29.941" cy="25.539" r="2.019" opacity=".1"/>
      </g>
      <g fill="#009CE3" opacity=".1" transform="translate(10 165)">
        <circle cx="10.036" cy="2.876" r="2.019"/>
        <circle cx="17.775" cy="11.967" r="2.019"/>
        <circle cx="2.634" cy="17.447" r="2.019"/>
      </g>
      <ellipse cx="43" cy="201.019" fill="#009CE3" opacity=".1" rx="10" ry="2.019"/>
      <ellipse cx="164" cy="201.019" fill="#009CE3" opacity=".1" rx="10" ry="2.019"/>
      <g transform="translate(12 79)">
        <path fill="#FFF" stroke="#E0E0E0" stroke-width="2" d="M36,100 L181,100 L181,3 C181,1.34314575 179.656854,0 178,0 L39,0 C37.3431458,0 36,1.34314575 36,3 L36,100 Z"/>
        <path stroke="#E0E0E0" stroke-linecap="square" stroke-width="2" d="M36.5,16.5 L181,16.5"/>
        <circle cx="44" cy="8" r="3" fill="#EB6262"/>
        <circle cx="52" cy="8" r="3" fill="#F8AC58"/>
        <circle cx="60" cy="8" r="3" fill="#1BB393"/>
        <path stroke="#E0E0E0" stroke-linecap="round" stroke-width="2" d="M24.5,100.25 L192.5,100.25 M201.5,100.208333 L210.5,100.208333 M213.5,100.200231 L216.5,100.200231 M195.5,100.200231 L198.5,100.200231 M0.5,100.200231 L3.5,100.200231 M18.5,100.200231 L21.5,100.200231 M6.5,100.201389 L15.5,100.201389"/>
      </g>
      <rect width="11" height="16" x="142" y="148" fill="#FFF" stroke="#E0E0E0" stroke-width="2" rx="5.5"/>
      <path stroke="#E0E0E0" stroke-linecap="round" stroke-width="2" d="M147.5,155.5 L147.5,160.5"/>
      <rect width="26" height="18" x="134.5" y="137.5" fill="#FFF" stroke="#FFF"/>
      <g stroke="#E0E0E0" stroke-linecap="round" stroke-width="4" transform="translate(72 115)">
        <path d="M-6.9388939e-17,10 L20,10 M10,0 L10,20" transform="rotate(45 7.071 17.071)"/>
        <path d="M-6.9388939e-17,10 L20,10 M10,0 L10,20" transform="rotate(45 40.571 97.947)"/>
      </g>
      <path stroke="#E0E0E0" stroke-linecap="round" stroke-width="2" d="M86.5,155.5 L153.5,155.5"/>
      <path stroke="#E0E0E0" stroke-linecap="round" stroke-width="2" d="M124,140.5 C124,139.119288 122.880712,138 121.5,138 C120.119288,138 119,139.119288 119,140.5" transform="rotate(-90 121.5 139.25)"/>
      <rect width="6" height="7" x="128.5" y="136.5" fill="#FFF" stroke="#FFF"/>
    </g>
  </g>
</svg>
