<svg xmlns="http://www.w3.org/2000/svg" width="80" height="80" viewBox="0 0 80 80">
  <path d="M57.6666667,15.1111111 L72.7777778,15.1111111 L72.7777778,17.7777778 L57.6666667,17.7777778 C56.1939073,17.7777778 55,16.5838704 55,15.1111111 L55,0 L57.6666667,0 L57.6666667,15.1111111 Z M9.66666667,2.66666667 L9.66666667,77.3333333 L70.1111111,77.3333333 L70.1111111,15.1111111 L57.6666667,2.66666667 L9.66666667,2.66666667 Z M9.66666667,0 L58.5555556,0 L72.7777778,14.2222222 L72.7777778,77.3333333 C72.7777778,78.8060927 71.5838704,80 70.1111111,80 L9.66666667,80 C8.19390733,80 7,78.8060927 7,77.3333333 L7,2.66666667 C7,1.19390733 8.19390733,2.705415e-16 9.66666667,0 Z M32.6640479,46.3969323 L36.7224093,46.3969323 L36.7224093,48.6236438 C36.1876766,49.0386603 35.5472041,49.391818 34.8009727,49.6831276 C34.0547412,49.9744372 33.3105162,50.1200898 32.5682753,50.1200898 C31.0678314,50.1200898 29.8547247,49.5993318 28.9289188,48.5578002 C28.003113,47.5162686 27.540217,45.9539947 27.540217,43.8709315 C27.540217,41.939509 27.9971272,40.4829828 28.9109615,39.5013094 C29.8247957,38.5196359 31.0558596,38.0288066 32.60419,38.0288066 C33.6257689,38.0288066 34.477737,38.2782117 35.1601197,38.7770296 C35.8425025,39.2758474 36.3073937,39.9562246 36.5548073,40.8181818 L40.0744482,40.1597456 C39.7232804,38.5475664 38.9351601,37.2845787 37.7100636,36.3707445 C36.4849671,35.4569103 34.7830262,35 32.60419,35 C30.9281622,35 29.5275028,35.2913052 28.4021698,35.8739244 C26.9256691,36.6321275 25.8043435,37.7215292 25.0381594,39.1421624 C24.2719752,40.5627955 23.8888889,42.1869219 23.8888889,44.0145903 C23.8888889,45.6985993 24.2320704,47.2568827 24.9184437,48.6894875 C25.604817,50.1220922 26.630371,51.2234654 27.9951366,51.9936401 C29.3599021,52.7638148 30.9600856,53.1488964 32.7957351,53.1488964 C34.2403115,53.1488964 35.666909,52.8755483 37.0755705,52.328844 C38.484232,51.7821397 39.5596671,51.1496482 40.301908,50.4313505 L40.301908,43.4399551 L32.6640479,43.4399551 L32.6640479,46.3969323 Z M42.7680509,46.3131313 C42.7680509,47.7736699 43.0433942,49.0127147 43.594089,50.030303 C44.1447839,51.0478914 44.9488661,51.8200497 46.0063599,52.3468013 C47.0638536,52.873553 48.1752031,53.1369248 49.3404415,53.1369248 C51.2239775,53.1369248 52.7862514,52.5044333 54.0273101,51.2394314 C55.2683688,49.9744294 55.8888889,48.3802316 55.8888889,46.4567901 C55.8888889,44.5493108 55.2743546,42.971075 54.0452675,41.7220352 C52.8161804,40.4729954 51.2399398,39.8484848 49.3164983,39.8484848 C48.0714491,39.8484848 46.9441377,40.1238281 45.9345305,40.674523 C44.9249232,41.2252179 44.1447839,42.0233144 43.594089,43.0688365 C43.0433942,44.1143586 42.7680509,45.1957794 42.7680509,46.3131313 Z M46.2158623,46.4927048 C46.2158623,45.2316934 46.5151485,44.2659966 47.1137299,43.5955855 C47.7123113,42.9251744 48.4505505,42.5899738 49.3284699,42.5899738 C50.2063892,42.5899738 50.9426333,42.9251744 51.5372241,43.5955855 C52.1318149,44.2659966 52.4291059,45.2237124 52.4291059,46.4687617 C52.4291059,47.7457353 52.1318149,48.719413 51.5372241,49.3898242 C50.9426333,50.0602353 50.2063892,50.3954358 49.3284699,50.3954358 C48.4505505,50.3954358 47.7123113,50.0602353 47.1137299,49.3898242 C46.5151485,48.719413 46.2158623,47.7537162 46.2158623,46.4927048 Z"/>
</svg>
