<svg xmlns="http://www.w3.org/2000/svg" width="80" height="80" viewBox="0 0 80 80">
  <path d="M57.6666667,15.1111111 L72.7777778,15.1111111 L72.7777778,17.7777778 L57.6666667,17.7777778 L55,17.7777778 L55,0 L57.6666667,0 L57.6666667,15.1111111 Z M9.66666667,2.66666667 L9.66666667,77.3333333 L70.1111111,77.3333333 L70.1111111,15.1111111 L57.6666667,2.66666667 L9.66666667,2.66666667 Z M9.66666667,0 L58.5555556,0 L72.7777778,14.2222222 L72.7777778,77.3333333 C72.7777778,78.8060927 71.5838704,80 70.1111111,80 L9.66666667,80 C8.19390733,80 7,78.8060927 7,77.3333333 L7,2.66666667 C7,1.19390733 8.19390733,2.705415e-16 9.66666667,0 Z M47.3207365,25.4377774 C37.0709832,21.3338772 25.432852,26.3150423 21.327702,36.5660453 C17.2213025,46.8182979 22.204967,58.4576788 32.4559699,62.5615791 C42.7069729,66.6654793 54.3451041,61.6843142 58.4502541,51.4333112 C62.5566536,41.1810586 57.5717395,29.544177 47.3207365,25.4377774 Z M33.3857208,60.2422006 C24.4306205,56.6556617 20.0617913,46.4533957 23.6470805,37.4970458 C27.2323697,28.5406959 37.4371351,24.1718666 46.393485,27.7596552 C55.3485852,31.3449444 59.7174145,41.5484601 56.1321253,50.5035603 C52.5443367,59.4599103 42.3420707,63.8274898 33.3857208,60.2422006 Z M42.6757313,37.040918 C38.8317614,35.5013306 34.4679308,37.3708296 32.9283433,41.2135499 C31.3887559,45.0562701 33.2582549,49.4213504 37.1009752,50.9609378 C40.9449451,52.5005252 45.3087757,50.6322759 46.8483631,46.788306 C48.3879505,42.944336 46.5209508,38.5792558 42.6757313,37.040918 Z M38.0319757,48.6403097 C35.4726615,47.6168339 34.2254957,44.7001155 35.2489715,42.142051 C36.2736969,39.5839865 39.1879159,38.3355711 41.7459804,39.3590468 C44.3065442,40.3837722 45.55371,43.3004906 44.531484,45.8585551 C43.5055089,48.4166196 40.5900402,49.6662847 38.0319757,48.6403097 Z M40.8199786,41.6796749 C39.5390718,41.1660626 38.083212,41.7896455 37.5695996,43.0705522 C37.0559872,44.351459 37.6795701,45.8060692 38.9592272,46.3196815 C40.2401339,46.8332939 41.6972435,46.209711 42.2096062,44.9300539 C42.7219689,43.6503968 42.0996356,42.194537 40.8199786,41.6796749 Z M39.4241026,45.161242 C38.7842741,44.903811 38.4731075,44.1765059 38.7280392,43.5354276 C38.9854702,42.8955991 39.7140249,42.5844325 40.3538535,42.8393642 C40.9924323,43.0955455 41.303599,43.8241003 41.0486673,44.4651785 C40.7937356,45.1062567 40.0639312,45.4161737 39.4241026,45.161242 Z M49.1714905,47.7168071 C49.2989564,47.3968929 49.1427482,47.0332403 48.822834,46.9057745 C48.5029197,46.7758093 48.1392672,46.9320174 48.0105517,47.2531814 L48.0105517,47.2519317 C47.1120424,49.4963303 45.3887542,51.1621339 43.3318054,52.0431478 C43.0168898,52.1781116 42.8681797,52.5455132 43.0043932,52.8616784 C43.1406067,53.180343 43.5067586,53.3265539 43.8241735,53.19159 C43.8366702,53.1865914 43.8416688,53.176594 43.8504165,53.172845 C46.1910392,52.1606163 48.1480148,50.2648743 49.1689912,47.7168071 L49.1714905,47.7168071 Z M53.4615909,48.7615272 C53.1416766,48.6328117 52.7780241,48.7890198 52.6493086,49.1089341 C51.2384367,52.6329897 48.531662,55.2510381 45.2975287,56.6356671 C44.9826131,56.7706309 44.8339029,57.1380325 44.9701164,57.4554474 C45.1063299,57.774112 45.4724818,57.9190732 45.7898967,57.7841093 C45.8048927,57.7766113 45.8161397,57.762865 45.8311357,57.7566167 C49.341445,56.2407729 52.2794077,53.3952854 53.8102475,49.5738095 C53.9377133,49.2538952 53.7815052,48.8902427 53.4615909,48.7615272 Z M51.1409628,47.833026 C50.8210485,47.7043105 50.457396,47.859269 50.3286804,48.1804329 C49.1764892,51.06466 46.9633323,53.2053363 44.3152919,54.3387826 L44.3177912,54.3387826 C44.0003763,54.4749961 43.8516661,54.8423976 43.9878796,55.1598126 C44.1240931,55.4772275 44.490245,55.6234383 44.80766,55.4884745 C44.8201566,55.4822262 44.8276546,55.4709792 44.8414009,55.4634812 C47.7656173,54.2000698 50.2137113,51.8307047 51.4896193,48.6453083 C51.6170852,48.325394 51.460877,47.9617415 51.1409628,47.833026 Z M36.7760622,35.1376781 C36.6398487,34.8190134 36.2724472,34.6740523 35.9550323,34.8102658 C35.9437853,34.8140148 35.9375369,34.8240121 35.9287893,34.8277611 C33.5881665,35.8399899 31.6299413,37.7369815 30.6102145,40.283799 L30.6089649,40.283799 C30.4802494,40.6049629 30.6352078,40.9673658 30.9563718,41.0960813 C31.2775357,41.2247968 31.6411883,41.0685887 31.7686541,40.7486744 L31.7699038,40.7486744 C32.6671633,38.5067752 34.3904515,36.8397219 36.4474003,35.9599577 C36.7648153,35.8224945 36.9122757,35.4563427 36.7760622,35.1376781 Z M34.8078397,30.5426594 C34.6716262,30.2252445 34.3042246,30.0790337 33.9868097,30.2139975 C33.9718137,30.2202458 33.9605667,30.2339921 33.9480701,30.2402405 C30.4365111,31.7573339 27.4997981,34.6015717 25.9689583,38.4230477 C25.8389931,38.7454613 25.9964509,39.1078641 26.3163652,39.2365796 C26.6362795,39.3652951 26.999932,39.2103367 27.1286475,38.8891727 C28.5407691,35.3663668 31.2462941,32.7483183 34.4804274,31.3636894 C34.7965927,31.2262262 34.9440532,30.8600744 34.8078397,30.5426594 Z M35.4626642,33.6593242 L35.4639139,33.6593242 C35.7800791,33.5243604 35.9287893,33.1582085 35.7925758,32.8395439 C35.6563623,32.5233786 35.2889607,32.3759181 34.9715458,32.5121316 C34.9590492,32.5171303 34.9515512,32.529627 34.9390545,32.5346256 C32.0135885,33.7992867 29.5654945,36.1711511 28.2908361,39.3552978 C28.1608709,39.6764618 28.3183287,40.0388646 28.6369933,40.1688298 C28.9569076,40.2962957 29.3205601,40.1425869 29.4492756,39.8214229 C30.6027166,36.9371958 32.8171231,34.7952698 35.4626642,33.6630732 L35.4626642,33.6593242 Z" opacity=".8"/>
</svg>
