<svg xmlns="http://www.w3.org/2000/svg" width="80" height="80" viewBox="0 0 80 80">
  <path d="M57.6666667,15.1111111 L72.7777778,15.1111111 L72.7777778,17.7777778 L57.6666667,17.7777778 C56.1939073,17.7777778 55,16.5838704 55,15.1111111 L55,0 L57.6666667,0 L57.6666667,15.1111111 Z M9.66666667,2.66666667 L9.66666667,77.3333333 L70.1111111,77.3333333 L70.1111111,15.1111111 L57.6666667,2.66666667 L9.66666667,2.66666667 Z M9.66666667,0 L58.5555556,0 L72.7777778,14.2222222 L72.7777778,77.3333333 C72.7777778,78.8060927 71.5838704,80 70.1111111,80 L9.66666667,80 C8.19390733,80 7,78.8060927 7,77.3333333 L7,2.66666667 C7,1.19390733 8.19390733,2.705415e-16 9.66666667,0 Z M39.6760255,30.9665903 C37.689347,32.3638767 35.4376466,33.9476652 34.2312325,36.567859 C32.1357259,41.1389251 38.5192325,46.1252863 38.7920078,46.3353304 C38.855444,46.3842467 38.9312854,46.4084934 39.0069858,46.4084934 C39.0873382,46.4084934 39.1678316,46.3810044 39.2332413,46.3263084 C39.3599726,46.2202996 39.3959197,46.0402819 39.3197964,45.893674 C39.2966774,45.8491278 37.0053647,41.3984493 37.09051,38.2053568 C37.1206774,37.0933921 38.676977,35.831859 40.3246246,34.4961762 C41.8336995,33.2728458 43.5442193,31.8862731 44.5451003,30.2642819 C46.7422457,26.6939559 44.3002369,23.1832599 44.2752854,23.1482996 C44.1782986,23.0121233 43.9992677,22.9626432 43.8461752,23.0298855 C43.6932237,23.0972687 43.6085012,23.2627665 43.6434616,23.4261498 C43.6483955,23.4492687 44.1233206,25.7708899 42.8018757,28.1627137 C42.2573118,29.1510485 41.0611884,29.9924934 39.6760255,30.9665903 Z M48.0460695,32.5410749 C48.1861929,32.435489 48.2273558,32.2429251 48.1424924,32.0892687 C48.057629,31.9356123 47.8728184,31.8678062 47.7087303,31.9301145 C47.3712501,32.0583965 39.4441312,35.1139031 39.4441312,38.8060264 C39.4441312,41.3509427 40.5312854,42.6955066 41.3250827,43.6773568 C41.6364836,44.0623436 41.9053118,44.3948899 41.9938404,44.6788018 C42.2432149,45.4969868 41.6524131,46.9757533 41.4040255,47.4764758 C41.3324131,47.6205463 41.3675144,47.7949251 41.4893118,47.9000881 C41.5551444,47.9568987 41.6373294,47.9856564 41.7196554,47.9856564 C41.7897171,47.9856564 41.8600607,47.964793 41.9208184,47.9225022 C42.0571356,47.82763 45.2519197,45.5688811 44.6788801,42.8474714 C44.4654528,41.8131806 43.957118,41.057304 43.5085541,40.3903789 C42.8137171,39.3572159 42.3118669,38.6107841 43.0732413,37.2322467 C43.9655761,35.6246344 48.0053294,32.5716652 48.0460695,32.5410749 Z M27.4117083,48.0444405 C27.275814,48.4511366 27.339955,48.8550132 27.5970827,49.2120881 C28.4564307,50.4049692 31.5002369,51.0620264 36.1682898,51.0620264 C36.1685717,51.0620264 36.1687127,51.0620264 36.1688536,51.0620264 C36.8013823,51.0620264 37.4691532,51.0496211 38.1531356,51.0250925 C45.616466,50.757815 48.3846774,48.4328106 48.4988625,48.3339912 C48.6233382,48.2262907 48.656607,48.046837 48.5792149,47.9016388 C48.5018228,47.7565815 48.3349153,47.6837004 48.1754792,47.7275419 C45.5471092,48.4452159 40.6388448,48.6999471 37.2344395,48.6999471 C33.4250299,48.6999471 31.4850122,48.4256211 31.0100871,48.2230485 C31.2538228,47.8883877 32.756977,47.2908194 34.6196025,46.9244405 C34.7976466,46.8894802 34.9200078,46.7251101 34.9023867,46.5445286 C34.8847655,46.3639471 34.7330827,46.2262203 34.5516554,46.2262203 C33.4597083,46.2263612 27.9840431,46.3140441 27.4117083,48.0444405 Z M52.3855233,45.6499383 C50.84614,45.6499383 49.3864043,46.4213216 49.3249418,46.4541674 C49.1825629,46.5304317 49.1103867,46.693674 49.1494351,46.8504317 C49.1886246,47.0070485 49.3294528,47.1171454 49.4910034,47.1172863 C49.5237083,47.1174273 52.7745981,47.1439295 53.0690827,49.0013392 C53.3298757,50.6037357 49.9931356,53.2001057 48.6853647,54.0653744 C48.5441136,54.158837 48.4892766,54.3395595 48.5548272,54.4956123 C48.61051,54.6285463 48.7400607,54.7117181 48.8796202,54.7117181 C48.9040078,54.7117181 48.9286774,54.7091806 48.9532061,54.7038238 C49.2636202,54.6375683 56.5451003,53.0330573 55.7752677,48.7934097 C55.3055585,46.195207 53.6725717,45.6499383 52.3855233,45.6499383 Z M47.3919726,53.5466079 C47.417347,53.4107137 47.3608184,53.2725639 47.2477611,53.1933392 L45.5018581,51.9704317 C45.4167127,51.9108018 45.3091532,51.8920529 45.2092061,51.9185551 C45.191021,51.923348 43.3651884,52.403207 40.7144043,52.6975507 C39.6623514,52.8155419 38.4839902,52.8778502 37.3064748,52.8778502 C34.6563955,52.8778502 32.9236025,52.5664493 32.6712677,52.3380793 C32.6378581,52.2739383 32.6484307,52.2447577 32.6543514,52.2285463 C32.7001664,52.1009692 32.9458757,51.9494273 33.104325,51.8895154 C33.2792677,51.8248106 33.3735761,51.6347841 33.319162,51.4563172 C33.2648889,51.2778502 33.0809241,51.1726872 32.8993558,51.2163877 C31.147955,51.6390132 30.2915673,52.2300969 30.3538757,52.9730044 C30.4645365,54.2900793 33.5155321,54.9661674 36.0948448,55.1450573 C36.4657347,55.1704317 36.8669329,55.1834009 37.2868801,55.1834009 C37.287162,55.1834009 37.287303,55.1834009 37.2875849,55.1834009 C41.5765717,55.1834009 47.0749329,53.8377093 47.1299109,53.8240352 C47.2641136,53.7909075 47.3664572,53.6825022 47.3919726,53.5466079 Z M34.229118,56.3737445 C34.361347,56.2876123 34.4199902,56.1242291 34.3730475,55.973674 C34.3262457,55.8231189 34.1854175,55.7242996 34.0272501,55.7262731 C33.7925365,55.7324758 31.7305805,55.8255154 31.5862281,57.1383612 C31.5425277,57.5306784 31.6548801,57.889022 31.920325,58.2035242 C32.6606951,59.0809163 34.6590739,59.6023612 38.0288008,59.7978855 C38.4274616,59.8217093 38.832325,59.8336916 39.2325365,59.8336916 C43.5165893,59.8336916 46.4018052,58.49237 46.5226158,58.4352775 C46.6397611,58.3798767 46.7170122,58.2648458 46.7239197,58.1354361 C46.7308272,58.0061674 46.6662633,57.8833833 46.5557435,57.815859 L44.3492942,56.4688987 C44.2727479,56.4222379 44.181118,56.4067313 44.0937171,56.4246344 C44.0797611,56.4275947 42.6788096,56.7181322 40.5645541,57.0052863 C40.1644836,57.0595595 39.6634792,57.0871894 39.0756378,57.0871894 C36.9636378,57.0871894 34.6145277,56.7420969 34.1639902,56.5162643 C34.1575056,56.4738326 34.1658228,56.4202643 34.229118,56.3737445 Z M37.2359902,63.8835947 C47.0488536,63.8752775 52.3156025,62.1302203 53.3301576,61.0320705 C53.689347,60.6434185 53.7281136,60.27563 53.6975233,60.0354185 C53.6221047,59.4441938 53.0837435,59.082326 53.0225629,59.0429956 C52.8752501,58.9482643 52.6776114,58.9730749 52.5627215,59.1055859 C52.4481136,59.2382379 52.4454351,59.4317885 52.560466,59.5641586 C52.6223514,59.6438062 52.6581576,59.777022 52.4771532,59.9581674 C52.0715849,60.3369515 47.9806598,61.486837 41.1693118,61.8322115 C40.2362369,61.8808458 39.257629,61.9053744 38.2606951,61.9055154 C32.1620871,61.9055154 27.6988625,61.0702731 27.1129946,60.5833656 C27.3389682,60.2589956 28.9175409,59.740511 30.5964836,59.4474361 C30.7856642,59.4144493 30.9135233,59.2361233 30.8842017,59.0463789 C30.8548801,58.8566344 30.6799373,58.7259559 30.4887832,58.7509075 C30.4414175,58.7572511 30.2808536,58.7671189 30.0946334,58.7783965 C27.3244484,58.9475595 24.1231796,59.324652 23.9561312,60.7518238 C23.9053823,61.1868546 24.034651,61.5815683 24.3404131,61.9252511 C25.0885365,62.7658502 27.239021,63.8834537 37.2355673,63.8834537 C37.2358492,63.8835947 37.2358492,63.8835947 37.2359902,63.8835947 Z M55.257629,61.3414978 C55.1189153,61.2773568 54.9551092,61.3097797 54.8514968,61.4214273 C54.836977,61.4369339 53.3617347,62.9797004 48.9258581,63.8855683 C47.2276025,64.2258678 44.0398669,64.3984141 39.4511796,64.3984141 C34.8538933,64.3984141 30.4794792,64.2175507 30.4357788,64.2157181 C30.2530827,64.206837 30.0967479,64.33963 30.0719373,64.5195066 C30.0469858,64.6993833 30.1628625,64.8686872 30.3393558,64.910696 C30.3848889,64.9215507 34.969347,65.9955947 41.2376818,65.9955947 C44.2441312,65.9955947 47.1696642,65.7512952 49.9332237,65.2694626 C55.0860695,64.3661322 55.4468096,61.8110661 55.4596378,61.7028018 C55.4775409,61.5514009 55.3960607,61.4056388 55.257629,61.3414978 Z"/>
</svg>
