<!-- Generated by IcoMoon.io -->
<svg version="1.1" xmlns="http://www.w3.org/2000/svg" width="32" height="32" viewBox="0 0 32 32">
<title>script_file</title>
<path d="M23.067 6.044h6.044v1.067h-6.044c-0.589 0-1.067-0.478-1.067-1.067v-6.044h1.067v6.044zM3.867 1.067v29.867h24.178v-24.889l-4.978-4.978h-19.2zM3.867 0h19.556l5.689 5.689v25.244c0 0.589-0.478 1.067-1.067 1.067h-24.178c-0.589 0-1.067-0.478-1.067-1.067v-29.867c0-0.589 0.478-1.067 1.067-1.067z"></path>
<path d="M12.726 24.577h-0.459c-0.739 0-1.226-0.115-1.463-0.355s-0.351-0.735-0.351-1.488v-1.609c0-0.857-0.179-1.444-0.529-1.762-0.11-0.1-0.119-0.108-0.161-0.145-0.345-0.3-0.66-0.43-1.394-0.516l-0.627-0.074 0.626-0.084c0.772-0.104 1.093-0.238 1.45-0.542 0.034-0.029 0.036-0.031 0.13-0.113 0.333-0.292 0.505-0.878 0.505-1.761v-2.063c0-0.748 0.113-1.242 0.35-1.484s0.725-0.359 1.464-0.359h0.459v-0.941h-0.413c-1.262 0-2.102 0.185-2.518 0.546-0.413 0.359-0.624 1.094-0.624 2.207v2.002c0 0.684-0.148 1.208-0.446 1.568-0.012 0.015-0.152 0.189-0.191 0.232-0.196 0.222-0.398 0.304-0.855 0.312v0.943c0.389 0.010 0.577 0.097 0.76 0.32 0.042 0.051 0.201 0.268 0.24 0.318 0.327 0.42 0.491 0.92 0.491 1.497v1.54c0 1.114 0.211 1.85 0.624 2.211 0.416 0.364 1.256 0.55 2.518 0.55h0.413v-0.949zM19.287 25.526c1.262 0 2.102-0.186 2.518-0.55 0.413-0.361 0.624-1.098 0.624-2.211v-1.54c0-0.577 0.164-1.077 0.491-1.497 0.039-0.050 0.199-0.267 0.24-0.318 0.183-0.223 0.371-0.31 0.76-0.32v-0.943c-0.457-0.008-0.659-0.090-0.855-0.312-0.039-0.044-0.178-0.218-0.191-0.232-0.299-0.36-0.446-0.883-0.446-1.568v-2.002c0-1.113-0.211-1.849-0.624-2.207-0.416-0.361-1.256-0.546-2.518-0.546h-0.413v0.941h0.459c0.739 0 1.226 0.116 1.464 0.359s0.35 0.736 0.35 1.484v2.064c0 0.883 0.171 1.469 0.504 1.761 0.094 0.082 0.096 0.084 0.13 0.113 0.357 0.303 0.678 0.438 1.45 0.542l0.626 0.084-0.627 0.074c-0.733 0.087-1.048 0.217-1.394 0.516-0.042 0.036-0.052 0.045-0.161 0.145-0.35 0.318-0.529 0.904-0.529 1.762v1.609c0 0.754-0.113 1.248-0.351 1.488s-0.724 0.355-1.463 0.355h-0.459v0.949h0.413z"></path>
<path d="M14.468 25.417c0.083 0.019 0.156-0.025 0.17-0.098l2.796-13.56c0.016-0.077-0.047-0.167-0.151-0.189l-0.827-0.181c-0.102-0.023-0.189 0.029-0.204 0.103l-2.688 13.563c-0.015 0.077 0.043 0.163 0.133 0.183l0.773 0.179z"></path>
</svg>
