<!-- Generated by IcoMoon.io -->
<svg version="1.1" xmlns="http://www.w3.org/2000/svg" width="32" height="32" viewBox="0 0 32 32">
<title>multi_branch_file</title>
<path d="M23.111 6.044h6.044v1.067h-6.044c-0.589 0-1.067-0.478-1.067-1.067v-6.044h1.067v6.044zM3.911 1.067v29.867h24.178v-24.889l-4.978-4.978h-19.2zM3.911 0h19.556l5.689 5.689v25.244c0 0.589-0.478 1.067-1.067 1.067h-24.178c-0.589 0-1.067-0.478-1.067-1.067v-29.867c0-0.589 0.478-1.067 1.067-1.067z"></path>
<path d="M22.984 12.293c0-1.26-1.021-2.283-2.282-2.283s-2.282 1.022-2.282 2.283c0 0.925 0.551 1.72 1.342 2.079-0.216 1.853-1.409 2.226-3.132 2.765-0.837 0.262-1.809 0.566-2.63 1.157v-3.905c0.811-0.351 1.378-1.157 1.378-2.096 0-1.26-1.022-2.283-2.282-2.283s-2.282 1.022-2.282 2.283c0 0.939 0.568 1.745 1.378 2.096v7.222c-0.811 0.349-1.378 1.156-1.378 2.095 0 1.26 1.021 2.283 2.282 2.283s2.282-1.022 2.282-2.283c0-0.925-0.551-1.721-1.343-2.079 0.217-1.853 1.411-2.227 3.133-2.765 1.752-0.548 4.113-1.287 4.405-4.46 0.827-0.344 1.41-1.158 1.41-2.11l0-0zM11.78 12.293c0-0.728 0.589-1.317 1.317-1.317s1.317 0.59 1.317 1.317c0 0.728-0.589 1.317-1.317 1.317s-1.317-0.59-1.317-1.317zM13.097 25.024c-0.727 0-1.317-0.59-1.317-1.317s0.589-1.317 1.317-1.317c0.727 0 1.317 0.59 1.317 1.317s-0.589 1.317-1.317 1.317zM20.702 13.611c-0.726 0-1.317-0.59-1.317-1.317s0.59-1.317 1.317-1.317c0.726 0 1.317 0.59 1.317 1.317s-0.59 1.317-1.317 1.317z"></path>
</svg>
