<svg xmlns="http://www.w3.org/2000/svg" width="80" height="80" viewBox="0 0 80 80">
  <path d="M57.6666667,15.1111111 L72.7777778,15.1111111 L72.7777778,17.7777778 L57.6666667,17.7777778 C56.1939073,17.7777778 55,16.5838704 55,15.1111111 L55,0 L57.6666667,0 L57.6666667,15.1111111 Z M9.66666667,2.66666667 L9.66666667,77.3333333 L70.1111111,77.3333333 L70.1111111,15.1111111 L57.6666667,2.66666667 L9.66666667,2.66666667 Z M9.66666667,0 L58.5555556,0 L72.7777778,14.2222222 L72.7777778,77.3333333 C72.7777778,78.8060927 71.5838704,80 70.1111111,80 L9.66666667,80 C8.19390733,80 7,78.8060927 7,77.3333333 L7,2.66666667 C7,1.19390733 8.19390733,2.705415e-16 9.66666667,0 Z M30.0787145,45.3107558 C29.3553133,49.0193314 26.8005168,48.6347384 23.6596738,48.6347384 L24.9141796,42.1699128 C28.3938307,42.1699128 30.7563307,41.7944767 30.0787145,45.3107558 Z M19.0170866,55.1819767 L22.377697,55.1819767 L23.174354,51.0796512 C26.9378714,51.0796512 29.2729005,51.3543605 31.433947,49.3306686 C33.823918,47.1329942 34.4465924,43.2229651 32.7433947,41.2633721 C31.855168,40.2377907 30.4266796,39.734157 28.4854005,39.734157 L22.011418,39.734157 L19.0170866,55.1819767 Z M36.0215924,35.6226744 L33.027261,51.0613372 L36.3695575,51.0613372 L38.0910691,42.2156977 C40.8106912,42.2156977 41.9369994,42.105814 42.4314761,42.6369186 C42.9442668,43.1863372 42.6787145,43.7906977 41.2685401,51.0613372 L44.6566214,51.0613372 C46.1217377,43.5434593 46.7718831,41.9501453 45.4166505,40.7047965 C44.1255168,39.5143895 41.4516796,39.725 38.5672319,39.725 L39.3638889,35.6226744 L36.0215924,35.6226744 Z M56.3409238,45.3107558 C55.6083656,49.0742733 52.9803133,48.6347384 49.9218831,48.6347384 L51.1763889,42.1699128 C54.674354,42.1699128 57.0185401,41.7944767 56.3409238,45.3107558 Z M45.2792959,55.1819767 L48.6490633,55.1819767 L49.4457203,51.0796512 C53.4015342,51.0796512 55.5900517,51.3085756 57.7053133,49.3306686 C60.0952842,47.1329942 60.7179587,43.2229651 59.014761,41.2633721 C58.1265342,40.2377907 56.6980459,39.734157 54.7567668,39.734157 L48.2827842,39.734157 L45.2792959,55.1819767 Z"/>
</svg>
