<svg xmlns="http://www.w3.org/2000/svg" width="80" height="80" viewBox="0 0 80 80">
  <path d="M34.9158183,26.3908679 C30.8978183,27.1018679 30.1688183,28.5868679 30.1688183,31.3328679 L30.1688183,34.9508679 L39.6708183,34.9508679 L39.6708183,36.1598679 L26.6038183,36.1598679 C23.8398183,36.1598679 21.4218183,37.8218679 20.6668183,40.9778679 C19.7958183,44.5958679 19.7598183,46.8528679 20.6668183,50.6308679 C21.3418183,53.4398679 22.9508183,55.4488679 25.7158183,55.4488679 L28.9778183,55.4488679 L28.9778183,51.1108679 C28.9778183,47.9738679 31.6888183,45.2088679 34.9158183,45.2088679 L44.4088183,45.2088679 C47.0488183,45.2088679 49.1558183,43.0308679 49.1558183,40.3818679 L49.1558183,31.3248679 C49.1558183,28.7468679 46.9868183,26.8178679 44.4088183,26.3818679 C41.2268183,25.8578679 37.7688183,25.8848679 34.9158183,26.3908679 Z M34.3198183,28.9158679 C35.2978183,28.9158679 36.1068183,29.7328679 36.1068183,30.7288679 C36.1068183,31.7238679 35.3068183,32.5338679 34.3198183,32.5338679 C33.3328183,32.5338679 32.5338183,31.7238679 32.5338183,30.7288679 C32.5418183,29.7238679 33.3328183,28.9158679 34.3198183,28.9158679 Z M50.7818183,36.1508679 L50.7818183,36.1598679 L54.3468183,36.1598679 C57.1108183,36.1598679 58.4088183,38.2308679 59.0938183,40.9778679 C60.0438183,44.7908679 60.0888183,47.6528679 59.0938183,50.6308679 C58.1338183,53.5198679 57.1108183,55.4488679 54.3468183,55.4488679 L40.1068183,55.4488679 L40.1068183,56.6578679 L49.5908183,56.6578679 L49.5908183,60.2758679 C49.5908183,63.0128679 47.2358183,64.4088679 44.8448183,65.1018679 C41.2448183,66.1418679 38.3558183,65.9828679 35.3518183,65.1018679 C32.8448183,64.3648679 30.6038183,62.8538679 30.6038183,60.2758679 L30.6038183,51.2268679 C30.6038183,48.6218679 32.7558183,46.3998679 35.3518183,46.3998679 L44.8448183,46.3998679 C48.0088183,46.3998679 50.7818183,43.6438679 50.7818183,40.3728679 L50.7818183,36.1508679 Z M58.7300009,0 L73,14.222 L73,15.111 L73,17.778 L73,77.334 C73,78.806 71.8019703,80 70.3250023,80 L9.67600109,80 C8.19802974,80 7,78.806 7,77.334 L7,2.667 C7,1.194 8.19802974,0 9.67600109,0 L55.1619995,0 L57.8380005,0 L58.7300009,0 Z M57.8380005,15.111 L70.3250023,15.111 L57.8380005,2.667 L57.8380005,15.111 Z M70.3250023,77.334 L70.3250023,17.778 L57.8380005,17.778 C56.3600292,17.778 55.1619995,16.584 55.1619995,15.111 L55.1619995,2.667 L9.67600109,2.667 L9.67600109,77.334 L70.3250023,77.334 Z M45.4398183,59.0668679 C46.4268183,59.0668679 47.2268183,59.8748679 47.2268183,60.8708679 C47.2268183,61.8748679 46.4268183,62.6848679 45.4398183,62.6848679 C44.4618183,62.6848679 43.6528183,61.8668679 43.6528183,60.8708679 C43.6628183,59.8668679 44.4618183,59.0668679 45.4398183,59.0668679 Z"/>
</svg>
