<!-- Generated by IcoMoon.io -->
<svg version="1.1" xmlns="http://www.w3.org/2000/svg" width="32" height="32" viewBox="0 0 32 32">
<title>template_file</title>
<path d="M23.067 6.044h6.044v1.067h-6.044c-0.589 0-1.067-0.478-1.067-1.067v-6.044h1.067v6.044zM3.867 1.067v29.867h24.178v-24.889l-4.978-4.978h-19.2zM3.867 0h19.556l5.689 5.689v25.244c0 0.589-0.478 1.067-1.067 1.067h-24.178c-0.589 0-1.067-0.478-1.067-1.067v-29.867c0-0.589 0.478-1.067 1.067-1.067z"></path>
<path d="M13.674 18.596h-4.054c-0.112 0-0.196 0.084-0.196 0.196v6.447c0 0.112 0.084 0.196 0.196 0.196h4.054c0.112 0 0.196-0.084 0.196-0.196v-6.434c-0.029-0.108-0.14-0.209-0.196-0.209zM14.87 18.758v6.482c0 0.665-0.532 1.196-1.196 1.196h-4.054c-0.665 0-1.196-0.532-1.196-1.196v-6.447c0-0.665 0.532-1.196 1.196-1.196h4.054c0.577 0 1.105 0.5 1.191 1.089l0.005 0.073zM9.619 12.224c-0.112 0-0.196 0.084-0.196 0.196v2.858c0 0.112 0.084 0.196 0.196 0.196h12.761c0.112 0 0.196-0.084 0.196-0.196v-2.924c0-0.048-0.088-0.13-0.196-0.13h-12.761zM23.577 12.354v2.924c0 0.665-0.532 1.196-1.196 1.196h-12.761c-0.665 0-1.196-0.532-1.196-1.196v-2.858c0-0.665 0.532-1.196 1.196-1.196h12.761c0.643 0 1.196 0.51 1.196 1.13zM22.912 21.752h-6.513c-0.399 0-0.665 0.226-0.665 0.452s0.266 0.452 0.665 0.452h6.513c0.399 0 0.665-0.226 0.665-0.452-0.066-0.271-0.332-0.452-0.665-0.452zM22.912 17.994c0.332 0 0.598 0.181 0.665 0.452 0 0.226-0.266 0.452-0.665 0.452h-6.513c-0.399 0-0.665-0.226-0.665-0.452s0.266-0.452 0.665-0.452h6.513zM22.912 25.51c0.332 0 0.598 0.226 0.665 0.452 0 0.226-0.266 0.452-0.665 0.452h-6.513c-0.399 0-0.665-0.226-0.665-0.452s0.266-0.452 0.665-0.452h6.513z"></path>
</svg>
