<svg xmlns="http://www.w3.org/2000/svg" width="80" height="80" viewBox="0 0 80 80">
  <path d="M57.0675676,15.1111111 L72,15.1111111 L72,17.7777778 L57.0990991,17.7777778 C57.0885742,17.7777778 57.0780636,17.7777168 57.0675676,17.7775952 C55.6122226,17.7777778 54.4324324,16.5979876 54.4324324,15.1426426 L54.4324324,0 L57.0675676,0 L57.0675676,15.1111111 Z M9.63513514,2.66666667 L9.63513514,77.3333333 L69.3648649,77.3333333 L69.3648649,15.1111111 L57.0675676,2.66666667 L9.63513514,2.66666667 Z M9.63513514,0 L57.9459459,0 L72,14.2222222 L72,77.3333333 C72,78.8060927 70.8202098,80 69.3648649,80 L9.63513514,80 C8.17979019,80 7,78.8060927 7,77.3333333 L7,2.66666667 C7,1.19390733 8.17979019,2.705415e-16 9.63513514,0 Z M19.4334717,50 L21.9955873,50 L21.9955873,44.5947266 L26.6768766,37.1152344 L23.7152446,37.1152344 L20.779668,42.2128906 L17.7832955,37.1152344 L14.7695527,37.1152344 L19.4334717,44.5771484 L19.4334717,50 Z M39.435344,50 L34.3371681,37.1152344 L31.61872,37.1152344 L26.6595063,50 L29.3866396,50 L30.4375412,47.0732422 L35.527032,47.0732422 L36.6387296,50 L39.435344,50 Z M34.7019439,44.9023438 L31.2278888,44.9023438 L32.9475461,40.1210938 L34.7019439,44.9023438 Z M40.7641701,50 L43.1525829,50 L43.1525829,39.8574219 L45.6712729,50 L48.1465372,50 L50.6739123,39.8574219 L50.6739123,50 L53.0623251,50 L53.0623251,37.1152344 L49.206124,37.1152344 L46.9219327,45.9042969 L44.6116861,37.1152344 L40.7641701,37.1152344 L40.7641701,50 Z M55.6852368,50 L64.6482989,50 L64.6482989,47.8291016 L58.2560375,47.8291016 L58.2560375,37.2207031 L55.6852368,37.2207031 L55.6852368,50 Z"/>
</svg>
