<svg xmlns="http://www.w3.org/2000/svg" width="24" height="24" viewBox="0 0 24 24">
  <g fill="#7C70E2">
    <path d="M23.7978451,14.2050436 C23.6285998,13.4667685 23.3572046,12.7674587 22.9993289,12.1227836 C22.9997759,12.0819088 23,12.0409806 23,12 C23,5.92486775 18.0751322,1 12,1 C5.92486775,1 1,5.92486775 1,12 C1,18.0751322 5.92486775,23 12,23 C12.0409806,23 12.0819088,22.9997759 12.1227836,22.9993289 C12.7674587,23.3572046 13.4667685,23.6285998 14.2050436,23.7978451 C13.4902686,23.9305999 12.7532389,24 12,24 C5.372583,24 0,18.627417 0,12 C0,5.372583 5.372583,0 12,0 C18.627417,0 24,5.372583 24,12 C24,12.7532389 23.9305999,13.4902686 23.7978451,14.2050436 Z"/>
    <path d="M11.6152645 9.30757215L10.7384615 8.43076923 13.9692308 5.2 16.8097 8.04046921C16.5434345 8.01370635 16.2733179 8 16 8 14.3810932 8 12.8745 8.48087203 11.6152645 9.30757215zM8.76361462 12.5846154C8.27388764 13.6204082 8 14.7782191 8 16 8 16.407848 8.03051986 16.8085678 8.08940033 17.2L5.2 17.2 5.2 12.5846154 8.76361462 12.5846154zM5.2 10.7384615L5.2 6.12307692 9.81538462 6.12307692 9.81538462 10.7384615 5.2 10.7384615zM16 22C12.6862915 22 10 19.3137085 10 16 10 12.6862915 12.6862915 10 16 10 19.3137085 10 22 12.6862915 22 16 22 19.3137085 19.3137085 22 16 22zM19.125 15.125L16.875 15.125 16.875 12.875C16.875 12.35 16.525 12 16 12 15.475 12 15.125 12.35 15.125 12.875L15.125 15.125 12.875 15.125C12.35 15.125 12 15.475 12 16 12 16.525 12.35 16.875 12.875 16.875L15.125 16.875 15.125 19.125C15.125 19.65 15.475 20 16 20 16.525 20 16.875 19.65 16.875 19.125L16.875 16.875 19.125 16.875C19.65 16.875 20 16.525 20 16 20 15.475 19.65 15.125 19.125 15.125z"/>
  </g>
</svg>
