<svg xmlns="http://www.w3.org/2000/svg" width="24" height="24" viewBox="0 0 24 24">
  <g fill="#009CE3">
    <path d="M12,24 C5.372583,24 0,18.627417 0,12 C0,5.372583 5.372583,0 12,0 C18.627417,0 24,5.372583 24,12 C24,18.627417 18.627417,24 12,24 Z M12,23 C18.0751322,23 23,18.0751322 23,12 C23,5.92486775 18.0751322,1 12,1 C5.92486775,1 1,5.92486775 1,12 C1,18.0751322 5.92486775,23 12,23 Z"/>
    <path d="M10.5,9.05208333 C10.0685275,9.05208333 9.71875,9.40186087 9.71875,9.83333333 C9.71875,10.2648058 10.0685275,10.6145833 10.5,10.6145833 C10.9314725,10.6145833 11.28125,10.2648058 11.28125,9.83333333 C11.28125,9.40186087 10.9314725,9.05208333 10.5,9.05208333 Z"/>
    <path d="M16.4114583,8.46354167 C15.9855394,6.61325694 14.4345062,5.23572208 12.546875,5.03125 L12.5,5.03125 C12.3541667,5.03125 12.2083333,5.03125 12.0625,5.03125 C11.9166667,5.03125 11.7708333,5.03125 11.625,5.03125 L11.578125,5.03125 C9.69049377,5.23572208 8.13946059,6.61325694 7.71354167,8.46354167 C5.50321758,8.97425334 4.027539,11.0616813 4.28332257,13.315774 C4.53910613,15.5698666 6.44498422,17.2735719 8.71354167,17.2760417 L15.4114583,17.2760417 C17.6800158,17.2735719 19.5858939,15.5698666 19.8416774,13.315774 C20.097461,11.0616813 18.6217824,8.97425334 16.4114583,8.46354167 Z M8.71354167,16.1614583 C7.08507436,16.1564852 5.69623381,14.980806 5.42247185,13.375507 C5.14870989,11.770208 6.06939113,10.2006713 7.60416667,9.65625 C7.671875,12.5729167 9.16666667,14.75 12.0729167,16.1614583 L8.71354167,16.1614583 Z M8.71354167,9.796875 L7.92708333,9.125 L8.81770833,8.6875 C9.19713589,7.19743278 10.5251719,6.14438333 12.0625,6.11458333 C13.8980947,6.14791548 15.3781262,7.62794694 15.4114583,9.46354167 L15.4114583,16.1614583 C9.578125,14.7135417 8.79166667,11.6666667 8.71875,9.796875 L8.71354167,9.796875 Z M16.5260417,15.96875 L16.5260417,9.65625 C17.8623861,10.1303041 18.7553537,11.3945636 18.7553537,12.8125 C18.7553537,14.2304364 17.8623861,15.4946959 16.5260417,15.96875 Z"/>
  </g>
</svg>
