<svg xmlns="http://www.w3.org/2000/svg" width="24" height="24" viewBox="0 0 24 24">
    <defs>
        <linearGradient id="a" x1="108.654%" x2="46.979%" y1="13.888%" y2="78.803%">
            <stop offset="18%" stop-color="#0052CC"/>
            <stop offset="100%" stop-color="#2684FF"/>
        </linearGradient>
    </defs>
    <g fill="none" fill-rule="evenodd">
        <path fill="#0D61D0" d="M12 24C5.373 24 0 18.627 0 12S5.373 0 12 0s12 5.373 12 12-5.373 12-12 12zm0-1c6.075 0 11-4.925 11-11S18.075 1 12 1 1 5.925 1 12s4.925 11 11 11z"/>
        <path d="M10.714 13.856h2.589l.63-3.72h-3.906z"/>
        <path fill="#2684FF" fill-rule="nonzero" d="M6.215 6.33a.397.397 0 0 0-.405.403c0 .019 0 .048.01.067l1.684 10.412c.047.26.264.46.527.46h8.077a.398.398 0 0 0 .395-.335l1.685-10.528a.395.395 0 0 0-.33-.46c-.018 0-.046-.01-.065-.01L6.215 6.33zm7.088 7.527h-2.58l-.696-3.72h3.907l-.631 3.72z"/>
        <path fill="url(#a)" fill-rule="nonzero" d="M11.842 3.806H8.124l-.622 3.72H4.914l-3.05 3.682a.511.511 0 0 0 .348.135h8.086a.398.398 0 0 0 .395-.336l1.149-7.2z" transform="translate(5.81 6.33)"/>
    </g>
</svg>
