<svg xmlns="http://www.w3.org/2000/svg" width="24" height="24" viewBox="0 0 24 24">
  <g fill="none">
    <path fill="#039BC6" d="M7.41618986,16.2815298 C6.93185039,16.2815298 6.49212114,15.8276402 6.49212114,15.2739678 C6.49212114,14.7202955 6.88830233,14.2664059 7.41618986,14.2664059 C7.94301524,14.2664059 8.34025857,14.7202955 8.34025857,15.2739678 C8.34025857,15.8276402 7.89946718,16.2815298 7.41618986,16.2815298 Z M18.7567435,10.7934811 C18.6611502,9.98670143 18.2256696,9.33324641 17.6521097,8.82824859 L17.4290586,8.62624946 L17.2484934,8.87813994 C16.8979846,9.33202955 16.7599054,10.1375924 16.8023913,10.7399392 C16.8448772,11.1950456 16.972335,11.6477184 17.195386,12.0006084 C17.0148209,12.101608 16.7917698,12.2026076 16.6218261,12.3023903 C16.2182099,12.4532812 15.8252152,12.5043894 15.4322204,12.5043894 L4.06829952,12.5043894 L4.0258136,12.8061712 C3.9379558,13.7868429 4.07525804,14.7767963 4.42411908,15.6779661 L4.60043564,16.0308561 L4.60043564,16.0795306 C5.66258359,18.0946545 7.55320694,19 9.61377397,19 C13.5755858,19 16.8257586,17.0372012 18.3658731,12.8061712 C19.3749136,12.8572794 20.3945757,12.5542807 20.8725422,11.4469361 L21,11.1950456 L20.7875704,11.0441547 C20.2140105,10.6425902 19.428021,10.5902651 18.7694893,10.7922642 L18.7567435,10.7934811 Z M13.0848735,9.98670143 L11.3652559,9.98670143 L11.3652559,11.9519339 L13.0859356,11.9519339 L13.0859356,9.98548457 L13.0848735,9.98670143 Z M13.0848735,7.51890482 L11.3652559,7.51890482 L11.3652559,9.48170361 L13.0859356,9.48170361 L13.0859356,7.52012169 L13.0848735,7.51890482 Z M13.0848735,5 L11.3652559,5 L11.3652559,6.96279878 L13.0859356,6.96279878 L13.0859356,5.00121686 L13.0848735,5 Z M15.1879264,9.98670143 L13.4789304,9.98670143 L13.4789304,11.9519339 L15.1932372,11.9519339 L15.1932372,9.98548457 L15.1879264,9.98670143 Z M8.81503871,9.98670143 L7.10604266,9.98670143 L7.10604266,11.9519339 L8.82034945,11.9519339 L8.82034945,9.98548457 L8.81503871,9.98670143 Z M10.9605776,9.98670143 L9.26114085,9.98670143 L9.26114085,11.9519339 L10.971199,11.9519339 L10.971199,9.98548457 L10.9605776,9.98670143 Z M6.69074281,9.98670143 L4.99236823,9.98670143 L4.99236823,11.9519339 L6.71304791,11.9519339 L6.71304791,9.98548457 L6.69074281,9.98670143 Z M10.9605776,7.51890482 L9.26114085,7.51890482 L9.26114085,9.48170361 L10.971199,9.48170361 L10.971199,7.52012169 L10.9605776,7.51890482 Z M8.80441723,7.51890482 L8.81503871,7.52012169 L8.81503871,9.48170361 L7.10498051,9.48170361 L7.10498051,7.51890482 L8.80441723,7.51890482 Z"/>
    <g transform="translate(12.7 13.2)">
      <path fill="#FFF" d="M2.00621298,0.752518042 C2.4710077,0.308850349 3.0505244,0.0777777778 3.69523846,0.0777777778 C4.33995194,0.0777777778 4.9194686,0.308850455 5.38426409,0.752518881 C5.84921698,1.19633868 6.10076747,1.75997601 6.10971238,2.39121949 C6.11994233,2.40038331 6.13005403,2.40973362 6.14004383,2.41926933 C6.38897045,2.65687826 6.52694394,2.97672648 6.52694394,3.32172986 L6.52694394,5.1128692 C6.52694394,5.45787194 6.38897117,5.7777184 6.14004693,6.01532705 C5.89987903,6.24457754 5.58925841,6.36666667 5.25893139,6.36666667 L2.1315451,6.36666667 C1.80121778,6.36666667 1.49059617,6.24457743 1.25042843,6.01532626 C1.001505,5.77771767 0.863532248,5.45787173 0.863532248,5.1128692 L0.863532248,3.32172986 C0.863532248,2.97672668 1.00150572,2.65687899 1.25042698,2.41927447 C1.26041868,2.40973691 1.27053232,2.40038482 1.28076425,2.39121928 C1.28970921,1.75997597 1.54125937,1.19633876 2.00621298,0.752518042 Z"/>
      <path fill="#039BC6" d="M2.76402085,3.00000021 L4.62645534,3.00000021 L4.62645534,2.3333334 C4.62645534,2.08796162 4.53551712,1.87847261 4.35363741,1.70486093 C4.17175852,1.53124926 3.95229384,1.44444459 3.6952385,1.44444459 C3.43818235,1.44444459 3.21871767,1.53124926 3.03683878,1.70486093 C2.85495907,1.87847261 2.76402085,2.08796162 2.76402085,2.3333334 L2.76402085,3.00000021 Z M5.79047619,3.33333323 L5.79047619,5.33333334 C5.79047619,5.42592639 5.75652612,5.50462934 5.68862434,5.56944444 C5.62072256,5.63425958 5.53827226,5.66666667 5.44127018,5.66666667 L1.94920634,5.66666667 C1.8522041,5.66666667 1.76975339,5.63425958 1.70185185,5.56944444 C1.63395028,5.50462934 1.6,5.42592639 1.6,5.33333334 L1.6,3.33333323 C1.6,3.24074033 1.63395028,3.162037 1.70185185,3.09722244 C1.76975339,3.0324071 1.8522041,3.00000021 1.94920634,3.00000021 L2.0656085,3.00000021 L2.0656085,2.3333334 C2.0656085,1.90740516 2.22565981,1.54166837 2.54576699,1.23611058 C2.86587433,0.930553562 3.24902797,0.777777778 3.6952385,0.777777778 C4.14144822,0.777777778 4.52460186,0.930553562 4.8447092,1.23611058 C5.16481654,1.54166837 5.32486818,1.90740516 5.32486818,2.3333334 L5.32486818,3.00000021 L5.44127018,3.00000021 C5.53827226,3.00000021 5.62072256,3.0324071 5.68862434,3.09722244 C5.75652612,3.162037 5.79047619,3.24074033 5.79047619,3.33333323 Z"/>
    </g>
    <path fill="#039BC6" d="M12,24 C5.372583,24 0,18.627417 0,12 C0,5.372583 5.372583,0 12,0 C18.627417,0 24,5.372583 24,12 C24,18.627417 18.627417,24 12,24 Z M12,23 C18.0751322,23 23,18.0751322 23,12 C23,5.92486775 18.0751322,1 12,1 C5.92486775,1 1,5.92486775 1,12 C1,18.0751322 5.92486775,23 12,23 Z"/>
  </g>
</svg>
