<svg xmlns="http://www.w3.org/2000/svg" width="24" height="24" viewBox="0 0 24 24">
  <g fill="#DE4C36">
    <path d="M12,24 C5.372583,24 0,18.627417 0,12 C0,5.372583 5.372583,0 12,0 C18.627417,0 24,5.372583 24,12 C24,18.627417 18.627417,24 12,24 Z M12,23 C18.0751322,23 23,18.0751322 23,12 C23,5.92486775 18.0751322,1 12,1 C5.92486775,1 1,5.92486775 1,12 C1,18.0751322 5.92486775,23 12,23 Z"/>
    <path d="M14.7171094,6.83167969 L8.16796875,0.282890625 C7.79103516,-0.0942773437 7.17931641,-0.0942773437 6.80191406,0.282890625 L5.44195312,1.64285156 L7.16712891,3.36802734 C7.56802734,3.23255859 8.02775391,3.3234375 8.34732422,3.64300781 C8.66841797,3.96462891 8.75865234,4.42828125 8.61990234,4.83046875 L10.2825,6.493125 C10.6847461,6.35455078 11.1488672,6.44419922 11.4701367,6.76599609 C11.9191406,7.21482422 11.9191406,7.94226562 11.4701367,8.39138672 C11.0210156,8.84056641 10.2935742,8.84056641 9.84421875,8.39138672 C9.50648438,8.05330078 9.42304688,7.55730469 9.59402344,7.14123047 L8.04351563,5.59072266 L8.04333984,9.67101562 C8.15573889,9.72659089 8.25839589,9.80000213 8.34732422,9.88839844 C8.79632813,10.3372266 8.79632813,11.0647266 8.34732422,11.5141992 C7.89820312,11.9631445 7.17041016,11.9631445 6.72193359,11.5141992 C6.27292969,11.0647266 6.27292969,10.3372852 6.72193359,9.88845703 C6.82953446,9.78080189 6.9574093,9.69554536 7.09816406,9.63761719 L7.09816406,5.51929687 C6.95720448,5.46175407 6.82925749,5.37644943 6.72193359,5.26845703 C6.38173828,4.92873047 6.29994141,4.42957031 6.47425781,4.01185547 L4.77363281,2.31105469 L0.283007812,6.80138672 C-0.0943359375,7.17890625 -0.0943359375,7.79068359 0.283007812,8.16791016 L6.83226562,14.7168164 C7.20931641,15.094043 7.82091797,15.094043 8.1984375,14.7168164 L14.7170508,8.19832031 C15.0942773,7.82097656 15.0942773,7.20884766 14.7170508,6.83167969" transform="translate(4.5 4.5)"/>
  </g>
</svg>
