<svg xmlns="http://www.w3.org/2000/svg" width="24" height="24" viewBox="0 0 24 24">
    <g fill="#DB0918" fill-rule="evenodd">
        <path d="M12 24C5.373 24 0 18.627 0 12S5.373 0 12 0s12 5.373 12 12-5.373 12-12 12zm0-1c6.075 0 11-4.925 11-11S18.075 1 12 1 1 5.925 1 12s4.925 11 11 11z"/>
        <path fill-rule="nonzero" d="M17.467 10.8h-6.134a.533.533 0 0 0-.533.534v1.333c0 .295.238.533.533.533h3.734c.294 0 .533.239.533.534V14a1.6 1.6 0 0 1-1.6 1.6H8.933a.533.533 0 0 1-.533-.533V10A1.6 1.6 0 0 1 10 8.4h7.465A.533.533 0 0 0 18 7.867V6.534H18A.533.533 0 0 0 17.467 6H10a4 4 0 0 0-4 4v7.467c0 .294.239.533.533.533H14.4a3.6 3.6 0 0 0 3.6-3.6v-3.066a.533.533 0 0 0-.533-.534z"/>
    </g>
</svg>
