<svg xmlns="http://www.w3.org/2000/svg" width="24" height="24" viewBox="0 0 24 24">
  <g fill="#333">
    <path d="M12,24 C5.372583,24 0,18.627417 0,12 C0,5.372583 5.372583,0 12,0 C18.627417,0 24,5.372583 24,12 C24,18.627417 18.627417,24 12,24 Z M12,23 C18.0751322,23 23,18.0751322 23,12 C23,5.92486775 18.0751322,1 12,1 C5.92486775,1 1,5.92486775 1,12 C1,18.0751322 5.92486775,23 12,23 Z"/>
    <path d="M18,9.72118798 C17.998557,10.2664755 17.9256581,10.8096 17.7828917,11.3387279 L17.7464175,11.4557551 C17.7082065,11.5701104 17.6665217,11.6769846 17.6213631,11.7763775 L17.5675203,11.8918016 C16.9769857,13.0877231 15.7681267,13.5333882 13.8124152,13.7193492 C14.4463714,14.088065 14.6270055,14.5497612 14.6270055,15.8033947 C14.6270055,17.0570283 14.6061631,17.2221488 14.6131106,17.5091059 C14.6374267,18.4164672 14.7867972,18.8012141 13.9183641,18.8396888 C13.2435047,18.9409988 12.5612483,18.9945917 11.8775461,19 C11.0091129,18.9807627 10.1545746,18.8813697 10.0034673,18.7723581 C9.85235992,18.6633465 9.98088803,17.983627 9.98088803,17.4898685 C9.98088803,17.0570283 9.97046684,15.9444686 9.97046682,15.9444686 C9.674898,15.9845575 9.3764551,16.0038504 9.07771752,16.0021806 C7.75596223,16.0021806 7.34085116,15.2246713 7.13763779,14.7886249 C6.95475278,14.3515922 6.62001642,13.9828715 6.18583502,13.7401897 C5.96698985,13.6087345 5.91662074,13.4548357 6.17020323,13.4195673 C7.34085116,13.215972 7.64132904,14.6443448 8.4281295,14.8719867 C8.9856636,15.0322979 9.70298941,14.9649672 10.0607839,14.7517533 C10.1320887,14.3460956 10.3727686,13.9823756 10.7312143,13.7385866 C8.73902858,13.5558318 7.56143318,12.9177932 6.95352996,11.8934047 L6.88752904,11.7795837 C6.83040588,11.6753092 6.77938448,11.5682813 6.73468479,11.4589614 L6.68778941,11.3419342 C6.49139398,10.7660638 6.39811462,10.1644747 6.41162765,9.56087678 C6.41162765,8.37938327 6.81110692,7.93371815 7.34606176,7.30369514 C6.93789816,5.9570811 7.49369539,5.03689483 7.49369539,5.03689483 C7.49369539,5.03689483 8.35344423,4.87658363 9.98088803,5.94746243 C10.8632161,5.59958714 13.2131963,5.569128 14.3230539,5.87051306 C15.0056424,5.45370394 16.2544493,4.86215564 16.7546668,5.02887927 C16.8918793,5.23087138 17.1854097,5.82241968 16.9283535,7.11292482 C17.1072507,7.39507252 17.9965263,8.00585818 18,9.72118798 Z"/>
  </g>
</svg>
