<svg xmlns="http://www.w3.org/2000/svg" width="24" height="24" viewBox="0 0 24 24">
  <g fill="none">
    <path fill="#B71818" d="M12,24 C5.372583,24 0,18.627417 0,12 C0,5.372583 5.372583,0 12,0 C18.627417,0 24,5.372583 24,12 C24,18.627417 18.627417,24 12,24 Z M12,23 C18.0751322,23 23,18.0751322 23,12 C23,5.92486775 18.0751322,1 12,1 C5.92486775,1 1,5.92486775 1,12 C1,18.0751322 5.92486775,23 12,23 Z"/>
    <g transform="translate(4 5)">
      <polygon fill="#E24329" points="7.796 13.615 10.655 5.261 4.936 5.261"/>
      <polygon fill="#FC6D26" points="7.796 13.615 4.936 5.261 .929 5.261"/>
      <path fill="#FCA326" d="M0.929272237,5.2606923 L0.0588679245,7.79923577 C-0.0210242588,8.03073816 0.067277628,8.28618908 0.273315364,8.4258888 L7.79579515,13.6147355 L0.929272237,5.2606923 Z"/>
      <path fill="#E24329" d="M0.929272237,5.2606923 L4.93649596,5.2606923 L3.21250674,0.227510972 C3.12420485,-0.0319313645 2.73735849,-0.0319313645 2.6490566,0.227510972 L0.929272237,5.2606923 Z"/>
      <polygon fill="#FC6D26" points="7.796 13.615 10.655 5.261 14.662 5.261"/>
      <path fill="#FCA326" d="M14.6623181,5.2606923 L15.5327224,7.79923577 C15.6126146,8.03073816 15.5243127,8.28618908 15.3182749,8.4258888 L7.79579515,13.6147355 L14.6623181,5.2606923 Z"/>
      <path fill="#E24329" d="M14.6623181,5.2606923 L10.6550943,5.2606923 L12.3790836,0.227510972 C12.4673854,-0.0319313645 12.8542318,-0.0319313645 12.9425337,0.227510972 L14.6623181,5.2606923 Z"/>
    </g>
  </g>
</svg>
