<svg xmlns="http://www.w3.org/2000/svg" xmlns:xlink="http://www.w3.org/1999/xlink" width="48" height="36" viewBox="0 0 48 36">
  <defs>
    <linearGradient id="gogs-a" x1="89.382%" x2="7.459%" y1="112.574%" y2="-8.726%">
      <stop offset="0%" stop-color="#DC493C"/>
      <stop offset="100%" stop-color="#E8887F"/>
    </linearGradient>
    <path id="gogs-b" d="M9.31688734,0.2036 C4.21440571,0.203548235 0.0780063212,4.35430118 0.0780649412,9.47450824 C0.0780063212,14.5947059 4.21440571,18.7454588 9.31688734,18.7454071 C12.2100787,18.7386776 14.9330179,17.3721694 16.674026,15.0534118 L16.682425,15.0584471 L16.7306074,14.9748941 C17.1615337,14.3947718 17.5233044,13.7660235 17.8085211,13.1014776 L11.9990618,9.73550118 C12.007625,9.64885176 12.0119066,9.56184 12.0120707,9.47477176 C12.0120618,7.9812 10.8054782,6.77042824 9.31707633,6.77040941 C7.82867358,6.77042824 6.62208852,7.9812 6.62207257,9.47477176 C6.62208852,10.9683435 7.82867358,12.1791153 9.31707633,12.1791341 C9.87029379,12.1781929 10.4097295,12.0058871 10.8621538,11.6864 L14.3500806,13.7073788 C13.103936,15.2052188 11.2615196,16.0734541 9.31707633,16.0791906 C5.68217939,16.0791718 2.73552658,13.1222824 2.7355097,9.47477176 C2.73552658,5.82726118 5.68217939,2.87037176 9.31707633,2.87036235 C10.0882087,2.87459765 10.8525674,3.01522353 11.5752679,3.28517176 C11.7782998,3.39391529 12.0062959,3.45096471 12.2380681,3.45101176 C12.9975084,3.45107294 13.6131697,2.85217412 13.6131111,2.11341176 C13.6125014,1.63505882 13.2794691,1.18971294 12.8530579,0.951458824 C12.8530579,0.951458824 12.637493,0.844790588 12.5620903,0.815425882 C11.5277331,0.412663529 10.4265759,0.210531765 9.31708384,0.203863529 L9.31688734,0.2036 Z"/>
  </defs>
  <g fill="none">
    <rect width="48" height="36" fill="#FFF" opacity="0" rx="2"/>
    <g transform="translate(9 2)">
      <path stroke="#5B1A14" stroke-linecap="round" stroke-width=".661" d="M12.0177719,0.440969412 L11.1753914,3.91968471 C9.43867081,4.47331804 7.84421857,5.40273336 6.50458452,6.64232471 L3.10730946,5.64293647 L0.214945708,10.6699153 L2.79065878,13.1366212 C2.59572402,14.0151392 2.49595708,14.9122218 2.49309504,15.8122494 C2.49834093,16.7368576 2.60585081,17.6580245 2.81364972,18.5588282 L0.249212186,21.0142118 L3.14157763,26.0411906 L6.56530592,25.0339576 C7.91114532,26.2713602 9.51165125,27.1966921 11.2534718,27.7444188 L12.0863085,31.1835153 L17.8706029,31.1835153 L18.7129834,27.7052424 C20.449707,27.1516101 22.0441622,26.2221948 23.3837987,24.9826024 L26.7810713,25.9815529 L29.6734322,20.9545741 L27.0977149,18.4883106 C27.292681,17.6096512 27.3924485,16.7124218 27.3952799,15.8122494 C27.3900021,14.8877844 27.2824921,13.9667629 27.0747242,13.0660988 L29.6391686,10.6102871 L26.7467988,5.58329882 L23.3230684,6.59053176 C21.9773144,5.35334193 20.3769662,4.42816442 18.6353396,3.88050824 L17.8025029,0.440969412 L12.0177719,0.440969412 Z"/>
      <path fill="url(#gogs-a)" stroke="#BE3529" stroke-linecap="round" stroke-width=".661" d="M12.0177719,0.220875294 L11.1753914,3.69959059 C9.43867081,4.25322392 7.84421857,5.18263924 6.50458452,6.42223059 L3.10730946,5.42284235 L0.214945708,10.4498212 L2.79065878,12.9165271 C2.59572402,13.7950451 2.49595708,14.6921277 2.49309504,15.5921553 C2.49834093,16.5167635 2.60585081,17.4379304 2.81364972,18.3387341 L0.249212186,20.7941176 L3.14157763,25.8210965 L6.56530592,24.8138635 C7.91114532,26.0512661 9.51165125,26.976598 11.2534718,27.5243247 L12.0863085,30.9634212 L17.8706029,30.9634212 L18.7129834,27.4851482 C20.449707,26.931516 22.0441622,26.0021006 23.3837987,24.7625082 L26.7810713,25.7614588 L29.6734322,20.73448 L27.0977149,18.2682165 C27.292681,17.3895571 27.3924485,16.4923277 27.3952799,15.5921553 C27.3900021,14.6676903 27.2824921,13.7466688 27.0747242,12.8460047 L29.6391686,10.3901929 L26.7467988,5.36320471 L23.3230684,6.37043765 C21.9773144,5.13324781 20.3769662,4.2080703 18.6353396,3.66041412 L17.8025029,0.220875294 L12.0177719,0.220875294 Z"/>
      <path fill="#FFF" d="M14.9444057,6.32124706 C9.84192453,6.32119529 5.70552515,10.4719482 5.70558377,15.5921553 C5.70552515,20.7123529 9.84192453,24.8631059 14.9444057,24.8630541 C17.837598,24.8563247 20.5605363,23.4898165 22.3015448,21.1710588 L22.3099392,21.1760941 L22.3581206,21.0925412 C22.7890478,20.5124188 23.1508176,19.8836706 23.4360343,19.2191247 L17.626575,15.8531482 C17.6351382,15.7664988 17.6394198,15.6794871 17.6395839,15.5924188 C17.6395755,14.0988471 16.4329909,12.8880753 14.9445891,12.8880565 C13.4561868,12.8880753 12.2496022,14.0988471 12.2495853,15.5924188 C12.2496022,17.0859906 13.4561868,18.2967624 14.9445891,18.2967812 C15.497807,18.29584 16.0372427,18.1235341 16.4896666,17.8040471 L19.9775934,19.8250259 C18.7314487,21.3228659 16.8890328,22.1911012 14.9445891,22.1968376 C11.3096926,22.1968188 8.36303979,19.2399294 8.3630229,15.5924188 C8.36303979,11.9449082 11.3096926,8.98801882 14.9445891,8.98800941 C15.7157219,8.99224471 16.480081,9.13287059 17.2027806,9.40281882 C17.405813,9.51156235 17.6338087,9.56861176 17.8655818,9.56865882 C18.625022,9.56872 19.2406824,8.96982118 19.2406238,8.23105882 C19.2399673,7.75270588 18.9069823,7.30736 18.4805711,7.06910588 C18.4805711,7.06910588 18.2650067,6.96243765 18.189604,6.93307294 C17.1552459,6.53031059 16.0540891,6.32817882 14.944597,6.32151059 L14.9444057,6.32124706 Z"/>
      <g transform="translate(5.628 6.118)">
        <mask id="gogs-c" fill="#fff">
          <use xlink:href="#gogs-b"/>
        </mask>
        <path stroke="#7F231C" stroke-linecap="round" stroke-width=".661" d="M9.35527171,0.374178824 C4.25279101,0.374112941 0.114035104,4.59699765 0.116449778,9.64508706 C0.118747682,14.6931671 4.25279054,18.9160376 9.35527171,18.9159859 C12.248464,18.9092565 14.9717765,17.5312988 16.7124108,15.2239906 L16.7208052,15.2290259 L16.7689866,15.1454729 C17.19982,14.5682212 17.561851,13.9314824 17.8469003,13.2720565 L12.037441,9.90608 C12.0458588,9.82389176 12.0504359,9.72785882 12.0504499,9.64535059 C12.0478706,8.23020706 10.8438569,6.94100706 9.35545508,6.94098824 C7.86705279,6.94100706 6.6579058,8.23020706 6.66045132,9.64535059 C6.66303059,11.0604988 7.86705279,12.3496988 9.35545508,12.3497129 C9.90867019,12.3487718 10.4485809,12.1620141 10.9005326,11.8569788 L14.3884594,13.8779576 C13.1433769,15.3432894 11.299888,16.2443624 9.35545508,16.2497694 C5.7205586,16.2497553 2.77770343,13.17664 2.77388891,9.64535059 C2.77009034,6.11406588 5.7205586,3.04095529 9.35545508,3.04094118 C10.1265776,3.04564706 10.8905156,3.19900235 11.6136466,3.45575059 C11.8167297,3.56294118 12.0442686,3.63398118 12.2764478,3.62159059 C13.0372194,3.58088471 13.6499957,3.07028235 13.6514898,2.28399059 C13.6518373,1.77490353 13.3179027,1.35863059 12.8914371,1.12203765 C12.8914371,1.12203765 12.6759022,1.01446588 12.60047,0.986004706 C11.5657048,0.595698824 10.4649364,0.381694118 9.35546305,0.374442353 L9.35527171,0.374178824 Z" mask="url(#gogs-c)"/>
      </g>
      <path stroke="#BE3529" stroke-linecap="round" stroke-width=".661" d="M14.9444057,6.32124706 C9.84192453,6.32119529 5.70552515,10.4719482 5.70558377,15.5921553 C5.70552515,20.7123529 9.84192453,24.8631059 14.9444057,24.8630541 C17.837598,24.8563247 20.5605363,23.4898165 22.3015448,21.1710588 L22.3099392,21.1760941 L22.3581206,21.0925412 C22.7890478,20.5124188 23.1508176,19.8836706 23.4360343,19.2191247 L17.626575,15.8531482 C17.6351382,15.7664988 17.6394198,15.6794871 17.6395839,15.5924188 C17.6395755,14.0988471 16.4329909,12.8880753 14.9445891,12.8880565 C13.4561868,12.8880753 12.2496022,14.0988471 12.2495853,15.5924188 C12.2496022,17.0859906 13.4561868,18.2967624 14.9445891,18.2967812 C15.497807,18.29584 16.0372427,18.1235341 16.4896666,17.8040471 L19.9775934,19.8250259 C18.7314487,21.3228659 16.8890328,22.1911012 14.9445891,22.1968376 C11.3096926,22.1968188 8.36303979,19.2399294 8.3630229,15.5924188 C8.36303979,11.9449082 11.3096926,8.98801882 14.9445891,8.98800941 C15.7157219,8.99224471 16.480081,9.13287059 17.2027806,9.40281882 C17.405813,9.51156235 17.6338087,9.56861176 17.8655818,9.56865882 C18.625022,9.56872 19.2406824,8.96982118 19.2406238,8.23105882 C19.2399673,7.75270588 18.9069823,7.30736 18.4805711,7.06910588 C18.4805711,7.06910588 18.2650067,6.96243765 18.189604,6.93307294 C17.1552459,6.53031059 16.0540891,6.32817882 14.944597,6.32151059 L14.9444057,6.32124706 Z"/>
    </g>
  </g>
</svg>
