<svg xmlns="http://www.w3.org/2000/svg" xmlns:xlink="http://www.w3.org/1999/xlink" width="24" height="24" viewBox="0 0 24 24">
  <defs>
    <circle id="harbor-a" cx="12" cy="12" r="9"/>
    <linearGradient id="harbor-c" x1="0%" y1="50.007%" y2="50.007%">
      <stop offset="0%" stop-color="#60B932"/>
      <stop offset="28.178%" stop-color="#60B932"/>
      <stop offset="100%" stop-color="#367C34"/>
    </linearGradient>
    <linearGradient id="harbor-d" x1="0%" y1="49.995%" y2="49.995%">
      <stop offset="0%" stop-color="#60B932"/>
      <stop offset="28.178%" stop-color="#60B932"/>
      <stop offset="96.81%" stop-color="#367C34"/>
    </linearGradient>
    <linearGradient id="harbor-e" x1=".001%" y1="49.99%" y2="49.99%">
      <stop offset="0%" stop-color="#60B932"/>
      <stop offset="28.178%" stop-color="#60B932"/>
      <stop offset="100%" stop-color="#367C34"/>
    </linearGradient>
    <linearGradient id="harbor-f" x1=".001%" x2="100.001%" y1="49.989%" y2="49.989%">
      <stop offset="0%" stop-color="#60B932"/>
      <stop offset="28.178%" stop-color="#60B932"/>
      <stop offset="100%" stop-color="#367C34"/>
    </linearGradient>
    <linearGradient id="harbor-g" x1="0%" y1="49.992%" y2="49.992%">
      <stop offset="0%" stop-color="#60B932"/>
      <stop offset="28.178%" stop-color="#60B932"/>
      <stop offset="100%" stop-color="#367C34"/>
    </linearGradient>
    <linearGradient id="harbor-h" x1=".641%" x2="93.148%" y1="99.546%" y2="10.089%">
      <stop offset="0%" stop-color="#4596D8"/>
      <stop offset="20%" stop-color="#4596D8"/>
      <stop offset="100%" stop-color="#FFF"/>
    </linearGradient>
    <linearGradient id="harbor-i" x1="-.067%" x2="105.038%" y1=".98%" y2="64.52%">
      <stop offset="0%" stop-color="#4194D7"/>
      <stop offset="20%" stop-color="#4194D7"/>
      <stop offset="100%" stop-color="#FFF"/>
    </linearGradient>
    <linearGradient id="harbor-j" x1=".316%" x2="100.171%" y1="102.843%" y2="41.369%">
      <stop offset="0%" stop-color="#4194D7"/>
      <stop offset="33.264%" stop-color="#4496D8"/>
      <stop offset="100%" stop-color="#FFF"/>
    </linearGradient>
  </defs>
  <g fill="none">
    <path fill="#696566" d="M12,24 C5.372583,24 0,18.627417 0,12 C0,5.372583 5.372583,0 12,0 C18.627417,0 24,5.372583 24,12 C24,18.627417 18.627417,24 12,24 Z M12,23 C18.0751322,23 23,18.0751322 23,12 C23,5.92486775 18.0751322,1 12,1 C5.92486775,1 1,5.92486775 1,12 C1,18.0751322 5.92486775,23 12,23 Z"/>
    <mask id="harbor-b" fill="#fff">
      <use xlink:href="#harbor-a"/>
    </mask>
    <use fill="#FFF" opacity="0" xlink:href="#harbor-a"/>
    <g mask="url(#harbor-b)">
      <g transform="translate(6)">
        <polyline fill="url(#harbor-c)" points="6.129 21.829 .466 19.353 .151 22.889 6.378 24.852 6.129 21.829"/>
        <path fill="url(#harbor-d)" d="M1.57460811,8.15102034 L4.75505976,8.15102034 L4.75505976,10.8428478 L4.00032969,10.8428478 L4.00032969,9.69307743 C4.00032969,9.23531572 3.62627179,8.86422654 3.16484799,8.86422654 C2.70342419,8.86422654 2.3293663,9.23531572 2.3293663,9.69307743 L2.3293663,10.8428478 L1.57460811,10.8428478 L1.57460811,8.15102034 Z M0.939161339,14.046706 L5.65776378,16.1095604 L5.33243409,12.1619094 L5.94997961,12.1619094 L5.94997961,10.8428478 L5.49178276,10.8428478 L5.49178276,8.15102034 L5.94997961,8.15102034 L5.94997961,7.37726378 L3.40508386,4.90682415 L3.40508386,4.73300853 C3.40459294,4.60176024 3.29720588,4.49562005 3.16490669,4.49562005 C3.03260751,4.49562005 2.92522045,4.60176024 2.92472953,4.73300853 L2.92472953,4.90682415 L0.379719685,7.37726378 L0.379719685,8.1510187 L0.838000866,8.1510187 L0.838000866,10.8428478 L0.379721339,10.8428478 L0.379721339,12.1619094 L1.10727047,12.1619094 L0.939164646,14.0467028 L0.939161339,14.046706 Z"/>
        <polyline fill="url(#harbor-e)" points=".663 17.145 5.933 19.449 5.854 18.489 .742 16.255 .663 17.145"/>
        <polyline fill="url(#harbor-f)" points=".525 18.694 6.071 21.119 5.992 20.159 .604 17.804 .525 18.694"/>
        <polyline fill="url(#harbor-g)" points=".88 14.706 .801 15.596 5.795 17.779 5.716 16.82 .88 14.706"/>
        <path fill="url(#harbor-h)" d="M17.5730943,2.6028773 C16.8484871,1.74297251 16.0248077,0.970263797 15.1189054,0.300557743 C14.9890046,0.204716207 14.8569229,0.112127625 14.724021,0.0206200787 L12.8631234,1.94066437 L6.07065354,8.948604 L15.4237361,4.14660269 L17.8217046,2.91557743 C17.7387413,2.81134514 17.6587843,2.7046752 17.5730943,2.60287894"/>
        <path fill="url(#harbor-i)" d="M20.9109286,11.6066109 C20.9095628,11.4438451 20.8997391,11.2831923 20.8929165,11.1217028 L18.2354211,10.9325148 L6.07065354,10.0663812 L18.004818,14.1739239 L20.5135838,15.0374016 C20.520952,15.0078904 20.5294115,14.9789239 20.5365069,14.9491158 C20.7863818,13.8902785 20.912925,12.8064869 20.913652,11.719019 C20.913652,11.6813599 20.9111965,11.6442421 20.9109236,11.6066109"/>
        <path fill="url(#harbor-j)" d="M20.519315,8.41498688 C20.2613187,7.34601032 19.8783947,6.31057335 19.3783205,5.32970636 L16.826164,6.1432628 L6.25485827,9.51348917 L17.9671602,9.11786745 L20.6483972,9.02722605 C20.6085468,8.82217356 20.5678928,8.61722769 20.5193166,8.41498852"/>
      </g>
    </g>
  </g>
</svg>
