<svg xmlns="http://www.w3.org/2000/svg" width="24" height="24" viewBox="0 0 24 24">
  <g fill="#264970">
    <path d="M12,24 C5.372583,24 0,18.627417 0,12 C0,5.372583 5.372583,0 12,0 C18.627417,0 24,5.372583 24,12 C24,18.627417 18.627417,24 12,24 Z M12,23 C18.0751322,23 23,18.0751322 23,12 C23,5.92486775 18.0751322,1 12,1 C5.92486775,1 1,5.92486775 1,12 C1,18.0751322 5.92486775,23 12,23 Z"/>
    <path d="M8.57394797,5.92589738 C8.00186682,5.92589738 7.53867801,6.34387435 7.53867801,6.86204817 C7.53867801,7.37894031 8.00186682,7.79842513 8.57394797,7.79842513 C9.14636289,7.79842513 9.60913449,7.37894031 9.60913449,6.86204817 C9.60913449,6.34387435 9.14644634,5.92589738 8.57394797,5.92589738 M15.3752552,5.92589738 C14.8029238,5.92589738 14.340319,6.34387435 14.340319,6.86204817 C14.340319,7.37894031 14.8029238,7.79842513 15.3752552,7.79842513 C15.9460013,7.79842513 16.4102749,7.37894031 16.4102749,6.86204817 C16.4102749,6.34387435 15.9460013,5.92657592 15.3752552,5.92589738 M11.9745599,5.07169843 C11.4025622,5.07169843 10.9393734,5.4896 10.9393734,6.00792461 C10.9393734,6.52481675 11.4024787,6.94430157 11.9745599,6.94430157 C12.5469748,6.94430157 13.009663,6.52481675 13.009663,6.00792461 C13.009663,5.4896 12.5468914,5.07169843 11.9744764,5.07169843 M17.8226211,8.53455916 C17.7659688,8.49558746 17.6967335,8.4744794 17.6255301,8.4744712 C17.5865625,8.4744712 17.5470942,8.48087958 17.5098789,8.49384712 C16.8089627,8.73608377 16.0970321,8.91996649 15.4473495,9.0567288 C15.3148429,9.08462408 15.2078698,9.17358743 15.1634784,9.28034346 C14.6901096,10.4518702 13.4813629,11.5674555 12.2132052,12.7358911 C12.1623053,12.7795435 12.0910455,12.8371435 11.9749771,12.8371435 C11.859159,12.8371435 11.7885668,12.7813529 11.736749,12.7358911 C10.4687582,11.5674555 9.26001145,10.4557152 8.78647579,9.28411309 C8.74208442,9.17743246 8.63502781,9.0885445 8.5027716,9.06049843 C7.85267179,8.92373613 7.13907232,8.73412356 6.43890707,8.4920377 C6.40186936,8.47926589 6.36256555,8.47269997 6.32292212,8.47266178 C6.25274705,8.47266178 6.18474149,8.49256545 6.12733312,8.53222199 C6.0390118,8.59323675 5.99150639,8.69092254 6.00150196,8.79096963 C6.10889234,9.76519372 6.53494928,10.7176293 7.30387107,11.7156021 C8.02664921,12.6539393 8.96938154,13.5224628 9.88082297,14.3623372 C11.5601849,15.9101487 13.1466754,17.3718618 13.2858573,19.0669152 C13.2984798,19.2199621 13.4395895,19.338319 13.609447,19.3383288 L15.5825262,19.3383288 C15.6713295,19.3382575 15.756227,19.3053326 15.8174566,19.2472181 C15.8786861,19.1891037 15.9109061,19.1108695 15.9066165,19.0307267 C15.8445353,17.8974241 15.3725016,16.7624628 14.4635635,15.5614576 C14.2730645,15.3096461 14.0690478,15.0646199 13.8556855,14.8248712 C13.7689889,14.7272377 13.8052863,14.6059309 13.8715396,14.544712 C13.9371253,14.4840963 14.0029614,14.4236314 14.0692981,14.3623372 C14.9807395,13.5224628 15.9233884,12.6539393 16.64625,11.7156021 C17.4150884,10.7174785 17.8409784,9.77069738 17.9484522,8.79662408 C17.9591329,8.6987644 17.9099853,8.5948733 17.8226211,8.53455916 M9.85770942,15.6808796 C9.81098168,15.6367749 9.74247546,15.5917654 9.62732493,15.5917654 C9.48004908,15.5917654 9.39268488,15.6837445 9.35964169,15.7292817 C8.52972349,16.8703497 8.10107984,17.947334 8.04183573,19.0295958 C8.0377638,19.1099869 8.06998482,19.1884278 8.13111911,19.2469529 C8.19284362,19.3051086 8.2780832,19.3380923 8.36726113,19.3383288 L10.3369192,19.3383288 C10.5071188,19.3376603 10.6483091,19.2191724 10.6615936,19.0658597 C10.704483,18.5442178 10.8842179,18.0213696 11.2114791,17.4719079 C11.3249607,17.2818429 11.2367621,17.1032377 11.1715101,17.0269403 C10.8469192,16.6454534 10.4492327,16.2385592 9.85770942,15.6808796"/>
    <path d="M11.9768128,9.40790785 C12.5951211,9.40790785 12.9537565,9.37435812 13.0797546,9.37435812 C13.2324542,9.37435812 13.3782281,9.48737173 13.3782281,9.64554555 C13.3782281,9.69168586 13.3661289,9.72470785 13.3541967,9.75388482 C13.2721728,9.95194136 12.8984342,10.6646283 12.202608,11.2759874 C12.1245059,11.3445948 12.0360569,11.3574115 11.975144,11.3574115 L11.9744764,11.3574115 C11.9136469,11.3574115 11.8252814,11.3445948 11.7472628,11.2759874 C11.0513531,10.6646283 10.6775311,9.95194136 10.5957575,9.75380942 C10.5836584,9.72470785 10.5715592,9.69168586 10.5715592,9.64554555 C10.5715592,9.48737173 10.7175834,9.37435812 10.870283,9.37435812 C10.9962811,9.37435812 11.3546662,9.40790785 11.9728076,9.40790785 L11.9768963,9.40790785"/>
  </g>
</svg>
