<svg xmlns="http://www.w3.org/2000/svg" width="20" height="20" viewBox="0 0 20 20">
  <defs>
    <radialGradient id="nexus-a" cy="0%" r="84.134%" fx="50%" fy="0%" gradientTransform="matrix(0 1 -1.60998 0 .5 -.5)">
      <stop offset="0%" stop-color="#A8E8B9"/>
      <stop offset="55.536%" stop-color="#278D43"/>
      <stop offset="100%" stop-color="#0B501E"/>
    </radialGradient>
    <linearGradient id="nexus-b" x1="66.346%" x2="50.37%" y1="0%" y2="97.735%">
      <stop offset="0%" stop-color="#2A9D48"/>
      <stop offset="100%" stop-color="#1B8036"/>
    </linearGradient>
    <radialGradient id="nexus-c" cx="88.914%" cy="29.596%" r="79.636%" fx="88.914%" fy="29.596%" gradientTransform="matrix(-.84493 .53487 -.86113 -1.36033 1.895 .223)">
      <stop offset="0%" stop-color="#A8E8B9"/>
      <stop offset="50.573%" stop-color="#278D43"/>
      <stop offset="100%" stop-color="#0B501E"/>
    </radialGradient>
    <radialGradient id="nexus-d" cx="21.852%" cy="30.761%" r="79.813%" fx="21.852%" fy="30.761%" gradientTransform="rotate(37.691 .493 .401) scale(1 1.60998)">
      <stop offset="0%" stop-color="#A8E8B9"/>
      <stop offset="55.536%" stop-color="#278D43"/>
      <stop offset="100%" stop-color="#0B501E"/>
    </radialGradient>
    <linearGradient id="nexus-e" x1="12.874%" y1="15.496%" y2="100%">
      <stop offset="0%" stop-color="#2A9D48"/>
      <stop offset="100%" stop-color="#1B8036"/>
    </linearGradient>
    <linearGradient id="nexus-f" x1="95.048%" x2="7.146%" y1="12.369%" y2="88.922%">
      <stop offset="0%" stop-color="#2A9D48"/>
      <stop offset="100%" stop-color="#1B8036"/>
    </linearGradient>
    <linearGradient id="nexus-g" x1="93.819%" x2="7.511%" y1="91.464%" y2="8.216%">
      <stop offset="0%" stop-color="#2A9D48"/>
      <stop offset="100%" stop-color="#1B8036"/>
    </linearGradient>
    <linearGradient id="nexus-h" x1="0%" x2="87.058%" y1="100%" y2="18.467%">
      <stop offset="0%" stop-color="#2A9D48"/>
      <stop offset="100%" stop-color="#1B8036"/>
    </linearGradient>
    <radialGradient id="nexus-i" cx="100%" cy="63.471%" r="89.312%" fx="100%" fy="63.471%" gradientTransform="rotate(-157.801 .962 .828) scale(1 1.60998)">
      <stop offset="0%" stop-color="#A8E8B9"/>
      <stop offset="55.536%" stop-color="#278D43"/>
      <stop offset="100%" stop-color="#0B501E"/>
    </radialGradient>
    <radialGradient id="nexus-j" cx="24.44%" cy="75.903%" r="78.654%" fx="24.44%" fy="75.903%" gradientTransform="matrix(.77124 -.63651 1.02473 1.24173 -.722 -.028)">
      <stop offset="0%" stop-color="#A8E8B9"/>
      <stop offset="55.536%" stop-color="#278D43"/>
      <stop offset="100%" stop-color="#0B501E"/>
    </radialGradient>
  </defs>
  <g fill="none">
    <path fill="#56A86D" d="M10,20 C4.4771525,20 0,15.5228475 0,10 C0,4.4771525 4.4771525,0 10,0 C15.5228475,0 20,4.4771525 20,10 C20,15.5228475 15.5228475,20 10,20 Z M10,19.1666667 C15.0626102,19.1666667 19.1666667,15.0626102 19.1666667,10 C19.1666667,4.93738979 15.0626102,0.833333333 10,0.833333333 C4.93738979,0.833333333 0.833333333,4.93738979 0.833333333,10 C0.833333333,15.0626102 4.93738979,19.1666667 10,19.1666667 Z"/>
    <g transform="matrix(1 0 0 -1 3.46 16)">
      <path fill="url(#nexus-a)" d="M6.2763354,12.272344 C5.91300748,12.1658543 5.87026301,11.666536 6.21221871,11.4890532 C6.47580955,11.3517999 6.82488932,11.5671457 6.82488932,11.8605839 C6.82251463,12.1634879 6.56367317,12.3599022 6.2763354,12.272344 Z"/>
      <path fill="url(#nexus-b)" d="M6.05029661,10.7164519 C6.0225505,10.6910939 6.01561397,10.625163 6.02948703,10.5059803 C6.0607014,10.2600073 6.0711062,10.2397209 6.17862238,10.2498641 C6.26879725,10.2574715 6.27226551,10.2625431 6.27226551,10.4222988 C6.27573377,10.6581285 6.24798766,10.7367384 6.16474933,10.7468816 C6.12313016,10.7519532 6.07457446,10.7367384 6.05029661,10.7164519 Z" transform="scale(-1 1) rotate(-4 0 190.37)"/>
      <path fill="url(#nexus-c)" d="M0.629777996,10.1187132 C-0.0945895713,9.90640452 -0.179809285,8.91091272 0.501948425,8.55706492 C1.02746999,8.28342262 1.72343099,8.71275795 1.72343099,9.29778631 C1.71869656,9.90168655 1.20264385,10.2932781 0.629777996,10.1187132 Z"/>
      <path fill="url(#nexus-d)" d="M11.7394514,10.1290344 C11.1940781,9.96918809 11.1299166,9.21968654 11.643209,8.95327603 C12.038872,8.74725191 12.5628581,9.07049665 12.5628581,9.51096202 C12.5592935,9.96563595 12.1707596,10.2604636 11.7394514,10.1290344 Z"/>
      <g transform="matrix(1 0 0 -1 3.064 9.857)">
        <polygon fill="#3EB25B" points=".017 2.249 3.374 4.487 6.684 2.249 3.374 .01"/>
        <polygon fill="#2C9B48" points="3.384 7.907 3.384 4.482 .019 2.249 .019 5.676"/>
        <polygon fill="#138432" points="6.682 5.682 6.682 2.248 3.384 4.48 3.384 7.907"/>
      </g>
      <path fill="url(#nexus-e)" d="M10.5022072,8.44738611 C10.3033468,8.15179472 10.2652091,7.98950925 10.3605532,7.87938697 C10.4014149,7.83301969 10.4450008,7.86779515 10.5594137,8.03008062 C10.7855153,8.34885565 10.8291011,8.44738611 10.8045841,8.58648794 C10.7718947,8.77775296 10.7065159,8.74877341 10.5022072,8.44738611 Z" transform="rotate(-15 10.81 8.36)"/>
      <path fill="url(#nexus-f)" d="M2.144982,8.72148452 C2.1050287,8.68001316 2.11133711,8.50227879 2.15549603,8.39563816 C2.17442128,8.34824233 2.27115033,8.18235691 2.36787939,8.02239597 C2.55082347,7.72024754 2.60339361,7.71432306 2.61811325,7.96907566 C2.62231886,8.05794285 2.57815995,8.16458347 2.42255233,8.42526056 C2.22488861,8.75703139 2.19755214,8.78665379 2.144982,8.72148452 Z" transform="rotate(25 2.368 8.268)"/>
      <path fill="url(#nexus-g)" d="M2.70636606,3.68925309 C2.40424416,3.59364695 1.93135771,3.39626653 1.8919505,3.3500055 C1.84597543,3.29449226 1.97076491,3.2204746 2.11525799,3.2204746 C2.27945468,3.2204746 3.10700597,3.55972219 3.10700597,3.62448764 C3.10700597,3.71700971 2.89683421,3.75093447 2.70636606,3.68925309 Z" transform="rotate(23 2.495 3.72)"/>
      <path fill="url(#nexus-h)" d="M10.1573782,4.14711475 C10.1437346,4.08251267 10.1382772,3.99852997 10.149192,3.95976872 C10.1819366,3.83056457 10.7358665,2.77755072 10.7713398,2.77755072 C10.817728,2.77755072 10.8695737,2.94551612 10.8586588,3.06179986 C10.8477439,3.19746422 10.2883567,4.26339848 10.2310536,4.26339848 C10.2037664,4.26339848 10.1710218,4.21171682 10.1573782,4.14711475 Z" transform="rotate(18 10.643 3.52)"/>
      <path fill="url(#nexus-i)" d="M1.24442389,2.96864059 C0.70057614,2.80924141 0.636594052,2.06183636 1.14845075,1.79617106 C1.54300696,1.59072323 2.06552734,1.91306379 2.06552734,2.35229709 C2.06197278,2.8056992 1.6745257,3.09970214 1.24442389,2.96864059 Z"/>
      <path fill="url(#nexus-j)" d="M11.7418789,2.95773431 C10.8354336,2.69206901 10.728793,1.44639393 11.581918,1.00361843 C12.2395351,0.661205377 13.1104336,1.19843965 13.1104336,1.93049515 C13.1045091,2.68616534 12.4587409,3.17617023 11.7418789,2.95773431 Z"/>
    </g>
  </g>
</svg>
