<svg xmlns="http://www.w3.org/2000/svg" width="16" height="16" viewBox="0 0 16 16">
  <g fill="none">
    <path fill="#CB3837" d="M8,16 C3.581722,16 0,12.418278 0,8 C0,3.581722 3.581722,0 8,0 C12.418278,0 16,3.581722 16,8 C16,12.418278 12.418278,16 8,16 Z M8,15.3333333 C12.0500882,15.3333333 15.3333333,12.0500882 15.3333333,8 C15.3333333,3.94991183 12.0500882,0.666666667 8,0.666666667 C3.94991183,0.666666667 0.666666667,3.94991183 0.666666667,8 C0.666666667,12.0500882 3.94991183,15.3333333 8,15.3333333 Z"/>
    <g transform="translate(3.6 4)">
      <path fill="#CB3837" d="M0,0 L8.8,0 L8.8,8 L0,8 L0,0 Z M1.6,6.93333333 L4.26666667,6.93333333 L4.26666667,2.93333333 L5.6,2.93333333 L5.6,6.93333333 L6.93333333,6.93333333 L6.93333333,1.6 L1.6,1.6 L1.6,6.93333333 Z"/>
      <polygon fill="#FFF" points="1.6 6.933 4.267 6.933 4.267 2.933 5.6 2.933 5.6 6.933 6.933 6.933 6.933 1.6 1.6 1.6"/>
    </g>
  </g>
</svg>
