<svg xmlns="http://www.w3.org/2000/svg" width="16" height="16" viewBox="0 0 16 16">
  <g fill="none">
    <path fill="#006EB0" d="M8,16 C3.581722,16 0,12.418278 0,8 C0,3.581722 3.581722,0 8,0 C12.418278,0 16,3.581722 16,8 C16,12.418278 12.418278,16 8,16 Z M8,15.3333333 C12.0500882,15.3333333 15.3333333,12.0500882 15.3333333,8 C15.3333333,3.94991183 12.0500882,0.666666667 8,0.666666667 C3.94991183,0.666666667 0.666666667,3.94991183 0.666666667,8 C0.666666667,12.0500882 3.94991183,15.3333333 8,15.3333333 Z"/>
    <g transform="translate(3.04 3.92)">
      <polygon fill="#E9E9FF" points="2.754 2.738 4.11 3.232 4.11 4.826 2.754 4.332"/>
      <path fill="#CCC" d="M2.76919273,4.32127754 L4.09413818,4.80361852 L4.09413818,3.24299882 L2.76919273,2.76065785 L2.76919273,4.32127754 Z M2.75895315,2.72380441 L4.11502587,3.21747714 L4.12526545,3.23210182 L4.12526545,4.82584727 L4.10437776,4.84047195 L2.74830504,4.34679922 L2.73806545,4.33217455 L2.73806545,2.73842909 L2.75895315,2.72380441 Z"/>
      <polygon fill="#353564" points="1.378 3.239 1.378 4.833 2.754 4.332 2.754 2.738"/>
      <path fill="#CCC" d="M1.36206545,3.23936 L1.37230486,3.22473538 L2.74830486,2.72378993 L2.76919273,2.73841455 L2.76919273,4.33216 L2.75895332,4.34678462 L1.38295332,4.84773007 L1.36206545,4.83310545 L1.36206545,3.23936 Z M1.39319273,3.25025686 L1.39319273,4.81087642 L2.73806545,4.32126314 L2.73806545,2.76064358 L1.39319273,3.25025686 Z"/>
      <polygon fill="#AFAFDE" points="1.378 4.833 2.734 5.327 4.11 4.826 2.754 4.332"/>
      <path fill="#CCC" d="M1.37230453,4.84765722 L1.37230623,4.81840761 L2.75895226,4.31760773 L4.11487954,4.811135 L4.11488059,4.84038462 L2.7282318,5.34132995 L1.37230453,4.84765722 Z M2.72823214,5.31208084 L4.06421498,4.825704 L2.75895195,4.34685784 L1.42297031,4.83309302 L2.72823214,5.31208084 Z"/>
      <polygon fill="#F7F7F4" points="1.378 3.239 2.734 3.733 4.11 3.232 2.754 2.738"/>
      <path fill="#CCC" d="M1.37230592,3.253985 L1.37230486,3.22473538 L2.75895365,2.72379005 L4.11488092,3.21746278 L4.11487922,3.24671239 L2.72823319,3.74751227 L1.37230592,3.253985 Z M1.42297048,3.239416 L2.7282335,3.71826216 L4.06421515,3.23202698 L2.75895332,2.75303916 L1.42297048,3.239416 Z"/>
      <polygon fill="#FFF" points="2.734 3.733 2.734 5.327 4.11 4.826 4.11 3.232"/>
      <path fill="#CCC" d="M2.71796364,3.73288727 L2.72820441,3.71826216 L4.10420441,3.21746216 L4.12509091,3.23208727 L4.12509091,4.82583273 L4.11485013,4.84045784 L2.73885013,5.34125784 L2.71796364,5.32663273 L2.71796364,3.73288727 Z M2.74909091,5.3044059 L4.09396364,4.81493478 L4.09396364,3.2543141 L2.74909091,3.74378522 L2.74909091,5.3044059 Z"/>
      <polygon fill="#EFEEEA" points="1.378 3.239 2.734 3.733 2.734 5.327 1.378 4.833"/>
      <path fill="#CCC" d="M1.39319273,4.82220776 L2.71799273,5.3044054 L2.71799273,3.74378497 L1.39319273,3.26158733 L1.39319273,4.82220776 Z M1.38295226,3.224735 L2.73887954,3.71826227 L2.74912,3.73288727 L2.74912,5.32663273 L2.72823319,5.34125773 L1.37230592,4.84773045 L1.36206545,4.83310545 L1.36206545,3.23936 L1.38295226,3.224735 Z"/>
      <polygon fill="#E9E9FF" points="4.115 1.624 5.472 2.118 5.472 3.712 4.115 3.218"/>
      <path fill="#CCC" d="M4.13105455,1.64645924 L4.13105455,3.20708008 L5.456,3.68927894 L5.456,2.1286581 L4.13105455,1.64645924 Z M4.12081358,1.60960754 L5.47688631,2.10313482 L5.48712727,2.11776 L5.48712727,3.71150545 L5.46624097,3.72613064 L4.11016824,3.23260336 L4.09992727,3.21797818 L4.09992727,1.62423273 L4.12081358,1.60960754 Z"/>
      <polygon fill="#353564" points="2.739 2.125 2.739 3.719 4.115 3.218 4.115 1.624"/>
      <path fill="#CCC" d="M2.72392727,2.12500364 L2.73416805,2.11037852 L4.11016805,1.60957852 L4.13105455,1.62420364 L4.13105455,3.21794909 L4.12081377,3.2325742 L2.74481377,3.7333742 L2.72392727,3.71874909 L2.72392727,2.12500364 Z M2.75505455,3.69652226 L4.09992727,3.20705114 L4.09992727,1.64643046 L2.75505455,2.13590158 L2.75505455,3.69652226 Z"/>
      <polygon fill="#AFAFDE" points="2.739 3.719 4.095 4.212 5.472 3.711 4.115 3.218"/>
      <path fill="#CCC" d="M2.73416774,3.73338864 L2.73416805,3.70413852 L4.12081358,3.20333845 L5.47688631,3.69686573 L5.476886,3.7261162 L4.09009501,4.22691591 L2.73416774,3.73338864 Z M4.09009582,4.19766562 L5.42621219,3.7114328 L4.12081377,3.23258875 L2.7848381,3.71882176 L4.09009582,4.19766562 Z"/>
      <polygon fill="#F7F7F4" points="2.739 2.125 4.095 2.619 5.472 2.118 4.115 1.624"/>
      <path fill="#CCC" d="M2.73416774,2.13962864 L2.73416805,2.11037852 L4.12081358,1.60957845 L5.47688631,2.10310573 L5.476886,2.1323562 L4.09009501,2.63315591 L2.73416774,2.13962864 Z M4.09009582,2.60390562 L5.42621219,2.1176728 L4.12081377,1.63882875 L2.7848381,2.12506176 L4.09009582,2.60390562 Z"/>
      <polygon fill="#FFF" points="4.095 2.619 4.095 4.212 5.472 3.712 5.472 2.118"/>
      <path fill="#CCC" d="M4.07982545,2.61854545 L4.09006673,2.60392016 L5.46621218,2.10312016 L5.48709818,2.11774545 L5.48709818,3.71163636 L5.47685691,3.72626166 L4.10071145,4.22706166 L4.07982545,4.21243636 L4.07982545,2.61854545 Z M4.11095273,4.19021034 L5.45597091,3.70073802 L5.45597091,2.13997148 L4.11095273,2.6294438 L4.11095273,4.19021034 Z"/>
      <polygon fill="#EFEEEA" points="2.739 2.125 4.095 2.619 4.095 4.212 2.739 3.719"/>
      <path fill="#CCC" d="M2.75505455,3.70799685 L4.07985455,4.19019449 L4.07985455,2.62942861 L2.75505455,2.14723097 L2.75505455,3.70799685 Z M2.74481408,2.11037864 L4.10074136,2.60390591 L4.11098182,2.61853091 L4.11098182,4.21242182 L4.09009501,4.22704682 L2.73416774,3.73351954 L2.72392727,3.71889455 L2.72392727,2.12500364 L2.74481408,2.11037864 Z"/>
      <polygon fill="#E9E9FF" points="1.392 4.843 2.748 5.337 2.748 6.931 1.392 6.437"/>
      <path fill="#CCC" d="M1.40725818,4.86548775 L1.40725818,6.42610704 L2.73205818,6.90844679 L2.73205818,5.34782751 L1.40725818,4.86548775 Z M1.3970191,4.82863369 L2.75294638,5.32230641 L2.76318545,5.33693091 L2.76318545,6.93067636 L2.74229726,6.94530086 L1.38636999,6.45162813 L1.37613091,6.43700364 L1.37613091,4.84325818 L1.3970191,4.82863369 Z"/>
      <polygon fill="#353564" points=".016 5.344 .016 6.938 1.392 6.437 1.392 4.843"/>
      <path fill="#CCC" d="M0,5.34411636 L0.0102407755,5.32949125 L1.38624078,4.82869125 L1.40712727,4.84331636 L1.40712727,6.43706182 L1.3968865,6.45168693 L0.0208864972,6.95248693 L0,6.93786182 L0,5.34411636 Z M0.0311272727,5.35501431 L0.0311272727,6.91563499 L1.376,6.42616387 L1.376,4.86554319 L0.0311272727,5.35501431 Z"/>
      <polygon fill="#AFAFDE" points=".016 6.938 1.372 7.431 2.748 6.931 1.392 6.437"/>
      <path fill="#CCC" d="M0.0102414713,6.95248718 L0.010241769,6.92323634 L1.39717772,6.42243682 L2.75310499,6.91596409 L2.75310468,6.9452142 L1.36645965,7.44601446 L0.0102414713,6.95248718 Z M1.36645896,7.41676398 L2.70243461,6.93053098 L1.39717641,6.45168729 L0.060919365,6.93791991 L1.36645896,7.41676398 Z"/>
      <polygon fill="#F7F7F4" points=".016 5.344 1.372 5.838 2.748 5.337 1.392 4.843"/>
      <path fill="#CCC" d="M0.0102409672,5.35874155 L0.0102412723,5.32949107 L1.39703226,4.82869136 L2.75295954,5.32221864 L2.75295922,5.35146875 L1.36631369,5.85226882 L0.0102409672,5.35874155 Z M1.3663135,5.82301852 L2.70228918,5.33678552 L1.39703145,4.85794166 L0.0609150875,5.34417447 L1.3663135,5.82301852 Z"/>
      <polygon fill="#FFF" points="1.372 5.838 1.372 7.431 2.748 6.931 2.748 5.337"/>
      <path fill="#CCC" d="M1.35610182,5.83757091 L1.36634396,5.8229453 L2.74234396,5.32229075 L2.76322909,5.33691636 L2.76322909,6.93066182 L2.75298695,6.94528743 L1.37698695,7.44594197 L1.35610182,7.43131636 L1.35610182,5.83757091 Z M1.38722909,7.40909174 L2.73210182,6.91976279 L2.73210182,5.35914098 L1.38722909,5.84846994 L1.38722909,7.40909174 Z"/>
      <polygon fill="#EFEEEA" points=".016 6.938 1.372 7.431 1.372 5.838 .016 5.344"/>
      <path fill="#CCC" d="M0.0311272727,5.36634288 L0.0311272727,6.92696372 L1.35607273,7.40916257 L1.35607273,5.84854174 L0.0311272727,5.36634288 Z M0.0208863056,5.32949118 L1.37695903,5.82301845 L1.3872,5.83764364 L1.3872,7.43138909 L1.36631369,7.44601427 L0.0102409672,6.952487 L0,6.93786182 L0,5.34411636 L0.0208863056,5.32949118 Z"/>
      <polygon fill="#E9E9FF" points="2.754 5.339 4.11 5.832 4.11 7.426 2.754 6.932"/>
      <path fill="#CCC" d="M2.76919273,6.9214219 L4.09413818,7.40362076 L4.09413818,5.84299992 L2.76919273,5.36080106 L2.76919273,6.9214219 Z M2.75895176,5.32394936 L4.11502449,5.81747664 L4.12526545,5.83210182 L4.12526545,7.42584727 L4.10437915,7.44047246 L2.74830642,6.94694518 L2.73806545,6.93232 L2.73806545,5.33857455 L2.75895176,5.32394936 Z"/>
      <polygon fill="#353564" points="1.378 5.839 1.378 7.433 2.754 6.932 2.754 5.339"/>
      <path fill="#CCC" d="M1.36206545,5.83928727 L1.3723076,5.82466166 L2.7483076,5.32400712 L2.76919273,5.33863273 L2.76919273,6.93237818 L2.75895059,6.94700379 L1.38295059,7.44765834 L1.36206545,7.43303273 L1.36206545,5.83928727 Z M1.39319273,5.8501863 L1.39319273,7.41080811 L2.73806545,6.92147915 L2.73806545,5.36085735 L1.39319273,5.8501863 Z"/>
      <polygon fill="#AFAFDE" points="1.378 7.433 2.734 7.927 4.11 7.426 2.754 6.932"/>
      <path fill="#CCC" d="M1.37230453,7.44765722 L1.3723076,7.41840712 L2.75895088,6.91775268 L4.11487815,7.4111345 L4.11488059,7.44038462 L2.7282318,7.94132995 L1.37230453,7.44765722 Z M2.72823214,7.91208084 L4.06420902,7.42570617 L2.75895059,6.94700379 L1.4229761,7.43309514 L2.72823214,7.91208084 Z"/>
      <polygon fill="#F7F7F4" points="1.378 5.839 2.734 6.333 4.11 5.832 2.754 5.339"/>
      <path fill="#CCC" d="M1.37230453,5.85391177 L1.3723076,5.82466166 L2.75895088,5.32400722 L4.11487815,5.81738904 L4.11488059,5.84663916 L2.7282318,6.34758449 L1.37230453,5.85391177 Z M2.72823214,6.31833538 L4.06420902,5.83196071 L2.75895059,5.35325834 L1.4229761,5.83934969 L2.72823214,6.31833538 Z"/>
      <polygon fill="#FFF" points="2.734 6.333 2.734 7.927 4.11 7.426 4.11 5.832"/>
      <path fill="#CCC" d="M2.71796364,6.33288727 L2.72820441,6.31826216 L4.10420441,5.81746216 L4.12509091,5.83208727 L4.12509091,7.42583273 L4.11485013,7.44045784 L2.73885013,7.94125784 L2.71796364,7.92663273 L2.71796364,6.33288727 Z M2.74909091,7.9044059 L4.09396364,7.41493478 L4.09396364,5.8543141 L2.74909091,6.34378522 L2.74909091,7.9044059 Z"/>
      <polygon fill="#EFEEEA" points="1.378 5.839 2.734 6.333 2.734 7.927 1.378 7.433"/>
      <path fill="#CCC" d="M1.39319273,7.42213613 L2.71799273,7.90447588 L2.71799273,6.3438566 L1.39319273,5.86151685 L1.39319273,7.42213613 Z M1.38295365,5.82466278 L2.73888092,6.31833551 L2.74912,6.33296 L2.74912,7.92670545 L2.7282318,7.94132995 L1.37230453,7.44765722 L1.36206545,7.43303273 L1.36206545,5.83928727 L1.38295365,5.82466278 Z"/>
      <polygon fill="#E9E9FF" points="2.754 3.729 4.11 4.223 4.11 5.816 2.754 5.323"/>
      <path fill="#CCC" d="M2.76919273,5.31183645 L4.09413818,5.7940353 L4.09413818,4.23341446 L2.76919273,3.75121561 L2.76919273,5.31183645 Z M2.75895176,3.71436391 L4.11502449,4.20789118 L4.12526545,4.22251636 L4.12526545,5.81626182 L4.10437915,5.830887 L2.74830642,5.33735973 L2.73806545,5.32273455 L2.73806545,3.72898909 L2.75895176,3.71436391 Z"/>
      <polygon fill="#353564" points="1.378 4.23 1.378 5.824 2.754 5.323 2.754 3.729"/>
      <path fill="#CCC" d="M1.36206545,4.22990545 L1.37230486,4.21528084 L2.74830486,3.71433538 L2.76919273,3.72896 L2.76919273,5.32270545 L2.75895195,5.33733057 L1.38295195,5.83813057 L1.36206545,5.82350545 L1.36206545,4.22990545 Z M1.39319273,5.80127863 L2.73806545,5.31180751 L2.73806545,3.75118903 L1.39319273,4.24080232 L1.39319273,5.80127863 Z"/>
      <polygon fill="#AFAFDE" points="1.378 5.824 2.734 6.317 4.11 5.816 2.754 5.323"/>
      <path fill="#CCC" d="M1.37230453,5.83814449 L1.37230623,5.80889489 L2.75895226,5.308095 L4.11487954,5.80162227 L4.11488059,5.83087189 L2.7282318,6.33181722 L1.37230453,5.83814449 Z M2.72823214,6.30256811 L4.06421498,5.81619127 L2.75895195,5.33734511 L1.42297031,5.82358029 L2.72823214,6.30256811 Z"/>
      <polygon fill="#F7F7F4" points="1.378 4.23 2.734 4.723 4.11 4.222 2.754 3.729"/>
      <path fill="#CCC" d="M1.37230592,4.24453045 L1.37230486,4.21528084 L2.75895226,3.714335 L4.11487954,4.20786227 L4.11488059,4.23711189 L2.72823319,4.73805773 L1.37230592,4.24453045 Z M1.42297044,4.22996147 L2.72823214,4.70880811 L4.06421502,4.22243126 L2.75895332,3.74358462 L1.42297044,4.22996147 Z"/>
      <polygon fill="#FFF" points="2.734 4.723 2.734 6.317 4.11 5.816 4.11 4.223"/>
      <path fill="#CCC" d="M2.71796364,4.72337455 L2.72820441,4.70874943 L4.10420441,4.20794943 L4.12509091,4.22257455 L4.12509091,5.81632 L4.11485013,5.83094511 L2.73885013,6.33174511 L2.71796364,6.31712 L2.71796364,4.72337455 Z M2.74909091,6.29489317 L4.09396364,5.80542205 L4.09396364,4.24480137 L2.74909091,4.73427249 L2.74909091,6.29489317 Z"/>
      <polygon fill="#EFEEEA" points="1.378 4.23 2.734 4.723 2.734 6.317 1.378 5.824"/>
      <path fill="#CCC" d="M1.39319273,5.81260885 L2.71799273,6.29494861 L2.71799273,4.73433043 L1.39319273,4.25213279 L1.39319273,5.81260885 Z M1.38295226,4.21528046 L2.73887954,4.70880773 L2.74912,4.72343273 L2.74912,6.31717818 L2.7282318,6.33180268 L1.37230453,5.83812995 L1.36206545,5.82350545 L1.36206545,4.22990545 L1.38295226,4.21528046 Z"/>
      <polygon fill="#E9E9FF" points="8.201 5.942 9.557 6.435 9.557 4.841 8.201 4.348"/>
      <path fill="#CCC" d="M8.21684364,5.9308619 L9.54178909,6.41306076 L9.54178909,4.85243992 L8.21684364,4.37024106 L8.21684364,5.9308619 Z M8.20660267,4.33338936 L9.5626754,4.82691664 L9.57291636,4.84154182 L9.57291636,6.43528727 L9.55203006,6.44991246 L8.19595733,5.95638518 L8.18571636,5.94176 L8.18571636,4.34801455 L8.20660267,4.33338936 Z"/>
      <polygon fill="#353564" points="6.825 4.849 6.825 6.443 8.201 5.942 8.201 4.348"/>
      <path fill="#CCC" d="M6.80973091,4.8488 L6.81997168,4.83417489 L8.19597168,4.33337489 L8.21685818,4.348 L8.21685818,5.94174545 L8.20661741,5.95637057 L6.83061741,6.45717057 L6.80973091,6.44254545 L6.80973091,4.8488 Z M6.84085818,6.42031863 L8.18573091,5.93084751 L8.18573091,4.37022683 L6.84085818,4.85969795 L6.84085818,6.42031863 Z"/>
      <polygon fill="#AFAFDE" points="6.825 6.443 8.181 6.936 9.557 6.435 8.201 5.942"/>
      <path fill="#CCC" d="M6.81996999,6.45716995 L6.81997168,6.42792034 L8.20661772,5.92712046 L9.56254499,6.42064773 L9.56254604,6.44989734 L8.17589726,6.95084268 L6.81996999,6.45716995 Z M8.17589759,6.92159357 L9.51188043,6.43521673 L8.20661741,5.95637057 L6.87063576,6.44260575 L8.17589759,6.92159357 Z"/>
      <polygon fill="#F7F7F4" points="6.825 4.849 8.181 5.343 9.557 4.842 8.201 4.348"/>
      <path fill="#CCC" d="M6.8199686,4.86342399 L6.81997168,4.83417489 L8.20661772,4.333375 L9.56254499,4.82690227 L9.56254741,4.85615139 L8.17589587,5.35724217 L6.8199686,4.86342399 Z M8.17589623,5.32799406 L9.51188622,4.84147339 L8.20661741,4.36262511 L6.87062981,4.84886246 L8.17589623,5.32799406 Z"/>
      <polygon fill="#FFF" points="8.181 5.342 8.181 6.936 9.557 6.435 9.557 4.842"/>
      <path fill="#CCC" d="M8.16568727,5.34254545 L8.17592668,5.32792084 L9.55192668,4.82697538 L9.57281455,4.8416 L9.57281455,6.43534545 L9.56257377,6.44997057 L8.18657377,6.95077057 L8.16568727,6.93614545 L8.16568727,5.34254545 Z M8.19681455,6.91391863 L9.54168727,6.42444751 L9.54168727,4.86382903 L8.19681455,5.35344232 L8.19681455,6.91391863 Z"/>
      <polygon fill="#EFEEEA" points="6.825 4.849 8.181 5.343 8.181 6.936 6.825 6.443"/>
      <path fill="#CCC" d="M6.84085818,6.43164885 L8.16565818,6.91398861 L8.16565818,5.35351368 L6.84085818,4.87103181 L6.84085818,6.43164885 Z M6.83062049,4.83417601 L8.18654776,5.32799419 L8.19678545,5.34261818 L8.19678545,6.93621818 L8.17589726,6.95084268 L6.81996999,6.45716995 L6.80973091,6.44254545 L6.80973091,4.8488 L6.83062049,4.83417601 Z"/>
      <polygon fill="#E9E9FF" points="6.839 4.843 8.195 5.337 8.195 6.93 6.839 6.437"/>
      <path fill="#CCC" d="M6.86277818,6.42002594 L8.17099636,6.89632851 L8.17099636,5.35335588 L6.86277818,4.87705331 L6.86277818,6.42002594 Z M6.84708464,4.8205667 L8.20301191,5.31423943 L8.21870545,5.33665455 L8.21870545,6.9304 L8.1866899,6.95281511 L6.83076263,6.45914239 L6.81506909,6.43672727 L6.81506909,4.84298182 L6.84708464,4.8205667 Z"/>
      <polygon fill="#353564" points="5.463 5.344 5.463 6.938 6.839 6.437 6.839 4.843"/>
      <path fill="#CCC" d="M5.43906909,5.34382545 L5.45476733,5.32140863 L6.83076733,4.82075409 L6.86277818,4.84317091 L6.86277818,6.43677091 L6.84708204,6.45918697 L5.47108204,6.95998697 L5.43906909,6.93757091 L5.43906909,5.34382545 Z M5.48677818,6.90350362 L6.81506909,6.42006751 L6.81506909,4.87723481 L5.48677818,5.36053051 L5.48677818,6.90350362 Z"/>
      <polygon fill="#AFAFDE" points="5.463 6.938 6.819 7.431 8.195 6.93 6.839 6.437"/>
      <path fill="#CCC" d="M5.45476263,6.95998602 L5.45476523,6.91515485 L6.83076523,6.41435485 L6.84708252,6.41435502 L8.20300979,6.9078823 L8.2030114,6.95271348 L6.8270114,7.45365894 L6.8106899,7.45365875 L5.45476263,6.95998602 Z M5.53266137,6.93757496 L6.8188512,7.40585733 L8.12511304,6.93030069 L6.83892337,6.46215635 L5.53266137,6.93757496 Z"/>
      <polygon fill="#F7F7F4" points="5.463 5.344 6.819 5.837 8.195 5.337 6.839 4.843"/>
      <path fill="#CCC" d="M5.45476263,5.36624057 L5.45476523,5.32140939 L6.83076523,4.82060939 L6.84708252,4.82060957 L8.20300979,5.31413684 L8.2030114,5.35896803 L6.8270114,5.85991348 L6.8106899,5.8599133 L5.45476263,5.36624057 Z M6.8188512,5.81211187 L8.12511304,5.33655524 L6.83892337,4.86841089 L5.53266137,5.3438295 L6.8188512,5.81211187 Z"/>
      <polygon fill="#FFD242" points="6.819 5.837 6.819 7.431 8.195 6.93 8.195 5.337"/>
      <path fill="#CCC" d="M6.79504,5.83744 L6.81073823,5.81502318 L8.18673823,5.31436863 L8.21874909,5.33678545 L8.21874909,6.93038545 L8.20305295,6.95280152 L6.82705295,7.45360152 L6.79504,7.43118545 L6.79504,5.83744 Z M6.84274909,7.39711817 L8.17104,6.91368206 L8.17104,5.37084936 L6.84274909,5.85414505 L6.84274909,7.39711817 Z"/>
      <polygon fill="#EFEEEA" points="5.463 5.344 6.819 5.837 6.819 7.431 5.463 6.938"/>
      <path fill="#CCC" d="M5.48677818,5.37789695 L5.48677818,6.92086958 L6.79499636,7.39717214 L6.79499636,5.85419951 L5.48677818,5.37789695 Z M5.47108464,5.32141034 L6.82701191,5.81508307 L6.84270545,5.83749818 L6.84270545,7.43124364 L6.8106899,7.45365875 L5.45476263,6.95998602 L5.43906909,6.93757091 L5.43906909,5.34382545 L5.47108464,5.32141034 Z"/>
      <g transform="translate(2.618)">
        <path fill="#FFF" d="M5.06506182,6.04011636 C5.21095273,5.98702545 5.32935273,6.06978909 5.32935273,6.22513455 C5.32935273,6.38062545 5.21095273,6.54964364 5.06506182,6.60273455 C4.91902545,6.65582545 4.80077091,6.57291636 4.80077091,6.41771636 C4.80077091,6.26222545 4.91902545,6.09320727 5.06506182,6.04011636"/>
        <polygon fill="#E9E9FF" points="2.859 5.338 4.215 5.832 4.215 7.426 2.859 6.932"/>
        <path fill="#CCC" d="M2.87493818,6.9212627 L4.19959273,7.40345913 L4.19959273,5.84283912 L2.87493818,5.36064269 L2.87493818,6.9212627 Z M2.86469822,5.32378973 L4.22048004,5.817317 L4.23072,5.83194182 L4.23072,7.42568727 L4.20983269,7.44031209 L2.85405087,6.94678482 L2.84381091,6.93216 L2.84381091,5.33841455 L2.86469822,5.32378973 Z"/>
        <polygon fill="#353564" points="1.483 5.839 1.483 7.433 2.859 6.932 2.859 5.338"/>
        <path fill="#CCC" d="M1.46760727,5.83912727 L1.47784941,5.82450166 L2.85384941,5.32384712 L2.87473455,5.33847273 L2.87473455,6.93221818 L2.8644924,6.94684379 L1.4884924,7.44749834 L1.46760727,7.43287273 L1.46760727,5.83912727 Z M1.49873455,5.8500263 L1.49873455,7.41064811 L2.84360727,6.92131915 L2.84360727,5.36069735 L1.49873455,5.8500263 Z"/>
        <polygon fill="#AFAFDE" points="1.483 7.433 2.839 7.927 4.215 7.426 2.859 6.932"/>
        <path fill="#CCC" d="M1.47784685,7.44749741 L1.47784991,7.41824694 L2.86463815,6.91759268 L4.22056542,7.4109745 L4.22056786,7.44022462 L2.83391958,7.94117013 L1.47784685,7.44749741 Z M2.83391941,7.91192084 L4.16989628,7.42554617 L2.86463736,6.94684397 L1.52852219,7.43293513 L2.83391941,7.91192084 Z"/>
        <polygon fill="#F7F7F4" points="1.483 5.839 2.839 6.333 4.215 5.832 2.859 5.338"/>
        <path fill="#CCC" d="M1.47784685,5.85375195 L1.47784991,5.82450148 L2.86463815,5.32384722 L4.22056542,5.81722904 L4.22056786,5.84647916 L2.83391958,6.34742468 L1.47784685,5.85375195 Z M2.83391941,6.31817538 L4.16989628,5.83180072 L2.86463736,5.35309852 L1.52852219,5.83918967 L2.83391941,6.31817538 Z"/>
        <polygon fill="#FFD242" points="2.839 6.333 2.839 7.926 4.215 7.426 4.215 5.832"/>
        <path fill="#CCC" d="M2.82365091,6.33272727 L2.83389168,6.31810216 L4.20989168,5.81730216 L4.23077818,5.83192727 L4.23077818,7.42567273 L4.22053741,7.44029784 L2.84453741,7.94109784 L2.82365091,7.92647273 L2.82365091,6.33272727 Z M2.85477818,7.9042459 L4.19965091,7.41477478 L4.19965091,5.8541541 L2.85477818,6.34362522 L2.85477818,7.9042459 Z"/>
        <polygon fill="#EFEEEA" points="1.483 5.839 2.839 6.333 2.839 7.927 1.483 7.433"/>
        <path fill="#CCC" d="M1.49873455,7.42197573 L2.82368,7.9043167 L2.82368,6.343697 L1.49873455,5.86135603 L1.49873455,7.42197573 Z M1.48849496,5.82450259 L2.84456769,6.31817532 L2.85480727,6.3328 L2.85480727,7.92654545 L2.83391958,7.94117013 L1.47784685,7.44749741 L1.46760727,7.43287273 L1.46760727,5.83912727 L1.48849496,5.82450259 Z"/>
        <polygon fill="#E9E9FF" points="1.497 5.834 2.853 6.327 2.853 7.921 1.497 7.427"/>
        <path fill="#CCC" d="M1.51287273,7.41657826 L2.83781818,7.89877712 L2.83781818,6.33815628 L1.51287273,5.85595743 L1.51287273,7.41657826 Z M1.50263176,5.81910573 L2.85870449,6.312633 L2.86894545,6.32725818 L2.86894545,7.92100364 L2.84805915,7.93562882 L1.49198642,7.44210155 L1.48174545,7.42747636 L1.48174545,5.83373091 L1.50263176,5.81910573 Z"/>
        <polygon fill="#353564" points=".121 6.334 .121 7.928 1.497 7.428 1.497 5.834"/>
        <path fill="#CCC" d="M0.105745455,6.33442909 L0.115987595,6.31980348 L1.4919876,5.81914894 L1.51287273,5.83377455 L1.51287273,7.42752 L1.50263059,7.44214561 L0.126630587,7.94280016 L0.105745455,7.92817455 L0.105745455,6.33442909 Z M0.136872727,6.34532812 L0.136872727,7.90594993 L1.48174545,7.41662097 L1.48174545,5.85599916 L0.136872727,6.34532812 Z"/>
        <polygon fill="#AFAFDE" points=".121 7.928 1.477 8.422 2.853 7.921 1.497 7.428"/>
        <path fill="#CCC" d="M0.115984532,7.94281359 L0.115987595,7.91356348 L1.50263088,7.41290904 L2.85855815,7.90629086 L2.85856059,7.93554098 L1.4719118,8.43648631 L0.115984532,7.94281359 Z M1.47191214,8.4072372 L2.80788902,7.92086253 L1.50263059,7.44216016 L0.166656097,7.92825151 L1.47191214,8.4072372 Z"/>
        <polygon fill="#F7F7F4" points=".121 6.334 1.477 6.828 2.853 6.327 1.497 5.834"/>
        <path fill="#CCC" d="M0.115984532,6.34905359 L0.115987595,6.31980348 L1.50263088,5.81914904 L2.85855815,6.31253086 L2.85856059,6.34178098 L1.4719118,6.84272631 L0.115984532,6.34905359 Z M1.47191214,6.8134772 L2.80788902,6.32710253 L1.50263059,5.84840016 L0.166656097,6.33449151 L1.47191214,6.8134772 Z"/>
        <polygon fill="#FFF" points="1.477 6.828 1.477 8.422 2.853 7.921 2.853 6.327"/>
        <path fill="#CCC" d="M1.46164364,6.82804364 L1.47188441,6.81341852 L2.84788441,6.31261852 L2.86877091,6.32724364 L2.86877091,7.92098909 L2.85853013,7.9356142 L1.48253013,8.4364142 L1.46164364,8.42178909 L1.46164364,6.82804364 Z M1.49277091,8.39956226 L2.83764364,7.91009114 L2.83764364,6.34947046 L1.49277091,6.83894158 L1.49277091,8.39956226 Z"/>
        <polygon fill="#EFEEEA" points=".121 6.334 1.477 6.828 1.477 8.422 .121 7.928"/>
        <path fill="#CCC" d="M0.136872727,7.91727794 L1.46167273,8.3996177 L1.46167273,6.83899842 L0.136872727,6.35665866 L0.136872727,7.91727794 Z M0.12663365,6.3198046 L1.48256092,6.81347732 L1.4928,6.82810182 L1.4928,8.42184727 L1.4719118,8.43647177 L0.115984532,7.94279904 L0.105745455,7.92817455 L0.105745455,6.33442909 L0.12663365,6.3198046 Z"/>
        <polygon fill="#E9E9FF" points="5.583 2.738 6.939 3.232 6.939 4.826 5.583 4.332"/>
        <path fill="#CCC" d="M5.59866182,4.32111754 L6.92360727,4.80345852 L6.92360727,3.24283882 L5.59866182,2.76049785 L5.59866182,4.32111754 Z M5.58842224,2.72364441 L6.94449496,3.21731714 L6.95473455,3.23194182 L6.95473455,4.82568727 L6.93384685,4.84031195 L5.57777413,4.34663922 L5.56753455,4.33201455 L5.56753455,2.73826909 L5.58842224,2.72364441 Z"/>
        <polygon fill="#353564" points="4.207 3.239 4.207 4.833 5.583 4.332 5.583 2.738"/>
        <path fill="#CCC" d="M4.19154909,3.2392 L4.2017885,3.22457538 L5.5777885,2.72362993 L5.59867636,2.73825455 L5.59867636,4.332 L5.58843695,4.34662462 L4.21243695,4.84757007 L4.19154909,4.83294545 L4.19154909,3.2392 Z M4.22267636,4.81071642 L5.56754909,4.32110314 L5.56754909,2.76048358 L4.22267636,3.25009686 L4.22267636,4.81071642 Z"/>
        <polygon fill="#AFAFDE" points="4.207 4.833 5.563 5.327 6.939 4.826 5.583 4.332"/>
        <path fill="#CCC" d="M4.20178817,4.84749722 L4.20178987,4.81824761 L5.5884359,4.31744773 L6.94436317,4.810975 L6.94436423,4.84022462 L5.55771544,5.34116995 L4.20178817,4.84749722 Z M5.55771577,5.31192084 L6.89369861,4.825544 L5.58843559,4.34669784 L4.25245395,4.83293302 L5.55771577,5.31192084 Z"/>
        <polygon fill="#F7F7F4" points="4.207 3.239 5.563 3.733 6.939 3.232 5.583 2.738"/>
        <path fill="#CCC" d="M4.20178955,3.253825 L4.2017885,3.22457538 L5.58843729,2.72363005 L6.94436456,3.21730278 L6.94436286,3.24655239 L5.55771683,3.74735227 L4.20178955,3.253825 Z M5.55771714,3.71810216 L6.89369878,3.23186698 L5.58843695,2.75287916 L4.25245411,3.239256 L5.55771714,3.71810216 Z"/>
        <polygon fill="#FFD242" points="5.563 3.733 5.563 5.326 6.939 4.826 6.939 3.232"/>
        <path fill="#CCC" d="M5.54750545,3.73272727 L5.55774623,3.71810216 L6.93374623,3.21730216 L6.95463273,3.23192727 L6.95463273,4.82567273 L6.94439195,4.84029784 L5.56839195,5.34109784 L5.54750545,5.32647273 L5.54750545,3.73272727 Z M5.57863273,5.3042459 L6.92350545,4.81477478 L6.92350545,3.2541541 L5.57863273,3.74362522 L5.57863273,5.3042459 Z"/>
        <polygon fill="#EFEEEA" points="4.207 3.239 5.563 3.733 5.563 5.326 4.207 4.833"/>
        <path fill="#CCC" d="M4.22267636,4.82204776 L5.54747636,5.3042454 L5.54747636,3.74362497 L4.22267636,3.26142733 L4.22267636,4.82204776 Z M4.2124359,3.224575 L5.56836317,3.71810227 L5.57860364,3.73272727 L5.57860364,5.32647273 L5.55771683,5.34109773 L4.20178955,4.84757045 L4.19154909,4.83294545 L4.19154909,3.2392 L4.2124359,3.224575 Z"/>
        <polygon fill="#E9E9FF" points="5.583 1.129 6.939 1.622 6.939 3.216 5.583 2.722"/>
        <path fill="#CCC" d="M5.59866182,1.15091239 L5.59866182,2.71153099 L6.92360727,3.19372985 L6.92360727,1.63325336 L5.59866182,1.15091239 Z M5.58842224,1.11405896 L6.94449496,1.60773169 L6.95473455,1.62235636 L6.95473455,3.21595636 L6.93384824,3.23058155 L5.57777551,2.73705427 L5.56753455,2.72242909 L5.56753455,1.12868364 L5.58842224,1.11405896 Z"/>
        <polygon fill="#353564" points="4.207 1.63 4.207 3.223 5.583 2.723 5.583 1.129"/>
        <path fill="#CCC" d="M4.19154909,1.6296 L4.2017885,1.61497538 L5.5777885,1.11402993 L5.59867636,1.12865455 L5.59867636,2.72254545 L5.58843559,2.73717057 L4.21243559,3.23797057 L4.19154909,3.22334545 L4.19154909,1.6296 Z M4.22267636,3.20111863 L5.56754909,2.71164751 L5.56754909,1.15088358 L4.22267636,1.64049686 L4.22267636,3.20111863 Z"/>
        <polygon fill="#AFAFDE" points="4.207 3.223 5.563 3.717 6.939 3.216 5.583 2.723"/>
        <path fill="#CCC" d="M4.20178955,3.237985 L4.20178987,3.20873489 L5.5884359,2.707935 L6.94436317,3.20146227 L6.94436286,3.23071239 L5.55771683,3.73151227 L4.20178955,3.237985 Z M4.2524599,3.22341812 L5.55771714,3.70226216 L6.89369283,3.21602915 L5.58843559,2.73718511 L4.2524599,3.22341812 Z"/>
        <polygon fill="#FFC91D" points="4.207 1.63 5.563 2.123 6.939 1.622 5.583 1.129"/>
        <path fill="#CCC" d="M4.20178955,1.644225 L4.20178987,1.61497489 L5.5884359,1.114175 L6.94436317,1.60770227 L6.94436286,1.63695239 L5.55771683,2.13775227 L4.20178955,1.644225 Z M4.2524599,1.62965812 L5.55771714,2.10850216 L6.89369283,1.62226915 L5.58843559,1.14342511 L4.2524599,1.62965812 Z"/>
        <polygon fill="#FFD242" points="5.563 2.123 5.563 3.717 6.939 3.216 6.939 1.622"/>
        <path fill="#CCC" d="M5.54750545,2.12314182 L5.55774623,2.10851671 L6.93374623,1.60771671 L6.95463273,1.62234182 L6.95463273,3.21608727 L6.94439195,3.23071239 L5.56839195,3.73151239 L5.54750545,3.71688727 L5.54750545,2.12314182 Z M5.57863273,3.69466045 L6.92350545,3.20518933 L6.92350545,1.64456864 L5.57863273,2.13403977 L5.57863273,3.69466045 Z"/>
        <polygon fill="#EFEEEA" points="4.207 1.63 5.563 2.123 5.563 3.717 4.207 3.223"/>
        <path fill="#CCC" d="M4.22267636,3.21244776 L5.54747636,3.6946454 L5.54747636,2.13402497 L4.22267636,1.65182733 L4.22267636,3.21244776 Z M4.2124359,1.614975 L5.56836317,2.10850227 L5.57860364,2.12312727 L5.57860364,3.71687273 L5.55771683,3.73149773 L4.20178955,3.23797045 L4.19154909,3.22334545 L4.19154909,1.6296 L4.2124359,1.614975 Z"/>
        <polygon fill="#E9E9FF" points="4.221 3.234 5.577 3.727 5.577 5.321 4.221 4.827"/>
        <path fill="#CCC" d="M4.23672727,4.81650484 L5.56152727,5.29856036 L5.56152727,3.7379377 L4.23672727,3.25574006 L4.23672727,4.81650484 Z M4.22648681,3.21888773 L5.58241408,3.712415 L5.59265455,3.72704 L5.59265455,5.32078545 L5.57176912,5.33541096 L4.21584185,4.84202914 L4.2056,4.82740364 L4.2056,3.23351273 L4.22648681,3.21888773 Z"/>
        <polygon fill="#353564" points="2.845 3.734 2.845 5.328 4.221 4.827 4.221 3.233"/>
        <path fill="#CCC" d="M2.82961455,3.73442909 L2.83985396,3.71980447 L4.21585396,3.21885902 L4.23674182,3.23348364 L4.23674182,4.82737455 L4.22650104,4.84199966 L2.85050104,5.34279966 L2.82961455,5.32817455 L2.82961455,3.73442909 Z M2.86074182,5.30594772 L4.20561455,4.8164766 L4.20561455,3.25571267 L2.86074182,3.74532596 L2.86074182,5.30594772 Z"/>
        <polygon fill="#AFAFDE" points="2.845 5.328 4.201 5.822 5.577 5.321 4.221 4.827"/>
        <path fill="#CCC" d="M2.83985362,5.34281359 L2.83985532,5.31356398 L4.22649997,4.81276359 L5.58242724,5.30614541 L5.58243105,5.33539503 L4.1957809,5.83648631 L2.83985362,5.34281359 Z M2.89051936,5.3282494 L4.19577986,5.8072377 L5.53176394,5.32071918 L4.22650104,4.8420142 L2.89051936,5.3282494 Z"/>
        <polygon fill="#F7F7F4" points="2.845 3.734 4.201 4.228 5.577 3.727 4.221 3.233"/>
        <path fill="#CCC" d="M2.83985501,3.74905409 L2.83985396,3.71980447 L4.22650136,3.21885864 L5.58242863,3.71238591 L5.58242968,3.74163553 L4.19578228,4.24258136 L2.83985501,3.74905409 Z M4.19578123,4.21333175 L5.53176411,3.72695489 L4.22650241,3.24810825 L2.89051953,3.73448511 L4.19578123,4.21333175 Z"/>
        <polygon fill="#FFD242" points="4.201 4.228 4.201 5.822 5.577 5.321 5.577 3.727"/>
        <path fill="#CCC" d="M4.18557091,4.22797091 L4.19581032,4.21334629 L5.57181032,3.71240084 L5.59269818,3.72702545 L5.59269818,5.32077091 L5.58246014,5.33539503 L4.20646014,5.83648594 L4.18557091,5.82186182 L4.18557091,4.22797091 Z M4.21669818,5.79963058 L5.56157091,5.30987513 L5.56157091,3.74925449 L4.21669818,4.23886777 L4.21669818,5.79963058 Z"/>
        <polygon fill="#EFEEEA" points="2.845 3.734 4.201 4.228 4.201 5.822 2.845 5.328"/>
        <path fill="#CCC" d="M2.86059736,5.31727791 L4.18554182,5.79961852 L4.18554182,4.23885406 L2.86073979,3.75665568 L2.86059736,5.31727791 Z M2.85050136,3.71980409 L4.20642863,4.21333136 L4.21666909,4.22795636 L4.21666909,5.82184727 L4.1957814,5.83647195 L2.83970867,5.34279922 L2.82946909,5.32817313 L2.82961455,3.73442767 L2.85050136,3.71980409 Z"/>
        <polygon fill="#E9E9FF" points="4.221 1.624 5.577 2.118 5.577 3.711 4.221 3.218"/>
        <path fill="#CCC" d="M4.23672727,3.20692048 L5.56152727,3.68911812 L5.56152727,2.1284977 L4.23672727,1.64630006 L4.23672727,3.20692048 Z M4.22648681,1.60944773 L5.58241408,2.102975 L5.59265455,2.1176 L5.59265455,3.71134545 L5.57176774,3.72597045 L4.21584046,3.23244318 L4.2056,3.21781818 L4.2056,1.62407273 L4.22648681,1.60944773 Z"/>
        <polygon fill="#353564" points="2.845 2.125 2.845 3.719 4.221 3.218 4.221 1.624"/>
        <path fill="#CCC" d="M2.82961455,2.12484364 L2.83985532,2.11021852 L4.21585532,1.60941852 L4.23674182,1.62404364 L4.23674182,3.21778909 L4.22650104,3.2324142 L2.85050104,3.7332142 L2.82961455,3.71858909 L2.82961455,2.12484364 Z M2.86074182,3.69636226 L4.20561455,3.20689114 L4.20561455,1.64627046 L2.86074182,2.13574158 L2.86074182,3.69636226 Z"/>
        <polygon fill="#AFAFDE" points="2.845 3.719 4.201 4.212 5.577 3.711 4.221 3.218"/>
        <path fill="#CCC" d="M2.83985501,3.73322864 L2.83985532,3.70397852 L4.22650136,3.20317864 L5.58242863,3.69670591 L5.58242832,3.72595602 L4.19578228,4.22675591 L2.83985501,3.73322864 Z M2.89052536,3.71866176 L4.19578259,4.1975058 L5.53175828,3.71127278 L4.22650104,3.23242875 L2.89052536,3.71866176 Z"/>
        <polygon fill="#F7F7F4" points="2.845 2.125 4.201 2.618 5.577 2.118 4.221 1.624"/>
        <path fill="#CCC" d="M2.83985501,2.13946864 L2.83985532,2.11021852 L4.22650136,1.60941864 L5.58242863,2.10294591 L5.58242832,2.13219602 L4.19578228,2.63299591 L2.83985501,2.13946864 Z M4.19578259,2.6037458 L5.53175828,2.11751278 L4.22650104,1.63866875 L2.89052536,2.12490176 L4.19578259,2.6037458 Z"/>
        <polygon fill="#3775A9" points="4.201 2.618 4.201 4.212 5.577 3.711 5.577 2.118"/>
        <path fill="#CCC" d="M4.18557091,2.61838545 L4.19581168,2.60376034 L5.57181168,2.10296034 L5.59269818,2.11758545 L5.59269818,3.71147636 L5.58245741,3.72610148 L4.20645741,4.22690148 L4.18557091,4.21227636 L4.18557091,2.61838545 Z M4.21669818,2.6292834 L4.21669818,4.19004954 L5.56157091,3.70057842 L5.56157091,2.13981228 L4.21669818,2.6292834 Z"/>
        <polygon fill="#EFEEEA" points="2.845 2.125 4.201 2.618 4.201 4.212 2.845 3.719"/>
        <path fill="#CCC" d="M2.86059736,3.70783681 L4.18554182,4.1900353 L4.18554182,2.62926861 L2.86073979,2.14707023 L2.86059736,3.70783681 Z M2.85050136,2.11021864 L4.20642863,2.60374591 L4.21666909,2.61837091 L4.21666909,4.21226182 L4.19578279,4.226887 L2.83971006,3.73335973 L2.82946909,3.71873313 L2.82961455,2.12484222 L2.85050136,2.11021864 Z"/>
        <polygon fill="#E9E9FF" points="4.221 .014 5.577 .508 5.577 2.102 4.221 1.608"/>
        <path fill="#CCC" d="M4.23672727,0.0367000592 L4.23672727,1.59732048 L5.56152727,2.07951812 L5.56152727,0.518897699 L4.23672727,0.0367000592 Z M4.22648681,-0.000152271939 L5.58241408,0.493375001 L5.59265455,0.508 L5.59265455,2.10174545 L5.57176774,2.11637045 L4.21584046,1.62284318 L4.2056,1.60821818 L4.2056,0.0144727273 L4.22648681,-0.000152271939 Z"/>
        <polygon fill="#353564" points="2.845 .515 2.845 2.109 4.221 1.608 4.221 .014"/>
        <path fill="#CCC" d="M2.82961455,0.515258182 L2.83985532,0.500633069 L4.21585532,-0.000166931136 L4.23674182,0.0144581818 L4.23674182,1.60820364 L4.22650104,1.62282875 L2.85050104,2.12362875 L2.82961455,2.10900364 L2.82961455,0.515258182 Z M2.86074182,2.08677681 L4.20561455,1.59730569 L4.20561455,0.0366850083 L2.86074182,0.526156129 L2.86074182,2.08677681 Z"/>
        <polygon fill="#AFAFDE" points="2.845 2.109 4.201 2.603 5.577 2.102 4.221 1.608"/>
        <path fill="#CCC" d="M2.83985501,2.12362864 L2.83985532,2.09437852 L4.22650136,1.59357864 L5.58242863,2.08710591 L5.58242832,2.11635602 L4.19578228,2.61715591 L2.83985501,2.12362864 Z M4.19578259,2.5879058 L5.53175828,2.10167278 L4.22650104,1.62282875 L2.89052536,2.10906176 L4.19578259,2.5879058 Z"/>
        <polygon fill="#2F6491" points="2.845 .515 4.201 1.009 5.577 .508 4.221 .014"/>
        <path fill="#CCC" d="M2.83985501,0.529883181 L2.83985532,0.500633069 L4.22650136,-0.000166817393 L5.58242863,0.493360455 L5.58242832,0.522610568 L4.19578228,1.02341045 L2.83985501,0.529883181 Z M4.19578259,0.994160342 L5.53175828,0.50792733 L4.22650104,0.0290832948 L2.89052536,0.515316307 L4.19578259,0.994160342 Z"/>
        <polygon fill="#3775A9" points="4.201 1.009 4.201 2.603 5.577 2.102 5.577 .508"/>
        <path fill="#CCC" d="M4.18557091,1.0088 L4.19581168,0.994174887 L5.57181168,0.493374887 L5.59269818,0.508 L5.59269818,2.10174545 L5.58245741,2.11637057 L4.20645741,2.61717057 L4.18557091,2.60254545 L4.18557091,1.0088 Z M4.21669818,2.58031863 L5.56157091,2.09084751 L5.56157091,0.530226826 L4.21669818,1.01969795 L4.21669818,2.58031863 Z"/>
        <polygon fill="#EFEEEA" points="2.845 .515 4.201 1.009 4.201 2.603 2.845 2.109"/>
        <path fill="#CCC" d="M2.86073979,0.537484775 L2.86059736,2.0981059 L4.18554182,2.58030439 L4.18554182,1.01968315 L2.86073979,0.537484775 Z M2.85050136,0.500633183 L4.20642863,0.994160455 L4.21666909,1.00878545 L4.21666909,2.60253091 L4.19578279,2.61715609 L2.83971006,2.12362882 L2.82946909,2.10900222 L2.82961455,0.515256761 L2.85050136,0.500633183 Z"/>
        <polygon fill="#E9E9FF" points="2.859 3.729 4.215 4.222 4.215 5.816 2.859 5.323"/>
        <path fill="#CCC" d="M2.87493818,5.31167725 L4.19959273,5.79387367 L4.19959273,4.23325366 L2.87493818,3.75105724 L2.87493818,5.31167725 Z M2.86469822,3.71420428 L4.22048004,4.20773155 L4.23072,4.22235636 L4.23072,5.81610182 L4.20983269,5.83072663 L2.85405087,5.33719936 L2.84381091,5.32257455 L2.84381091,3.72882909 L2.86469822,3.71420428 Z"/>
        <polygon fill="#353564" points="1.483 4.23 1.483 5.823 2.859 5.323 2.859 3.729"/>
        <polygon stroke="#CCC" stroke-linejoin="bevel" stroke-width=".214" points="1.483 4.23 1.483 5.823 2.859 5.323 2.859 3.729"/>
        <polygon fill="#AFAFDE" points="1.483 5.823 2.839 6.317 4.215 5.816 2.859 5.323"/>
        <path fill="#CCC" d="M1.47784685,5.83798468 L1.47784855,5.80873471 L2.86463954,5.307935 L4.22056681,5.80146227 L4.22056786,5.83071189 L2.83391958,6.33165741 L1.47784685,5.83798468 Z M2.83391941,6.30240811 L4.16990224,5.81603128 L2.86463873,5.33718529 L1.5285164,5.82342028 L2.83391941,6.30240811 Z"/>
        <polygon fill="#F7F7F4" points="1.483 4.23 2.839 4.723 4.215 4.222 2.859 3.729"/>
        <path fill="#CCC" d="M1.47784824,4.24437064 L1.47784718,4.21512066 L2.86463954,3.714175 L4.22056681,4.20770227 L4.22056786,4.23695189 L2.83392097,4.73789791 L1.47784824,4.24437064 Z M2.83391941,4.70864811 L4.16990228,4.22227126 L2.86464009,3.7434248 L1.52851653,4.22980145 L2.83391941,4.70864811 Z"/>
        <polygon fill="#FFD242" points="2.839 4.723 2.839 6.317 4.215 5.816 4.215 4.222"/>
        <path fill="#CCC" d="M2.82365091,4.72321455 L2.83389168,4.70858943 L4.20989168,4.20778943 L4.23077818,4.22241455 L4.23077818,5.81616 L4.22053741,5.83078511 L2.84453741,6.33158511 L2.82365091,6.31696 L2.82365091,4.72321455 Z M2.85477818,6.29473317 L4.19965091,5.80526205 L4.19965091,4.24464137 L2.85477818,4.73411249 L2.85477818,6.29473317 Z"/>
        <polygon fill="#EFEEEA" points="1.483 4.23 2.839 4.723 2.839 6.317 1.483 5.823"/>
        <path fill="#CCC" d="M1.49873455,4.25197197 L1.49873455,5.81244845 L2.82368,6.29478942 L2.82368,4.73417083 L1.49873455,4.25197197 Z M1.48849358,4.21512027 L2.84456631,4.70864754 L2.85480727,4.72327273 L2.85480727,6.31701818 L2.83391958,6.33164286 L1.47784685,5.83797013 L1.46760727,5.82334545 L1.46760727,4.22974545 L1.48849358,4.21512027 Z"/>
        <polygon fill="#E9E9FF" points="2.859 2.119 4.215 2.613 4.215 4.206 2.859 3.713"/>
        <path fill="#CCC" d="M2.87493818,3.70187471 L4.19959273,4.18421325 L4.19959273,2.62373984 L2.87493818,2.1414013 L2.87493818,3.70187471 Z M2.86469961,2.1045466 L4.22048143,2.59821933 L4.23072,2.61284364 L4.23072,4.20644364 L4.2098313,4.22106795 L2.85404948,3.72739522 L2.84381091,3.71277091 L2.84381091,2.11917091 L2.86469961,2.1045466 Z"/>
        <polygon fill="#353564" points="1.483 2.62 1.483 4.214 2.859 3.713 2.859 2.119"/>
        <path fill="#CCC" d="M1.46760727,2.62016 L1.47784668,2.60553538 L2.85384668,2.10458993 L2.87473455,2.11921455 L2.87473455,3.71281455 L2.86449514,3.72743916 L1.48849514,4.22838462 L1.46760727,4.21376 L1.46760727,2.62016 Z M1.49873455,2.63105686 L1.49873455,4.19153097 L2.84360727,3.70191768 L2.84360727,2.14144358 L1.49873455,2.63105686 Z"/>
        <polygon fill="#AFAFDE" points="1.483 4.214 2.839 4.707 4.215 4.207 2.859 3.713"/>
        <path fill="#CCC" d="M1.47784685,4.22839922 L1.47784855,4.19914925 L2.86464092,3.69835005 L4.2205682,4.19202278 L4.2205665,4.22127239 L2.83391958,4.72207195 L1.47784685,4.22839922 Z M2.83392078,4.69282216 L4.16990236,4.206587 L2.86463873,3.72759984 L1.52851644,4.21383481 L2.83392078,4.69282216 Z"/>
        <polygon fill="#F7F7F4" points="1.483 2.62 2.839 3.114 4.215 2.613 2.859 2.119"/>
        <path fill="#CCC" d="M1.47784824,2.63478518 L1.47784718,2.6055352 L2.86464092,2.10459005 L4.2205682,2.59826278 L4.2205665,2.62751239 L2.83392097,3.12831246 L1.47784824,2.63478518 Z M2.83392078,3.09906216 L4.1699024,2.61282699 L2.86464009,2.13383934 L1.52851657,2.62021598 L2.83392078,3.09906216 Z"/>
        <polygon fill="#3775A9" points="2.839 3.114 2.839 4.707 4.215 4.207 4.215 2.613"/>
        <path fill="#CCC" d="M2.82365091,3.11370182 L2.83389168,3.09907671 L4.20989168,2.59827671 L4.23077818,2.61290182 L4.23077818,4.20664727 L4.22053741,4.22127239 L2.84453741,4.72207239 L2.82365091,4.70744727 L2.82365091,3.11370182 Z M2.85477818,4.68522045 L4.19965091,4.19574933 L4.19965091,2.63512864 L2.85477818,3.12459977 L2.85477818,4.68522045 Z"/>
        <polygon fill="#EFEEEA" points="1.483 2.62 2.839 3.114 2.839 4.707 1.483 4.214"/>
        <path fill="#CCC" d="M1.49873455,4.20300736 L2.82368,4.68520621 L2.82368,3.12458537 L1.49873455,2.64238652 L1.49873455,4.20300736 Z M1.48849358,2.60553482 L2.84456631,3.09906209 L2.85480727,3.11368727 L2.85480727,4.70743273 L2.83392097,4.72205791 L1.47784824,4.22853064 L1.46760727,4.21390545 L1.46760727,2.62016 L1.48849358,2.60553482 Z"/>
        <polygon fill="#E9E9FF" points="1.497 4.224 2.853 4.718 2.853 6.311 1.497 5.818"/>
        <path fill="#CCC" d="M1.51287273,5.80692008 L2.83781818,6.28911894 L2.83781818,4.728497 L1.51287273,4.24615603 L1.51287273,5.80692008 Z M1.50263315,4.20930259 L2.85870587,4.70297532 L2.86894545,4.7176 L2.86894545,6.31134545 L2.84805915,6.32597064 L1.49198642,5.83244336 L1.48174545,5.81781818 L1.48174545,4.22392727 L1.50263315,4.20930259 Z"/>
        <polygon fill="#353564" points=".121 4.725 .121 6.319 1.497 5.818 1.497 4.224"/>
        <path fill="#CCC" d="M0.105745455,4.72491636 L0.115984865,4.71029175 L1.49198486,4.20934629 L1.51287273,4.22397091 L1.51287273,5.81786182 L1.50263195,5.83248693 L0.126631952,6.33328693 L0.105745455,6.31866182 L0.105745455,4.72491636 Z M0.136872727,4.73581323 L0.136872727,6.29643499 L1.48174545,5.80696387 L1.48174545,4.24619994 L0.136872727,4.73581323 Z"/>
        <polygon fill="#AFAFDE" points=".121 6.319 1.477 6.812 2.853 6.311 1.497 5.818"/>
        <path fill="#CCC" d="M0.115985918,6.33328682 L0.11598623,6.30403671 L1.50263088,5.80323631 L2.85855815,6.29661813 L2.85856059,6.32586825 L1.47191319,6.82681409 L0.115985918,6.33328682 Z M1.47191214,6.79756447 L2.80788906,6.31118979 L1.50263195,5.83248693 L0.166656224,6.31871996 L1.47191214,6.79756447 Z"/>
        <polygon fill="#F7F7F4" points=".121 4.725 1.477 5.218 2.853 4.717 1.497 4.224"/>
        <path fill="#CCC" d="M0.115985918,4.73954136 L0.11598623,4.71029125 L1.50263088,4.20949086 L2.85855815,4.70287268 L2.85856059,4.7321228 L1.47191319,5.23306864 L0.115985918,4.73954136 Z M1.47191214,5.20381902 L2.80788906,4.71744433 L1.50263195,4.23874148 L0.166656224,4.7249745 L1.47191214,5.20381902 Z"/>
        <polygon fill="#3775A9" points="1.477 5.218 1.477 6.812 2.853 6.311 2.853 4.718"/>
        <path fill="#CCC" d="M1.46164364,5.21838545 L1.47188441,5.20376034 L2.84788441,4.70296034 L2.86877091,4.71758545 L2.86877091,6.31133091 L2.85853013,6.32595602 L1.48253013,6.82675602 L1.46164364,6.81213091 L1.46164364,5.21838545 Z M1.49277091,6.78990408 L2.83764364,6.30043296 L2.83764364,4.73981228 L1.49277091,5.2292834 L1.49277091,6.78990408 Z"/>
        <polygon fill="#2F6491" points=".121 4.725 1.477 5.218 1.477 6.812 .121 6.319"/>
        <path fill="#CCC" d="M0.136872727,4.7471437 L0.136872727,6.30776412 L1.46167273,6.78996176 L1.46167273,5.22934134 L0.136872727,4.7471437 Z M0.126632264,4.71029136 L1.48255954,5.20381864 L1.4928,5.21844364 L1.4928,6.81218909 L1.47191319,6.82681409 L0.115985918,6.33328682 L0.105745455,6.31866182 L0.105745455,4.72491636 L0.126632264,4.71029136 Z"/>
        <polygon fill="#E9E9FF" points="1.497 2.614 2.853 3.108 2.853 4.702 1.497 4.208"/>
        <path fill="#CCC" d="M1.51287273,4.19732008 L2.83781818,4.67951894 L2.83781818,3.1188981 L1.51287273,2.63669924 L1.51287273,4.19732008 Z M1.50263176,2.59984754 L2.85870449,3.09337482 L2.86894545,3.108 L2.86894545,4.70174545 L2.84805915,4.71637064 L1.49198642,4.22284336 L1.48174545,4.20821818 L1.48174545,2.61447273 L1.50263176,2.59984754 Z"/>
        <polygon fill="#353564" points=".121 3.115 .121 4.709 1.497 4.208 1.497 2.614"/>
        <path fill="#CCC" d="M0.105745455,3.11540364 L0.115984865,3.10077902 L1.49198486,2.59983357 L1.51287273,2.61445818 L1.51287273,4.20820364 L1.50263332,4.22282825 L0.126633317,4.72377371 L0.105745455,4.70914909 L0.105745455,3.11540364 Z M0.136872727,3.1263005 L0.136872727,4.68692006 L1.48174545,4.19730677 L1.48174545,2.63668722 L0.136872727,3.1263005 Z"/>
        <polygon fill="#AFAFDE" points=".121 4.709 1.477 5.203 2.853 4.702 1.497 4.208"/>
        <path fill="#CCC" d="M0.115985918,4.72377409 L0.115984865,4.69452447 L1.50263226,4.19357864 L2.85855954,4.68710591 L2.85856059,4.71635553 L1.47191319,5.21730136 L0.115985918,4.72377409 Z M1.47191214,5.18805175 L2.80789502,4.70167489 L1.50263332,4.22282825 L0.166650436,4.70920511 L1.47191214,5.18805175 Z"/>
        <polygon fill="#2F6491" points=".121 3.115 1.477 3.609 2.853 3.108 1.497 2.614"/>
        <path fill="#CCC" d="M0.115985918,3.13002864 L0.115984865,3.10077902 L1.50263226,2.59983318 L2.85855954,3.09336046 L2.85856059,3.12261007 L1.47191319,3.62355591 L0.115985918,3.13002864 Z M0.166650436,3.11545965 L1.47191214,3.59430629 L2.80789502,3.10792944 L1.50263332,2.6290828 L0.166650436,3.11545965 Z"/>
        <polygon fill="#3775A9" points="1.477 3.609 1.477 5.203 2.853 4.702 2.853 3.108"/>
        <path fill="#CCC" d="M1.46164364,3.60893091 L1.47188305,3.59430629 L2.84788305,3.09336084 L2.86877091,3.10798545 L2.86877091,4.70173091 L2.8585315,4.71635553 L1.4825315,5.21730098 L1.46164364,5.20267636 L1.46164364,3.60893091 Z M1.49277091,3.61982777 L1.49277091,5.18044733 L2.83764364,4.69083404 L2.83764364,3.13021449 L1.49277091,3.61982777 Z"/>
        <polygon fill="#2F6491" points=".121 3.115 1.477 3.609 1.477 5.203 .121 4.709"/>
        <path fill="#CCC" d="M0.136872727,3.13763097 L0.136872727,4.69825139 L1.46167273,5.18044903 L1.46167273,3.61982861 L0.136872727,3.13763097 Z M0.126632264,3.10077864 L1.48255954,3.59430591 L1.4928,3.60893091 L1.4928,5.20267636 L1.47191319,5.21730136 L0.115985918,4.72377409 L0.105745455,4.70914909 L0.105745455,3.11540364 L0.126632264,3.10077864 Z"/>
        <polygon fill="#E9E9FF" points="2.859 .51 4.215 1.003 4.215 2.597 2.859 2.103"/>
        <path fill="#CCC" d="M2.88266182,2.08655455 L4.19102545,2.56271864 L4.19102545,1.0198874 L2.88266182,0.543582971 L2.88266182,2.08655455 Z M2.86696751,0.487097332 L4.22304023,0.980770059 L4.23873455,1.00318545 L4.23873455,2.59678545 L4.20672189,2.61920162 L2.85064916,2.12567435 L2.83495273,2.10325818 L2.83495273,0.509512727 L2.86696751,0.487097332 Z"/>
        <polygon fill="#353564" points="1.483 1.01 1.483 2.604 2.859 2.103 2.859 .51"/>
        <path fill="#CCC" d="M1.45889455,1.01035636 L1.47459069,0.987940303 L2.85059069,0.487140303 L2.88260364,0.509556364 L2.88260364,2.10330182 L2.86690749,2.12571788 L1.49090749,2.62651788 L1.45889455,2.60410182 L1.45889455,1.01035636 Z M1.50660364,1.02705976 L1.50660364,2.57003453 L2.83489455,2.08659842 L2.83489455,0.543623649 L1.50660364,1.02705976 Z"/>
        <polygon fill="#AFAFDE" points="1.483 2.604 2.839 3.098 4.215 2.597 2.859 2.103"/>
        <path fill="#CCC" d="M1.47459098,2.62651799 L1.47459069,2.58168576 L2.85059069,2.08088576 L2.86690643,2.08088537 L4.22312461,2.57441264 L4.22312491,2.61924543 L2.84697946,3.12004543 L2.83066371,3.12004526 L1.47459098,2.62651799 Z M2.83882208,3.07224397 L4.1452106,2.59682957 L2.85874969,2.12868694 L1.55249921,2.60410136 L2.83882208,3.07224397 Z"/>
        <polygon fill="#2F6491" points="1.483 1.01 2.839 1.504 4.215 1.003 2.859 .51"/>
        <path fill="#CCC" d="M1.47459098,1.03277253 L1.47459069,0.987940303 L2.85059069,0.487140303 L2.86690643,0.487139915 L4.22312461,0.980667187 L4.22312491,1.02549997 L2.84697946,1.52629997 L2.83066371,1.5262998 L1.47459098,1.03277253 Z M2.83882208,1.47849851 L4.1452106,1.00308411 L2.85874969,0.534941484 L1.55249921,1.01035591 L2.83882208,1.47849851 Z"/>
        <polygon fill="#3775A9" points="2.839 1.504 2.839 3.098 4.215 2.597 4.215 1.003"/>
        <path fill="#CCC" d="M2.81492364,1.50389818 L2.83062054,1.48148184 L4.20676599,0.980681844 L4.23877818,1.00309818 L4.23877818,2.59684364 L4.22308128,2.61925997 L2.84693582,3.12005997 L2.81492364,3.09764364 L2.81492364,1.50389818 Z M2.86263273,3.06357758 L4.19106909,2.58013964 L4.19106909,1.03716424 L2.86263273,1.52060218 L2.86263273,3.06357758 Z"/>
        <polygon fill="#2F6491" points="1.483 1.01 2.839 1.504 2.839 3.098 1.483 2.604"/>
        <path fill="#CCC" d="M1.50660364,1.04442317 L1.50660364,2.58739819 L2.81496727,3.06356228 L2.81496727,1.52058726 L1.50660364,1.04442317 Z M1.4909072,0.987940196 L2.84697993,1.48146747 L2.86267636,1.50388364 L2.86267636,3.09762909 L2.83066371,3.12004526 L1.47459098,2.62651799 L1.45889455,2.60410182 L1.45889455,1.01035636 L1.4909072,0.987940196 Z"/>
        <path fill="#FFF" d="M3.35454545,1.82996364 C3.50043636,1.77687273 3.61869091,1.85963636 3.61869091,2.01498182 C3.61869091,2.17032727 3.50043636,2.33934545 3.35454545,2.39258182 C3.20850909,2.44567273 3.09025455,2.36276364 3.09025455,2.20741818 C3.09025455,2.05207273 3.20850909,1.88305455 3.35454545,1.82996364"/>
      </g>
    </g>
  </g>
</svg>
