<svg xmlns="http://www.w3.org/2000/svg" width="24" height="24" viewBox="0 0 24 24">
  <g fill="none">
    <path fill="#677EA6" d="M12,24 C5.372583,24 0,18.627417 0,12 C0,5.372583 5.372583,0 12,0 C18.627417,0 24,5.372583 24,12 C24,18.627417 18.627417,24 12,24 Z M12,23 C18.0751322,23 23,18.0751322 23,12 C23,5.92486775 18.0751322,1 12,1 C5.92486775,1 1,5.92486775 1,12 C1,18.0751322 5.92486775,23 12,23 Z"/>
    <g transform="translate(3.2 7.5)">
      <path fill="#FFF" d="M11.7549945,6.02857895 C11.7549945,6.02857895 12.4084918,6.1599721 12.4350152,6.86570022 C12.4350152,6.86570022 10.8272854,7.11461271 11.1278166,8.39528789 C11.1278166,8.39528789 10.5396078,8.32999937 10.395361,8.12025999 C10.2517262,7.91154074 10.0558607,7.42758957 10.2517262,7.06176982 C10.4475918,6.69513396 11.1143508,5.88453614 11.7554025,6.02857895 L11.7549945,6.02857895 Z"/>
      <path fill="#404D63" stroke="#404D63" stroke-width=".025" d="M11.2402353,8.49485289 L11.1182273,8.48138713 C11.0529388,8.4742462 10.4857448,8.40487714 10.3225235,8.16922638 C10.1491008,7.91868167 9.96751712,7.40616677 10.173584,7.02055644 C10.3653691,6.66350983 10.9652074,5.92493342 11.5997302,5.92493342 C11.6568576,5.92493342 11.7160254,5.93105422 11.7731528,5.94390789 C11.7772334,5.94492803 12.4913266,6.09692787 12.5198903,6.8624358 L12.5219306,6.93935384 L12.4444004,6.95159543 C12.4362394,6.95261557 11.6609382,7.07890805 11.3263345,7.57591693 C11.1753548,7.79973415 11.1365897,8.06864125 11.207999,8.37570133 L11.2345225,8.49485289 L11.2402353,8.49485289 Z M11.6013624,6.09815203 C11.0504905,6.09815203 10.4965582,6.78980231 10.3282362,7.10400333 C10.1599142,7.41820434 10.3241557,7.86502267 10.4669743,8.07312984 C10.540832,8.18126395 10.809127,8.25879407 11.0194784,8.29551886 C10.9725523,7.98947892 11.0288637,7.71608323 11.1867803,7.48349287 C11.5009813,7.01831214 12.1222424,6.84692977 12.3427952,6.80000365 C12.2795469,6.23484987 11.7449971,6.12059496 11.7388763,6.11855469 C11.6939905,6.10835336 11.6491046,6.10427283 11.6021785,6.10427283 L11.6013624,6.09815203 Z"/>
      <path fill="#FFF" d="M12.3434073,6.77388824 C12.3434073,6.77388824 12.9707892,7.42718152 12.8269504,8.00212857 L12.5957882,8.11985193 C12.5957882,8.11985193 12.5692647,7.18132942 12.065319,6.96465314 L12.3448354,6.77388824 L12.3434073,6.77388824 Z"/>
      <path fill="#404D63" stroke="#404D63" stroke-width=".03" d="M12.5133614,8.2589981 L12.5092809,8.12230025 C12.5088729,8.11352711 12.4766367,7.23641661 12.0290022,7.04422353 L11.8837353,6.98179138 L12.3548328,6.66106151 L12.4058394,6.71370038 C12.4327709,6.74185606 13.0648454,7.40881912 12.9110094,8.02355136 L12.9014201,8.06170434 L12.5117292,8.2589981 L12.5133614,8.2589981 Z M12.2256839,6.95894039 C12.5535547,7.20173209 12.6467949,7.73322146 12.6725022,7.98315409 L12.7510525,7.94377695 C12.8289906,7.52082974 12.4643951,7.04667185 12.3293294,6.8885512 L12.2258879,6.95894039 L12.2256839,6.95894039 Z"/>
      <path fill="#FFF" d="M12.0630747,6.96444911 C12.0630747,6.96444911 12.4694957,7.0876812 12.5955842,8.11964791 C12.5955842,8.11964791 12.4215495,8.5623857 11.9641218,8.31551347 C11.9641218,8.31551347 11.866189,7.51776934 11.529545,7.24233339 L12.0632787,6.9628169 L12.0630747,6.96444911 Z"/>
      <path fill="#404D63" stroke="#404D63" stroke-width=".02" d="M12.2242557,8.4781227 C12.1289753,8.4781227 12.027574,8.44915092 11.9227043,8.39243152 C11.8980783,8.3789917 11.8813871,8.35456181 11.8778185,8.32673494 C11.8770024,8.31918595 11.7802938,7.56020688 11.4746619,7.31068231 C11.4522708,7.29214375 11.4406016,7.26365855 11.4435509,7.23473905 C11.4465002,7.20581955 11.4636794,7.18027641 11.4893518,7.16663951 L12.0230854,6.8877351 C12.0434881,6.87753377 12.0665431,6.8754935 12.088374,6.8816143 C12.1353001,6.89589616 12.5523305,7.05299667 12.6816834,8.10985463 C12.6837237,8.12413649 12.6816834,8.13841836 12.6763787,8.15270022 C12.671074,8.16698209 12.5447815,8.47914283 12.2240517,8.47914283 L12.2242557,8.4781227 Z M12.0436921,8.25920212 C12.1083686,8.28919404 12.1689645,8.30470006 12.2240517,8.30470006 C12.3913535,8.30470006 12.479085,8.15902505 12.5056084,8.10618215 C12.4056354,7.33700174 12.1485618,7.11522479 12.0628706,7.06156579 L11.6731798,7.26559242 C11.920052,7.55939077 12.0179848,8.09700095 12.042468,8.25920212 L12.0436921,8.25920212 Z"/>
      <path fill="#FFF" d="M11.529749,7.2439656 C11.529749,7.2439656 12.0165566,7.84584417 11.9643258,8.31632958 C11.9643258,8.31632958 11.728879,8.6435883 11.1931051,8.39528789 C11.1931051,8.39447178 10.9121604,7.68853963 11.529749,7.2439656 Z"/>
      <path fill="#404D63" stroke="#404D63" stroke-width=".04" d="M11.5685141,8.57483133 C11.4399773,8.57483133 11.3012392,8.5409629 11.1563803,8.47383814 L11.0861951,8.44119388 L11.1014971,8.39549192 C11.0500824,8.23839141 10.8893094,7.59978805 11.4793545,7.17541265 L11.544643,7.12848653 L11.5956497,7.19377505 C11.6160523,7.22029851 12.103676,7.83033814 12.0485888,8.33020339 L12.0445082,8.35264632 L12.0302264,8.37100872 C12.0220653,8.38121005 11.8751661,8.57911588 11.5630054,8.57911588 L11.5685141,8.57483133 Z M11.2624742,8.33142755 C11.3720365,8.37835368 11.4746619,8.40161271 11.5685141,8.40161271 C11.7454052,8.40161271 11.8453782,8.31796179 11.8802668,8.281237 C11.9018936,7.94459306 11.6299261,7.52837873 11.5136309,7.36719769 C11.108026,7.71404296 11.2194245,8.19350555 11.2626782,8.33224366 L11.2624742,8.33142755 Z"/>
      <path fill="#FFF" d="M10.2645799,6.92874445 C10.2645799,6.92874445 11.0882354,7.2439656 11.9116869,5.62134179 C11.9116869,5.62134179 11.4669088,5.7784423 11.0882354,5.62134179 C11.0882354,5.62134179 10.6781419,6.77409226 10.2645799,6.92874445 Z"/>
      <path fill="#404D63" stroke="#404D63" stroke-width=".1" d="M10.4400428,7.01117121 C10.3196671,7.01117121 10.2470336,6.98383164 10.2441772,6.98260748 L10.1013586,6.92792834 L10.2441772,6.87426934 C10.5700078,6.75246544 10.9323591,5.89351332 11.0337603,5.60236731 L11.0537549,5.54523985 L11.1104743,5.56972305 C11.2165682,5.61460891 11.3369439,5.63501157 11.4716015,5.63501157 C11.7021516,5.63501157 11.8918963,5.56972305 11.8939366,5.56972305 L12.0306344,5.52279692 L11.9653459,5.6513337 C11.3634673,6.83876871 10.7534277,7.01627188 10.4433072,7.01627188 L10.4400428,7.01117121 Z M10.4273932,6.89548811 L10.4400428,6.89548811 C10.7138465,6.89548811 11.2465601,6.7383876 11.7992682,5.71009337 C11.7156173,5.72845577 11.5993221,5.74681817 11.4699692,5.74681817 C11.3440848,5.74681817 11.2275856,5.72845577 11.123124,5.69377124 C11.0411053,5.93656294 10.7446546,6.62821322 10.4273932,6.89344784 L10.4273932,6.89548811 Z M5.71580612,6.90568944 C5.71580612,6.90568944 4.98375856,7.08931341 5.34978234,7.74219864 C5.66643167,8.30531214 6.18629153,8.26450682 6.18629153,8.26450682 C6.18629153,8.26450682 6.16058418,7.58305786 6.73553123,7.32190377 C6.73553123,7.31986351 6.97077394,6.74654867 5.71580612,6.90160891 L5.71580612,6.90568944 Z"/>
      <path fill="#FFF" d="M9.45439014,7.08849731 C9.45439014,7.08849731 8.57870783,6.59148843 7.80748716,6.70900777 C7.03585843,6.82673114 5.80721005,7.25824746 6.01654138,8.20044245 C6.22566867,9.14100523 7.48043247,9.08857039 7.48043247,9.08857039 C7.48043247,9.08857039 8.06802917,7.57204042 9.45337001,7.69017185 L9.45337001,7.08829328 L9.45439014,7.08849731 Z"/>
      <path fill="#404D63" stroke="#404D63" stroke-width=".08" d="M7.44513586,9.17568976 C7.22805152,9.17568976 6.13426474,9.12937571 5.93187032,8.21880485 C5.87066233,7.94438903 5.91758846,7.69078393 6.0726487,7.4653345 C6.48274223,6.86488412 7.49267406,6.66922257 7.79259321,6.62352061 C7.87420387,6.61066693 7.96193532,6.60434211 8.05170704,6.60434211 C8.76580025,6.60434211 9.46357134,6.99648129 9.49417533,7.01300745 L9.53702093,7.0378987 L9.53702093,7.78463618 L9.44316867,7.77647511 C8.13535796,7.66507657 7.56204312,9.10591265 7.55592232,9.11999049 L7.53551966,9.17262936 L7.43962714,9.17568976 L7.44513586,9.17568976 Z M8.05456341,6.77776474 C7.9762439,6.77756069 7.89801905,6.78322125 7.82054486,6.79469895 C7.23845688,6.88365457 6.51130596,7.13175095 6.2158754,7.56326728 C6.09141915,7.74750333 6.05265409,7.95561049 6.10162048,8.18146798 C6.27096259,8.93636652 7.18908244,8.99879867 7.42371306,9.00165504 C7.54816931,8.7309117 8.15208814,7.55469816 9.36808687,7.59795181 L9.36808687,7.1405241 C9.20690583,7.0562611 8.62542993,6.77776474 8.05619562,6.77776474 L8.05456341,6.77776474 Z"/>
      <path fill="#FFF" d="M8.90535447,9.20629375 C8.90535447,9.20629375 9.15385891,9.08795831 9.25832055,8.9055585 C9.25832055,8.9055585 9.3368708,8.03640504 8.95758529,7.72016376 C8.95758529,7.72016376 8.61686081,7.67323763 8.36794832,8.02824398 C8.36794832,8.02824398 8.9024981,8.73825666 8.9024981,9.20751791 L8.90535447,9.20629375 Z"/>
      <path fill="#404D63" stroke="#404D63" stroke-width=".04" d="M8.90535447,9.29300507 C8.88234058,9.29305942 8.86025363,9.28394124 8.84398031,9.26766791 C8.82770699,9.25139459 8.81858881,9.22930764 8.81864315,9.20629375 C8.81864315,8.79211969 8.35448256,8.15208814 8.30143564,8.08047479 C8.28155958,8.053578 8.27796,8.01797344 8.29205041,7.98764268 C8.5838085,7.56938808 8.96982689,7.63324841 8.96941883,7.63324841 C8.98533291,7.63528868 9.00104296,7.64242961 9.01328456,7.65263094 C9.42256198,7.99539569 9.34788824,8.87638269 9.34441978,8.91351554 C9.3433503,8.92600511 9.33959188,8.93811557 9.33340235,8.94901617 C9.21710717,9.1530428 8.95391281,9.27953932 8.94371148,9.28484401 C8.93216256,9.29006452 8.91965969,9.29284294 8.90698668,9.29300507 L8.90535447,9.29300507 Z M8.47751062,8.0276319 C8.60400713,8.20513507 8.91208735,8.67031579 8.97900808,9.062659 C9.04429661,9.01981341 9.12386699,8.95656516 9.17283339,8.87903503 C9.18099445,8.75661906 9.21119039,8.07721037 8.92228868,7.80381468 C8.84475856,7.80381468 8.64685273,7.82421734 8.47751062,8.02824398 L8.47751062,8.0276319 Z"/>
      <path fill="#FFF" d="M8.90535447,9.20629375 C8.90535447,9.20629375 7.82890996,9.44704518 7.50430358,9.03205501 C7.50430358,9.03205501 7.72628456,8.24655247 8.2567538,8.05272717 C8.7876311,7.86094214 8.82680422,8.78926332 8.9055585,9.20751791 L8.90535447,9.20629375 Z"/>
      <path fill="#404D63" d="M8.25716186,9.36237413 C7.8560455,9.36237413 7.57979344,9.26913396 7.43595466,9.08550999 C7.41917923,9.06362461 7.41387186,9.03504058 7.4216728,9.00859195 C7.43187413,8.97472353 7.66242422,8.17697939 8.227578,7.97132055 C8.28470545,7.9503058 8.33979264,7.93990044 8.39283957,7.93990044 C8.80497337,7.93990044 8.89474509,8.54055485 8.95799334,8.97921211 C8.97023494,9.05715029 8.98043627,9.12917169 8.99267787,9.19037968 C9.0028792,9.23628567 8.97227521,9.28076347 8.92738935,9.29096481 C8.91514775,9.29382118 8.60502727,9.36237413 8.26022226,9.36237413 L8.25716186,9.36237413 Z M7.60182831,9.01144832 C7.72016376,9.1277435 7.94500111,9.18895149 8.25716186,9.18895149 C8.48077505,9.18895149 8.69377885,9.15732736 8.80558545,9.13733275 C8.79857456,9.09317984 8.79190948,9.04897272 8.78559084,9.00471544 C8.73336002,8.6497091 8.65440171,8.11352711 8.39181944,8.11352711 C8.35999128,8.11352711 8.32449065,8.11964791 8.28654169,8.13392977 C7.87236763,8.28286921 7.65650745,8.84802299 7.60182831,9.01124429 L7.60182831,9.01144832 Z"/>
      <path fill="#FFF" stroke="#404D63" stroke-width=".13" d="M9.45439014,7.68935574 C9.45439014,7.68935574 8.81741899,7.5848941 9.09693548,7.88930184 C9.39726268,8.21676458 9.1958884,8.98839331 9.1958884,8.98839331 C9.4739767,9.12509115 9.637198,8.82660019 9.637198,8.82660019 C9.85958703,8.02681579 9.45439014,7.68935574 9.45439014,7.68935574 Z"/>
      <path fill="#404D63" stroke="#404D63" stroke-width=".1" d="M14.3290528,0.665738943 C14.3332778,0.667110105 14.3447935,0.676113672 14.357384,0.685071439 C14.3585255,0.685883688 14.3585255,0.685883688 14.3596735,0.686701384 C14.3809553,0.701885561 14.3809553,0.701885561 14.4012826,0.719376599 C14.4300543,0.747060629 14.4444587,0.779803715 14.4244924,0.775505231 C14.4159367,0.80920212 14.4055517,0.839456521 14.401243,0.853912632 C14.3961235,0.871484311 14.3961235,0.871484311 14.3914857,0.88950077 C14.3877416,0.905303716 14.3877416,0.905303716 14.3842679,0.923379335 C14.3425886,1.09208096 14.3224791,1.25737175 14.3224791,1.42961462 C14.3224791,2.06268759 14.6088815,2.61193548 14.915163,2.61193548 C15.0464793,2.61193548 15.261958,2.51665154 15.3364645,2.44362698 L15.3427566,2.27244566 C15.349682,2.25990332 15.349682,2.25990332 15.3608377,2.24176359 C15.374921,2.22081539 15.374921,2.22081539 15.3970252,2.19974233 C15.4133345,2.18830609 15.4133345,2.18830609 15.4415517,2.18347955 C15.4845658,2.18347955 15.5204589,2.20604092 15.538396,2.24200351 C15.5486211,2.26057023 15.5691864,2.29033442 15.5978955,2.31988976 C15.6322167,2.35522265 15.6690829,2.37960192 15.7082808,2.38942999 C15.7178333,2.39215927 15.7295749,2.39362698 15.7435111,2.39362698 C15.7762859,2.39362698 15.8125727,2.38750512 15.8748152,2.3729956 C15.8829378,2.37109576 15.8829378,2.37109576 15.8911161,2.36916836 C15.9013732,2.36674866 15.9013732,2.36674866 15.9101714,2.36471124 C15.9927289,2.34269592 16.0469163,2.33241899 16.1001124,2.33244444 C16.3221878,2.33953195 16.6903073,2.60976992 16.8441479,2.88873437 C16.9501231,3.08081441 16.9570895,3.26890668 16.8617975,3.42999545 C16.6266722,3.82860641 16.4520404,3.93269159 15.8556112,4.10950907 C15.7169383,4.15029613 15.6457821,4.17156963 15.5704558,4.19348302 C15.1662693,4.45132614 14.5781064,4.68691328 14.041583,4.66629087 C13.5548537,5.336623 12.7278602,5.82130136 11.3653036,5.82130136 C11.2816531,5.82130136 11.1957932,5.81924114 11.1568802,5.78327792 C11.0423345,6.07829149 8.31302586,6.05762242 2.67493252,5.75124657 L2.65292436,5.74478129 C0.542989962,4.54462562 -0.0779737709,3.96295617 0.108005257,3.61648447 C0.17728432,3.48819875 0.357771714,3.40988364 0.567602093,3.40988364 C0.628432624,3.40988364 0.691223985,3.41682374 0.751709574,3.43021714 C0.973421529,3.47871663 1.16254177,3.52714315 1.54657829,3.63070369 C1.60009654,3.64500866 1.60009654,3.64500866 1.65377826,3.65933327 C2.239628,3.81551694 2.57957979,3.89393493 2.92438662,3.97860973 C3.96213838,2.01608074 5.57684745,0.680007292 7.88460923,0.680007292 C9.86134902,0.680007292 10.5233252,1.13257484 11.1060021,2.29860011 C11.1428476,2.3721083 11.1428476,2.3721083 11.1788287,2.44242839 C11.3845169,2.84018918 11.5509364,3.0162871 11.8636428,3.11366026 C12.3478109,3.0988765 12.7835491,2.96644443 12.9414044,2.60071444 C12.9901645,2.48767323 13.0338861,2.3491702 13.0929578,2.131389 C13.1130837,2.05666593 13.1130837,2.05666593 13.1334229,1.98011689 C13.1601559,1.8792968 13.1601559,1.8792968 13.1877512,1.77745117 C13.4356748,0.872152225 13.6961593,0.467411541 14.2386107,0.467411541 C14.2664628,0.467851435 14.2664628,0.467851435 14.2941545,0.469106137 C14.3391544,0.471356135 14.379235,0.50110014 14.3909024,0.583711367 L14.3290528,0.665738943 Z"/>
      <path fill="#FFF" d="M16.2203213,2.65479455 C15.7282091,2.38201094 15.5150013,2.44668738 15.4476725,2.48994103 C15.2742498,2.76374477 15.076344,2.76578503 14.8743576,2.76578503 C14.4275393,2.76578503 14.111298,2.20409971 14.111298,1.43145086 C14.111298,1.23823763 14.133741,1.05461367 14.1745463,0.887311826 C14.1908684,0.764895847 14.2806401,0.68532546 14.2806401,0.68532546 C13.4951376,0.634318802 13.4257685,2.01965964 13.138091,2.68682673 C12.8504134,3.35399382 11.8302803,3.32747036 11.8302803,3.32747036 C10.3918925,2.90921576 11.4895558,0.897513158 7.88236493,0.897513158 C4.61202204,0.895268865 3.20627854,3.93526569 3.04101696,4.23926538 C2.01231468,4.07073938 0.539650444,3.4052045 0.356026474,3.74552093 C0.173626665,4.0854293 2.75741994,5.55646132 2.75741994,5.55646132 L5.11474366,6.85672305 C5.11474366,6.85672305 6.55251934,7.09135368 6.73553123,7.09135368 C8.01641043,6.41194499 9.29769769,7.09135368 9.29769769,7.09135368 C10.5785769,7.03830675 10.9968315,5.59991899 10.9968315,5.59991899 C13.2186815,5.7570195 13.8987023,4.47573224 13.8987023,4.47573224 C14.6831847,4.5267389 15.4933744,4.00443072 15.4933744,4.00443072 C15.7298401,3.9465582 15.958196,3.85951978 16.1731912,3.7453169 C16.3645682,3.64330358 16.5526807,3.52496814 16.63878,3.35358576 C16.8219959,2.98837809 16.2205254,2.65173415 16.2205254,2.65173415 L16.2203213,2.65479455 Z"/>
      <path fill="#7F9ACE" d="M11.2223535,2.93274247 C11.2223535,2.88822796 11.3335914,3.12886469 10.9968315,2.56497514 C10.6261645,1.81708446 10.265375,0.853661805 7.88236493,0.897513158 C4.55712218,0.897513158 3.20627854,3.93526569 3.04101696,4.23926538 C2.95527973,4.47636694 2.43456364,5.45648149 2.50638147,5.45648149 L4.475405,6.49198455 C4.475405,6.49198455 6.55251934,7.09135368 6.73553123,7.09135368 C8.01641043,6.41194499 9.29769769,7.09135368 9.29769769,7.09135368 C10.5785769,7.03830675 10.9968315,5.59991899 10.9968315,5.59991899 C11.0853401,4.98380877 11.5418702,3.35079304 11.2223535,2.93274247 Z"/>
      <path fill="#FFF" d="M3.82509131,4.83257483 C4.31271497,4.98355453 5.07087793,5.82781674 5.66377933,5.98491725 C5.66377933,5.98491725 6.2472955,6.37705644 6.97975111,5.98491725 C6.97975111,5.98491725 7.2845669,5.67928535 7.99927219,5.71478599 C8.71336541,5.74906246 9.27158228,6.0542863 9.62005977,6.03633196 C9.96853725,6.01919372 10.3871999,5.40038094 10.5177769,4.78156817 C10.648354,4.16336747 11.0574274,3.00408814 11.5460712,2.82964537 C12.0336948,2.65622273 12.1208142,3.2581013 12.1208142,3.2581013 C12.1208142,3.2581013 11.3889707,3.6763559 11.3451049,4.19050301 C11.3451049,4.19050301 11.192085,5.18003218 11.0594677,5.60644784 C10.9268503,6.03490377 10.7738304,7.17745292 9.45581833,7.21213744 C9.45581833,7.21213744 8.77028884,6.83060764 7.94806151,6.86121164 C7.28701522,6.8877351 7.14623684,7.09584226 6.67697559,7.14072812 C6.197513,7.18765425 5.63848003,7.04075507 5.11821211,6.86121164 C4.08787762,6.50620529 3.28605295,5.99409845 2.33120831,5.43302521 C2.33120831,5.43506547 1.43349112,4.8821533 2.78414743,4.68628773 C2.77904677,4.6799629 2.98164521,4.57284892 3.82509131,4.83257483 Z"/>
      <path fill="#404D63" stroke="#404D63" stroke-width=".06" d="M9.43276332,7.2968085 L9.4119526,7.28517898 C9.4058318,7.28109845 8.7400929,6.91385051 7.9494897,6.94241424 C7.5871384,6.9566961 7.38882451,7.02606516 7.19703947,7.09339394 C7.04932419,7.1444006 6.89671227,7.19948779 6.68228028,7.21989046 C6.25790488,7.26069578 5.76864902,7.1688838 5.08577188,6.93425317 C4.1696923,6.61801189 3.45070244,6.18955596 2.61827378,5.69581151 L2.28162984,5.49586541 L2.28326205,5.49178488 C2.18002457,5.44077822 1.96089997,5.25511398 1.94723018,5.06944975 C1.92070672,4.71444341 2.53482689,4.62059115 2.75517565,4.58998716 C2.82454471,4.5634637 3.0428532,4.49409464 3.8487584,4.74300713 C4.08950983,4.81645672 4.37922765,5.04088602 4.6852676,5.27755691 C5.02803234,5.54075127 5.38099841,5.81414696 5.68295783,5.89371734 L5.70744103,5.90595894 C5.70948129,5.90595894 5.95227299,6.06509971 6.30727933,6.06509971 C6.51538649,6.06509971 6.72145339,6.01205279 6.92139949,5.90595894 C6.98464775,5.84883148 7.31721116,5.58767739 7.99661985,5.62032166 C8.39651205,5.63868405 8.75151839,5.74273763 9.03919594,5.82638855 C9.25546417,5.88963681 9.44112841,5.94268373 9.58190679,5.94268373 L9.60638998,5.94268373 C9.90018833,5.92840187 10.2980403,5.3510065 10.4224965,4.757289 C10.5204293,4.30026934 10.9264423,2.94961303 11.5058779,2.74150587 C11.5732067,2.71702267 11.6405355,2.70478107 11.7017435,2.70478107 C12.0322666,2.70478107 12.1689645,3.05366661 12.195488,3.23729058 L12.203649,3.29441804 L12.1526424,3.32502204 C12.1444813,3.32910257 11.4589518,3.7269545 11.4201867,4.18805469 C11.4120257,4.23498082 11.2630862,5.19390599 11.1304689,5.62236192 C11.1161871,5.66520751 11.1019052,5.71825444 11.0876233,5.7753819 C10.9488852,6.29360954 10.6897714,7.25661525 9.44520894,7.28925951 L9.42072575,7.28925951 L9.43276332,7.2968085 Z M8.04170973,6.76919562 C8.76253583,6.76919562 9.35400904,7.05891344 9.4747928,7.1221617 C10.5704158,7.08278456 10.7962733,6.24158275 10.931543,5.73763697 C10.947457,5.67806119 10.9617389,5.62460621 10.9760208,5.57910828 C11.1049656,5.16289394 11.2575775,4.18560637 11.2596178,4.17540504 C11.299199,3.70818405 11.8451742,3.32726633 12.0230854,3.2144396 C11.9955419,3.10834575 11.9135231,2.88452854 11.7125569,2.88452854 C11.6707315,2.88452854 11.6248255,2.89350571 11.575247,2.911052 C11.1508716,3.06203171 10.7428183,4.12705073 10.6020399,4.79952251 C10.4735032,5.40895006 10.0389264,6.10243659 9.62271211,6.12283925 L9.58802758,6.12365536 C9.42276601,6.12365536 9.22486018,6.0665279 8.99635035,6.00001522 C8.70459226,5.91554819 8.37406912,5.81945165 7.99253932,5.80129328 C7.32945276,5.76599667 7.03973494,6.04367692 7.03769467,6.04653329 L7.01729201,6.06122321 C6.78878218,6.18363919 6.55007102,6.24566328 6.30931959,6.24566328 C5.94207166,6.24566328 5.6849981,6.10182451 5.62379011,6.06489569 C5.2912267,5.9722676 4.92805929,5.69234306 4.57713348,5.42119166 C4.28333513,5.1947221 4.00585891,4.98049413 3.79367121,4.91520561 C3.02653107,4.67894277 2.81026284,4.7581051 2.80822257,4.75851316 L2.78373938,4.76565409 C2.21246481,4.84787682 2.12473335,4.98335051 2.11249176,5.03782562 C2.09004883,5.14881611 2.28387413,5.30510051 2.35936398,5.34998637 L2.69804819,5.55054455 C3.52231579,6.03980041 4.23436874,6.4625436 5.13412619,6.77266408 C5.53401839,6.91099413 6.14813855,7.09829058 6.65616487,7.0501403 C6.8479499,7.03116582 6.98464775,6.98321956 7.12950666,6.9322129 C7.32333196,6.86284385 7.54368072,6.78531373 7.93337159,6.7689916 C7.96601585,6.76695133 7.99866011,6.76695133 8.03130438,6.76695133 L8.04170973,6.76919562 Z"/>
      <path fill="#FFF" d="M4.17336477,6.1944526 C4.17336477,6.1944526 3.87691408,5.6543941 3.23239394,5.4972936 C2.58766978,5.34019309 2.4652538,5.4972936 2.4652538,5.4972936 C2.4652538,5.4972936 1.59406008,6.57802267 1.68138348,7.55388205 C1.76850285,8.52974144 2.37854249,8.42507578 2.37854249,8.42507578 C2.37854249,8.42507578 2.47688332,7.34475476 3.06407197,7.27436557 C3.65085257,7.20540457 4.1735688,7.22233878 4.1735688,7.22233878 L4.1735688,6.19608481 L4.17336477,6.1944526 Z"/>
      <path fill="#404D63" stroke="#404D63" stroke-width=".04" d="M2.32773985,8.51505152 C2.17574001,8.51505152 1.67403852,8.44629455 1.59528424,7.56143104 C1.50551252,6.56231262 2.36140425,5.4881124 2.39792502,5.44281848 C2.41587936,5.41833529 2.49687793,5.3387649 2.74681056,5.3387649 C2.88595672,5.3387649 3.05611493,5.3632481 3.25279661,5.41017422 C3.92669658,5.57339553 4.23620498,6.1263077 4.24926268,6.14875063 L4.26007609,6.16711303 L4.26007609,7.30558164 L4.17071243,7.30150111 C4.16989632,7.30150111 4.1146051,7.29946084 4.0203448,7.29946084 C3.83631278,7.29946084 3.46865679,7.30762191 3.07406928,7.35250777 C2.64969388,7.40351443 2.49055311,8.1441311 2.46504978,8.42364759 L2.45892898,8.48893611 L2.39364046,8.50117771 C2.3932324,8.50117771 2.36874921,8.50525824 2.32773985,8.50525824 L2.32773985,8.51505152 Z M2.74701458,5.51381975 C2.57767248,5.51381975 2.52870609,5.55584924 2.52870609,5.55666535 C2.52258529,5.56217406 1.68403583,6.61699176 1.76768675,7.54592502 C1.82685447,8.22390552 2.14105549,8.3310195 2.30019626,8.34081278 C2.33488079,8.08067882 2.49402156,7.25539109 3.05305453,7.18867438 C3.51007419,7.13460732 3.92016772,7.13277108 4.0854293,7.13419927 L4.0854293,6.21832372 C4.02830184,6.12651173 3.74266455,5.71152156 3.21015504,5.58176062 C3.02653107,5.53687476 2.86943056,5.51402378 2.74497432,5.51402378 L2.74701458,5.51381975 Z"/>
      <path fill="#FFF" d="M2.37833846,8.42548383 C2.37833846,8.42548383 2.70926966,8.84373843 3.49395609,8.73907276 C3.49395609,8.73907276 3.70308339,7.66956516 3.49395609,7.23743675 C3.49395609,7.23743675 3.07284512,7.09971877 2.74273003,7.44880834 C2.41302299,7.79769388 2.37833846,8.42609591 2.37833846,8.42609591 L2.37833846,8.42548383 Z"/>
      <path fill="#404D63" stroke="#404D63" stroke-width=".06" d="M3.24871607,8.84271829 C2.60521607,8.84271829 2.32202711,8.49424081 2.31019356,8.47955089 L2.2897909,8.45363951 L2.29183117,8.42099524 C2.29305533,8.3938597 2.33202441,7.75729661 2.67948177,7.38923256 C3.05285051,6.99342089 3.51191043,7.1505214 3.52068358,7.15460193 L3.55740837,7.16480327 L3.5737305,7.19744753 C3.79407926,7.65038665 3.59005263,8.70928488 3.58189157,8.75417074 L3.56964997,8.81537873 L3.50844198,8.82353979 C3.42275079,8.83374112 3.33501934,8.83986192 3.25340869,8.83986192 L3.24871607,8.84271829 Z M2.46770212,8.39528789 C2.53809131,8.46567708 2.78047495,8.66909163 3.24871607,8.66909163 C3.30421132,8.66909163 3.3615428,8.66603123 3.42009845,8.66031848 C3.45825143,8.43588919 3.57413855,7.67078932 3.43152394,7.30966218 C3.33257102,7.28925951 3.04550555,7.25253472 2.80577425,7.50552774 C2.54502822,7.7809637 2.48096386,8.25838602 2.46790615,8.39100333 L2.46770212,8.39528789 Z"/>
      <path fill="#FFF" d="M3.82488729,7.22295086 C3.82488729,7.22295086 4.13806817,7.95459036 4.01626427,8.63481516 C4.01626427,8.63481516 3.9513838,8.73825666 3.49334401,8.73948082 C3.49334401,8.73948082 3.7544981,7.49593849 3.49334401,7.2378448 L3.82488729,7.22295086 Z"/>
      <path fill="#404D63" stroke="#404D63" stroke-width=".03" d="M3.38643405,8.82639616 L3.40846893,8.72132245 C3.50640171,8.25818199 3.5982137,7.46288618 3.43295212,7.29925682 L3.29217375,7.15929455 L3.88181072,7.13338316 L3.90629391,7.18847036 C3.92057578,7.21907435 4.22865599,7.95214204 4.10419975,8.6497091 L4.09195815,8.68031309 C4.06543469,8.72377077 3.95322004,8.82455992 3.49620038,8.82578408 L3.39010653,8.82639616 L3.38643405,8.82639616 Z M3.63901902,7.31802727 C3.76551554,7.66385241 3.65738142,8.35142216 3.60025396,8.65032118 C3.81652219,8.6405279 3.90629391,8.60482324 3.93689791,8.58788903 C4.02258909,8.05537952 3.83284432,7.48818548 3.7675558,7.31231452 L3.64105929,7.31802727 L3.63901902,7.31802727 Z"/>
      <path fill="#FFF" d="M4.01626427,8.63399905 C4.01626427,8.63399905 4.45206516,8.55361256 4.53938855,8.42793215 C4.53938855,8.42793215 4.48715774,7.55367803 4.17336477,7.22213475 L3.82529534,7.2225428 C3.82488729,7.22295086 4.17336477,8.00702521 4.01646829,8.6344071 L4.01626427,8.63399905 Z"/>
      <path fill="#404D63" stroke="#404D63" stroke-width=".03" d="M3.89956103,8.74417343 L3.93220529,8.61298431 C4.07257562,8.05231912 3.78040948,7.33883798 3.74654106,7.2592676 L3.72369008,7.20520054 L3.78938665,7.13583148 L4.21049762,7.1352194 L4.23620498,7.16255897 C4.56795228,7.5128727 4.62385558,8.38569864 4.62589585,8.42283148 L4.62793611,8.4528234 L4.61059385,8.47730659 C4.5106208,8.62114537 4.14276078,8.69887952 4.03217834,8.71928218 L3.89956103,8.74376538 L3.89956103,8.74417343 Z M3.95260796,7.30925412 C4.04156357,7.5504136 4.19539965,8.05517549 4.1268467,8.52117232 C4.26415663,8.48648779 4.39697796,8.43854153 4.44982086,8.39671607 C4.4363551,8.23696322 4.36861826,7.59346322 4.13419166,7.30925412 L3.95260796,7.30925412 Z"/>
      <path fill="#404D63" d="M2.86596211,4.65425555 C2.89248557,4.25742375 3.02571497,4.07828836 3.04142502,4.02993405 L3.09773637,4.04829645 C3.05835923,4.17071243 2.96063047,4.51470133 2.98266535,4.63303678 L2.86596211,4.65425555 Z M14.4399849,3.5231319 C14.4154046,3.50152668 14.3780657,3.5035205 14.355926,3.52762048 C14.3342991,3.5514916 14.3396038,3.58536002 14.3600065,3.6112714 C14.6709431,4.00708307 15.0196246,4.12174604 15.2320163,4.1513299 C15.2793505,4.11664537 15.8391996,3.92486034 15.8812291,3.88813554 C15.6119139,3.91873954 14.8810905,3.92282007 14.4397809,3.52292787 L14.4399849,3.5231319 Z"/>
      <path fill="#404D63" stroke="#404D63" stroke-width=".17" d="M15.8002305,0.10303345 C15.6398656,0.074469721 15.4337987,0.140166297 15.3236243,0.269111129 C15.3583088,0.305835923 15.3970739,0.330319119 15.4215571,0.369084179 C15.5092885,0.27931246 15.6113018,0.242587666 15.8010466,0.242587666 C16.1274892,0.242587666 16.4131265,0.879150761 16.4131265,1.440224 C16.4131265,1.8339954 16.2845897,2.17471988 16.094845,2.34406198 C16.0132343,2.41751157 15.9214223,2.4583169 15.8255298,2.4583169 C15.7173957,2.4583169 15.6153824,2.40526997 15.5256107,2.31345799 C15.5133691,2.41343104 15.4378792,2.42159211 15.4378792,2.42159211 C15.5500938,2.55216915 15.6827112,2.62969927 15.8275701,2.62969927 C16.0009927,2.62969927 16.1560529,2.51952489 16.2784689,2.33998145 C16.4253681,2.12167295 16.5192204,1.79931088 16.5192204,1.43818373 C16.5212606,0.781217977 16.225422,0.181379677 15.8071674,0.105889822 L15.8002305,0.10303345 Z"/>
      <path fill="#B3C7DC" d="M15.4427514,0.540058497 C15.4417313,0.54169071 15.405847,0.419119324 15.3711625,0.382190504 L15.3217049,0.382190504 C15.2176513,0.272424175 15.0506367,0.241363507 14.9194475,0.241363507 C14.5387338,0.241363507 14.2294295,0.776321338 14.2294295,1.43553139 C14.2294295,1.64159829 14.2596254,1.83542359 14.3126723,2.00517375 C14.4293756,2.37731833 14.6574773,2.6299033 14.9194475,2.6299033 C15.0341105,2.6299033 14.7655179,2.64109883 15.1025699,2.72863529 C15.1269707,2.73497247 15.307627,2.55754455 15.3217049,2.54326268 C15.3540612,2.50115869 15.46756,2.49283062 15.4957359,2.44900432 C15.6430431,2.23314415 15.6098737,1.79074176 15.6098737,1.43573542 C15.6098737,1.19634417 15.5541662,0.897785193 15.4427514,0.540058497 Z"/>
      <path fill="#B3C7DC" d="M15.4215571,0.369084179 C15.5092885,0.27931246 15.6113018,0.242587666 15.8010466,0.242587666 C16.1274892,0.242587666 16.4131265,0.879150761 16.4131265,1.440224 C16.4131265,1.8339954 16.2845897,2.17471988 16.094845,2.34406198 C16.0132343,2.41751157 15.9214223,2.4583169 15.8255298,2.4583169 C15.7173957,2.4583169 15.6153824,2.40526997 15.5256107,2.31345799 C15.5174496,2.38010669 15.4882058,2.4161514 15.4378792,2.42159211 C15.6009835,2.04891225 15.3970739,0.330319119 15.4215571,0.369084179 Z"/>
      <path fill="#404D63" stroke="#404D63" stroke-width=".05" d="M15.7284131,1.43165488 C15.7284131,1.09093041 15.6557796,0.786930723 15.5392804,0.54413903 C15.4792966,0.438045181 15.3764672,0.289105739 15.3458632,0.246260146 C15.222019,0.111602568 15.0769561,0.0320321814 14.9202636,0.0320321814 C14.5852519,0.0320321814 14.2979824,0.38295799 14.1751584,0.886903773 C14.134353,1.05420561 14.1119101,1.23782958 14.1119101,1.42961462 C14.1119101,2.20083529 14.4730373,2.76190853 14.9198556,2.76190853 C15.0887896,2.76190853 15.24487,2.73538507 15.3744269,2.58236509 L15.4686872,2.44770751 C15.6274199,2.19573462 15.7284131,1.83583164 15.7284131,1.43165488 Z M14.9216918,2.62929122 C14.4055044,2.62929122 14.2790079,1.63568152 14.2790079,1.42961462 C14.2790079,0.770608592 14.5422023,0.238099081 14.9216918,0.238099081 C15.0522689,0.238099081 15.3032216,0.370716392 15.3746309,0.542098763 C15.4460403,0.713481135 15.6133421,1.07460828 15.6133421,1.43165488 C15.6133421,1.78870149 15.5392804,2.07004105 15.3787115,2.32529153 C15.3219212,2.41556886 15.2379331,2.49463364 15.2379331,2.49463364 C15.1440808,2.57828456 15.0359467,2.62929122 14.9216918,2.62929122 Z"/>
      <path fill="#404D63" d="M15.2605805,2.13952281 C15.456353,2.13952281 15.5611189,1.95095536 15.5748783,1.57382046 C15.5575384,1.19668555 15.4527725,1.0081181 15.2605805,1.0081181 C14.9722927,1.0081181 14.8757121,1.35752778 14.8757121,1.59494623 C14.8757121,1.83236467 14.9669218,2.13952281 15.2605805,2.13952281 Z" transform="rotate(5 15.645 1.778)"/>
      <path fill="#404D63" d="M16.0356611,1.93562503 C15.9903007,1.93720905 15.760761,1.91409728 15.7547896,1.57199779 C15.7488183,1.2298983 15.8260688,0.929084021 16.0456598,0.921415733 C16.2652508,0.913747446 16.3637894,1.15757007 16.3517053,1.50361346 C16.3405081,1.82425949 16.0810214,1.93404101 16.0356611,1.93562503 Z" transform="rotate(-2 16.524 1.691)"/>
    </g>
  </g>
</svg>
