<svg xmlns="http://www.w3.org/2000/svg" width="24" height="24" viewBox="0 0 24 24">
  <g fill="#699" opacity=".95">
    <path d="M12,24 C5.372583,24 0,18.627417 0,12 C0,5.372583 5.372583,0 12,0 C18.627417,0 24,5.372583 24,12 C24,18.627417 18.627417,24 12,24 Z M12,23 C18.0751322,23 23,18.0751322 23,12 C23,5.92486775 18.0751322,1 12,1 C5.92486775,1 1,5.92486775 1,12 C1,18.0751322 5.92486775,23 12,23 Z"/>
    <path d="M8.32567507,9.73539742 L8.32567507,10.6049169 L6.93444394,10.6049169 L6.93444394,11.1266285 L11.6266285,11.1266285 L11.6266285,10.6049169 L10.2353974,10.6049169 L10.2353974,5.99968421 C10.2353974,5.79035546 10.1065797,5.55526317 9.91335318,5.36525707 C9.72334709,5.17203053 9.48825478,5.04321283 9.28214647,5.04321282 L4.67369337,5.04321282 L4.67369337,1.39123112 L6.06170405,1.39123112 L6.06170405,0.86951945 L1.36951945,0.86951945 L1.36951945,1.39123112 L2.76075058,1.39123112 L2.76075058,5.99968421 C2.76075058,6.20579253 2.88956828,6.44088482 3.08279482,6.63411137 C3.27602136,6.82411747 3.50789322,6.95615561 3.71722198,6.95615562 L8.32567507,6.95615562 L8.32567507,9.73539742 Z M6.49968421,9.73539742 L7.45615562,9.73539742 L7.45615562,7.82567507 L3.71722198,7.82567507 C3.24150324,7.80097213 2.79376727,7.59325956 2.46769032,7.24599543 C2.12117637,6.92070968 1.91352993,6.47426983 1.88801068,5.99968421 L1.88801068,2.26075058 L0.5,2.26075058 L0.5,0 L6.9312235,0 L6.9312235,2.26075058 L5.54321282,2.26075058 L5.54321282,4.17369337 L9.27892602,4.17369337 C9.72978796,4.17369337 10.1870908,4.40878566 10.5284577,4.75015256 C10.8698246,5.09151945 11.1081373,5.55204272 11.1081373,5.99968421 L11.1081373,9.73539742 L12.496148,9.73539742 L12.496148,11.996148 L6.06492449,11.996148 L6.06492449,9.73539742 L6.49968421,9.73539742 Z" transform="matrix(0 1 1 0 6.5 5.5)"/>
  </g>
</svg>
