<svg xmlns="http://www.w3.org/2000/svg" width="24" height="24" viewBox="0 0 24 24">
  <g fill="#993" opacity=".88">
    <path d="M12,24 C5.372583,24 0,18.627417 0,12 C0,5.372583 5.372583,0 12,0 C18.627417,0 24,5.372583 24,12 C24,18.627417 18.627417,24 12,24 Z M12,23 C18.0751322,23 23,18.0751322 23,12 C23,5.92486775 18.0751322,1 12,1 C5.92486775,1 1,5.92486775 1,12 C1,18.0751322 5.92486775,23 12,23 Z"/>
    <path d="M11.5,1.99999183 C11.5,0.895826394 10.577017,0 9.43750184,0 C8.29798673,0 7.37500369,0.895826394 7.37500369,1.99999183 C7.37500369,2.8108318 7.87344935,3.5074744 8.58844182,3.82167095 C8.39337414,5.44499598 7.31484442,5.77248195 5.75679605,6.24416302 C5.00054181,6.47333024 4.1213874,6.73999105 3.37891167,7.25832095 L3.37891167,3.83669128 C4.11197553,3.52916089 4.62499631,2.82253335 4.62499631,2.00004905 C4.62499631,0.895883614 3.70117239,5.72202797e-05 2.56249816,5.72202797e-05 C1.42295354,5.72202797e-05 0.5,0.895883614 0.5,2.00004905 C0.5,2.82254765 1.01305029,3.5292038 1.74608465,3.83669128 L1.74608465,10.164167 C1.01302078,10.4699951 0.5,11.1766656 0.5,12.0000082 C0.5,13.1041736 1.42298305,14 2.56249816,14 C3.70117239,14 4.62499631,13.1041736 4.62499631,12.0000082 C4.62499631,11.1891682 4.12655065,10.4925256 3.4106878,10.178329 C3.60662586,8.55500402 4.6859817,8.22667405 6.2431597,7.75583698 C7.82699483,7.27585897 9.96079013,6.62833998 10.225488,3.84836422 C10.9731565,3.5466989 11.499941,2.83336228 11.499941,2.00002044 L11.5,1.99999183 Z M1.37226515,1.99999183 C1.37226515,1.36250069 1.90506857,0.845830174 2.56249816,0.845830174 C3.21992774,0.845830174 3.75273116,1.36248638 3.75273116,1.99999183 C3.75273116,2.63749727 3.21992774,3.15415348 2.56249816,3.15415348 C1.90506857,3.15415348 1.37226515,2.63749727 1.37226515,1.99999183 Z M2.56251291,13.1541126 C1.90509807,13.1541126 1.3722799,12.6374564 1.3722799,11.999951 C1.3722799,11.3624455 1.90508332,10.8457893 2.56251291,10.8457893 C3.21994249,10.8457893 3.75274591,11.3624455 3.75274591,11.999951 C3.75274591,12.6374564 3.21994249,13.1541126 2.56251291,13.1541126 Z M9.43750184,3.15413917 C8.78094264,3.15413917 8.24726884,2.63748296 8.24726884,1.99997752 C8.24726884,1.36247208 8.78092788,0.845815869 9.43750184,0.845815869 C10.0940758,0.845815869 10.6277348,1.36247208 10.6277348,1.99997752 C10.6277348,2.63748296 10.0940758,3.15413917 9.43750184,3.15413917 Z" transform="translate(7 5)"/>
  </g>
</svg>
