<svg xmlns="http://www.w3.org/2000/svg" width="24" height="24" viewBox="0 0 24 24">
  <g fill="#C99">
    <path d="M12,24 C5.372583,24 0,18.627417 0,12 C0,5.372583 5.372583,0 12,0 C18.627417,0 24,5.372583 24,12 C24,18.627417 18.627417,24 12,24 Z M12,23 C18.0751322,23 23,18.0751322 23,12 C23,5.92486775 18.0751322,1 12,1 C5.92486775,1 1,5.92486775 1,12 C1,18.0751322 5.92486775,23 12,23 Z"/>
    <g transform="translate(5 6)">
      <path d="M4.33841185,11.1310225 L3.8888569,11.1310225 C3.27714592,11.1310225 2.87528924,11.0364277 2.68124059,10.8402964 C2.48730354,10.6442779 2.39382128,10.2355643 2.39382128,9.61168768 L2.39382128,8.27064685 C2.39382128,7.55190962 2.24365098,7.05909929 1.94779275,6.7902028 C1.87873843,6.72729202 1.84820086,6.69974073 1.81311054,6.66927785 C1.5228182,6.41726707 1.25707465,6.30777752 0.641958811,6.13582926 C1.28835904,6.04862576 1.55883864,5.93571113 1.85914415,5.68064534 C1.91238801,5.6348544 1.91238801,5.6348544 1.96770849,5.58629243 C2.24990001,5.33914618 2.39382128,4.84633957 2.39382128,4.10646102 L2.39382128,2.38688516 C2.39382128,1.76742293 2.48730393,1.35980731 2.68103773,1.16167501 C2.87509655,0.963250373 3.27708835,0.867512738 3.8888569,0.867512738 L4.28841185,0.917512738 L4.33841185,0.05 L3.92739018,0.05 C2.87238893,0.05 2.16863051,0.204958275 1.81832222,0.509341782 C1.4700221,0.812011805 1.29282978,1.42897069 1.29282978,2.36119631 L1.29282978,4.02946957 C1.29282978,4.59626015 1.17089715,5.02870516 0.924906443,5.32539476 C0.91460568,5.33781852 0.798292371,5.48269068 0.766467974,5.51871839 C0.597574759,5.70991873 0.423588174,5.77339413 0.05,5.72339413 L0,6.59090687 C0.365419675,6.59090687 0.527936623,6.65826798 0.687247553,6.85217432 C0.721678213,6.89408182 0.854649325,7.07514553 0.887323347,7.11707975 C1.1576328,7.46399808 1.29282978,7.87692695 1.29282978,8.35406052 L1.29282978,9.63733898 C1.29282978,10.5696463 1.47003681,11.1877049 1.81844697,11.4925322 C2.16874014,11.798975 2.87239163,11.9549575 3.92739018,11.9549575 L4.29127247,11.9549575 L4.33841185,11.1310225 Z M10.0726098,11.9549575 C11.1276084,11.9549575 11.8312599,11.798975 12.1815511,11.4925338 C12.5299632,11.1877049 12.7071702,10.5696463 12.7071702,9.63733898 L12.7071702,8.35406052 C12.7071702,7.87692695 12.8423672,7.46399808 13.1126767,7.11707975 C13.1453507,7.07514553 13.2783218,6.89408182 13.3127524,6.85217432 C13.4720634,6.65826798 13.6345803,6.59090687 13.95,6.64090687 L14,5.77339413 C13.5764118,5.77339413 13.4024252,5.70991873 13.233532,5.51871839 C13.2017076,5.48269068 13.0853943,5.33781852 13.0750936,5.32539476 C12.8291028,5.02870516 12.7071702,4.59626015 12.7071702,4.02946957 L12.7071702,2.36119631 C12.7071702,1.42897069 12.5299779,0.812011805 12.1816797,0.509343468 C11.8313646,0.204954073 11.1276346,0.05 10.0726098,0.05 L9.71158815,0 L9.66158815,0.867512738 L10.1111431,0.867512738 C10.7229117,0.867512738 11.1249035,0.963250373 11.3189658,1.16167862 C11.5126961,1.35980731 11.6061787,1.76742293 11.6061787,2.38688516 L11.6061787,4.10646102 C11.6061787,4.84632446 11.7500942,5.33914259 12.032259,5.58629688 C12.0875846,5.63485705 12.0875846,5.63485705 12.1408406,5.68065231 C12.4411769,5.93570959 12.7116746,6.04862647 13.3572361,6.23503348 C12.7429253,6.30777752 12.4771818,6.41726707 12.1868895,6.66927785 C12.1517991,6.69974073 12.1212616,6.72729202 12.0522073,6.7902028 C11.756349,7.05909929 11.6061787,7.55190962 11.6061787,8.27064685 L11.6061787,9.61168768 C11.6061787,10.2355643 11.5126965,10.6442779 11.3187594,10.8402964 C11.1247108,11.0364277 10.7228541,11.1310225 10.1111431,11.1310225 L9.71158815,11.0810225 L9.71158815,11.9549575 L10.0726098,11.9549575 Z"/>
      <path d="M5.73834103,11.8424276 C5.83367055,11.8698902 5.92446029,11.8203789 5.94590763,11.733291 L8.86390698,0.57058122 C8.88777612,0.479503314 8.82219329,0.375851307 8.71142379,0.345431011 L8.03106352,0.158537603 C7.92136608,0.128004988 7.8179718,0.182082447 7.79467358,0.270961536 L4.96598423,11.4411773 C4.94378249,11.5313957 5.0040214,11.6309696 5.10299034,11.6594807 L5.73834103,11.8424276 Z" transform="rotate(-3 6.915 6)"/>
    </g>
  </g>
</svg>
