<svg xmlns="http://www.w3.org/2000/svg" width="24" height="24" viewBox="0 0 24 24">
  <g fill="none">
    <path fill="#69C" d="M12,24 C5.372583,24 0,18.627417 0,12 C0,5.372583 5.372583,0 12,0 C18.627417,0 24,5.372583 24,12 C24,18.627417 18.627417,24 12,24 Z M12,23 C18.0751322,23 23,18.0751322 23,12 C23,5.92486775 18.0751322,1 12,1 C5.92486775,1 1,5.92486775 1,12 C1,18.0751322 5.92486775,23 12,23 Z"/>
    <g transform="translate(6 6)">
      <path stroke="#69C" d="M4.16349536,5.54969493 L0.962730164,5.54969493 C0.71415693,5.54969493 0.518242075,5.74560979 0.518242075,5.99418304 L0.518242075,11.0839244 C0.518242075,11.3324977 0.714156935,11.5284125 0.962730164,11.5284125 L4.16349536,11.5284125 C4.4120686,11.5284125 4.60798346,11.3324977 4.60798347,11.0839244 L4.61104161,5.99692724 C4.5848891,5.7615547 4.36455494,5.54969493 4.16349536,5.54969493 Z"/>
      <g fill="#69C" transform="translate(5.8 5)">
        <path d="M5.66692858 6L.524715616 6C.209886247 6 0 6.25 0 6.50000001 0 6.75000001.209886247 7.00000002.524715616 7L5.66692858 7C5.98175795 7 6.19164419 6.75 6.19164417 6.50000001 6.13917261 6.25 5.92928636 6 5.66692858 6M5.66692858 3L.524715616 3C.209886247 3 0 3.25 0 3.49999999 0 3.74999998.209886247 4 .524715616 4L5.66692858 4C5.98175795 4 6.19164419 3.75 6.19164417 3.49999999 6.13917261 3.19999998 5.92928636 2.99999998 5.66692858 3M5.66692858 0L.524715616 0C.209886247 0 0 .250000005 0 .49999999 0 .749999976.209886247 1 .524715616 1L5.66692858 1C5.98175795 1 6.19164419.749999995 6.19164417.49999999 6.13917261.199999984 5.92928636-1.95800782e-8 5.66692858 0"/>
      </g>
      <path stroke="#69C" d="M11.0372698,0.519246397 L0.962730164,0.519246397 C0.71415693,0.519246397 0.518242075,0.715161258 0.518242075,0.963734507 L0.518242075,3.22001162 C0.518242075,3.46858485 0.714156935,3.66449971 0.962730164,3.66449971 L11.0372698,3.66449971 C11.2858431,3.66449971 11.4817579,3.46858485 11.4817579,3.22001162 L11.4817579,0.911262945 C11.4817579,0.711571416 11.2817399,0.519246407 11.0372698,0.519246397 Z"/>
    </g>
  </g>
</svg>
