<svg xmlns="http://www.w3.org/2000/svg" width="48" height="36" viewBox="0 0 48 36">
  <g fill="none">
    <rect width="48" height="36" fill="#FFF" rx="2"/>
    <g fill="#009CE3" transform="translate(5.4 3)">
      <path d="M14.88,9.6472 C13.8527504,9.6472 13.02,10.4799504 13.02,11.5072 C13.02,12.5344496 13.8527504,13.3672 14.88,13.3672 C15.9072496,13.3672 16.74,12.5344496 16.74,11.5072 C16.74,10.4799504 15.9072496,9.6472 14.88,9.6472 Z"/>
      <path d="M28.954,8.494 C27.9399722,4.08884213 24.2472724,0.809207124 19.7532,0.3224 L19.6416,0.3224 C19.2944,0.3224 18.9472,0.3224 18.6,0.3224 C18.2528,0.3224 17.9056,0.3224 17.5584,0.3224 L17.4468,0.3224 C12.9527276,0.809207124 9.26002776,4.08884213 8.246,8.494 C2.98366041,9.70990236 -0.529635141,14.6796509 0.0793343715,20.0461947 C0.688303884,25.4127385 5.22581843,29.4689199 10.6268,29.4748 L26.5732,29.4748 C31.9741816,29.4689199 36.5116961,25.4127385 37.1206656,20.0461947 C37.7296351,14.6796509 34.2163396,9.70990236 28.954,8.494 Z M10.6268,26.8212 C6.74974504,26.8093599 3.44319344,24.010303 2.79142097,20.1884072 C2.1396485,16.3665113 4.3316064,12.6297582 7.9856,11.3336 C8.1468,18.2776 11.7056,23.4608 18.6248,26.8212 L10.6268,26.8212 Z M10.6268,11.6684 L8.7544,10.0688 L10.8748,9.0272 C11.7781411,5.47964795 14.9399294,2.97254782 18.6,2.9016 C22.9701839,2.98095718 26.4938428,6.50461609 26.5732,10.8748 L26.5732,26.8212 C12.6852,23.374 10.8128,16.12 10.6392,11.6684 L10.6268,11.6684 Z M29.2268,26.3624 L29.2268,11.3336 C32.4083688,12.4622279 34.5343461,15.472177 34.5343461,18.848 C34.5343461,22.223823 32.4083688,25.2337721 29.2268,26.3624 Z"/>
    </g>
  </g>
</svg>
