<svg xmlns="http://www.w3.org/2000/svg" width="48" height="36" viewBox="0 0 48 36">
  <defs>
    <linearGradient id="bitbucket-a" x1="108.654%" x2="46.979%" y1="13.888%" y2="78.803%">
      <stop offset="18%" stop-color="#0052CC"/>
      <stop offset="100%" stop-color="#2684FF"/>
    </linearGradient>
  </defs>
  <g fill="none">
    <rect width="48" height="36" fill="#FFF"/>
    <g transform="translate(8 4)">
      <polygon points="12.163 18.325 18.582 18.325 20.146 9.268 10.458 9.268"/>
      <path fill="#2684FF" d="M1.00381594,0 C0.443546577,0 0,0.42020202 0,0.98047138 C0,1.02716049 0,1.09719416 0.0233445567,1.14388328 L4.2020202,26.4960718 C4.31874299,27.1263749 4.85566779,27.6166105 5.50931538,27.6166105 L25.538945,27.6166105 C26.0291807,27.6166105 26.4493827,27.2664422 26.5194164,26.7995511 L30.698092,1.16722783 C30.7914703,0.63030303 30.4179574,0.116722783 29.8810325,0.0466891134 C29.8343434,0.0466891134 29.7643098,0.0233445567 29.7176207,0.0233445567 L1.00381594,0 Z M18.5822671,18.325477 L12.1858586,18.325477 L10.4583614,9.267789 L20.1463524,9.267789 L18.5822671,18.325477 Z"/>
      <path fill="url(#bitbucket-a)" d="M29.3674523,9.267789 L20.1463524,9.267789 L18.6056117,18.325477 L12.1858586,18.325477 L4.62222222,27.2897868 C4.85566779,27.4998878 5.15914703,27.6166105 5.48597082,27.6166105 L25.538945,27.6166105 C26.0291807,27.6166105 26.4493827,27.2664422 26.5194164,26.7995511 L29.3674523,9.267789 Z"/>
    </g>
  </g>
</svg>
