<svg xmlns="http://www.w3.org/2000/svg" width="48" height="36" viewBox="0 0 48 36">
  <g fill="none">
    <rect width="48" height="36" fill="#FFF" rx="2"/>
    <g fill="#205081" transform="translate(8 4)">
      <path d="M21.9957513,18.2868966 C21.6085022,17.5144828 21.1438032,16.742069 20.6016544,15.9503448 C20.2144053,15.3903448 19.8077937,14.8303448 19.3624571,14.2896552 C19.188195,14.0772414 19.2656449,13.8068966 19.4011821,13.6717241 L19.8077937,13.2662069 C21.6665895,11.3737931 23.5834728,9.42344828 25.0550195,7.31862069 C26.6233786,5.07862069 27.4946891,2.95448276 27.7076762,0.753103448 C27.7270386,0.540689655 27.6302263,0.308965517 27.4559642,0.173793103 C27.3397895,0.0772413793 27.2042523,0.0386206897 27.0493526,0.0386206897 C26.9719028,0.0386206897 26.894453,0.0579310345 26.8170031,0.0772413793 C25.3841813,0.617931034 23.9513595,1.04275862 22.6153499,1.33241379 C22.3442755,1.39034483 22.1312885,1.60275862 22.0344762,1.83448276 C21.0663534,4.46068966 18.6073213,6.97103448 16.0321145,9.59724138 C15.9353022,9.6937931 15.7804026,9.82896552 15.5480531,9.82896552 C15.3157036,9.82896552 15.1608039,9.71310345 15.0639917,9.59724138 C12.4887849,6.97103448 10.0297528,4.48 9.06162994,1.83448276 C8.96481765,1.60275862 8.75183063,1.39034483 8.48075623,1.33241379 C7.16410914,1.02344828 5.71192486,0.579310345 4.27910303,0.0386206897 C4.2016532,0 4.12420337,0 4.04675354,0 C3.91121634,0 3.75631668,0.0386206897 3.64014194,0.135172414 C3.46587983,0.270344828 3.36906754,0.502068966 3.38843,0.714482759 C3.60141703,2.89655172 4.4727276,5.05931034 6.04108663,7.29931034 C7.51263337,9.40413793 9.42951663,11.3544828 11.2883125,13.2468966 C14.7154674,16.7227586 17.9296353,20.0055172 18.2200722,23.8096552 C18.2406,24.1570945 18.529415,24.4281888 18.8783957,24.4275862 L22.8864243,24.4275862 C23.0606865,24.4275862 23.2349486,24.3503448 23.3704858,24.2151724 C23.4866605,24.08 23.5641103,23.9062069 23.5447479,23.7324138 C23.506023,23.017931 23.4092107,22.3034483 23.2349486,21.5696552 L23.2349486,21.5117241 C23.2349486,21.3572414 23.3511233,21.2413793 23.506023,21.2413793 L23.5447479,21.2413793 C26.8170031,21.7241379 28.888786,22.4772414 28.9081485,23.3268966 C28.9081485,24.1186207 27.0493526,25.3158621 24.0094469,26.2041379 C23.7383725,26.2813793 23.5447479,26.5324138 23.5447479,26.8027586 C23.5447479,27.1503448 23.8351847,27.44 24.183709,27.44 C24.2417963,27.44 24.2805213,27.44 24.3192462,27.4206897 C28.3853622,26.4744828 31.0961062,24.9103448 31.0961062,23.1144828 C31.0767437,21.0289655 27.4366018,19.1558621 21.9957513,18.2868966 Z M11.2302251,16.24 C11.1527753,16.1627586 10.9785132,16.0468966 10.7655262,16.0468966 C10.4750893,16.0468966 10.2814647,16.24 10.2233774,16.3365517 C9.77804085,16.9931034 9.41015417,17.6496552 9.0809924,18.3062069 C3.64014194,19.1558621 0,21.0482759 0,23.1531034 C0,24.9296552 2.67201909,26.5131034 6.75749754,27.4593103 C6.79622246,27.4786207 6.85430983,27.4786207 6.9123972,27.4786207 C7.26092143,27.4786207 7.55135828,27.1889655 7.55135828,26.8413793 C7.55135828,26.5517241 7.35773371,26.32 7.08665931,26.2427586 C4.066116,25.3544828 2.20732011,24.1572414 2.20732011,23.3655172 C2.20732011,22.5158621 4.27910303,21.7627586 7.55135828,21.28 L7.5900832,21.28 C7.74498286,21.28 7.8611576,21.3958621 7.8611576,21.5503448 L7.8611576,21.6082759 C7.68689548,22.3227586 7.5900832,23.0372414 7.55135828,23.7517241 C7.55135828,23.9255172 7.60944566,24.1186207 7.7256204,24.2344828 C7.84179514,24.3696552 8.01605726,24.4468966 8.20968183,24.4468966 L12.198348,24.4468966 C12.5468722,24.4468966 12.8373091,24.1765517 12.8566715,23.8289655 C12.9534838,22.6510345 13.3020081,21.4924138 13.9796941,20.2565517 C14.2120435,19.8317241 14.0377814,19.4262069 13.9022442,19.2524138 C13.2439207,18.4027586 12.4306975,17.4758621 11.2302251,16.24 Z"/>
      <path d="M15.0833541,6.3337931 C15.2382538,6.48827586 15.4125159,6.50758621 15.5480531,6.50758621 C15.6642278,6.50758621 15.8578524,6.48827586 16.0127521,6.3337931 C17.4262114,4.96275862 18.1813473,3.36 18.3556094,2.91586207 C18.3749718,2.85793103 18.4136967,2.78068966 18.4136967,2.66482759 C18.4136967,2.31724138 18.1232599,2.04689655 17.8134606,2.04689655 C17.5617486,2.04689655 16.8259753,2.12413793 15.5674155,2.12413793 C14.3088558,2.12413793 13.5730825,2.04689655 13.3213705,2.04689655 C13.0115712,2.04689655 12.7211343,2.29793103 12.7211343,2.66482759 C12.7211343,2.76137931 12.7404968,2.83862069 12.7792217,2.91586207 C12.8953965,3.36 13.6698947,4.96275862 15.0833541,6.3337931 Z"/>
    </g>
  </g>
</svg>
