<svg xmlns="http://www.w3.org/2000/svg" width="48" height="36" viewBox="0 0 48 36">
  <g fill="none">
    <rect width="48" height="36" fill="#FFF" rx="2"/>
    <g fill="#0F4F72" transform="translate(4 3)">
      <path d="M2.47962,10.880345 L6.46602,10.880345 L6.46602,14.9328733 L2.47962,14.9328733 L2.47962,10.8817251 L2.47962,10.880345 Z M7.3722,10.880345 L11.3586,10.880345 L11.3586,14.9328733 L7.3722,14.9328733 L7.3722,10.8817251 L7.3722,10.880345 Z M7.3722,5.6858221 L11.3586,5.6858221 L11.3586,9.73628032 L7.3722,9.73628032 L7.3722,5.6858221 Z M12.2628,10.880345 L16.25118,10.880345 L16.25118,14.9328733 L12.2628,14.9328733 L12.2628,10.8817251 L12.2628,10.880345 Z M12.2628,5.6858221 L16.25118,5.6858221 L16.25118,9.73628032 L12.2628,9.73628032 L12.2628,5.6858221 Z M17.15538,10.880345 L21.1431,10.880345 L21.1431,14.9328733 L17.15538,14.9328733 L17.15538,10.8817251 L17.15538,10.880345 Z M17.15538,5.6858221 L21.1431,5.6858221 L21.1431,9.73628032 L17.15538,9.73628032 L17.15538,5.6858221 Z M22.0473,10.880345 L26.03502,10.880345 L26.03502,14.9328733 L22.0473,14.9328733 L22.0473,10.8817251 L22.0473,10.880345 Z M17.15538,0.488539084 L21.1431,0.488539084 L21.1431,4.54037736 L17.15538,4.54037736 L17.15538,0.488539084 Z M8.04804,20.7836119 C7.43424,20.7836119 6.9366,21.2894016 6.9366,21.912496 C6.9366,22.5349003 7.4349,23.04069 8.04804,23.04069 C8.66052,23.04069 9.15882,22.5355903 9.15882,21.913186 C9.15882,21.2900916 8.66052,20.7836119 8.04804,20.7836119 Z"/>
      <path d="M38.8773,12.9766469 C37.5375,12.1913962 35.7555,12.083752 34.2375,12.5377898 C34.05072,10.8975957 32.9901,9.46026954 31.7295,8.4300593 L31.22922,8.02087332 L30.80814,8.51493261 C29.96334,9.50719137 29.71254,11.1577358 29.82672,12.4246253 C29.91252,13.3561617 30.19962,14.3028787 30.76392,15.0508679 C30.33492,15.3130782 29.84784,15.5214663 29.41422,15.6718922 C28.52982,15.975504 27.56952,16.1445606 26.63562,16.1445606 L0.40458,16.1445606 L0.34848,16.7586846 C0.16038,18.8094447 0.43692,20.8622749 1.27116,22.7343181 L1.6302,23.4781671 L1.67112,23.5471698 C4.13754,27.8046361 8.46912,29.5973261 13.18944,29.5973261 C22.3278,29.5973261 29.86434,25.4502642 33.32604,16.6883019 C35.63934,16.8111267 38.00544,16.1155795 39.13734,13.8709218 L39.42576,13.2981995 L38.87664,12.9766469 L38.8773,12.9766469 Z M8.0487,24.0557197 C6.88446,24.0557197 5.93802,23.0938221 5.93802,21.912496 C5.93802,20.7304798 6.88446,19.7685822 8.04804,19.7685822 C9.21162,19.7685822 10.15806,20.7297898 10.15806,21.9118059 C10.15806,23.0931321 9.21228,24.0550296 8.0487,24.0550296 L8.0487,24.0557197 Z"/>
    </g>
  </g>
</svg>
