<svg xmlns="http://www.w3.org/2000/svg" width="48" height="29" viewBox="0 0 48 29">
  <g fill="none" transform="translate(0 -4)">
    <rect width="47" height="35" x=".5" y=".5" fill="#FFF" stroke="#979797" opacity="0" rx="2"/>
    <g transform="translate(0 4)">
      <path fill="#364548" d="M27.654,8.54497656 L31.941375,8.54497656 L31.941375,12.912571 L34.1090625,12.912571 C35.1103125,12.912571 36.139875,12.7348776 37.087875,12.4148053 C37.5538125,12.2572917 38.0765625,12.0383047 38.536125,11.7627025 C37.930875,10.975321 37.621875,9.98109766 37.531125,9.00107487 C37.407375,7.66790755 37.677375,5.93282813 38.582625,4.88946354 L39.033375,4.37002344 L39.570375,4.80033659 C40.9224375,5.8827526 42.059625,7.39548177 42.2600625,9.11991081 C43.888125,8.64269857 45.7996875,8.75555534 47.234625,9.58086719 L47.823375,9.9194375 L47.513625,10.5222122 C46.2999375,12.8824883 43.7625,13.6138151 41.281875,13.4843288 C37.5699375,22.6976641 29.4885,27.0594661 19.6899375,27.0594661 C14.6274375,27.0594661 9.9830625,25.1735996 7.3381875,20.6978197 L7.294875,20.6249486 L6.9095625,19.8435462 C6.0155625,17.8734108 5.7185625,15.7151185 5.9199375,13.5585078 L5.9805,12.912571 L9.646875,12.912571 L9.646875,8.54497656 L13.9340625,8.54497656 L13.9340625,4.27248828 L22.509,4.27248828 L22.509,0 L27.654,0 L27.654,8.54497656 Z"/>
      <path fill="#22A0C8" d="M41.544375,10.1608464 C41.8318125,7.93435417 40.159875,6.18563477 39.123,5.35527799 C37.9280625,6.73198112 37.7424375,10.3400345 39.6170625,11.8591165 C38.5708125,12.78514 36.366375,13.6244655 34.1090625,13.6244655 L6.631875,13.6244655 C6.4125,15.9725964 6.826125,18.1349993 7.7709375,19.9857383 L8.0835,20.5556276 C8.28140864,20.8901222 8.49767439,21.213488 8.7313125,21.5242526 C9.861,21.5965632 10.9025625,21.6214141 11.8554375,21.600487 L11.8558125,21.600487 C13.728375,21.5593802 15.2563125,21.3388984 16.4143125,20.9390417 C16.5844977,20.8862879 16.7659817,20.9776471 16.8243586,21.1454593 C16.8827355,21.3132716 16.7969349,21.4969667 16.6305,21.5605013 C16.476375,21.6139401 16.315875,21.6636419 16.150125,21.7109147 L16.1495625,21.7109147 C15.23775,21.9704479 14.2599375,22.1449648 12.9984375,22.2225072 C13.0734375,22.2238151 12.9204375,22.2337181 12.9200625,22.2337181 C12.877125,22.2365208 12.823125,22.2426868 12.78,22.244929 C12.2835,22.2727695 11.747625,22.2785618 11.19975,22.2785618 C10.6005,22.2785618 10.0104375,22.2673509 9.350625,22.2337181 L9.33375,22.244929 C11.623125,24.8092441 15.202875,26.3471979 19.690125,26.3471979 C29.186625,26.3471979 37.241625,22.1520651 40.808625,12.7339434 C43.339125,12.9927292 45.7711875,12.3495951 46.8774375,10.1974688 C45.1153125,9.18418685 42.8491875,9.5072487 41.544375,10.1608464"/>
      <path fill="#37B1D9" d="M41.544375,10.1608464 C41.8318125,7.93435417 40.159875,6.18563477 39.123,5.35527799 C37.9280625,6.73198112 37.7424375,10.3400345 39.6170625,11.8591165 C38.5708125,12.78514 36.366375,13.6244655 34.1090625,13.6244655 L8.259,13.6244655 C8.146875,17.2205605 9.486,19.950237 11.85525,21.600487 L11.8558125,21.600487 C13.728375,21.5593802 15.2563125,21.3388984 16.4143125,20.9390417 C16.5844977,20.8862879 16.7659817,20.9776471 16.8243586,21.1454593 C16.8827355,21.3132716 16.7969349,21.4969667 16.6305,21.5605013 C16.476375,21.6139401 16.315875,21.6636419 16.150125,21.7109147 L16.1495625,21.7109147 C15.23775,21.9704479 14.1759375,22.1673867 12.9144375,22.244929 C12.9140625,22.244929 12.883875,22.2159674 12.8835,22.2159674 C16.1154375,23.8680859 20.801625,23.8621068 26.1744375,21.8054603 C32.1988125,19.4989967 37.804875,15.1050566 41.7163125,10.0793802 C41.6574375,10.1059128 41.6000625,10.1330059 41.544375,10.1608464"/>
      <path fill="#1B81A5" d="M6.6834375,16.4774622 C6.8540625,17.7353294 7.2234375,18.9130384 7.7709375,19.9857383 L8.0835,20.5556276 C8.28137506,20.8901432 8.49764202,21.2135108 8.7313125,21.5242526 C9.8611875,21.5965632 10.90275,21.6214141 11.8558125,21.600487 C13.728375,21.5593802 15.2563125,21.3388984 16.4143125,20.9390417 C16.5844977,20.8862879 16.7659817,20.9776471 16.8243586,21.1454593 C16.8827355,21.3132716 16.7969349,21.4969667 16.6305,21.5605013 C16.476375,21.6139401 16.315875,21.6636419 16.150125,21.7109147 L16.1495625,21.7109147 C15.23775,21.9704479 14.1815625,22.1561758 12.9200625,22.2339049 C12.87675,22.2365208 12.8011875,22.2370814 12.7575,22.2395104 C12.261375,22.2671641 11.7309375,22.2841673 11.182875,22.2841673 C10.5838125,22.2841673 9.9710625,22.2727695 9.311625,22.2393236 C11.601,24.8036387 15.202875,26.3471979 19.690125,26.3471979 C27.820125,26.3471979 34.893375,23.2720378 38.9986875,16.4774622 L6.6834375,16.4774622"/>
      <path fill="#1D91B4" d="M8.5063125,16.4774622 C8.9923125,18.6860169 10.16025,20.4197884 11.8558125,21.600487 C13.728375,21.5593802 15.2563125,21.3388984 16.4143125,20.9390417 C16.5844977,20.8862879 16.7659817,20.9776471 16.8243586,21.1454593 C16.8827355,21.3132716 16.7969349,21.4969667 16.6305,21.5605013 C16.476375,21.6139401 16.315875,21.6636419 16.150125,21.7109147 L16.1495625,21.7109147 C15.23775,21.9704479 14.15925,22.1561758 12.8975625,22.2339049 C16.1293125,23.8856497 20.802,23.8619199 26.1744375,21.8054603 C29.4245625,20.5610462 32.552625,18.7086257 35.3589375,16.4774622 L8.5063125,16.4774622"/>
      <path fill="#23A3C2" d="M10.36125,9.25705794 L14.077125,9.25705794 L14.077125,12.9600306 L10.36125,12.9600306 L10.36125,9.25705794 Z M10.6708125,9.56573242 L10.9640625,9.56573242 L10.9640625,12.651543 L10.6708125,12.651543 L10.6708125,9.56573242 Z M11.2220625,9.56573242 L11.527125,9.56573242 L11.527125,12.651543 L11.22225,12.651543 L11.22225,9.56573242 L11.2220625,9.56573242 Z M11.7849375,9.56573242 L12.09,9.56573242 L12.09,12.651543 L11.7849375,12.651543 L11.7849375,9.56573242 Z M12.3481875,9.56573242 L12.6530625,9.56573242 L12.6530625,12.651543 L12.3481875,12.651543 L12.3481875,9.56573242 Z M12.91125,9.56573242 L13.216125,9.56573242 L13.216125,12.651543 L12.91125,12.651543 L12.91125,9.56573242 Z M13.474125,9.56573242 L13.7675625,9.56573242 L13.7675625,12.651543 L13.474125,12.651543 L13.474125,9.56573242 Z M14.648625,4.98456966 L18.3646875,4.98456966 L18.3646875,8.68735547 L14.6484375,8.68735547 L14.6484375,4.98456966 L14.648625,4.98456966 Z M14.958375,5.29324414 L15.2514375,5.29324414 L15.2514375,8.37886784 L14.958375,8.37886784 L14.958375,5.29324414 Z M15.509625,5.29324414 L15.8145,5.29324414 L15.8145,8.37886784 L15.5098125,8.37886784 L15.5098125,5.29324414 L15.509625,5.29324414 Z M16.0725,5.29324414 L16.377375,5.29324414 L16.377375,8.37886784 L16.0725,8.37886784 L16.0725,5.29324414 Z M16.6355625,5.29324414 L16.9404375,5.29324414 L16.9404375,8.37886784 L16.6355625,8.37886784 L16.6355625,5.29324414 Z M17.198625,5.29324414 L17.5036875,5.29324414 L17.5036875,8.37886784 L17.198625,8.37886784 L17.198625,5.29324414 Z M17.7615,5.29324414 L18.055125,5.29324414 L18.055125,8.37886784 L17.7615,8.37886784 L17.7615,5.29324414 Z"/>
      <path fill="#34BBDE" d="M14.648625,9.25705794 L18.3646875,9.25705794 L18.3646875,12.9600306 L14.6484375,12.9600306 L14.6484375,9.25705794 L14.648625,9.25705794 Z M14.958375,9.56573242 L15.2514375,9.56573242 L15.2514375,12.651543 L14.958375,12.651543 L14.958375,9.56573242 Z M15.509625,9.56573242 L15.8145,9.56573242 L15.8145,12.651543 L15.5098125,12.651543 L15.5098125,9.56573242 L15.509625,9.56573242 Z M16.0725,9.56573242 L16.377375,9.56573242 L16.377375,12.651543 L16.0725,12.651543 L16.0725,9.56573242 Z M16.6355625,9.56573242 L16.9404375,9.56573242 L16.9404375,12.651543 L16.6355625,12.651543 L16.6355625,9.56573242 Z M17.198625,9.56573242 L17.5036875,9.56573242 L17.5036875,12.651543 L17.198625,12.651543 L17.198625,9.56573242 Z M17.7615,9.56573242 L18.055125,9.56573242 L18.055125,12.651543 L17.7615,12.651543 L17.7615,9.56573242 Z"/>
      <path fill="#23A3C2" d="M18.9361875,9.25705794 L22.6520625,9.25705794 L22.6520625,12.9600306 L18.9361875,12.9600306 L18.9361875,9.25705794 Z M19.24575,9.56573242 L19.5388125,9.56573242 L19.5388125,12.651543 L19.24575,12.651543 L19.24575,9.56573242 Z M19.797,9.56573242 L20.101875,9.56573242 L20.101875,12.651543 L19.797,12.651543 L19.797,9.56573242 Z M20.3600625,9.56573242 L20.6649375,9.56573242 L20.6649375,12.651543 L20.3600625,12.651543 L20.3600625,9.56573242 Z M20.923125,9.56573242 L21.228,9.56573242 L21.228,12.651543 L20.923125,12.651543 L20.923125,9.56573242 Z M21.486,9.56573242 L21.79125,9.56573242 L21.79125,12.651543 L21.486,12.651543 L21.486,9.56573242 Z M22.0490625,9.56573242 L22.3423125,9.56573242 L22.3423125,12.651543 L22.0490625,12.651543 L22.0490625,9.56573242 Z"/>
      <path fill="#34BBDE" d="M18.9361875,4.98456966 L22.6520625,4.98456966 L22.6520625,8.68735547 L18.9361875,8.68735547 L18.9361875,4.98456966 Z M19.24575,5.29324414 L19.5388125,5.29324414 L19.5388125,8.37886784 L19.24575,8.37886784 L19.24575,5.29324414 Z M19.797,5.29324414 L20.101875,5.29324414 L20.101875,8.37886784 L19.797,8.37886784 L19.797,5.29324414 Z M20.3600625,5.29324414 L20.6649375,5.29324414 L20.6649375,8.37886784 L20.3600625,8.37886784 L20.3600625,5.29324414 Z M20.923125,5.29324414 L21.228,5.29324414 L21.228,8.37886784 L20.923125,8.37886784 L20.923125,5.29324414 Z M21.486,5.29324414 L21.79125,5.29324414 L21.79125,8.37886784 L21.486,8.37886784 L21.486,5.29324414 Z M22.0490625,5.29324414 L22.3423125,5.29324414 L22.3423125,8.37886784 L22.0490625,8.37886784 L22.0490625,5.29324414 Z M23.2235625,9.25705794 L26.9394375,9.25705794 L26.9394375,12.9600306 L23.2235625,12.9600306 L23.2235625,9.25705794 Z M23.5333125,9.56573242 L23.826375,9.56573242 L23.826375,12.651543 L23.5333125,12.651543 L23.5333125,9.56573242 Z M24.0845625,9.56573242 L24.3894375,9.56573242 L24.3894375,12.651543 L24.0845625,12.651543 L24.0845625,9.56573242 Z M24.6474375,9.56573242 L24.9523125,9.56573242 L24.9523125,12.651543 L24.6474375,12.651543 L24.6474375,9.56573242 Z M25.2105,9.56573242 L25.5155625,9.56573242 L25.5155625,12.651543 L25.2105,12.651543 L25.2105,9.56573242 Z M25.7735625,9.56573242 L26.078625,9.56573242 L26.078625,12.651543 L25.7735625,12.651543 L25.7735625,9.56573242 Z M26.336625,9.56573242 L26.629875,9.56573242 L26.629875,12.651543 L26.336625,12.651543 L26.336625,9.56573242 Z"/>
      <path fill="#23A3C2" d="M23.2235625,4.98456966 L26.9394375,4.98456966 L26.9394375,8.68735547 L23.2235625,8.68735547 L23.2235625,4.98456966 Z M23.5333125,5.29324414 L23.826375,5.29324414 L23.826375,8.37886784 L23.5333125,8.37886784 L23.5333125,5.29324414 Z M24.0845625,5.29324414 L24.3894375,5.29324414 L24.3894375,8.37886784 L24.0845625,8.37886784 L24.0845625,5.29324414 Z M24.6474375,5.29324414 L24.9523125,5.29324414 L24.9523125,8.37886784 L24.6474375,8.37886784 L24.6474375,5.29324414 Z M25.2105,5.29324414 L25.5155625,5.29324414 L25.5155625,8.37886784 L25.2105,8.37886784 L25.2105,5.29324414 Z M25.7735625,5.29324414 L26.078625,5.29324414 L26.078625,8.37886784 L25.7735625,8.37886784 L25.7735625,5.29324414 Z M26.336625,5.29324414 L26.629875,5.29324414 L26.629875,8.37886784 L26.336625,8.37886784 L26.336625,5.29324414 Z"/>
      <path fill="#34BBDE" d="M23.2235625,0.711894531 L26.9394375,0.711894531 L26.9394375,4.41524089 L23.2235625,4.41524089 L23.2235625,0.711894531 Z M23.5333125,1.02038216 L23.826375,1.02038216 L23.826375,4.10637956 L23.5333125,4.10637956 L23.5333125,1.02019531 L23.5333125,1.02038216 Z M24.0845625,1.02038216 L24.3894375,1.02038216 L24.3894375,4.10637956 L24.0845625,4.10637956 L24.0845625,1.02019531 L24.0845625,1.02038216 Z M24.6474375,1.02038216 L24.9523125,1.02038216 L24.9523125,4.10637956 L24.6474375,4.10637956 L24.6474375,1.02019531 L24.6474375,1.02038216 Z M25.2105,1.02038216 L25.5155625,1.02038216 L25.5155625,4.10637956 L25.2105,4.10637956 L25.2105,1.02019531 L25.2105,1.02038216 Z M25.7735625,1.02038216 L26.078625,1.02038216 L26.078625,4.10637956 L25.7735625,4.10637956 L25.7735625,1.02019531 L25.7735625,1.02038216 Z M26.336625,1.02038216 L26.629875,1.02038216 L26.629875,4.10637956 L26.336625,4.10637956 L26.336625,1.02019531 L26.336625,1.02038216 Z"/>
      <path fill="#23A3C2" d="M27.5109375,9.25705794 L31.2268125,9.25705794 L31.2268125,12.9600306 L27.5109375,12.9600306 L27.5109375,9.25705794 Z M27.8203125,9.56573242 L28.11375,9.56573242 L28.11375,12.651543 L27.8205,12.651543 L27.8205,9.56573242 L27.8203125,9.56573242 Z M28.3715625,9.56573242 L28.676625,9.56573242 L28.676625,12.651543 L28.37175,12.651543 L28.37175,9.56573242 L28.3715625,9.56573242 Z M28.9348125,9.56573242 L29.239875,9.56573242 L29.239875,12.651543 L28.9348125,12.651543 L28.9348125,9.56573242 Z M29.4976875,9.56573242 L29.80275,9.56573242 L29.80275,12.651543 L29.4976875,12.651543 L29.4976875,9.56573242 Z M30.0609375,9.56573242 L30.3658125,9.56573242 L30.3658125,12.651543 L30.0609375,12.651543 L30.0609375,9.56573242 Z M30.6238125,9.56573242 L30.9170625,9.56573242 L30.9170625,12.651543 L30.6238125,12.651543 L30.6238125,9.56573242 Z"/>
      <path fill="#D3ECEC" d="M18.132,18.9636745 C18.5015577,18.9587616 18.8451654,19.152443 19.0313432,19.470607 C19.2175209,19.7887711 19.2174487,20.1821669 19.0311542,20.5002631 C18.8448597,20.8183593 18.5011809,21.0119154 18.131625,21.0068678 C17.5708543,20.9992086 17.1203232,20.5439629 17.1204258,19.9850868 C17.1205284,19.4262108 17.5712265,18.9711293 18.132,18.9636745"/>
      <path fill="#364548" d="M18.132,19.2534772 C18.22575,19.2534772 18.3151875,19.271041 18.3976875,19.3029922 C18.2806492,19.3706998 18.2236828,19.5081833 18.2586889,19.6384538 C18.2936949,19.7687243 18.4119827,19.8594403 18.5473125,19.8598021 C18.66075,19.8598021 18.7591875,19.7972077 18.8101875,19.7045306 C18.9341657,20.0021505 18.848107,20.3455621 18.5982749,20.5501548 C18.3484427,20.7547476 17.9936897,20.7723259 17.7247232,20.5934399 C17.4557568,20.4145539 17.3359371,20.0813437 17.4296765,19.7729358 C17.523416,19.4645279 17.8086325,19.2535735 18.132,19.2534772 M0,16.8466758 L47.6863125,16.8466758 C46.648125,16.5843398 44.4013125,16.2297005 44.7718125,14.8735508 C42.8836875,17.0507148 38.330625,16.401041 37.1814375,15.3275937 C35.9019375,17.1770247 28.4525625,16.4739121 27.933,15.0331198 C26.32875,16.9092702 21.3579375,16.9092702 19.7536875,15.0331198 C19.23375,16.4739121 11.7845625,17.1770247 10.504875,15.3274069 C9.355875,16.401041 4.803,17.0507148 2.914875,14.8737376 C3.285375,16.2297005 1.0385625,16.5843398 0,16.8468626"/>
      <path fill="#BDD9D7" d="M20.8569375,26.3251497 C18.3181875,25.1246452 16.924875,23.4925195 16.1495625,21.7111016 C15.2064375,21.9792298 14.073,22.1507572 12.7558125,22.2243757 C12.2596875,22.2520293 11.7376875,22.2662298 11.1901875,22.2662298 C10.5586875,22.2662298 9.89325,22.2475449 9.194625,22.2107357 C11.5228125,24.5295313 14.386875,26.3146862 19.690125,26.3471979 C20.081625,26.3471979 20.470125,26.339724 20.8569375,26.3251497"/>
      <path fill="#D3ECEC" d="M17.0925,23.3549987 C16.7413125,22.8798418 16.400625,22.2826725 16.150125,21.7107279 C15.207,21.9792298 14.0731875,22.1507572 12.7558125,22.2245625 C13.6606875,22.7139199 14.954625,23.1674023 17.0926875,23.3549987"/>
    </g>
    <g transform="translate(29.4 21)">
      <path fill="#FFF" d="M0.956710024,4.34710757 C0.956710024,3.17832738 1.4096976,2.143194 2.27164523,1.32042327 C3.12114374,0.509538321 4.17104175,0.0909090909 5.35065011,0.0909090909 C6.53025723,0.0909090909 7.58015516,0.509538513 8.42965472,1.32042447 C9.29160139,2.14319385 9.74458959,3.17832734 9.74458959,4.34710757 L9.74458959,4.57438318 C9.833716,4.63561766 9.91871283,4.7046098 9.99891124,4.78116283 C10.3937066,5.15800845 10.6103896,5.66031992 10.6103896,6.20661137 L10.6103896,9.92561985 C10.6103896,10.4719103 10.3937077,10.9742191 9.99891567,11.3510647 C9.616623,11.7159794 9.12530633,11.9090909 8.59740323,11.9090909 L2.10389608,11.9090909 C1.5759924,11.9090909 1.08467411,11.7159792 0.70238185,11.3510636 C0.30759099,10.974218 0.0909090909,10.47191 0.0909090909,9.92561985 L0.0909090909,6.20661137 C0.0909090909,5.66032032 0.307592099,5.15800957 0.702379781,4.78117016 C0.78258106,4.70461412 0.867580761,4.63561957 0.956710024,4.57438323 L0.956710024,4.34710757 Z"/>
      <path fill="#2A8CAE" d="M3.61904703,5.58677725 L7.08225167,5.58677725 L7.08225167,4.34710757 C7.08225167,3.89083771 6.91315167,3.50129204 6.5749456,3.17846041 C6.23674104,2.85562878 5.82864558,2.69421514 5.35065011,2.69421514 C4.87265313,2.69421514 4.46455766,2.85562878 4.1263531,3.17846041 C3.78814703,3.50129204 3.61904703,3.89083771 3.61904703,4.34710757 L3.61904703,5.58677725 Z M9.24675325,6.20661137 L9.24675325,9.92561985 C9.24675325,10.097797 9.18362294,10.2441455 9.0573593,10.3646694 C8.93109566,10.4851934 8.77777899,10.5454545 8.59740323,10.5454545 L2.10389608,10.5454545 C1.92352001,10.5454545 1.77020258,10.4851934 1.6439394,10.3646694 C1.51767614,10.2441455 1.45454545,10.097797 1.45454545,9.92561985 L1.45454545,6.20661137 C1.45454545,6.03443451 1.51767614,5.88808533 1.6439394,5.76756239 C1.77020258,5.647038 1.92352001,5.58677725 2.10389608,5.58677725 L2.32034639,5.58677725 L2.32034639,4.34710757 C2.32034639,3.55509224 2.61796246,2.87500316 3.21320308,2.30681719 C3.808444,1.73863266 4.52091978,1.45454545 5.35065011,1.45454545 C6.18037892,1.45454545 6.8928547,1.73863266 7.48809562,2.30681719 C8.08333655,2.87500316 8.38095322,3.55509224 8.38095322,4.34710757 L8.38095322,5.58677725 L8.59740323,5.58677725 C8.77777899,5.58677725 8.93109566,5.647038 9.0573593,5.76756239 C9.18362294,5.88808533 9.24675325,6.03443451 9.24675325,6.20661137 Z"/>
    </g>
  </g>
</svg>
