<svg xmlns="http://www.w3.org/2000/svg" width="48" height="36" viewBox="0 0 48 36">
  <g fill="none">
    <rect width="48" height="36" fill="#FFF" opacity="0" rx="2"/>
    <g transform="translate(5.5 7)">
      <path fill="#609926" stroke="#428F29" d="M6.46169935,0.183939668 C3.62015887,0.175605832 -0.187511312,2.20727602 0.0232156863,7.2986546 C0.352402212,15.2538964 7.60016088,15.9920362 10.4976571,16.0560282 C10.8155334,17.5480825 14.2246677,22.6948215 16.7486295,22.9659688 L27.8064394,22.9659688 C34.4371966,22.4695103 39.4026747,0.41817999 35.7217979,0.334246355 C21.7977436,1.07149321 20.8411383,0.970594268 9.35115938,0.334246355 C8.60855505,0.326210156 7.57367119,0.186916038 6.46169935,0.183939668 Z M7.20311312,2.99899045 C7.60551835,7.07483157 8.26151031,9.45890397 9.58986425,13.1019809 C6.20215988,12.6540372 3.31865259,11.5468276 2.78856109,7.41413776 C2.5055083,5.20834992 3.49991352,2.89957969 7.20341076,2.99899045 L7.20311312,2.99899045 Z"/>
      <g fill="#FFF" transform="translate(14.584 .595)">
        <rect width="10.346" height="10.346" x="1.896" y="7.603" transform="rotate(25.915 7.07 12.777)"/>
        <polygon points="7.383 6.655 8.348 7.134 8.348 .076 7.376 .076"/>
      </g>
      <g fill="#609926" transform="translate(17.263 7.44)">
        <circle cx="3.772" cy="3.017" r="1.034" transform="rotate(-19.796 3.772 3.017)"/>
        <circle cx="1.552" cy="7.621" r="1.034" transform="rotate(-19.796 1.552 7.62)"/>
        <circle cx="5.202" cy="9.26" r="1.034" transform="rotate(-19.796 5.202 9.26)"/>
        <polygon points="4.625 .278 5.34 .627 1.78 7.919 1.065 7.57"/>
      </g>
      <path fill="#609926" d="M20.819403,10.8195732 L21.1819404,10.0840689 C21.3294923,10.1567987 23.0574871,10.9767421 23.3968212,11.1656191 C24.0249074,11.5152186 24.374375,11.8206195 24.4797177,12.2964866 C24.6097529,12.8838981 24.4797177,13.2674026 22.8255651,16.8532186 L22.0872635,16.4964124 C23.7288084,13.0997362 23.8136489,12.8873804 23.6817328,12.4821889 C23.5793372,12.2663956 23.8247761,12.2001574 20.819403,10.8195732 Z"/>
    </g>
  </g>
</svg>
