<svg xmlns="http://www.w3.org/2000/svg" width="47" height="36" viewBox="0 0 47 36">
  <g fill="none">
    <rect width="47" height="36" fill="#FFF" rx="2"/>
    <path fill="#DB0918" d="M36.7549661,15.2004602 L22.4442528,15.2004602 L22.4442528,15.2007861 C21.7571115,15.2007861 21.200023,15.7577288 21.199843,16.4448701 L21.1987024,19.5558947 L21.1983662,19.5558946 C21.1981862,20.2431632 21.7551816,20.8004503 22.4424501,20.8006303 C22.4425622,20.8006303 22.4426743,20.8006303 22.4427864,20.8006303 L31.1551218,20.8002215 L31.1551218,20.8002112 C31.8423903,20.8002054 32.3995362,21.3573421 32.399542,22.0446107 C32.399542,22.0446141 32.399542,22.0446176 32.399542,22.044621 L32.3995316,22.3557235 L32.3995316,22.6669193 C32.3995316,24.728725 30.7281078,26.4001488 28.6663021,26.4001488 L16.8434823,26.4001488 L16.8434823,26.4001145 C16.1563124,26.4001145 15.5992458,25.8430633 15.5992269,25.1558933 L15.5988667,13.3338454 L15.5987638,13.3338454 C15.5987069,11.2720397 17.2700847,9.60056981 19.3318904,9.60051297 C19.3319247,9.60051297 19.331959,9.60051297 19.3319933,9.60051297 L36.7514929,9.60061588 L36.7514929,9.59984382 C37.4384601,9.59984382 37.9954764,9.04317285 37.9959025,8.35620579 L37.9986041,5.24518118 L37.9993757,5.24518166 C37.9998019,4.55791321 37.4430063,4.0004265 36.7557379,4.00000024 C36.7554806,4.00000008 36.7552233,4 36.7549661,4 L19.3332282,4.00077157 L19.3332282,4.00082303 C14.178734,4.00082303 10.0001828,8.17935116 10.0001544,13.3338454 L10.0000069,30.7555833 L10,30.7555833 C9.99999621,31.4428519 10.5571344,31.9999962 11.244403,32 C11.2444053,32 11.2444076,32 11.2444098,32 L29.5996094,31.9999931 C34.2386724,31.9999931 37.9993759,28.2392896 37.9993759,23.6002267 L37.9993759,16.44487 C37.9993759,15.7576015 37.4422346,15.2004602 36.7549661,15.2004602 Z"/>
  </g>
</svg>
