<svg xmlns="http://www.w3.org/2000/svg" width="48" height="36" viewBox="0 0 48 36">
  <g fill="none">
    <rect width="48" height="36" fill="#FFF" rx="2"/>
    <path fill="#000" d="M7.77575758,18.3767974 C7.77575758,25.4412397 12.4158245,31.4345291 18.8502436,33.5487456 C19.659531,33.6967156 19.956727,33.2018937 19.956727,32.779552 C19.956727,32.398341 19.9416131,31.1387144 19.9347548,29.8027202 C15.4294421,30.7699178 14.4787961,27.9162272 14.4787961,27.9162272 C13.7421566,26.0681061 12.6807607,25.5767953 12.6807607,25.5767953 C11.2115459,24.5843926 12.7915106,24.6047072 12.7915106,24.6047072 C14.4177058,24.7175657 15.2739858,26.2524417 15.2739858,26.2524417 C16.7183072,28.696832 19.062345,27.9900868 19.9864466,27.5816644 C20.1317423,26.548131 20.5514999,25.8428906 21.0145667,25.4436222 C17.4177338,25.0392125 13.6364869,23.6682322 13.6364869,17.5417696 C13.6364869,15.7962244 14.2691079,14.369818 15.3051024,13.250136 C15.1369454,12.8473564 14.5826877,11.2211904 15.4619559,9.01881895 C15.4619559,9.01881895 16.8218178,8.58907875 19.9164658,10.6577756 C21.2081251,10.3033998 22.5935154,10.1258357 23.9697612,10.1198166 C25.346007,10.1258357 26.7324134,10.3033998 28.0266128,10.6577756 C31.1175776,8.58907875 32.4755345,9.01881895 32.4755345,9.01881895 C33.3569617,11.2211904 32.80245,12.8473564 32.634293,13.250136 C33.6725737,14.369818 34.3008764,15.796099 34.3008764,17.5417696 C34.3008764,23.6827784 30.5125172,25.0350744 26.9065397,25.4308316 C27.4873419,25.9270329 28.0048947,26.9001242 28.0048947,28.3917378 C28.0048947,30.5310339 27.9860976,32.2528789 27.9860976,32.779552 C27.9860976,33.2050287 28.2775783,33.7036126 29.0985503,33.5466138 C35.5294133,31.4300148 40.1636378,25.4388571 40.1636378,18.3767974 C40.1636378,9.54624447 32.9131999,2.38787879 23.9697612,2.38787879 C15.0272115,2.38787879 7.77575758,9.54624447 7.77575758,18.3767974 Z"/>
  </g>
</svg>
