<svg xmlns="http://www.w3.org/2000/svg" width="48" height="36" viewBox="0 0 48 36">
  <g fill="none">
    <rect width="48" height="36" fill="#FFF" rx="2"/>
    <g transform="translate(7 3)">
      <polygon fill="#E24329" points="16.631 30.639 22.731 11.839 10.531 11.839"/>
      <polygon fill="#FC6D26" points="16.631 30.639 10.531 11.839 1.982 11.839"/>
      <path fill="#FCA326" d="M1.98244744,11.8388772 L0.125584906,17.5517193 C-0.044851752,18.0727018 0.143525606,18.6475789 0.583072776,18.9619649 L16.6310296,30.6391579 L1.98244744,11.8388772 Z"/>
      <path fill="#E24329" d="M1.98244744,11.8388772 L10.5311914,11.8388772 L6.85334771,0.512 C6.66497035,-0.0718596491 5.83969811,-0.0718596491 5.65132075,0.512 L1.98244744,11.8388772 Z"/>
      <polygon fill="#FC6D26" points="16.631 30.639 22.731 11.839 31.28 11.839"/>
      <path fill="#FCA326" d="M31.2796119,11.8388772 L33.1364744,17.5517193 C33.3069111,18.0727018 33.1185337,18.6475789 32.6789865,18.9619649 L16.6310296,30.6391579 L31.2796119,11.8388772 Z"/>
      <path fill="#E24329" d="M31.2796119,11.8388772 L22.7308679,11.8388772 L26.4087116,0.512 C26.5970889,-0.0718596491 27.4223612,-0.0718596491 27.6107385,0.512 L31.2796119,11.8388772 Z"/>
    </g>
  </g>
</svg>
