<svg xmlns="http://www.w3.org/2000/svg" width="48" height="36" viewBox="0 0 48 36">
  <defs>
    <linearGradient id="harbor-a" x1="0%" y1="50.007%" y2="50.007%">
      <stop offset="0%" stop-color="#60B932"/>
      <stop offset="28.178%" stop-color="#60B932"/>
      <stop offset="100%" stop-color="#367C34"/>
    </linearGradient>
    <linearGradient id="harbor-b" x1="0%" y1="49.995%" y2="49.995%">
      <stop offset="0%" stop-color="#60B932"/>
      <stop offset="28.178%" stop-color="#60B932"/>
      <stop offset="100%" stop-color="#367C34"/>
    </linearGradient>
    <linearGradient id="harbor-c" x1=".001%" y1="49.99%" y2="49.99%">
      <stop offset="0%" stop-color="#60B932"/>
      <stop offset="28.178%" stop-color="#60B932"/>
      <stop offset="100%" stop-color="#367C34"/>
    </linearGradient>
    <linearGradient id="harbor-d" x1=".001%" x2="100.001%" y1="49.989%" y2="49.989%">
      <stop offset="0%" stop-color="#60B932"/>
      <stop offset="28.178%" stop-color="#60B932"/>
      <stop offset="100%" stop-color="#367C34"/>
    </linearGradient>
    <linearGradient id="harbor-e" x1="0%" y1="49.992%" y2="49.992%">
      <stop offset="0%" stop-color="#60B932"/>
      <stop offset="28.178%" stop-color="#60B932"/>
      <stop offset="100%" stop-color="#367C34"/>
    </linearGradient>
    <linearGradient id="harbor-f" x1=".641%" x2="93.148%" y1="99.546%" y2="10.089%">
      <stop offset="0%" stop-color="#4596D8"/>
      <stop offset="20%" stop-color="#4596D8"/>
      <stop offset="100%" stop-color="#FFF"/>
    </linearGradient>
    <linearGradient id="harbor-g" x1="-.067%" x2="105.038%" y1=".98%" y2="64.52%">
      <stop offset="0%" stop-color="#4194D7"/>
      <stop offset="20%" stop-color="#4194D7"/>
      <stop offset="100%" stop-color="#FFF"/>
    </linearGradient>
    <linearGradient id="harbor-h" x1=".316%" x2="100.171%" y1="102.843%" y2="41.369%">
      <stop offset="0%" stop-color="#4194D7"/>
      <stop offset="33.264%" stop-color="#4496D8"/>
      <stop offset="100%" stop-color="#FFF"/>
    </linearGradient>
  </defs>
  <g fill="none">
    <rect width="48" height="36" fill="#FFF" rx="2"/>
    <g transform="translate(8 2)">
      <path fill="#FFF" d="M2.4633344,15.9888713 C2.46329299,8.48859951 8.54343106,2.40839432 16.0437029,2.40835291 C23.5439747,2.40831151 29.6241799,8.48844957 29.6242213,15.9887214 C29.6242627,23.4889932 23.5441246,29.5691984 16.0438528,29.5692398 C12.4420907,29.5692747 8.9878351,28.138506 6.4409906,25.5916896 C3.8941461,23.0448732 2.46333925,19.5906335 2.4633344,15.9888713"/>
      <polyline fill="url(#harbor-a)" points="6.778 2.938 .515 .179 .166 4.12 7.054 6.308 6.778 2.938" transform="translate(8.777 24.32)"/>
      <path fill="url(#harbor-b)" d="M1.37556663,4.14877623 L4.89267017,4.14877623 L4.89267017,7.14934857 L4.05805166,7.14934857 L4.05805166,5.86770286 C4.05805166,5.35743719 3.64439961,4.94378514 3.13413394,4.94378514 C2.62386828,4.94378514 2.21021623,5.35743719 2.21021623,5.86770286 L2.21021623,7.14934857 L1.37556663,7.14934857 L1.37556663,4.14877623 Z M0.6728576,10.7206802 L5.89092571,13.0201381 L5.53115977,8.61970286 L6.21407269,8.61970286 L6.21407269,7.14934857 L5.70737554,7.14934857 L5.70737554,4.14877623 L6.21407269,4.14877623 L6.21407269,3.286272 L3.39979886,0.53248 L3.39979886,0.338728229 C3.39925597,0.192426137 3.28050196,0.0741119661 3.13419886,0.0741119661 C2.98789576,0.0741119661 2.86914174,0.192426137 2.86859886,0.338728229 L2.86859886,0.53248 L0.0541988571,3.286272 L0.0541988571,4.1487744 L0.560989257,4.1487744 L0.560989257,7.14934857 L0.0542006857,7.14934857 L0.0542006857,8.61970286 L0.858761143,8.61970286 L0.672861257,10.7206766 L0.6728576,10.7206802 Z" transform="translate(9.143 7.863)"/>
      <polyline fill="url(#harbor-c)" points=".002 1.008 5.83 3.577 5.742 2.507 .089 .016 .002 1.008" transform="translate(9.509 21.029)"/>
      <polyline fill="url(#harbor-d)" points=".032 1.089 6.165 3.792 6.077 2.723 .119 .098 .032 1.089" transform="translate(9.326 22.674)"/>
      <polyline fill="url(#harbor-e)" points=".242 .118 .154 1.11 5.678 3.544 5.59 2.475 .242 .118" transform="translate(9.509 19.2)"/>
      <path fill="#696566" d="M27.3843675 9.77358994L30.2066706 8.86672091C30.1964105 8.84680229 30.1879607 8.82567863 30.1777006 8.80606171 29.7013248 7.87581441 29.1344482 6.99476908 28.4852864 6.17569463L25.8334921 7.54791497C26.4150771 8.21973659 26.9263531 8.94933576 27.3593234 9.72530103 27.3680768 9.74099383 27.3756215 9.75758994 27.3843749 9.77358629M28.9427895 15.1121518L31.8815817 15.3230391C31.849651 14.5391612 31.7592673 13.7587591 31.6111835 12.9883337L28.6461367 13.0893714C28.7985457 13.7546904 28.897744 14.4310874 28.9427913 15.1121518"/>
      <path fill="#696566" d="M16.0438546,28.9267675 C10.5316003,28.9318798 5.62142859,25.4438798 3.81137774,20.2372792 C2.00132689,15.0306785 3.68893412,9.24899086 8.01563325,5.83363604 C12.3423324,2.41828121 18.3578606,2.1193656 23.0018322,5.08896183 L25.0597065,2.94869394 C19.3420425,-1.0047486 11.7161281,-0.773560533 6.24845015,3.51897807 C0.780772243,7.81151668 -1.25390361,15.164619 1.22940499,21.6572739 C3.71271358,28.1499288 10.135034,32.2684019 17.0716906,31.8165345 C24.0083472,31.3646672 29.8420886,26.4478103 31.4620965,19.6878574 L28.6877769,18.7253413 C27.3925509,24.67361 22.1314993,28.9183509 16.0438528,28.9267584"/>
      <path fill="url(#harbor-f)" d="M12.8503552,2.90141989 C12.0490481,1.94288648 11.1381819,1.08155028 10.1363895,0.335030857 C9.99273874,0.228196571 9.84667611,0.124988343 9.69970651,0.0229851429 L7.64183223,2.16325303 L0.130377143,9.97498331 L10.4734866,4.62220617 L13.1252809,3.24998583 C13.033536,3.1337984 12.9451154,3.01489371 12.8503552,2.90142171" transform="translate(15.36 2.926)"/>
      <path fill="url(#harbor-g)" d="M16.5415003,1.78357029 C16.5399899,1.60213577 16.5291264,1.42305646 16.5215817,1.24304457 L13.5827895,1.03215726 L0.130377143,0.0666806857 L13.3277769,4.64534674 L16.1020965,5.60786286 C16.1102446,5.57496686 16.1195995,5.54267794 16.1274459,5.50945097 C16.4037703,4.32916802 16.5437081,3.12106863 16.544512,1.90887131 C16.544512,1.8668928 16.5417966,1.82551771 16.5414949,1.78357029" transform="translate(15.36 14.08)"/>
      <path fill="url(#harbor-h)" d="M15.9255771,3.52873326 C15.6402719,2.33714814 15.2168153,1.18294951 14.663808,0.0895798857 L11.8415049,0.996448914 L0.151222857,4.75323063 L13.1032759,4.31223223 L16.0683227,4.21119451 C16.0242542,3.98262309 15.9792969,3.75417051 15.925579,3.52873509" transform="translate(15.543 8.777)"/>
    </g>
  </g>
</svg>
