<svg xmlns="http://www.w3.org/2000/svg" width="48" height="36" viewBox="0 0 48 36">
  <g fill="none">
    <rect width="48" height="36" fill="#FFF" rx="2"/>
    <g transform="translate(11)">
      <path fill="#D33833" d="M26.189215,17.3990415 C26.189215,24.5054185 20.4163102,30.2663387 13.294846,30.2663387 C6.17361757,30.2663387 0.40071278,24.5054185 0.40071278,17.3990415 C0.40071278,10.2925495 6.17361757,4.53162939 13.294846,4.53162939 C20.4163102,4.53162939 26.189215,10.2926645 26.189215,17.3991565"/>
      <path fill="#EF3D3A" d="M0.926154633,20.5859042 C0.926154633,20.5859042 -0.0071913738,7.16722045 12.6661313,6.78398722 L11.7820639,5.34628754 L4.90522428,7.59853035 L2.94021086,9.80315655 L1.22088307,13.0140575 L0.238376358,16.7520767 L0.533104792,19.2440128"/>
      <path fill="#231F20" d="M4.46336741,8.62113738 C2.20103195,10.879476 0.801071885,13.9975591 0.801071885,17.4471182 C0.801071885,20.8956422 2.20103195,24.0141853 4.46336741,26.2722939 C6.72688179,28.5300575 9.84616965,29.923476 13.2947281,29.923476 C16.7434045,29.923476 19.8629281,28.5301725 22.1263246,26.2722939 C24.3884243,24.0143003 25.7886201,20.8958722 25.7886201,17.4471182 C25.7886201,13.9975591 24.3883064,10.879476 22.1263246,8.62113738 C19.8629281,6.36371885 16.7435224,4.97053035 13.2947281,4.9701853 C9.84616965,4.97041534 6.72688179,6.36371885 4.46336741,8.62113738 Z M3.8908869,26.8183898 C1.48649233,24.4195016 0,21.1042812 0,17.4471182 C0,13.7893802 1.48649233,10.4743898 3.89065112,8.07527157 C6.29445623,5.67557827 9.62182236,4.18842173 13.2946102,4.18888179 C16.9673981,4.18842173 20.2951179,5.67557827 22.6984514,8.07527157 C25.1030818,10.4743898 26.5898099,13.7897252 26.5893383,17.4471182 C26.589692,21.1041661 25.1030818,24.4193866 22.6984514,26.8183898 C20.2951179,29.217853 16.9673981,30.7050096 13.2946102,30.7050096 C9.62194026,30.7050096 6.29445623,29.217853 3.8908869,26.8183898 Z"/>
      <polyline fill="#F0D6B7" points="18.723 17.47 16.758 17.758 14.105 18.045 12.386 18.093 10.716 18.045 9.439 17.662 8.309 16.464 7.425 14.02 7.228 13.493 6.049 13.109 5.362 12.007 4.87 10.426 5.411 9.036 6.688 8.604 7.72 9.084 8.211 10.138 8.8 10.042 8.997 9.803 8.8 8.7 8.751 7.311 9.046 5.394 9.034 4.299 9.93 2.902 11.502 1.8 14.253 .649 17.298 1.081 19.951 2.95 21.179 4.867 21.965 6.256 22.161 9.707 21.572 12.678 20.491 15.314 19.46 16.704"/>
      <polyline fill="#335061" points="17.053 25.761 10.028 26.049 10.028 27.199 10.618 31.224 10.323 31.56 5.411 29.93 5.067 29.355 4.576 23.94 3.446 20.681 3.2 19.914 7.13 17.279 8.358 16.799 9.439 18.093 10.372 18.908 11.453 19.244 11.944 19.387 12.533 21.879 12.975 22.406 14.105 22.023 13.319 23.509 17.593 25.474 17.053 25.761"/>
      <polyline fill="#6D6B6D" points="5.411 9.036 6.688 8.604 7.72 9.084 8.211 10.138 8.8 10.042 8.947 9.467 8.653 8.365 8.947 5.729 8.702 4.291 9.586 3.285 11.502 1.799 10.962 1.081 8.26 2.375 7.13 3.237 6.491 4.579 5.509 5.873 5.214 7.406 5.411 9.036"/>
      <path fill="#DCD9D8" d="M7.42468083,4.53105431 C7.42468083,4.53105431 8.16150192,2.75796805 11.1087863,1.89534824 C14.0560706,1.03272843 11.2561505,1.27219169 11.2561505,1.27219169 L8.06318051,2.47054313 L6.83522396,3.6684345 L6.2948099,4.62697764 L7.42468083,4.53105431 M5.95103866,8.70038339 C5.95103866,8.70038339 4.91948914,5.34571246 8.84904441,4.86644089 L8.70168019,4.29136102 L6.00008147,4.91451757 L5.21421757,7.40645367 L5.4106246,9.03576997 L5.95103866,8.70038339"/>
      <path fill="#F7E4CD" d="M7.52276645,13.1572524 L8.16598179,12.549278 C8.16598179,12.549278 8.45623035,12.5821725 8.50527316,12.9175591 C8.55431597,13.2531757 8.70168019,16.272345 10.8140578,17.9017764 C11.0065744,18.050492 9.24209425,17.6619681 9.24209425,17.6619681 L7.67013067,15.2660703 M16.5614981,12.2467859 C16.5614981,12.2467859 16.6760885,10.7941342 17.077155,10.9058147 C17.4781035,11.0174952 17.4781035,11.4087796 17.4781035,11.4087796 C17.4781035,11.4087796 16.5042029,12.0233099 16.5614981,12.2467859 M20.6384176,6.92729712 C20.6384176,6.92729712 19.8285038,7.09407029 19.7542323,7.78991693 C19.679607,8.48587859 20.6384176,7.9336869 20.7857818,7.88561022 M14.6946882,6.97525879 C14.6946882,6.97525879 13.6140958,7.11902875 13.6140958,7.78991693 C13.6140958,8.4606901 14.8420524,8.41295847 15.1860594,8.12541853 M8.0141377,10.0902364 C8.0141377,10.0902364 6.14744569,8.98792332 5.95103866,10.0421597 C5.75439585,11.0966262 5.31230319,11.8633227 6.24576709,12.9656358 L5.60703163,12.7737891 L5.01757476,11.2882428 L4.82116773,9.85054313 L5.95103866,8.70026837 L7.22803802,8.79619169 L7.96485911,9.37127157 L8.0141377,10.0901214 M8.898323,7.07106709 C8.898323,7.07106709 9.73322971,2.85366134 13.9577492,2.03911821 C17.4358984,1.36846006 19.2627431,2.18288818 19.9506393,2.94958466 C19.9506393,2.94958466 16.8559907,-0.644549521 13.9087064,0.457648562 C10.961422,1.55973163 8.8000016,3.57251118 8.84904441,4.86644089 C8.93274728,7.07014696 8.898323,7.07106709 8.898323,7.07106709 M20.2945284,3.42874121 C20.2945284,3.42874121 18.8701649,3.38089457 18.8208863,4.62697764 C18.8208863,4.62697764 18.8207684,4.81859425 18.9192077,5.01021086 C18.9192077,5.01021086 20.0491965,3.76424281 20.7366211,4.43513099"/>
      <path fill="#F7E4CD" d="M14.056778,5.1400639 C14.056778,5.1400639 13.8115639,3.22746326 12.1403358,4.3394377 C11.0595077,5.05828754 11.1578291,6.06467732 11.3542361,6.25629393 C11.5508789,6.44814058 11.4973562,6.83413419 11.6469604,6.56913738 C11.7963288,6.30414058 11.7471681,5.44152077 12.2877,5.20205751 C12.8278783,4.96236422 13.7137141,4.69472204 14.056778,5.1400639"/>
      <path fill="#49728B" d="M9.43850128,18.093278 L4.82116773,20.1060575 C4.82116773,20.1060575 6.73690256,27.5342492 5.75439585,29.8345687 L5.06685335,29.5951054 L5.01757476,26.7675527 L3.7405754,21.4002173 L3.20016134,19.9144409 L8.0141377,16.7516166 L9.43850128,18.093278 M9.91336773,22.2018786 L10.5683722,22.9814569 L10.5683722,25.8568562 L9.78250831,25.8568562 C9.78250831,25.8568562 9.6841869,23.8440767 9.6841869,23.6044984 C9.6841869,23.3649201 9.78250831,22.5023003 9.78250831,22.5023003 M9.92987252,26.2883962 L7.71940927,26.3840895 L8.35790895,26.8153994 L9.92987252,27.0549776"/>
      <polyline fill="#335061" points="17.495 25.809 19.312 25.761 19.754 30.17 17.888 30.41 17.495 25.809"/>
      <path fill="#335061" d="M17.9858617,25.8090096 L20.7365032,25.6652396 C20.7365032,25.6652396 21.8663741,22.8856486 21.8663741,22.7418786 C21.8663741,22.5981086 22.8488808,18.7163195 22.8488808,18.7163195 L20.6384176,16.4640767 L20.1963249,16.0807284 L19.0174112,17.2308882 L19.0174112,21.6877572 L17.9858617,25.8090096"/>
      <path fill="#49728B" d="M19.2138182,25.473508 L17.4944904,25.8090096 L17.740176,27.151016 C18.3786757,27.4385559 19.4595038,26.6716294 19.4595038,26.6716294 M19.2629789,17.0871182 L22.7016345,19.5791693 L22.7997201,18.4290096 L20.1964428,16.0807284 L19.2629789,17.0871182"/>
      <polyline fill="#FFF" points="11.635 35.25 10.618 31.224 10.112 28.253 10.028 26.048 14.631 25.809 17.495 25.809 17.234 30.841 17.677 34.723 17.627 35.442 13.894 35.729 11.635 35.25"/>
      <path fill="#DCD9D8" d="M16.8559907,25.7610479 C16.8559907,25.7610479 16.6103051,30.7450351 17.3471262,34.2914377 C17.3471262,34.2914377 15.873484,35.2021342 13.7120636,35.4415974 L17.8383796,35.2978275 L18.3296329,35.0102875 L17.740176,27.151016 L17.5928118,25.473508"/>
      <polyline fill="#FFF" points="19.838 29.787 21.754 29.26 25.388 29.068 25.929 27.439 24.946 24.611 23.817 24.468 22.245 24.947 20.737 25.665 19.936 25.522 19.312 25.761"/>
      <path fill="#DCD9D8" d="M19.8032751,28.8281789 C19.8032751,28.8281789 21.0802744,28.2532141 21.2769173,28.3011757 L20.7365032,25.6652396 L21.3751208,25.4257764 C21.3751208,25.4257764 21.8172134,27.9177125 21.8172134,28.2052524 C21.8172134,28.2052524 24.5679728,28.3490224 24.8136585,28.3490224 C24.8136585,28.3490224 25.4031153,27.2468243 25.2557511,26.0966645 L25.7960473,27.6301725 L25.845208,28.4927923 L25.0592262,29.6429521 L24.1750409,29.8346837 L22.7013987,29.786722 L22.2101454,29.1637955 L20.4910534,29.4032588 L19.9506393,29.5951054"/>
      <path fill="#FFF" d="M17.8729217,25.4261214 L16.7923294,22.7425687 L15.6624585,21.161099 C15.6624585,21.161099 15.9080262,20.4900958 16.2519153,20.4900958 L17.3817863,20.4900958 L18.4623786,20.8735591 L18.364293,22.6466454 L17.8729217,25.4261214"/>
      <path fill="#DCD9D8" d="M18.0840652,24.5150799 C18.0840652,24.5150799 16.7087444,21.9273355 16.7087444,21.5439872 C16.7087444,21.5439872 16.9543121,20.9689073 17.2982013,21.1126773 C17.6419725,21.2564473 18.3787936,21.6396805 18.3787936,21.6396805 L18.3787936,20.7292141 L16.7087444,20.3935974 L15.5788735,20.5373674 L17.4946083,24.9463898 L17.8876581,24.9944665"/>
      <polyline fill="#FFF" points="12.077 18.19 10.716 18.045 9.439 17.662 9.439 18.093 10.063 18.765 12.028 19.627"/>
      <path fill="#DCD9D8" d="M9.8809476,18.3334313 C9.8809476,18.3334313 11.4036326,18.9564728 11.8950038,18.8127029 L11.943693,19.3872077 L10.568608,19.1002428 L9.73358339,18.5251629 L9.8809476,18.3334313"/>
      <path fill="#D33833" d="M19.8325121,20.6531885 C18.9990201,20.6292652 18.2460479,20.5326518 17.5866815,20.3512716 C17.6314802,20.0875399 17.5475415,19.828754 17.6149754,19.6387476 C17.7986502,19.5095847 18.1068182,19.511655 18.3844524,19.4814058 C18.1441898,19.3661597 17.8069026,19.3207284 17.529622,19.3870927 C17.5230201,19.2041022 17.4388457,19.0906965 17.3879166,18.9475016 C17.8565348,18.7841789 18.9628275,17.7145304 19.585176,18.0687796 C19.8816728,18.237278 20.0076987,19.1996166 20.0306875,19.6675016 C20.0499038,20.0559105 19.9947307,20.4475399 19.83263,20.6531885"/>
      <path stroke="#D33833" stroke-width="2.5" d="M19.8325121,20.6531885 C18.9990201,20.6292652 18.2460479,20.5326518 17.5866815,20.3512716 C17.6314802,20.0875399 17.5475415,19.828754 17.6149754,19.6387476 C17.7986502,19.5095847 18.1068182,19.511655 18.3844524,19.4814058 C18.1441898,19.3661597 17.8069026,19.3207284 17.529622,19.3870927 C17.5230201,19.2041022 17.4388457,19.0906965 17.3879166,18.9475016 C17.8565348,18.7841789 18.9628275,17.7145304 19.585176,18.0687796 C19.8816728,18.237278 20.0076987,19.1996166 20.0306875,19.6675016 C20.0499038,20.0559105 19.9947307,20.4475399 19.83263,20.6531885 L19.8325121,20.6531885 Z"/>
      <path fill="#D33833" d="M15.8468406,19.3238339 C15.8446006,19.3853674 15.8418891,19.447361 15.8394134,19.5094696 C15.5792272,19.6762428 15.1591802,19.6741725 14.8734115,19.814377 C15.2945195,19.8323195 15.6259121,19.9312332 15.912624,20.0707476 L15.894115,20.5356422 C15.4171265,20.8542364 14.9814,21.3286773 14.4197655,21.6274888 C14.1541562,21.7688435 13.222107,22.1324089 12.9396393,22.068115 C12.7798965,22.031885 12.7653958,21.8384281 12.7014987,21.6558978 C12.5653342,21.2654185 12.251861,20.6437572 12.2243923,20.0554505 C12.1897323,19.3127923 12.1127492,18.0682045 12.9331553,18.2211757 C13.5949974,18.3442428 14.364946,18.6417891 14.8773019,18.9149521 C15.1905393,19.0817252 15.3717383,19.2881789 15.8468406,19.3238339"/>
      <path stroke="#D33833" stroke-width="2.5" d="M15.8468406,19.3238339 C15.8446006,19.3853674 15.8418891,19.447361 15.8394134,19.5094696 C15.5792272,19.6762428 15.1591802,19.6741725 14.8734115,19.814377 C15.2945195,19.8323195 15.6259121,19.9312332 15.912624,20.0707476 L15.894115,20.5356422 C15.4171265,20.8542364 14.9814,21.3286773 14.4197655,21.6274888 C14.1541562,21.7688435 13.222107,22.1324089 12.9396393,22.068115 C12.7798965,22.031885 12.7653958,21.8384281 12.7014987,21.6558978 C12.5653342,21.2654185 12.251861,20.6437572 12.2243923,20.0554505 C12.1897323,19.3127923 12.1127492,18.0682045 12.9331553,18.2211757 C13.5949974,18.3442428 14.364946,18.6417891 14.8773019,18.9149521 C15.1905393,19.0817252 15.3717383,19.2881789 15.8468406,19.3238339 Z"/>
      <path fill="#D33833" d="M16.320646,20.2100319 C16.2475534,19.8055208 16.1634968,19.6900447 16.1960348,19.3369457 C17.3022096,18.6176358 17.5098163,20.5727923 16.3205281,20.2100319"/>
      <path stroke="#D33833" stroke-width="2.5" d="M16.320646,20.2100319 C16.2475534,19.8055208 16.1634968,19.6900447 16.1960348,19.3369457 C17.3022096,18.6176358 17.5098163,20.5727923 16.3205281,20.2100319 L16.320646,20.2100319 Z"/>
      <path fill="#EF3D3A" d="M17.9219645,20.5379425 C17.9219645,20.5379425 17.5780754,20.0586709 17.8238789,19.914901 C18.0693288,19.771131 18.3151323,19.915016 18.4624965,19.6753227 C18.6098607,19.4358594 18.4624965,19.2920895 18.5115393,19.0045495 C18.5608179,18.7170096 18.8066214,18.6689329 19.0519534,18.6210863 C19.2975211,18.5732396 19.9854173,18.4773163 20.0835029,18.7170096 L19.7887744,17.8543898 L19.1993176,17.6625431 L17.3326256,18.7170096 L17.2345399,19.2440128 L17.2345399,20.2984792 M12.7642169,22.1194121 C12.7051534,21.3715783 12.6427888,20.6246645 12.5732329,19.8775208 C12.4693706,18.7618658 12.8479198,18.9564728 13.8392684,18.9564728 C13.9906409,18.9564728 14.7714355,19.1326773 14.827316,19.2440128 C15.0952831,19.7779169 14.3793288,19.6592204 15.1360735,20.0617764 C15.7745732,20.4015335 16.9030294,19.8555527 16.6449652,19.1002428 C16.5005482,18.9323195 15.8924645,19.0479105 15.6746013,18.9378403 L14.523392,18.3555144 C14.0350859,18.10823 12.9067476,17.74823 12.3860214,18.093508 C11.0671706,18.9687796 12.4693706,21.1552332 12.9398751,22.068115"/>
      <path fill="#231F20" d="M14.056778,5.1400639 C12.7180035,4.83584665 12.0527425,5.68673482 11.6469604,6.56913738 C11.2845623,6.48345048 11.4288613,6.00268371 11.520345,5.75769968 C11.7600182,5.11476038 12.7257843,4.25892652 13.5148313,4.37497764 C13.8543585,4.42477955 14.313899,4.72773163 14.056778,5.1400639 M20.5801792,6.6275655 L20.6437227,6.62986581 C20.9462319,7.24313099 21.2080687,7.89274121 21.5895652,8.43400639 C21.3340946,9.01495208 19.6536709,9.52907348 19.6794891,8.48587859 C20.0428304,8.33095208 20.6701304,8.4542492 20.9923275,8.25630671 C20.806177,7.75759744 20.5373847,7.33295847 20.5801792,6.6275655 M14.7423163,6.6434377 C15.0293818,7.15686901 15.1228696,7.69629393 15.5308917,8.08435783 C15.7146843,8.25906709 16.0720131,8.47196166 15.8948224,8.95778914 C15.8534425,9.07234505 15.5509332,9.32779553 15.3761003,9.37794249 C14.7381901,9.561623 13.2516978,9.41589776 13.7550939,8.63988498 C14.2828936,8.66392332 14.9917744,8.97412141 15.3861211,8.60066454 C15.0834939,8.12829393 14.5436693,7.19401917 14.7423163,6.6434377 M20.340624,11.8614824 C19.3801629,12.4635911 18.3091198,13.1180319 16.73527,12.9662109 C16.3989259,12.6809712 16.270778,12.0461981 16.597455,11.6269649 C16.7675722,11.9122045 16.6606447,12.4367923 17.1345681,12.5158083 C18.0275952,12.664869 19.0670435,11.9828243 19.7095514,11.7442812 C20.1076706,11.0891502 19.6750093,10.8481917 19.3162658,10.4265431 C18.5818026,9.56254313 17.5962307,8.49174441 17.6319518,7.19838978 C17.929038,6.98837061 17.9545026,7.51905431 17.9971792,7.61566773 C18.3807978,8.49139936 19.3460923,9.61165495 20.0507291,10.3612141 C20.2236757,10.5458147 20.5085013,10.7229393 20.5402141,10.8449712 C20.6315799,11.2001406 20.302545,11.6253546 20.3407419,11.8614824 M7.6779115,11.2277444 C7.37693482,11.0600511 7.30513898,10.3216486 6.95170064,10.3007157 C6.44677188,10.2706965 6.53884505,11.2584537 6.54073131,11.8361789 C6.19318754,11.5283962 6.13200192,10.5800895 6.38735463,10.0932268 C6.09616294,9.95382748 5.96612875,10.2471182 5.80485335,10.3504026 C6.01234217,8.87969329 8.01012939,9.66835783 7.67802939,11.2277444 M20.9522444,12.4739425 C20.5052003,13.3042428 19.8727131,14.2186198 18.5607,14.2451885 C18.5340565,13.9770863 18.5135435,13.5690096 18.5621147,13.4074121 C19.5651345,13.3135591 20.1843,12.8155399 20.9522444,12.4739425 M14.6667479,13.0122173 C15.503423,13.4416869 17.041316,13.4876933 18.1787319,13.4551438 C18.2396818,13.6982875 18.2382671,13.9985942 18.2406249,14.2951054 C16.7785361,14.3661853 15.0500128,14.0133163 14.6667479,13.0122173 M14.5075946,13.8127284 C15.0863233,15.2301853 17.0751508,15.0669776 18.7522735,15.0278722 C18.6784735,15.2118978 18.518377,15.429278 18.3194942,15.5079489 C17.7819096,15.7213035 16.2996613,15.883131 15.5534089,15.4964473 C15.080193,15.2511182 14.7763869,14.6966262 14.5170259,14.3715911 C14.3919431,14.2145942 13.7684157,13.8135335 14.5075946,13.8126134"/>
      <path fill="#81B0C4" d="M20.2708323,21.6311693 C19.591778,22.7658019 18.9421965,23.9312588 18.1364089,24.9321278 C18.4741677,23.9631182 18.6187026,22.341623 18.6697495,21.1053163 C19.3763904,20.7828115 19.9814089,21.1780064 20.2708323,21.6311693"/>
      <path fill="#231F20" d="M23.9248754,25.7094058 C23.1645939,25.8578914 22.6304281,26.5788115 21.8887735,26.5324601 C22.296324,25.9718722 23.0106278,25.7355144 23.9248754,25.7094058 M24.2602764,26.870147 C23.6406393,26.9342109 22.912778,27.0319744 22.284299,26.9814824 C22.581739,26.5380958 23.7281147,26.6910671 24.2602764,26.870147 M24.4749565,27.871016 C23.7785722,27.885738 22.9128958,27.8721661 22.2511716,27.8181086 C22.6425709,27.4077316 24.0233147,27.6657125 24.4749565,27.871016"/>
      <path fill="#DCD9D8" d="M18.9604696,30.6096613 C19.0602058,31.4629649 19.4069243,32.3275399 19.3636581,33.2620447 C18.9786249,33.3886773 18.7573428,33.4995527 18.2413323,33.4989776 C18.2049038,32.7046773 18.0959722,31.4905687 18.1286281,30.7334185 C18.3824482,30.7498658 18.7566355,30.556639 18.9604696,30.6096613"/>
      <path fill="#F0D6B7" d="M17.8376722,18.0338147 C17.4880064,18.2564856 17.1902128,18.5347093 16.8543403,18.7724473 C16.1095026,18.8084473 15.703131,18.7221853 15.1559971,18.3049073 C15.1649569,18.2715527 15.2198942,18.2865048 15.2220163,18.2453291 C16.0191978,18.5917572 17.0327099,18.1038594 17.8376722,18.0336997"/>
      <path fill="#81B0C4" d="M13.6525284,23.3357061 C13.8715706,22.4098275 14.7298198,21.9302109 15.5091997,21.420115 C16.3136904,22.4161534 16.8029396,23.6972013 17.3417032,24.933278 C16.0687121,24.558901 14.7681345,23.9515016 13.6525284,23.3357061"/>
      <path fill="#231F20" d="M18.128746,30.7334185 C18.096208,31.4905687 18.2050217,32.7046773 18.2414502,33.4989776 C18.7575786,33.4996677 18.9786249,33.3889073 19.363776,33.2620447 C19.407278,32.3275399 19.0604415,31.4629649 18.9605875,30.6096613 C18.7566355,30.556639 18.3825661,30.7498658 18.128746,30.7334185 Z M10.095392,26.4276805 C10.4356265,29.4789393 10.9282946,32.0437955 11.8319319,34.7457508 C13.8379716,35.3399233 16.2559236,35.3916805 18.028892,34.8555911 C17.7035118,33.3305942 17.8455709,31.4740064 17.6554121,29.8465304 C17.5119383,28.6233355 17.5851489,27.3926645 17.3885061,26.1447412 C15.2401716,25.7088307 12.2036435,26.0429521 10.095392,26.4276805 Z M17.8962642,26.1641789 C17.8782268,27.4744409 17.9563888,28.7669904 18.0589543,30.0790927 C18.574847,30.0036422 18.9248665,29.9531502 19.4038591,29.8506709 C19.2483604,28.5875655 19.2674588,27.1661981 18.9504489,26.0488179 C18.5842783,26.0521534 18.2616096,26.0446773 17.8963821,26.1641789 L17.8962642,26.1641789 Z M20.5128633,25.9527796 C20.2680029,25.898147 19.9830594,25.9505942 19.7491629,25.9550799 C19.8591556,27.0233482 20.1258259,28.202262 20.2196674,29.3234377 C20.5877243,29.3345942 20.7842492,29.1652907 21.0869942,29.1083578 C21.1031454,28.1240511 20.9985757,26.7680128 20.5128633,25.9527796 Z M24.4746029,29.48423 C25.2416042,29.3026198 25.7237799,28.3860575 25.5093355,27.4446518 C25.3653901,26.8120639 25.1089764,25.6209585 24.8345252,25.2162173 C24.6317521,24.9171757 24.0820246,24.5252013 23.6429971,24.7992843 C22.9288112,25.2455463 21.6706744,25.3749393 21.1500661,25.9149393 C21.4111955,26.7631821 21.4921869,27.9282939 21.5999396,29.0031182 C22.4920236,29.0575208 23.5895923,28.763655 24.3316006,29.0755783 C23.8135859,29.239131 23.1414872,29.2403962 22.6940895,29.4789393 C23.0599064,29.6512332 23.9161514,29.6164984 24.4746029,29.48423 Z M17.3417032,24.933278 C16.8029396,23.6972013 16.3135725,22.4161534 15.5091997,21.420115 C14.7298198,21.9302109 13.8715706,22.4097125 13.6525284,23.3357061 C14.7681345,23.9515016 16.0687121,24.558901 17.3417032,24.933278 Z M18.6697495,21.1055463 C18.6187026,22.341738 18.4741677,23.9633482 18.1364089,24.9321278 C18.9420786,23.9314888 19.591778,22.7660319 20.2708323,21.6313994 C19.9814089,21.1780064 19.3763904,20.7828115 18.6697495,21.1054313 L18.6697495,21.1055463 Z M17.1642767,20.5836038 C16.8590559,20.5513994 16.6000486,20.9258914 16.2029904,20.7639489 C16.1122141,20.8620575 16.0295722,20.9683323 15.9369096,21.0641406 C16.8134319,22.0946837 17.211669,23.5567668 17.8887192,24.768 C18.2519425,23.6046134 18.2100911,22.3301214 18.2901393,21.060345 C17.7909872,21.0910543 17.5140604,20.6198339 17.1642767,20.5836038 Z M16.1962706,19.3370607 C16.1636147,19.6900447 16.2477891,19.8056358 16.3207639,20.210147 C17.5098163,20.5727923 17.3022096,18.6176358 16.1962706,19.3371757 L16.1962706,19.3370607 Z M14.8774198,18.914722 C14.3650639,18.6415591 13.5951153,18.3438978 12.9332732,18.2208307 C12.1128671,18.0676294 12.1898502,19.3126773 12.2246281,20.0552204 C12.2519789,20.6434121 12.5653342,21.2651885 12.7016166,21.6556677 C12.7656316,21.8380831 12.7798965,22.031655 12.9397572,22.067885 C13.2222249,22.1320639 14.1541562,21.7684984 14.4198834,21.6271438 C14.9815179,21.3284473 15.4172444,20.8540064 15.8942329,20.5354121 C15.9004812,20.3803706 15.9064936,20.2254441 15.9128597,20.0704026 C15.62603,19.9312332 15.2946374,19.8320895 14.8736473,19.814147 C15.1591802,19.6738275 15.579345,19.6758978 15.8396492,19.5091246 C15.842007,19.447016 15.8447185,19.3852524 15.8469585,19.3236038 C15.3717383,19.2881789 15.1906572,19.0817252 14.8774198,18.914722 Z M9.98304153,18.0471565 C9.55768946,18.4684601 11.1757486,19.0425048 11.6911696,19.0735591 C11.6882224,18.8068371 11.8467863,18.5557572 11.8149556,18.3644856 C11.2028636,18.2597061 10.3987265,18.3288307 9.98292364,18.0471565 L9.98304153,18.0471565 Z M15.2221342,18.244984 C15.2200121,18.2861597 15.1650748,18.2712077 15.156115,18.3047923 C15.7032489,18.7219553 16.1097383,18.8082173 16.8544581,18.7722173 C17.1903307,18.5344792 17.4881243,18.2563706 17.8377901,18.0335847 C17.0327099,18.1037444 16.0193157,18.5916422 15.2221342,18.244984 Z M20.0309233,19.6677316 C20.0079345,19.1996166 19.8819086,18.237393 19.5854118,18.0690096 C18.9630633,17.7144153 17.8568885,18.7844089 17.3882703,18.9477316 C17.4391994,19.0908115 17.5233738,19.2042173 17.5297399,19.3873227 C17.8070204,19.3208435 18.1445435,19.3662748 18.3846882,19.4816358 C18.107054,19.511885 17.7988859,19.5099297 17.6152112,19.6388626 C17.5477773,19.828754 17.631716,20.0875399 17.5869173,20.3513866 C18.2461658,20.5328818 18.9992559,20.6294952 19.8327479,20.6533035 C19.9947307,20.4474249 20.0500217,20.0557955 20.0308054,19.6676166 L20.0309233,19.6677316 Z M9.26708722,18.4546581 C9.13363419,18.3617252 8.2301147,17.214901 8.10644665,17.2625176 C6.47164696,17.8915399 4.94306741,18.979246 3.57694217,20.0078339 C4.87940607,22.7342875 5.4052016,26.0745815 5.49798211,29.2939936 C6.98989744,29.9748882 8.30037796,30.9563195 10.3249265,31.0586837 C10.0905585,29.4415591 9.87658562,27.9987987 9.74372204,26.4763323 C9.23502077,26.2670032 8.50527316,26.4857636 8.0292278,26.4113482 C8.02533738,25.8517955 8.75638179,26.1661342 8.81721374,25.7899169 C8.86307348,25.5052524 8.41485048,25.4837444 8.5608,25.0354121 C8.93310096,25.1674505 9.12844696,25.4587859 9.52526933,25.5683962 C9.88802109,24.7943387 9.52031789,23.4247284 9.57242588,22.7777636 C9.58232875,22.6563067 9.63467252,22.1049201 9.91348562,22.2015335 C10.1603502,22.2871054 9.89945655,23.6683323 9.92645367,24.2806773 C9.95109297,24.8448307 9.85654409,25.3905815 10.0907942,25.7448307 C12.0472016,25.4848946 14.0350859,25.3169712 16.1518256,25.2603834 C15.6861546,25.0654313 15.1330083,24.8810607 14.5264572,24.5475144 C14.1975403,24.3667093 13.1610393,23.990377 13.0661367,23.6856997 C12.9148821,23.2002173 13.4633128,22.9415463 13.5571543,22.5253035 C12.5696962,23.0509265 12.3769438,22.0217636 12.143401,21.2927923 C11.9317859,20.6324856 11.8111831,20.1391821 11.7593109,19.7583642 C10.9087246,19.3627093 9.99919265,18.9619936 9.26708722,18.4546581 Z M19.1668974,17.4012268 C20.5290144,16.7569073 20.7744642,19.8095463 20.2405342,20.7929329 C20.3230581,21.0862236 20.6069406,21.1984792 20.7227099,21.4622109 C19.9626642,22.7906454 19.1184441,24.0307476 18.3428367,25.3434249 C18.9197971,24.9929712 19.7438578,25.2807412 20.4227942,25.0186198 C20.6709556,24.9228115 20.8505042,24.3686645 21.038423,23.925278 C21.5552588,22.7053035 22.097677,21.1674249 22.3392364,20.0032332 C22.3937022,19.7381214 22.5422454,19.1601661 22.509,18.9240383 C22.4495827,18.5013546 21.8617764,18.1879361 21.5628038,17.9266198 C21.0118974,17.4437827 20.665061,17.0191438 20.0903406,16.5677061 C19.8575051,16.9029776 19.3574099,17.1284089 19.1668974,17.4012268 Z M6.15192556,5.61680511 C5.50269776,6.31334185 5.63862652,7.61900319 5.71726006,8.54775719 C6.89051502,7.82752716 8.44750639,8.60446006 8.43276997,9.82926518 C8.99287188,9.81465815 8.64202716,9.14664537 8.54075847,8.71637061 C8.20971949,7.3108754 9.09862045,5.78392332 8.58107732,4.49861981 C7.57628914,4.57303514 6.75081374,4.97340575 6.15192556,5.61680511 Z M10.7959026,1.5731885 C9.32674026,1.97942492 7.44354345,3.02100958 6.83982173,4.30884345 C7.30737891,4.24247923 7.63181597,4.01244728 8.09300703,3.98403834 C8.26748626,3.97299681 8.49572396,4.05523323 8.69602141,4.00669649 C9.0952016,3.91008307 9.43201725,3.03688179 9.73322971,2.71196166 C10.0267792,2.39463259 10.379746,2.25902875 10.6213054,1.96976358 C10.7763326,1.89672843 11.0057492,1.90190415 11.0145911,1.67451757 C10.9472751,1.60435783 10.8764224,1.5508754 10.7959026,1.5731885 Z M18.444577,1.95527157 C16.9195342,1.116 14.3380668,0.4845623 12.7158815,1.27334185 C11.4069335,1.91030032 9.63750192,2.96373163 9.03413387,4.29872204 C9.59765463,5.58724601 8.86719968,6.76765495 8.82063259,8.07561661 C8.7958754,8.77146326 9.15650511,9.37909265 9.18409169,10.1367029 C8.99110351,10.447246 8.40211821,10.4854313 7.99421406,10.4641534 C7.8569885,9.79395527 7.61672588,9.04060064 6.90914185,8.96492013 C5.9081262,8.85807029 5.17637444,9.66640256 5.13075048,10.5110799 C5.07687412,11.5043578 5.91272396,13.1506965 7.09741438,13.0364856 C7.55483291,12.9923195 7.66753706,12.5447923 8.16598179,12.549393 C8.43618882,13.075476 7.74911789,13.240639 7.67838307,13.6168562 C7.65999201,13.7140447 7.73544249,14.0939425 7.77918019,14.2721022 C7.99433195,15.1393227 8.47403195,16.2618786 8.9461869,16.9223003 C9.54531086,17.7600767 10.7228099,17.8861342 11.9894348,17.9682556 C12.2155505,17.4927796 13.0489246,17.532 13.5919323,17.6564473 C12.9411719,17.4049073 12.3361534,16.7953227 11.8347613,16.2557827 C11.258862,15.6367668 10.6755355,14.9726645 10.6460626,14.1635272 C11.7344358,15.6365367 12.6337112,16.9232204 14.6126358,17.5709904 C16.1102099,18.0610735 17.8591284,17.3464792 19.0095125,16.5581597 C19.4869725,16.2304792 19.7720339,15.710607 20.1113252,15.2347859 C21.3810153,13.4527284 21.9736553,10.9090351 21.8435032,8.44389776 C21.7898626,7.42704153 21.7921026,6.41386581 21.4425546,5.72986581 C21.0770914,5.01446645 19.8410003,4.37463259 19.1173831,5.02159744 C18.9833406,4.32609585 19.7191006,3.89570607 20.5833623,4.14621086 C19.967262,3.36985304 19.3205099,2.43753355 18.444577,1.95527157 Z M21.285877,24.8962428 C22.4776409,24.3182875 24.7042553,23.3405367 25.4514508,24.8984281 C25.7271987,25.4727029 26.0505748,26.4433227 26.1934591,27.03623 C26.3950534,27.8723962 25.9747706,29.6303003 25.0935326,29.9109393 C24.3154495,30.1587987 23.4073323,30.1438466 22.469978,29.9599361 C22.3596316,29.8703387 22.2366709,29.714262 22.1507281,29.5515144 C21.4814588,29.5262109 20.8546304,29.5867093 20.3258875,29.8550415 C20.3759914,30.3378786 20.0411799,30.4153994 19.727353,30.5148882 C19.4946355,31.4150032 20.1929061,32.5906965 20.0257361,33.4114505 C19.9065479,33.9961917 19.1691374,34.0865942 18.6270728,34.1959744 C18.6093891,34.5208946 18.6508869,34.7922173 18.6877869,35.0671054 C18.564001,35.5126773 18.0080252,35.7662875 17.4811687,35.8283962 C15.7485192,36.0313994 13.1173016,36.1228371 11.4506712,35.5379808 C10.9855898,34.4248562 10.6190655,33.0708882 10.2316744,31.8001917 C8.60607029,31.9696102 7.2912278,31.1158466 6.05183578,30.556639 C5.62271118,30.362492 5.02889233,30.2555272 4.86879585,29.9223259 C4.71329712,29.599476 4.77684058,28.9812652 4.7382901,28.396984 C4.64020447,26.9052268 4.55614792,25.466147 4.15236997,23.9386198 C3.97105304,23.2531246 3.65486837,22.6481406 3.4344115,21.9877188 C3.23069521,21.3756038 2.87478115,20.6190288 2.78176486,20.008639 C2.64418562,19.1039233 3.51728914,19.0535463 4.07562268,18.6614569 C4.93894121,18.0553227 5.61646294,17.7199361 6.55122364,17.1728051 C6.82815048,17.0106326 7.6629393,16.6006006 7.75795974,16.4116294 C7.94670383,16.0371374 7.43387636,15.509099 7.29676869,15.2154633 C7.07984856,14.7512588 6.96679073,14.356869 6.93566741,13.8986454 C6.15145399,13.7778786 5.55704569,13.3224153 5.19794856,12.809099 C4.60389393,11.959476 4.19186358,10.3874377 4.70586997,9.19161661 C4.74618882,9.09753355 4.9473115,8.91235783 4.97702013,8.76778275 C5.03537636,8.48300319 4.86679169,8.10414058 4.85641725,7.80130351 C4.802423,6.24720767 5.12591693,4.90819169 6.19825687,4.43938658 C6.63362971,2.74727157 8.1918,2.18472843 9.65990128,1.34384665 C10.2086856,1.02950799 10.8135863,0.828690096 11.4384105,0.604408946 C13.6795256,-0.200242812 17.1179454,-0.0487667732 18.9780355,1.32371885 C19.7667288,1.90569968 21.0273412,3.13453035 21.4782757,4.02417891 C22.6693323,6.37280511 22.5846863,10.2983003 21.7517837,13.1552971 C21.6397869,13.5389904 21.4773326,14.1027987 21.2505096,14.5636677 C21.0924173,14.8853674 20.6009281,15.5292268 20.6605812,15.8133163 C20.7220026,16.1069521 21.7812565,16.8915911 22.0081974,17.1051757 C22.4172805,17.4900192 23.1941847,18.0009201 23.2570208,18.4866326 C23.3246904,19.0033994 23.0235958,19.7104026 22.8709265,20.2093419 C22.3615179,21.873853 21.8640163,23.4124217 21.285877,24.8962428 Z"/>
      <path fill="#F7E4CD" d="M13.3351649,13.3747476 C13.3997693,13.2907859 13.7552118,13.1633482 14.2525955,13.3969457 C14.2525955,13.3969457 13.6631387,13.492639 13.7122994,14.4516422 L13.4667316,14.4035655 C13.4666137,14.4035655 13.2126757,13.5342748 13.3351649,13.3747476"/>
      <path fill="#1D1919" d="M17.6419725,21.6158722 C17.6419725,21.7614001 17.5210495,21.8793738 17.3718834,21.8793738 C17.2227173,21.8793738 17.1017942,21.7614001 17.1017942,21.6158722 C17.1017942,21.4703443 17.2227173,21.3523706 17.3718834,21.3523706 C17.5210495,21.3523706 17.6419725,21.4703443 17.6419725,21.6158722 M17.9121796,22.8379169 C17.9121144,22.9835401 17.7910595,23.1015396 17.6417957,23.101476 C17.4925319,23.1014125 17.3715825,22.9833101 17.3716476,22.8376869 C17.3717127,22.6920955 17.4927413,22.5741218 17.6419725,22.5741853 C17.7912037,22.5742488 17.9121268,22.6923255 17.9120617,22.8379169"/>
    </g>
  </g>
</svg>
