<svg xmlns="http://www.w3.org/2000/svg" width="48" height="36" viewBox="0 0 48 36">
  <g fill="none">
    <rect width="48" height="36" fill="#FFF" rx="2"/>
    <g fill="#264970" transform="translate(11.5 3)">
      <path d="M5.36239161,1.92895288 C4.17055587,1.92895288 3.20557919,2.79973822 3.20557919,3.87926702 C3.20557919,4.95612565 4.17055587,5.83005236 5.36239161,5.83005236 C6.55492269,5.83005236 7.51903019,4.95612565 7.51903019,3.87926702 C7.51903019,2.79973822 6.55509653,1.92895288 5.36239161,1.92895288 M19.5317817,1.92895288 C18.3394245,1.92895288 17.3756647,2.79973822 17.3756647,3.87926702 C17.3756647,4.95612565 18.3394245,5.83005236 19.5317817,5.83005236 C20.7208361,5.83005236 21.6880726,4.95612565 21.6880726,3.87926702 C21.6880726,2.79973822 20.7208361,1.93036649 19.5317817,1.92895288 M12.4469998,0.149371728 C11.2553379,0.149371728 10.2903612,1.02 10.2903612,2.09984293 C10.2903612,3.17670157 11.255164,4.05062827 12.4469998,4.05062827 C13.6395308,4.05062827 14.6034645,3.17670157 14.6034645,2.09984293 C14.6034645,1.02 13.639357,0.149371728 12.4468259,0.149371728 M24.6304606,7.36366492 C24.5124349,7.28247387 24.3681947,7.23849875 24.2198544,7.23848168 C24.1386719,7.23848168 24.0564463,7.25183246 23.9789144,7.27884817 C22.5186723,7.78350785 21.0354835,8.16659686 19.6819781,8.45151832 C19.4059228,8.50963351 19.183062,8.69497382 19.09058,8.9173822 C18.104395,11.3580628 15.5861727,13.682199 12.9441774,16.1164398 C12.838136,16.2073822 12.6896781,16.3273822 12.4478689,16.3273822 C12.2065813,16.3273822 12.0595141,16.2111518 11.9515605,16.1164398 C9.30991288,13.682199 6.79169053,11.3660733 5.80515789,8.9252356 C5.71267588,8.70298429 5.48964128,8.51780105 5.21410749,8.45937173 C3.8597329,8.17445026 2.37306733,7.77942408 0.914389725,7.27507853 C0.837227839,7.2484706 0.755344887,7.23479161 0.672754418,7.23471204 C0.526556365,7.23471204 0.384878109,7.27617801 0.265277323,7.35879581 C0.0812745866,7.4859099 -0.0176950312,7.68942195 0.00312909031,7.8978534 C0.226859048,9.92748691 1.11447767,11.9117277 2.71639807,13.9908377 C4.22218586,15.9457068 6.18621155,17.7551309 8.08504786,19.5048691 C11.5837185,22.7294764 14.8889071,25.774712 15.1788694,29.3060733 C15.2051663,29.624921 15.4991448,29.871498 15.8530146,29.8715183 L19.9635962,29.8715183 C20.1486032,29.8713699 20.325473,29.8027763 20.4530345,29.6817044 C20.5805961,29.5606326 20.6477211,29.3976448 20.6387844,29.2306806 C20.5094486,26.8696335 19.5260451,24.5051309 17.6324239,22.0030366 C17.235551,21.4784293 16.8105162,20.9679581 16.3660115,20.4684817 C16.1853935,20.2650785 16.2610132,20.012356 16.3990408,19.8848168 C16.5356778,19.758534 16.6728362,19.6325654 16.8110377,19.5048691 C18.709874,17.7551309 20.6737259,15.9457068 22.1796875,13.9908377 C23.7814341,11.9114136 24.668705,9.93895288 24.8926088,7.90963351 C24.9148601,7.70575916 24.8124693,7.48931937 24.6304606,7.36366492 M8.03689463,22.2518325 C7.93954516,22.1599476 7.79682387,22.066178 7.55692695,22.066178 C7.25010226,22.066178 7.0680935,22.257801 6.99925352,22.3526702 C5.27025728,24.7298953 4.37724967,26.9736126 4.25382444,29.2283246 C4.24534125,29.3958061 4.31246838,29.5592246 4.43983148,29.6811518 C4.56842421,29.8023095 4.74600666,29.8710256 4.93179401,29.8715183 L9.03524828,29.8715183 C9.38983088,29.8701256 9.68397724,29.6232758 9.7116533,29.3038743 C9.80100622,28.2171204 10.175454,27.1278534 10.857248,25.9831414 C11.0936682,25.5871728 10.9099211,25.2150785 10.7739795,25.0561257 C10.0977483,24.2613613 9.2692347,23.4136649 8.03689463,22.2518325"/>
      <path d="M12.4516934,9.18314136 C13.7398356,9.18314136 14.4869928,9.11324607 14.7494887,9.11324607 C15.0676129,9.11324607 15.3713085,9.3486911 15.3713085,9.6782199 C15.3713085,9.77434555 15.3461019,9.84314136 15.321243,9.9039267 C15.1503599,10.3165445 14.371738,11.8013089 12.9221,13.0749738 C12.7593873,13.2179058 12.5751186,13.2446073 12.4482166,13.2446073 L12.4468259,13.2446073 C12.3200978,13.2446073 12.1360029,13.2179058 11.9734641,13.0749738 C10.5236522,11.8013089 9.74485643,10.3165445 9.57449485,9.90376963 C9.54928829,9.84314136 9.52408172,9.77434555 9.52408172,9.6782199 C9.52408172,9.3486911 9.82829884,9.11324607 10.146423,9.11324607 C10.4089189,9.11324607 11.1555546,9.18314136 12.4433491,9.18314136 L12.4518672,9.18314136"/>
    </g>
  </g>
</svg>
