<svg xmlns="http://www.w3.org/2000/svg" width="48" height="36" viewBox="0 0 48 36">
  <g fill="none">
    <rect width="47" height="35" x=".5" y=".5" fill="#FFF" stroke="#979797" opacity="0" rx="2"/>
    <g transform="translate(0 13)">
      <path fill="#000" d="M8.78710202,2.92643273 L7.69456713,9.36458474 L5.19734453,9.36458474 L5.96211895,4.82861401 C6.04015716,4.3896491 6.08698008,4.01571603 6.11819537,3.70681479 C6.14941065,3.39791356 6.14941065,3.13778621 6.08698008,2.95894865 C6.04015716,2.76385314 5.93090367,2.6175315 5.7904349,2.5362417 C5.63435849,2.4549519 5.41585151,2.40617802 5.10369869,2.40617802 C4.85397643,2.40617802 4.61986181,2.47120986 4.37013955,2.58501558 C4.12041729,2.6988213 3.88630267,2.82888497 3.68340333,2.95894865 L2.59086845,9.39710066 L0.0936458474,9.39710066 L1.62319469,0.325159193 L4.12041729,0.325159193 L3.94873323,1.33315269 C4.44817775,0.942961658 4.90079935,0.634060425 5.3378133,0.406448991 C5.75921962,0.178837556 6.21184121,0.0812897981 6.69567809,0.0812897981 C7.21073025,0.0812897981 7.63213657,0.211353475 7.97550467,0.487738789 C8.31887278,0.747866143 8.5529874,1.13805717 8.69345617,1.65831188 C9.2709389,1.17057309 9.81720634,0.780382062 10.3322585,0.503996748 C10.8473107,0.227611435 11.3311475,0.0812897981 11.7837691,0.0812897981 C12.6265818,0.0812897981 13.2040645,0.373933071 13.531825,0.959219618 C13.8595854,1.54450616 13.9376236,2.38992007 13.7503319,3.49546132 L12.7514429,9.39710066 L10.2542203,9.39710066 L11.0189947,4.86112993 C11.0970329,4.42216502 11.1438558,4.03197399 11.1906788,3.72307275 C11.2218941,3.41417152 11.2218941,3.17030213 11.1750711,2.97520661 C11.1282482,2.7801111 11.0346024,2.63378946 10.8785259,2.55249966 C10.7224495,2.47120986 10.4883349,2.42243598 10.1761821,2.42243598 C9.97328275,2.42243598 9.75477578,2.47120986 9.55187644,2.55249966 C9.36458474,2.60127354 9.09925484,2.73133722 8.78710202,2.92643273 Z"/>
      <path fill="#FF6804" d="M19.2130064,8.51917084 C19.0725376,8.6167186 18.9164612,8.73052432 18.7135618,8.860588 C18.5106625,8.99065167 18.3389785,9.08819943 18.1672944,9.16948923 C17.9331798,9.26703699 17.6990652,9.34832678 17.4649505,9.39710066 C17.2308359,9.44587454 16.965506,9.4621325 16.6845685,9.4621325 C16.0290476,9.4621325 15.529603,9.25077903 15.1550196,8.82807208 C14.7804363,8.40536513 14.6555751,7.86885246 14.7648286,7.21853407 C14.8584745,6.69827937 15.0301585,6.27557242 15.3110961,5.93415526 C15.5920336,5.60899607 15.9510093,5.34886872 16.3880233,5.1537732 C16.8250373,4.95867769 17.3556971,4.82861401 17.9643951,4.74732421 C18.5730931,4.66603441 19.2130064,4.60100257 19.8685273,4.56848665 L19.8685273,4.53597074 C19.9309579,4.1457797 19.8217044,3.86939439 19.5407668,3.72307275 C19.2598293,3.57675112 18.8072077,3.49546132 18.2141173,3.49546132 C17.8551416,3.49546132 17.4493429,3.56049316 17.0279366,3.69055684 C16.5909226,3.82062051 16.2787698,3.93442623 16.0914781,3.99945807 L15.9197941,3.99945807 L16.2163392,2.27611435 C16.4660615,2.21108251 16.8406449,2.12979271 17.3869123,2.04850291 C17.9175721,1.96721311 18.4482319,1.91843924 18.9788917,1.91843924 C20.227503,1.91843924 21.101531,2.11353475 21.5853678,2.51998374 C22.0692047,2.92643273 22.2408888,3.5442352 22.10042,4.40590706 L21.2576074,9.26703699 L19.0881452,9.26703699 L19.2130064,8.51917084 Z M19.4002981,7.39737163 L19.6500203,5.9178973 C19.3534751,5.95041322 19.0257147,5.98292914 18.6667389,6.01544506 C18.3077632,6.06421894 18.0424333,6.11299282 17.8551416,6.17802466 C17.621027,6.2430565 17.4337353,6.35686221 17.2932665,6.48692589 C17.1527977,6.61698957 17.0591519,6.81208508 17.0279366,7.02343856 C16.9967213,7.1697602 16.9967213,7.28356591 16.9967213,7.38111367 C16.9967213,7.47866143 17.0591519,7.55995123 17.1371901,7.64124102 C17.2152283,7.72253082 17.3244818,7.78756266 17.4337353,7.82007858 C17.5585964,7.8525945 17.7614957,7.88511042 18.0268256,7.88511042 C18.2453326,7.88511042 18.4794472,7.83633654 18.7135618,7.73878878 C18.9476765,7.64124102 19.2130064,7.55995123 19.4002981,7.39737163 Z"/>
      <g fill="#000" transform="translate(23.568 1.788)">
        <polygon points="7.819 .341 3.964 7.479 1.483 7.479 .062 .341 2.372 .341 3.137 5.251 5.541 .341"/>
        <path d="M15.1081967 4.34087522L10.0825362 4.34087522C10.0201057 4.89364585 10.1449668 5.33261076 10.4727273 5.62525403 10.8004877 5.9178973 11.3311475 6.06421894 12.0647067 6.06421894 12.5329359 6.06421894 12.9855575 5.98292914 13.4537867 5.80409159 13.922016 5.62525403 14.2965994 5.44641647 14.5775369 5.25132096L14.8272592 5.25132096 14.5151064 7.0884704C13.9844466 7.29982387 13.485002 7.44614551 13.0323804 7.54369327 12.5797588 7.64124102 12.0803143 7.6900149 11.5496545 7.6900149 10.1761821 7.6900149 9.17729305 7.36485571 8.5529874 6.73079529 7.92868175 6.0804769 7.72578241 5.17003116 7.92868175 3.98320011 8.13158109 2.81262702 8.63102561 1.86966536 9.44262295 1.18683105 10.2542203.503996748 11.2531093.162579596 12.4705054.162579596 13.5786479.162579596 14.3746376.45522287 14.8272592 1.04050942 15.2954884 1.62579596 15.4203495 2.47120986 15.2330579 3.57675112L15.1081967 4.34087522zM13.1416339 2.99146457C13.2040645 2.51998374 13.1572416 2.14605067 12.9855575 1.91843924 12.8138735 1.67456984 12.5017206 1.56076412 12.0334914 1.56076412 11.6120851 1.56076412 11.2375017 1.67456984 10.9253489 1.90218128 10.613196 2.12979271 10.3946891 2.50372578 10.2854356 3.00772253L13.1416339 3.00772253 13.1416339 2.99146457zM23.0056632 7.47866143L20.8049858 7.47866143 21.3980761 3.93442623C21.4448991 3.64178296 21.4761143 3.36539764 21.5073296 3.07275437 21.5229373 2.7801111 21.5073296 2.56875762 21.4605067 2.43869394 21.3980761 2.27611435 21.3044303 2.16230863 21.1639615 2.09727679 21.0234928 2.03224495 20.8049858 1.98347107 20.5240482 1.98347107 20.3211489 1.98347107 20.1182496 2.01598699 19.8997426 2.08101883 19.6812356 2.14605067 19.447121 2.25985639 19.1817911 2.40617802L18.3233708 7.47866143 16.1226934 7.47866143 17.3244818.341417152 19.5251592.341417152 19.3846904 1.12179921C19.8217044.796640022 20.2431107.552770627 20.6333017.390191031 21.0234928.227611435 21.4292914.130063677 21.8663054.130063677 22.5998645.130063677 23.146132.357675112 23.4895001.796640022 23.8328682 1.25186289 23.926514 1.91843924 23.7704376 2.81262702L23.0056632 7.47866143z"/>
      </g>
    </g>
  </g>
</svg>
