<svg xmlns="http://www.w3.org/2000/svg" width="48" height="36" viewBox="0 0 48 36">
  <g fill="none">
    <rect width="48" height="36" fill="#FFF" rx="2"/>
    <g transform="translate(8 4)">
      <polygon fill="#808382" points="8.393 13.236 16.787 28 0 28"/>
      <path fill="#F02728" d="M30.9747678,26.2058437 L29.9802507,28 L27.939371,28 L29.9388098,24.3929171 L30.9747678,26.2058437 Z M31.2702293,26.7229012 L32,28 L30.5623219,28 L31.2702293,26.7229012 Z M29.6433483,23.8758595 L27.3572999,28 L24.1577021,28 L28.0192207,21.0336362 L29.6433483,23.8758595 Z M27.5760285,20.2580498 L23.2845954,28 L20.3661793,28 L26.0946297,17.6656019 L27.5760285,20.2580498 Z M25.6514375,16.8900156 L19.4930725,28 L18.3598569,28 L17.6481508,26.7160481 L24.3536837,14.6189465 L25.6514375,16.8900156 Z M23.9104915,13.8433601 L17.2115974,25.928485 L16.0481485,23.8295677 L22.7293496,11.7763619 L23.9104915,13.8433601 Z M22.0202421,10.5354237 L15.3496631,22.5694667 L14.555779,21.1372619 L21.2142851,9.12499894 L22.0202421,10.5354237 Z M20.5051776,7.88406077 L13.8572937,19.8771608 L13.2859074,18.8463528 L19.925102,6.86892857 L20.5051776,7.88406077 Z M19.2159945,5.6279904 L12.587422,17.5862518 L12.0116355,16.5475055 L18.6314518,4.60504071 L19.2159945,5.6279904 Z M17.863252,3.26069102 L11.254943,15.182396 L10.6688015,14.1249687 L17.2681968,2.21934437 L17.863252,3.26069102 Z M16.499997,0.874994684 L9.91210896,12.7598593 L9.31953112,11.6908205 L16,0 L16.499997,0.874994684 Z"/>
    </g>
  </g>
</svg>
