<svg xmlns="http://www.w3.org/2000/svg" width="48" height="36" viewBox="0 0 48 36">
  <g fill="none">
    <rect width="48" height="36" fill="#FFF" rx="2"/>
    <g transform="translate(3 2)">
      <rect width="41" height="31" x=".5" y=".5" fill="#FCFCFC" stroke="#F2F2F2" rx="2"/>
      <g transform="translate(3.5 4)">
        <g fill="#070707">
          <path d="M-.00000605987284 7.11920409C.527566486 7.40538242 1.34031666 7.6200922 2.25287294 7.6200922 4.24905571 7.6200922 5.2614181 6.66119711 5.2614181 5.34453348 5.2471168 4.32840272 4.70530355 3.65580761 3.37928213 3.19780062 2.52374926 2.91156147 2.25287294 2.72556076 2.25287294 2.39637964 2.25287294 2.052844 2.55229126 1.83819504 3.07986381 1.83819504 3.66445976 1.83819504 4.27753711 2.06713771 4.59125674 2.22461182L4.96193917.736241192C4.53423333.521531412 3.82128927.321176167 3.0085391.321176167 1.28329325.321176167.171124754 1.30865868.171124754 2.62532231.156823454 3.44109783.712938002 4.22828592 2.16730753 4.7148195 2.9657564 4.97241041 3.17966992 5.15853277 3.17966992 5.51624048 3.17966992 5.87406984 2.90873299 6.08877962 2.25287294 6.08877962 1.61119298 6.08877962.784202109 5.81683417.384977674 5.57353697L-.00000605987284 7.11920409zM9.12545977 6.07444333C8.21290349 6.07444333 7.71387295 5.17284473 7.71387295 3.98488532 7.71387295 2.94022796 8.11309739 1.88115524 9.13970048 1.88115524 10.1235815 1.88115524 10.5228059 2.94022796 10.5228059 3.97065243 10.5228059 5.23001957 9.99523335 6.07444333 9.13970048 6.07444333L9.12545977 6.07444333zM9.09691777 7.63440416C10.9505723 7.63440416 12.7613836 6.46086011 12.7613836 3.91341676 12.7613836 1.79521051 11.3355561.321194414 9.21102518.321194414 6.95814619.321194414 5.47529526 1.76668391 5.47529526 4.0278881 5.47529526 6.28909229 7.04371159 7.63440416 9.08267707 7.63440416L9.09691777 7.63440416zM13.3887622 7.47696654L15.5560758 7.47696654 15.5560758 3.44109174C15.5560758 3.24079732 15.5703165 3.04038125 15.6273399 2.89726167 15.7841695 2.49655118 16.1406718 2.08148616 16.7395084 2.08148616 17.5237166 2.08148616 17.8374362 2.69690643 17.8374362 3.59850503L17.8374362 7.47696654 20.0047498 7.47696654 20.0047498 3.34091412C20.0047498 1.28006518 18.9353034.321170085 17.5094759.321170085 16.340284.321170085 15.6415806.993826021 15.3564636 1.45177218L15.3136809 1.45177218 15.2138748.478583374 13.3317388.478583374C13.3602202 1.10829735 13.3887622 1.83818896 13.3887622 2.71120014L13.3887622 7.47696654zM24.7385711 4.92952928C24.7385711 5.05829432 24.7243304 5.18712019 24.6957884 5.30159152 24.5531996 5.74524397 24.0969518 6.10307333 23.5693792 6.10307333 23.0845894 6.10307333 22.7138464 5.83112788 22.7138464 5.27294328 22.7138464 4.44293488 23.5978606 4.17098943 24.7385711 4.17098943L24.7385711 4.92952928zM26.83456 3.3409202C26.83456 1.69507546 26.1073753.321176167 23.7832321.321176167 22.5142341.321176167 21.5588952.678944701 21.0741053.950890148L21.4733903 2.33908315C21.9296382 2.06713771 22.685365 1.82384051 23.3982484 1.82384051 24.4676342 1.82384051 24.6672464 2.35337686 24.6672464 2.72556076L24.6672464 2.81138384C22.2005751 2.81138384 20.5750748 3.67010132 20.5750748 5.48765306 20.5750748 6.60396144 21.4163063 7.63444674 22.8278932 7.63444674 23.6549446 7.63444674 24.3678281 7.33385304 24.8241365 6.77572926L24.8669192 6.77572926 24.9952068 7.47697262 26.9486674 7.47697262C26.863102 7.09055584 26.83456 6.44648733 26.83456 5.78818592L26.83456 3.3409202zM27.8469163 7.47696654L30.0142299 7.47696654 30.0142299 3.94204068C30.0142299 3.75591832 30.0284706 3.59850503 30.0570126 3.45544628 30.1996014 2.76843581 30.7414147 2.35343161 31.5398636 2.35343161 31.7822585 2.35343161 31.9533893 2.38201903 32.1244595 2.41066727L32.1244595.364112041C31.96763.335463795 31.8678239.321170085 31.6682117.321170085 30.9838096.321170085 30.1425174.75052882 29.7860757 1.78101412L29.7290523 1.78101412 29.6434869.478583374 27.7898929.478583374C27.8326756 1.07964911 27.8469163 1.75236587 27.8469163 2.78272952L27.8469163 7.47696654z"/>
        </g>
        <g transform="translate(0 9.251)">
          <path fill="#070707" d="M7.83134289,4.98391616 C6.52301024,3.04866636 3.89805201,2.54811886 1.97200015,3.86272054 C0.0446938929,5.17732223 -0.455460757,7.81135201 0.854962545,9.74457332 C2.01374359,11.4575985 4.20203342,12.0445317 6.02487656,11.2470552 L7.65712154,13.9078051 L8.95249212,13.0245024 L7.32101371,10.3637525 C8.73116132,8.95591023 8.99207521,6.69491285 7.83134289,4.98391616 M6.00306405,9.81724923 C4.65577551,10.7360854 2.81578899,10.3836177 1.89959376,9.03131412 C0.983398524,7.67901049 1.33525596,5.83154536 2.6825445,4.91054076 C4.02920585,3.99163461 5.86981956,4.34480178 6.78601479,5.69710541 C7.70283722,7.04877951 7.35167667,8.89687417 6.00306405,9.81724923"/>
          <path fill="#499CD2" d="M32.3916013,12.4372887 L31.6785468,12.4372887 C31.6785468,6.67249701 26.9395501,1.9827275 21.1149819,1.9827275 L21.1149819,1.26701871 C27.3332551,1.26701871 32.3916013,6.27683186 32.3916013,12.4372887"/>
          <path fill="#489CD2" d="M32.8843486 8.59216043C32.0288408 4.97587992 29.109067 1.9574989 25.4482505.902408334L25.6124832.32879279C29.4762129 1.44254072 32.557805 4.63115666 33.462144 8.45397438L32.8843486 8.59216043zM33.6872753 5.1984564C32.8051592 3.26765995 31.3008018 1.58365964 29.4549213.457250425L29.7017877.0494680348C31.6293164 1.22582997 33.1969425 2.98253376 34.1186755 4.99918954L33.6872753 5.1984564z"/>
          <path fill="#070707" d="M15.5250413 5.71028874L14.433948 5.71028874 14.433948 9.39391414C14.433948 9.60547693 14.3967456 9.80466329 14.3347768 9.95397372 14.1363819 10.4517281 13.6280376 10.9620175 12.8964792 10.9620175 11.9169929 10.9620175 11.557458 10.1780187 11.557458 9.03304093L11.557458 5.71028874 10.4663647 5.71028874 10.4663647 9.2321744C10.4663647 11.3353729 11.5946603 11.870521 12.5369443 11.870521 13.6032184 11.870521 14.2479889 11.2358326 14.5207359 10.7504547L14.545555 10.7504547 14.6075238 11.733587 15.5746269 11.733587C15.5374245 11.2606913 15.5250413 10.7131139 15.5250413 10.0784255L15.5250413 5.71028874zM17.8063991 8.23659696C17.8063991 8.06237501 17.8312182 7.91301168 17.8684205 7.77613056 18.0791987 6.95479094 18.7735548 6.4320722 19.5174437 6.4320722 20.6829417 6.4320722 21.3028931 7.46502749 21.3028931 8.68463404 21.3028931 10.0659803 20.6333035 10.9993425 19.4802414 10.9993425 18.6990974 10.9993425 18.0543796 10.4766766 17.8436014 9.71753644 17.8187823 9.59308464 17.8063991 9.45620352 17.8063991 9.3193224L17.8063991 8.23659696zM16.7153058 10.1780028C16.7153058 10.713098 16.7029225 11.3229277 16.6657729 11.7335711L17.6080041 11.7335711 17.6700256 10.7380095 17.6948447 10.7380095C18.1536034 11.5344905 18.8354709 11.8705051 19.7034028 11.8705051 21.0424766 11.8705051 22.4063169 10.8002619 22.4063169 8.63481101 22.4063169 6.81790982 21.3648092 5.57339175 19.8769786 5.57339175 18.9098756 5.57339175 18.2155722 5.99651732 17.8312182 6.6685465L17.8063991 6.6685465 17.8063991 2.89775723 16.7153058 2.89775723 16.7153058 10.1780028zM23.7825984 8.13701436C23.8693863 7.3778742 24.3405283 6.357454 25.4564407 6.357454 26.6714716 6.357454 26.9690904 7.44012655 26.9566545 8.13701436L23.7825984 8.13701436zM27.9733431 8.92106603C27.9981623 8.79661423 28.0105455 8.63482159 28.0105455 8.41082949 28.0105455 7.30319254 27.5022012 5.57340233 25.5432287 5.57340233 23.7949816 5.57340233 22.7163242 7.00457167 22.7163242 8.82147285 22.7163242 10.6260505 23.832184 11.8580864 25.6672189 11.8580864 26.6219388 11.8580864 27.291423 11.6465236 27.6758297 11.4723016L27.4774347 10.6881971C27.0806448 10.8624719 26.5971196 10.999353 25.8159756 10.999353 24.724935 10.999353 23.7949816 10.3895762 23.7702152 8.92106603L27.9733431 8.92106603z"/>
        </g>
      </g>
    </g>
  </g>
</svg>
