<svg xmlns="http://www.w3.org/2000/svg" width="48" height="36" viewBox="0 0 48 36">
  <g fill="none">
    <rect width="48" height="36" fill="#FFF" rx="2"/>
    <g opacity=".8" transform="rotate(-5 36.289 -69.033)">
      <polygon fill="#A295AE" points="29.124 5.989 26.837 16.163 16.393 16.424 18.769 6.593"/>
      <polygon fill="#5D6F6D" points="3.68 27.196 5.919 17.018 16.393 16.424 14.153 26.602"/>
      <polygon fill="#8CD592" points="5.723 3.951 15.781 6.166 16.393 16.424 6.334 14.21"/>
      <polygon fill="#665E74" points="16.974 26.741 16.393 16.424 26.588 18.919 27.081 29.234"/>
      <polygon fill="#3C3647" points="14.933 33.028 9.31 24.34 16.393 16.424 21.987 25.444"/>
      <polygon fill="#837193" points="24.026 23.279 16.393 16.424 25.085 11.159 32.906 17.863"/>
      <polygon fill="#A2F4AC" points="17.823 .153 23.446 8.841 16.393 16.424 10.936 7.751"/>
      <polygon fill="#7EA685" points=".046 15.001 8.744 9.736 16.393 16.424 7.665 22.022"/>
    </g>
  </g>
</svg>
