<svg xmlns="http://www.w3.org/2000/svg" width="16" height="16" viewBox="0 0 16 16">
  <path d="M8,0 C12.4196429,0 16,3.58035714 16,8 C16,12.3928571 12.4375,16 8,16 C3.57142857,16 0,12.4017857 0,8 C0,3.58035714 3.58035714,0 8,0 Z M13.5267857,12.0625 C14.3571429,10.9196429 14.8571429,9.51785714 14.8571429,8 C14.8571429,4.22321429 11.7767857,1.14285714 8,1.14285714 C4.22321429,1.14285714 1.14285714,4.22321429 1.14285714,8 C1.14285714,9.51785714 1.64285714,10.9196429 2.47321429,12.0625 C2.79464286,10.4642857 3.57142857,9.14285714 5.20535714,9.14285714 C5.92857143,9.84821429 6.91071429,10.2857143 8,10.2857143 C9.08928571,10.2857143 10.0714286,9.84821429 10.7946429,9.14285714 C12.4285714,9.14285714 13.2053571,10.4642857 13.5267857,12.0625 Z M11.4285714,6.28571429 C11.4285714,4.39285714 9.89285714,2.85714286 8,2.85714286 C6.10714286,2.85714286 4.57142857,4.39285714 4.57142857,6.28571429 C4.57142857,8.17857143 6.10714286,9.71428571 8,9.71428571 C9.89285714,9.71428571 11.4285714,8.17857143 11.4285714,6.28571429 Z"/>
</svg>
