<svg xmlns="http://www.w3.org/2000/svg" width="16" height="16" viewBox="0 0 16 16">
  <path d="M6.25,11.0625 C6.25,11.5175 6.313875,11.957625 6.432,12.375 L1,12.375 C1,10.611875 3.282,9.15325 6.25,8.910875 L6.25,8.189 C5.28575,7.645625 4.5,6.292 4.5,4.9375 C4.5,2.763125 4.5,1 7.125,1 C9.75,1 9.75,2.763125 9.75,4.9375 C9.75,5.493125 9.617,6.04875 9.39475,6.548375 C7.56075,7.227375 6.25,8.994875 6.25,11.0625 Z M15,10.5026367 L15,11.6408205 C15,11.6818362 14.9856441,11.7218267 14.9569336,11.7607918 C14.9282217,11.7997569 14.89541,11.8212901 14.8584955,11.8253914 L13.9048827,11.9730478 C13.8597656,12.116603 13.7941407,12.2724606 13.7080079,12.4406249 C13.8474617,12.6375011 14.0320299,12.8733382 14.2617178,13.1481446 C14.2904297,13.1891604 14.3047842,13.2301761 14.3047842,13.2711919 C14.3047842,13.3204102 14.2904297,13.3593753 14.2617178,13.3880858 C14.1673824,13.5111331 13.9981941,13.6946773 13.7541503,13.9387211 C13.5101064,14.182765 13.3491207,14.3047856 13.2711905,14.3047856 C13.2260735,14.3047856 13.1830071,14.2904297 13.1419913,14.2617192 L12.434473,13.7080079 C12.2827139,13.7859381 12.1248056,13.8495124 11.9607425,13.8987307 C11.9156241,14.3417014 11.8684564,14.6595701 11.819238,14.8523436 C11.7905276,14.9507816 11.7290039,15 11.6346672,15 L10.4903315,15 C10.4452144,15 10.4041987,14.9846201 10.3672856,14.9538576 C10.3303711,14.9230951 10.3098633,14.8872074 10.305762,14.8461916 L10.1642575,13.9048827 C10.0248036,13.8638669 9.87099661,13.800294 9.7028323,13.7141598 L8.97685538,14.2617192 C8.9481449,14.2904297 8.90712915,14.3047856 8.85380811,14.3047856 C8.80869106,14.3047856 8.76562466,14.288379 8.7246089,14.2555672 C8.13398135,13.7100558 7.83867178,13.3819339 7.83867178,13.2711919 C7.83867178,13.2342774 7.85302716,13.1953123 7.88173818,13.1542966 C7.92275408,13.0968756 8.00683527,12.9881843 8.13398438,12.8282226 C8.26113336,12.6682609 8.35751914,12.5431643 8.42314449,12.4529302 C8.32880811,12.2724606 8.25703137,12.1042977 8.20781247,11.9484373 L7.2726563,11.8007822 C7.23164041,11.7966795 7.19677749,11.7771983 7.1680664,11.7423345 C7.13935532,11.7074707 7.125,11.6674817 7.125,11.6223633 L7.125,10.4841795 C7.125,10.4431638 7.13935532,10.4031747 7.1680664,10.3642096 C7.19677749,10.3252445 7.22958965,10.3037113 7.26650394,10.29961 L8.22011719,10.1519536 C8.26523452,10.0083984 8.3308589,9.85254076 8.41699212,9.68437507 C8.27753828,9.4874989 8.09296987,9.25166176 7.86328123,8.97685538 C7.83457007,8.93173832 7.82021483,8.89072395 7.82021483,8.85380949 C7.82021483,8.80458976 7.83457007,8.76357538 7.86328123,8.73076223 C7.95351603,8.60771497 8.12167842,8.42519748 8.36777336,8.18320425 C8.61386829,7.94120965 8.7758779,7.82021579 8.85380811,7.82021579 C8.89892655,7.82021579 8.94199157,7.83457034 8.98300733,7.8632822 L9.69052702,8.41699212 C9.82998086,8.34316459 9.98788917,8.27753966 10.1642575,8.22011733 C10.2093745,7.77714663 10.2565422,7.46133001 10.305762,7.27265644 C10.3344724,7.17421835 10.3959961,7.125 10.4903315,7.125 L11.6346672,7.125 C11.6797856,7.125 11.7208,7.14038125 11.7577144,7.17114376 C11.7946289,7.20190488 11.8151367,7.23779401 11.819238,7.27880977 L11.9607425,8.22011733 C12.1001964,8.26113308 12.2540034,8.32470737 12.4221677,8.41084017 L13.1481446,7.8632822 C13.1809564,7.83457034 13.2219722,7.82021579 13.2711905,7.82021579 C13.3163089,7.82021579 13.359374,7.83662099 13.4003897,7.86943415 C13.9910182,8.41494423 14.2863284,8.74306613 14.2863284,8.85380949 C14.2863284,8.89072395 14.2719724,8.92968767 14.243262,8.97070343 C14.1940422,9.03632836 14.1079108,9.14707034 13.9848635,9.30293076 C13.8618149,9.4587898 13.7695315,9.58183568 13.7080079,9.67207117 C13.8023433,9.86894734 13.8720695,10.0371089 13.9171866,10.1765627 L14.8523436,10.3180672 C14.8933593,10.3262698 14.9282217,10.347803 14.9569336,10.3826668 C14.9856441,10.4175293 15,10.4575197 15,10.5026367 Z M12.1760746,12.1760746 C12.4836927,11.8684564 12.6374997,11.4972681 12.6374997,11.0625 C12.6374997,10.6277333 12.4836927,10.256545 12.1760746,9.94892682 C11.868455,9.64130729 11.4972681,9.48750028 11.0625,9.48750028 C10.6277319,9.48750028 10.256545,9.64130729 9.94892544,9.94892682 C9.64130729,10.256545 9.48750028,10.6277333 9.48750028,11.0625 C9.48750028,11.4972681 9.64130729,11.8684564 9.94892544,12.1760746 C10.256545,12.4836927 10.6277319,12.6374997 11.0625,12.6374997 C11.4972681,12.6374997 11.868455,12.4836927 12.1760746,12.1760746 Z"/>
</svg>
