<svg xmlns="http://www.w3.org/2000/svg" width="16" height="16" viewBox="0 0 16 16">
  <path d="M12,2 C11.954277,2.39345714 12,2.2858443 12,2 C12,2.04272537 11.954277,1.93511253 12,2 L11,1 C11.0836848,1.04683311 10.9782352,1 11,1 C10.7401721,1 10.6347225,1.04683311 11,1 L4,8 C4.04572296,7.7708277 4,7.87844054 4,8 C4,8.12155946 4.04572296,8.2291723 4,8 L11,15 C10.6345537,14.9533391 10.7400034,15 11,15 C10.9780665,15 11.0835161,14.9533391 11,15 L12,14 C11.9541083,14.0650596 11.9998313,13.9574468 12,14 C11.9998313,13.7143279 11.9541083,13.606715 12,14 L6,8 L12,2 Z"/>
</svg>
