<svg xmlns="http://www.w3.org/2000/svg" width="16" height="16" viewBox="0 0 16 16">
  <path d="M5,1 C5.001,1 5.002,1 5.002,1 C5.002,1 5.002,1 5.002,1 C5.002,1 5.002,1 5.002,1 C5.002,1 5.002,1 5.002,1 C5.002,1 5.001,1 5,1 Z M5,1 L5.003,1.003 C5.001,1.005 4.995,1.009 4.989,1.012 L5,1 C4.947,1.03 4.97,1.022 4.989,1.012 L4.02,1.98 C4.021,1.983 4.018,1.988 4.016,1.995 C4.014,2 4.01,2.005 4.008,2.007 L10,8 L4.008,13.992 C4.01,13.995 4.013,14.001 4.016,14.006 C4.018,14.011 4.02,14.017 4.02,14.02 L4,14 L4.008,13.992 C4.006,13.991 4.005,13.99 4.004,13.99 C4.003,13.99 4.002,13.991 4.001,13.992 C4.022,13.816 4.023,13.743 4.018,13.743 C4.014,13.743 4,13.846 4,14 C4.016,14.021 4.02,14.024 4.02,14.02 L4.989,14.988 C4.98,14.983 4.97,14.979 4.968,14.979 C4.965,14.979 4.972,14.984 5,15 L4.989,14.988 C4.995,14.992 5.001,14.995 5.003,14.997 L5,15 C5.001,15 5.002,15 5.002,15 C5.004,14.999 5.004,14.998 5.003,14.997 L12,8 L5.003,1.003 C5.004,1.002 5.004,1.001 5.002,1 C5.002,1 5.001,1 5,1 C5,1 5,1 5,1 Z M4.001,13.992 C4.001,13.995 4,13.997 4,14 C4,13.996 4,13.994 4.001,13.992 Z M5.002,1 C5.364,1.047 5.259,1 5.002,1 Z M4,2 C4,2.283 4.045,2.391 4.001,2.008 C4,2.006 4,2.004 4,2 C4,2.003 4.001,2.005 4.001,2.008 C4.002,2.012 4.005,2.011 4.008,2.007 L4,2 L4.02,1.98 C4.02,1.979 4.02,1.979 4.019,1.979 C4.018,1.979 4.011,1.985 4,2 Z M12,8 C12,7.931 11.984,7.865 11.981,7.865 C11.977,7.865 11.98,7.902 12,8 Z M12,8 C11.954,8.229 12,8.122 12,8 Z M5.002,15 C5.174,14.999 5.277,14.979 5.22,14.979 C5.191,14.979 5.123,14.984 5.002,15 Z M5.002,15 C5.002,15 5.002,15 5.002,15 C5.002,15 5.001,15 5,15 C5.001,15 5.002,15 5.002,15 C5.002,15 5.002,15 5.002,15 C5.002,15 5.002,15 5.002,15 Z"/>
</svg>
