<!-- Generated by IcoMoon.io -->
<svg version="1.1" xmlns="http://www.w3.org/2000/svg" width="16" height="16" viewBox="0 0 16 16">
<title>check_circle_s</title>
<path d="M13.375 6.313c0-0.177-0.063-0.354-0.188-0.479l-0.948-0.938c-0.125-0.125-0.292-0.198-0.469-0.198s-0.344 0.073-0.469 0.198l-4.25 4.24-2.354-2.354c-0.125-0.125-0.292-0.198-0.469-0.198s-0.344 0.073-0.469 0.198l-0.948 0.938c-0.125 0.125-0.188 0.302-0.188 0.479s0.063 0.344 0.188 0.469l3.771 3.771c0.125 0.125 0.302 0.198 0.469 0.198 0.177 0 0.354-0.073 0.479-0.198l5.656-5.656c0.125-0.125 0.188-0.292 0.188-0.469zM16 8c0 4.417-3.583 8-8 8s-8-3.583-8-8c0-4.417 3.583-8 8-8s8 3.583 8 8z"></path>
</svg>
