<svg xmlns="http://www.w3.org/2000/svg" width="16" height="16" viewBox="0 0 16 16">
  <path d="M12.8193548,5.0100998 C12.9397859,5.13580227 13,5.28843905 13,5.46801316 C13,5.64758726 12.9397859,5.80022404 12.8193548,5.925925 L8.14838699,10.8013466 L7.27096745,11.7171717 C7.15053638,11.8428738 7.00430196,11.9057239 6.8322584,11.9057239 C6.6602134,11.9057239 6.51397897,11.8428738 6.3935479,11.7171717 L5.51612836,10.8013466 L3.18064516,8.3636365 C3.06021445,8.23793403 3,8.08529875 3,7.90572314 C3,7.72614904 3.06021445,7.57351377 3.18064516,7.4478113 L4.05806456,6.53198609 C4.17849519,6.40628362 4.32473034,6.34343389 4.49677375,6.34343389 C4.66881731,6.34343389 4.81505318,6.40628362 4.93548424,6.53198609 L6.8322584,8.51851781 L11.0645158,4.0942761 C11.1849468,3.96857363 11.3311812,3.9057239 11.5032263,3.9057239 C11.6752698,3.9057239 11.8215042,3.96857363 11.9419353,4.0942761 L12.8193548,5.0100998 Z"/>
</svg>
