<svg xmlns="http://www.w3.org/2000/svg" width="6" height="6" viewBox="0 0 6 6">
  <path d="M3,2.29289322 L5.14644661,0.146446609 C5.34170876,-0.0488155365 5.65829124,-0.0488155365 5.85355339,0.146446609 C6.04881554,0.341708755 6.04881554,0.658291245 5.85355339,0.853553391 L3.70710678,3 L5.85355339,5.14644661 C6.04881554,5.34170876 6.04881554,5.65829124 5.85355339,5.85355339 C5.65829124,6.04881554 5.34170876,6.04881554 5.14644661,5.85355339 L3,3.70710678 L0.853553391,5.85355339 C0.658291245,6.04881554 0.341708755,6.04881554 0.146446609,5.85355339 C-0.0488155365,5.65829124 -0.0488155365,5.34170876 0.146446609,5.14644661 L2.29289322,3 L0.146446609,0.853553391 C-0.0488155365,0.658291245 -0.0488155365,0.341708755 0.146446609,0.146446609 C0.341708755,-0.0488155365 0.658291245,-0.0488155365 0.853553391,0.146446609 L3,2.29289322 Z"/>
</svg>
