<svg xmlns="http://www.w3.org/2000/svg" width="16" height="16" viewBox="0 0 16 16">
  <path d="M8.98962928,7.97650068 L14.7936293,2.19850068 C15.0686293,1.92450068 15.0696293,1.48150068 14.7966293,1.20650068 C14.5236293,0.931500684 14.0816293,0.931500684 13.8066293,1.20450068 L8.00062928,6.98350068 L2.24562928,1.20650068 C1.97362928,0.933500684 1.53062928,0.932500684 1.25662928,1.20550068 C0.982629285,1.47850068 0.981629285,1.92150068 1.25462928,2.19650068 L7.00862928,7.97250068 L1.20662928,13.7475007 C0.932629285,14.0205007 0.930629285,14.4625007 1.20362928,14.7375007 C1.34062928,14.8755007 1.52062928,14.9445007 1.70062928,14.9445007 C1.87862928,14.9445007 2.05762928,14.8765007 2.19362928,14.7405007 L7.99662928,8.96350068 L13.8036293,14.7935007 C13.9406293,14.9315007 14.1206293,14.9995007 14.2996293,14.9995007 C14.4786293,14.9995007 14.6576293,14.9315007 14.7946293,14.7955007 C15.0676293,14.5215007 15.0686293,14.0795007 14.7956293,13.8055007 L8.98962928,7.97650068 Z"/>
</svg>
