<svg xmlns="http://www.w3.org/2000/svg" width="16" height="16" viewBox="0 0 16 16">
  <path d="M8,0 C3.58064516,0 0,3.58064516 0,8 C0,12.4193548 3.58064516,16 8,16 C12.4193548,16 16,12.4193548 16,8 C16,3.58064516 12.4193548,0 8,0 Z M8,14.4516129 C4.43548387,14.4516129 1.5483871,11.5645161 1.5483871,8 C1.5483871,4.43548387 4.43548387,1.5483871 8,1.5483871 C11.5645161,1.5483871 14.4516129,4.43548387 14.4516129,8 C14.4516129,11.5645161 11.5645161,14.4516129 8,14.4516129 Z M11.283871,5.99354839 L9.27741935,8 L11.283871,10.0064516 C11.4354839,10.1580645 11.4354839,10.4032258 11.283871,10.5548387 L10.5548387,11.283871 C10.4032258,11.4354839 10.1580645,11.4354839 10.0064516,11.283871 L8,9.27741935 L5.99354839,11.283871 C5.84193548,11.4354839 5.59677419,11.4354839 5.44516129,11.283871 L4.71612903,10.5548387 C4.56451613,10.4032258 4.56451613,10.1580645 4.71612903,10.0064516 L6.72258065,8 L4.71612903,5.99354839 C4.56451613,5.84193548 4.56451613,5.59677419 4.71612903,5.44516129 L5.44516129,4.71612903 C5.59677419,4.56451613 5.84193548,4.56451613 5.99354839,4.71612903 L8,6.72258065 L10.0064516,4.71612903 C10.1580645,4.56451613 10.4032258,4.56451613 10.5548387,4.71612903 L11.283871,5.44516129 C11.4354839,5.59677419 11.4354839,5.84193548 11.283871,5.99354839 Z"/>
</svg>
