<!-- Generated by IcoMoon.io -->
<svg version="1.1" xmlns="http://www.w3.org/2000/svg" width="16" height="16" viewBox="0 0 16 16">
<title>close_circle_s</title>
<path d="M8 0c-4.419 0-8 3.581-8 8s3.581 8 8 8c4.419 0 8-3.581 8-8s-3.581-8-8-8zM11.923 10.1c0.152 0.152 0.152 0.397 0 0.548l-1.277 1.274c-0.152 0.152-0.397 0.152-0.548 0l-2.097-2.116-2.1 2.116c-0.152 0.152-0.397 0.152-0.548 0l-1.274-1.277c-0.152-0.152-0.152-0.397 0-0.548l2.116-2.097-2.116-2.1c-0.152-0.152-0.152-0.397 0-0.548l1.277-1.277c0.152-0.152 0.397-0.152 0.548 0l2.097 2.119 2.1-2.116c0.152-0.152 0.397-0.152 0.548 0l1.277 1.277c0.152 0.152 0.152 0.397 0 0.548l-2.119 2.097 2.116 2.1z"></path>
</svg>
