<svg xmlns="http://www.w3.org/2000/svg" width="16" height="16" viewBox="0 0 16 16">
  <path d="M11.8114478,9.97979739 C11.9371503,10.1054999 12,10.2581366 12,10.4377107 C12,10.6172847 11.9371503,10.7699207 11.8114478,10.8956227 L10.8956241,11.8114478 C10.7699216,11.9371499 10.6172848,12 10.4377107,12 C10.2581366,12 10.1054999,11.9371499 9.97979889,11.8114478 L8.00000075,9.83164966 L6.02020261,11.8114478 C5.89450014,11.9371499 5.74186487,12 5.56228926,12 C5.38271531,12 5.23007928,11.9371499 5.10437726,11.8114478 L4.1885522,10.8956227 C4.06285011,10.7699207 4,10.6172847 4,10.4377107 C4,10.2581366 4.06285011,10.1054999 4.1885522,9.97979739 L6.16835034,7.99999925 L4.1885522,6.02020111 C4.06285011,5.89450014 4,5.74186336 4,5.56228926 C4,5.38271516 4.06285011,5.23007838 4.1885522,5.1043759 L5.10437726,4.1885522 C5.23007928,4.06284973 5.38271531,4 5.56228926,4 C5.74186487,4 5.89450014,4.06284973 6.02020261,4.1885522 L8.00000075,6.16835034 L9.97979889,4.1885522 C10.1054999,4.06284973 10.2581366,4 10.4377107,4 C10.6172848,4 10.7699216,4.06284973 10.8956241,4.1885522 L11.8114478,5.1043759 C11.9371503,5.23007838 12,5.38271516 12,5.56228926 C12,5.74186336 11.9371503,5.89450014 11.8114478,6.02020111 L9.83164966,7.99999925 L11.8114478,9.97979739 Z"/>
</svg>
