<svg xmlns="http://www.w3.org/2000/svg" width="16" height="16" viewBox="0 0 16 16">
  <path d="M14.8437945,7.96099344 C14.1145479,6.76829398 13.1339726,5.80995355 11.9022603,5.08597213 C10.6704521,4.36199071 9.36979452,4 8,4 C6.63020548,4 5.32945205,4.36189482 4.09764384,5.08597213 C2.86583562,5.80995355 1.88535616,6.76829398 1.15620548,7.96099344 C1.05206849,8.14328333 1,8.32298415 1,8.50009589 C1,8.67720764 1.05206849,8.85690846 1.15620548,9.03910245 C1.88535616,10.2318978 2.86583562,11.1903341 4.09764384,11.9141238 C5.32945205,12.6382011 6.63020548,13 8,13 C9.36979452,13 10.6705479,12.6393518 11.9022603,11.9180553 C13.1339726,11.1967589 14.1146438,10.2370759 14.8437945,9.03910245 C14.9479315,8.85690846 15,8.67730353 15,8.50009589 C15,8.32298415 14.9479315,8.14328333 14.8437945,7.96099344 L14.8437945,7.96099344 Z M6.32412329,5.82424139 C6.79024658,5.35811243 7.34880822,5.125 7.99990411,5.125 C8.1040411,5.125 8.19264384,5.16153469 8.26561644,5.23441229 C8.33849315,5.30728989 8.3750274,5.39589371 8.3750274,5.50003196 C8.3750274,5.60426611 8.33849315,5.69277404 8.26580822,5.76555574 C8.19293151,5.83852924 8.10423288,5.87496804 8.00009589,5.87496804 C7.55219178,5.87496804 7.16930137,6.03386038 6.85161644,6.35154918 C6.53383562,6.66933387 6.3750411,7.05213305 6.3750411,7.50004262 C6.3750411,7.60427676 6.33850685,7.69278469 6.26563014,7.76575818 C6.19265753,7.83873167 6.10415068,7.87517047 6.0000137,7.87517047 C5.89578082,7.87517047 5.80727397,7.83863578 5.73430137,7.76575818 C5.66132877,7.69278469 5.62489041,7.60418087 5.62489041,7.50004262 C5.62489041,6.84903469 5.858,6.29037035 6.32412329,5.82424139 L6.32412329,5.82424139 Z M11.3945205,11.0510037 C10.350274,11.6836963 9.21876712,12.0001385 8,12.0001385 C6.78123288,12.0001385 5.64972603,11.6837922 4.60547945,11.0510037 C3.56123288,10.4182151 2.69275342,9.56784862 2.0000411,8.50009589 C2.79171233,7.27086175 3.78389041,6.35154918 4.97657534,5.74225409 C4.65889041,6.28384973 4.5,6.86984316 4.5,7.50004262 C4.5,8.46365709 4.84252055,9.28774932 5.52736986,9.97270286 C6.21221918,10.6576564 7.03649315,11.0000852 8,11.0000852 C8.96360274,11.0000852 9.78768493,10.6575605 10.4726301,9.97270286 C11.1576712,9.28784521 11.5,8.46365709 11.5,7.50004262 C11.5,6.86984316 11.3411096,6.28375384 11.0233288,5.74225409 C12.2160137,6.35154918 13.2081918,7.27095764 13.999863,8.50009589 C13.3073425,9.56784862 12.438863,10.4181192 11.3945205,11.0510037 L11.3945205,11.0510037 Z"/>
</svg>
