<svg xmlns="http://www.w3.org/2000/svg" width="16" height="16" viewBox="0 0 16 16">
  <path d="M8.00000104,8.59337797 L8.00000104,12.7470206 C8.00000104,12.9077271 7.94128099,13.0467983 7.8238409,13.1642382 C7.70640081,13.2816781 7.56733062,13.3403973 7.40662203,13.3403973 C7.24591552,13.3403973 7.10684326,13.2816781 6.98940524,13.1642382 L5.65430404,11.8291383 L2.5761591,14.9072848 C2.51434854,14.9690952 2.44326766,15 2.36291399,15 C2.28256032,15 2.21147945,14.9690952 2.14966889,14.9072848 L1.09271524,13.8503311 C1.03090476,13.7885205 1,13.7174397 1,13.637086 C1,13.5567323 1.03090476,13.4856515 1.09271524,13.4238409 L4.17086172,10.345696 L2.83576177,9.01059476 C2.71832188,8.89315674 2.65960267,8.75408448 2.65960267,8.59337797 C2.65960267,8.43266938 2.71832188,8.29359919 2.83576177,8.1761591 C2.95320165,8.05871901 3.09227287,7.99999896 3.25297939,7.99999896 L7.40662203,7.99999896 C7.56733062,7.99999896 7.70640081,8.05871901 7.8238409,8.1761591 C7.94128099,8.29359919 8.00000104,8.43266938 8.00000104,8.59337797 Z M14.9072865,2.14966806 C14.9690969,2.21147841 15,2.2825597 15,2.36291399 C15,2.44326621 14.9690969,2.5143475 14.9072865,2.57615785 L11.8291404,5.65430404 L13.1642395,6.98940317 C13.2816796,7.10684326 13.3403975,7.24591552 13.3403975,7.40662203 C13.3403975,7.56732854 13.2816796,7.70640081 13.1642395,7.8238409 C13.0467994,7.94128099 12.9077271,7.99999896 12.7470206,7.99999896 L8.59337797,7.99999896 C8.43267146,7.99999896 8.29359919,7.94128099 8.1761591,7.8238409 C8.05871901,7.70640081 8.00000104,7.56732854 8.00000104,7.40662203 L8.00000104,3.25297939 C8.00000104,3.09227287 8.05871901,2.95320061 8.1761591,2.83576052 C8.29359919,2.71832043 8.43267146,2.65960246 8.59337797,2.65960246 C8.75408448,2.65960246 8.89315674,2.71832043 9.01059683,2.83576052 L10.345696,4.17085965 L13.4238421,1.09271346 C13.4856525,1.0309031 13.5567338,1 13.637086,1 C13.7174403,1 13.7885216,1.0309031 13.8503319,1.09271346 L14.9072865,2.14966806 Z"/>
</svg>
