<svg xmlns="http://www.w3.org/2000/svg" width="16" height="16" viewBox="0 0 16 16">
  <path d="M14.2500007,4.0000005 C14.4583347,4.0000005 14.6354155,4.072916 14.78125,4.2187505 C14.9270845,4.36458325 15,4.54166575 15,4.74999975 L15,14.2500001 C15,14.4583344 14.9270845,14.635416 14.78125,14.78125 C14.6354155,14.9270841 14.4583347,15 14.2500007,15 L6.7499995,15 C6.5416655,15 6.36458475,14.9270841 6.21875025,14.78125 C6.07291575,14.635416 6.00000025,14.4583344 6.00000025,14.2500001 L6.00000025,11.9999995 L1.74999995,11.9999995 C1.5416656,11.9999995 1.36458397,11.927084 1.21875,11.7812495 C1.07291594,11.6354167 1,11.4583343 1,11.2500002 L1,6.00000025 C1,5.79166625 1.05208282,5.562502 1.15624999,5.3125005 C1.26041715,5.062499 1.38541597,4.8645845 1.53124995,4.71875 L4.71875,1.53124925 C4.8645845,1.3854165 5.062499,1.2604175 5.3125005,1.1562505 C5.562502,1.0520835 5.79166625,1 6.00000025,1 L9.2500005,1 C9.4583345,1 9.63541525,1.0729155 9.78124975,1.21875 C9.92708425,1.3645845 9.99999975,1.54166525 9.99999975,1.74999925 L9.99999975,4.31249975 C10.3541683,4.10416575 10.6874978,4.0000005 11.0000005,4.0000005 L14.2500007,4.0000005 Z M9.99999975,5.66406325 L7.664063,8 L9.99999975,8 L9.99999975,5.66406325 Z M4.9999995,2.66406275 L2.66406257,4.9999995 L4.9999995,4.9999995 L4.9999995,2.66406275 Z M6.5312495,7.7187505 L9.00000075,5.24999925 L9.00000075,2.00000075 L6.00000025,2.00000075 L6.00000025,5.24999925 C6.00000025,5.458335 5.92708475,5.63541575 5.78125025,5.78125025 C5.63541575,5.92708475 5.458335,6.00000025 5.24999925,6.00000025 L2.00000005,6.00000025 L2.00000005,11.0000005 L6.00000025,11.0000005 L6.00000025,9.00000075 C6.00000025,8.791665 6.052082,8.56250075 6.15625075,8.31249925 C6.26041775,8.0624995 6.38541675,7.86458325 6.5312495,7.7187505 Z M13.9999993,13.9999999 L13.9999993,4.9999995 L11.0000005,4.9999995 L11.0000005,8.24999975 C11.0000005,8.45833375 10.9270832,8.63541625 10.7812505,8.78125075 C10.635416,8.9270835 10.4583335,9.00000075 10.2499995,9.00000075 L6.99999925,9.00000075 L6.99999925,13.9999999 L13.9999993,13.9999999 Z"/>
</svg>
