<svg xmlns="http://www.w3.org/2000/svg" width="16" height="16" viewBox="0 0 16 16">
  <path d="M1.46666667,11.1379333 C1.72439955,11.1379333 1.93333333,11.3468671 1.93333333,11.6046 L1.93333333,14 L14.0666667,14 L14.0666667,11.6046 C14.0666667,11.3468671 14.2756005,11.1379333 14.5333333,11.1379333 C14.7910662,11.1379333 15,11.3468671 15,11.6046 L15,14.4666667 C15,14.7243995 14.7910662,14.9333333 14.5333333,14.9333333 L1.46666667,14.9333333 C1.20893378,14.9333333 1,14.7243995 1,14.4666667 L1,11.6046 C1,11.3468671 1.20893378,11.1379333 1.46666667,11.1379333 Z M8,1 C8.25773288,1 8.46666667,1.20893378 8.46666667,1.46666667 L8.46666667,10.5046667 L11.4248667,7.64446667 C11.5447412,7.52851017 11.7173719,7.48531423 11.8777304,7.53115035 C12.0380889,7.57698648 12.161813,7.70489106 12.2022971,7.86668369 C12.2427811,8.02847631 12.1938745,8.19957683 12.074,8.31553333 L8.32386667,11.9392 C8.30473333,11.9578667 8.28046667,11.9667333 8.259,11.9812 C8.23193333,12.0003333 8.2072,12.0222667 8.17593333,12.0348667 C8.06297371,12.0815875 7.93609296,12.0815875 7.82313333,12.0348667 C7.78953333,12.0213333 7.76246667,11.998 7.73353333,11.977 C7.71486667,11.9634667 7.69293333,11.9564667 7.66913333,11.9336 L3.92506667,8.31646667 C3.73975672,8.13747118 3.73463785,7.84214328 3.91363333,7.65683333 C4.09262882,7.47152339 4.38795672,7.46640451 4.57326667,7.6454 L7.53333333,10.5046667 L7.53333333,1.46666667 C7.53333333,1.20893378 7.74226712,1 8,1 Z"/>
</svg>
