<svg xmlns="http://www.w3.org/2000/svg" width="16" height="16" viewBox="0 0 16 16">
  <path d="M10,12.1363641 L10,14.0454546 C10,14.3106074 9.90277702,14.535984 9.70833338,14.7215909 C9.51388741,14.9071979 9.27777745,15 8.99999883,15 L6.99999977,15 C6.72222068,15 6.48611189,14.9071979 6.29166662,14.7215909 C6.09722123,14.535984 6,14.3106074 6,14.0454546 L6,12.1363641 C6,11.8712118 6.09722123,11.645834 6.29166662,11.4602265 C6.48611189,11.2746211 6.72222068,11.1818174 6.99999977,11.1818174 L8.99999883,11.1818174 C9.27777745,11.1818174 9.51388741,11.2746211 9.70833338,11.4602265 C9.90277702,11.645834 10,11.8712118 10,12.1363641 Z M10,7.04545323 L10,8.95454454 C10,9.21969915 9.90277702,9.44507466 9.70833338,9.63068221 C9.51388741,9.81628754 9.27777745,9.90909131 8.99999883,9.90909131 L6.99999977,9.90909131 C6.72222068,9.90909131 6.48611189,9.81628754 6.29166662,9.63068221 C6.09722123,9.44507466 6,9.21969915 6,8.95454454 L6,7.04545323 C6,6.78030085 6.09722123,6.55492534 6.29166662,6.36931779 C6.48611189,6.18371024 6.72222068,6.09090869 6.99999977,6.09090869 L8.99999883,6.09090869 C9.27777745,6.09090869 9.51388741,6.18371024 9.70833338,6.36931779 C9.90277702,6.55492534 10,6.78030085 10,7.04545323 Z M10,1.95454454 L10,3.86363586 C10,4.12878823 9.90277702,4.35416597 9.70833338,4.5397713 C9.51388741,4.72537885 9.27777745,4.8181804 8.99999883,4.8181804 L6.99999977,4.8181804 C6.72222068,4.8181804 6.48611189,4.72537885 6.29166662,4.5397713 C6.09722123,4.35416597 6,4.12878823 6,3.86363586 L6,1.95454454 C6,1.68939217 6.09722123,1.46401443 6.29166662,1.2784091 C6.48611189,1.09280155 6.72222068,1 6.99999977,1 L8.99999883,1 C9.27777745,1 9.51388741,1.09280155 9.70833338,1.2784091 C9.90277702,1.46401443 10,1.68939217 10,1.95454454 Z"/>
</svg>
