<svg xmlns="http://www.w3.org/2000/svg" width="16" height="16" viewBox="0 0 16 16">
  <path d="M12.136,6 C11.872,6 11.646,6.097 11.46,6.292 C11.275,6.486 11.181,6.722 11.181,7 L11.181,9 C11.181,9.278 11.275,9.514 11.46,9.708 C11.646,9.902 11.872,10 12.136,10 L14.045,10 C14.311,10 14.536,9.902 14.722,9.708 C14.907,9.514 15,9.278 15,9 L15,7 C15,6.722 14.907,6.486 14.722,6.292 C14.536,6.097 14.311,6 14.045,6 L12.136,6 Z M7.046,6 C6.78,6 6.554,6.097 6.369,6.292 C6.184,6.486 6.091,6.722 6.091,7 L6.091,9 C6.091,9.278 6.184,9.514 6.369,9.708 C6.554,9.902 6.78,10 7.046,10 L8.955,10 C9.22,10 9.445,9.902 9.63,9.708 C9.817,9.514 9.91,9.278 9.91,9 L9.91,7 C9.91,6.722 9.817,6.486 9.63,6.292 C9.445,6.097 9.22,6 8.955,6 L7.046,6 Z M1.954,6 C1.69,6 1.464,6.097 1.279,6.292 C1.093,6.486 1,6.722 1,7 L1,9 C1,9.278 1.093,9.514 1.279,9.708 C1.464,9.902 1.69,10 1.954,10 L3.864,10 C4.129,10 4.354,9.902 4.539,9.708 C4.725,9.514 4.818,9.278 4.818,9 L4.818,7 C4.818,6.722 4.725,6.486 4.539,6.292 C4.354,6.097 4.129,6 3.864,6 L1.954,6 Z"/>
</svg>
