<svg xmlns="http://www.w3.org/2000/svg" width="16" height="16" viewBox="0 0 16 16">
  <path d="M9.28509956,10.9545458 L9.28509956,12.5454545 C9.28509956,12.6685613 9.24249837,12.7750943 9.15729598,12.8650568 C9.0720936,12.9550194 8.97119865,13 8.85460512,13 L7.13263202,13 C7.01603954,13 6.91514369,12.9550194 6.82994146,12.8650568 C6.74473922,12.7750943 6.70213878,12.6685613 6.70213878,12.5454545 L6.70213878,10.9545458 C6.70213878,10.8314381 6.74473922,10.724906 6.82994146,10.6349433 C6.91514369,10.5449806 7.01603954,10.4999992 7.13263202,10.4999992 L8.85460512,10.4999992 C8.97119865,10.4999992 9.0720936,10.5449806 9.15729598,10.6349433 C9.24249837,10.724906 9.28509956,10.8314381 9.28509956,10.9545458 Z M9.48689247,3.45454502 L9.29855162,8.90909004 C9.2940676,9.03219777 9.24810339,9.13872982 9.160659,9.22869256 C9.0732146,9.31865529 8.97119865,9.36363665 8.85460512,9.36363665 L7.13263202,9.36363665 C7.01603954,9.36363665 6.91402254,9.31865529 6.82657814,9.22869256 C6.73913375,9.13872982 6.69317014,9.03219777 6.68868582,8.90909004 L6.50034495,3.45454502 C6.49586062,3.33143888 6.53509791,3.22490524 6.61805799,3.13494251 C6.70101808,3.04497977 6.80079292,3 6.9173854,3 L9.06985159,3 C9.18644512,3 9.28621906,3.04497977 9.36917944,3.13494251 C9.45213981,3.22490524 9.49137648,3.33143888 9.48689247,3.45454502 Z"/>
</svg>
