<svg xmlns="http://www.w3.org/2000/svg" width="16" height="16" viewBox="0 0 16 16">
  <path d="M7.79036473,9.24869862 C7.85112882,9.3094627 7.88151086,9.37934078 7.88151086,9.45833287 C7.88151086,9.53732699 7.85112882,9.60720507 7.79036473,9.66796915 L4.76432284,12.694011 L6.07682252,14.0065105 C6.19227468,14.1219625 6.25000077,14.2586798 6.25000077,14.4166666 C6.25000077,14.5746537 6.19227468,14.711371 6.07682252,14.8268229 C5.96137035,14.9422749 5.82465423,15 5.66666599,15 L1.58333335,15 C1.42534633,15 1.28862898,14.9422749 1.17317708,14.8268229 C1.05772512,14.711371 1,14.5746537 1,14.4166666 L1,10.333334 C1,10.1753458 1.05772512,10.0386296 1.17317708,9.92317748 C1.28862898,9.80772532 1.42534633,9.74999923 1.58333335,9.74999923 C1.74132017,9.74999923 1.87803752,9.80772532 1.99348948,9.92317748 L3.30598895,11.2356772 L6.33203085,8.20963527 C6.39279493,8.14887118 6.46267301,8.11848914 6.54166713,8.11848914 C6.62065922,8.11848914 6.6905373,8.14887118 6.75130138,8.20963527 L7.79036473,9.24869862 Z M15,1.58333274 L15,5.66666599 C15,5.82465423 14.9422739,5.96137035 14.8268218,6.07682252 C14.7113716,6.19227468 14.5746535,6.25000077 14.4166673,6.25000077 C14.258679,6.25000077 14.1219629,6.19227468 14.0065107,6.07682252 L12.694011,4.76432284 L9.66796915,7.79036473 C9.60720507,7.85112882 9.53732699,7.88151086 9.45833287,7.88151086 C9.37933874,7.88151086 9.3094627,7.85112882 9.24869862,7.79036473 L8.20963527,6.75130138 C8.14887118,6.6905373 8.11848914,6.62066126 8.11848914,6.54166713 C8.11848914,6.46267301 8.14887118,6.39279493 8.20963527,6.33203085 L11.2356772,3.30598895 L9.92317748,1.99348927 C9.80772532,1.87803711 9.74999923,1.74132098 9.74999923,1.58333274 C9.74999923,1.42534653 9.80772532,1.28862837 9.92317748,1.17317825 C10.0386296,1.05772608 10.1753458,1 10.333334,1 L14.4166673,1 C14.5746535,1 14.7113716,1.05772608 14.8268218,1.17317825 C14.9422739,1.28862837 15,1.42534653 15,1.58333274 Z"/>
</svg>
