<svg xmlns="http://www.w3.org/2000/svg" width="16" height="16" viewBox="0 0 16 16">
  <path d="M6.98645873,9.83248145 C7.35104322,9.4633718 7.53333301,9.01798462 7.53333301,8.49630832 C7.53333301,7.97463368 7.35104322,7.5292465 6.98645873,7.16013685 C6.62187262,6.79102555 6.18194737,6.60647321 5.66666667,6.60647321 C5.15138596,6.60647321 4.71146071,6.79102555 4.3468746,7.16013685 C3.98229012,7.5292465 3.80000033,7.97463368 3.80000033,8.49630832 C3.80000033,9.01798462 3.98229012,9.4633718 4.3468746,9.83248145 C4.71146071,10.2015911 5.15138596,10.3861434 5.66666667,10.3861434 C6.18194737,10.3861434 6.62187262,10.2015911 6.98645873,9.83248145 Z M13.133332,12.2759802 C13.133332,12.0200632 13.0409719,11.7986007 12.8562501,11.6115845 C12.6715266,11.4245683 12.4527792,11.3310618 12.1999997,11.3310618 C11.9472201,11.3310618 11.7284727,11.4245683 11.5437492,11.6115845 C11.3590258,11.7986007 11.2666657,12.0200632 11.2666657,12.2759802 C11.2666657,12.5368167 11.3578106,12.7595111 11.5401036,12.9440651 C11.7223967,13.1286208 11.9423593,13.2208969 12.1999997,13.2208969 C12.45764,13.2208969 12.6776026,13.1286208 12.8598957,12.9440651 C13.0421871,12.7595111 13.133332,12.5368167 13.133332,12.2759802 Z M13.133332,4.71663809 C13.133332,4.46072107 13.0409719,4.23925859 12.8562501,4.05224237 C12.6715266,3.86522616 12.4527792,3.7717197 12.1999997,3.7717197 C11.9472201,3.7717197 11.7284727,3.86522616 11.5437492,4.05224237 C11.3590258,4.23925859 11.2666657,4.46072107 11.2666657,4.71663809 C11.2666657,4.97747623 11.3578106,5.200169 11.5401036,5.38472465 C11.7223967,5.5692803 11.9423593,5.66155647 12.1999997,5.66155647 C12.45764,5.66155647 12.6776026,5.5692803 12.8598957,5.38472465 C13.0421871,5.200169 13.133332,4.97747623 13.133332,4.71663809 Z M10.3333333,7.82453091 L10.3333333,9.19023248 C10.3333333,9.2394471 10.3163189,9.28743144 10.2822917,9.33418549 C10.2482628,9.38093955 10.2093748,9.40677714 10.1656243,9.41169827 L9.0354165,9.58887057 C8.98194443,9.76112174 8.90416674,9.94813465 8.80208341,10.1499143 C8.96736203,10.3861451 9.18610946,10.669125 9.45833221,10.998864 C9.49236108,11.0480786 9.50937387,11.0972932 9.50937387,11.1465078 C9.50937387,11.2055647 9.49236108,11.2523188 9.45833221,11.2867683 C9.34652728,11.4344122 9.14600786,11.6546461 8.85677067,11.9474732 C8.56753349,12.2403004 8.37673566,12.3867123 8.28437394,12.3867123 C8.23090187,12.3867123 8.17986021,12.3694867 8.13124894,12.3350371 L7.29270872,11.6706414 C7.11284606,11.7641495 6.92569547,11.840432 6.73125041,11.8994889 C6.67777672,12.4310074 6.62187425,12.8124166 6.56354139,13.0437246 C6.52951416,13.1618401 6.45659726,13.2208969 6.3447907,13.2208969 L4.988541,13.2208969 C4.93506894,13.2208969 4.88645767,13.2024427 4.84270884,13.1655309 C4.79895838,13.1286191 4.77465274,13.0855576 4.76979194,13.036343 L4.60208292,11.9068706 C4.43680429,11.8576559 4.2545145,11.7813751 4.05520865,11.6780231 L3.19479156,12.3350371 C3.16076433,12.3694867 3.11215306,12.3867123 3.04895776,12.3867123 C2.9954857,12.3867123 2.94444404,12.3670261 2.89583277,12.3276554 C2.19582975,11.6730986 1.84583322,11.2793866 1.84583322,11.1465078 C1.84583322,11.1022143 1.862847,11.0554603 1.89687489,11.0062457 C1.94548631,10.9373465 2.0451381,10.8069283 2.19583334,10.6149909 C2.34652843,10.4230536 2.46076343,10.2729508 2.53854161,10.1646793 C2.42673554,9.94813465 2.34166681,9.74635669 2.28333329,9.55934048 L1.17500006,9.38216983 C1.12638863,9.37724704 1.08506961,9.35387167 1.05104166,9.31203875 C1.01701371,9.27020582 1,9.22222314 1,9.16808574 L1,7.80238417 C1,7.75316955 1.01701371,7.70518687 1.05104166,7.65843281 C1.08506961,7.61167876 1.1239581,7.58584116 1.16770837,7.58092003 L2.29791667,7.40374773 C2.35138906,7.23149656 2.42916611,7.04448365 2.53124992,6.84270239 C2.3659713,6.60647155 2.14722355,6.32349162 1.87499998,5.99375268 C1.84097193,5.93961693 1.82395832,5.89040396 1.82395832,5.84611047 C1.82395832,5.78705193 1.84097193,5.73783897 1.87499998,5.69846661 C1.98194492,5.55082275 2.18124849,5.33182084 2.47291657,5.04145425 C2.76458465,4.75108601 2.95659604,4.60590602 3.04895776,4.60590602 C3.10243146,4.60590602 3.15347149,4.62312998 3.20208276,4.6575812 L4.04062461,5.32197527 C4.20590324,5.23338994 4.39305383,5.15464688 4.60208292,5.08574608 C4.65555498,4.55422753 4.71145745,4.17528058 4.76979194,3.948892 C4.80381918,3.83077658 4.87673607,3.7717197 4.988541,3.7717197 L6.3447907,3.7717197 C6.3982644,3.7717197 6.44687403,3.7901756 6.49062449,3.82708739 C6.53437496,3.86399753 6.55868059,3.90706073 6.56354139,3.95627535 L6.73125041,5.08574608 C6.89652904,5.1349607 7.07881883,5.2112432 7.27812469,5.31459357 L8.13854178,4.6575812 C8.17742981,4.62312998 8.22604107,4.60590602 8.28437394,4.60590602 C8.33784763,4.60590602 8.38888766,4.62559054 8.43749893,4.6649629 C9.13750309,5.31951801 9.48750028,5.71323001 9.48750028,5.84611047 C9.48750028,5.89040396 9.47048584,5.93715636 9.43645861,5.98637098 C9.37812411,6.06511404 9.27604242,6.19799285 9.13020863,6.38500907 C8.9843732,6.57202363 8.87500031,6.71966584 8.80208341,6.827939 C8.91388834,7.06416983 8.99652683,7.26594614 9.0499989,7.43327617 L10.1583331,7.60306678 C10.2069444,7.61290904 10.2482628,7.63874663 10.2822917,7.68057956 C10.3163189,7.72241083 10.3333333,7.77039516 10.3333333,7.82453091 Z M15,11.7592284 L15,12.7927321 C15,12.8714751 14.6378508,12.947756 13.913541,13.0215779 C13.8552082,13.1544584 13.7822913,13.2824144 13.6947903,13.4054514 C13.9427091,13.9615776 14.066666,14.3011541 14.066666,14.4241908 C14.066666,14.4438766 14.0569444,14.4611016 14.0374996,14.475866 C13.4444412,14.8252904 13.1430553,15 13.133332,15 C13.094444,15 12.9826391,14.8843472 12.7979156,14.6530381 C12.6131922,14.4217289 12.4868048,14.2544015 12.4187487,14.1510505 C12.3215262,14.1608935 12.2486109,14.1658148 12.1999997,14.1658148 C12.1513884,14.1658148 12.0784715,14.1608935 11.981249,14.1510505 C11.9131929,14.2544015 11.7868056,14.4217289 11.6020821,14.6530381 C11.4173603,14.8843472 11.3055554,15 11.2666657,15 C11.2569441,15 10.9555582,14.8252904 10.3624998,14.475866 C10.3430549,14.4611016 10.3333333,14.4438766 10.3333333,14.4241908 C10.3333333,14.3011541 10.4572903,13.9615776 10.7052074,13.4054514 C10.6177081,13.2824144 10.5447912,13.1544584 10.4864583,13.0215779 C9.76214853,12.947756 9.39999935,12.8714751 9.39999935,12.7927321 L9.39999935,11.7592284 C9.39999935,11.6804836 9.76214853,11.6042028 10.4864583,11.5303809 C10.549652,11.3876581 10.6225689,11.2597021 10.7052074,11.1465078 C10.4572903,10.590382 10.3333333,10.2508057 10.3333333,10.1277675 C10.3333333,10.108083 10.3430549,10.0908574 10.3624998,10.0760923 C10.3819446,10.0662501 10.4670119,10.0170354 10.6177081,9.92845012 C10.7684027,9.83986315 10.9118044,9.75619896 11.0479166,9.67745589 C11.1840272,9.59871283 11.2569441,9.55934048 11.2666657,9.55934048 C11.3055554,9.55934048 11.4173603,9.67376339 11.6020821,9.90261253 C11.7868056,10.13146 11.9131929,10.2975581 11.981249,10.4009085 C12.0784715,10.3910662 12.1513884,10.3861434 12.1999997,10.3861434 C12.2486109,10.3861434 12.3215262,10.3910662 12.4187487,10.4009085 C12.6666675,10.0514834 12.8902757,9.77588513 13.0895832,9.57410552 L13.133332,9.55934048 C13.1527769,9.55934048 13.4541628,9.73158999 14.0374996,10.0760923 C14.0569444,10.0908574 14.066666,10.108083 14.066666,10.1277675 C14.066666,10.2508057 13.9427091,10.590382 13.6947903,11.1465078 C13.7774305,11.2597021 13.8503457,11.3876581 13.913541,11.5303809 C14.6378508,11.6042028 15,11.6804836 15,11.7592284 Z M15,4.19988623 L15,5.23338994 C15,5.312133 14.6378508,5.3884155 13.913541,5.46223743 C13.8552082,5.59511624 13.7822913,5.72307392 13.6947903,5.84611047 C13.9427091,6.40223634 14.066666,6.74181258 14.066666,6.86484913 C14.066666,6.88453531 14.0569444,6.90176092 14.0374996,6.91652432 C13.4444412,7.26594944 13.1430553,7.44065787 13.133332,7.44065787 C13.094444,7.44065787 12.9826391,7.32500633 12.7979156,7.09369662 C12.6131922,6.86238691 12.4868048,6.69506018 12.4187487,6.59170981 C12.3215262,6.60155207 12.2486109,6.60647321 12.1999997,6.60647321 C12.1513884,6.60647321 12.0784715,6.60155207 11.981249,6.59170981 C11.9131929,6.69506018 11.7868056,6.86238691 11.6020821,7.09369662 C11.4173603,7.32500633 11.3055554,7.44065787 11.2666657,7.44065787 C11.2569441,7.44065787 10.9555582,7.26594944 10.3624998,6.91652432 C10.3430549,6.90176092 10.3333333,6.88453531 10.3333333,6.86484913 C10.3333333,6.74181258 10.4572903,6.40223634 10.7052074,5.84611047 C10.6177081,5.72307392 10.5447912,5.59511624 10.4864583,5.46223743 C9.76214853,5.3884155 9.39999935,5.312133 9.39999935,5.23338994 L9.39999935,4.19988623 C9.39999935,4.12114317 9.76214853,4.04486068 10.4864583,3.97103875 C10.549652,3.82831602 10.6225689,3.70035999 10.7052074,3.5871657 C10.4572903,3.03103984 10.3333333,2.69146359 10.3333333,2.56842704 C10.3333333,2.54874086 10.3430549,2.53151525 10.3624998,2.51675185 C10.3819446,2.50690794 10.4670119,2.45769497 10.6177081,2.369108 C10.7684027,2.28052102 10.9118044,2.19685848 11.0479166,2.11811376 C11.1840272,2.0393707 11.2569441,2 11.2666657,2 C11.3055554,2 11.4173603,2.11442292 11.6020821,2.3432704 C11.7868056,2.57211954 11.9131929,2.73821599 11.981249,2.84156636 C12.0784715,2.8317241 12.1513884,2.82680297 12.1999997,2.82680297 C12.2486109,2.82680297 12.3215262,2.8317241 12.4187487,2.84156636 C12.6666675,2.49214289 12.8902757,2.21654466 13.0895832,2.01476339 L13.133332,2 C13.1527769,2 13.4541628,2.17224786 14.0374996,2.51675185 C14.0569444,2.53151525 14.066666,2.54874086 14.066666,2.56842704 C14.066666,2.69146359 13.9427091,3.03103984 13.6947903,3.5871657 C13.7774305,3.70035999 13.8503457,3.82831602 13.913541,3.97103875 C14.6378508,4.04486068 15,4.12114317 15,4.19988623 Z"/>
</svg>
