<svg xmlns="http://www.w3.org/2000/svg" width="16" height="16" viewBox="0 0 16 16">
  <path d="M14.4440093,5.28385349 C14.8146718,6.14670673 15,7.05207971 15,8.00000102 C15,8.94792233 14.8146718,9.85329532 14.4440093,10.7161465 C14.0733488,11.5789977 13.5750902,12.3233485 12.9492194,12.9492194 C12.3233465,13.57509 11.5789977,14.0733488 10.7161465,14.4440105 C9.85329327,14.814672 8.94792029,15 7.99999898,15 C6.95485554,15 5.96137648,14.7797332 5.01953117,14.3391928 C4.07768585,13.8986523 3.27561099,13.2773479 2.61328127,12.4752608 C2.57074621,12.4144967 2.55099819,12.3461376 2.5540364,12.2701815 C2.5570746,12.1942274 2.58289903,12.1319443 2.6315103,12.0833343 L3.88020769,10.8255206 C3.94097177,10.7708325 4.01692585,10.7434905 4.10807198,10.7434905 C4.20529614,10.7556425 4.27517422,10.7921006 4.31770826,10.8528647 C4.76128688,11.4301255 5.30511745,11.8767339 5.94921836,12.1927084 C6.59331926,12.5086828 7.27690599,12.666667 7.99999898,12.666667 C8.63194788,12.666667 9.23502354,12.5436219 9.80924432,12.2975255 C10.3834671,12.0514312 10.8802067,11.7187518 11.2994792,11.2994792 C11.7187518,10.8802067 12.0514312,10.3834671 12.2975255,9.80924432 C12.5436198,9.23502354 12.666667,8.63194788 12.666667,8.00000102 C12.666667,7.36805212 12.5436198,6.76497646 12.2975255,6.19075568 C12.0514312,5.61653286 11.7187518,5.11979333 11.2994792,4.70052076 C10.8802067,4.28124818 10.3834671,3.94856881 9.80924432,3.70247449 C9.23502354,3.45638016 8.63194788,3.33333299 7.99999898,3.33333299 C7.40451016,3.33333299 6.83333555,3.44118812 6.28645881,3.6569004 C5.73958003,3.87261473 5.25347349,4.18098806 4.82812492,4.58203059 L6.07682252,5.83984423 C6.26519281,6.02213648 6.30772685,6.23177072 6.20442668,6.46875105 C6.10112856,6.71180738 5.92187636,6.8333335 5.66666599,6.8333335 L1.58333335,6.8333335 C1.42534633,6.8333335 1.28862898,6.77560742 1.17317708,6.6601573 C1.05772512,6.54470513 1,6.40798697 1,6.25000077 L1,2.16666752 C1,1.91145715 1.12152655,1.73220494 1.36458327,1.62890682 C1.6015636,1.52560666 1.81119702,1.5681407 1.99348948,1.75651098 L3.17838479,2.9322925 C3.82856169,2.31857364 4.57139351,1.84310011 5.40690066,1.50585966 C6.24240781,1.1686192 7.10676575,1 7.99999898,1 C8.94792029,1 9.85329327,1.1853282 10.7161465,1.55599074 C11.5789977,1.92665123 12.3233465,2.42490976 12.9492194,3.05078062 C13.5750902,3.67665353 14.0733488,4.4210023 14.4440093,5.28385349 Z M9.1666665,5.37499962 L9.1666665,9.45833287 C9.1666665,9.54340299 9.13932246,9.61328107 9.08463437,9.66796915 C9.02994833,9.72265723 8.96007025,9.74999923 8.87500013,9.74999923 L5.95833236,9.74999923 C5.87326427,9.74999923 5.80338619,9.72265723 5.74869811,9.66796915 C5.69401003,9.61328107 5.66666599,9.54340299 5.66666599,9.45833287 L5.66666599,8.87500013 C5.66666599,8.78993 5.69401003,8.72005192 5.74869811,8.66536384 C5.80338619,8.6106778 5.87326427,8.58333376 5.95833236,8.58333376 L7.99999898,8.58333376 L7.99999898,5.37499962 C7.99999898,5.28992949 8.02734302,5.22005345 8.0820311,5.16536537 C8.13671918,5.11067729 8.20659727,5.08333325 8.29166739,5.08333325 L8.87500013,5.08333325 C8.96007025,5.08333325 9.02994833,5.11067729 9.08463437,5.16536537 C9.13932246,5.22005345 9.1666665,5.28992949 9.1666665,5.37499962 Z"/>
</svg>
