<!-- Generated by IcoMoon.io -->
<svg version="1.1" xmlns="http://www.w3.org/2000/svg" width="16" height="16" viewBox="0 0 16 16">
<title>hourglass_half_circle_s</title>
<path d="M8 16c-4.418 0-8-3.582-8-8s3.582-8 8-8c4.418 0 8 3.582 8 8s-3.582 8-8 8zM11.333 3.714h0.5c0.049 0 0.089-0.017 0.12-0.050s0.047-0.076 0.047-0.128v-0.357c0-0.052-0.016-0.095-0.047-0.128s-0.071-0.050-0.12-0.050h-7.667c-0.049 0-0.089 0.017-0.12 0.050s-0.047 0.076-0.047 0.128v0.357c0 0.052 0.016 0.095 0.047 0.128s0.071 0.050 0.12 0.050h0.5c0 0.971 0.185 1.829 0.555 2.575s0.832 1.316 1.388 1.71c-0.556 0.394-1.018 0.964-1.388 1.71s-0.555 1.604-0.555 2.575h-0.5c-0.049 0-0.089 0.017-0.12 0.050s-0.047 0.076-0.047 0.128v0.357c0 0.052 0.016 0.095 0.047 0.128s0.071 0.050 0.12 0.050h7.667c0.049 0 0.089-0.017 0.12-0.050s0.047-0.076 0.047-0.128v-0.357c0-0.052-0.016-0.095-0.047-0.128s-0.071-0.050-0.12-0.050h-0.5c0-0.971-0.185-1.829-0.555-2.575s-0.832-1.316-1.388-1.71c0.556-0.394 1.018-0.964 1.388-1.71s0.555-1.604 0.555-2.575zM10.667 3.714c0 0.766-0.148 1.481-0.443 2.143h-4.448c-0.295-0.662-0.443-1.376-0.443-2.143h5.333zM10.37 10.5h-4.74c0.188-0.525 0.44-0.974 0.758-1.348s0.655-0.639 1.013-0.795h1.198c0.358 0.156 0.695 0.421 1.013 0.795s0.57 0.823 0.758 1.348z"></path>
</svg>
