<svg xmlns="http://www.w3.org/2000/svg" width="16" height="16" viewBox="0 0 16 16">
  <path d="M11.3333328,3.71428625 C11.3333328,4.6852725 11.1484395,5.54370875 10.7786459,6.28962 C10.4088522,7.0355325 9.94618371,7.6056525 9.39062522,8 C9.94618371,8.3943475 10.4088522,8.9644675 10.7786459,9.71038 C11.1484395,10.4562912 11.3333328,11.3147275 11.3333328,12.2857142 L11.8333335,12.2857142 C11.881945,12.2857142 11.9218742,12.3024552 11.9531245,12.3359375 C11.9843748,12.3694198 12,12.4122021 12,12.4642858 L12,12.8214286 C12,12.8735121 11.9843748,12.9162945 11.9531245,12.9497768 C11.9218742,12.9832591 11.881945,13 11.8333335,13 L4.16666661,13 C4.11805535,13 4.07812516,12.9832591 4.046875,12.9497768 C4.01562484,12.9162945 4,12.8735121 4,12.8214286 L4,12.4642858 C4,12.4122021 4.01562484,12.3694198 4.046875,12.3359375 C4.07812516,12.3024552 4.11805535,12.2857142 4.16666661,12.2857142 L4.66666669,12.2857142 C4.66666669,11.3147275 4.8515606,10.4562912 5.22135414,9.71038 C5.5911478,8.9644675 6.05381629,8.3943475 6.60937478,8 C6.05381629,7.6056525 5.5911478,7.0355325 5.22135414,6.28962 C4.8515606,5.54370875 4.66666669,4.6852725 4.66666669,3.71428625 L4.16666661,3.71428625 C4.11805535,3.71428625 4.07812516,3.697545 4.046875,3.6640625 C4.01562484,3.63058 4,3.5877975 4,3.53571375 L4,3.17857125 C4,3.1264875 4.01562484,3.083705 4.046875,3.05022375 C4.07812516,3.01674125 4.11805535,3 4.16666661,3 L11.8333335,3 C11.881945,3 11.9218742,3.01674125 11.9531245,3.05022375 C11.9843748,3.083705 12,3.1264875 12,3.17857125 L12,3.53571375 C12,3.5877975 11.9843748,3.63058 11.9531245,3.6640625 C11.9218742,3.697545 11.881945,3.71428625 11.8333335,3.71428625 L11.3333328,3.71428625 Z M10.6666669,3.71428625 L5.33333314,3.71428625 C5.33333314,4.48065875 5.4809013,5.1949375 5.77604113,5.8571425 L10.2239577,5.8571425 C10.5190987,5.1949375 10.6666669,4.48065875 10.6666669,3.71428625 Z M10.369791,10.5 C10.1822902,9.97544375 9.92968938,9.52623 9.61197922,9.15234375 C9.29426906,8.7784575 8.9565984,8.51339375 8.5989579,8.3571425 L7.4010421,8.3571425 C7.04340044,8.51339375 6.70573094,8.7784575 6.38802078,9.15234375 C6.07031062,9.52623 5.8177098,9.97544375 5.6302078,10.5 L10.369791,10.5 Z"/>
</svg>
