<svg xmlns="http://www.w3.org/2000/svg" width="16" height="16" viewBox="0 0 16 16">
  <path d="M8,0 C12.418,0 16,3.582 16,8 C16,12.418 12.418,16 8,16 C3.582,16 0,12.418 0,8 C0,3.582 3.582,0 8,0 Z M7,4.75 C7,4.338 7.338,4 7.75,4 L8.25,4 C8.662,4 9,4.338 9,4.75 L9,5.25 C9,5.662 8.662,6 8.25,6 L7.75,6 C7.338,6 7,5.662 7,5.25 L7,4.75 Z M10,12 L6,12 L6,11 L7,11 L7,8 L6,8 L6,7 L9,7 L9,11 L10,11 L10,12 Z M8,14.5 C11.59,14.5 14.5,11.59 14.5,8 C14.5,4.41 11.59,1.5 8,1.5 C4.41,1.5 1.5,4.41 1.5,8 C1.5,11.59 4.41,14.5 8,14.5 Z"/>
</svg>
