<svg xmlns="http://www.w3.org/2000/svg" width="16" height="16" viewBox="0 0 16 16">
  <path d="M2,0 L14,0 C15.1045695,-2.02906125e-16 16,0.8954305 16,2 L16,14 C16,15.1045695 15.1045695,16 14,16 L2,16 C0.8954305,16 1.3527075e-16,15.1045695 0,14 L0,2 C-1.3527075e-16,0.8954305 0.8954305,2.02906125e-16 2,0 Z M8.77156922,1 C6.90268335,1.01188874 5.59850543,1.32218078 4.71756091,1.81436813 C3.91389243,2.26375687 3.50730291,2.88790761 3.36820652,3.52394709 C3.22910983,3.59408983 3.00084896,3.73199743 2.79993191,4.0767663 C2.53719422,4.52258839 2.42306378,5.2727583 2.67510183,6.37483009 C2.2982337,6.66015617 2.05332865,7.08338987 1.99626343,7.55180035 C1.92968735,8.10105291 2.06521739,8.69548226 2.46348483,9.12109383 C2.81419822,9.49677317 3.19582178,9.66202461 3.48946996,9.72503404 C3.61430004,9.75118878 3.62262213,9.73335613 3.71297539,9.73335613 C3.76171852,9.99252717 3.93053661,10.6154891 4.27768335,11.3002717 C4.04466704,11.4322351 3.47401487,11.752038 2.7713993,12.1598167 C2.36718735,12.3940217 1.96773083,12.6306047 1.66576087,12.8172554 C1.51358696,12.9111753 1.38756778,12.9920177 1.29245909,13.0585938 C1.24371596,13.0906931 1.2044837,13.1192257 1.167629,13.1501359 C1.14860726,13.16678 1.1307743,13.1822351 1.109375,13.2072011 C1.08678661,13.232167 1.03923226,13.2488112 1.02377717,13.392663 L1,13.5983355 L1.5682743,15 L13.8931725,15 L13.9407268,14.7539062 C13.9407268,14.7539062 14.0251359,14.3271061 14.1047892,13.8444293 C14.1856316,13.3605638 14.2712294,12.8659986 14.2510189,12.5450069 C14.2426968,12.4249322 14.1987091,12.3761888 14.1666098,12.334579 C14.1356997,12.2929688 14.1047892,12.2620583 14.0715011,12.2311482 C14.0037363,12.1681387 13.9252717,12.1075069 13.8325406,12.0421196 C13.6494565,11.9101562 13.4188178,11.7627377 13.1869903,11.6200747 C12.8731316,11.4286685 12.7304685,11.350204 12.5628395,11.2539062 C12.7269022,11.0185123 12.9432743,10.6677989 13.1751018,10.095958 C13.560292,9.14368222 13.9074388,7.72061813 13.7742866,5.83152174 C13.6470787,4.0482337 13.0253055,2.81300943 12.1039402,2.04619565 C11.2598504,1.34358009 10.1898776,1.04755435 9.07710583,1.0071333 L9.07710583,1 C9.042629,1 9.01052974,1.00475543 8.9772417,1.00475543 C8.90828804,1.00356665 8.83933409,1 8.77156922,1 Z M8.97605291,1.61345109 C10.0210598,1.63841704 10.9816576,1.90353261 11.7151833,2.51460613 C12.1110732,2.84391991 12.4475203,3.27666448 12.6995583,3.84018335 C12.5866167,3.79619565 12.4724863,3.76290761 12.3654891,3.74388587 C12.2442254,3.72129748 12.1265283,3.71059783 12.0171533,3.70703117 C11.692595,3.69514274 11.4524457,3.74507465 11.4524457,3.74507465 L11.5713315,4.34188187 C11.5713315,4.34188187 11.904212,4.27887243 12.2561141,4.34307065 C12.6080163,4.40726917 12.9206859,4.54279891 13.0431384,5.03023113 L13.0538381,5.02785326 C13.0883152,5.20855978 13.1156587,5.39996596 13.1370583,5.6008833 C13.0906928,5.51766304 13.0467051,5.43682065 12.9967729,5.34765617 C12.8410326,5.07065217 12.6888587,4.80434783 12.6888587,4.80434783 L12.1610054,5.10869565 C12.1610054,5.10869565 12.3119903,5.37262243 12.466542,5.64605978 C12.5354957,5.7685123 12.6020718,5.88858696 12.6579482,5.99082896 C12.4594087,5.99677317 12.15625,5.95516304 11.9006453,5.88145396 L11.7318272,6.46637243 C12.0480638,6.55791448 12.3892663,6.60784639 12.6793478,6.59952461 C12.8243884,6.59476917 12.9563518,6.58288043 13.0942594,6.51749313 C13.1251696,6.50203804 13.1584577,6.4830163 13.1905569,6.45805035 C13.2179007,7.95720109 12.9254413,9.09018335 12.6103939,9.86769709 C12.3654891,10.4728261 12.122962,10.8389946 11.9921873,11.0149457 L11.9719768,11.0006793 C11.9719768,11.0006793 11.3656587,11.9565217 9.9901493,11.9565217 C8.55876343,11.9565217 7.27717391,11.2729279 6.86463987,10.8342391 C6.4318953,10.3765286 6.33440874,9.78091048 6.33440874,9.78091048 L5.73284639,9.87126374 C5.73284639,9.87126374 5.84103261,10.6368887 6.42000657,11.2527174 C6.61973483,11.4631453 6.90862757,11.6771399 7.2557743,11.8709239 C7.09171196,11.9244225 6.93478261,12.0195312 6.82302974,12.1728942 C6.80519678,12.1978601 6.79330835,12.225204 6.77904204,12.2513587 C6.07642648,12.2097486 5.62466017,11.9779213 5.33933409,11.752038 C5.08016304,11.5475543 4.98743191,11.3930029 4.9588993,11.3406931 L4.91728917,11.2729279 C4.59748626,10.7545855 4.40370222,10.0353261 4.31691561,9.65608009 C4.46790074,9.54076087 4.63196309,9.35411013 4.784137,9.0497623 L4.23963987,8.77632465 C4.14690874,8.9629757 4.0625,9.06759526 3.99830148,9.1306047 L3.90319278,9.14724857 C3.90319278,9.14724857 3.80570652,9.16864817 3.61667791,9.12822683 C3.42646052,9.08899457 3.17204461,8.98675287 2.90811813,8.70499313 C2.6620243,8.44225543 2.5526493,8.02021052 2.60020365,7.62432065 C2.64894678,7.22843078 2.8451087,6.8919837 3.12686813,6.74932065 L3.13875657,6.74456522 C3.47401487,6.5567257 3.67968735,6.53889274 3.79500657,6.5638587 C3.91151487,6.59001374 3.98165761,6.65540074 4.04942248,6.77309783 C4.1861413,7.008492 4.20754061,7.39605978 4.20754061,7.39605978 L4.21348483,7.88111413 L5.43087613,7.27241848 L5.42493191,7.07744565 C5.42493191,7.07744565 5.41066561,6.78023113 5.25730291,6.34273113 C5.17646052,6.11565904 5.23233696,5.79228948 5.35597826,5.44276487 C5.47961957,5.09324057 5.659137,4.74847139 5.7245243,4.4048913 C5.79585583,4.02683439 5.67934783,3.727242 5.56640617,3.53583552 C5.68291417,3.32659639 5.87550943,3.03651487 6.17985726,2.73097826 C6.72554348,2.18410326 7.59578804,1.63960613 8.97605291,1.61345109 Z M7.9417457,3.67849857 C7.3948707,3.68563187 6.99541417,3.89843765 6.75169822,4.15285326 C6.42595109,4.49405578 6.34391961,4.8935123 6.34391961,4.8935123 L6.94072683,5.01953117 C6.94072683,5.01953117 6.99303661,4.78175943 7.19157609,4.57489817 C7.39011526,4.36803661 7.70159639,4.17781922 8.39945652,4.339504 L8.53736413,3.74745252 C8.32218048,3.69633152 8.1236413,3.676121 7.9417457,3.67849857 Z M9.05927287,4.85546883 L8.48624313,5.05757465 C8.48624313,5.05757465 8.57897396,5.32506809 8.69785983,5.63179348 C8.79653517,5.88858696 8.90472139,6.13586957 9.01171852,6.34273113 C8.88094422,6.359375 8.62771739,6.34748657 8.28532609,6.198879 L8.04279891,6.75764274 C8.49337613,6.95261557 8.87618878,7.01324743 9.18648083,6.9502377 C9.34222139,6.91932752 9.49677287,6.855129 9.60020365,6.70057752 C9.70363443,6.54483696 9.6846127,6.31657609 9.596637,6.17034639 C9.53243878,6.06453804 9.38145365,5.71144709 9.26613443,5.41304348 C9.15081522,5.11582896 9.05927287,4.85546883 9.05927287,4.85546883 Z M10.9031928,5.2513587 L10.2944971,5.27038043 C10.2944971,5.27038043 10.3337294,6.42951774 11.3074047,7.31165074 C11.7151833,7.68138587 11.919667,7.92629091 11.9588993,8.01188874 C11.9648435,8.02377717 11.9648435,8.02258839 11.9672214,8.02615504 C11.9672214,8.02139961 11.9636547,8.03566591 11.9172892,8.07727574 C11.8507131,8.13790761 11.5368544,8.30791448 11.2075406,8.4232337 C10.877038,8.53736413 10.504925,8.61463987 10.3028192,8.60869565 C10.227921,8.60631809 10.2338653,8.597996 10.2421873,8.60394022 C10.2421873,8.60037357 10.2409986,8.59918478 10.2409986,8.58848513 C10.2374319,8.53023113 10.27072,8.41966704 10.27072,8.41966704 L9.70957865,8.18902861 C9.70957865,8.18902861 9.62041417,8.37567935 9.63230291,8.61820652 C9.63824713,8.73947026 9.67510183,8.89402174 9.7939877,9.02004091 C9.91168478,9.14605978 10.0935801,9.21263587 10.286175,9.2173913 C10.6333218,9.22690217 11.0315895,9.12703804 11.4060801,8.9986413 C11.7805707,8.86905578 12.105129,8.72758152 12.323879,8.53141991 C12.4142323,8.44938874 12.5069631,8.34952461 12.5533287,8.20329491 C12.5985054,8.05706522 12.5735392,7.88705835 12.5105297,7.75271739 C12.382133,7.48165761 12.138417,7.24507465 11.7163721,6.8622623 C10.9305366,6.14894709 10.9031928,5.2513587 10.9031928,5.2513587 Z M3.40981635,7.15234383 C3.40981635,7.15234383 2.85580835,7.61837643 2.99490474,8.36022426 L3.59408952,8.24847139 C3.51324713,7.81929348 3.78787357,7.63026487 3.78787357,7.63026487 L3.40981635,7.15234383 Z M8.96416417,8.98080835 L8.58135183,9.45397426 C9.65845765,10.3289743 10.9495583,10.1268681 10.9495583,10.1268681 L10.8568272,9.52530578 C10.8568272,9.52530578 9.8225203,9.67866848 8.96416417,8.98080835 Z M12.196671,9.01647426 C11.8186141,9.44565217 11.179008,9.52292791 11.179008,9.52292791 L11.2360732,10.129246 C11.2360732,10.129246 12.0849185,10.0662366 12.6531928,9.41830835 L12.196671,9.01647426 Z M8.76205835,10.0484036 L8.174762,10.212466 C8.27938157,10.584579 8.55519678,10.8413724 8.85597826,10.9769022 C9.15675943,11.1124322 9.487262,11.154042 9.79636526,11.1611753 C10.4157609,11.1730638 10.9745243,11.0351562 10.9745243,11.0351562 L10.8318613,10.4431047 C10.8318613,10.4431047 10.328974,10.5619906 9.80944278,10.5524797 C9.54908265,10.5465355 9.29110039,10.5061141 9.10563843,10.4217051 C8.92136526,10.3384851 8.81436813,10.238621 8.76205835,10.0484036 Z M11.6450406,12.2703804 C11.7449047,12.2680029 11.8554685,12.2894022 11.9351221,12.3322011 C12.0433083,12.3880775 12.105129,12.4522757 12.122962,12.6008833 C12.1431725,12.7744565 12.1645718,13.0930707 12.1360392,13.3629417 C12.1217729,13.4984714 12.0944293,13.6221127 12.0611413,13.7017663 C12.0278533,13.7826087 11.995754,13.8087637 11.9838653,13.814708 C11.7710598,13.9217051 11.4429348,13.9335938 11.1694971,13.899117 C10.8960598,13.8646399 10.6951424,13.7980638 10.6951424,13.7980638 L10.6475881,13.7826087 L9.61565874,13.7826087 L9.55383809,13.8123301 C9.55383809,13.8123301 9.25067935,13.9585598 8.84171196,14.1047895 C8.43274457,14.2510192 7.91559096,14.3913043 7.5553667,14.3913043 C7.45431378,14.3913043 7.42815874,14.3746605 7.40557065,14.3544497 C7.38298226,14.3342391 7.34850543,14.285496 7.32116161,14.1713656 C7.26409639,13.9419159 7.25934096,13.5008493 7.26885183,12.9111753 L7.27004061,12.8897757 L7.26647396,12.870754 C7.24388587,12.6722148 7.27955148,12.5794837 7.3140283,12.5319293 C7.34969422,12.484375 7.402004,12.451087 7.511379,12.4320652 C7.72894022,12.3963996 8.12245222,12.484375 8.42085583,12.6306047 L8.42561126,12.6317935 L9.61922539,13.173913 L10.0983355,13.173913 L10.1815555,13.1061482 C10.3468069,12.972996 10.6511547,12.7649457 10.9364808,12.5925612 C11.0779551,12.5069634 11.2170515,12.4284986 11.3311819,12.3714333 C11.4453123,12.3143681 11.5463653,12.2798913 11.5475543,12.2798913 L11.5487431,12.2798913 C11.5784645,12.2739471 11.6105638,12.2715692 11.6450406,12.2703804 Z M9.73811126,12.5592732 C9.79160983,12.560462 9.84629748,12.5616507 9.90098483,12.5628398 C9.89979604,12.5640286 9.89860726,12.5640286 9.89860726,12.5652174 L9.75237757,12.5652174 L9.73811126,12.5592732 Z M5.96110726,12.6995583 C6.17510183,12.7637569 6.39979604,12.8231997 6.6577783,12.8517323 C6.66015617,12.8826427 6.65896739,12.9099866 6.66253374,12.9408967 L6.66015617,12.9016645 C6.6577783,13.0253058 6.66015617,13.1204145 6.65896739,13.2333561 C6.45091704,13.0906931 6.19769022,12.9064199 5.96110726,12.6995583 Z"/>
</svg>
