<svg xmlns="http://www.w3.org/2000/svg" width="16" height="16" viewBox="0 0 16 16">
  <path d="M12.8417581,5.03974388 L9.72107117,1.21885305 C9.60400501,1.07303243 9.44456521,1 9.24335027,1 C9.04177624,1 8.88245614,1.07291031 8.76550968,1.21885305 L5.64470308,5.03974388 C5.47568732,5.24552925 5.44648063,5.47085507 5.55696332,5.71633198 C5.67402947,5.96180889 5.86267596,6.08454734 6.12266338,6.08454734 L7.99524309,6.08454734 L7.99524309,12.452658 L4.8744365,12.452658 C4.77041759,12.452658 4.6891416,12.4890521 4.63060852,12.5620845 L3.07020522,14.47253 C2.99216112,14.571942 2.97923357,14.6882077 3.03118317,14.8208385 C3.08325247,14.9404016 3.17745602,15 3.3140332,15 L10.1796401,15 C10.2708512,15 10.345424,14.9703229 10.4039571,14.9106024 C10.4624902,14.8508819 10.4916969,14.7746742 10.4916969,14.6817349 L10.4916969,6.08466947 L12.3641569,6.08466947 C12.624264,6.08466947 12.8126711,5.96193102 12.9299766,5.71645411 C13.0468034,5.47769423 13.017477,5.25212415 12.8417581,5.03974388 L12.8417581,5.03974388 Z"/>
</svg>
