<svg xmlns="http://www.w3.org/2000/svg" width="16" height="16" viewBox="0 0 16 16">
  <path d="M5.32395742,8.5 C4.53645396,8.52418162 3.89236369,8.83370187 3.39166701,9.42857212 L2.41458322,9.42857212 C2.0159702,9.42857212 1.68055688,9.33063662 1.40833331,9.13476562 C1.13610974,8.93889462 1,8.65234537 1,8.27511137 C1,6.56788637 1.30138592,5.71428525 1.90416657,5.71428525 C1.9333335,5.71428525 2.03906161,5.7650665 2.22135418,5.866629 C2.40364674,5.96819312 2.64062282,6.070963 2.93229204,6.1749435 C3.22395962,6.27892562 3.51319354,6.33091587 3.80000033,6.33091587 C4.12569514,6.33091587 4.44895629,6.27529862 4.76979194,6.1640625 C4.74548631,6.3430075 4.73333268,6.50260362 4.73333268,6.64285737 C4.73333268,7.31510687 4.9302065,7.934149 5.32395742,8.5 Z M13.133332,13.1210938 C13.133332,13.7014537 12.9559047,14.1596896 12.6010418,14.4958147 C12.2461789,14.8319399 11.7746552,15 11.1864576,15 L4.81354078,15 C4.22534481,15 3.7538211,14.8319399 3.39895821,14.4958147 C3.04409533,14.1596896 2.86666634,13.7014537 2.86666634,13.1210938 C2.86666634,12.8647679 2.87517274,12.6144919 2.89218717,12.370256 C2.9092016,12.1260217 2.94322884,11.8624451 2.9942705,11.5795196 C3.04531216,11.2965941 3.10972103,11.0342281 3.18750036,10.7924102 C3.26527805,10.550594 3.36979015,10.314826 3.50104154,10.0850997 C3.63229294,9.85537512 3.78298589,9.65950575 3.95312532,9.49748837 C4.12326474,9.335471 4.33107537,9.2061015 4.57656209,9.109375 C4.82205044,9.0126485 5.0930531,8.96428525 5.38958311,8.96428525 C5.43819438,8.96428525 5.54270811,9.0162755 5.7031243,9.120256 C5.86354212,9.22423812 6.04097111,9.34030862 6.23541617,9.46847075 C6.42986123,9.5966345 6.68992872,9.71270337 7.01562517,9.8166855 C7.34131998,9.920666 7.66944193,9.97265625 7.99999918,9.97265625 C8.33055643,9.97265625 8.65867838,9.920666 8.98437483,9.8166855 C9.31007128,9.71270337 9.57013714,9.5966345 9.7645822,9.46847075 C9.95902889,9.34030862 10.1364579,9.22423812 10.2968741,9.120256 C10.4572919,9.0162755 10.5618056,8.96428525 10.6104169,8.96428525 C10.9069453,8.96428525 11.1779496,9.0126485 11.4234363,9.109375 C11.6689246,9.2061015 11.8767353,9.335471 12.0468747,9.49748837 C12.2170141,9.65950575 12.3677071,9.85537512 12.4989585,10.0850997 C12.6302082,10.314826 12.7347219,10.550594 12.8124996,10.7924102 C12.8902773,11.0342281 12.9546862,11.2965941 13.0057279,11.5795196 C13.0567712,11.8624451 13.0907984,12.1260217 13.1078112,12.370256 C13.1248256,12.6144919 13.133332,12.8647679 13.133332,13.1210938 Z M5.11979076,2.54408412 C5.48437688,2.90681012 5.66666667,3.34449087 5.66666667,3.85714262 C5.66666667,4.36979437 5.48437688,4.80747512 5.11979076,5.17020112 C4.75520628,5.5329255 4.3152794,5.71428525 3.80000033,5.71428525 C3.28471962,5.71428525 2.84479274,5.5329255 2.48020826,5.17020112 C2.11562312,4.80747512 1.93333333,4.36979437 1.93333333,3.85714262 C1.93333333,3.34449087 2.11562312,2.90681012 2.48020826,2.54408412 C2.84479274,2.18135975 3.28471962,2 3.80000033,2 C4.3152794,2 4.75520628,2.18135975 5.11979076,2.54408412 Z M9.97604168,4.67689662 C10.5253496,5.218566 10.7999995,5.87387975 10.7999995,6.64285737 C10.7999995,7.411835 10.5265648,8.06835612 9.97968728,8.6124435 C9.43280975,9.1565325 8.77292024,9.42857212 7.99999918,9.42857212 C7.22707976,9.42857212 6.56719025,9.1565325 6.02031272,8.6124435 C5.47343518,8.06835612 5.20000049,7.411835 5.20000049,6.64285737 C5.20000049,5.87387975 5.47343518,5.217357 6.02031272,4.67326962 C6.56719025,4.12918225 7.22707976,3.85714262 7.99999918,3.85714262 C8.77292024,3.85714262 9.43159455,4.13039125 9.97604168,4.67689662 Z M15,8.27511137 C15,8.65234537 14.8638894,8.93889462 14.5916667,9.13476562 C14.3194423,9.33063662 13.9840292,9.42857212 13.5854158,9.42857212 L12.608333,9.42857212 C12.1076363,8.83370187 11.4635444,8.52418162 10.6760409,8.5 C11.0697935,7.934149 11.2666657,7.31510687 11.2666657,6.64285737 C11.2666657,6.50260362 11.2545137,6.3430075 11.2302081,6.1640625 C11.5510421,6.27529862 11.8743032,6.33091587 12.1999997,6.33091587 C12.4868065,6.33091587 12.7760404,6.27892562 13.067708,6.1749435 C13.3593755,6.070963 13.5963526,5.96819312 13.7786457,5.866629 C13.9609371,5.7650665 14.066666,5.71428525 14.0958324,5.71428525 C14.6986141,5.71428525 15,6.56788637 15,8.27511137 Z M13.5197917,2.54408412 C13.8843762,2.90681012 14.066666,3.34449087 14.066666,3.85714262 C14.066666,4.36979437 13.8843762,4.80747512 13.5197917,5.17020112 C13.1552056,5.5329255 12.7152804,5.71428525 12.1999997,5.71428525 C11.684719,5.71428525 11.2447937,5.5329255 10.8802076,5.17020112 C10.5156231,4.80747512 10.3333333,4.36979437 10.3333333,3.85714262 C10.3333333,3.34449087 10.5156231,2.90681012 10.8802076,2.54408412 C11.2447937,2.18135975 11.684719,2 12.1999997,2 C12.7152804,2 13.1552056,2.18135975 13.5197917,2.54408412 Z"/>
</svg>
