<svg xmlns="http://www.w3.org/2000/svg" width="16" height="16" viewBox="0 0 16 16">
  <path d="M12.9945696,11.7117764 C12.6524071,11.7664289 12.3039172,11.7937531 11.949083,11.7937531 C10.7958759,11.7937531 9.72822444,11.5204967 8.74609654,10.9739758 C7.76396864,10.4274528 6.98778204,9.68358826 6.41751546,8.74235569 C5.84724675,7.80112312 5.56211772,6.77792812 5.56211772,5.67273803 C5.56211772,4.50682544 5.89159997,3.42290589 6.55057724,2.42094877 C5.27698018,2.78529811 4.23625613,3.48058421 3.42837741,4.50683156 C2.62049827,5.53307891 2.21656487,6.69897314 2.21656487,8.00455506 C2.21656487,8.79397421 2.37813827,9.54846685 2.70128976,10.2680554 C3.02444146,10.987642 3.45688882,11.6070234 3.99864186,12.1262201 C4.54039702,12.6454148 5.18668978,13.0598553 5.93754141,13.3695511 C6.68839517,13.6792467 7.47566954,13.8340923 8.29938793,13.8340923 C9.21181701,13.8340923 10.078294,13.6473669 10.8988466,13.2739103 C11.719397,12.9004531 12.417965,12.3797465 12.9945696,11.7117764 Z M14.9239653,10.9375415 C14.328351,12.1702506 13.4301925,13.1554939 12.2294643,13.8932986 C11.028734,14.6311032 9.71872064,15 8.29938793,15 C7.31092416,15 6.36682851,14.8147926 5.46707329,14.4443722 C4.56731808,14.0739516 3.79113149,13.576017 3.13849222,12.9505536 C2.48585316,12.3250899 1.96628397,11.5812233 1.57976911,10.7189335 C1.19325445,9.85664364 1,8.95185967 1,8.00455506 C1,7.07546658 1.18216608,6.18738278 1.54650366,5.34027306 C1.91084128,4.49316334 2.40506593,3.7599249 3.02919208,3.14053326 C3.65331781,2.52114162 4.39940689,2.02168923 5.26748063,1.64215977 C6.13555437,1.26263031 7.05430654,1.0546525 8.02376058,1.01821614 C8.30255799,1.00607205 8.49581266,1.12448308 8.60353096,1.37345537 C8.717583,1.62242562 8.67006185,1.84103155 8.46096325,2.02927725 C7.91604228,2.50292956 7.49943544,3.05399843 7.21113421,3.68249814 C6.92283086,4.31099785 6.77868344,4.9744057 6.77868344,5.67273803 C6.77868344,6.57146424 7.00995545,7.40034353 7.47250586,8.15940041 C7.93505627,8.91845933 8.56233929,9.51962463 9.35437833,9.96291466 C10.1464174,10.4062047 11.0113104,10.6278467 11.949083,10.6278467 C12.6967667,10.6278467 13.4190962,10.4730013 14.1160887,10.1633045 C14.3758785,10.0540015 14.6039805,10.0934718 14.8004073,10.2817175 C14.8891159,10.3667323 14.9445569,10.4699632 14.9667346,10.5914123 C14.9889122,10.7128614 14.9746544,10.8282364 14.9239653,10.9375415 Z"/>
</svg>
