<svg xmlns="http://www.w3.org/2000/svg" width="16" height="16" viewBox="0 0 16 16">
  <path d="M7.46153803,9.63636398 L7.46153803,12.9090908 C7.46153803,13.2045469 7.35496867,13.4602261 7.14182809,13.6761363 C6.92868561,13.8920465 6.67628471,14 6.38461596,14 L2.07692319,14 C1.78525501,14 1.53285373,13.8920465 1.31971164,13.6761363 C1.10656945,13.4602261 1,13.2045469 1,12.9090908 L1,9.63636398 C1,9.34090733 1.10656945,9.0852285 1.31971164,8.86931795 C1.53285373,8.65340739 1.78525501,8.54545402 2.07692319,8.54545402 L6.38461596,8.54545402 C6.67628471,8.54545402 6.92868561,8.65340739 7.14182809,8.86931795 C7.35496867,9.0852285 7.46153803,9.34090733 7.46153803,9.63636398 Z M7.46153803,3.09090805 L7.46153803,6.36363602 C7.46153803,6.65909267 7.35496867,6.9147715 7.14182809,7.13068205 C6.92868561,7.34659261 6.67628471,7.45454598 6.38461596,7.45454598 L2.07692319,7.45454598 C1.78525501,7.45454598 1.53285373,7.34659261 1.31971164,7.13068205 C1.10656945,6.9147715 1,6.65909267 1,6.36363602 L1,3.09090805 C1,2.79545331 1.10656945,2.53977257 1.31971164,2.32386392 C1.53285373,2.10795337 1.78525501,2 2.07692319,2 L6.38461596,2 C6.67628471,2 6.92868561,2.10795337 7.14182809,2.32386392 C7.35496867,2.53977257 7.46153803,2.79545331 7.46153803,3.09090805 Z M15,9.63636398 L15,12.9090908 C15,13.2045469 14.8934306,13.4602261 14.6802901,13.6761363 C14.4671476,13.8920465 14.2147467,14 13.9230779,14 L9.61538592,14 C9.32371717,14 9.07131627,13.8920465 8.8581738,13.6761363 C8.64503133,13.4602261 8.53846197,13.2045469 8.53846197,12.9090908 L8.53846197,9.63636398 C8.53846197,9.34090733 8.64503133,9.0852285 8.8581738,8.86931795 C9.07131627,8.65340739 9.32371717,8.54545402 9.61538592,8.54545402 L13.9230779,8.54545402 C14.2147467,8.54545402 14.4671476,8.65340739 14.6802901,8.86931795 C14.8934306,9.0852285 15,9.34090733 15,9.63636398 Z M15,3.09090805 L15,6.36363602 C15,6.65909267 14.8934306,6.9147715 14.6802901,7.13068205 C14.4671476,7.34659261 14.2147467,7.45454598 13.9230779,7.45454598 L9.61538592,7.45454598 C9.32371717,7.45454598 9.07131627,7.34659261 8.8581738,7.13068205 C8.64503133,6.9147715 8.53846197,6.65909267 8.53846197,6.36363602 L8.53846197,3.09090805 C8.53846197,2.79545331 8.64503133,2.53977257 8.8581738,2.32386392 C9.07131627,2.10795337 9.32371717,2 9.61538592,2 L13.9230779,2 C14.2147467,2 14.4671476,2.10795337 14.6802901,2.32386392 C14.8934306,2.53977257 15,2.79545331 15,3.09090805 Z"/>
</svg>
