<svg xmlns="http://www.w3.org/2000/svg" width="16" height="16" viewBox="0 0 16 16">
  <path d="M7.96861012,11.2499991 L8.87892374,10.3437493 L7.68609766,9.15625003 L6.77578404,10.0624998 L6.77578404,10.4999998 L7.52914825,10.4999998 L7.52914825,11.2499991 L7.96861012,11.2499991 Z M11.4136765,5.88281188 C11.5026166,5.79427063 11.5052322,5.70833337 11.4215235,5.62500012 C11.3378166,5.54166512 11.251494,5.54427087 11.1625557,5.63281212 L8.41591902,8.36718724 C8.32698072,8.4557285 8.32436329,8.54166575 8.40807199,8.62499901 C8.49177892,8.70833401 8.57810154,8.70573001 8.66703983,8.61718701 L11.4136765,5.88281188 Z M12.0493265,10.2656241 L12.0493265,11.7500004 C12.0493265,12.3697948 11.8282894,12.8997373 11.3862101,13.3398438 C10.9441308,13.7799501 10.4118107,14 9.78923735,14 L3.2600891,14 C2.63751543,14 2.1051965,13.7799501 1.66311649,13.3398438 C1.22103666,12.8997373 1,12.3697948 1,11.7500004 L1,5.2499996 C1,4.63020557 1.22103666,4.1002618 1.66311649,3.66015603 C2.1051965,3.22005026 2.63751543,3 3.2600891,3 L9.78923735,3 C10.1188355,3 10.4248855,3.0651035 10.707398,3.19531226 C10.7858753,3.23177001 10.8329593,3.29166551 10.8486551,3.37499877 C10.8643492,3.46354177 10.8408063,3.53906127 10.7780266,3.60156253 L10.3934974,3.98437504 C10.3202532,4.0572923 10.236548,4.0781243 10.1423766,4.04687455 C10.0220467,4.0156248 9.90433593,3.99999905 9.78923735,3.99999905 L3.2600891,3.99999905 C2.91479688,3.99999905 2.61920903,4.12239405 2.37331834,4.36718756 C2.12742764,4.61197932 2.00448432,4.90624709 2.00448432,5.2499996 L2.00448432,11.7500004 C2.00448432,12.0937512 2.12742764,12.3880195 2.37331834,12.6328124 C2.61920903,12.8776054 2.91479688,12.9999999 3.2600891,12.9999999 L9.78923735,12.9999999 C10.1345313,12.9999999 10.4301187,12.8776054 10.6760081,12.6328124 C10.9218993,12.3880195 11.0448432,12.0937512 11.0448432,11.7500004 L11.0448432,10.7656254 C11.0448432,10.6979161 11.0683843,10.6406246 11.11547,10.5937491 L11.6177134,10.0937496 C11.696189,10.0156243 11.7877412,9.99739632 11.892377,10.0390621 C11.9970112,10.0807296 12.0493265,10.1562491 12.0493265,10.2656241 Z M11.295964,4.50000032 L13.5560531,6.74999992 L8.2825107,12.0000002 L6.0224216,12.0000002 L6.0224216,9.75000056 L11.295964,4.50000032 Z M14.7802691,5.53124912 L14.0582947,6.2500004 L11.7982056,3.99999905 L12.5201782,3.28124951 C12.6666667,3.13541501 12.8445433,3.0624995 13.0538115,3.0624995 C13.2630797,3.0624995 13.4409563,3.13541501 13.587443,3.28124951 L14.7802691,4.46874882 C14.9267558,4.61458332 15,4.79166583 15,4.99999984 C15,5.20833385 14.9267558,5.38541636 14.7802691,5.53124912 Z"/>
</svg>
