<svg xmlns="http://www.w3.org/2000/svg" width="16" height="16" viewBox="0 0 16 16">
  <path d="M4.35445597,13.8171617 L5.19538004,12.9762376 L3.02376239,10.80462 L2.18283832,11.645544 L2.18283832,12.6343238 L3.36567622,12.6343238 L3.36567622,13.8171617 L4.35445597,13.8171617 Z M9.18745828,5.24158377 C9.18745828,5.10605062 9.1196917,5.03828404 8.98415854,5.03828404 C8.92255219,5.03828404 8.87018616,5.05984688 8.82706254,5.10297051 L3.81848149,10.1115516 C3.77535787,10.1546752 3.75379503,10.2070412 3.75379503,10.2686476 C3.75379503,10.4041807 3.8215616,10.4719473 3.95709476,10.4719473 C4.01870112,10.4719473 4.07106714,10.4503844 4.11419076,10.4072608 L9.12277181,5.39867978 C9.1658975,5.35555615 9.18745828,5.30319013 9.18745828,5.24158377 Z M8.68844927,3.46732609 L12.5326739,7.31155073 L4.84422464,15 L1,15 L1,11.1557754 L8.68844927,3.46732609 Z M15,4.35445597 C15,4.68097048 14.8860297,4.95819495 14.6580849,5.18613971 L13.1240924,6.72013219 L9.27986781,2.87590755 L10.8138603,1.3511554 C11.0356448,1.11705042 11.3128693,1 11.645544,1 C11.9720586,1 12.2523631,1.11705042 12.4864681,1.3511554 L14.6580849,3.51353189 C14.8860297,3.7537971 15,4.03410167 15,4.35445597 Z"/>
</svg>
