<!-- Generated by IcoMoon.io -->
<svg version="1.1" xmlns="http://www.w3.org/2000/svg" width="32" height="32" viewBox="0 0 32 32">
<title>play_circle_s</title>
<path d="M16 32c-8.837 0-16-7.163-16-16s7.163-16 16-16c8.837 0 16 7.163 16 16s-7.163 16-16 16zM11 21.998c0 0.455 0.135 0.759 0.404 0.912s0.588 0.111 0.956-0.125l10.373-6.258c0.059-0.046 0.119-0.12 0.178-0.22s0.089-0.203 0.089-0.307c0-0.23-0.121-0.429-0.364-0.596l-10.276-6.18c-0.367-0.242-0.686-0.287-0.956-0.134s-0.404 0.457-0.404 0.912v11.998z"></path>
</svg>
