<!-- Generated by IcoMoon.io -->
<svg version="1.1" xmlns="http://www.w3.org/2000/svg" width="16" height="16" viewBox="0 0 16 16">
<title>question_circle_s</title>
<path d="M9.333 13v-2c0-0.188-0.146-0.333-0.333-0.333h-2c-0.188 0-0.333 0.146-0.333 0.333v2c0 0.188 0.146 0.333 0.333 0.333h2c0.188 0 0.333-0.146 0.333-0.333zM12 6c0-1.906-2-3.333-3.792-3.333-1.698 0-2.969 0.729-3.865 2.219-0.094 0.146-0.052 0.333 0.083 0.438l1.375 1.042c0.052 0.042 0.125 0.063 0.198 0.063 0.094 0 0.198-0.042 0.26-0.125 0.49-0.625 0.698-0.813 0.896-0.958 0.177-0.125 0.521-0.25 0.896-0.25 0.667 0 1.281 0.427 1.281 0.885 0 0.542-0.281 0.813-0.917 1.104-0.74 0.333-1.75 1.198-1.75 2.208v0.375c0 0.188 0.146 0.333 0.333 0.333h2c0.188 0 0.333-0.146 0.333-0.333 0-0.24 0.302-0.75 0.792-1.031 0.792-0.448 1.875-1.052 1.875-2.635zM16 8c0 4.417-3.583 8-8 8s-8-3.583-8-8c0-4.417 3.583-8 8-8s8 3.583 8 8z"></path>
</svg>
