<svg xmlns="http://www.w3.org/2000/svg" width="16" height="16" viewBox="0 0 16 16">
  <path d="M8.03490006,3 C9.95281738,3 12,4.42346471 12,6.3 C12,8.79182353 9.16950164,8.83016176 9.16950164,9.75099118 L9.16950164,9.79411765 C9.16950164,10.0085206 8.9866792,10.1823529 8.76118798,10.1823529 L6.85572423,10.1823529 C6.63023301,10.1823529 6.44741057,10.0085206 6.44741057,9.79411765 L6.44741057,9.66470588 C6.44741057,8.33632647 7.5065762,7.80531765 8.30700709,7.37867941 C8.99334833,7.0128 9.41401348,6.76397353 9.41401348,6.27945588 C9.41401348,5.63854412 8.55420698,5.21316765 7.859087,5.21316765 C6.93391629,5.21316765 6.51713012,5.63825294 5.90928719,6.37130588 C5.77168548,6.53727647 5.51934764,6.56765588 5.34224159,6.43995882 L4.16156861,5.58875294 C3.98912414,5.46442059 3.94887122,5.23377647 4.06918764,5.06275882 C4.99789707,3.74272647 6.18057759,3 8.03490006,3 Z M7.8084561,11.0235294 C8.67152911,11.0235294 9.37365848,11.6911324 9.37365848,12.5117647 C9.37365848,13.3323647 8.67152911,14 7.8084561,14 C6.9453831,14 6.24325373,13.3323647 6.24325373,12.5117647 C6.24325373,11.6911324 6.9453831,11.0235294 7.8084561,11.0235294 Z"/>
</svg>
