<svg xmlns="http://www.w3.org/2000/svg" width="16" height="16" viewBox="0 0 16 16">
  <path d="M9.58173046,9.59014338 C10.3221205,8.84975522 10.692308,7.96074252 10.692308,6.923077 C10.692308,5.88541147 10.3235227,4.99779904 9.5859388,4.26021519 C8.84835495,3.52263134 7.96074252,3.15384601 6.923077,3.15384601 C5.88541147,3.15384601 4.99780092,3.52263134 4.26021707,4.26021519 C3.52263322,4.99779904 3.15384601,5.88541147 3.15384601,6.923077 C3.15384601,7.96074252 3.52263322,8.84835307 4.26021707,9.58593692 C4.99780092,10.3235208 5.88541147,10.692308 6.923077,10.692308 C7.96074252,10.692308 8.8469528,10.3249229 9.58173046,9.59014338 Z M15,13.9230768 C15,14.214745 14.8934306,14.4671463 14.6802901,14.6802884 C14.4671476,14.8934306 14.2147467,15 13.9230779,15 C13.620192,15 13.3677911,14.8934306 13.1658658,14.6802884 L10.2800483,11.8028836 C9.2760364,12.498401 8.15705726,12.846154 6.923077,12.846154 C6.1209903,12.846154 5.35397064,12.6905055 4.6219954,12.3792066 C3.89002017,12.0679077 3.25901698,11.6472389 2.72896642,11.117187 C2.19891567,10.587137 1.77824688,9.95613382 1.46694722,9.22415859 C1.15564749,8.49218336 1,7.7251637 1,6.923077 C1,6.12098841 1.15564749,5.35396875 1.46694722,4.6219954 C1.77824688,3.89002017 2.19891567,3.25901698 2.72896642,2.7289651 C3.25901698,2.19891511 3.89002017,1.77824631 4.6219954,1.46694553 C5.35397064,1.15564662 6.1209903,1 6.923077,1 C7.72516558,1 8.49218336,1.15564662 9.22415859,1.46694553 C9.95613382,1.77824631 10.587137,2.19891511 11.1171889,2.7289651 C11.6472389,3.25901698 12.0679077,3.89002017 12.3792066,4.6219954 C12.6905074,5.35396875 12.846154,6.12098841 12.846154,6.923077 C12.846154,8.15705726 12.498401,9.2760364 11.8028855,10.2800483 L14.688703,13.1658653 C14.896235,13.3733984 15,13.6257996 15,13.9230768 Z"/>
</svg>
