<svg xmlns="http://www.w3.org/2000/svg" width="16" height="16" viewBox="0 0 16 16">
  <path d="M10.625,1 C8.2086875,1 6.25,2.9586875 6.25,5.375 C6.25,5.648875 6.275375,5.916625 6.3235,6.1765 L1,11.5 L1,14.125 C1,14.6084375 1.3915625,15 1.875,15 L2.75,15 L2.75,14.125 L4.5,14.125 L4.5,12.375 L6.25,12.375 L6.25,10.625 L8,10.625 L9.1353125,9.4896875 C9.600375,9.658125 10.10175,9.75 10.625,9.75 C13.0413125,9.75 15,7.7913125 15,5.375 C15,2.9586875 13.0413125,1 10.625,1 Z M11.93575,5.37675 C11.2108125,5.37675 10.62325,4.7891875 10.62325,4.06425 C10.62325,3.3393125 11.2108125,2.75175 11.93575,2.75175 C12.6606875,2.75175 13.24825,3.3393125 13.24825,4.06425 C13.24825,4.7891875 12.6606875,5.37675 11.93575,5.37675 Z"/>
</svg>
