<svg xmlns="http://www.w3.org/2000/svg" width="16" height="16" viewBox="0 0 16 16">
  <path d="M2.00000005,12.9999995 L9.99999975,12.9999995 L9.99999975,11.9999998 L2.00000005,11.9999998 L2.00000005,12.9999995 Z M2.00000005,8.99999925 L9.99999975,8.99999925 L9.99999975,8.00000025 L2.00000005,8.00000025 L2.00000005,8.99999925 Z M14.0312507,13.0312496 C14.1770835,12.8854154 14.2500007,12.708334 14.2500007,12.4999994 C14.2500007,12.2916651 14.1770835,12.1145828 14.0312507,11.96875 C13.8854163,11.8229155 13.7083337,11.75 13.4999998,11.75 C13.2916657,11.75 13.1145832,11.8229155 12.9687505,11.96875 C12.822916,12.1145828 12.7500005,12.2916651 12.7500005,12.4999994 C12.7500005,12.708334 12.822916,12.8854154 12.9687505,13.0312496 C13.1145832,13.1770835 13.2916657,13.2499996 13.4999998,13.2499996 C13.7083337,13.2499996 13.8854163,13.1770835 14.0312507,13.0312496 Z M2.00000005,4.99999975 L9.99999975,4.99999975 L9.99999975,3.999999 L2.00000005,3.999999 L2.00000005,4.99999975 Z M14.0312507,9.031249 C14.1770835,8.88541625 14.2500007,8.70833375 14.2500007,8.49999975 C14.2500007,8.29166575 14.1770835,8.11458325 14.0312507,7.96874875 C13.8854163,7.822916 13.7083337,7.74999875 13.4999998,7.74999875 C13.2916657,7.74999875 13.1145832,7.822916 12.9687505,7.96874875 C12.822916,8.11458325 12.7500005,8.29166575 12.7500005,8.49999975 C12.7500005,8.70833375 12.822916,8.88541625 12.9687505,9.031249 C13.1145832,9.1770835 13.2916657,9.249999 13.4999998,9.249999 C13.7083337,9.249999 13.8854163,9.1770835 14.0312507,9.031249 Z M14.0312507,5.0312495 C14.1770835,4.885415 14.2500007,4.70833425 14.2500007,4.50000025 C14.2500007,4.2916645 14.1770835,4.11458375 14.0312507,3.96874925 C13.8854163,3.82291475 13.7083337,3.74999925 13.4999998,3.74999925 C13.2916657,3.74999925 13.1145832,3.82291475 12.9687505,3.96874925 C12.822916,4.11458375 12.7500005,4.2916645 12.7500005,4.50000025 C12.7500005,4.70833425 12.822916,4.885415 12.9687505,5.0312495 C13.1145832,5.177084 13.2916657,5.2499995 13.4999998,5.2499995 C13.7083337,5.2499995 13.8854163,5.177084 14.0312507,5.0312495 Z M15,10.999999 L15,13.9999995 L1,13.9999995 L1,10.999999 L15,10.999999 Z M15,6.9999995 L15,10 L1,10 L1,6.9999995 L15,6.9999995 Z M15,3 L15,5.99999875 L1,5.99999875 L1,3 L15,3 Z"/>
</svg>
