<svg xmlns="http://www.w3.org/2000/svg" width="16" height="16" viewBox="0 0 16 16">
  <path d="M12.8011577,7.21873102 C12.668567,7.07287838 12.5075579,7 12.3181303,7 L3.68178252,7 C3.49244207,7 3.33143296,7.07287838 3.19884234,7.21873102 C3.06625172,7.36458367 3,7.54160141 3,7.74997603 L3,9.25011987 C3,9.45849449 3.06625172,9.63551223 3.19884234,9.78126898 C3.33143296,9.92712162 3.49244207,10 3.68178252,10 L12.3181303,10 C12.5075579,10 12.668567,9.92712162 12.8011577,9.78126898 C12.9336611,9.63551223 13,9.45849449 13,9.25011987 L13,7.74997603 C13,7.54160141 12.9338355,7.36448777 12.8011577,7.21873102 L12.8011577,7.21873102 Z"/>
</svg>
