<svg xmlns="http://www.w3.org/2000/svg" width="16" height="16" viewBox="0 0 16 16">
  <path d="M8,1 C11.86575,1 15,1.979125 15,3.1875 L15,4.9375 C15,6.145875 11.86575,7.125 8,7.125 C4.13425,7.125 1,6.145875 1,4.9375 L1,3.1875 C1,1.979125 4.13425,1 8,1 Z M8,8.4375 C11.86575,8.4375 15,7.458375 15,6.25 L15,8.875 C15,10.083375 11.86575,11.0625 8,11.0625 C4.13425,11.0625 1,10.083375 1,8.875 L1,6.25 C1,7.458375 4.13425,8.4375 8,8.4375 Z M8,12.375 C11.86575,12.375 15,11.395875 15,10.1875 L15,12.8125 C15,14.020875 11.86575,15 8,15 C4.13425,15 1,14.020875 1,12.8125 L1,10.1875 C1,11.395875 4.13425,12.375 8,12.375 Z"/>
</svg>
