<svg xmlns="http://www.w3.org/2000/svg" width="16" height="16" viewBox="0 0 16 16">
  <path d="M12.3027996,9.74706886 C12.5532881,9.18946322 12.6785287,8.60581004 12.6785287,7.99609182 C12.6785287,7.3863736 12.5546493,6.80402314 12.3068834,6.24902295 C12.0591193,5.69402276 11.7242333,5.21459299 11.3022162,4.81072138 C10.8801992,4.40684802 10.3792333,4.08635969 9.7993002,3.84924588 C9.2193671,3.61213382 8.61085504,3.49357867 7.97374575,3.49357867 C7.33663645,3.49357867 6.7281244,3.61213382 6.14819129,3.84924588 C5.56825819,4.08635969 5.06729044,4.40684802 4.64527341,4.81072138 C4.22325821,5.21459299 3.88837221,5.69402276 3.64060627,6.24902295 C3.39284215,6.80402314 3.26896101,7.3863736 3.26896101,7.99609182 C3.26896101,8.60581004 3.39284215,9.18816049 3.64060627,9.74316068 C3.88837221,10.2981609 4.22325821,10.7775906 4.64527341,11.1814623 C5.06729044,11.5853356 5.56825819,11.9058239 6.14819129,12.1429378 C6.7281244,12.3800498 7.33663645,12.498605 7.97374575,12.498605 C8.61085504,12.498605 9.2193671,12.3800498 9.7993002,12.1429378 C10.3792333,11.9058239 10.8801992,11.5853356 11.3022162,11.1814623 C11.7242333,10.7775906 12.057758,10.2994636 12.3027996,9.74706886 Z M14.9329046,10.1613623 C14.9111227,10.2395312 14.8566709,10.2916437 14.7695453,10.3177 L12.3844802,11.068118 L12.3844802,13.4600782 C12.3844802,13.5434585 12.3490858,13.611204 12.2782953,13.6633166 C12.1966148,13.7154293 12.1176586,13.7258517 12.041423,13.6945841 L9.65635971,12.9597983 L8.18611368,14.8983808 C8.13165999,14.9661273 8.06087129,15 7.97374575,15 C7.8866202,15 7.81582967,14.9661273 7.76137598,14.8983808 L6.29113178,12.9597983 L3.90606847,13.6945841 C3.82983294,13.7258517 3.7508749,13.7154293 3.66919436,13.6633166 C3.59840566,13.611204 3.56301131,13.5434585 3.56301131,13.4600782 L3.56301131,11.068118 L1.17794636,10.3177 C1.09082038,10.2916437 1.0363674,10.2395312 1.01458589,10.1613623 C0.98735899,10.0727716 0.998249579,9.99720819 1.04725799,9.9346738 L2.51750298,7.99609182 L1.04725799,6.05750984 C0.998249579,5.98976279 0.98735899,5.91420112 1.01458589,5.83082135 C1.0363674,5.75265248 1.09082038,5.7005399 1.17794636,5.67448361 L3.56301131,4.92406563 L3.56301131,2.53210491 C3.56301131,2.44872514 3.59840566,2.38097984 3.66919436,2.32886726 C3.7508749,2.27675468 3.82983294,2.26633111 3.90606847,2.29760006 L6.29113178,3.03238532 L7.76137598,1.09380334 C7.81038467,1.0312672 7.88117337,1 7.97374575,1 C8.06631629,1 8.13710499,1.0312672 8.18611368,1.09380334 L9.65635971,3.03238532 L12.041423,2.29760006 C12.1176586,2.26633111 12.1966148,2.27675468 12.2782953,2.32886726 C12.3490858,2.38097984 12.3844802,2.44872514 12.3844802,2.53210491 L12.3844802,4.92406563 L14.7695453,5.67448361 C14.8566709,5.7005399 14.9111227,5.75265248 14.9329046,5.83082135 C14.9601314,5.91420112 14.9492414,5.98976279 14.9002327,6.05750984 L13.4299885,7.99609182 L14.9002327,9.9346738 C14.9492414,9.99720819 14.9601314,10.0727716 14.9329046,10.1613623 Z"/>
</svg>
