<svg xmlns="http://www.w3.org/2000/svg" width="16" height="16" viewBox="0 0 16 16">
  <path d="M10.3129032,5.52580645 C9.68262097,4.93564516 8.86467742,4.6121371 7.99693548,4.61290323 C6.43528226,4.61427419 5.08709677,5.68504032 4.71485887,7.1703629 C4.6877621,7.2784879 4.59143145,7.35483871 4.47995968,7.35483871 L3.32465726,7.35483871 C3.1734879,7.35483871 3.05864919,7.21760081 3.0866129,7.06903226 C3.52284274,4.7525 5.55671371,3 8,3 C9.33967742,3 10.5562702,3.52693548 11.4539315,4.38477823 L12.1739919,3.66471774 C12.4788105,3.35989919 13,3.57578629 13,4.006875 L13,6.70967742 C13,6.97691532 12.7833669,7.19354839 12.516129,7.19354839 L9.81332661,7.19354839 C9.3822379,7.19354839 9.16635081,6.67235887 9.47116935,6.36752016 L10.3129032,5.52580645 Z M3.48387097,8.80645161 L6.18667339,8.80645161 C6.6177621,8.80645161 6.83364919,9.32764113 6.52883065,9.63247984 L5.68709677,10.4742137 C6.31737903,11.0643952 7.13538306,11.3879032 8.00314516,11.3871169 C9.56399194,11.3857056 10.9127218,10.3156653 11.2851411,8.82967742 C11.3122379,8.72155242 11.4085685,8.64520161 11.5200403,8.64520161 L12.6753629,8.64520161 C12.8265323,8.64520161 12.941371,8.78243952 12.9134073,8.93100806 C12.4771573,11.2475 10.4432863,13 8,13 C6.66032258,13 5.44372984,12.4730645 4.54606855,11.6152218 L3.82600806,12.3352823 C3.52118952,12.6401008 3,12.4242137 3,11.993125 L3,9.29032258 C3,9.02308468 3.21663306,8.80645161 3.48387097,8.80645161 Z"/>
</svg>
