<!-- Generated by IcoMoon.io -->
<svg version="1.1" xmlns="http://www.w3.org/2000/svg" width="16" height="16" viewBox="0 0 16 16">
<title>sync_circle_s</title>
<path d="M8 16c-4.418 0-8-3.582-8-8s3.582-8 8-8c4.418 0 8 3.582 8 8s-3.582 8-8 8zM10.313 5.526l-0.842 0.842c-0.305 0.305-0.089 0.826 0.342 0.826h2.703c0.267 0 0.484-0.217 0.484-0.484v-2.703c0-0.431-0.521-0.647-0.826-0.342l-0.72 0.72c-0.898-0.858-2.114-1.385-3.454-1.385-2.443 0-4.477 1.752-4.913 4.069-0.028 0.149 0.087 0.286 0.238 0.286h1.155c0.111 0 0.208-0.076 0.235-0.184 0.372-1.485 1.72-2.556 3.282-2.557 0.868-0.001 1.686 0.323 2.316 0.913zM3.484 8.806c-0.267 0-0.484 0.217-0.484 0.484v2.703c0 0.431 0.521 0.647 0.826 0.342l0.72-0.72c0.898 0.858 2.114 1.385 3.454 1.385 2.443 0 4.477-1.752 4.913-4.069 0.028-0.149-0.087-0.286-0.238-0.286h-1.155c-0.111 0-0.208 0.076-0.235 0.184-0.372 1.486-1.721 2.556-3.282 2.557-0.868 0.001-1.686-0.323-2.316-0.913l0.842-0.842c0.305-0.305 0.089-0.826-0.342-0.826h-2.703z"></path>
</svg>
