<svg xmlns="http://www.w3.org/2000/svg" width="16" height="16" viewBox="0 0 16 16">
  <path d="M14.6581586,6.46874866 C14.9221497,6.46874866 15.087357,6.74642438 14.9512454,6.96432667 C14.2363123,8.10915451 12.93407,8.87499808 11.4460973,8.87499808 C9.19729095,8.87499808 7.37265866,7.12570944 7.35857913,4.96268263 C7.34444284,2.79016753 9.19076214,0.999972656 11.446154,1 C12.9325088,1.00002734 14.2335588,1.76423028 14.9490029,2.90703469 C15.0863351,3.12641354 14.9240515,3.40624941 14.6581018,3.40624941 L11.6731863,3.40624941 L10.537741,4.93749904 L11.6731863,6.46874866 L14.6581586,6.46874866 Z M9.78570712,9.01179883 L4.10132704,14.4874381 C3.39184401,15.1708403 2.24160948,15.1708676 1.53209807,14.4874381 C0.822643424,13.8040086 0.822643424,12.6959854 1.53209807,12.0125559 L7.21630783,6.53710802 C7.67502775,7.66358822 8.61582939,8.56970518 9.78570712,9.01179883 Z M3.95215791,12.8124971 C3.95215791,12.4500558 3.6471489,12.1562473 3.2708907,12.1562473 C2.89463249,12.1562473 2.58962349,12.4500558 2.58962349,12.8124971 C2.58962349,13.1749384 2.89463249,13.468747 3.2708907,13.468747 C3.6471489,13.468747 3.95215791,13.1749384 3.95215791,12.8124971 Z"/>
</svg>
