<svg xmlns="http://www.w3.org/2000/svg" width="16" height="16" viewBox="0 0 16 16">
  <path d="M10.365125,7.43125 L15,2.68525 L13.450375,1.144375 L8.7315,5.888625 L7.93525,8.303625 L10.365125,7.43125 Z M3.3765,3.95925 L7.187125,3.95925 L7.187125,4.497375 L3.3765,4.497375 L3.3765,3.95925 Z M3.421125,11.759875 L9.070125,11.759875 L9.070125,12.298 L3.421125,12.298 L3.421125,11.759875 Z M1,1 L1,14.449625 L12.029375,14.449625 L12.029375,6.6735 L10.849,7.888 L8.333375,8.800625 L9.070125,8.800625 L9.070125,9.33875 L3.421125,9.33875 L3.421125,8.800625 L7.11625,8.800625 L7.73925,6.917625 L3.421125,6.917625 L3.421125,6.380375 L7.91775,6.380375 L8.23625,5.421375 L12.029375,1.62825 L12.029375,1 L1,1 Z"/>
</svg>
