<svg xmlns="http://www.w3.org/2000/svg" width="24" height="24" viewBox="0 0 24 24">
  <g fill="#66C">
    <path d="M12,24 C5.372583,24 0,18.627417 0,12 C0,5.372583 5.372583,0 12,0 C18.627417,0 24,5.372583 24,12 C24,18.627417 18.627417,24 12,24 Z M12,23 C18.0751322,23 23,18.0751322 23,12 C23,5.92486775 18.0751322,1 12,1 C5.92486775,1 1,5.92486775 1,12 C1,18.0751322 5.92486775,23 12,23 Z"/>
    <path d="M6.6,11.1384615 L6.6,6.52307692 L11.2153846,6.52307692 L11.2153846,11.1384615 L6.6,11.1384615 Z M18.6,8.83076923 L15.3692308,12.0615385 L12.1384615,8.83076923 L15.3692308,5.6 L18.6,8.83076923 Z M6.6,17.6 L6.6,12.9846154 L11.2153846,12.9846154 L11.2153846,17.6 L6.6,17.6 Z M13.0615385,17.6 L13.0615385,12.9846154 L17.6769231,12.9846154 L17.6769231,17.6 L13.0615385,17.6 Z"/>
  </g>
</svg>
