<svg xmlns="http://www.w3.org/2000/svg" width="24" height="24" viewBox="0 0 24 24">
  <g fill="none">
    <path fill="#006EFF" d="M12,24 C5.372583,24 0,18.627417 0,12 C0,5.372583 5.372583,0 12,0 C18.627417,0 24,5.372583 24,12 C24,18.627417 18.627417,24 12,24 Z M12,23 C18.0751322,23 23,18.0751322 23,12 C23,5.92486775 18.0751322,1 12,1 C5.92486775,1 1,5.92486775 1,12 C1,18.0751322 5.92486775,23 12,23 Z"/>
    <g transform="translate(4 4)">
      <rect width="16" height="16" opacity=".1"/>
      <path fill="#006EFF" d="M14.8970332,8.26089851 L11.4151259,11.8378914 C11.3492008,11.9056202 11.2597852,11.94367 11.1665508,11.94367 C11.0733163,11.94367 10.9839007,11.9056202 10.9179756,11.8378914 L10.4208253,11.3271647 C10.3548969,11.2594392 10.3178585,11.1675819 10.3178585,11.0718013 C10.3178585,10.9760207 10.3548969,10.8841634 10.4208253,10.8164379 L13.1570071,8.00553513 L10.4208253,5.19463234 C10.3548969,5.12690691 10.3178585,5.03504953 10.3178585,4.93926897 C10.3178585,4.84348841 10.3548969,4.75163103 10.4208253,4.6839056 L10.9179756,4.17317885 C10.9839007,4.10545012 11.0733163,4.06740023 11.1665508,4.06740023 C11.2597852,4.06740023 11.3492008,4.10545012 11.4151259,4.17317885 L14.8970332,7.75017176 C14.9629616,7.81789719 15,7.90975457 15,8.00553513 C15,8.10131569 14.9629616,8.19317307 14.8970332,8.26089851 Z M6.69683543,13.9865646 L6.06148474,13.8036177 C5.8861836,13.7531167 5.77859136,13.5749341 5.82032973,13.405327 L8.64926348,2.23413235 C8.69471193,2.06071394 8.88299834,1.9616177 9.07128475,2.01402437 L9.75115637,2.20078265 C9.93851526,2.25223647 10.0544552,2.43518336 10.0090067,2.60860177 L7.09103112,13.7712208 C7.04929275,13.9408278 6.87213657,14.0370655 6.69683543,13.9865646 Z M5.58010224,11.3271647 L5.08295191,11.8378914 C5.0170268,11.9056202 4.92761122,11.94367 4.83437675,11.94367 C4.74114228,11.94367 4.65172671,11.9056202 4.58580159,11.8378914 L1.10296675,8.26089851 C1.03703842,8.19317307 1,8.10131569 1,8.00553513 C1,7.90975457 1.03703842,7.81789719 1.10296675,7.75017176 L4.58487407,4.17317885 C4.65079919,4.10545012 4.74021476,4.06740023 4.83344923,4.06740023 C4.9266837,4.06740023 5.01609928,4.10545012 5.08202439,4.17317885 L5.57917472,4.6839056 C5.64510305,4.75163103 5.68214147,4.84348841 5.68214147,4.93926897 C5.68214147,5.03504953 5.64510305,5.12690691 5.57917472,5.19463234 L2.84299289,8.00553513 L5.57917472,10.8164379 C5.64545419,10.8839118 5.68281736,10.9757446 5.68299145,11.0716032 C5.68316554,11.1674618 5.64613617,11.2594372 5.58010224,11.3271647 Z"/>
    </g>
  </g>
</svg>
