<svg xmlns="http://www.w3.org/2000/svg" width="24" height="24" viewBox="0 0 24 24">
  <g fill="none">
    <path fill="#006EFF" d="M12,24 C5.372583,24 0,18.627417 0,12 C0,5.372583 5.372583,0 12,0 C18.627417,0 24,5.372583 24,12 C24,18.627417 18.627417,24 12,24 Z M12,23 C18.0751322,23 23,18.0751322 23,12 C23,5.92486775 18.0751322,1 12,1 C5.92486775,1 1,5.92486775 1,12 C1,18.0751322 5.92486775,23 12,23 Z"/>
    <path fill="#006EFF" d="M17.1291669,6.89587624 L16.6349127,6.89587624 L16.6349127,6.37437348 C16.6349127,6.17185856 16.4708376,6.00747845 16.2678851,6.00747845 L7.37250387,6.00747845 C7.16982983,6.00747845 7.00574144,6.17185856 7.00574144,6.37437348 L7.00574144,16.7380508 C7.00574144,16.9407249 7.16984309,17.1049459 7.37250387,17.1049459 L7.86673149,17.1049459 L7.86673149,17.6264486 C7.86673149,17.8291227 8.03081989,17.9933569 8.23375912,17.9933569 L17.1291403,17.9933569 C17.3318144,17.9933569 17.4959028,17.8291227 17.4959028,17.6264619 L17.4959028,7.26277127 C17.4959028,7.06022983 17.3318144,6.89587624 17.1291669,6.89587624 Z M8.87393591,14.3756287 C8.50046409,14.3756287 8.19771934,14.072884 8.19771934,13.6992796 C8.19771934,13.3256486 8.50046409,13.0227713 8.87393591,13.0227713 C9.24768619,13.0227713 9.55043094,13.3256486 9.55043094,13.6992796 C9.55043094,14.072884 9.24768619,14.3756287 8.87393591,14.3756287 Z M8.87393591,11.8869878 C8.50046409,11.8869878 8.19771934,11.5840972 8.19771934,11.2106254 C8.19771934,10.837021 8.50046409,10.5342762 8.87393591,10.5342762 C9.24768619,10.5342762 9.55043094,10.837021 9.55043094,11.2106254 C9.55043094,11.5840972 9.24768619,11.8870011 8.87393591,11.8870011 L8.87393591,11.8869878 Z M8.87393591,9.2847116 C8.50046409,9.2847116 8.19771934,8.98196685 8.19771934,8.60836243 C8.19771934,8.23487735 8.50046409,7.932 8.87393591,7.932 C9.24768619,7.932 9.55043094,8.23487735 9.55043094,8.60836243 C9.55043094,8.98196685 9.24768619,9.2847116 8.87393591,9.2847116 Z M15.1368486,13.9886055 C15.1368486,14.0974939 15.0552088,14.1858166 14.9545812,14.1858166 L10.305768,14.1858166 C10.2051271,14.1858166 10.123779,14.0974939 10.123779,13.9886055 L10.123779,13.4099271 C10.123779,13.3009193 10.2051271,13.2127293 10.305768,13.2127293 L14.9546077,13.2127293 C15.0552221,13.2127293 15.1368619,13.3009326 15.1368619,13.4099403 L15.1368619,13.9886055 L15.1368486,13.9886055 Z M15.1368486,11.4999646 C15.1368486,11.608853 15.0552088,11.6970431 14.9545812,11.6970431 L10.305768,11.6970431 C10.2051271,11.6970431 10.123779,11.608853 10.123779,11.4999646 L10.123779,10.9213127 C10.123779,10.8124243 10.2051271,10.7242343 10.305768,10.7242343 L14.9546077,10.7242343 C15.0552221,10.7242343 15.1368619,10.812411 15.1368619,10.9213127 L15.1368619,11.4999646 L15.1368486,11.4999646 Z M15.1368486,8.8976884 C15.1368486,9.0065768 15.0552088,9.09489945 14.9545812,9.09489945 L10.305768,9.09489945 C10.2051271,9.09489945 10.123779,9.0065768 10.123779,8.8976884 L10.123779,8.31890387 C10.123779,8.21014807 10.2051271,8.12194475 10.305768,8.12194475 L14.9546077,8.12194475 C15.0552221,8.12194475 15.1368619,8.21014807 15.1368619,8.31889061 L15.1368619,8.8976884 L15.1368486,8.8976884 Z"/>
  </g>
</svg>
