<svg xmlns="http://www.w3.org/2000/svg" width="24" height="24" viewBox="0 0 24 24">
  <g fill="none">
    <path fill="#006EFF" d="M12,24 C5.372583,24 0,18.627417 0,12 C0,5.372583 5.372583,0 12,0 C18.627417,0 24,5.372583 24,12 C24,18.627417 18.627417,24 12,24 Z M12,23 C18.0751322,23 23,18.0751322 23,12 C23,5.92486775 18.0751322,1 12,1 C5.92486775,1 1,5.92486775 1,12 C1,18.0751322 5.92486775,23 12,23 Z"/>
    <g transform="translate(4 4)">
      <rect width="16" height="16" fill="#FFE5FF" opacity="0"/>
      <path fill="#006EFF" d="M5.30769229,7.4445063 L5.30769229,3.60011132 C5.30769229,3.26874047 5.57632144,3.00011132 5.90769229,3.00011132 L10.7923077,3.00011132 L14.5487058,3.00013261 C14.7209233,2.99657824 14.8870867,3.06460493 15.0096139,3.18854174 C15.1315299,3.3118603 15.200034,3.48017843 15.2,3.65566069 L15.2,12.5444507 C15.2,12.7176616 15.1332362,12.8839587 15.0140946,13.0068811 C14.8943617,13.1304137 14.7315327,13.2000001 14.5615384,13.2000001 L1.63846154,13.2000001 C1.28513777,13.2000001 1,12.9058136 1,12.5444507 L1,8.10005567 C1,7.73869279 1.28513777,7.4445063 1.63846154,7.4445063 L5.30769229,7.4445063 Z M13.9227533,4.31121006 L10.8923077,4.31121006 L10.8923077,7.4445063 L13.9126302,7.4445063 L13.9227533,4.31121006 Z M6.5842928,7.4445063 L9.60461536,7.4445063 L9.60461536,4.31121006 L6.57416974,4.31121006 L6.5842928,7.4445063 Z M2.26647745,8.75560505 L2.27660051,11.8889013 L5.29692307,11.8889013 L5.29692307,8.75560505 L2.26647745,8.75560505 Z M6.5842928,11.8889013 L9.60461536,11.8889013 L9.60461536,8.75560505 L6.57416974,8.75560505 L6.5842928,11.8889013 Z M13.9227533,8.75560505 L10.8923077,8.75560505 L10.8923077,11.8889013 L13.9126302,11.8889013 L13.9227533,8.75560505 Z" transform="matrix(-1 0 0 1 16.2 0)"/>
    </g>
  </g>
</svg>
